<?xml version="1.0" encoding="UTF-8" standalone="no"?><svg xmlns="http://www.w3.org/2000/svg" xmlns:xlink="http://www.w3.org/1999/xlink" clip-rule="evenodd" stroke-miterlimit="10" viewBox="0 0 466 550"><desc>SVG generated by Keynote</desc><defs></defs><g transform="matrix(1.00, 0.00, -0.00, -1.00, 0.0, 550.0)"><text xml:space="preserve" font-family="GillSans-Light,Gill Sans" font-size="33.2" fill="#FEFFFE" transform="matrix(1.00, 0.00, -0.00, -1.00, 1.0, 519.9)">•</text><text xml:space="preserve" font-family="GillSans-Light,Gill Sans" font-size="40.5" fill="#FEFFFE" transform="matrix(1.00, 0.00, -0.00, -1.00, 37.2, 517.7)">M</text><text xml:space="preserve" font-family="GillSans-Light,Gill Sans" font-size="40.5" fill="#FEFFFE" transform="matrix(1.00, 0.00, -0.00, -1.00, 68.8, 517.7)">o</text><text xml:space="preserve" font-family="GillSans-Light,Gill Sans" font-size="40.5" fill="#FEFFFE" transform="matrix(1.00, 0.00, -0.00, -1.00, 90.8, 517.7)">d</text><text xml:space="preserve" font-family="GillSans-Light,Gill Sans" font-size="40.5" fill="#FEFFFE" transform="matrix(1.00, 0.00, -0.00, -1.00, 111.4, 517.7)">e</text><text xml:space="preserve" font-family="GillSans-Light,Gill Sans" font-size="40.5" fill="#FEFFFE" transform="matrix(1.00, 0.00, -0.00, -1.00, 130.8, 517.7)">l</text><text xml:space="preserve" font-family="GillSans-Light,Gill Sans" font-size="40.5" fill="#FEFFFE" transform="matrix(1.00, 0.00, -0.00, -1.00, 138.5, 517.7)"> </text><text xml:space="preserve" font-family="GillSans-Light,Gill Sans" font-size="40.5" fill="#FEFFFE" transform="matrix(1.00, 0.00, -0.00, -1.00, 149.7, 517.7)">w</text><text xml:space="preserve" font-family="GillSans-Light,Gill Sans" font-size="40.5" fill="#FEFFFE" transform="matrix(1.00, 0.00, -0.00, -1.00, 178.4, 517.7)">a</text><text xml:space="preserve" font-family="GillSans-Light,Gill Sans" font-size="40.5" fill="#FEFFFE" transform="matrix(1.00, 0.00, -0.00, -1.00, 195.6, 517.7)">s</text><text xml:space="preserve" font-family="GillSans-Light,Gill Sans" font-size="40.5" fill="#FEFFFE" transform="matrix(1.00, 0.00, -0.00, -1.00, 210.0, 517.7)"> </text><text xml:space="preserve" font-family="GillSans-Light,Gill Sans" font-size="40.5" fill="#FEFFFE" transform="matrix(1.00, 0.00, -0.00, -1.00, 221.2, 517.7)">d</text><text xml:space="preserve" font-family="GillSans-Light,Gill Sans" font-size="40.5" fill="#FEFFFE" transform="matrix(1.00, 0.00, -0.00, -1.00, 241.9, 517.7)">e</text><text xml:space="preserve" font-family="GillSans-Light,Gill Sans" font-size="40.5" fill="#FEFFFE" transform="matrix(1.00, 0.00, -0.00, -1.00, 261.3, 517.7)">s</text><text xml:space="preserve" font-family="GillSans-Light,Gill Sans" font-size="40.5" fill="#FEFFFE" transform="matrix(1.00, 0.00, -0.00, -1.00, 275.6, 517.7)">c</text><text xml:space="preserve" font-family="GillSans-Light,Gill Sans" font-size="40.5" fill="#FEFFFE" transform="matrix(1.00, 0.00, -0.00, -1.00, 292.5, 517.7)">r</text><text xml:space="preserve" font-family="GillSans-Light,Gill Sans" font-size="40.5" fill="#FEFFFE" transform="matrix(1.00, 0.00, -0.00, -1.00, 307.0, 517.7)">i</text><text xml:space="preserve" font-family="GillSans-Light,Gill Sans" font-size="40.5" fill="#FEFFFE" transform="matrix(1.00, 0.00, -0.00, -1.00, 314.6, 517.7)">b</text><text xml:space="preserve" font-family="GillSans-Light,Gill Sans" font-size="40.5" fill="#FEFFFE" transform="matrix(1.00, 0.00, -0.00, -1.00, 335.2, 517.7)">e</text><text xml:space="preserve" font-family="GillSans-Light,Gill Sans" font-size="40.5" fill="#FEFFFE" transform="matrix(1.00, 0.00, -0.00, -1.00, 354.6, 517.7)">d</text><text xml:space="preserve" font-family="GillSans-Light,Gill Sans" font-size="40.5" fill="#FEFFFE" transform="matrix(1.00, 0.00, -0.00, -1.00, 375.3, 517.7)"> </text><text xml:space="preserve" font-family="GillSans-Light,Gill Sans" font-size="40.5" fill="#FEFFFE" transform="matrix(1.00, 0.00, -0.00, -1.00, 386.6, 517.7)">l</text><text xml:space="preserve" font-family="GillSans-Light,Gill Sans" font-size="40.5" fill="#FEFFFE" transform="matrix(1.00, 0.00, -0.00, -1.00, 394.2, 517.7)">i</text><text xml:space="preserve" font-family="GillSans-Light,Gill Sans" font-size="40.5" fill="#FEFFFE" transform="matrix(1.00, 0.00, -0.00, -1.00, 401.8, 517.7)">k</text><text xml:space="preserve" font-family="GillSans-Light,Gill Sans" font-size="40.5" fill="#FEFFFE" transform="matrix(1.00, 0.00, -0.00, -1.00, 418.7, 517.7)">e</text><text xml:space="preserve" font-family="GillSans-Light,Gill Sans" font-size="40.5" fill="#FEFFFE" transform="matrix(1.00, 0.00, -0.00, -1.00, 438.1, 517.7)"> </text><text xml:space="preserve" font-family="GillSans-Light,Gill Sans" font-size="40.5" fill="#FEFFFE" transform="matrix(1.00, 0.00, -0.00, -1.00, 37.2, 471.7)">t</text><text xml:space="preserve" font-family="GillSans-Light,Gill Sans" font-size="40.5" fill="#FEFFFE" transform="matrix(1.00, 0.00, -0.00, -1.00, 49.4, 471.7)">h</text><text xml:space="preserve" font-family="GillSans-Light,Gill Sans" font-size="40.5" fill="#FEFFFE" transform="matrix(1.00, 0.00, -0.00, -1.00, 69.3, 471.7)">i</text><text xml:space="preserve" font-family="GillSans-Light,Gill Sans" font-size="40.5" fill="#FEFFFE" transform="matrix(1.00, 0.00, -0.00, -1.00, 76.9, 471.7)">s</text><text xml:space="preserve" font-family="GillSans-Light,Gill Sans" font-size="40.5" fill="#FEFFFE" transform="matrix(1.00, 0.00, -0.00, -1.00, 91.3, 471.7)">:</text><text xml:space="preserve" font-family="GillSans-Light,Gill Sans" font-size="40.5" fill="#FEFFFE" transform="matrix(1.00, 0.00, -0.00, -1.00, 98.4, 471.7)">	</text><text xml:space="preserve" font-family="GillSans-Light,Gill Sans" font-size="40.5" fill="#FEFFFE" transform="matrix(1.00, 0.00, -0.00, -1.00, 126.4, 471.7)">
</text><text xml:space="preserve" font-family="GillSans-Light,Gill Sans" font-size="40.5" fill="#FEFFFE" transform="matrix(1.00, 0.00, -0.00, -1.00, 126.4, 471.7)"></text><text xml:space="preserve" font-family="GillSans-Light,Gill Sans" font-size="33.2" fill="#FEFFFE" transform="matrix(1.00, 0.00, -0.00, -1.00, 35.0, 397.1)">•</text><text xml:space="preserve" font-family="GillSans-Light,Gill Sans" font-size="40.5" fill="#FEFFFE" transform="matrix(1.00, 0.00, -0.00, -1.00, 71.2, 394.9)">F</text><text xml:space="preserve" font-family="GillSans-Light,Gill Sans" font-size="40.5" fill="#FEFFFE" transform="matrix(1.00, 0.00, -0.00, -1.00, 89.0, 394.9)">i</text><text xml:space="preserve" font-family="GillSans-Light,Gill Sans" font-size="40.5" fill="#FEFFFE" transform="matrix(1.00, 0.00, -0.00, -1.00, 96.6, 394.9)">r</text><text xml:space="preserve" font-family="GillSans-Light,Gill Sans" font-size="40.5" fill="#FEFFFE" transform="matrix(1.00, 0.00, -0.00, -1.00, 111.7, 394.9)">s</text><text xml:space="preserve" font-family="GillSans-Light,Gill Sans" font-size="40.5" fill="#FEFFFE" transform="matrix(1.00, 0.00, -0.00, -1.00, 126.0, 394.9)">t</text><text xml:space="preserve" font-family="GillSans-Light,Gill Sans" font-size="40.5" fill="#FEFFFE" transform="matrix(1.00, 0.00, -0.00, -1.00, 138.2, 394.9)">-</text><text xml:space="preserve" font-family="GillSans-Light,Gill Sans" font-size="40.5" fill="#FEFFFE" transform="matrix(1.00, 0.00, -0.00, -1.00, 150.9, 394.9)">o</text><text xml:space="preserve" font-family="GillSans-Light,Gill Sans" font-size="40.5" fill="#FEFFFE" transform="matrix(1.00, 0.00, -0.00, -1.00, 172.9, 394.9)">r</text><text xml:space="preserve" font-family="GillSans-Light,Gill Sans" font-size="40.5" fill="#FEFFFE" transform="matrix(1.00, 0.00, -0.00, -1.00, 186.4, 394.9)">d</text><text xml:space="preserve" font-family="GillSans-Light,Gill Sans" font-size="40.5" fill="#FEFFFE" transform="matrix(1.00, 0.00, -0.00, -1.00, 207.0, 394.9)">e</text><text xml:space="preserve" font-family="GillSans-Light,Gill Sans" font-size="40.5" fill="#FEFFFE" transform="matrix(1.00, 0.00, -0.00, -1.00, 226.4, 394.9)">r</text><text xml:space="preserve" font-family="GillSans-Light,Gill Sans" font-size="40.5" fill="#FEFFFE" transform="matrix(1.00, 0.00, -0.00, -1.00, 239.9, 394.9)"> </text><text xml:space="preserve" font-family="GillSans-Light,Gill Sans" font-size="40.5" fill="#FEFFFE" transform="matrix(1.00, 0.00, -0.00, -1.00, 251.1, 394.9)">m</text><text xml:space="preserve" font-family="GillSans-Light,Gill Sans" font-size="40.5" fill="#FEFFFE" transform="matrix(1.00, 0.00, -0.00, -1.00, 282.4, 394.9)">o</text><text xml:space="preserve" font-family="GillSans-Light,Gill Sans" font-size="40.5" fill="#FEFFFE" transform="matrix(1.00, 0.00, -0.00, -1.00, 304.3, 394.9)">t</text><text xml:space="preserve" font-family="GillSans-Light,Gill Sans" font-size="40.5" fill="#FEFFFE" transform="matrix(1.00, 0.00, -0.00, -1.00, 316.5, 394.9)">i</text><text xml:space="preserve" font-family="GillSans-Light,Gill Sans" font-size="40.5" fill="#FEFFFE" transform="matrix(1.00, 0.00, -0.00, -1.00, 324.1, 394.9)">o</text><text xml:space="preserve" font-family="GillSans-Light,Gill Sans" font-size="40.5" fill="#FEFFFE" transform="matrix(1.00, 0.00, -0.00, -1.00, 346.1, 394.9)">n</text><text xml:space="preserve" font-family="GillSans-Light,Gill Sans" font-size="40.5" fill="#FEFFFE" transform="matrix(1.00, 0.00, -0.00, -1.00, 365.9, 394.9)"> </text><text xml:space="preserve" font-family="LucidaGrande,Lucida Grande" font-size="40.5" fill="#FEFFFE" transform="matrix(1.00, 0.00, -0.00, -1.00, 377.2, 394.9)"> </text><text xml:space="preserve" font-family="GillSans-Light,Gill Sans" font-size="40.5" fill="#FEFFFE" transform="matrix(1.00, 0.00, -0.00, -1.00, 71.2, 348.9)">=</text><text xml:space="preserve" font-family="GillSans-Light,Gill Sans" font-size="40.5" fill="#FEFFFE" transform="matrix(1.00, 0.00, -0.00, -1.00, 98.0, 348.9)"> </text><text xml:space="preserve" font-family="GillSans-Light,Gill Sans" font-size="40.5" fill="#FEFFFE" transform="matrix(1.00, 0.00, -0.00, -1.00, 109.2, 348.9)">n</text><text xml:space="preserve" font-family="GillSans-Light,Gill Sans" font-size="40.5" fill="#FEFFFE" transform="matrix(1.00, 0.00, -0.00, -1.00, 128.7, 348.9)">u</text><text xml:space="preserve" font-family="GillSans-Light,Gill Sans" font-size="40.5" fill="#FEFFFE" transform="matrix(1.00, 0.00, -0.00, -1.00, 148.6, 348.9)">m</text><text xml:space="preserve" font-family="GillSans-Light,Gill Sans" font-size="40.5" fill="#FEFFFE" transform="matrix(1.00, 0.00, -0.00, -1.00, 179.8, 348.9)">b</text><text xml:space="preserve" font-family="GillSans-Light,Gill Sans" font-size="40.5" fill="#FEFFFE" transform="matrix(1.00, 0.00, -0.00, -1.00, 200.4, 348.9)">e</text><text xml:space="preserve" font-family="GillSans-Light,Gill Sans" font-size="40.5" fill="#FEFFFE" transform="matrix(1.00, 0.00, -0.00, -1.00, 219.8, 348.9)">r</text><text xml:space="preserve" font-family="GillSans-Light,Gill Sans" font-size="40.5" fill="#FEFFFE" transform="matrix(1.00, 0.00, -0.00, -1.00, 233.3, 348.9)"> </text><text xml:space="preserve" font-family="GillSans-Light,Gill Sans" font-size="40.5" fill="#FEFFFE" transform="matrix(1.00, 0.00, -0.00, -1.00, 244.6, 348.9)">o</text><text xml:space="preserve" font-family="GillSans-Light,Gill Sans" font-size="40.5" fill="#FEFFFE" transform="matrix(1.00, 0.00, -0.00, -1.00, 266.5, 348.9)">f</text><text xml:space="preserve" font-family="GillSans-Light,Gill Sans" font-size="40.5" fill="#FEFFFE" transform="matrix(1.00, 0.00, -0.00, -1.00, 276.2, 348.9)"> </text><text xml:space="preserve" font-family="GillSans-Light,Gill Sans" font-size="40.5" fill="#FEFFFE" transform="matrix(1.00, 0.00, -0.00, -1.00, 287.5, 348.9)">e</text><text xml:space="preserve" font-family="GillSans-Light,Gill Sans" font-size="40.5" fill="#FEFFFE" transform="matrix(1.00, 0.00, -0.00, -1.00, 306.9, 348.9)">l</text><text xml:space="preserve" font-family="GillSans-Light,Gill Sans" font-size="40.5" fill="#FEFFFE" transform="matrix(1.00, 0.00, -0.00, -1.00, 314.5, 348.9)">e</text><text xml:space="preserve" font-family="GillSans-Light,Gill Sans" font-size="40.5" fill="#FEFFFE" transform="matrix(1.00, 0.00, -0.00, -1.00, 333.9, 348.9)">m</text><text xml:space="preserve" font-family="GillSans-Light,Gill Sans" font-size="40.5" fill="#FEFFFE" transform="matrix(1.00, 0.00, -0.00, -1.00, 365.1, 348.9)">e</text><text xml:space="preserve" font-family="GillSans-Light,Gill Sans" font-size="40.5" fill="#FEFFFE" transform="matrix(1.00, 0.00, -0.00, -1.00, 384.5, 348.9)">n</text><text xml:space="preserve" font-family="GillSans-Light,Gill Sans" font-size="40.5" fill="#FEFFFE" transform="matrix(1.00, 0.00, -0.00, -1.00, 404.4, 348.9)">t</text><text xml:space="preserve" font-family="GillSans-Light,Gill Sans" font-size="40.5" fill="#FEFFFE" transform="matrix(1.00, 0.00, -0.00, -1.00, 416.6, 348.9)">s</text><text xml:space="preserve" font-family="GillSans-Light,Gill Sans" font-size="40.5" fill="#FEFFFE" transform="matrix(1.00, 0.00, -0.00, -1.00, 430.9, 348.9)">	</text><text xml:space="preserve" font-family="GillSans-Light,Gill Sans" font-size="40.5" fill="#FEFFFE" transform="matrix(1.00, 0.00, -0.00, -1.00, 458.9, 348.9)">
</text><text xml:space="preserve" font-family="GillSans-Light,Gill Sans" font-size="40.5" fill="#FEFFFE" transform="matrix(1.00, 0.00, -0.00, -1.00, 458.9, 348.9)"></text><text xml:space="preserve" font-family="GillSans-Light,Gill Sans" font-size="33.2" fill="#FEFFFE" transform="matrix(1.00, 0.00, -0.00, -1.00, 35.0, 274.4)">•</text><text xml:space="preserve" font-family="GillSans-Light,Gill Sans" font-size="40.5" fill="#FEFFFE" transform="matrix(1.00, 0.00, -0.00, -1.00, 71.2, 272.1)">P</text><text xml:space="preserve" font-family="GillSans-Light,Gill Sans" font-size="40.5" fill="#FEFFFE" transform="matrix(1.00, 0.00, -0.00, -1.00, 89.9, 272.1)">o</text><text xml:space="preserve" font-family="GillSans-Light,Gill Sans" font-size="40.5" fill="#FEFFFE" transform="matrix(1.00, 0.00, -0.00, -1.00, 111.8, 272.1)">s</text><text xml:space="preserve" font-family="GillSans-Light,Gill Sans" font-size="40.5" fill="#FEFFFE" transform="matrix(1.00, 0.00, -0.00, -1.00, 126.1, 272.1)">i</text><text xml:space="preserve" font-family="GillSans-Light,Gill Sans" font-size="40.5" fill="#FEFFFE" transform="matrix(1.00, 0.00, -0.00, -1.00, 133.8, 272.1)">t</text><text xml:space="preserve" font-family="GillSans-Light,Gill Sans" font-size="40.5" fill="#FEFFFE" transform="matrix(1.00, 0.00, -0.00, -1.00, 146.0, 272.1)">i</text><text xml:space="preserve" font-family="GillSans-Light,Gill Sans" font-size="40.5" fill="#FEFFFE" transform="matrix(1.00, 0.00, -0.00, -1.00, 153.6, 272.1)">o</text><text xml:space="preserve" font-family="GillSans-Light,Gill Sans" font-size="40.5" fill="#FEFFFE" transform="matrix(1.00, 0.00, -0.00, -1.00, 175.5, 272.1)">n</text><text xml:space="preserve" font-family="GillSans-Light,Gill Sans" font-size="40.5" fill="#FEFFFE" transform="matrix(1.00, 0.00, -0.00, -1.00, 195.4, 272.1)">-</text><text xml:space="preserve" font-family="GillSans-Light,Gill Sans" font-size="40.5" fill="#FEFFFE" transform="matrix(1.00, 0.00, -0.00, -1.00, 208.1, 272.1)">d</text><text xml:space="preserve" font-family="GillSans-Light,Gill Sans" font-size="40.5" fill="#FEFFFE" transform="matrix(1.00, 0.00, -0.00, -1.00, 228.7, 272.1)">e</text><text xml:space="preserve" font-family="GillSans-Light,Gill Sans" font-size="40.5" fill="#FEFFFE" transform="matrix(1.00, 0.00, -0.00, -1.00, 248.1, 272.1)">ﬁ</text><text xml:space="preserve" font-family="GillSans-Light,Gill Sans" font-size="40.5" fill="#FEFFFE" transform="matrix(1.00, 0.00, -0.00, -1.00, 267.5, 272.1)">n</text><text xml:space="preserve" font-family="GillSans-Light,Gill Sans" font-size="40.5" fill="#FEFFFE" transform="matrix(1.00, 0.00, -0.00, -1.00, 287.4, 272.1)">e</text><text xml:space="preserve" font-family="GillSans-Light,Gill Sans" font-size="40.5" fill="#FEFFFE" transform="matrix(1.00, 0.00, -0.00, -1.00, 306.8, 272.1)">d</text><text xml:space="preserve" font-family="GillSans-Light,Gill Sans" font-size="40.5" fill="#FEFFFE" transform="matrix(1.00, 0.00, -0.00, -1.00, 327.4, 272.1)"> </text><text xml:space="preserve" font-family="GillSans-Light,Gill Sans" font-size="40.5" fill="#FEFFFE" transform="matrix(1.00, 0.00, -0.00, -1.00, 338.7, 272.1)">m</text><text xml:space="preserve" font-family="GillSans-Light,Gill Sans" font-size="40.5" fill="#FEFFFE" transform="matrix(1.00, 0.00, -0.00, -1.00, 369.9, 272.1)">o</text><text xml:space="preserve" font-family="GillSans-Light,Gill Sans" font-size="40.5" fill="#FEFFFE" transform="matrix(1.00, 0.00, -0.00, -1.00, 391.8, 272.1)">t</text><text xml:space="preserve" font-family="GillSans-Light,Gill Sans" font-size="40.5" fill="#FEFFFE" transform="matrix(1.00, 0.00, -0.00, -1.00, 404.0, 272.1)">i</text><text xml:space="preserve" font-family="GillSans-Light,Gill Sans" font-size="40.5" fill="#FEFFFE" transform="matrix(1.00, 0.00, -0.00, -1.00, 411.7, 272.1)">o</text><text xml:space="preserve" font-family="GillSans-Light,Gill Sans" font-size="40.5" fill="#FEFFFE" transform="matrix(1.00, 0.00, -0.00, -1.00, 433.6, 272.1)">n</text><text xml:space="preserve" font-family="GillSans-Light,Gill Sans" font-size="40.5" fill="#FEFFFE" transform="matrix(1.00, 0.00, -0.00, -1.00, 453.5, 272.1)"> </text><text xml:space="preserve" font-family="LucidaGrande,Lucida Grande" font-size="40.5" fill="#FEFFFE" transform="matrix(1.00, 0.00, -0.00, -1.00, 464.7, 272.1)"> </text><text xml:space="preserve" font-family="GillSans-Light,Gill Sans" font-size="40.5" fill="#FEFFFE" transform="matrix(1.00, 0.00, -0.00, -1.00, 71.2, 226.1)">=</text><text xml:space="preserve" font-family="GillSans-Light,Gill Sans" font-size="40.5" fill="#FEFFFE" transform="matrix(1.00, 0.00, -0.00, -1.00, 98.0, 226.1)"> </text><text xml:space="preserve" font-family="GillSans-Light,Gill Sans" font-size="40.5" fill="#FEFFFE" transform="matrix(1.00, 0.00, -0.00, -1.00, 109.2, 226.1)">s</text><text xml:space="preserve" font-family="GillSans-Light,Gill Sans" font-size="40.5" fill="#FEFFFE" transform="matrix(1.00, 0.00, -0.00, -1.00, 123.6, 226.1)">p</text><text xml:space="preserve" font-family="GillSans-Light,Gill Sans" font-size="40.5" fill="#FEFFFE" transform="matrix(1.00, 0.00, -0.00, -1.00, 144.2, 226.1)">a</text><text xml:space="preserve" font-family="GillSans-Light,Gill Sans" font-size="40.5" fill="#FEFFFE" transform="matrix(1.00, 0.00, -0.00, -1.00, 161.5, 226.1)">c</text><text xml:space="preserve" font-family="GillSans-Light,Gill Sans" font-size="40.5" fill="#FEFFFE" transform="matrix(1.00, 0.00, -0.00, -1.00, 178.4, 226.1)">i</text><text xml:space="preserve" font-family="GillSans-Light,Gill Sans" font-size="40.5" fill="#FEFFFE" transform="matrix(1.00, 0.00, -0.00, -1.00, 186.0, 226.1)">n</text><text xml:space="preserve" font-family="GillSans-Light,Gill Sans" font-size="40.5" fill="#FEFFFE" transform="matrix(1.00, 0.00, -0.00, -1.00, 205.8, 226.1)">g</text><text xml:space="preserve" font-family="GillSans-Light,Gill Sans" font-size="40.5" fill="#FEFFFE" transform="matrix(1.00, 0.00, -0.00, -1.00, 223.1, 226.1)">	</text><text xml:space="preserve" font-family="GillSans-Light,Gill Sans" font-size="40.5" fill="#FEFFFE" transform="matrix(1.00, 0.00, -0.00, -1.00, 251.1, 226.1)">
</text><text xml:space="preserve" font-family="GillSans-Light,Gill Sans" font-size="40.5" fill="#FEFFFE" transform="matrix(1.00, 0.00, -0.00, -1.00, 251.1, 226.1)"></text><text xml:space="preserve" font-family="GillSans-Light,Gill Sans" font-size="33.2" fill="#FEFFFE" transform="matrix(1.00, 0.00, -0.00, -1.00, 1.0, 151.6)">•</text><text xml:space="preserve" font-family="GillSans-Light,Gill Sans" font-size="40.5" fill="#FEFFFE" transform="matrix(1.00, 0.00, -0.00, -1.00, 37.2, 149.3)">B</text><text xml:space="preserve" font-family="GillSans-Light,Gill Sans" font-size="40.5" fill="#FEFFFE" transform="matrix(1.00, 0.00, -0.00, -1.00, 58.7, 149.3)">u</text><text xml:space="preserve" font-family="GillSans-Light,Gill Sans" font-size="40.5" fill="#FEFFFE" transform="matrix(1.00, 0.00, -0.00, -1.00, 78.6, 149.3)">t</text><text xml:space="preserve" font-family="GillSans-Light,Gill Sans" font-size="40.5" fill="#FEFFFE" transform="matrix(1.00, 0.00, -0.00, -1.00, 90.8, 149.3)"> </text><text xml:space="preserve" font-family="GillSans-Light,Gill Sans" font-size="40.5" fill="#FEFFFE" transform="matrix(1.00, 0.00, -0.00, -1.00, 102.0, 149.3)">s</text><text xml:space="preserve" font-family="GillSans-Light,Gill Sans" font-size="40.5" fill="#FEFFFE" transform="matrix(1.00, 0.00, -0.00, -1.00, 116.4, 149.3)">t</text><text xml:space="preserve" font-family="GillSans-Light,Gill Sans" font-size="40.5" fill="#FEFFFE" transform="matrix(1.00, 0.00, -0.00, -1.00, 128.6, 149.3)">i</text><text xml:space="preserve" font-family="GillSans-Light,Gill Sans" font-size="40.5" fill="#FEFFFE" transform="matrix(1.00, 0.00, -0.00, -1.00, 136.2, 149.3)">m</text><text xml:space="preserve" font-family="GillSans-Light,Gill Sans" font-size="40.5" fill="#FEFFFE" transform="matrix(1.00, 0.00, -0.00, -1.00, 166.8, 149.3)">u</text><text xml:space="preserve" font-family="GillSans-Light,Gill Sans" font-size="40.5" fill="#FEFFFE" transform="matrix(1.00, 0.00, -0.00, -1.00, 186.7, 149.3)">l</text><text xml:space="preserve" font-family="GillSans-Light,Gill Sans" font-size="40.5" fill="#FEFFFE" transform="matrix(1.00, 0.00, -0.00, -1.00, 194.3, 149.3)">u</text><text xml:space="preserve" font-family="GillSans-Light,Gill Sans" font-size="40.5" fill="#FEFFFE" transform="matrix(1.00, 0.00, -0.00, -1.00, 214.2, 149.3)">s</text><text xml:space="preserve" font-family="GillSans-Light,Gill Sans" font-size="40.5" fill="#FEFFFE" transform="matrix(1.00, 0.00, -0.00, -1.00, 228.5, 149.3)"> </text><text xml:space="preserve" font-family="GillSans-Light,Gill Sans" font-size="40.5" fill="#FEFFFE" transform="matrix(1.00, 0.00, -0.00, -1.00, 239.7, 149.3)">i</text><text xml:space="preserve" font-family="GillSans-Light,Gill Sans" font-size="40.5" fill="#FEFFFE" transform="matrix(1.00, 0.00, -0.00, -1.00, 247.4, 149.3)">n</text><text xml:space="preserve" font-family="GillSans-Light,Gill Sans" font-size="40.5" fill="#FEFFFE" transform="matrix(1.00, 0.00, -0.00, -1.00, 267.2, 149.3)"> </text><text xml:space="preserve" font-family="GillSans-Light,Gill Sans" font-size="40.5" fill="#FEFFFE" transform="matrix(1.00, 0.00, -0.00, -1.00, 278.5, 149.3)">p</text><text xml:space="preserve" font-family="GillSans-Light,Gill Sans" font-size="40.5" fill="#FEFFFE" transform="matrix(1.00, 0.00, -0.00, -1.00, 299.1, 149.3)">r</text><text xml:space="preserve" font-family="GillSans-Light,Gill Sans" font-size="40.5" fill="#FEFFFE" transform="matrix(1.00, 0.00, -0.00, -1.00, 312.6, 149.3)">e</text><text xml:space="preserve" font-family="GillSans-Light,Gill Sans" font-size="40.5" fill="#FEFFFE" transform="matrix(1.00, 0.00, -0.00, -1.00, 332.0, 149.3)">v</text><text xml:space="preserve" font-family="GillSans-Light,Gill Sans" font-size="40.5" fill="#FEFFFE" transform="matrix(1.00, 0.00, -0.00, -1.00, 349.3, 149.3)">i</text><text xml:space="preserve" font-family="GillSans-Light,Gill Sans" font-size="40.5" fill="#FEFFFE" transform="matrix(1.00, 0.00, -0.00, -1.00, 356.9, 149.3)">o</text><text xml:space="preserve" font-family="GillSans-Light,Gill Sans" font-size="40.5" fill="#FEFFFE" transform="matrix(1.00, 0.00, -0.00, -1.00, 378.8, 149.3)">u</text><text xml:space="preserve" font-family="GillSans-Light,Gill Sans" font-size="40.5" fill="#FEFFFE" transform="matrix(1.00, 0.00, -0.00, -1.00, 398.7, 149.3)">s</text><text xml:space="preserve" font-family="GillSans-Light,Gill Sans" font-size="40.5" fill="#FEFFFE" transform="matrix(1.00, 0.00, -0.00, -1.00, 413.0, 149.3)"> </text><text xml:space="preserve" font-family="GillSans-Light,Gill Sans" font-size="40.5" fill="#FEFFFE" transform="matrix(1.00, 0.00, -0.00, -1.00, 37.2, 103.3)">e</text><text xml:space="preserve" font-family="GillSans-Light,Gill Sans" font-size="40.5" fill="#FEFFFE" transform="matrix(1.00, 0.00, -0.00, -1.00, 56.6, 103.3)">x</text><text xml:space="preserve" font-family="GillSans-Light,Gill Sans" font-size="40.5" fill="#FEFFFE" transform="matrix(1.00, 0.00, -0.00, -1.00, 76.0, 103.3)">p</text><text xml:space="preserve" font-family="GillSans-Light,Gill Sans" font-size="40.5" fill="#FEFFFE" transform="matrix(1.00, 0.00, -0.00, -1.00, 96.7, 103.3)">e</text><text xml:space="preserve" font-family="GillSans-Light,Gill Sans" font-size="40.5" fill="#FEFFFE" transform="matrix(1.00, 0.00, -0.00, -1.00, 116.1, 103.3)">r</text><text xml:space="preserve" font-family="GillSans-Light,Gill Sans" font-size="40.5" fill="#FEFFFE" transform="matrix(1.00, 0.00, -0.00, -1.00, 130.6, 103.3)">i</text><text xml:space="preserve" font-family="GillSans-Light,Gill Sans" font-size="40.5" fill="#FEFFFE" transform="matrix(1.00, 0.00, -0.00, -1.00, 138.2, 103.3)">m</text><text xml:space="preserve" font-family="GillSans-Light,Gill Sans" font-size="40.5" fill="#FEFFFE" transform="matrix(1.00, 0.00, -0.00, -1.00, 169.4, 103.3)">e</text><text xml:space="preserve" font-family="GillSans-Light,Gill Sans" font-size="40.5" fill="#FEFFFE" transform="matrix(1.00, 0.00, -0.00, -1.00, 188.8, 103.3)">n</text><text xml:space="preserve" font-family="GillSans-Light,Gill Sans" font-size="40.5" fill="#FEFFFE" transform="matrix(1.00, 0.00, -0.00, -1.00, 208.7, 103.3)">t</text><text xml:space="preserve" font-family="GillSans-Light,Gill Sans" font-size="40.5" fill="#FEFFFE" transform="matrix(1.00, 0.00, -0.00, -1.00, 220.9, 103.3)"> </text><text xml:space="preserve" font-family="GillSans-Light,Gill Sans" font-size="40.5" fill="#FEFFFE" transform="matrix(1.00, 0.00, -0.00, -1.00, 232.1, 103.3)">a</text><text xml:space="preserve" font-family="GillSans-Light,Gill Sans" font-size="40.5" fill="#FEFFFE" transform="matrix(1.00, 0.00, -0.00, -1.00, 249.4, 103.3)">c</text><text xml:space="preserve" font-family="GillSans-Light,Gill Sans" font-size="40.5" fill="#FEFFFE" transform="matrix(1.00, 0.00, -0.00, -1.00, 266.3, 103.3)">t</text><text xml:space="preserve" font-family="GillSans-Light,Gill Sans" font-size="40.5" fill="#FEFFFE" transform="matrix(1.00, 0.00, -0.00, -1.00, 278.5, 103.3)">u</text><text xml:space="preserve" font-family="GillSans-Light,Gill Sans" font-size="40.5" fill="#FEFFFE" transform="matrix(1.00, 0.00, -0.00, -1.00, 298.4, 103.3)">a</text><text xml:space="preserve" font-family="GillSans-Light,Gill Sans" font-size="40.5" fill="#FEFFFE" transform="matrix(1.00, 0.00, -0.00, -1.00, 315.6, 103.3)">l</text><text xml:space="preserve" font-family="GillSans-Light,Gill Sans" font-size="40.5" fill="#FEFFFE" transform="matrix(1.00, 0.00, -0.00, -1.00, 323.3, 103.3)">l</text><text xml:space="preserve" font-family="GillSans-Light,Gill Sans" font-size="40.5" fill="#FEFFFE" transform="matrix(1.00, 0.00, -0.00, -1.00, 330.5, 103.3)">y</text><text xml:space="preserve" font-family="GillSans-Light,Gill Sans" font-size="40.5" fill="#FEFFFE" transform="matrix(1.00, 0.00, -0.00, -1.00, 347.4, 103.3)"> </text><text xml:space="preserve" font-family="GillSans-Light,Gill Sans" font-size="40.5" fill="#FEFFFE" transform="matrix(1.00, 0.00, -0.00, -1.00, 37.2, 57.3)">c</text><text xml:space="preserve" font-family="GillSans-Light,Gill Sans" font-size="40.5" fill="#FEFFFE" transform="matrix(1.00, 0.00, -0.00, -1.00, 54.1, 57.3)">o</text><text xml:space="preserve" font-family="GillSans-Light,Gill Sans" font-size="40.5" fill="#FEFFFE" transform="matrix(1.00, 0.00, -0.00, -1.00, 76.1, 57.3)">n</text><text xml:space="preserve" font-family="GillSans-Light,Gill Sans" font-size="40.5" fill="#FEFFFE" transform="matrix(1.00, 0.00, -0.00, -1.00, 95.9, 57.3)">ﬂ</text><text xml:space="preserve" font-family="GillSans-Light,Gill Sans" font-size="40.5" fill="#FEFFFE" transform="matrix(1.00, 0.00, -0.00, -1.00, 115.3, 57.3)">a</text><text xml:space="preserve" font-family="GillSans-Light,Gill Sans" font-size="40.5" fill="#FEFFFE" transform="matrix(1.00, 0.00, -0.00, -1.00, 132.6, 57.3)">t</text><text xml:space="preserve" font-family="GillSans-Light,Gill Sans" font-size="40.5" fill="#FEFFFE" transform="matrix(1.00, 0.00, -0.00, -1.00, 144.8, 57.3)">e</text><text xml:space="preserve" font-family="GillSans-Light,Gill Sans" font-size="40.5" fill="#FEFFFE" transform="matrix(1.00, 0.00, -0.00, -1.00, 164.2, 57.3)">d</text><text xml:space="preserve" font-family="GillSans-Light,Gill Sans" font-size="40.5" fill="#FEFFFE" transform="matrix(1.00, 0.00, -0.00, -1.00, 184.9, 57.3)"> </text><text xml:space="preserve" font-family="GillSans-Light,Gill Sans" font-size="40.5" fill="#FEFFFE" transform="matrix(1.00, 0.00, -0.00, -1.00, 196.1, 57.3)">n</text><text xml:space="preserve" font-family="GillSans-Light,Gill Sans" font-size="40.5" fill="#FEFFFE" transform="matrix(1.00, 0.00, -0.00, -1.00, 215.6, 57.3)">u</text><text xml:space="preserve" font-family="GillSans-Light,Gill Sans" font-size="40.5" fill="#FEFFFE" transform="matrix(1.00, 0.00, -0.00, -1.00, 235.4, 57.3)">m</text><text xml:space="preserve" font-family="GillSans-Light,Gill Sans" font-size="40.5" fill="#FEFFFE" transform="matrix(1.00, 0.00, -0.00, -1.00, 266.7, 57.3)">b</text><text xml:space="preserve" font-family="GillSans-Light,Gill Sans" font-size="40.5" fill="#FEFFFE" transform="matrix(1.00, 0.00, -0.00, -1.00, 287.3, 57.3)">e</text><text xml:space="preserve" font-family="GillSans-Light,Gill Sans" font-size="40.5" fill="#FEFFFE" transform="matrix(1.00, 0.00, -0.00, -1.00, 306.7, 57.3)">r</text><text xml:space="preserve" font-family="GillSans-Light,Gill Sans" font-size="40.5" fill="#FEFFFE" transform="matrix(1.00, 0.00, -0.00, -1.00, 320.2, 57.3)"> </text><text xml:space="preserve" font-family="GillSans-Light,Gill Sans" font-size="40.5" fill="#FEFFFE" transform="matrix(1.00, 0.00, -0.00, -1.00, 331.4, 57.3)">a</text><text xml:space="preserve" font-family="GillSans-Light,Gill Sans" font-size="40.5" fill="#FEFFFE" transform="matrix(1.00, 0.00, -0.00, -1.00, 348.7, 57.3)">n</text><text xml:space="preserve" font-family="GillSans-Light,Gill Sans" font-size="40.5" fill="#FEFFFE" transform="matrix(1.00, 0.00, -0.00, -1.00, 368.6, 57.3)">d</text><text xml:space="preserve" font-family="GillSans-Light,Gill Sans" font-size="40.5" fill="#FEFFFE" transform="matrix(1.00, 0.00, -0.00, -1.00, 389.2, 57.3)"> </text><text xml:space="preserve" font-family="GillSans-Light,Gill Sans" font-size="40.5" fill="#FEFFFE" transform="matrix(1.00, 0.00, -0.00, -1.00, 37.2, 11.3)">s</text><text xml:space="preserve" font-family="GillSans-Light,Gill Sans" font-size="40.5" fill="#FEFFFE" transform="matrix(1.00, 0.00, -0.00, -1.00, 51.6, 11.3)">p</text><text xml:space="preserve" font-family="GillSans-Light,Gill Sans" font-size="40.5" fill="#FEFFFE" transform="matrix(1.00, 0.00, -0.00, -1.00, 72.2, 11.3)">a</text><text xml:space="preserve" font-family="GillSans-Light,Gill Sans" font-size="40.5" fill="#FEFFFE" transform="matrix(1.00, 0.00, -0.00, -1.00, 89.5, 11.3)">c</text><text xml:space="preserve" font-family="GillSans-Light,Gill Sans" font-size="40.5" fill="#FEFFFE" transform="matrix(1.00, 0.00, -0.00, -1.00, 106.4, 11.3)">i</text><text xml:space="preserve" font-family="GillSans-Light,Gill Sans" font-size="40.5" fill="#FEFFFE" transform="matrix(1.00, 0.00, -0.00, -1.00, 114.0, 11.3)">n</text><text xml:space="preserve" font-family="GillSans-Light,Gill Sans" font-size="40.5" fill="#FEFFFE" transform="matrix(1.00, 0.00, -0.00, -1.00, 133.9, 11.3)">g</text></g></svg>