<?xml version="1.0" encoding="UTF-8" standalone="no"?><svg xmlns="http://www.w3.org/2000/svg" xmlns:xlink="http://www.w3.org/1999/xlink" clip-rule="evenodd" stroke-miterlimit="10" viewBox="0 0 60 14"><desc>SVG generated by Keynote</desc><defs></defs><g transform="matrix(1.00, 0.00, -0.00, -1.00, 0.0, 14.0)"><text xml:space="preserve" font-family="GillSans,Gill Sans" font-size="16.0" fill="#FEFFFF" transform="matrix(1.00, 0.00, -0.00, -1.00, 1.4, 2.1)">a</text><text xml:space="preserve" font-family="GillSans,Gill Sans" font-size="16.0" fill="#FEFFFF" transform="matrix(1.00, 0.00, -0.00, -1.00, 8.2, 2.1)">d</text><text xml:space="preserve" font-family="GillSans,Gill Sans" font-size="16.0" fill="#FEFFFF" transform="matrix(1.00, 0.00, -0.00, -1.00, 16.2, 2.1)">d</text><text xml:space="preserve" font-family="GillSans,Gill Sans" font-size="16.0" fill="#FEFFFF" transform="matrix(1.00, 0.00, -0.00, -1.00, 24.4, 2.1)">e</text><text xml:space="preserve" font-family="GillSans,Gill Sans" font-size="16.0" fill="#FEFFFF" transform="matrix(1.00, 0.00, -0.00, -1.00, 32.0, 2.1)">d</text><text xml:space="preserve" font-family="GillSans,Gill Sans" font-size="16.0" fill="#FEFFFF" transform="matrix(1.00, 0.00, -0.00, -1.00, 40.2, 2.1)"> </text><text xml:space="preserve" font-family="GillSans,Gill Sans" font-size="16.0" fill="#FEFFFF" transform="matrix(1.00, 0.00, -0.00, -1.00, 44.6, 2.1)">i</text><text xml:space="preserve" font-family="GillSans,Gill Sans" font-size="16.0" fill="#FEFFFF" transform="matrix(1.00, 0.00, -0.00, -1.00, 48.1, 2.1)">n</text><text xml:space="preserve" font-family="GillSans,Gill Sans" font-size="16.0" fill="#FEFFFF" transform="matrix(1.00, 0.00, -0.00, -1.00, 56.1, 2.1)">.</text></g></svg>