<?xml version="1.0" encoding="UTF-8" standalone="no"?><svg xmlns="http://www.w3.org/2000/svg" xmlns:xlink="http://www.w3.org/1999/xlink" clip-rule="evenodd" stroke-miterlimit="10" viewBox="0 0 460 24"><desc>SVG generated by Keynote</desc><defs></defs><g transform="matrix(1.00, 0.00, -0.00, -1.00, 0.0, 24.0)"><text xml:space="preserve" font-family="GillSans,Gill Sans" font-size="23.0" fill="#FEFFFF" transform="matrix(1.00, 0.00, -0.00, -1.00, 1.0, 6.3)">g</text><text xml:space="preserve" font-family="GillSans,Gill Sans" font-size="23.0" fill="#FEFFFF" transform="matrix(1.00, 0.00, -0.00, -1.00, 10.8, 6.3)">i</text><text xml:space="preserve" font-family="GillSans,Gill Sans" font-size="23.0" fill="#FEFFFF" transform="matrix(1.00, 0.00, -0.00, -1.00, 15.9, 6.3)">v</text><text xml:space="preserve" font-family="GillSans,Gill Sans" font-size="23.0" fill="#FEFFFF" transform="matrix(1.00, 0.00, -0.00, -1.00, 25.5, 6.3)">e</text><text xml:space="preserve" font-family="GillSans,Gill Sans" font-size="23.0" fill="#FEFFFF" transform="matrix(1.00, 0.00, -0.00, -1.00, 36.5, 6.3)">n</text><text xml:space="preserve" font-family="GillSans,Gill Sans" font-size="23.0" fill="#FEFFFF" transform="matrix(1.00, 0.00, -0.00, -1.00, 48.0, 6.3)"> </text><text xml:space="preserve" font-family="GillSans,Gill Sans" font-size="23.0" fill="#FEFFFF" transform="matrix(1.00, 0.00, -0.00, -1.00, 54.4, 6.3)">s</text><text xml:space="preserve" font-family="GillSans,Gill Sans" font-size="23.0" fill="#FEFFFF" transform="matrix(1.00, 0.00, -0.00, -1.00, 63.2, 6.3)">t</text><text xml:space="preserve" font-family="GillSans,Gill Sans" font-size="23.0" fill="#FEFFFF" transform="matrix(1.00, 0.00, -0.00, -1.00, 70.9, 6.3)">i</text><text xml:space="preserve" font-family="GillSans,Gill Sans" font-size="23.0" fill="#FEFFFF" transform="matrix(1.00, 0.00, -0.00, -1.00, 75.9, 6.3)">m</text><text xml:space="preserve" font-family="GillSans,Gill Sans" font-size="23.0" fill="#FEFFFF" transform="matrix(1.00, 0.00, -0.00, -1.00, 93.4, 6.3)">u</text><text xml:space="preserve" font-family="GillSans,Gill Sans" font-size="23.0" fill="#FEFFFF" transform="matrix(1.00, 0.00, -0.00, -1.00, 104.9, 6.3)">l</text><text xml:space="preserve" font-family="GillSans,Gill Sans" font-size="23.0" fill="#FEFFFF" transform="matrix(1.00, 0.00, -0.00, -1.00, 110.0, 6.3)">u</text><text xml:space="preserve" font-family="GillSans,Gill Sans" font-size="23.0" fill="#FEFFFF" transform="matrix(1.00, 0.00, -0.00, -1.00, 121.5, 6.3)">s</text><text xml:space="preserve" font-family="GillSans,Gill Sans" font-size="23.0" fill="#FEFFFF" transform="matrix(1.00, 0.00, -0.00, -1.00, 130.3, 6.3)">.</text><text xml:space="preserve" font-family="GillSans,Gill Sans" font-size="23.0" fill="#FEFFFF" transform="matrix(1.00, 0.00, -0.00, -1.00, 133.1, 6.3)"> </text><text xml:space="preserve" font-family="GillSans,Gill Sans" font-size="23.0" fill="#FEFFFF" transform="matrix(1.00, 0.00, -0.00, -1.00, 139.5, 6.3)">S</text><text xml:space="preserve" font-family="GillSans,Gill Sans" font-size="23.0" fill="#FEFFFF" transform="matrix(1.00, 0.00, -0.00, -1.00, 150.0, 6.3)">o</text><text xml:space="preserve" font-family="GillSans,Gill Sans" font-size="23.0" fill="#FEFFFF" transform="matrix(1.00, 0.00, -0.00, -1.00, 162.7, 6.3)"> </text><text xml:space="preserve" font-family="GillSans,Gill Sans" font-size="23.0" fill="#FEFFFF" transform="matrix(1.00, 0.00, -0.00, -1.00, 169.1, 6.3)">t</text><text xml:space="preserve" font-family="GillSans,Gill Sans" font-size="23.0" fill="#FEFFFF" transform="matrix(1.00, 0.00, -0.00, -1.00, 176.7, 6.3)">h</text><text xml:space="preserve" font-family="GillSans,Gill Sans" font-size="23.0" fill="#FEFFFF" transform="matrix(1.00, 0.00, -0.00, -1.00, 188.2, 6.3)">e</text><text xml:space="preserve" font-family="GillSans,Gill Sans" font-size="23.0" fill="#FEFFFF" transform="matrix(1.00, 0.00, -0.00, -1.00, 199.2, 6.3)"> </text><text xml:space="preserve" font-family="GillSans,Gill Sans" font-size="23.0" fill="#FEFFFF" transform="matrix(1.00, 0.00, -0.00, -1.00, 205.6, 6.3)">d</text><text xml:space="preserve" font-family="GillSans,Gill Sans" font-size="23.0" fill="#FEFFFF" transform="matrix(1.00, 0.00, -0.00, -1.00, 217.3, 6.3)">o</text><text xml:space="preserve" font-family="GillSans,Gill Sans" font-size="23.0" fill="#FEFFFF" transform="matrix(1.00, 0.00, -0.00, -1.00, 230.0, 6.3)">m</text><text xml:space="preserve" font-family="GillSans,Gill Sans" font-size="23.0" fill="#FEFFFF" transform="matrix(1.00, 0.00, -0.00, -1.00, 247.8, 6.3)">a</text><text xml:space="preserve" font-family="GillSans,Gill Sans" font-size="23.0" fill="#FEFFFF" transform="matrix(1.00, 0.00, -0.00, -1.00, 257.6, 6.3)">i</text><text xml:space="preserve" font-family="GillSans,Gill Sans" font-size="23.0" fill="#FEFFFF" transform="matrix(1.00, 0.00, -0.00, -1.00, 262.6, 6.3)">n</text><text xml:space="preserve" font-family="GillSans,Gill Sans" font-size="23.0" fill="#FEFFFF" transform="matrix(1.00, 0.00, -0.00, -1.00, 274.1, 6.3)"> </text><text xml:space="preserve" font-family="GillSans,Gill Sans" font-size="23.0" fill="#FEFFFF" transform="matrix(1.00, 0.00, -0.00, -1.00, 280.5, 6.3)">o</text><text xml:space="preserve" font-family="GillSans,Gill Sans" font-size="23.0" fill="#FEFFFF" transform="matrix(1.00, 0.00, -0.00, -1.00, 293.2, 6.3)">f</text><text xml:space="preserve" font-family="GillSans,Gill Sans" font-size="23.0" fill="#FEFFFF" transform="matrix(1.00, 0.00, -0.00, -1.00, 298.9, 6.3)"> </text><text xml:space="preserve" font-family="GillSans,Gill Sans" font-size="23.0" fill="#FEFFFF" transform="matrix(1.00, 0.00, -0.00, -1.00, 305.3, 6.3)">t</text><text xml:space="preserve" font-family="GillSans,Gill Sans" font-size="23.0" fill="#FEFFFF" transform="matrix(1.00, 0.00, -0.00, -1.00, 313.0, 6.3)">h</text><text xml:space="preserve" font-family="GillSans,Gill Sans" font-size="23.0" fill="#FEFFFF" transform="matrix(1.00, 0.00, -0.00, -1.00, 324.5, 6.3)">e</text><text xml:space="preserve" font-family="GillSans,Gill Sans" font-size="23.0" fill="#FEFFFF" transform="matrix(1.00, 0.00, -0.00, -1.00, 335.5, 6.3)"> </text><text xml:space="preserve" font-family="GillSans,Gill Sans" font-size="23.0" fill="#FEFFFF" transform="matrix(1.00, 0.00, -0.00, -1.00, 341.9, 6.3)">m</text><text xml:space="preserve" font-family="GillSans,Gill Sans" font-size="23.0" fill="#FEFFFF" transform="matrix(1.00, 0.00, -0.00, -1.00, 359.6, 6.3)">o</text><text xml:space="preserve" font-family="GillSans,Gill Sans" font-size="23.0" fill="#FEFFFF" transform="matrix(1.00, 0.00, -0.00, -1.00, 372.3, 6.3)">d</text><text xml:space="preserve" font-family="GillSans,Gill Sans" font-size="23.0" fill="#FEFFFF" transform="matrix(1.00, 0.00, -0.00, -1.00, 384.0, 6.3)">e</text><text xml:space="preserve" font-family="GillSans,Gill Sans" font-size="23.0" fill="#FEFFFF" transform="matrix(1.00, 0.00, -0.00, -1.00, 395.0, 6.3)">l</text><text xml:space="preserve" font-family="GillSans,Gill Sans" font-size="23.0" fill="#FEFFFF" transform="matrix(1.00, 0.00, -0.00, -1.00, 400.1, 6.3)"> </text><text xml:space="preserve" font-family="GillSans,Gill Sans" font-size="23.0" fill="#FEFFFF" transform="matrix(1.00, 0.00, -0.00, -1.00, 406.5, 6.3)">i</text><text xml:space="preserve" font-family="GillSans,Gill Sans" font-size="23.0" fill="#FEFFFF" transform="matrix(1.00, 0.00, -0.00, -1.00, 411.5, 6.3)">s</text><text xml:space="preserve" font-family="GillSans,Gill Sans" font-size="23.0" fill="#FEFFFF" transform="matrix(1.00, 0.00, -0.00, -1.00, 420.4, 6.3)"> </text><text xml:space="preserve" font-family="GillSans,Gill Sans" font-size="23.0" fill="#FEFFFF" transform="matrix(1.00, 0.00, -0.00, -1.00, 426.8, 6.3)">t</text><text xml:space="preserve" font-family="GillSans,Gill Sans" font-size="23.0" fill="#FEFFFF" transform="matrix(1.00, 0.00, -0.00, -1.00, 434.4, 6.3)">h</text><text xml:space="preserve" font-family="GillSans,Gill Sans" font-size="23.0" fill="#FEFFFF" transform="matrix(1.00, 0.00, -0.00, -1.00, 445.9, 6.3)">i</text><text xml:space="preserve" font-family="GillSans,Gill Sans" font-size="23.0" fill="#FEFFFF" transform="matrix(1.00, 0.00, -0.00, -1.00, 451.0, 6.3)">s</text></g></svg>