<?xml version="1.0" encoding="UTF-8" standalone="no"?><svg xmlns="http://www.w3.org/2000/svg" xmlns:xlink="http://www.w3.org/1999/xlink" clip-rule="evenodd" stroke-miterlimit="10" viewBox="0 0 113 17"><desc>SVG generated by Keynote</desc><defs></defs><g transform="matrix(1.00, 0.00, -0.00, -1.00, 0.0, 17.0)"><text xml:space="preserve" font-family="GillSans,Gill Sans" font-size="16.0" fill="#FEFFFF" transform="matrix(1.00, 0.00, -0.00, -1.00, 0.4, 4.7)">m</text><text xml:space="preserve" font-family="GillSans,Gill Sans" font-size="16.0" fill="#FEFFFF" transform="matrix(1.00, 0.00, -0.00, -1.00, 12.7, 4.7)">o</text><text xml:space="preserve" font-family="GillSans,Gill Sans" font-size="16.0" fill="#FEFFFF" transform="matrix(1.00, 0.00, -0.00, -1.00, 21.6, 4.7)">t</text><text xml:space="preserve" font-family="GillSans,Gill Sans" font-size="16.0" fill="#FEFFFF" transform="matrix(1.00, 0.00, -0.00, -1.00, 26.9, 4.7)">i</text><text xml:space="preserve" font-family="GillSans,Gill Sans" font-size="16.0" fill="#FEFFFF" transform="matrix(1.00, 0.00, -0.00, -1.00, 30.4, 4.7)">o</text><text xml:space="preserve" font-family="GillSans,Gill Sans" font-size="16.0" fill="#FEFFFF" transform="matrix(1.00, 0.00, -0.00, -1.00, 39.2, 4.7)">n</text><text xml:space="preserve" font-family="GillSans,Gill Sans" font-size="16.0" fill="#FEFFFF" transform="matrix(1.00, 0.00, -0.00, -1.00, 47.2, 4.7)"> </text><text xml:space="preserve" font-family="GillSans,Gill Sans" font-size="16.0" fill="#FEFFFF" transform="matrix(1.00, 0.00, -0.00, -1.00, 51.7, 4.7)">(</text><text xml:space="preserve" font-family="GillSans,Gill Sans" font-size="16.0" fill="#FEFFFF" transform="matrix(1.00, 0.00, -0.00, -1.00, 56.8, 4.7)">v</text><text xml:space="preserve" font-family="GillSans,Gill Sans" font-size="16.0" fill="#FEFFFF" transform="matrix(1.00, 0.00, -0.00, -1.00, 63.5, 4.7)">e</text><text xml:space="preserve" font-family="GillSans,Gill Sans" font-size="16.0" fill="#FEFFFF" transform="matrix(1.00, 0.00, -0.00, -1.00, 71.2, 4.7)">r</text><text xml:space="preserve" font-family="GillSans,Gill Sans" font-size="16.0" fill="#FEFFFF" transform="matrix(1.00, 0.00, -0.00, -1.00, 77.8, 4.7)">t</text><text xml:space="preserve" font-family="GillSans,Gill Sans" font-size="16.0" fill="#FEFFFF" transform="matrix(1.00, 0.00, -0.00, -1.00, 83.2, 4.7)">i</text><text xml:space="preserve" font-family="GillSans,Gill Sans" font-size="16.0" fill="#FEFFFF" transform="matrix(1.00, 0.00, -0.00, -1.00, 86.7, 4.7)">c</text><text xml:space="preserve" font-family="GillSans,Gill Sans" font-size="16.0" fill="#FEFFFF" transform="matrix(1.00, 0.00, -0.00, -1.00, 93.7, 4.7)">a</text><text xml:space="preserve" font-family="GillSans,Gill Sans" font-size="16.0" fill="#FEFFFF" transform="matrix(1.00, 0.00, -0.00, -1.00, 100.5, 4.7)">l</text><text xml:space="preserve" font-family="GillSans,Gill Sans" font-size="16.0" fill="#FEFFFF" transform="matrix(1.00, 0.00, -0.00, -1.00, 104.0, 4.7)">)</text><text xml:space="preserve" font-family="GillSans,Gill Sans" font-size="16.0" fill="#FEFFFF" transform="matrix(1.00, 0.00, -0.00, -1.00, 109.2, 4.7)">.</text></g></svg>