<?xml version="1.0" encoding="UTF-8" standalone="no"?><svg xmlns="http://www.w3.org/2000/svg" xmlns:xlink="http://www.w3.org/1999/xlink" clip-rule="evenodd" stroke-miterlimit="10" viewBox="0 0 456 17"><desc>SVG generated by Keynote</desc><defs></defs><g transform="matrix(1.00, 0.00, -0.00, -1.00, 0.0, 17.0)"><text xml:space="preserve" font-family="GillSans,Gill Sans" font-size="16.0" fill="#FEFFFF" transform="matrix(1.00, 0.00, -0.00, -1.00, 1.4, 4.7)">o</text><text xml:space="preserve" font-family="GillSans,Gill Sans" font-size="16.0" fill="#FEFFFF" transform="matrix(1.00, 0.00, -0.00, -1.00, 10.2, 4.7)">f</text><text xml:space="preserve" font-family="GillSans,Gill Sans" font-size="16.0" fill="#FEFFFF" transform="matrix(1.00, 0.00, -0.00, -1.00, 14.2, 4.7)">f</text><text xml:space="preserve" font-family="GillSans,Gill Sans" font-size="16.0" fill="#FEFFFF" transform="matrix(1.00, 0.00, -0.00, -1.00, 18.2, 4.7)">.</text><text xml:space="preserve" font-family="GillSans,Gill Sans" font-size="16.0" fill="#FEFFFF" transform="matrix(1.00, 0.00, -0.00, -1.00, 20.1, 4.7)"> </text><text xml:space="preserve" font-family="GillSans,Gill Sans" font-size="16.0" fill="#FEFFFF" transform="matrix(1.00, 0.00, -0.00, -1.00, 24.6, 4.7)"> </text><text xml:space="preserve" font-family="GillSans,Gill Sans" font-size="16.0" fill="#FEFFFF" transform="matrix(1.00, 0.00, -0.00, -1.00, 26.6, 4.7)">Y</text><text xml:space="preserve" font-family="GillSans,Gill Sans" font-size="16.0" fill="#FEFFFF" transform="matrix(1.00, 0.00, -0.00, -1.00, 34.0, 4.7)">o</text><text xml:space="preserve" font-family="GillSans,Gill Sans" font-size="16.0" fill="#FEFFFF" transform="matrix(1.00, 0.00, -0.00, -1.00, 42.9, 4.7)">u</text><text xml:space="preserve" font-family="GillSans,Gill Sans" font-size="16.0" fill="#FEFFFF" transform="matrix(1.00, 0.00, -0.00, -1.00, 50.9, 4.7)"> </text><text xml:space="preserve" font-family="GillSans,Gill Sans" font-size="16.0" fill="#FEFFFF" transform="matrix(1.00, 0.00, -0.00, -1.00, 55.3, 4.7)">c</text><text xml:space="preserve" font-family="GillSans,Gill Sans" font-size="16.0" fill="#FEFFFF" transform="matrix(1.00, 0.00, -0.00, -1.00, 62.3, 4.7)">a</text><text xml:space="preserve" font-family="GillSans,Gill Sans" font-size="16.0" fill="#FEFFFF" transform="matrix(1.00, 0.00, -0.00, -1.00, 69.1, 4.7)">n</text><text xml:space="preserve" font-family="GillSans,Gill Sans" font-size="16.0" fill="#FEFFFF" transform="matrix(1.00, 0.00, -0.00, -1.00, 77.1, 4.7)"> </text><text xml:space="preserve" font-family="GillSans,Gill Sans" font-size="16.0" fill="#FEFFFF" transform="matrix(1.00, 0.00, -0.00, -1.00, 81.6, 4.7)">s</text><text xml:space="preserve" font-family="GillSans,Gill Sans" font-size="16.0" fill="#FEFFFF" transform="matrix(1.00, 0.00, -0.00, -1.00, 87.7, 4.7)">e</text><text xml:space="preserve" font-family="GillSans,Gill Sans" font-size="16.0" fill="#FEFFFF" transform="matrix(1.00, 0.00, -0.00, -1.00, 95.4, 4.7)">e</text><text xml:space="preserve" font-family="GillSans,Gill Sans" font-size="16.0" fill="#FEFFFF" transform="matrix(1.00, 0.00, -0.00, -1.00, 103.1, 4.7)"> </text><text xml:space="preserve" font-family="GillSans,Gill Sans" font-size="16.0" fill="#FEFFFF" transform="matrix(1.00, 0.00, -0.00, -1.00, 107.5, 4.7)">t</text><text xml:space="preserve" font-family="GillSans,Gill Sans" font-size="16.0" fill="#FEFFFF" transform="matrix(1.00, 0.00, -0.00, -1.00, 112.8, 4.7)">h</text><text xml:space="preserve" font-family="GillSans,Gill Sans" font-size="16.0" fill="#FEFFFF" transform="matrix(1.00, 0.00, -0.00, -1.00, 120.8, 4.7)">a</text><text xml:space="preserve" font-family="GillSans,Gill Sans" font-size="16.0" fill="#FEFFFF" transform="matrix(1.00, 0.00, -0.00, -1.00, 127.7, 4.7)">t</text><text xml:space="preserve" font-family="GillSans,Gill Sans" font-size="16.0" fill="#FEFFFF" transform="matrix(1.00, 0.00, -0.00, -1.00, 133.0, 4.7)"> </text><text xml:space="preserve" font-family="GillSans,Gill Sans" font-size="16.0" fill="#FEFFFF" transform="matrix(1.00, 0.00, -0.00, -1.00, 137.4, 4.7)">o</text><text xml:space="preserve" font-family="GillSans,Gill Sans" font-size="16.0" fill="#FEFFFF" transform="matrix(1.00, 0.00, -0.00, -1.00, 146.3, 4.7)">n</text><text xml:space="preserve" font-family="GillSans,Gill Sans" font-size="16.0" fill="#FEFFFF" transform="matrix(1.00, 0.00, -0.00, -1.00, 154.3, 4.7)"> </text><text xml:space="preserve" font-family="GillSans,Gill Sans" font-size="16.0" fill="#FEFFFF" transform="matrix(1.00, 0.00, -0.00, -1.00, 158.7, 4.7)">h</text><text xml:space="preserve" font-family="GillSans,Gill Sans" font-size="16.0" fill="#FEFFFF" transform="matrix(1.00, 0.00, -0.00, -1.00, 166.7, 4.7)">i</text><text xml:space="preserve" font-family="GillSans,Gill Sans" font-size="16.0" fill="#FEFFFF" transform="matrix(1.00, 0.00, -0.00, -1.00, 170.2, 4.7)">s</text><text xml:space="preserve" font-family="GillSans,Gill Sans" font-size="16.0" fill="#FEFFFF" transform="matrix(1.00, 0.00, -0.00, -1.00, 176.4, 4.7)"> </text><text xml:space="preserve" font-family="GillSans,Gill Sans" font-size="16.0" fill="#FEFFFF" transform="matrix(1.00, 0.00, -0.00, -1.00, 180.8, 4.7)">s</text><text xml:space="preserve" font-family="GillSans,Gill Sans" font-size="16.0" fill="#FEFFFF" transform="matrix(1.00, 0.00, -0.00, -1.00, 187.0, 4.7)">c</text><text xml:space="preserve" font-family="GillSans,Gill Sans" font-size="16.0" fill="#FEFFFF" transform="matrix(1.00, 0.00, -0.00, -1.00, 194.0, 4.7)">a</text><text xml:space="preserve" font-family="GillSans,Gill Sans" font-size="16.0" fill="#FEFFFF" transform="matrix(1.00, 0.00, -0.00, -1.00, 200.8, 4.7)">l</text><text xml:space="preserve" font-family="GillSans,Gill Sans" font-size="16.0" fill="#FEFFFF" transform="matrix(1.00, 0.00, -0.00, -1.00, 204.3, 4.7)">e</text><text xml:space="preserve" font-family="GillSans,Gill Sans" font-size="16.0" fill="#FEFFFF" transform="matrix(1.00, 0.00, -0.00, -1.00, 212.0, 4.7)"> </text><text xml:space="preserve" font-family="GillSans,Gill Sans" font-size="16.0" fill="#FEFFFF" transform="matrix(1.00, 0.00, -0.00, -1.00, 216.4, 4.7)">y</text><text xml:space="preserve" font-family="GillSans,Gill Sans" font-size="16.0" fill="#FEFFFF" transform="matrix(1.00, 0.00, -0.00, -1.00, 223.1, 4.7)">o</text><text xml:space="preserve" font-family="GillSans,Gill Sans" font-size="16.0" fill="#FEFFFF" transform="matrix(1.00, 0.00, -0.00, -1.00, 231.9, 4.7)">u</text><text xml:space="preserve" font-family="GillSans,Gill Sans" font-size="16.0" fill="#FEFFFF" transform="matrix(1.00, 0.00, -0.00, -1.00, 239.9, 4.7)"> </text><text xml:space="preserve" font-family="GillSans,Gill Sans" font-size="16.0" fill="#FEFFFF" transform="matrix(1.00, 0.00, -0.00, -1.00, 244.4, 4.7)">a</text><text xml:space="preserve" font-family="GillSans,Gill Sans" font-size="16.0" fill="#FEFFFF" transform="matrix(1.00, 0.00, -0.00, -1.00, 251.2, 4.7)">r</text><text xml:space="preserve" font-family="GillSans,Gill Sans" font-size="16.0" fill="#FEFFFF" transform="matrix(1.00, 0.00, -0.00, -1.00, 257.2, 4.7)">e</text><text xml:space="preserve" font-family="GillSans,Gill Sans" font-size="16.0" fill="#FEFFFF" transform="matrix(1.00, 0.00, -0.00, -1.00, 264.9, 4.7)"> </text><text xml:space="preserve" font-family="GillSans,Gill Sans" font-size="16.0" fill="#FEFFFF" transform="matrix(1.00, 0.00, -0.00, -1.00, 269.3, 4.7)">m</text><text xml:space="preserve" font-family="GillSans,Gill Sans" font-size="16.0" fill="#FEFFFF" transform="matrix(1.00, 0.00, -0.00, -1.00, 281.7, 4.7)">o</text><text xml:space="preserve" font-family="GillSans,Gill Sans" font-size="16.0" fill="#FEFFFF" transform="matrix(1.00, 0.00, -0.00, -1.00, 290.5, 4.7)">r</text><text xml:space="preserve" font-family="GillSans,Gill Sans" font-size="16.0" fill="#FEFFFF" transform="matrix(1.00, 0.00, -0.00, -1.00, 296.5, 4.7)">e</text><text xml:space="preserve" font-family="GillSans,Gill Sans" font-size="16.0" fill="#FEFFFF" transform="matrix(1.00, 0.00, -0.00, -1.00, 304.2, 4.7)"> </text><text xml:space="preserve" font-family="GillSans,Gill Sans" font-size="16.0" fill="#FEFFFF" transform="matrix(1.00, 0.00, -0.00, -1.00, 308.6, 4.7)">s</text><text xml:space="preserve" font-family="GillSans,Gill Sans" font-size="16.0" fill="#FEFFFF" transform="matrix(1.00, 0.00, -0.00, -1.00, 314.8, 4.7)">e</text><text xml:space="preserve" font-family="GillSans,Gill Sans" font-size="16.0" fill="#FEFFFF" transform="matrix(1.00, 0.00, -0.00, -1.00, 322.4, 4.7)">n</text><text xml:space="preserve" font-family="GillSans,Gill Sans" font-size="16.0" fill="#FEFFFF" transform="matrix(1.00, 0.00, -0.00, -1.00, 330.4, 4.7)">s</text><text xml:space="preserve" font-family="GillSans,Gill Sans" font-size="16.0" fill="#FEFFFF" transform="matrix(1.00, 0.00, -0.00, -1.00, 336.6, 4.7)">i</text><text xml:space="preserve" font-family="GillSans,Gill Sans" font-size="16.0" fill="#FEFFFF" transform="matrix(1.00, 0.00, -0.00, -1.00, 340.1, 4.7)">t</text><text xml:space="preserve" font-family="GillSans,Gill Sans" font-size="16.0" fill="#FEFFFF" transform="matrix(1.00, 0.00, -0.00, -1.00, 345.4, 4.7)">i</text><text xml:space="preserve" font-family="GillSans,Gill Sans" font-size="16.0" fill="#FEFFFF" transform="matrix(1.00, 0.00, -0.00, -1.00, 348.9, 4.7)">v</text><text xml:space="preserve" font-family="GillSans,Gill Sans" font-size="16.0" fill="#FEFFFF" transform="matrix(1.00, 0.00, -0.00, -1.00, 355.6, 4.7)">e</text><text xml:space="preserve" font-family="GillSans,Gill Sans" font-size="16.0" fill="#FEFFFF" transform="matrix(1.00, 0.00, -0.00, -1.00, 363.3, 4.7)"> </text><text xml:space="preserve" font-family="GillSans,Gill Sans" font-size="16.0" fill="#FEFFFF" transform="matrix(1.00, 0.00, -0.00, -1.00, 367.7, 4.7)">t</text><text xml:space="preserve" font-family="GillSans,Gill Sans" font-size="16.0" fill="#FEFFFF" transform="matrix(1.00, 0.00, -0.00, -1.00, 373.0, 4.7)">o</text><text xml:space="preserve" font-family="GillSans,Gill Sans" font-size="16.0" fill="#FEFFFF" transform="matrix(1.00, 0.00, -0.00, -1.00, 381.9, 4.7)"> </text><text xml:space="preserve" font-family="GillSans,Gill Sans" font-size="16.0" fill="#FEFFFF" transform="matrix(1.00, 0.00, -0.00, -1.00, 386.3, 4.7)">ï¬</text><text xml:space="preserve" font-family="GillSans,Gill Sans" font-size="16.0" fill="#FEFFFF" transform="matrix(1.00, 0.00, -0.00, -1.00, 394.3, 4.7)">r</text><text xml:space="preserve" font-family="GillSans,Gill Sans" font-size="16.0" fill="#FEFFFF" transform="matrix(1.00, 0.00, -0.00, -1.00, 400.6, 4.7)">s</text><text xml:space="preserve" font-family="GillSans,Gill Sans" font-size="16.0" fill="#FEFFFF" transform="matrix(1.00, 0.00, -0.00, -1.00, 406.8, 4.7)">t</text><text xml:space="preserve" font-family="GillSans,Gill Sans" font-size="16.0" fill="#FEFFFF" transform="matrix(1.00, 0.00, -0.00, -1.00, 412.1, 4.7)">-</text><text xml:space="preserve" font-family="GillSans,Gill Sans" font-size="16.0" fill="#FEFFFF" transform="matrix(1.00, 0.00, -0.00, -1.00, 417.3, 4.7)">o</text><text xml:space="preserve" font-family="GillSans,Gill Sans" font-size="16.0" fill="#FEFFFF" transform="matrix(1.00, 0.00, -0.00, -1.00, 426.1, 4.7)">r</text><text xml:space="preserve" font-family="GillSans,Gill Sans" font-size="16.0" fill="#FEFFFF" transform="matrix(1.00, 0.00, -0.00, -1.00, 432.2, 4.7)">d</text><text xml:space="preserve" font-family="GillSans,Gill Sans" font-size="16.0" fill="#FEFFFF" transform="matrix(1.00, 0.00, -0.00, -1.00, 440.4, 4.7)">e</text><text xml:space="preserve" font-family="GillSans,Gill Sans" font-size="16.0" fill="#FEFFFF" transform="matrix(1.00, 0.00, -0.00, -1.00, 448.0, 4.7)">r</text></g></svg>