<?xml version="1.0" encoding="UTF-8" standalone="no"?><svg xmlns="http://www.w3.org/2000/svg" xmlns:xlink="http://www.w3.org/1999/xlink" clip-rule="evenodd" stroke-miterlimit="10" viewBox="0 0 438 17"><desc>SVG generated by Keynote</desc><defs></defs><g transform="matrix(1.00, 0.00, -0.00, -1.00, 0.0, 17.0)"><text xml:space="preserve" font-family="GillSans,Gill Sans" font-size="16.0" fill="#FEFFFF" transform="matrix(1.00, 0.00, -0.00, -1.00, 1.0, 4.7)">O</text><text xml:space="preserve" font-family="GillSans,Gill Sans" font-size="16.0" fill="#FEFFFF" transform="matrix(1.00, 0.00, -0.00, -1.00, 14.2, 4.7)">k</text><text xml:space="preserve" font-family="GillSans,Gill Sans" font-size="16.0" fill="#FEFFFF" transform="matrix(1.00, 0.00, -0.00, -1.00, 21.8, 4.7)">a</text><text xml:space="preserve" font-family="GillSans,Gill Sans" font-size="16.0" fill="#FEFFFF" transform="matrix(1.00, 0.00, -0.00, -1.00, 28.0, 4.7)">y</text><text xml:space="preserve" font-family="GillSans,Gill Sans" font-size="16.0" fill="#FEFFFF" transform="matrix(1.00, 0.00, -0.00, -1.00, 33.7, 4.7)">,</text><text xml:space="preserve" font-family="GillSans,Gill Sans" font-size="16.0" fill="#FEFFFF" transform="matrix(1.00, 0.00, -0.00, -1.00, 35.7, 4.7)"> </text><text xml:space="preserve" font-family="GillSans,Gill Sans" font-size="16.0" fill="#FEFFFF" transform="matrix(1.00, 0.00, -0.00, -1.00, 40.1, 4.7)">s</text><text xml:space="preserve" font-family="GillSans,Gill Sans" font-size="16.0" fill="#FEFFFF" transform="matrix(1.00, 0.00, -0.00, -1.00, 46.3, 4.7)">o</text><text xml:space="preserve" font-family="GillSans,Gill Sans" font-size="16.0" fill="#FEFFFF" transform="matrix(1.00, 0.00, -0.00, -1.00, 55.1, 4.7)"> </text><text xml:space="preserve" font-family="GillSans,Gill Sans" font-size="16.0" fill="#FEFFFF" transform="matrix(1.00, 0.00, -0.00, -1.00, 59.5, 4.7)">h</text><text xml:space="preserve" font-family="GillSans,Gill Sans" font-size="16.0" fill="#FEFFFF" transform="matrix(1.00, 0.00, -0.00, -1.00, 67.5, 4.7)">e</text><text xml:space="preserve" font-family="GillSans,Gill Sans" font-size="16.0" fill="#FEFFFF" transform="matrix(1.00, 0.00, -0.00, -1.00, 75.2, 4.7)">r</text><text xml:space="preserve" font-family="GillSans,Gill Sans" font-size="16.0" fill="#FEFFFF" transform="matrix(1.00, 0.00, -0.00, -1.00, 81.2, 4.7)">e</text><text xml:space="preserve" font-family="GillSans,Gill Sans" font-size="16.0" fill="#FEFFFF" transform="matrix(1.00, 0.00, -0.00, -1.00, 88.9, 4.7)"> </text><text xml:space="preserve" font-family="GillSans,Gill Sans" font-size="16.0" fill="#FEFFFF" transform="matrix(1.00, 0.00, -0.00, -1.00, 93.3, 4.7)">w</text><text xml:space="preserve" font-family="GillSans,Gill Sans" font-size="16.0" fill="#FEFFFF" transform="matrix(1.00, 0.00, -0.00, -1.00, 104.5, 4.7)">e</text><text xml:space="preserve" font-family="GillSans,Gill Sans" font-size="16.0" fill="#FEFFFF" transform="matrix(1.00, 0.00, -0.00, -1.00, 112.2, 4.7)"> </text><text xml:space="preserve" font-family="GillSans,Gill Sans" font-size="16.0" fill="#FEFFFF" transform="matrix(1.00, 0.00, -0.00, -1.00, 116.6, 4.7)">a</text><text xml:space="preserve" font-family="GillSans,Gill Sans" font-size="16.0" fill="#FEFFFF" transform="matrix(1.00, 0.00, -0.00, -1.00, 123.4, 4.7)">r</text><text xml:space="preserve" font-family="GillSans,Gill Sans" font-size="16.0" fill="#FEFFFF" transform="matrix(1.00, 0.00, -0.00, -1.00, 129.4, 4.7)">e</text><text xml:space="preserve" font-family="GillSans,Gill Sans" font-size="16.0" fill="#FEFFFF" transform="matrix(1.00, 0.00, -0.00, -1.00, 137.1, 4.7)"> </text><text xml:space="preserve" font-family="GillSans,Gill Sans" font-size="16.0" fill="#FEFFFF" transform="matrix(1.00, 0.00, -0.00, -1.00, 141.6, 4.7)">g</text><text xml:space="preserve" font-family="GillSans,Gill Sans" font-size="16.0" fill="#FEFFFF" transform="matrix(1.00, 0.00, -0.00, -1.00, 148.2, 4.7)">o</text><text xml:space="preserve" font-family="GillSans,Gill Sans" font-size="16.0" fill="#FEFFFF" transform="matrix(1.00, 0.00, -0.00, -1.00, 157.0, 4.7)">i</text><text xml:space="preserve" font-family="GillSans,Gill Sans" font-size="16.0" fill="#FEFFFF" transform="matrix(1.00, 0.00, -0.00, -1.00, 160.6, 4.7)">n</text><text xml:space="preserve" font-family="GillSans,Gill Sans" font-size="16.0" fill="#FEFFFF" transform="matrix(1.00, 0.00, -0.00, -1.00, 168.6, 4.7)">g</text><text xml:space="preserve" font-family="GillSans,Gill Sans" font-size="16.0" fill="#FEFFFF" transform="matrix(1.00, 0.00, -0.00, -1.00, 175.4, 4.7)"> </text><text xml:space="preserve" font-family="GillSans,Gill Sans" font-size="16.0" fill="#FEFFFF" transform="matrix(1.00, 0.00, -0.00, -1.00, 179.8, 4.7)">t</text><text xml:space="preserve" font-family="GillSans,Gill Sans" font-size="16.0" fill="#FEFFFF" transform="matrix(1.00, 0.00, -0.00, -1.00, 185.1, 4.7)">o</text><text xml:space="preserve" font-family="GillSans,Gill Sans" font-size="16.0" fill="#FEFFFF" transform="matrix(1.00, 0.00, -0.00, -1.00, 194.0, 4.7)"> </text><text xml:space="preserve" font-family="GillSans,Gill Sans" font-size="16.0" fill="#FEFFFF" transform="matrix(1.00, 0.00, -0.00, -1.00, 198.4, 4.7)">h</text><text xml:space="preserve" font-family="GillSans,Gill Sans" font-size="16.0" fill="#FEFFFF" transform="matrix(1.00, 0.00, -0.00, -1.00, 206.4, 4.7)">a</text><text xml:space="preserve" font-family="GillSans,Gill Sans" font-size="16.0" fill="#FEFFFF" transform="matrix(1.00, 0.00, -0.00, -1.00, 212.7, 4.7)">v</text><text xml:space="preserve" font-family="GillSans,Gill Sans" font-size="16.0" fill="#FEFFFF" transform="matrix(1.00, 0.00, -0.00, -1.00, 219.4, 4.7)">e</text><text xml:space="preserve" font-family="GillSans,Gill Sans" font-size="16.0" fill="#FEFFFF" transform="matrix(1.00, 0.00, -0.00, -1.00, 227.0, 4.7)"> </text><text xml:space="preserve" font-family="GillSans,Gill Sans" font-size="16.0" fill="#FEFFFF" transform="matrix(1.00, 0.00, -0.00, -1.00, 231.5, 4.7)">f</text><text xml:space="preserve" font-family="GillSans,Gill Sans" font-size="16.0" fill="#FEFFFF" transform="matrix(1.00, 0.00, -0.00, -1.00, 235.3, 4.7)">o</text><text xml:space="preserve" font-family="GillSans,Gill Sans" font-size="16.0" fill="#FEFFFF" transform="matrix(1.00, 0.00, -0.00, -1.00, 244.1, 4.7)">u</text><text xml:space="preserve" font-family="GillSans,Gill Sans" font-size="16.0" fill="#FEFFFF" transform="matrix(1.00, 0.00, -0.00, -1.00, 252.1, 4.7)">r</text><text xml:space="preserve" font-family="GillSans,Gill Sans" font-size="16.0" fill="#FEFFFF" transform="matrix(1.00, 0.00, -0.00, -1.00, 258.5, 4.7)"> </text><text xml:space="preserve" font-family="GillSans,Gill Sans" font-size="16.0" fill="#FEFFFF" transform="matrix(1.00, 0.00, -0.00, -1.00, 262.9, 4.7)">p</text><text xml:space="preserve" font-family="GillSans,Gill Sans" font-size="16.0" fill="#FEFFFF" transform="matrix(1.00, 0.00, -0.00, -1.00, 270.9, 4.7)">l</text><text xml:space="preserve" font-family="GillSans,Gill Sans" font-size="16.0" fill="#FEFFFF" transform="matrix(1.00, 0.00, -0.00, -1.00, 274.4, 4.7)">o</text><text xml:space="preserve" font-family="GillSans,Gill Sans" font-size="16.0" fill="#FEFFFF" transform="matrix(1.00, 0.00, -0.00, -1.00, 283.3, 4.7)">t</text><text xml:space="preserve" font-family="GillSans,Gill Sans" font-size="16.0" fill="#FEFFFF" transform="matrix(1.00, 0.00, -0.00, -1.00, 288.6, 4.7)">s</text><text xml:space="preserve" font-family="GillSans,Gill Sans" font-size="16.0" fill="#FEFFFF" transform="matrix(1.00, 0.00, -0.00, -1.00, 294.7, 4.7)"> </text><text xml:space="preserve" font-family="GillSans,Gill Sans" font-size="16.0" fill="#FEFFFF" transform="matrix(1.00, 0.00, -0.00, -1.00, 299.2, 4.7)">e</text><text xml:space="preserve" font-family="GillSans,Gill Sans" font-size="16.0" fill="#FEFFFF" transform="matrix(1.00, 0.00, -0.00, -1.00, 306.8, 4.7)">x</text><text xml:space="preserve" font-family="GillSans,Gill Sans" font-size="16.0" fill="#FEFFFF" transform="matrix(1.00, 0.00, -0.00, -1.00, 314.8, 4.7)">t</text><text xml:space="preserve" font-family="GillSans,Gill Sans" font-size="16.0" fill="#FEFFFF" transform="matrix(1.00, 0.00, -0.00, -1.00, 320.2, 4.7)">r</text><text xml:space="preserve" font-family="GillSans,Gill Sans" font-size="16.0" fill="#FEFFFF" transform="matrix(1.00, 0.00, -0.00, -1.00, 326.5, 4.7)">a</text><text xml:space="preserve" font-family="GillSans,Gill Sans" font-size="16.0" fill="#FEFFFF" transform="matrix(1.00, 0.00, -0.00, -1.00, 333.3, 4.7)">c</text><text xml:space="preserve" font-family="GillSans,Gill Sans" font-size="16.0" fill="#FEFFFF" transform="matrix(1.00, 0.00, -0.00, -1.00, 340.3, 4.7)">t</text><text xml:space="preserve" font-family="GillSans,Gill Sans" font-size="16.0" fill="#FEFFFF" transform="matrix(1.00, 0.00, -0.00, -1.00, 345.7, 4.7)">e</text><text xml:space="preserve" font-family="GillSans,Gill Sans" font-size="16.0" fill="#FEFFFF" transform="matrix(1.00, 0.00, -0.00, -1.00, 353.3, 4.7)">d</text><text xml:space="preserve" font-family="GillSans,Gill Sans" font-size="16.0" fill="#FEFFFF" transform="matrix(1.00, 0.00, -0.00, -1.00, 361.5, 4.7)"> </text><text xml:space="preserve" font-family="GillSans,Gill Sans" font-size="16.0" fill="#FEFFFF" transform="matrix(1.00, 0.00, -0.00, -1.00, 365.9, 4.7)">f</text><text xml:space="preserve" font-family="GillSans,Gill Sans" font-size="16.0" fill="#FEFFFF" transform="matrix(1.00, 0.00, -0.00, -1.00, 369.9, 4.7)">r</text><text xml:space="preserve" font-family="GillSans,Gill Sans" font-size="16.0" fill="#FEFFFF" transform="matrix(1.00, 0.00, -0.00, -1.00, 375.9, 4.7)">o</text><text xml:space="preserve" font-family="GillSans,Gill Sans" font-size="16.0" fill="#FEFFFF" transform="matrix(1.00, 0.00, -0.00, -1.00, 384.7, 4.7)">m</text><text xml:space="preserve" font-family="GillSans,Gill Sans" font-size="16.0" fill="#FEFFFF" transform="matrix(1.00, 0.00, -0.00, -1.00, 397.0, 4.7)"> </text><text xml:space="preserve" font-family="GillSans,Gill Sans" font-size="16.0" fill="#FEFFFF" transform="matrix(1.00, 0.00, -0.00, -1.00, 401.5, 4.7)">t</text><text xml:space="preserve" font-family="GillSans,Gill Sans" font-size="16.0" fill="#FEFFFF" transform="matrix(1.00, 0.00, -0.00, -1.00, 406.8, 4.7)">h</text><text xml:space="preserve" font-family="GillSans,Gill Sans" font-size="16.0" fill="#FEFFFF" transform="matrix(1.00, 0.00, -0.00, -1.00, 414.8, 4.7)">e</text><text xml:space="preserve" font-family="GillSans,Gill Sans" font-size="16.0" fill="#FEFFFF" transform="matrix(1.00, 0.00, -0.00, -1.00, 422.5, 4.7)">s</text><text xml:space="preserve" font-family="GillSans,Gill Sans" font-size="16.0" fill="#FEFFFF" transform="matrix(1.00, 0.00, -0.00, -1.00, 428.6, 4.7)">e</text></g></svg>