<?xml version="1.0" encoding="UTF-8" standalone="no"?><svg xmlns="http://www.w3.org/2000/svg" xmlns:xlink="http://www.w3.org/1999/xlink" clip-rule="evenodd" stroke-miterlimit="10" viewBox="0 0 219 18"><desc>SVG generated by Keynote</desc><defs></defs><g transform="matrix(1.00, 0.00, -0.00, -1.00, 0.0, 18.0)"><text xml:space="preserve" font-family="GillSans,Gill Sans" font-size="16.0" fill="#FEFFFF" transform="matrix(1.00, 0.00, -0.00, -1.00, 0.4, 5.4)">m</text><text xml:space="preserve" font-family="GillSans,Gill Sans" font-size="16.0" fill="#FEFFFF" transform="matrix(1.00, 0.00, -0.00, -1.00, 12.7, 5.4)">o</text><text xml:space="preserve" font-family="GillSans,Gill Sans" font-size="16.0" fill="#FEFFFF" transform="matrix(1.00, 0.00, -0.00, -1.00, 21.6, 5.4)">t</text><text xml:space="preserve" font-family="GillSans,Gill Sans" font-size="16.0" fill="#FEFFFF" transform="matrix(1.00, 0.00, -0.00, -1.00, 26.9, 5.4)">i</text><text xml:space="preserve" font-family="GillSans,Gill Sans" font-size="16.0" fill="#FEFFFF" transform="matrix(1.00, 0.00, -0.00, -1.00, 30.4, 5.4)">o</text><text xml:space="preserve" font-family="GillSans,Gill Sans" font-size="16.0" fill="#FEFFFF" transform="matrix(1.00, 0.00, -0.00, -1.00, 39.2, 5.4)">n</text><text xml:space="preserve" font-family="GillSans,Gill Sans" font-size="16.0" fill="#FEFFFF" transform="matrix(1.00, 0.00, -0.00, -1.00, 47.2, 5.4)"> </text><text xml:space="preserve" font-family="GillSans,Gill Sans" font-size="16.0" fill="#FEFFFF" transform="matrix(1.00, 0.00, -0.00, -1.00, 51.7, 5.4)">a</text><text xml:space="preserve" font-family="GillSans,Gill Sans" font-size="16.0" fill="#FEFFFF" transform="matrix(1.00, 0.00, -0.00, -1.00, 58.5, 5.4)">f</text><text xml:space="preserve" font-family="GillSans,Gill Sans" font-size="16.0" fill="#FEFFFF" transform="matrix(1.00, 0.00, -0.00, -1.00, 62.5, 5.4)">f</text><text xml:space="preserve" font-family="GillSans,Gill Sans" font-size="16.0" fill="#FEFFFF" transform="matrix(1.00, 0.00, -0.00, -1.00, 66.3, 5.4)">e</text><text xml:space="preserve" font-family="GillSans,Gill Sans" font-size="16.0" fill="#FEFFFF" transform="matrix(1.00, 0.00, -0.00, -1.00, 74.0, 5.4)">c</text><text xml:space="preserve" font-family="GillSans,Gill Sans" font-size="16.0" fill="#FEFFFF" transform="matrix(1.00, 0.00, -0.00, -1.00, 81.0, 5.4)">t</text><text xml:space="preserve" font-family="GillSans,Gill Sans" font-size="16.0" fill="#FEFFFF" transform="matrix(1.00, 0.00, -0.00, -1.00, 86.3, 5.4)">s</text><text xml:space="preserve" font-family="GillSans,Gill Sans" font-size="16.0" fill="#FEFFFF" transform="matrix(1.00, 0.00, -0.00, -1.00, 92.5, 5.4)"> </text><text xml:space="preserve" font-family="GillSans,Gill Sans" font-size="16.0" fill="#FEFFFF" transform="matrix(1.00, 0.00, -0.00, -1.00, 96.9, 5.4)">t</text><text xml:space="preserve" font-family="GillSans,Gill Sans" font-size="16.0" fill="#FEFFFF" transform="matrix(1.00, 0.00, -0.00, -1.00, 102.3, 5.4)">h</text><text xml:space="preserve" font-family="GillSans,Gill Sans" font-size="16.0" fill="#FEFFFF" transform="matrix(1.00, 0.00, -0.00, -1.00, 110.3, 5.4)">e</text><text xml:space="preserve" font-family="GillSans,Gill Sans" font-size="16.0" fill="#FEFFFF" transform="matrix(1.00, 0.00, -0.00, -1.00, 117.9, 5.4)"> </text><text xml:space="preserve" font-family="GillSans,Gill Sans" font-size="16.0" fill="#FEFFFF" transform="matrix(1.00, 0.00, -0.00, -1.00, 122.4, 5.4)">r</text><text xml:space="preserve" font-family="GillSans,Gill Sans" font-size="16.0" fill="#FEFFFF" transform="matrix(1.00, 0.00, -0.00, -1.00, 128.4, 5.4)">e</text><text xml:space="preserve" font-family="GillSans,Gill Sans" font-size="16.0" fill="#FEFFFF" transform="matrix(1.00, 0.00, -0.00, -1.00, 136.0, 5.4)">s</text><text xml:space="preserve" font-family="GillSans,Gill Sans" font-size="16.0" fill="#FEFFFF" transform="matrix(1.00, 0.00, -0.00, -1.00, 142.2, 5.4)">p</text><text xml:space="preserve" font-family="GillSans,Gill Sans" font-size="16.0" fill="#FEFFFF" transform="matrix(1.00, 0.00, -0.00, -1.00, 150.2, 5.4)">o</text><text xml:space="preserve" font-family="GillSans,Gill Sans" font-size="16.0" fill="#FEFFFF" transform="matrix(1.00, 0.00, -0.00, -1.00, 159.0, 5.4)">n</text><text xml:space="preserve" font-family="GillSans,Gill Sans" font-size="16.0" fill="#FEFFFF" transform="matrix(1.00, 0.00, -0.00, -1.00, 167.0, 5.4)">s</text><text xml:space="preserve" font-family="GillSans,Gill Sans" font-size="16.0" fill="#FEFFFF" transform="matrix(1.00, 0.00, -0.00, -1.00, 173.2, 5.4)">e</text><text xml:space="preserve" font-family="GillSans,Gill Sans" font-size="16.0" fill="#FEFFFF" transform="matrix(1.00, 0.00, -0.00, -1.00, 180.8, 5.4)">s</text><text xml:space="preserve" font-family="GillSans,Gill Sans" font-size="16.0" fill="#FEFFFF" transform="matrix(1.00, 0.00, -0.00, -1.00, 187.0, 5.4)"> </text><text xml:space="preserve" font-family="GillSans,Gill Sans" font-size="16.0" fill="#FEFFFF" transform="matrix(1.00, 0.00, -0.00, -1.00, 191.4, 5.4)">l</text><text xml:space="preserve" font-family="GillSans,Gill Sans" font-size="16.0" fill="#FEFFFF" transform="matrix(1.00, 0.00, -0.00, -1.00, 194.9, 5.4)">e</text><text xml:space="preserve" font-family="GillSans,Gill Sans" font-size="16.0" fill="#FEFFFF" transform="matrix(1.00, 0.00, -0.00, -1.00, 202.6, 5.4)">s</text><text xml:space="preserve" font-family="GillSans,Gill Sans" font-size="16.0" fill="#FEFFFF" transform="matrix(1.00, 0.00, -0.00, -1.00, 208.8, 5.4)">s</text><text xml:space="preserve" font-family="GillSans,Gill Sans" font-size="16.0" fill="#FEFFFF" transform="matrix(1.00, 0.00, -0.00, -1.00, 214.9, 5.4)">.</text></g></svg>