<?xml version="1.0" encoding="UTF-8" standalone="no"?><svg xmlns="http://www.w3.org/2000/svg" xmlns:xlink="http://www.w3.org/1999/xlink" clip-rule="evenodd" stroke-miterlimit="10" viewBox="0 0 625 31"><desc>SVG generated by Keynote</desc><defs></defs><g transform="matrix(1.00, 0.00, -0.00, -1.00, 0.0, 31.0)"><text xml:space="preserve" font-family="GillSans,Gill Sans" font-size="23.0" fill="#525252" transform="matrix(1.00, 0.00, -0.00, -1.00, 0.9, 9.6)">•</text><text xml:space="preserve" font-family="GillSans,Gill Sans" font-size="28.0" fill="#000000" transform="matrix(1.00, 0.00, -0.00, -1.00, 25.8, 7.7)">O</text><text xml:space="preserve" font-family="GillSans,Gill Sans" font-size="28.0" fill="#000000" transform="matrix(1.00, 0.00, -0.00, -1.00, 48.9, 7.7)">u</text><text xml:space="preserve" font-family="GillSans,Gill Sans" font-size="28.0" fill="#000000" transform="matrix(1.00, 0.00, -0.00, -1.00, 62.9, 7.7)">t</text><text xml:space="preserve" font-family="GillSans,Gill Sans" font-size="28.0" fill="#000000" transform="matrix(1.00, 0.00, -0.00, -1.00, 72.2, 7.7)">p</text><text xml:space="preserve" font-family="GillSans,Gill Sans" font-size="28.0" fill="#000000" transform="matrix(1.00, 0.00, -0.00, -1.00, 86.2, 7.7)">u</text><text xml:space="preserve" font-family="GillSans,Gill Sans" font-size="28.0" fill="#000000" transform="matrix(1.00, 0.00, -0.00, -1.00, 100.2, 7.7)">t</text><text xml:space="preserve" font-family="GillSans,Gill Sans" font-size="28.0" fill="#000000" transform="matrix(1.00, 0.00, -0.00, -1.00, 109.5, 7.7)">:</text><text xml:space="preserve" font-family="GillSans,Gill Sans" font-size="28.0" fill="#000000" transform="matrix(1.00, 0.00, -0.00, -1.00, 112.9, 7.7)"> </text><text xml:space="preserve" font-family="GillSans,Gill Sans" font-size="28.0" fill="#000000" transform="matrix(1.00, 0.00, -0.00, -1.00, 120.6, 7.7)">r</text><text xml:space="preserve" font-family="GillSans,Gill Sans" font-size="28.0" fill="#000000" transform="matrix(1.00, 0.00, -0.00, -1.00, 131.2, 7.7)">e</text><text xml:space="preserve" font-family="GillSans,Gill Sans" font-size="28.0" fill="#000000" transform="matrix(1.00, 0.00, -0.00, -1.00, 144.6, 7.7)">s</text><text xml:space="preserve" font-family="GillSans,Gill Sans" font-size="28.0" fill="#000000" transform="matrix(1.00, 0.00, -0.00, -1.00, 155.3, 7.7)">p</text><text xml:space="preserve" font-family="GillSans,Gill Sans" font-size="28.0" fill="#000000" transform="matrix(1.00, 0.00, -0.00, -1.00, 169.3, 7.7)">o</text><text xml:space="preserve" font-family="GillSans,Gill Sans" font-size="28.0" fill="#000000" transform="matrix(1.00, 0.00, -0.00, -1.00, 184.8, 7.7)">n</text><text xml:space="preserve" font-family="GillSans,Gill Sans" font-size="28.0" fill="#000000" transform="matrix(1.00, 0.00, -0.00, -1.00, 198.8, 7.7)">s</text><text xml:space="preserve" font-family="GillSans,Gill Sans" font-size="28.0" fill="#000000" transform="matrix(1.00, 0.00, -0.00, -1.00, 209.6, 7.7)">e</text><text xml:space="preserve" font-family="GillSans,Gill Sans" font-size="28.0" fill="#000000" transform="matrix(1.00, 0.00, -0.00, -1.00, 223.0, 7.7)"> </text><text xml:space="preserve" font-family="GillSans,Gill Sans" font-size="28.0" fill="#000000" transform="matrix(1.00, 0.00, -0.00, -1.00, 227.9, 7.7)">“</text><text xml:space="preserve" font-family="GillSans,Gill Sans" font-size="28.0" fill="#000000" transform="matrix(1.00, 0.00, -0.00, -1.00, 239.9, 7.7)">c</text><text xml:space="preserve" font-family="GillSans,Gill Sans" font-size="28.0" fill="#000000" transform="matrix(1.00, 0.00, -0.00, -1.00, 252.1, 7.7)">l</text><text xml:space="preserve" font-family="GillSans,Gill Sans" font-size="28.0" fill="#000000" transform="matrix(1.00, 0.00, -0.00, -1.00, 258.3, 7.7)">o</text><text xml:space="preserve" font-family="GillSans,Gill Sans" font-size="28.0" fill="#000000" transform="matrix(1.00, 0.00, -0.00, -1.00, 273.7, 7.7)">c</text><text xml:space="preserve" font-family="GillSans,Gill Sans" font-size="28.0" fill="#000000" transform="matrix(1.00, 0.00, -0.00, -1.00, 286.0, 7.7)">k</text><text xml:space="preserve" font-family="GillSans,Gill Sans" font-size="28.0" fill="#000000" transform="matrix(1.00, 0.00, -0.00, -1.00, 299.4, 7.7)">w</text><text xml:space="preserve" font-family="GillSans,Gill Sans" font-size="28.0" fill="#000000" transform="matrix(1.00, 0.00, -0.00, -1.00, 319.6, 7.7)">i</text><text xml:space="preserve" font-family="GillSans,Gill Sans" font-size="28.0" fill="#000000" transform="matrix(1.00, 0.00, -0.00, -1.00, 325.7, 7.7)">s</text><text xml:space="preserve" font-family="GillSans,Gill Sans" font-size="28.0" fill="#000000" transform="matrix(1.00, 0.00, -0.00, -1.00, 336.5, 7.7)">e</text><text xml:space="preserve" font-family="GillSans,Gill Sans" font-size="28.0" fill="#000000" transform="matrix(1.00, 0.00, -0.00, -1.00, 349.9, 7.7)">”</text><text xml:space="preserve" font-family="GillSans,Gill Sans" font-size="28.0" fill="#000000" transform="matrix(1.00, 0.00, -0.00, -1.00, 361.8, 7.7)"> </text><text xml:space="preserve" font-family="GillSans,Gill Sans" font-size="28.0" fill="#000000" transform="matrix(1.00, 0.00, -0.00, -1.00, 369.6, 7.7)">o</text><text xml:space="preserve" font-family="GillSans,Gill Sans" font-size="28.0" fill="#000000" transform="matrix(1.00, 0.00, -0.00, -1.00, 385.0, 7.7)">r</text><text xml:space="preserve" font-family="GillSans,Gill Sans" font-size="28.0" fill="#000000" transform="matrix(1.00, 0.00, -0.00, -1.00, 396.1, 7.7)"> </text><text xml:space="preserve" font-family="GillSans,Gill Sans" font-size="28.0" fill="#000000" transform="matrix(1.00, 0.00, -0.00, -1.00, 401.1, 7.7)">“</text><text xml:space="preserve" font-family="GillSans,Gill Sans" font-size="28.0" fill="#000000" transform="matrix(1.00, 0.00, -0.00, -1.00, 413.0, 7.7)">c</text><text xml:space="preserve" font-family="GillSans,Gill Sans" font-size="28.0" fill="#000000" transform="matrix(1.00, 0.00, -0.00, -1.00, 425.3, 7.7)">o</text><text xml:space="preserve" font-family="GillSans,Gill Sans" font-size="28.0" fill="#000000" transform="matrix(1.00, 0.00, -0.00, -1.00, 440.8, 7.7)">u</text><text xml:space="preserve" font-family="GillSans,Gill Sans" font-size="28.0" fill="#000000" transform="matrix(1.00, 0.00, -0.00, -1.00, 454.8, 7.7)">n</text><text xml:space="preserve" font-family="GillSans,Gill Sans" font-size="28.0" fill="#000000" transform="matrix(1.00, 0.00, -0.00, -1.00, 468.8, 7.7)">t</text><text xml:space="preserve" font-family="GillSans,Gill Sans" font-size="28.0" fill="#000000" transform="matrix(1.00, 0.00, -0.00, -1.00, 478.1, 7.7)">e</text><text xml:space="preserve" font-family="GillSans,Gill Sans" font-size="28.0" fill="#000000" transform="matrix(1.00, 0.00, -0.00, -1.00, 491.5, 7.7)">r</text><text xml:space="preserve" font-family="GillSans,Gill Sans" font-size="28.0" fill="#000000" transform="matrix(1.00, 0.00, -0.00, -1.00, 501.9, 7.7)">c</text><text xml:space="preserve" font-family="GillSans,Gill Sans" font-size="28.0" fill="#000000" transform="matrix(1.00, 0.00, -0.00, -1.00, 514.1, 7.7)">l</text><text xml:space="preserve" font-family="GillSans,Gill Sans" font-size="28.0" fill="#000000" transform="matrix(1.00, 0.00, -0.00, -1.00, 520.3, 7.7)">o</text><text xml:space="preserve" font-family="GillSans,Gill Sans" font-size="28.0" fill="#000000" transform="matrix(1.00, 0.00, -0.00, -1.00, 535.7, 7.7)">c</text><text xml:space="preserve" font-family="GillSans,Gill Sans" font-size="28.0" fill="#000000" transform="matrix(1.00, 0.00, -0.00, -1.00, 548.0, 7.7)">k</text><text xml:space="preserve" font-family="GillSans,Gill Sans" font-size="28.0" fill="#000000" transform="matrix(1.00, 0.00, -0.00, -1.00, 561.4, 7.7)">w</text><text xml:space="preserve" font-family="GillSans,Gill Sans" font-size="28.0" fill="#000000" transform="matrix(1.00, 0.00, -0.00, -1.00, 581.6, 7.7)">i</text><text xml:space="preserve" font-family="GillSans,Gill Sans" font-size="28.0" fill="#000000" transform="matrix(1.00, 0.00, -0.00, -1.00, 587.7, 7.7)">s</text><text xml:space="preserve" font-family="GillSans,Gill Sans" font-size="28.0" fill="#000000" transform="matrix(1.00, 0.00, -0.00, -1.00, 598.5, 7.7)">e</text><text xml:space="preserve" font-family="GillSans,Gill Sans" font-size="28.0" fill="#000000" transform="matrix(1.00, 0.00, -0.00, -1.00, 611.9, 7.7)">”</text></g></svg>