<?xml version="1.0" encoding="UTF-8" standalone="no"?><svg xmlns="http://www.w3.org/2000/svg" xmlns:xlink="http://www.w3.org/1999/xlink" clip-rule="evenodd" stroke-miterlimit="10" viewBox="0 0 440 24"><desc>SVG generated by Keynote</desc><defs></defs><g transform="matrix(1.00, 0.00, -0.00, -1.00, 0.0, 24.0)"><text xml:space="preserve" font-family="GillSans,Gill Sans" font-size="23.0" fill="#FEFFFF" transform="matrix(1.00, 0.00, -0.00, -1.00, 0.4, 6.3)">c</text><text xml:space="preserve" font-family="GillSans,Gill Sans" font-size="23.0" fill="#FEFFFF" transform="matrix(1.00, 0.00, -0.00, -1.00, 10.5, 6.3)">l</text><text xml:space="preserve" font-family="GillSans,Gill Sans" font-size="23.0" fill="#FEFFFF" transform="matrix(1.00, 0.00, -0.00, -1.00, 15.5, 6.3)">o</text><text xml:space="preserve" font-family="GillSans,Gill Sans" font-size="23.0" fill="#FEFFFF" transform="matrix(1.00, 0.00, -0.00, -1.00, 28.2, 6.3)">c</text><text xml:space="preserve" font-family="GillSans,Gill Sans" font-size="23.0" fill="#FEFFFF" transform="matrix(1.00, 0.00, -0.00, -1.00, 38.3, 6.3)">k</text><text xml:space="preserve" font-family="GillSans,Gill Sans" font-size="23.0" fill="#FEFFFF" transform="matrix(1.00, 0.00, -0.00, -1.00, 49.3, 6.3)">w</text><text xml:space="preserve" font-family="GillSans,Gill Sans" font-size="23.0" fill="#FEFFFF" transform="matrix(1.00, 0.00, -0.00, -1.00, 65.8, 6.3)">i</text><text xml:space="preserve" font-family="GillSans,Gill Sans" font-size="23.0" fill="#FEFFFF" transform="matrix(1.00, 0.00, -0.00, -1.00, 70.9, 6.3)">s</text><text xml:space="preserve" font-family="GillSans,Gill Sans" font-size="23.0" fill="#FEFFFF" transform="matrix(1.00, 0.00, -0.00, -1.00, 79.7, 6.3)">e</text><text xml:space="preserve" font-family="GillSans,Gill Sans" font-size="23.0" fill="#FEFFFF" transform="matrix(1.00, 0.00, -0.00, -1.00, 91.2, 6.3)">.</text><text xml:space="preserve" font-family="GillSans,Gill Sans" font-size="23.0" fill="#FEFFFF" transform="matrix(1.00, 0.00, -0.00, -1.00, 94.0, 6.3)"> </text><text xml:space="preserve" font-family="GillSans,Gill Sans" font-size="23.0" fill="#FEFFFF" transform="matrix(1.00, 0.00, -0.00, -1.00, 100.3, 6.3)">I</text><text xml:space="preserve" font-family="GillSans,Gill Sans" font-size="23.0" fill="#FEFFFF" transform="matrix(1.00, 0.00, -0.00, -1.00, 106.1, 6.3)">n</text><text xml:space="preserve" font-family="GillSans,Gill Sans" font-size="23.0" fill="#FEFFFF" transform="matrix(1.00, 0.00, -0.00, -1.00, 117.6, 6.3)"> </text><text xml:space="preserve" font-family="GillSans,Gill Sans" font-size="23.0" fill="#FEFFFF" transform="matrix(1.00, 0.00, -0.00, -1.00, 124.0, 6.3)">t</text><text xml:space="preserve" font-family="GillSans,Gill Sans" font-size="23.0" fill="#FEFFFF" transform="matrix(1.00, 0.00, -0.00, -1.00, 131.6, 6.3)">h</text><text xml:space="preserve" font-family="GillSans,Gill Sans" font-size="23.0" fill="#FEFFFF" transform="matrix(1.00, 0.00, -0.00, -1.00, 143.1, 6.3)">e</text><text xml:space="preserve" font-family="GillSans,Gill Sans" font-size="23.0" fill="#FEFFFF" transform="matrix(1.00, 0.00, -0.00, -1.00, 154.2, 6.3)">s</text><text xml:space="preserve" font-family="GillSans,Gill Sans" font-size="23.0" fill="#FEFFFF" transform="matrix(1.00, 0.00, -0.00, -1.00, 163.0, 6.3)">e</text><text xml:space="preserve" font-family="GillSans,Gill Sans" font-size="23.0" fill="#FEFFFF" transform="matrix(1.00, 0.00, -0.00, -1.00, 174.0, 6.3)"> </text><text xml:space="preserve" font-family="GillSans,Gill Sans" font-size="23.0" fill="#FEFFFF" transform="matrix(1.00, 0.00, -0.00, -1.00, 180.4, 6.3)">g</text><text xml:space="preserve" font-family="GillSans,Gill Sans" font-size="23.0" fill="#FEFFFF" transform="matrix(1.00, 0.00, -0.00, -1.00, 190.2, 6.3)">r</text><text xml:space="preserve" font-family="GillSans,Gill Sans" font-size="23.0" fill="#FEFFFF" transform="matrix(1.00, 0.00, -0.00, -1.00, 199.3, 6.3)">a</text><text xml:space="preserve" font-family="GillSans,Gill Sans" font-size="23.0" fill="#FEFFFF" transform="matrix(1.00, 0.00, -0.00, -1.00, 208.9, 6.3)">p</text><text xml:space="preserve" font-family="GillSans,Gill Sans" font-size="23.0" fill="#FEFFFF" transform="matrix(1.00, 0.00, -0.00, -1.00, 220.4, 6.3)">h</text><text xml:space="preserve" font-family="GillSans,Gill Sans" font-size="23.0" fill="#FEFFFF" transform="matrix(1.00, 0.00, -0.00, -1.00, 231.9, 6.3)">s</text><text xml:space="preserve" font-family="GillSans,Gill Sans" font-size="23.0" fill="#FEFFFF" transform="matrix(1.00, 0.00, -0.00, -1.00, 240.8, 6.3)"> </text><text xml:space="preserve" font-family="GillSans,Gill Sans" font-size="23.0" fill="#FEFFFF" transform="matrix(1.00, 0.00, -0.00, -1.00, 247.1, 6.3)">I</text><text xml:space="preserve" font-family="GillSans,Gill Sans" font-size="23.0" fill="#FEFFFF" transform="matrix(1.00, 0.00, -0.00, -1.00, 252.9, 6.3)"> </text><text xml:space="preserve" font-family="GillSans,Gill Sans" font-size="23.0" fill="#FEFFFF" transform="matrix(1.00, 0.00, -0.00, -1.00, 259.3, 6.3)">u</text><text xml:space="preserve" font-family="GillSans,Gill Sans" font-size="23.0" fill="#FEFFFF" transform="matrix(1.00, 0.00, -0.00, -1.00, 270.8, 6.3)">s</text><text xml:space="preserve" font-family="GillSans,Gill Sans" font-size="23.0" fill="#FEFFFF" transform="matrix(1.00, 0.00, -0.00, -1.00, 279.6, 6.3)">e</text><text xml:space="preserve" font-family="GillSans,Gill Sans" font-size="23.0" fill="#FEFFFF" transform="matrix(1.00, 0.00, -0.00, -1.00, 290.6, 6.3)"> </text><text xml:space="preserve" font-family="GillSans,Gill Sans" font-size="23.0" fill="#FEFFFF" transform="matrix(1.00, 0.00, -0.00, -1.00, 297.0, 6.3)">b</text><text xml:space="preserve" font-family="GillSans,Gill Sans" font-size="23.0" fill="#FEFFFF" transform="matrix(1.00, 0.00, -0.00, -1.00, 308.5, 6.3)">l</text><text xml:space="preserve" font-family="GillSans,Gill Sans" font-size="23.0" fill="#FEFFFF" transform="matrix(1.00, 0.00, -0.00, -1.00, 313.6, 6.3)">u</text><text xml:space="preserve" font-family="GillSans,Gill Sans" font-size="23.0" fill="#FEFFFF" transform="matrix(1.00, 0.00, -0.00, -1.00, 325.1, 6.3)">e</text><text xml:space="preserve" font-family="GillSans,Gill Sans" font-size="23.0" fill="#FEFFFF" transform="matrix(1.00, 0.00, -0.00, -1.00, 336.1, 6.3)"> </text><text xml:space="preserve" font-family="GillSans,Gill Sans" font-size="23.0" fill="#FEFFFF" transform="matrix(1.00, 0.00, -0.00, -1.00, 342.5, 6.3)">s</text><text xml:space="preserve" font-family="GillSans,Gill Sans" font-size="23.0" fill="#FEFFFF" transform="matrix(1.00, 0.00, -0.00, -1.00, 351.3, 6.3)">h</text><text xml:space="preserve" font-family="GillSans,Gill Sans" font-size="23.0" fill="#FEFFFF" transform="matrix(1.00, 0.00, -0.00, -1.00, 362.8, 6.3)">a</text><text xml:space="preserve" font-family="GillSans,Gill Sans" font-size="23.0" fill="#FEFFFF" transform="matrix(1.00, 0.00, -0.00, -1.00, 372.6, 6.3)">d</text><text xml:space="preserve" font-family="GillSans,Gill Sans" font-size="23.0" fill="#FEFFFF" transform="matrix(1.00, 0.00, -0.00, -1.00, 384.3, 6.3)">e</text><text xml:space="preserve" font-family="GillSans,Gill Sans" font-size="23.0" fill="#FEFFFF" transform="matrix(1.00, 0.00, -0.00, -1.00, 395.4, 6.3)">s</text><text xml:space="preserve" font-family="GillSans,Gill Sans" font-size="23.0" fill="#FEFFFF" transform="matrix(1.00, 0.00, -0.00, -1.00, 404.2, 6.3)"> </text><text xml:space="preserve" font-family="GillSans,Gill Sans" font-size="23.0" fill="#FEFFFF" transform="matrix(1.00, 0.00, -0.00, -1.00, 410.6, 6.3)">f</text><text xml:space="preserve" font-family="GillSans,Gill Sans" font-size="23.0" fill="#FEFFFF" transform="matrix(1.00, 0.00, -0.00, -1.00, 416.1, 6.3)">o</text><text xml:space="preserve" font-family="GillSans,Gill Sans" font-size="23.0" fill="#FEFFFF" transform="matrix(1.00, 0.00, -0.00, -1.00, 428.8, 6.3)">r</text></g></svg>