<?xml version="1.0" encoding="UTF-8" standalone="no"?><svg xmlns="http://www.w3.org/2000/svg" xmlns:xlink="http://www.w3.org/1999/xlink" clip-rule="evenodd" stroke-miterlimit="10" viewBox="0 0 450 451"><desc>SVG generated by Keynote</desc><defs></defs><g transform="matrix(1.00, 0.00, -0.00, -1.00, 0.0, 451.0)"><g><clipPath id="clip0x6100094abd60"><path d="M 0.6 0.9 L 449.9 0.9 L 449.9 450.1 L 0.6 450.1 Z M 0.6 0.9 "></path></clipPath><g clip-path="url(#clip0x6100094abd60)"><image xlink:href="../../FC0F6EB4-4C0F-4DF2-8146-945CA2826174/assets/0FA021FC8B2E338DD54119A2DECBF17D.png" width="512.00" height="512.00" transform="matrix(0.88, 0.00, -0.00, -0.88, 0.6, 450.1)"></image></g></g><g><clipPath id="clip0x6000074b0ce0"><path d="M 254.0 347.0 L 450.0 347.0 L 450.0 1.0 L 254.0 1.0 Z M 253.8 347.3 "></path></clipPath><g clip-path="url(#clip0x6000074b0ce0)"><g><clipPath id="clip0x6000074b2a20"><path d="M 253.8 0.9 L 449.9 0.9 L 449.9 347.3 L 253.8 347.3 Z M 253.8 0.9 "></path></clipPath><g clip-path="url(#clip0x6000074b2a20)"><image xlink:href="../../FC0F6EB4-4C0F-4DF2-8146-945CA2826174/assets/511BCFA7469CDFF6B454B998F2D25250.png" width="512.00" height="512.00" transform="matrix(0.88, 0.00, -0.00, -0.88, 0.6, 450.1)"></image></g></g></g></g><g><clipPath id="clip0x6080068b79a0"><path d="M 253.0 341.0 L 450.0 341.0 L 450.0 1.0 L 253.0 1.0 Z M 253.3 340.6 "></path></clipPath><g clip-path="url(#clip0x6080068b79a0)"><g><clipPath id="clip0x6080068b7b20"><path d="M 253.3 0.9 L 449.9 0.9 L 449.9 340.6 L 253.3 340.6 Z M 253.3 0.9 "></path></clipPath><g clip-path="url(#clip0x6080068b7b20)"><image xlink:href="../../FC0F6EB4-4C0F-4DF2-8146-945CA2826174/assets/AA4C58DB98F933DE052A5CD965C86D82.png" width="512.00" height="512.00" transform="matrix(0.88, 0.00, -0.00, -0.88, 0.6, 450.1)" opacity="0.49"></image></g></g></g></g><g><clipPath id="clip0x618007cab1c0"><path d="M 259.0 341.0 L 450.0 341.0 L 450.0 1.0 L 259.0 1.0 Z M 259.0 340.6 "></path></clipPath><g clip-path="url(#clip0x618007cab1c0)"><g><clipPath id="clip0x618007cab340"><path d="M 259.0 0.9 L 449.9 0.9 L 449.9 340.6 L 259.0 340.6 Z M 259.0 0.9 "></path></clipPath><g clip-path="url(#clip0x618007cab340)"><image xlink:href="../../FC0F6EB4-4C0F-4DF2-8146-945CA2826174/assets/07C0AE3B601B412842C8CDB6A22A1522.png" width="512.00" height="512.00" transform="matrix(0.88, 0.00, -0.00, -0.88, 0.6, 450.1)" opacity="0.49"></image></g></g></g></g><g><clipPath id="clip0x6000074b2cc0"><path d="M 254.0 348.0 L 450.0 348.0 L 450.0 1.0 L 254.0 1.0 Z M 253.8 347.8 "></path></clipPath><g clip-path="url(#clip0x6000074b2cc0)"><g><clipPath id="clip0x6000074b3020"><path d="M 253.8 0.9 L 449.9 0.9 L 449.9 347.8 L 253.8 347.8 Z M 253.8 0.9 "></path></clipPath><g clip-path="url(#clip0x6000074b3020)"><image xlink:href="../../FC0F6EB4-4C0F-4DF2-8146-945CA2826174/assets/C8291ADBB1801D5E4C2481D4E6B91F3A.png" width="512.00" height="512.00" transform="matrix(0.88, 0.00, -0.00, -0.88, 0.6, 450.1)" opacity="0.49"></image></g></g></g></g><g><clipPath id="clip0x6080068b7d00"><path d="M 273.0 347.0 L 450.0 347.0 L 450.0 1.0 L 273.0 1.0 Z M 273.4 347.3 "></path></clipPath><g clip-path="url(#clip0x6080068b7d00)"><g><clipPath id="clip0x6080068b7ee0"><path d="M 273.4 0.9 L 449.9 0.9 L 449.9 347.3 L 273.4 347.3 Z M 273.4 0.9 "></path></clipPath><g clip-path="url(#clip0x6080068b7ee0)"><image xlink:href="../../FC0F6EB4-4C0F-4DF2-8146-945CA2826174/assets/48D38FF991A9F905CF7616461B9BF78A.png" width="512.00" height="512.00" transform="matrix(0.88, 0.00, -0.00, -0.88, 0.6, 450.1)" opacity="0.49"></image></g></g></g></g></g></svg>