<?xml version="1.0" encoding="UTF-8" standalone="no"?><svg xmlns="http://www.w3.org/2000/svg" xmlns:xlink="http://www.w3.org/1999/xlink" clip-rule="evenodd" stroke-miterlimit="10" viewBox="0 0 220 446"><desc>SVG generated by Keynote</desc><defs></defs><g transform="matrix(1.00, 0.00, -0.00, -1.00, 0.0, 446.0)"><path d="M 2.6 128.6 C 9.9 162.7 48.7 186.2 43.9 222.1 C 41.1 242.4 24.1 256.7 14.9 274.8 C 4.4 295.4 4.6 319.2 3.4 342.2 C 2.5 358.4 1.0 374.9 0.2 390.6 C -0.3 400.9 -0.3 411.2 4.6 420.5 C 21.3 452.2 66.7 443.7 101.5 418.6 C 139.3 391.2 173.0 357.6 193.5 315.6 C 214.9 271.7 220.2 222.0 211.6 173.9 C 203.1 126.2 181.1 81.8 148.3 46.2 C 120.7 16.2 83.7 -6.9 44.6 1.9 C 30.5 5.0 17.9 12.4 10.6 24.3 C 5.0 33.5 3.3 44.7 2.7 55.8 C 2.0 68.0 2.6 80.4 2.1 92.5 C 1.6 104.5 0.0 116.6 2.6 128.6 Z M 2.6 128.6 " fill="none" stroke="#FFCD56" stroke-width="2.00" stroke-dasharray="4.0, 4.0" transform="matrix(1.00, 0.00, 0.00, -1.00, 2.1, 443.6)"></path></g></svg>