<?xml version="1.0" encoding="UTF-8" standalone="no"?><svg xmlns="http://www.w3.org/2000/svg" xmlns:xlink="http://www.w3.org/1999/xlink" clip-rule="evenodd" stroke-miterlimit="10" viewBox="0 0 488 513"><desc>SVG generated by Keynote</desc><defs></defs><g transform="matrix(1.00, 0.00, -0.00, -1.00, 0.0, 513.0)"><text xml:space="preserve" font-family="GillSans-Light,Gill Sans" font-size="34.0" fill="#FEFFFE" transform="matrix(1.00, 0.00, -0.00, -1.00, 1.0, 481.9)">•</text><text xml:space="preserve" font-family="GillSans-Light,Gill Sans" font-size="41.5" fill="#FEFFFE" transform="matrix(1.00, 0.00, -0.00, -1.00, 38.1, 479.6)">N</text><text xml:space="preserve" font-family="GillSans-Light,Gill Sans" font-size="41.5" fill="#FEFFFE" transform="matrix(1.00, 0.00, -0.00, -1.00, 70.1, 479.6)">o</text><text xml:space="preserve" font-family="GillSans-Light,Gill Sans" font-size="41.5" fill="#FEFFFE" transform="matrix(1.00, 0.00, -0.00, -1.00, 92.6, 479.6)"> </text><text xml:space="preserve" font-family="GillSans-Light,Gill Sans" font-size="41.5" fill="#FEFFFE" transform="matrix(1.00, 0.00, -0.00, -1.00, 104.1, 479.6)">p</text><text xml:space="preserve" font-family="GillSans-Light,Gill Sans" font-size="41.5" fill="#FEFFFE" transform="matrix(1.00, 0.00, -0.00, -1.00, 125.3, 479.6)">o</text><text xml:space="preserve" font-family="GillSans-Light,Gill Sans" font-size="41.5" fill="#FEFFFE" transform="matrix(1.00, 0.00, -0.00, -1.00, 147.8, 479.6)">o</text><text xml:space="preserve" font-family="GillSans-Light,Gill Sans" font-size="41.5" fill="#FEFFFE" transform="matrix(1.00, 0.00, -0.00, -1.00, 170.3, 479.6)">l</text><text xml:space="preserve" font-family="GillSans-Light,Gill Sans" font-size="41.5" fill="#FEFFFE" transform="matrix(1.00, 0.00, -0.00, -1.00, 178.1, 479.6)">i</text><text xml:space="preserve" font-family="GillSans-Light,Gill Sans" font-size="41.5" fill="#FEFFFE" transform="matrix(1.00, 0.00, -0.00, -1.00, 185.9, 479.6)">n</text><text xml:space="preserve" font-family="GillSans-Light,Gill Sans" font-size="41.5" fill="#FEFFFE" transform="matrix(1.00, 0.00, -0.00, -1.00, 206.2, 479.6)">g</text><text xml:space="preserve" font-family="GillSans-Light,Gill Sans" font-size="41.5" fill="#FEFFFE" transform="matrix(1.00, 0.00, -0.00, -1.00, 223.9, 479.6)"> </text><text xml:space="preserve" font-family="GillSans-Light,Gill Sans" font-size="41.5" fill="#FEFFFE" transform="matrix(1.00, 0.00, -0.00, -1.00, 235.5, 479.6)">f</text><text xml:space="preserve" font-family="GillSans-Light,Gill Sans" font-size="41.5" fill="#FEFFFE" transform="matrix(1.00, 0.00, -0.00, -1.00, 245.0, 479.6)">o</text><text xml:space="preserve" font-family="GillSans-Light,Gill Sans" font-size="41.5" fill="#FEFFFE" transform="matrix(1.00, 0.00, -0.00, -1.00, 267.5, 479.6)">r</text><text xml:space="preserve" font-family="GillSans-Light,Gill Sans" font-size="41.5" fill="#FEFFFE" transform="matrix(1.00, 0.00, -0.00, -1.00, 281.3, 479.6)"> </text><text xml:space="preserve" font-family="GillSans-Light,Gill Sans" font-size="41.5" fill="#FEFFFE" transform="matrix(1.00, 0.00, -0.00, -1.00, 292.9, 479.6)">p</text><text xml:space="preserve" font-family="GillSans-Light,Gill Sans" font-size="41.5" fill="#FEFFFE" transform="matrix(1.00, 0.00, -0.00, -1.00, 314.0, 479.6)">o</text><text xml:space="preserve" font-family="GillSans-Light,Gill Sans" font-size="41.5" fill="#FEFFFE" transform="matrix(1.00, 0.00, -0.00, -1.00, 336.5, 479.6)">s</text><text xml:space="preserve" font-family="GillSans-Light,Gill Sans" font-size="41.5" fill="#FEFFFE" transform="matrix(1.00, 0.00, -0.00, -1.00, 351.2, 479.6)">i</text><text xml:space="preserve" font-family="GillSans-Light,Gill Sans" font-size="41.5" fill="#FEFFFE" transform="matrix(1.00, 0.00, -0.00, -1.00, 359.0, 479.6)">t</text><text xml:space="preserve" font-family="GillSans-Light,Gill Sans" font-size="41.5" fill="#FEFFFE" transform="matrix(1.00, 0.00, -0.00, -1.00, 371.5, 479.6)">i</text><text xml:space="preserve" font-family="GillSans-Light,Gill Sans" font-size="41.5" fill="#FEFFFE" transform="matrix(1.00, 0.00, -0.00, -1.00, 379.3, 479.6)">o</text><text xml:space="preserve" font-family="GillSans-Light,Gill Sans" font-size="41.5" fill="#FEFFFE" transform="matrix(1.00, 0.00, -0.00, -1.00, 401.8, 479.6)">n</text><text xml:space="preserve" font-family="GillSans-Light,Gill Sans" font-size="41.5" fill="#FEFFFE" transform="matrix(1.00, 0.00, -0.00, -1.00, 422.2, 479.6)">-</text><text xml:space="preserve" font-family="GillSans-Light,Gill Sans" font-size="41.5" fill="#FEFFFE" transform="matrix(1.00, 0.00, -0.00, -1.00, 38.1, 432.6)">d</text><text xml:space="preserve" font-family="GillSans-Light,Gill Sans" font-size="41.5" fill="#FEFFFE" transform="matrix(1.00, 0.00, -0.00, -1.00, 59.3, 432.6)">e</text><text xml:space="preserve" font-family="GillSans-Light,Gill Sans" font-size="41.5" fill="#FEFFFE" transform="matrix(1.00, 0.00, -0.00, -1.00, 79.2, 432.6)">ﬁ</text><text xml:space="preserve" font-family="GillSans-Light,Gill Sans" font-size="41.5" fill="#FEFFFE" transform="matrix(1.00, 0.00, -0.00, -1.00, 99.0, 432.6)">n</text><text xml:space="preserve" font-family="GillSans-Light,Gill Sans" font-size="41.5" fill="#FEFFFE" transform="matrix(1.00, 0.00, -0.00, -1.00, 119.4, 432.6)">e</text><text xml:space="preserve" font-family="GillSans-Light,Gill Sans" font-size="41.5" fill="#FEFFFE" transform="matrix(1.00, 0.00, -0.00, -1.00, 139.3, 432.6)">d</text><text xml:space="preserve" font-family="GillSans-Light,Gill Sans" font-size="41.5" fill="#FEFFFE" transform="matrix(1.00, 0.00, -0.00, -1.00, 160.4, 432.6)"> </text><text xml:space="preserve" font-family="GillSans-Light,Gill Sans" font-size="41.5" fill="#FEFFFE" transform="matrix(1.00, 0.00, -0.00, -1.00, 171.9, 432.6)">m</text><text xml:space="preserve" font-family="GillSans-Light,Gill Sans" font-size="41.5" fill="#FEFFFE" transform="matrix(1.00, 0.00, -0.00, -1.00, 203.9, 432.6)">o</text><text xml:space="preserve" font-family="GillSans-Light,Gill Sans" font-size="41.5" fill="#FEFFFE" transform="matrix(1.00, 0.00, -0.00, -1.00, 226.4, 432.6)">t</text><text xml:space="preserve" font-family="GillSans-Light,Gill Sans" font-size="41.5" fill="#FEFFFE" transform="matrix(1.00, 0.00, -0.00, -1.00, 238.9, 432.6)">i</text><text xml:space="preserve" font-family="GillSans-Light,Gill Sans" font-size="41.5" fill="#FEFFFE" transform="matrix(1.00, 0.00, -0.00, -1.00, 246.7, 432.6)">o</text><text xml:space="preserve" font-family="GillSans-Light,Gill Sans" font-size="41.5" fill="#FEFFFE" transform="matrix(1.00, 0.00, -0.00, -1.00, 269.2, 432.6)">n</text><text xml:space="preserve" font-family="GillSans-Light,Gill Sans" font-size="41.5" fill="#FEFFFE" transform="matrix(1.00, 0.00, -0.00, -1.00, 289.6, 432.6)">	</text><text xml:space="preserve" font-family="GillSans-Light,Gill Sans" font-size="41.5" fill="#FEFFFE" transform="matrix(1.00, 0.00, -0.00, -1.00, 317.6, 432.6)">
</text><text xml:space="preserve" font-family="GillSans-Light,Gill Sans" font-size="41.5" fill="#FEFFFE" transform="matrix(1.00, 0.00, -0.00, -1.00, 317.6, 432.6)"></text><text xml:space="preserve" font-family="GillSans-Light,Gill Sans" font-size="29.9" fill="#FEFFFE" transform="matrix(1.00, 0.00, -0.00, -1.00, 1.0, 363.7)">•</text><text xml:space="preserve" font-family="GillSans-Light,Gill Sans" font-size="36.5" fill="#FEFFFE" transform="matrix(1.00, 0.00, -0.00, -1.00, 34.3, 361.2)">N</text><text xml:space="preserve" font-family="GillSans-Light,Gill Sans" font-size="36.5" fill="#FEFFFE" transform="matrix(1.00, 0.00, -0.00, -1.00, 62.4, 361.2)">o</text><text xml:space="preserve" font-family="GillSans-Light,Gill Sans" font-size="36.5" fill="#FEFFFE" transform="matrix(1.00, 0.00, -0.00, -1.00, 82.2, 361.2)"> </text><text xml:space="preserve" font-family="GillSans-Light,Gill Sans" font-size="36.5" fill="#FEFFFE" transform="matrix(1.00, 0.00, -0.00, -1.00, 92.4, 361.2)">i</text><text xml:space="preserve" font-family="GillSans-Light,Gill Sans" font-size="36.5" fill="#FEFFFE" transform="matrix(1.00, 0.00, -0.00, -1.00, 99.2, 361.2)">n</text><text xml:space="preserve" font-family="GillSans-Light,Gill Sans" font-size="36.5" fill="#FEFFFE" transform="matrix(1.00, 0.00, -0.00, -1.00, 117.2, 361.2)">t</text><text xml:space="preserve" font-family="GillSans-Light,Gill Sans" font-size="36.5" fill="#FEFFFE" transform="matrix(1.00, 0.00, -0.00, -1.00, 128.2, 361.2)">e</text><text xml:space="preserve" font-family="GillSans-Light,Gill Sans" font-size="36.5" fill="#FEFFFE" transform="matrix(1.00, 0.00, -0.00, -1.00, 145.7, 361.2)">r</text><text xml:space="preserve" font-family="GillSans-Light,Gill Sans" font-size="36.5" fill="#FEFFFE" transform="matrix(1.00, 0.00, -0.00, -1.00, 158.7, 361.2)">a</text><text xml:space="preserve" font-family="GillSans-Light,Gill Sans" font-size="36.5" fill="#FEFFFE" transform="matrix(1.00, 0.00, -0.00, -1.00, 174.3, 361.2)">c</text><text xml:space="preserve" font-family="GillSans-Light,Gill Sans" font-size="36.5" fill="#FEFFFE" transform="matrix(1.00, 0.00, -0.00, -1.00, 189.5, 361.2)">t</text><text xml:space="preserve" font-family="GillSans-Light,Gill Sans" font-size="36.5" fill="#FEFFFE" transform="matrix(1.00, 0.00, -0.00, -1.00, 200.6, 361.2)">i</text><text xml:space="preserve" font-family="GillSans-Light,Gill Sans" font-size="36.5" fill="#FEFFFE" transform="matrix(1.00, 0.00, -0.00, -1.00, 207.4, 361.2)">o</text><text xml:space="preserve" font-family="GillSans-Light,Gill Sans" font-size="36.5" fill="#FEFFFE" transform="matrix(1.00, 0.00, -0.00, -1.00, 227.2, 361.2)">n</text><text xml:space="preserve" font-family="GillSans-Light,Gill Sans" font-size="36.5" fill="#FEFFFE" transform="matrix(1.00, 0.00, -0.00, -1.00, 245.1, 361.2)"> </text><text xml:space="preserve" font-family="GillSans-Light,Gill Sans" font-size="36.5" fill="#FEFFFE" transform="matrix(1.00, 0.00, -0.00, -1.00, 255.3, 361.2)">o</text><text xml:space="preserve" font-family="GillSans-Light,Gill Sans" font-size="36.5" fill="#FEFFFE" transform="matrix(1.00, 0.00, -0.00, -1.00, 275.1, 361.2)">f</text><text xml:space="preserve" font-family="GillSans-Light,Gill Sans" font-size="36.5" fill="#FEFFFE" transform="matrix(1.00, 0.00, -0.00, -1.00, 283.8, 361.2)"> </text><text xml:space="preserve" font-family="GillSans-Light,Gill Sans" font-size="36.5" fill="#FEFFFE" transform="matrix(1.00, 0.00, -0.00, -1.00, 294.0, 361.2)">e</text><text xml:space="preserve" font-family="GillSans-Light,Gill Sans" font-size="36.5" fill="#FEFFFE" transform="matrix(1.00, 0.00, -0.00, -1.00, 311.5, 361.2)">f</text><text xml:space="preserve" font-family="GillSans-Light,Gill Sans" font-size="36.5" fill="#FEFFFE" transform="matrix(1.00, 0.00, -0.00, -1.00, 320.2, 361.2)">f</text><text xml:space="preserve" font-family="GillSans-Light,Gill Sans" font-size="36.5" fill="#FEFFFE" transform="matrix(1.00, 0.00, -0.00, -1.00, 328.5, 361.2)">e</text><text xml:space="preserve" font-family="GillSans-Light,Gill Sans" font-size="36.5" fill="#FEFFFE" transform="matrix(1.00, 0.00, -0.00, -1.00, 346.0, 361.2)">c</text><text xml:space="preserve" font-family="GillSans-Light,Gill Sans" font-size="36.5" fill="#FEFFFE" transform="matrix(1.00, 0.00, -0.00, -1.00, 361.2, 361.2)">t</text><text xml:space="preserve" font-family="GillSans-Light,Gill Sans" font-size="36.5" fill="#FEFFFE" transform="matrix(1.00, 0.00, -0.00, -1.00, 372.2, 361.2)">s</text><text xml:space="preserve" font-family="GillSans-Light,Gill Sans" font-size="36.5" fill="#FEFFFE" transform="matrix(1.00, 0.00, -0.00, -1.00, 385.1, 361.2)">:</text><text xml:space="preserve" font-family="GillSans-Light,Gill Sans" font-size="49.8" fill="#FEFFFE" transform="matrix(1.00, 0.00, -0.00, -1.00, 391.6, 361.2)">	</text><text xml:space="preserve" font-family="GillSans-Light,Gill Sans" font-size="49.8" fill="#FEFFFE" transform="matrix(1.00, 0.00, -0.00, -1.00, 419.6, 361.2)">
</text><text xml:space="preserve" font-family="GillSans-Light,Gill Sans" font-size="49.8" fill="#FEFFFE" transform="matrix(1.00, 0.00, -0.00, -1.00, 419.6, 361.2)"></text><text xml:space="preserve" font-family="GillSans-Light,Gill Sans" font-size="29.9" fill="#FEFFFE" transform="matrix(1.00, 0.00, -0.00, -1.00, 31.8, 285.1)">•</text><text xml:space="preserve" font-family="GillSans-Light,Gill Sans" font-size="36.5" fill="#FEFFFE" transform="matrix(1.00, 0.00, -0.00, -1.00, 65.8, 282.6)">S</text><text xml:space="preserve" font-family="GillSans-Light,Gill Sans" font-size="36.5" fill="#FEFFFE" transform="matrix(1.00, 0.00, -0.00, -1.00, 82.9, 282.6)">e</text><text xml:space="preserve" font-family="GillSans-Light,Gill Sans" font-size="36.5" fill="#FEFFFE" transform="matrix(1.00, 0.00, -0.00, -1.00, 100.4, 282.6)">n</text><text xml:space="preserve" font-family="GillSans-Light,Gill Sans" font-size="36.5" fill="#FEFFFE" transform="matrix(1.00, 0.00, -0.00, -1.00, 118.3, 282.6)">s</text><text xml:space="preserve" font-family="GillSans-Light,Gill Sans" font-size="36.5" fill="#FEFFFE" transform="matrix(1.00, 0.00, -0.00, -1.00, 131.3, 282.6)">i</text><text xml:space="preserve" font-family="GillSans-Light,Gill Sans" font-size="36.5" fill="#FEFFFE" transform="matrix(1.00, 0.00, -0.00, -1.00, 138.1, 282.6)">t</text><text xml:space="preserve" font-family="GillSans-Light,Gill Sans" font-size="36.5" fill="#FEFFFE" transform="matrix(1.00, 0.00, -0.00, -1.00, 149.1, 282.6)">i</text><text xml:space="preserve" font-family="GillSans-Light,Gill Sans" font-size="36.5" fill="#FEFFFE" transform="matrix(1.00, 0.00, -0.00, -1.00, 156.0, 282.6)">v</text><text xml:space="preserve" font-family="GillSans-Light,Gill Sans" font-size="36.5" fill="#FEFFFE" transform="matrix(1.00, 0.00, -0.00, -1.00, 171.6, 282.6)">i</text><text xml:space="preserve" font-family="GillSans-Light,Gill Sans" font-size="36.5" fill="#FEFFFE" transform="matrix(1.00, 0.00, -0.00, -1.00, 178.4, 282.6)">t</text><text xml:space="preserve" font-family="GillSans-Light,Gill Sans" font-size="36.5" fill="#FEFFFE" transform="matrix(1.00, 0.00, -0.00, -1.00, 189.5, 282.6)">y</text><text xml:space="preserve" font-family="GillSans-Light,Gill Sans" font-size="36.5" fill="#FEFFFE" transform="matrix(1.00, 0.00, -0.00, -1.00, 204.7, 282.6)"> </text><text xml:space="preserve" font-family="GillSans-Light,Gill Sans" font-size="36.5" fill="#FEFFFE" transform="matrix(1.00, 0.00, -0.00, -1.00, 214.8, 282.6)">t</text><text xml:space="preserve" font-family="GillSans-Light,Gill Sans" font-size="36.5" fill="#FEFFFE" transform="matrix(1.00, 0.00, -0.00, -1.00, 225.8, 282.6)">o</text><text xml:space="preserve" font-family="GillSans-Light,Gill Sans" font-size="36.5" fill="#FEFFFE" transform="matrix(1.00, 0.00, -0.00, -1.00, 245.6, 282.6)"> </text><text xml:space="preserve" font-family="GillSans-Light,Gill Sans" font-size="36.5" fill="#FEFFFE" transform="matrix(1.00, 0.00, -0.00, -1.00, 255.8, 282.6)">f</text><text xml:space="preserve" font-family="GillSans-Light,Gill Sans" font-size="36.5" fill="#FEFFFE" transform="matrix(1.00, 0.00, -0.00, -1.00, 263.8, 282.6)">i</text><text xml:space="preserve" font-family="GillSans-Light,Gill Sans" font-size="36.5" fill="#FEFFFE" transform="matrix(1.00, 0.00, -0.00, -1.00, 270.7, 282.6)">r</text><text xml:space="preserve" font-family="GillSans-Light,Gill Sans" font-size="36.5" fill="#FEFFFE" transform="matrix(1.00, 0.00, -0.00, -1.00, 284.3, 282.6)">s</text><text xml:space="preserve" font-family="GillSans-Light,Gill Sans" font-size="36.5" fill="#FEFFFE" transform="matrix(1.00, 0.00, -0.00, -1.00, 297.2, 282.6)">t</text><text xml:space="preserve" font-family="GillSans-Light,Gill Sans" font-size="36.5" fill="#FEFFFE" transform="matrix(1.00, 0.00, -0.00, -1.00, 308.2, 282.6)">-</text><text xml:space="preserve" font-family="GillSans-Light,Gill Sans" font-size="36.5" fill="#FEFFFE" transform="matrix(1.00, 0.00, -0.00, -1.00, 319.7, 282.6)">o</text><text xml:space="preserve" font-family="GillSans-Light,Gill Sans" font-size="36.5" fill="#FEFFFE" transform="matrix(1.00, 0.00, -0.00, -1.00, 339.5, 282.6)">r</text><text xml:space="preserve" font-family="GillSans-Light,Gill Sans" font-size="36.5" fill="#FEFFFE" transform="matrix(1.00, 0.00, -0.00, -1.00, 351.6, 282.6)">d</text><text xml:space="preserve" font-family="GillSans-Light,Gill Sans" font-size="36.5" fill="#FEFFFE" transform="matrix(1.00, 0.00, -0.00, -1.00, 370.2, 282.6)">e</text><text xml:space="preserve" font-family="GillSans-Light,Gill Sans" font-size="36.5" fill="#FEFFFE" transform="matrix(1.00, 0.00, -0.00, -1.00, 387.7, 282.6)">r</text><text xml:space="preserve" font-family="GillSans-Light,Gill Sans" font-size="36.5" fill="#FEFFFE" transform="matrix(1.00, 0.00, -0.00, -1.00, 399.9, 282.6)"> </text><text xml:space="preserve" font-family="GillSans-Light,Gill Sans" font-size="36.5" fill="#FEFFFE" transform="matrix(1.00, 0.00, -0.00, -1.00, 65.8, 232.2)">m</text><text xml:space="preserve" font-family="GillSans-Light,Gill Sans" font-size="36.5" fill="#FEFFFE" transform="matrix(1.00, 0.00, -0.00, -1.00, 93.9, 232.2)">o</text><text xml:space="preserve" font-family="GillSans-Light,Gill Sans" font-size="36.5" fill="#FEFFFE" transform="matrix(1.00, 0.00, -0.00, -1.00, 113.7, 232.2)">t</text><text xml:space="preserve" font-family="GillSans-Light,Gill Sans" font-size="36.5" fill="#FEFFFE" transform="matrix(1.00, 0.00, -0.00, -1.00, 124.7, 232.2)">i</text><text xml:space="preserve" font-family="GillSans-Light,Gill Sans" font-size="36.5" fill="#FEFFFE" transform="matrix(1.00, 0.00, -0.00, -1.00, 131.6, 232.2)">o</text><text xml:space="preserve" font-family="GillSans-Light,Gill Sans" font-size="36.5" fill="#FEFFFE" transform="matrix(1.00, 0.00, -0.00, -1.00, 151.4, 232.2)">n</text><text xml:space="preserve" font-family="GillSans-Light,Gill Sans" font-size="36.5" fill="#FEFFFE" transform="matrix(1.00, 0.00, -0.00, -1.00, 169.3, 232.2)"> </text><text xml:space="preserve" font-family="GillSans-Light,Gill Sans" font-size="36.5" fill="#FEFFFE" transform="matrix(1.00, 0.00, -0.00, -1.00, 179.5, 232.2)">i</text><text xml:space="preserve" font-family="GillSans-Light,Gill Sans" font-size="36.5" fill="#FEFFFE" transform="matrix(1.00, 0.00, -0.00, -1.00, 186.3, 232.2)">n</text><text xml:space="preserve" font-family="GillSans-Light,Gill Sans" font-size="36.5" fill="#FEFFFE" transform="matrix(1.00, 0.00, -0.00, -1.00, 204.2, 232.2)">d</text><text xml:space="preserve" font-family="GillSans-Light,Gill Sans" font-size="36.5" fill="#FEFFFE" transform="matrix(1.00, 0.00, -0.00, -1.00, 222.8, 232.2)">e</text><text xml:space="preserve" font-family="GillSans-Light,Gill Sans" font-size="36.5" fill="#FEFFFE" transform="matrix(1.00, 0.00, -0.00, -1.00, 240.3, 232.2)">p</text><text xml:space="preserve" font-family="GillSans-Light,Gill Sans" font-size="36.5" fill="#FEFFFE" transform="matrix(1.00, 0.00, -0.00, -1.00, 258.9, 232.2)">e</text><text xml:space="preserve" font-family="GillSans-Light,Gill Sans" font-size="36.5" fill="#FEFFFE" transform="matrix(1.00, 0.00, -0.00, -1.00, 276.4, 232.2)">n</text><text xml:space="preserve" font-family="GillSans-Light,Gill Sans" font-size="36.5" fill="#FEFFFE" transform="matrix(1.00, 0.00, -0.00, -1.00, 294.3, 232.2)">d</text><text xml:space="preserve" font-family="GillSans-Light,Gill Sans" font-size="36.5" fill="#FEFFFE" transform="matrix(1.00, 0.00, -0.00, -1.00, 313.0, 232.2)">e</text><text xml:space="preserve" font-family="GillSans-Light,Gill Sans" font-size="36.5" fill="#FEFFFE" transform="matrix(1.00, 0.00, -0.00, -1.00, 330.4, 232.2)">n</text><text xml:space="preserve" font-family="GillSans-Light,Gill Sans" font-size="36.5" fill="#FEFFFE" transform="matrix(1.00, 0.00, -0.00, -1.00, 348.4, 232.2)">t</text><text xml:space="preserve" font-family="GillSans-Light,Gill Sans" font-size="36.5" fill="#FEFFFE" transform="matrix(1.00, 0.00, -0.00, -1.00, 359.4, 232.2)"> </text><text xml:space="preserve" font-family="GillSans-Light,Gill Sans" font-size="36.5" fill="#FEFFFE" transform="matrix(1.00, 0.00, -0.00, -1.00, 369.5, 232.2)">o</text><text xml:space="preserve" font-family="GillSans-Light,Gill Sans" font-size="36.5" fill="#FEFFFE" transform="matrix(1.00, 0.00, -0.00, -1.00, 389.3, 232.2)">f</text><text xml:space="preserve" font-family="GillSans-Light,Gill Sans" font-size="36.5" fill="#FEFFFE" transform="matrix(1.00, 0.00, -0.00, -1.00, 398.1, 232.2)"> </text><text xml:space="preserve" font-family="GillSans-Light,Gill Sans" font-size="36.5" fill="#FEFFFE" transform="matrix(1.00, 0.00, -0.00, -1.00, 65.8, 181.8)">p</text><text xml:space="preserve" font-family="GillSans-Light,Gill Sans" font-size="36.5" fill="#FEFFFE" transform="matrix(1.00, 0.00, -0.00, -1.00, 84.4, 181.8)">o</text><text xml:space="preserve" font-family="GillSans-Light,Gill Sans" font-size="36.5" fill="#FEFFFE" transform="matrix(1.00, 0.00, -0.00, -1.00, 104.2, 181.8)">s</text><text xml:space="preserve" font-family="GillSans-Light,Gill Sans" font-size="36.5" fill="#FEFFFE" transform="matrix(1.00, 0.00, -0.00, -1.00, 117.1, 181.8)">i</text><text xml:space="preserve" font-family="GillSans-Light,Gill Sans" font-size="36.5" fill="#FEFFFE" transform="matrix(1.00, 0.00, -0.00, -1.00, 124.0, 181.8)">t</text><text xml:space="preserve" font-family="GillSans-Light,Gill Sans" font-size="36.5" fill="#FEFFFE" transform="matrix(1.00, 0.00, -0.00, -1.00, 135.0, 181.8)">i</text><text xml:space="preserve" font-family="GillSans-Light,Gill Sans" font-size="36.5" fill="#FEFFFE" transform="matrix(1.00, 0.00, -0.00, -1.00, 141.9, 181.8)">o</text><text xml:space="preserve" font-family="GillSans-Light,Gill Sans" font-size="36.5" fill="#FEFFFE" transform="matrix(1.00, 0.00, -0.00, -1.00, 161.6, 181.8)">n</text><text xml:space="preserve" font-family="GillSans-Light,Gill Sans" font-size="36.5" fill="#FEFFFE" transform="matrix(1.00, 0.00, -0.00, -1.00, 179.6, 181.8)">-</text><text xml:space="preserve" font-family="GillSans-Light,Gill Sans" font-size="36.5" fill="#FEFFFE" transform="matrix(1.00, 0.00, -0.00, -1.00, 191.0, 181.8)">d</text><text xml:space="preserve" font-family="GillSans-Light,Gill Sans" font-size="36.5" fill="#FEFFFE" transform="matrix(1.00, 0.00, -0.00, -1.00, 209.6, 181.8)">e</text><text xml:space="preserve" font-family="GillSans-Light,Gill Sans" font-size="36.5" fill="#FEFFFE" transform="matrix(1.00, 0.00, -0.00, -1.00, 227.1, 181.8)">f</text><text xml:space="preserve" font-family="GillSans-Light,Gill Sans" font-size="36.5" fill="#FEFFFE" transform="matrix(1.00, 0.00, -0.00, -1.00, 235.1, 181.8)">i</text><text xml:space="preserve" font-family="GillSans-Light,Gill Sans" font-size="36.5" fill="#FEFFFE" transform="matrix(1.00, 0.00, -0.00, -1.00, 242.0, 181.8)">n</text><text xml:space="preserve" font-family="GillSans-Light,Gill Sans" font-size="36.5" fill="#FEFFFE" transform="matrix(1.00, 0.00, -0.00, -1.00, 259.9, 181.8)">e</text><text xml:space="preserve" font-family="GillSans-Light,Gill Sans" font-size="36.5" fill="#FEFFFE" transform="matrix(1.00, 0.00, -0.00, -1.00, 277.4, 181.8)">d</text><text xml:space="preserve" font-family="GillSans-Light,Gill Sans" font-size="36.5" fill="#FEFFFE" transform="matrix(1.00, 0.00, -0.00, -1.00, 296.0, 181.8)"> </text><text xml:space="preserve" font-family="GillSans-Light,Gill Sans" font-size="36.5" fill="#FEFFFE" transform="matrix(1.00, 0.00, -0.00, -1.00, 306.2, 181.8)">m</text><text xml:space="preserve" font-family="GillSans-Light,Gill Sans" font-size="36.5" fill="#FEFFFE" transform="matrix(1.00, 0.00, -0.00, -1.00, 334.3, 181.8)">o</text><text xml:space="preserve" font-family="GillSans-Light,Gill Sans" font-size="36.5" fill="#FEFFFE" transform="matrix(1.00, 0.00, -0.00, -1.00, 354.1, 181.8)">t</text><text xml:space="preserve" font-family="GillSans-Light,Gill Sans" font-size="36.5" fill="#FEFFFE" transform="matrix(1.00, 0.00, -0.00, -1.00, 365.1, 181.8)">i</text><text xml:space="preserve" font-family="GillSans-Light,Gill Sans" font-size="36.5" fill="#FEFFFE" transform="matrix(1.00, 0.00, -0.00, -1.00, 372.0, 181.8)">o</text><text xml:space="preserve" font-family="GillSans-Light,Gill Sans" font-size="36.5" fill="#FEFFFE" transform="matrix(1.00, 0.00, -0.00, -1.00, 391.8, 181.8)">n</text><text xml:space="preserve" font-family="GillSans-Light,Gill Sans" font-size="36.5" fill="#FEFFFE" transform="matrix(1.00, 0.00, -0.00, -1.00, 409.7, 181.8)">	</text><text xml:space="preserve" font-family="GillSans-Light,Gill Sans" font-size="36.5" fill="#FEFFFE" transform="matrix(1.00, 0.00, -0.00, -1.00, 437.7, 181.8)">
</text><text xml:space="preserve" font-family="GillSans-Light,Gill Sans" font-size="36.5" fill="#FEFFFE" transform="matrix(1.00, 0.00, -0.00, -1.00, 437.7, 181.8)"></text><text xml:space="preserve" font-family="GillSans-Light,Gill Sans" font-size="29.9" fill="#FEFFFE" transform="matrix(1.00, 0.00, -0.00, -1.00, 31.8, 105.6)">•</text><text xml:space="preserve" font-family="GillSans-Light,Gill Sans" font-size="36.5" fill="#FEFFFE" transform="matrix(1.00, 0.00, -0.00, -1.00, 65.8, 103.2)">S</text><text xml:space="preserve" font-family="GillSans-Light,Gill Sans" font-size="36.5" fill="#FEFFFE" transform="matrix(1.00, 0.00, -0.00, -1.00, 82.9, 103.2)">e</text><text xml:space="preserve" font-family="GillSans-Light,Gill Sans" font-size="36.5" fill="#FEFFFE" transform="matrix(1.00, 0.00, -0.00, -1.00, 100.4, 103.2)">n</text><text xml:space="preserve" font-family="GillSans-Light,Gill Sans" font-size="36.5" fill="#FEFFFE" transform="matrix(1.00, 0.00, -0.00, -1.00, 118.3, 103.2)">s</text><text xml:space="preserve" font-family="GillSans-Light,Gill Sans" font-size="36.5" fill="#FEFFFE" transform="matrix(1.00, 0.00, -0.00, -1.00, 131.3, 103.2)">i</text><text xml:space="preserve" font-family="GillSans-Light,Gill Sans" font-size="36.5" fill="#FEFFFE" transform="matrix(1.00, 0.00, -0.00, -1.00, 138.1, 103.2)">t</text><text xml:space="preserve" font-family="GillSans-Light,Gill Sans" font-size="36.5" fill="#FEFFFE" transform="matrix(1.00, 0.00, -0.00, -1.00, 149.1, 103.2)">i</text><text xml:space="preserve" font-family="GillSans-Light,Gill Sans" font-size="36.5" fill="#FEFFFE" transform="matrix(1.00, 0.00, -0.00, -1.00, 156.0, 103.2)">v</text><text xml:space="preserve" font-family="GillSans-Light,Gill Sans" font-size="36.5" fill="#FEFFFE" transform="matrix(1.00, 0.00, -0.00, -1.00, 171.6, 103.2)">i</text><text xml:space="preserve" font-family="GillSans-Light,Gill Sans" font-size="36.5" fill="#FEFFFE" transform="matrix(1.00, 0.00, -0.00, -1.00, 178.4, 103.2)">t</text><text xml:space="preserve" font-family="GillSans-Light,Gill Sans" font-size="36.5" fill="#FEFFFE" transform="matrix(1.00, 0.00, -0.00, -1.00, 189.5, 103.2)">y</text><text xml:space="preserve" font-family="GillSans-Light,Gill Sans" font-size="36.5" fill="#FEFFFE" transform="matrix(1.00, 0.00, -0.00, -1.00, 204.7, 103.2)"> </text><text xml:space="preserve" font-family="GillSans-Light,Gill Sans" font-size="36.5" fill="#FEFFFE" transform="matrix(1.00, 0.00, -0.00, -1.00, 214.8, 103.2)">t</text><text xml:space="preserve" font-family="GillSans-Light,Gill Sans" font-size="36.5" fill="#FEFFFE" transform="matrix(1.00, 0.00, -0.00, -1.00, 225.8, 103.2)">o</text><text xml:space="preserve" font-family="GillSans-Light,Gill Sans" font-size="36.5" fill="#FEFFFE" transform="matrix(1.00, 0.00, -0.00, -1.00, 245.6, 103.2)"> </text><text xml:space="preserve" font-family="GillSans-Light,Gill Sans" font-size="36.5" fill="#FEFFFE" transform="matrix(1.00, 0.00, -0.00, -1.00, 255.8, 103.2)">p</text><text xml:space="preserve" font-family="GillSans-Light,Gill Sans" font-size="36.5" fill="#FEFFFE" transform="matrix(1.00, 0.00, -0.00, -1.00, 274.4, 103.2)">o</text><text xml:space="preserve" font-family="GillSans-Light,Gill Sans" font-size="36.5" fill="#FEFFFE" transform="matrix(1.00, 0.00, -0.00, -1.00, 294.2, 103.2)">s</text><text xml:space="preserve" font-family="GillSans-Light,Gill Sans" font-size="36.5" fill="#FEFFFE" transform="matrix(1.00, 0.00, -0.00, -1.00, 307.1, 103.2)">i</text><text xml:space="preserve" font-family="GillSans-Light,Gill Sans" font-size="36.5" fill="#FEFFFE" transform="matrix(1.00, 0.00, -0.00, -1.00, 314.0, 103.2)">t</text><text xml:space="preserve" font-family="GillSans-Light,Gill Sans" font-size="36.5" fill="#FEFFFE" transform="matrix(1.00, 0.00, -0.00, -1.00, 325.0, 103.2)">i</text><text xml:space="preserve" font-family="GillSans-Light,Gill Sans" font-size="36.5" fill="#FEFFFE" transform="matrix(1.00, 0.00, -0.00, -1.00, 331.8, 103.2)">o</text><text xml:space="preserve" font-family="GillSans-Light,Gill Sans" font-size="36.5" fill="#FEFFFE" transform="matrix(1.00, 0.00, -0.00, -1.00, 351.6, 103.2)">n</text><text xml:space="preserve" font-family="GillSans-Light,Gill Sans" font-size="36.5" fill="#FEFFFE" transform="matrix(1.00, 0.00, -0.00, -1.00, 369.5, 103.2)">-</text><text xml:space="preserve" font-family="GillSans-Light,Gill Sans" font-size="36.5" fill="#FEFFFE" transform="matrix(1.00, 0.00, -0.00, -1.00, 381.0, 103.2)">d</text><text xml:space="preserve" font-family="GillSans-Light,Gill Sans" font-size="36.5" fill="#FEFFFE" transform="matrix(1.00, 0.00, -0.00, -1.00, 399.6, 103.2)">e</text><text xml:space="preserve" font-family="GillSans-Light,Gill Sans" font-size="36.5" fill="#FEFFFE" transform="matrix(1.00, 0.00, -0.00, -1.00, 417.1, 103.2)">f</text><text xml:space="preserve" font-family="GillSans-Light,Gill Sans" font-size="36.5" fill="#FEFFFE" transform="matrix(1.00, 0.00, -0.00, -1.00, 425.1, 103.2)">i</text><text xml:space="preserve" font-family="GillSans-Light,Gill Sans" font-size="36.5" fill="#FEFFFE" transform="matrix(1.00, 0.00, -0.00, -1.00, 432.0, 103.2)">n</text><text xml:space="preserve" font-family="GillSans-Light,Gill Sans" font-size="36.5" fill="#FEFFFE" transform="matrix(1.00, 0.00, -0.00, -1.00, 449.9, 103.2)">e</text><text xml:space="preserve" font-family="GillSans-Light,Gill Sans" font-size="36.5" fill="#FEFFFE" transform="matrix(1.00, 0.00, -0.00, -1.00, 467.4, 103.2)">d</text><text xml:space="preserve" font-family="GillSans-Light,Gill Sans" font-size="36.5" fill="#FEFFFE" transform="matrix(1.00, 0.00, -0.00, -1.00, 486.0, 103.2)"> </text><text xml:space="preserve" font-family="GillSans-Light,Gill Sans" font-size="36.5" fill="#FEFFFE" transform="matrix(1.00, 0.00, -0.00, -1.00, 65.8, 52.8)">m</text><text xml:space="preserve" font-family="GillSans-Light,Gill Sans" font-size="36.5" fill="#FEFFFE" transform="matrix(1.00, 0.00, -0.00, -1.00, 93.9, 52.8)">o</text><text xml:space="preserve" font-family="GillSans-Light,Gill Sans" font-size="36.5" fill="#FEFFFE" transform="matrix(1.00, 0.00, -0.00, -1.00, 113.7, 52.8)">t</text><text xml:space="preserve" font-family="GillSans-Light,Gill Sans" font-size="36.5" fill="#FEFFFE" transform="matrix(1.00, 0.00, -0.00, -1.00, 124.7, 52.8)">i</text><text xml:space="preserve" font-family="GillSans-Light,Gill Sans" font-size="36.5" fill="#FEFFFE" transform="matrix(1.00, 0.00, -0.00, -1.00, 131.6, 52.8)">o</text><text xml:space="preserve" font-family="GillSans-Light,Gill Sans" font-size="36.5" fill="#FEFFFE" transform="matrix(1.00, 0.00, -0.00, -1.00, 151.4, 52.8)">n</text><text xml:space="preserve" font-family="GillSans-Light,Gill Sans" font-size="36.5" fill="#FEFFFE" transform="matrix(1.00, 0.00, -0.00, -1.00, 169.3, 52.8)"> </text><text xml:space="preserve" font-family="GillSans-Light,Gill Sans" font-size="36.5" fill="#FEFFFE" transform="matrix(1.00, 0.00, -0.00, -1.00, 179.5, 52.8)">i</text><text xml:space="preserve" font-family="GillSans-Light,Gill Sans" font-size="36.5" fill="#FEFFFE" transform="matrix(1.00, 0.00, -0.00, -1.00, 186.3, 52.8)">n</text><text xml:space="preserve" font-family="GillSans-Light,Gill Sans" font-size="36.5" fill="#FEFFFE" transform="matrix(1.00, 0.00, -0.00, -1.00, 204.2, 52.8)">d</text><text xml:space="preserve" font-family="GillSans-Light,Gill Sans" font-size="36.5" fill="#FEFFFE" transform="matrix(1.00, 0.00, -0.00, -1.00, 222.8, 52.8)">e</text><text xml:space="preserve" font-family="GillSans-Light,Gill Sans" font-size="36.5" fill="#FEFFFE" transform="matrix(1.00, 0.00, -0.00, -1.00, 240.3, 52.8)">p</text><text xml:space="preserve" font-family="GillSans-Light,Gill Sans" font-size="36.5" fill="#FEFFFE" transform="matrix(1.00, 0.00, -0.00, -1.00, 258.9, 52.8)">e</text><text xml:space="preserve" font-family="GillSans-Light,Gill Sans" font-size="36.5" fill="#FEFFFE" transform="matrix(1.00, 0.00, -0.00, -1.00, 276.4, 52.8)">n</text><text xml:space="preserve" font-family="GillSans-Light,Gill Sans" font-size="36.5" fill="#FEFFFE" transform="matrix(1.00, 0.00, -0.00, -1.00, 294.3, 52.8)">d</text><text xml:space="preserve" font-family="GillSans-Light,Gill Sans" font-size="36.5" fill="#FEFFFE" transform="matrix(1.00, 0.00, -0.00, -1.00, 313.0, 52.8)">e</text><text xml:space="preserve" font-family="GillSans-Light,Gill Sans" font-size="36.5" fill="#FEFFFE" transform="matrix(1.00, 0.00, -0.00, -1.00, 330.4, 52.8)">n</text><text xml:space="preserve" font-family="GillSans-Light,Gill Sans" font-size="36.5" fill="#FEFFFE" transform="matrix(1.00, 0.00, -0.00, -1.00, 348.4, 52.8)">t</text><text xml:space="preserve" font-family="GillSans-Light,Gill Sans" font-size="36.5" fill="#FEFFFE" transform="matrix(1.00, 0.00, -0.00, -1.00, 359.4, 52.8)"> </text><text xml:space="preserve" font-family="GillSans-Light,Gill Sans" font-size="36.5" fill="#FEFFFE" transform="matrix(1.00, 0.00, -0.00, -1.00, 369.5, 52.8)">o</text><text xml:space="preserve" font-family="GillSans-Light,Gill Sans" font-size="36.5" fill="#FEFFFE" transform="matrix(1.00, 0.00, -0.00, -1.00, 389.3, 52.8)">f</text><text xml:space="preserve" font-family="GillSans-Light,Gill Sans" font-size="36.5" fill="#FEFFFE" transform="matrix(1.00, 0.00, -0.00, -1.00, 398.1, 52.8)"> </text><text xml:space="preserve" font-family="GillSans-Light,Gill Sans" font-size="36.5" fill="#FEFFFE" transform="matrix(1.00, 0.00, -0.00, -1.00, 65.8, 2.4)">a</text><text xml:space="preserve" font-family="GillSans-Light,Gill Sans" font-size="36.5" fill="#FEFFFE" transform="matrix(1.00, 0.00, -0.00, -1.00, 81.4, 2.4)">m</text><text xml:space="preserve" font-family="GillSans-Light,Gill Sans" font-size="36.5" fill="#FEFFFE" transform="matrix(1.00, 0.00, -0.00, -1.00, 109.5, 2.4)">o</text><text xml:space="preserve" font-family="GillSans-Light,Gill Sans" font-size="36.5" fill="#FEFFFE" transform="matrix(1.00, 0.00, -0.00, -1.00, 129.3, 2.4)">u</text><text xml:space="preserve" font-family="GillSans-Light,Gill Sans" font-size="36.5" fill="#FEFFFE" transform="matrix(1.00, 0.00, -0.00, -1.00, 147.2, 2.4)">n</text><text xml:space="preserve" font-family="GillSans-Light,Gill Sans" font-size="36.5" fill="#FEFFFE" transform="matrix(1.00, 0.00, -0.00, -1.00, 165.1, 2.4)">t</text><text xml:space="preserve" font-family="GillSans-Light,Gill Sans" font-size="36.5" fill="#FEFFFE" transform="matrix(1.00, 0.00, -0.00, -1.00, 176.1, 2.4)"> </text><text xml:space="preserve" font-family="GillSans-Light,Gill Sans" font-size="36.5" fill="#FEFFFE" transform="matrix(1.00, 0.00, -0.00, -1.00, 186.3, 2.4)">o</text><text xml:space="preserve" font-family="GillSans-Light,Gill Sans" font-size="36.5" fill="#FEFFFE" transform="matrix(1.00, 0.00, -0.00, -1.00, 206.1, 2.4)">f</text><text xml:space="preserve" font-family="GillSans-Light,Gill Sans" font-size="36.5" fill="#FEFFFE" transform="matrix(1.00, 0.00, -0.00, -1.00, 214.9, 2.4)"> </text><text xml:space="preserve" font-family="GillSans-Light,Gill Sans" font-size="36.5" fill="#FEFFFE" transform="matrix(1.00, 0.00, -0.00, -1.00, 225.0, 2.4)">f</text><text xml:space="preserve" font-family="GillSans-Light,Gill Sans" font-size="36.5" fill="#FEFFFE" transform="matrix(1.00, 0.00, -0.00, -1.00, 233.0, 2.4)">i</text><text xml:space="preserve" font-family="GillSans-Light,Gill Sans" font-size="36.5" fill="#FEFFFE" transform="matrix(1.00, 0.00, -0.00, -1.00, 239.9, 2.4)">r</text><text xml:space="preserve" font-family="GillSans-Light,Gill Sans" font-size="36.5" fill="#FEFFFE" transform="matrix(1.00, 0.00, -0.00, -1.00, 253.5, 2.4)">s</text><text xml:space="preserve" font-family="GillSans-Light,Gill Sans" font-size="36.5" fill="#FEFFFE" transform="matrix(1.00, 0.00, -0.00, -1.00, 266.5, 2.4)">t</text><text xml:space="preserve" font-family="GillSans-Light,Gill Sans" font-size="36.5" fill="#FEFFFE" transform="matrix(1.00, 0.00, -0.00, -1.00, 277.5, 2.4)">-</text><text xml:space="preserve" font-family="GillSans-Light,Gill Sans" font-size="36.5" fill="#FEFFFE" transform="matrix(1.00, 0.00, -0.00, -1.00, 288.9, 2.4)">o</text><text xml:space="preserve" font-family="GillSans-Light,Gill Sans" font-size="36.5" fill="#FEFFFE" transform="matrix(1.00, 0.00, -0.00, -1.00, 308.7, 2.4)">r</text><text xml:space="preserve" font-family="GillSans-Light,Gill Sans" font-size="36.5" fill="#FEFFFE" transform="matrix(1.00, 0.00, -0.00, -1.00, 320.9, 2.4)">d</text><text xml:space="preserve" font-family="GillSans-Light,Gill Sans" font-size="36.5" fill="#FEFFFE" transform="matrix(1.00, 0.00, -0.00, -1.00, 339.5, 2.4)">e</text><text xml:space="preserve" font-family="GillSans-Light,Gill Sans" font-size="36.5" fill="#FEFFFE" transform="matrix(1.00, 0.00, -0.00, -1.00, 357.0, 2.4)">r</text><text xml:space="preserve" font-family="GillSans-Light,Gill Sans" font-size="36.5" fill="#FEFFFE" transform="matrix(1.00, 0.00, -0.00, -1.00, 369.1, 2.4)"> </text><text xml:space="preserve" font-family="GillSans-Light,Gill Sans" font-size="36.5" fill="#FEFFFE" transform="matrix(1.00, 0.00, -0.00, -1.00, 379.3, 2.4)">m</text><text xml:space="preserve" font-family="GillSans-Light,Gill Sans" font-size="36.5" fill="#FEFFFE" transform="matrix(1.00, 0.00, -0.00, -1.00, 407.4, 2.4)">o</text><text xml:space="preserve" font-family="GillSans-Light,Gill Sans" font-size="36.5" fill="#FEFFFE" transform="matrix(1.00, 0.00, -0.00, -1.00, 427.2, 2.4)">t</text><text xml:space="preserve" font-family="GillSans-Light,Gill Sans" font-size="36.5" fill="#FEFFFE" transform="matrix(1.00, 0.00, -0.00, -1.00, 438.2, 2.4)">i</text><text xml:space="preserve" font-family="GillSans-Light,Gill Sans" font-size="36.5" fill="#FEFFFE" transform="matrix(1.00, 0.00, -0.00, -1.00, 445.1, 2.4)">o</text><text xml:space="preserve" font-family="GillSans-Light,Gill Sans" font-size="36.5" fill="#FEFFFE" transform="matrix(1.00, 0.00, -0.00, -1.00, 464.9, 2.4)">n</text></g></svg>