<?xml version="1.0" encoding="UTF-8" standalone="no"?><svg xmlns="http://www.w3.org/2000/svg" xmlns:xlink="http://www.w3.org/1999/xlink" clip-rule="evenodd" stroke-miterlimit="10" viewBox="0 0 157 19"><desc>SVG generated by Keynote</desc><defs></defs><g transform="matrix(1.00, 0.00, -0.00, -1.00, 0.0, 19.0)"><text xml:space="preserve" font-family="GillSans,Gill Sans" font-size="22.0" fill="#FEFFFF" transform="matrix(1.00, 0.00, -0.00, -1.00, 0.4, 2.1)">c</text><text xml:space="preserve" font-family="GillSans,Gill Sans" font-size="22.0" fill="#FEFFFF" transform="matrix(1.00, 0.00, -0.00, -1.00, 10.0, 2.1)">o</text><text xml:space="preserve" font-family="GillSans,Gill Sans" font-size="22.0" fill="#FEFFFF" transform="matrix(1.00, 0.00, -0.00, -1.00, 22.2, 2.1)">u</text><text xml:space="preserve" font-family="GillSans,Gill Sans" font-size="22.0" fill="#FEFFFF" transform="matrix(1.00, 0.00, -0.00, -1.00, 33.2, 2.1)">n</text><text xml:space="preserve" font-family="GillSans,Gill Sans" font-size="22.0" fill="#FEFFFF" transform="matrix(1.00, 0.00, -0.00, -1.00, 44.2, 2.1)">t</text><text xml:space="preserve" font-family="GillSans,Gill Sans" font-size="22.0" fill="#FEFFFF" transform="matrix(1.00, 0.00, -0.00, -1.00, 51.5, 2.1)">e</text><text xml:space="preserve" font-family="GillSans,Gill Sans" font-size="22.0" fill="#FEFFFF" transform="matrix(1.00, 0.00, -0.00, -1.00, 62.0, 2.1)">r</text><text xml:space="preserve" font-family="GillSans,Gill Sans" font-size="22.0" fill="#FEFFFF" transform="matrix(1.00, 0.00, -0.00, -1.00, 70.2, 2.1)">c</text><text xml:space="preserve" font-family="GillSans,Gill Sans" font-size="22.0" fill="#FEFFFF" transform="matrix(1.00, 0.00, -0.00, -1.00, 79.8, 2.1)">l</text><text xml:space="preserve" font-family="GillSans,Gill Sans" font-size="22.0" fill="#FEFFFF" transform="matrix(1.00, 0.00, -0.00, -1.00, 84.7, 2.1)">o</text><text xml:space="preserve" font-family="GillSans,Gill Sans" font-size="22.0" fill="#FEFFFF" transform="matrix(1.00, 0.00, -0.00, -1.00, 96.8, 2.1)">c</text><text xml:space="preserve" font-family="GillSans,Gill Sans" font-size="22.0" fill="#FEFFFF" transform="matrix(1.00, 0.00, -0.00, -1.00, 106.4, 2.1)">k</text><text xml:space="preserve" font-family="GillSans,Gill Sans" font-size="22.0" fill="#FEFFFF" transform="matrix(1.00, 0.00, -0.00, -1.00, 117.0, 2.1)">w</text><text xml:space="preserve" font-family="GillSans,Gill Sans" font-size="22.0" fill="#FEFFFF" transform="matrix(1.00, 0.00, -0.00, -1.00, 132.8, 2.1)">i</text><text xml:space="preserve" font-family="GillSans,Gill Sans" font-size="22.0" fill="#FEFFFF" transform="matrix(1.00, 0.00, -0.00, -1.00, 137.6, 2.1)">s</text><text xml:space="preserve" font-family="GillSans,Gill Sans" font-size="22.0" fill="#FEFFFF" transform="matrix(1.00, 0.00, -0.00, -1.00, 146.1, 2.1)">e</text></g></svg>