<?xml version="1.0" encoding="UTF-8" standalone="no"?><svg xmlns="http://www.w3.org/2000/svg" xmlns:xlink="http://www.w3.org/1999/xlink" clip-rule="evenodd" stroke-miterlimit="10" viewBox="0 0 343 138"><desc>SVG generated by Keynote</desc><defs></defs><g transform="matrix(1.00, 0.00, -0.00, -1.00, 0.0, 138.0)"><image xlink:href="../../5EBC3736-CE9D-444F-B756-270782A69A8C/assets/9F6F5973E8239C522C539A9A6EE9A4CF.png" width="283.00" height="38.00" transform="matrix(1.00, 0.00, -0.00, -1.00, 32.0, 136.0)"></image><text xml:space="preserve" font-family="GillSans-Light,Gill Sans" font-size="38.4" fill="#FEFFFE" transform="matrix(1.00, 0.00, -0.00, -1.00, 34.2, 105.2)">F</text><text xml:space="preserve" font-family="GillSans-Light,Gill Sans" font-size="38.4" fill="#FEFFFE" transform="matrix(1.00, 0.00, -0.00, -1.00, 51.0, 105.2)">i</text><text xml:space="preserve" font-family="GillSans-Light,Gill Sans" font-size="38.4" fill="#FEFFFE" transform="matrix(1.00, 0.00, -0.00, -1.00, 58.2, 105.2)">r</text><text xml:space="preserve" font-family="GillSans-Light,Gill Sans" font-size="38.4" fill="#FEFFFE" transform="matrix(1.00, 0.00, -0.00, -1.00, 72.6, 105.2)">s</text><text xml:space="preserve" font-family="GillSans-Light,Gill Sans" font-size="38.4" fill="#FEFFFE" transform="matrix(1.00, 0.00, -0.00, -1.00, 86.1, 105.2)">t</text><text xml:space="preserve" font-family="GillSans-Light,Gill Sans" font-size="38.4" fill="#FEFFFE" transform="matrix(1.00, 0.00, -0.00, -1.00, 97.7, 105.2)"> </text><text xml:space="preserve" font-family="GillSans-Light,Gill Sans" font-size="38.4" fill="#FEFFFE" transform="matrix(1.00, 0.00, -0.00, -1.00, 108.4, 105.2)">o</text><text xml:space="preserve" font-family="GillSans-Light,Gill Sans" font-size="38.4" fill="#FEFFFE" transform="matrix(1.00, 0.00, -0.00, -1.00, 129.2, 105.2)">r</text><text xml:space="preserve" font-family="GillSans-Light,Gill Sans" font-size="38.4" fill="#FEFFFE" transform="matrix(1.00, 0.00, -0.00, -1.00, 142.0, 105.2)">d</text><text xml:space="preserve" font-family="GillSans-Light,Gill Sans" font-size="38.4" fill="#FEFFFE" transform="matrix(1.00, 0.00, -0.00, -1.00, 161.6, 105.2)">e</text><text xml:space="preserve" font-family="GillSans-Light,Gill Sans" font-size="38.4" fill="#FEFFFE" transform="matrix(1.00, 0.00, -0.00, -1.00, 179.9, 105.2)">r</text><text xml:space="preserve" font-family="GillSans-Light,Gill Sans" font-size="38.4" fill="#FEFFFE" transform="matrix(1.00, 0.00, -0.00, -1.00, 192.7, 105.2)"> </text><text xml:space="preserve" font-family="GillSans-Light,Gill Sans" font-size="38.4" fill="#FEFFFE" transform="matrix(1.00, 0.00, -0.00, -1.00, 203.4, 105.2)">m</text><text xml:space="preserve" font-family="GillSans-Light,Gill Sans" font-size="38.4" fill="#FEFFFE" transform="matrix(1.00, 0.00, -0.00, -1.00, 233.0, 105.2)">o</text><text xml:space="preserve" font-family="GillSans-Light,Gill Sans" font-size="38.4" fill="#FEFFFE" transform="matrix(1.00, 0.00, -0.00, -1.00, 253.8, 105.2)">t</text><text xml:space="preserve" font-family="GillSans-Light,Gill Sans" font-size="38.4" fill="#FEFFFE" transform="matrix(1.00, 0.00, -0.00, -1.00, 265.4, 105.2)">i</text><text xml:space="preserve" font-family="GillSans-Light,Gill Sans" font-size="38.4" fill="#FEFFFE" transform="matrix(1.00, 0.00, -0.00, -1.00, 272.6, 105.2)">o</text><text xml:space="preserve" font-family="GillSans-Light,Gill Sans" font-size="38.4" fill="#FEFFFE" transform="matrix(1.00, 0.00, -0.00, -1.00, 293.4, 105.2)">n</text><text xml:space="preserve" font-family="GillSans-Light,Gill Sans" font-size="38.4" fill="#FEFFFE" transform="matrix(1.00, 0.00, -0.00, -1.00, 312.3, 105.2)">	</text><text xml:space="preserve" font-family="GillSans-Light,Gill Sans" font-size="38.4" fill="#FEFFFE" transform="matrix(1.00, 0.00, -0.00, -1.00, 340.3, 105.2)">
</text><text xml:space="preserve" font-family="GillSans-Light,Gill Sans" font-size="38.4" fill="#FEFFFE" transform="matrix(1.00, 0.00, -0.00, -1.00, 340.3, 105.2)"></text><image xlink:href="../../5EBC3736-CE9D-444F-B756-270782A69A8C/assets/7589977CA00EC6B712A8F4F8AEF741AA.png" width="181.00" height="47.00" transform="matrix(1.00, 0.00, -0.00, -1.00, 83.0, 91.0)"></image><text xml:space="preserve" font-family="GillSans-SemiBold,Gill Sans" font-weight="bold" font-size="38.4" fill="#FEFFFE" transform="matrix(1.00, 0.00, -0.00, -1.00, 87.5, 59.7)">c</text><text xml:space="preserve" font-family="GillSans-SemiBold,Gill Sans" font-weight="bold" font-size="38.4" fill="#FEFFFE" transform="matrix(1.00, 0.00, -0.00, -1.00, 105.2, 59.7)">o</text><text xml:space="preserve" font-family="GillSans-SemiBold,Gill Sans" font-weight="bold" font-size="38.4" fill="#FEFFFE" transform="matrix(1.00, 0.00, -0.00, -1.00, 127.3, 59.7)">n</text><text xml:space="preserve" font-family="GillSans-SemiBold,Gill Sans" font-weight="bold" font-size="38.4" fill="#FEFFFE" transform="matrix(1.00, 0.00, -0.00, -1.00, 148.0, 59.7)">ﬂ</text><text xml:space="preserve" font-family="GillSans-SemiBold,Gill Sans" font-weight="bold" font-size="38.4" fill="#FEFFFE" transform="matrix(1.00, 0.00, -0.00, -1.00, 168.4, 59.7)">i</text><text xml:space="preserve" font-family="GillSans-SemiBold,Gill Sans" font-weight="bold" font-size="38.4" fill="#FEFFFE" transform="matrix(1.00, 0.00, -0.00, -1.00, 177.9, 59.7)">c</text><text xml:space="preserve" font-family="GillSans-SemiBold,Gill Sans" font-weight="bold" font-size="38.4" fill="#FEFFFE" transform="matrix(1.00, 0.00, -0.00, -1.00, 195.6, 59.7)">t</text><text xml:space="preserve" font-family="GillSans-SemiBold,Gill Sans" font-weight="bold" font-size="38.4" fill="#FEFFFE" transform="matrix(1.00, 0.00, -0.00, -1.00, 209.8, 59.7)">i</text><text xml:space="preserve" font-family="GillSans-SemiBold,Gill Sans" font-weight="bold" font-size="38.4" fill="#FEFFFE" transform="matrix(1.00, 0.00, -0.00, -1.00, 219.3, 59.7)">n</text><text xml:space="preserve" font-family="GillSans-SemiBold,Gill Sans" font-weight="bold" font-size="38.4" fill="#FEFFFE" transform="matrix(1.00, 0.00, -0.00, -1.00, 240.1, 59.7)">g</text><text xml:space="preserve" font-family="GillSans-SemiBold,Gill Sans" font-weight="bold" font-size="38.4" fill="#FEFFFE" transform="matrix(1.00, 0.00, -0.00, -1.00, 258.9, 59.7)"> </text><image xlink:href="../../5EBC3736-CE9D-444F-B756-270782A69A8C/assets/42BDC698C623F4D97EA2F496D91B41D9.png" width="329.00" height="46.00" transform="matrix(1.00, 0.00, -0.00, -1.00, 13.0, 47.0)"></image><text xml:space="preserve" font-family="GillSans-Light,Gill Sans" font-size="38.4" fill="#FEFFFE" transform="matrix(1.00, 0.00, -0.00, -1.00, 7.8, 16.2)"> </text><text xml:space="preserve" font-family="GillSans-Light,Gill Sans" font-size="38.4" fill="#FEFFFE" transform="matrix(1.00, 0.00, -0.00, -1.00, 18.4, 16.2)">w</text><text xml:space="preserve" font-family="GillSans-Light,Gill Sans" font-size="38.4" fill="#FEFFFE" transform="matrix(1.00, 0.00, -0.00, -1.00, 45.6, 16.2)">i</text><text xml:space="preserve" font-family="GillSans-Light,Gill Sans" font-size="38.4" fill="#FEFFFE" transform="matrix(1.00, 0.00, -0.00, -1.00, 52.8, 16.2)">t</text><text xml:space="preserve" font-family="GillSans-Light,Gill Sans" font-size="38.4" fill="#FEFFFE" transform="matrix(1.00, 0.00, -0.00, -1.00, 64.4, 16.2)">h</text><text xml:space="preserve" font-family="GillSans-Light,Gill Sans" font-size="38.4" fill="#FEFFFE" transform="matrix(1.00, 0.00, -0.00, -1.00, 83.2, 16.2)"> </text><text xml:space="preserve" font-family="GillSans-Light,Gill Sans" font-size="38.4" fill="#FEFFFE" transform="matrix(1.00, 0.00, -0.00, -1.00, 93.9, 16.2)">p</text><text xml:space="preserve" font-family="GillSans-Light,Gill Sans" font-size="38.4" fill="#FEFFFE" transform="matrix(1.00, 0.00, -0.00, -1.00, 113.5, 16.2)">o</text><text xml:space="preserve" font-family="GillSans-Light,Gill Sans" font-size="38.4" fill="#FEFFFE" transform="matrix(1.00, 0.00, -0.00, -1.00, 134.3, 16.2)">s</text><text xml:space="preserve" font-family="GillSans-Light,Gill Sans" font-size="38.4" fill="#FEFFFE" transform="matrix(1.00, 0.00, -0.00, -1.00, 147.9, 16.2)">i</text><text xml:space="preserve" font-family="GillSans-Light,Gill Sans" font-size="38.4" fill="#FEFFFE" transform="matrix(1.00, 0.00, -0.00, -1.00, 155.1, 16.2)">t</text><text xml:space="preserve" font-family="GillSans-Light,Gill Sans" font-size="38.4" fill="#FEFFFE" transform="matrix(1.00, 0.00, -0.00, -1.00, 166.7, 16.2)">i</text><text xml:space="preserve" font-family="GillSans-Light,Gill Sans" font-size="38.4" fill="#FEFFFE" transform="matrix(1.00, 0.00, -0.00, -1.00, 173.9, 16.2)">o</text><text xml:space="preserve" font-family="GillSans-Light,Gill Sans" font-size="38.4" fill="#FEFFFE" transform="matrix(1.00, 0.00, -0.00, -1.00, 194.7, 16.2)">n</text><text xml:space="preserve" font-family="GillSans-Light,Gill Sans" font-size="38.4" fill="#FEFFFE" transform="matrix(1.00, 0.00, -0.00, -1.00, 213.5, 16.2)">-</text><text xml:space="preserve" font-family="GillSans-Light,Gill Sans" font-size="38.4" fill="#FEFFFE" transform="matrix(1.00, 0.00, -0.00, -1.00, 225.5, 16.2)">d</text><text xml:space="preserve" font-family="GillSans-Light,Gill Sans" font-size="38.4" fill="#FEFFFE" transform="matrix(1.00, 0.00, -0.00, -1.00, 245.1, 16.2)">e</text><text xml:space="preserve" font-family="GillSans-Light,Gill Sans" font-size="38.4" fill="#FEFFFE" transform="matrix(1.00, 0.00, -0.00, -1.00, 263.5, 16.2)">ﬁ</text><text xml:space="preserve" font-family="GillSans-Light,Gill Sans" font-size="38.4" fill="#FEFFFE" transform="matrix(1.00, 0.00, -0.00, -1.00, 281.9, 16.2)">n</text><text xml:space="preserve" font-family="GillSans-Light,Gill Sans" font-size="38.4" fill="#FEFFFE" transform="matrix(1.00, 0.00, -0.00, -1.00, 300.7, 16.2)">e</text><text xml:space="preserve" font-family="GillSans-Light,Gill Sans" font-size="38.4" fill="#FEFFFE" transform="matrix(1.00, 0.00, -0.00, -1.00, 319.1, 16.2)">d</text></g></svg>