<?xml version="1.0" encoding="UTF-8" standalone="no"?><svg xmlns="http://www.w3.org/2000/svg" xmlns:xlink="http://www.w3.org/1999/xlink" clip-rule="evenodd" stroke-miterlimit="10" viewBox="0 0 484 21"><desc>SVG generated by Keynote</desc><defs></defs><g transform="matrix(1.00, 0.00, -0.00, -1.00, 0.0, 21.0)"><text xml:space="preserve" font-family="GillSans,Gill Sans" font-size="20.0" fill="#FEFFFF" transform="matrix(1.00, 0.00, -0.00, -1.00, 1.0, 5.6)">s</text><text xml:space="preserve" font-family="GillSans,Gill Sans" font-size="20.0" fill="#FEFFFF" transform="matrix(1.00, 0.00, -0.00, -1.00, 8.7, 5.6)">e</text><text xml:space="preserve" font-family="GillSans,Gill Sans" font-size="20.0" fill="#FEFFFF" transform="matrix(1.00, 0.00, -0.00, -1.00, 18.3, 5.6)">n</text><text xml:space="preserve" font-family="GillSans,Gill Sans" font-size="20.0" fill="#FEFFFF" transform="matrix(1.00, 0.00, -0.00, -1.00, 28.3, 5.6)">s</text><text xml:space="preserve" font-family="GillSans,Gill Sans" font-size="20.0" fill="#FEFFFF" transform="matrix(1.00, 0.00, -0.00, -1.00, 36.0, 5.6)">i</text><text xml:space="preserve" font-family="GillSans,Gill Sans" font-size="20.0" fill="#FEFFFF" transform="matrix(1.00, 0.00, -0.00, -1.00, 40.4, 5.6)">t</text><text xml:space="preserve" font-family="GillSans,Gill Sans" font-size="20.0" fill="#FEFFFF" transform="matrix(1.00, 0.00, -0.00, -1.00, 47.0, 5.6)">i</text><text xml:space="preserve" font-family="GillSans,Gill Sans" font-size="20.0" fill="#FEFFFF" transform="matrix(1.00, 0.00, -0.00, -1.00, 51.4, 5.6)">v</text><text xml:space="preserve" font-family="GillSans,Gill Sans" font-size="20.0" fill="#FEFFFF" transform="matrix(1.00, 0.00, -0.00, -1.00, 60.2, 5.6)">i</text><text xml:space="preserve" font-family="GillSans,Gill Sans" font-size="20.0" fill="#FEFFFF" transform="matrix(1.00, 0.00, -0.00, -1.00, 64.5, 5.6)">t</text><text xml:space="preserve" font-family="GillSans,Gill Sans" font-size="20.0" fill="#FEFFFF" transform="matrix(1.00, 0.00, -0.00, -1.00, 71.2, 5.6)">y</text><text xml:space="preserve" font-family="GillSans,Gill Sans" font-size="20.0" fill="#FEFFFF" transform="matrix(1.00, 0.00, -0.00, -1.00, 80.0, 5.6)"> </text><text xml:space="preserve" font-family="GillSans,Gill Sans" font-size="20.0" fill="#FEFFFF" transform="matrix(1.00, 0.00, -0.00, -1.00, 85.5, 5.6)">t</text><text xml:space="preserve" font-family="GillSans,Gill Sans" font-size="20.0" fill="#FEFFFF" transform="matrix(1.00, 0.00, -0.00, -1.00, 92.2, 5.6)">o</text><text xml:space="preserve" font-family="GillSans,Gill Sans" font-size="20.0" fill="#FEFFFF" transform="matrix(1.00, 0.00, -0.00, -1.00, 103.2, 5.6)"> </text><text xml:space="preserve" font-family="GillSans,Gill Sans" font-size="20.0" fill="#FEFFFF" transform="matrix(1.00, 0.00, -0.00, -1.00, 108.8, 5.6)">ﬁ</text><text xml:space="preserve" font-family="GillSans,Gill Sans" font-size="20.0" fill="#FEFFFF" transform="matrix(1.00, 0.00, -0.00, -1.00, 118.8, 5.6)">r</text><text xml:space="preserve" font-family="GillSans,Gill Sans" font-size="20.0" fill="#FEFFFF" transform="matrix(1.00, 0.00, -0.00, -1.00, 126.7, 5.6)">s</text><text xml:space="preserve" font-family="GillSans,Gill Sans" font-size="20.0" fill="#FEFFFF" transform="matrix(1.00, 0.00, -0.00, -1.00, 134.4, 5.6)">t</text><text xml:space="preserve" font-family="GillSans,Gill Sans" font-size="20.0" fill="#FEFFFF" transform="matrix(1.00, 0.00, -0.00, -1.00, 141.0, 5.6)">-</text><text xml:space="preserve" font-family="GillSans,Gill Sans" font-size="20.0" fill="#FEFFFF" transform="matrix(1.00, 0.00, -0.00, -1.00, 147.5, 5.6)">o</text><text xml:space="preserve" font-family="GillSans,Gill Sans" font-size="20.0" fill="#FEFFFF" transform="matrix(1.00, 0.00, -0.00, -1.00, 158.5, 5.6)">r</text><text xml:space="preserve" font-family="GillSans,Gill Sans" font-size="20.0" fill="#FEFFFF" transform="matrix(1.00, 0.00, -0.00, -1.00, 166.2, 5.6)">d</text><text xml:space="preserve" font-family="GillSans,Gill Sans" font-size="20.0" fill="#FEFFFF" transform="matrix(1.00, 0.00, -0.00, -1.00, 176.3, 5.6)">e</text><text xml:space="preserve" font-family="GillSans,Gill Sans" font-size="20.0" fill="#FEFFFF" transform="matrix(1.00, 0.00, -0.00, -1.00, 185.9, 5.6)">r</text><text xml:space="preserve" font-family="GillSans,Gill Sans" font-size="20.0" fill="#FEFFFF" transform="matrix(1.00, 0.00, -0.00, -1.00, 193.8, 5.6)"> </text><text xml:space="preserve" font-family="GillSans,Gill Sans" font-size="20.0" fill="#FEFFFF" transform="matrix(1.00, 0.00, -0.00, -1.00, 199.4, 5.6)">m</text><text xml:space="preserve" font-family="GillSans,Gill Sans" font-size="20.0" fill="#FEFFFF" transform="matrix(1.00, 0.00, -0.00, -1.00, 214.8, 5.6)">o</text><text xml:space="preserve" font-family="GillSans,Gill Sans" font-size="20.0" fill="#FEFFFF" transform="matrix(1.00, 0.00, -0.00, -1.00, 225.8, 5.6)">t</text><text xml:space="preserve" font-family="GillSans,Gill Sans" font-size="20.0" fill="#FEFFFF" transform="matrix(1.00, 0.00, -0.00, -1.00, 232.5, 5.6)">i</text><text xml:space="preserve" font-family="GillSans,Gill Sans" font-size="20.0" fill="#FEFFFF" transform="matrix(1.00, 0.00, -0.00, -1.00, 236.9, 5.6)">o</text><text xml:space="preserve" font-family="GillSans,Gill Sans" font-size="20.0" fill="#FEFFFF" transform="matrix(1.00, 0.00, -0.00, -1.00, 247.9, 5.6)">n</text><text xml:space="preserve" font-family="GillSans,Gill Sans" font-size="20.0" fill="#FEFFFF" transform="matrix(1.00, 0.00, -0.00, -1.00, 257.9, 5.6)"> </text><text xml:space="preserve" font-family="GillSans,Gill Sans" font-size="20.0" fill="#FEFFFF" transform="matrix(1.00, 0.00, -0.00, -1.00, 263.5, 5.6)">i</text><text xml:space="preserve" font-family="GillSans,Gill Sans" font-size="20.0" fill="#FEFFFF" transform="matrix(1.00, 0.00, -0.00, -1.00, 267.9, 5.6)">s</text><text xml:space="preserve" font-family="GillSans,Gill Sans" font-size="20.0" fill="#FEFFFF" transform="matrix(1.00, 0.00, -0.00, -1.00, 275.6, 5.6)"> </text><text xml:space="preserve" font-family="GillSans,Gill Sans" font-size="20.0" fill="#FEFFFF" transform="matrix(1.00, 0.00, -0.00, -1.00, 281.1, 5.6)">t</text><text xml:space="preserve" font-family="GillSans,Gill Sans" font-size="20.0" fill="#FEFFFF" transform="matrix(1.00, 0.00, -0.00, -1.00, 287.8, 5.6)">o</text><text xml:space="preserve" font-family="GillSans,Gill Sans" font-size="20.0" fill="#FEFFFF" transform="matrix(1.00, 0.00, -0.00, -1.00, 298.8, 5.6)"> </text><text xml:space="preserve" font-family="GillSans,Gill Sans" font-size="20.0" fill="#FEFFFF" transform="matrix(1.00, 0.00, -0.00, -1.00, 304.4, 5.6)">t</text><text xml:space="preserve" font-family="GillSans,Gill Sans" font-size="20.0" fill="#FEFFFF" transform="matrix(1.00, 0.00, -0.00, -1.00, 311.0, 5.6)">a</text><text xml:space="preserve" font-family="GillSans,Gill Sans" font-size="20.0" fill="#FEFFFF" transform="matrix(1.00, 0.00, -0.00, -1.00, 319.6, 5.6)">k</text><text xml:space="preserve" font-family="GillSans,Gill Sans" font-size="20.0" fill="#FEFFFF" transform="matrix(1.00, 0.00, -0.00, -1.00, 328.5, 5.6)">e</text><text xml:space="preserve" font-family="GillSans,Gill Sans" font-size="20.0" fill="#FEFFFF" transform="matrix(1.00, 0.00, -0.00, -1.00, 338.1, 5.6)"> </text><text xml:space="preserve" font-family="GillSans,Gill Sans" font-size="20.0" fill="#FEFFFF" transform="matrix(1.00, 0.00, -0.00, -1.00, 343.7, 5.6)">t</text><text xml:space="preserve" font-family="GillSans,Gill Sans" font-size="20.0" fill="#FEFFFF" transform="matrix(1.00, 0.00, -0.00, -1.00, 350.3, 5.6)">h</text><text xml:space="preserve" font-family="GillSans,Gill Sans" font-size="20.0" fill="#FEFFFF" transform="matrix(1.00, 0.00, -0.00, -1.00, 360.3, 5.6)">e</text><text xml:space="preserve" font-family="GillSans,Gill Sans" font-size="20.0" fill="#FEFFFF" transform="matrix(1.00, 0.00, -0.00, -1.00, 369.9, 5.6)"> </text><text xml:space="preserve" font-family="GillSans,Gill Sans" font-size="20.0" fill="#FEFFFF" transform="matrix(1.00, 0.00, -0.00, -1.00, 375.5, 5.6)">s</text><text xml:space="preserve" font-family="GillSans,Gill Sans" font-size="20.0" fill="#FEFFFF" transform="matrix(1.00, 0.00, -0.00, -1.00, 383.2, 5.6)">a</text><text xml:space="preserve" font-family="GillSans,Gill Sans" font-size="20.0" fill="#FEFFFF" transform="matrix(1.00, 0.00, -0.00, -1.00, 391.7, 5.6)">m</text><text xml:space="preserve" font-family="GillSans,Gill Sans" font-size="20.0" fill="#FEFFFF" transform="matrix(1.00, 0.00, -0.00, -1.00, 407.1, 5.6)">e</text><text xml:space="preserve" font-family="GillSans,Gill Sans" font-size="20.0" fill="#FEFFFF" transform="matrix(1.00, 0.00, -0.00, -1.00, 416.7, 5.6)"> </text><text xml:space="preserve" font-family="GillSans,Gill Sans" font-size="20.0" fill="#FEFFFF" transform="matrix(1.00, 0.00, -0.00, -1.00, 422.2, 5.6)">d</text><text xml:space="preserve" font-family="GillSans,Gill Sans" font-size="20.0" fill="#FEFFFF" transform="matrix(1.00, 0.00, -0.00, -1.00, 432.4, 5.6)">a</text><text xml:space="preserve" font-family="GillSans,Gill Sans" font-size="20.0" fill="#FEFFFF" transform="matrix(1.00, 0.00, -0.00, -1.00, 441.0, 5.6)">t</text><text xml:space="preserve" font-family="GillSans,Gill Sans" font-size="20.0" fill="#FEFFFF" transform="matrix(1.00, 0.00, -0.00, -1.00, 447.6, 5.6)">a</text><text xml:space="preserve" font-family="GillSans,Gill Sans" font-size="20.0" fill="#FEFFFF" transform="matrix(1.00, 0.00, -0.00, -1.00, 456.1, 5.6)"> </text><text xml:space="preserve" font-family="GillSans,Gill Sans" font-size="20.0" fill="#FEFFFF" transform="matrix(1.00, 0.00, -0.00, -1.00, 461.7, 5.6)">—</text></g></svg>