<?xml version="1.0" encoding="UTF-8" standalone="no"?><svg xmlns="http://www.w3.org/2000/svg" xmlns:xlink="http://www.w3.org/1999/xlink" clip-rule="evenodd" stroke-miterlimit="10" viewBox="0 0 700 90"><desc>SVG generated by Keynote</desc><defs></defs><g transform="matrix(1.00, 0.00, -0.00, -1.00, 0.0, 90.0)"><image xlink:href="../../B1773C33-28CF-4752-A6FC-E938B96768B5/assets/BACB992A6669641AF3736F6D99BDD461.png" width="698.00" height="87.00" transform="matrix(1.00, 0.00, -0.00, -1.00, 1.0, 88.0)"></image><text xml:space="preserve" font-family="GillSans-Light,Gill Sans" font-size="85.4" fill="#FEFFFE" transform="matrix(1.00, 0.00, -0.00, -1.00, -0.7, 26.6)">F</text><text xml:space="preserve" font-family="GillSans-Light,Gill Sans" font-size="85.4" fill="#FEFFFE" transform="matrix(1.00, 0.00, -0.00, -1.00, 36.7, 26.6)">i</text><text xml:space="preserve" font-family="GillSans-Light,Gill Sans" font-size="85.4" fill="#FEFFFE" transform="matrix(1.00, 0.00, -0.00, -1.00, 52.8, 26.6)">r</text><text xml:space="preserve" font-family="GillSans-Light,Gill Sans" font-size="85.4" fill="#FEFFFE" transform="matrix(1.00, 0.00, -0.00, -1.00, 84.7, 26.6)">s</text><text xml:space="preserve" font-family="GillSans-Light,Gill Sans" font-size="85.4" fill="#FEFFFE" transform="matrix(1.00, 0.00, -0.00, -1.00, 114.9, 26.6)">t</text><text xml:space="preserve" font-family="GillSans-Light,Gill Sans" font-size="85.4" fill="#FEFFFE" transform="matrix(1.00, 0.00, -0.00, -1.00, 140.7, 26.6)">-</text><text xml:space="preserve" font-family="GillSans-Light,Gill Sans" font-size="85.4" fill="#FEFFFE" transform="matrix(1.00, 0.00, -0.00, -1.00, 167.4, 26.6)">o</text><text xml:space="preserve" font-family="GillSans-Light,Gill Sans" font-size="85.4" fill="#FEFFFE" transform="matrix(1.00, 0.00, -0.00, -1.00, 213.7, 26.6)">r</text><text xml:space="preserve" font-family="GillSans-Light,Gill Sans" font-size="85.4" fill="#FEFFFE" transform="matrix(1.00, 0.00, -0.00, -1.00, 242.2, 26.6)">d</text><text xml:space="preserve" font-family="GillSans-Light,Gill Sans" font-size="85.4" fill="#FEFFFE" transform="matrix(1.00, 0.00, -0.00, -1.00, 285.7, 26.6)">e</text><text xml:space="preserve" font-family="GillSans-Light,Gill Sans" font-size="85.4" fill="#FEFFFE" transform="matrix(1.00, 0.00, -0.00, -1.00, 326.6, 26.6)">r</text><text xml:space="preserve" font-family="GillSans-Light,Gill Sans" font-size="85.4" fill="#FEFFFE" transform="matrix(1.00, 0.00, -0.00, -1.00, 355.1, 26.6)"> </text><text xml:space="preserve" font-family="GillSans-Light,Gill Sans" font-size="85.4" fill="#FEFFFE" transform="matrix(1.00, 0.00, -0.00, -1.00, 378.8, 26.6)">s</text><text xml:space="preserve" font-family="GillSans-Light,Gill Sans" font-size="85.4" fill="#FEFFFE" transform="matrix(1.00, 0.00, -0.00, -1.00, 409.1, 26.6)">e</text><text xml:space="preserve" font-family="GillSans-Light,Gill Sans" font-size="85.4" fill="#FEFFFE" transform="matrix(1.00, 0.00, -0.00, -1.00, 450.0, 26.6)">n</text><text xml:space="preserve" font-family="GillSans-Light,Gill Sans" font-size="85.4" fill="#FEFFFE" transform="matrix(1.00, 0.00, -0.00, -1.00, 491.9, 26.6)">s</text><text xml:space="preserve" font-family="GillSans-Light,Gill Sans" font-size="85.4" fill="#FEFFFE" transform="matrix(1.00, 0.00, -0.00, -1.00, 522.1, 26.6)">i</text><text xml:space="preserve" font-family="GillSans-Light,Gill Sans" font-size="85.4" fill="#FEFFFE" transform="matrix(1.00, 0.00, -0.00, -1.00, 538.2, 26.6)">t</text><text xml:space="preserve" font-family="GillSans-Light,Gill Sans" font-size="85.4" fill="#FEFFFE" transform="matrix(1.00, 0.00, -0.00, -1.00, 564.0, 26.6)">i</text><text xml:space="preserve" font-family="GillSans-Light,Gill Sans" font-size="85.4" fill="#FEFFFE" transform="matrix(1.00, 0.00, -0.00, -1.00, 580.0, 26.6)">v</text><text xml:space="preserve" font-family="GillSans-Light,Gill Sans" font-size="85.4" fill="#FEFFFE" transform="matrix(1.00, 0.00, -0.00, -1.00, 616.5, 26.6)">i</text><text xml:space="preserve" font-family="GillSans-Light,Gill Sans" font-size="85.4" fill="#FEFFFE" transform="matrix(1.00, 0.00, -0.00, -1.00, 632.5, 26.6)">t</text><text xml:space="preserve" font-family="GillSans-Light,Gill Sans" font-size="85.4" fill="#FEFFFE" transform="matrix(1.00, 0.00, -0.00, -1.00, 658.3, 26.6)">y</text></g></svg>