<?xml version="1.0" encoding="UTF-8" standalone="no"?><svg xmlns="http://www.w3.org/2000/svg" xmlns:xlink="http://www.w3.org/1999/xlink" clip-rule="evenodd" stroke-miterlimit="10" viewBox="0 0 425 24"><desc>SVG generated by Keynote</desc><defs></defs><g transform="matrix(1.00, 0.00, -0.00, -1.00, 0.0, 24.0)"><text xml:space="preserve" font-family="GillSans,Gill Sans" font-size="23.0" fill="#FEFFFF" transform="matrix(1.00, 0.00, -0.00, -1.00, 1.0, 6.3)">v</text><text xml:space="preserve" font-family="GillSans,Gill Sans" font-size="23.0" fill="#FEFFFF" transform="matrix(1.00, 0.00, -0.00, -1.00, 11.1, 6.3)">a</text><text xml:space="preserve" font-family="GillSans,Gill Sans" font-size="23.0" fill="#FEFFFF" transform="matrix(1.00, 0.00, -0.00, -1.00, 20.9, 6.3)">l</text><text xml:space="preserve" font-family="GillSans,Gill Sans" font-size="23.0" fill="#FEFFFF" transform="matrix(1.00, 0.00, -0.00, -1.00, 25.9, 6.3)">u</text><text xml:space="preserve" font-family="GillSans,Gill Sans" font-size="23.0" fill="#FEFFFF" transform="matrix(1.00, 0.00, -0.00, -1.00, 37.4, 6.3)">e</text><text xml:space="preserve" font-family="GillSans,Gill Sans" font-size="23.0" fill="#FEFFFF" transform="matrix(1.00, 0.00, -0.00, -1.00, 48.4, 6.3)">s</text><text xml:space="preserve" font-family="GillSans,Gill Sans" font-size="23.0" fill="#FEFFFF" transform="matrix(1.00, 0.00, -0.00, -1.00, 57.3, 6.3)"> </text><text xml:space="preserve" font-family="GillSans,Gill Sans" font-size="23.0" fill="#FEFFFF" transform="matrix(1.00, 0.00, -0.00, -1.00, 63.7, 6.3)">o</text><text xml:space="preserve" font-family="GillSans,Gill Sans" font-size="23.0" fill="#FEFFFF" transform="matrix(1.00, 0.00, -0.00, -1.00, 76.4, 6.3)">f</text><text xml:space="preserve" font-family="GillSans,Gill Sans" font-size="23.0" fill="#FEFFFF" transform="matrix(1.00, 0.00, -0.00, -1.00, 82.1, 6.3)"> </text><text xml:space="preserve" font-family="GillSans,Gill Sans" font-size="23.0" fill="#FEFFFF" transform="matrix(1.00, 0.00, -0.00, -1.00, 88.5, 6.3)">s</text><text xml:space="preserve" font-family="GillSans,Gill Sans" font-size="23.0" fill="#FEFFFF" transform="matrix(1.00, 0.00, -0.00, -1.00, 97.3, 6.3)">p</text><text xml:space="preserve" font-family="GillSans,Gill Sans" font-size="23.0" fill="#FEFFFF" transform="matrix(1.00, 0.00, -0.00, -1.00, 108.8, 6.3)">a</text><text xml:space="preserve" font-family="GillSans,Gill Sans" font-size="23.0" fill="#FEFFFF" transform="matrix(1.00, 0.00, -0.00, -1.00, 118.7, 6.3)">c</text><text xml:space="preserve" font-family="GillSans,Gill Sans" font-size="23.0" fill="#FEFFFF" transform="matrix(1.00, 0.00, -0.00, -1.00, 128.7, 6.3)">i</text><text xml:space="preserve" font-family="GillSans,Gill Sans" font-size="23.0" fill="#FEFFFF" transform="matrix(1.00, 0.00, -0.00, -1.00, 133.8, 6.3)">n</text><text xml:space="preserve" font-family="GillSans,Gill Sans" font-size="23.0" fill="#FEFFFF" transform="matrix(1.00, 0.00, -0.00, -1.00, 145.3, 6.3)">g</text><text xml:space="preserve" font-family="GillSans,Gill Sans" font-size="23.0" fill="#FEFFFF" transform="matrix(1.00, 0.00, -0.00, -1.00, 155.1, 6.3)">,</text><text xml:space="preserve" font-family="GillSans,Gill Sans" font-size="23.0" fill="#FEFFFF" transform="matrix(1.00, 0.00, -0.00, -1.00, 157.8, 6.3)"> </text><text xml:space="preserve" font-family="GillSans,Gill Sans" font-size="23.0" fill="#FEFFFF" transform="matrix(1.00, 0.00, -0.00, -1.00, 164.2, 6.3)">w</text><text xml:space="preserve" font-family="GillSans,Gill Sans" font-size="23.0" fill="#FEFFFF" transform="matrix(1.00, 0.00, -0.00, -1.00, 180.8, 6.3)">h</text><text xml:space="preserve" font-family="GillSans,Gill Sans" font-size="23.0" fill="#FEFFFF" transform="matrix(1.00, 0.00, -0.00, -1.00, 192.3, 6.3)">i</text><text xml:space="preserve" font-family="GillSans,Gill Sans" font-size="23.0" fill="#FEFFFF" transform="matrix(1.00, 0.00, -0.00, -1.00, 197.3, 6.3)">c</text><text xml:space="preserve" font-family="GillSans,Gill Sans" font-size="23.0" fill="#FEFFFF" transform="matrix(1.00, 0.00, -0.00, -1.00, 207.4, 6.3)">h</text><text xml:space="preserve" font-family="GillSans,Gill Sans" font-size="23.0" fill="#FEFFFF" transform="matrix(1.00, 0.00, -0.00, -1.00, 218.9, 6.3)"> </text><text xml:space="preserve" font-family="GillSans,Gill Sans" font-size="23.0" fill="#FEFFFF" transform="matrix(1.00, 0.00, -0.00, -1.00, 225.3, 6.3)">i</text><text xml:space="preserve" font-family="GillSans,Gill Sans" font-size="23.0" fill="#FEFFFF" transform="matrix(1.00, 0.00, -0.00, -1.00, 230.3, 6.3)">s</text><text xml:space="preserve" font-family="GillSans,Gill Sans" font-size="23.0" fill="#FEFFFF" transform="matrix(1.00, 0.00, -0.00, -1.00, 239.2, 6.3)"> </text><text xml:space="preserve" font-family="GillSans,Gill Sans" font-size="23.0" fill="#FEFFFF" transform="matrix(1.00, 0.00, -0.00, -1.00, 245.5, 6.3)">t</text><text xml:space="preserve" font-family="GillSans,Gill Sans" font-size="23.0" fill="#FEFFFF" transform="matrix(1.00, 0.00, -0.00, -1.00, 253.2, 6.3)">h</text><text xml:space="preserve" font-family="GillSans,Gill Sans" font-size="23.0" fill="#FEFFFF" transform="matrix(1.00, 0.00, -0.00, -1.00, 264.7, 6.3)">e</text><text xml:space="preserve" font-family="GillSans,Gill Sans" font-size="23.0" fill="#FEFFFF" transform="matrix(1.00, 0.00, -0.00, -1.00, 275.7, 6.3)"> </text><text xml:space="preserve" font-family="GillSans,Gill Sans" font-size="23.0" fill="#FEFFFF" transform="matrix(1.00, 0.00, -0.00, -1.00, 282.1, 6.3)">o</text><text xml:space="preserve" font-family="GillSans,Gill Sans" font-size="23.0" fill="#FEFFFF" transform="matrix(1.00, 0.00, -0.00, -1.00, 294.8, 6.3)">p</text><text xml:space="preserve" font-family="GillSans,Gill Sans" font-size="23.0" fill="#FEFFFF" transform="matrix(1.00, 0.00, -0.00, -1.00, 306.3, 6.3)">p</text><text xml:space="preserve" font-family="GillSans,Gill Sans" font-size="23.0" fill="#FEFFFF" transform="matrix(1.00, 0.00, -0.00, -1.00, 317.8, 6.3)">o</text><text xml:space="preserve" font-family="GillSans,Gill Sans" font-size="23.0" fill="#FEFFFF" transform="matrix(1.00, 0.00, -0.00, -1.00, 330.5, 6.3)">s</text><text xml:space="preserve" font-family="GillSans,Gill Sans" font-size="23.0" fill="#FEFFFF" transform="matrix(1.00, 0.00, -0.00, -1.00, 339.3, 6.3)">i</text><text xml:space="preserve" font-family="GillSans,Gill Sans" font-size="23.0" fill="#FEFFFF" transform="matrix(1.00, 0.00, -0.00, -1.00, 344.4, 6.3)">t</text><text xml:space="preserve" font-family="GillSans,Gill Sans" font-size="23.0" fill="#FEFFFF" transform="matrix(1.00, 0.00, -0.00, -1.00, 352.0, 6.3)">e</text><text xml:space="preserve" font-family="GillSans,Gill Sans" font-size="23.0" fill="#FEFFFF" transform="matrix(1.00, 0.00, -0.00, -1.00, 363.1, 6.3)"> </text><text xml:space="preserve" font-family="GillSans,Gill Sans" font-size="23.0" fill="#FEFFFF" transform="matrix(1.00, 0.00, -0.00, -1.00, 369.4, 6.3)">o</text><text xml:space="preserve" font-family="GillSans,Gill Sans" font-size="23.0" fill="#FEFFFF" transform="matrix(1.00, 0.00, -0.00, -1.00, 382.1, 6.3)">f</text><text xml:space="preserve" font-family="GillSans,Gill Sans" font-size="23.0" fill="#FEFFFF" transform="matrix(1.00, 0.00, -0.00, -1.00, 387.9, 6.3)"> </text><text xml:space="preserve" font-family="GillSans,Gill Sans" font-size="23.0" fill="#FEFFFF" transform="matrix(1.00, 0.00, -0.00, -1.00, 394.3, 6.3)">t</text><text xml:space="preserve" font-family="GillSans,Gill Sans" font-size="23.0" fill="#FEFFFF" transform="matrix(1.00, 0.00, -0.00, -1.00, 401.9, 6.3)">h</text><text xml:space="preserve" font-family="GillSans,Gill Sans" font-size="23.0" fill="#FEFFFF" transform="matrix(1.00, 0.00, -0.00, -1.00, 413.4, 6.3)">e</text></g></svg>