<?xml version="1.0" encoding="UTF-8" standalone="no"?><svg xmlns="http://www.w3.org/2000/svg" xmlns:xlink="http://www.w3.org/1999/xlink" clip-rule="evenodd" stroke-miterlimit="10" viewBox="0 0 356 37"><desc>SVG generated by Keynote</desc><defs></defs><g transform="matrix(1.00, 0.00, -0.00, -1.00, 0.0, 37.0)"><text xml:space="preserve" font-family="GillSans-Light,Gill Sans" font-size="47.5" fill="#FEFFFE" transform="matrix(1.00, 0.00, -0.00, -1.00, 0.2, 2.9)">a</text><text xml:space="preserve" font-family="GillSans-Light,Gill Sans" font-size="47.5" fill="#FEFFFE" transform="matrix(1.00, 0.00, -0.00, -1.00, 20.4, 2.9)">r</text><text xml:space="preserve" font-family="GillSans-Light,Gill Sans" font-size="47.5" fill="#FEFFFE" transform="matrix(1.00, 0.00, -0.00, -1.00, 36.2, 2.9)">e</text><text xml:space="preserve" font-family="GillSans-Light,Gill Sans" font-size="47.5" fill="#FEFFFE" transform="matrix(1.00, 0.00, -0.00, -1.00, 59.0, 2.9)"> </text><text xml:space="preserve" font-family="GillSans-Light,Gill Sans" font-size="47.5" fill="#FEFFFE" transform="matrix(1.00, 0.00, -0.00, -1.00, 72.2, 2.9)">n</text><text xml:space="preserve" font-family="GillSans-Light,Gill Sans" font-size="47.5" fill="#FEFFFE" transform="matrix(1.00, 0.00, -0.00, -1.00, 95.5, 2.9)">o</text><text xml:space="preserve" font-family="GillSans-Light,Gill Sans" font-size="47.5" fill="#FEFFFE" transform="matrix(1.00, 0.00, -0.00, -1.00, 121.2, 2.9)">t</text><text xml:space="preserve" font-family="GillSans-Light,Gill Sans" font-size="47.5" fill="#FEFFFE" transform="matrix(1.00, 0.00, -0.00, -1.00, 135.5, 2.9)"> </text><text xml:space="preserve" font-family="GillSans-Light,Gill Sans" font-size="47.5" fill="#FEFFFE" transform="matrix(1.00, 0.00, -0.00, -1.00, 148.7, 2.9)">s</text><text xml:space="preserve" font-family="GillSans-Light,Gill Sans" font-size="47.5" fill="#FEFFFE" transform="matrix(1.00, 0.00, -0.00, -1.00, 165.6, 2.9)">e</text><text xml:space="preserve" font-family="GillSans-Light,Gill Sans" font-size="47.5" fill="#FEFFFE" transform="matrix(1.00, 0.00, -0.00, -1.00, 188.3, 2.9)">n</text><text xml:space="preserve" font-family="GillSans-Light,Gill Sans" font-size="47.5" fill="#FEFFFE" transform="matrix(1.00, 0.00, -0.00, -1.00, 211.6, 2.9)">s</text><text xml:space="preserve" font-family="GillSans-Light,Gill Sans" font-size="47.5" fill="#FEFFFE" transform="matrix(1.00, 0.00, -0.00, -1.00, 228.4, 2.9)">i</text><text xml:space="preserve" font-family="GillSans-Light,Gill Sans" font-size="47.5" fill="#FEFFFE" transform="matrix(1.00, 0.00, -0.00, -1.00, 237.3, 2.9)">t</text><text xml:space="preserve" font-family="GillSans-Light,Gill Sans" font-size="47.5" fill="#FEFFFE" transform="matrix(1.00, 0.00, -0.00, -1.00, 251.7, 2.9)">i</text><text xml:space="preserve" font-family="GillSans-Light,Gill Sans" font-size="47.5" fill="#FEFFFE" transform="matrix(1.00, 0.00, -0.00, -1.00, 260.6, 2.9)">v</text><text xml:space="preserve" font-family="GillSans-Light,Gill Sans" font-size="47.5" fill="#FEFFFE" transform="matrix(1.00, 0.00, -0.00, -1.00, 280.1, 2.9)">e</text><text xml:space="preserve" font-family="GillSans-Light,Gill Sans" font-size="47.5" fill="#FEFFFE" transform="matrix(1.00, 0.00, -0.00, -1.00, 302.9, 2.9)"> </text><text xml:space="preserve" font-family="GillSans-Light,Gill Sans" font-size="47.5" fill="#FEFFFE" transform="matrix(1.00, 0.00, -0.00, -1.00, 316.1, 2.9)">t</text><text xml:space="preserve" font-family="GillSans-Light,Gill Sans" font-size="47.5" fill="#FEFFFE" transform="matrix(1.00, 0.00, -0.00, -1.00, 330.4, 2.9)">o</text></g></svg>