<?xml version="1.0" encoding="UTF-8" standalone="no"?><svg xmlns="http://www.w3.org/2000/svg" xmlns:xlink="http://www.w3.org/1999/xlink" clip-rule="evenodd" stroke-miterlimit="10" viewBox="0 0 159 17"><desc>SVG generated by Keynote</desc><defs></defs><g transform="matrix(1.00, 0.00, -0.00, -1.00, 0.0, 17.0)"><text xml:space="preserve" font-family="GillSans,Gill Sans" font-size="20.0" fill="#FEFFFF" transform="matrix(1.00, 0.00, -0.00, -1.00, 1.4, 1.6)">t</text><text xml:space="preserve" font-family="GillSans,Gill Sans" font-size="20.0" fill="#FEFFFF" transform="matrix(1.00, 0.00, -0.00, -1.00, 8.1, 1.6)">h</text><text xml:space="preserve" font-family="GillSans,Gill Sans" font-size="20.0" fill="#FEFFFF" transform="matrix(1.00, 0.00, -0.00, -1.00, 18.1, 1.6)">e</text><text xml:space="preserve" font-family="GillSans,Gill Sans" font-size="20.0" fill="#FEFFFF" transform="matrix(1.00, 0.00, -0.00, -1.00, 27.6, 1.6)">s</text><text xml:space="preserve" font-family="GillSans,Gill Sans" font-size="20.0" fill="#FEFFFF" transform="matrix(1.00, 0.00, -0.00, -1.00, 35.3, 1.6)">e</text><text xml:space="preserve" font-family="GillSans,Gill Sans" font-size="20.0" fill="#FEFFFF" transform="matrix(1.00, 0.00, -0.00, -1.00, 44.9, 1.6)"> </text><text xml:space="preserve" font-family="GillSans,Gill Sans" font-size="20.0" fill="#FEFFFF" transform="matrix(1.00, 0.00, -0.00, -1.00, 50.5, 1.6)">b</text><text xml:space="preserve" font-family="GillSans,Gill Sans" font-size="20.0" fill="#FEFFFF" transform="matrix(1.00, 0.00, -0.00, -1.00, 60.5, 1.6)">l</text><text xml:space="preserve" font-family="GillSans,Gill Sans" font-size="20.0" fill="#FEFFFF" transform="matrix(1.00, 0.00, -0.00, -1.00, 64.9, 1.6)">a</text><text xml:space="preserve" font-family="GillSans,Gill Sans" font-size="20.0" fill="#FEFFFF" transform="matrix(1.00, 0.00, -0.00, -1.00, 73.4, 1.6)">c</text><text xml:space="preserve" font-family="GillSans,Gill Sans" font-size="20.0" fill="#FEFFFF" transform="matrix(1.00, 0.00, -0.00, -1.00, 82.1, 1.6)">k</text><text xml:space="preserve" font-family="GillSans,Gill Sans" font-size="20.0" fill="#FEFFFF" transform="matrix(1.00, 0.00, -0.00, -1.00, 91.7, 1.6)"> </text><text xml:space="preserve" font-family="GillSans,Gill Sans" font-size="20.0" fill="#FEFFFF" transform="matrix(1.00, 0.00, -0.00, -1.00, 97.3, 1.6)">a</text><text xml:space="preserve" font-family="GillSans,Gill Sans" font-size="20.0" fill="#FEFFFF" transform="matrix(1.00, 0.00, -0.00, -1.00, 105.8, 1.6)">r</text><text xml:space="preserve" font-family="GillSans,Gill Sans" font-size="20.0" fill="#FEFFFF" transform="matrix(1.00, 0.00, -0.00, -1.00, 113.5, 1.6)">r</text><text xml:space="preserve" font-family="GillSans,Gill Sans" font-size="20.0" fill="#FEFFFF" transform="matrix(1.00, 0.00, -0.00, -1.00, 121.0, 1.6)">o</text><text xml:space="preserve" font-family="GillSans,Gill Sans" font-size="20.0" fill="#FEFFFF" transform="matrix(1.00, 0.00, -0.00, -1.00, 131.8, 1.6)">w</text><text xml:space="preserve" font-family="GillSans,Gill Sans" font-size="20.0" fill="#FEFFFF" transform="matrix(1.00, 0.00, -0.00, -1.00, 146.2, 1.6)">s</text><text xml:space="preserve" font-family="GillSans,Gill Sans" font-size="20.0" fill="#FEFFFF" transform="matrix(1.00, 0.00, -0.00, -1.00, 153.9, 1.6)">.</text></g></svg>