<?xml version="1.0" encoding="UTF-8" standalone="no"?><svg xmlns="http://www.w3.org/2000/svg" xmlns:xlink="http://www.w3.org/1999/xlink" clip-rule="evenodd" stroke-miterlimit="10" viewBox="0 0 443 257"><desc>SVG generated by Keynote</desc><defs></defs><g transform="matrix(1.00, 0.00, -0.00, -1.00, 0.0, 257.0)"><text xml:space="preserve" font-family="GillSans-Light,Gill Sans" font-size="39.0" fill="#FEFFFE" transform="matrix(1.00, 0.00, -0.00, -1.00, 0.7, 221.9)">•</text><text xml:space="preserve" font-family="GillSans-Light,Gill Sans" font-size="47.5" fill="#FEFFFE" transform="matrix(1.00, 0.00, -0.00, -1.00, 43.2, 218.9)">W</text><text xml:space="preserve" font-family="GillSans-Light,Gill Sans" font-size="47.5" fill="#FEFFFE" transform="matrix(1.00, 0.00, -0.00, -1.00, 92.1, 218.9)">h</text><text xml:space="preserve" font-family="GillSans-Light,Gill Sans" font-size="47.5" fill="#FEFFFE" transform="matrix(1.00, 0.00, -0.00, -1.00, 115.4, 218.9)">e</text><text xml:space="preserve" font-family="GillSans-Light,Gill Sans" font-size="47.5" fill="#FEFFFE" transform="matrix(1.00, 0.00, -0.00, -1.00, 138.2, 218.9)">n</text><text xml:space="preserve" font-family="GillSans-Light,Gill Sans" font-size="47.5" fill="#FEFFFE" transform="matrix(1.00, 0.00, -0.00, -1.00, 161.5, 218.9)"> </text><text xml:space="preserve" font-family="GillSans-Light,Gill Sans" font-size="47.5" fill="#FEFFFE" transform="matrix(1.00, 0.00, -0.00, -1.00, 174.6, 218.9)">t</text><text xml:space="preserve" font-family="GillSans-Light,Gill Sans" font-size="47.5" fill="#FEFFFE" transform="matrix(1.00, 0.00, -0.00, -1.00, 189.0, 218.9)">h</text><text xml:space="preserve" font-family="GillSans-Light,Gill Sans" font-size="47.5" fill="#FEFFFE" transform="matrix(1.00, 0.00, -0.00, -1.00, 212.3, 218.9)">e</text><text xml:space="preserve" font-family="GillSans-Light,Gill Sans" font-size="47.5" fill="#FEFFFE" transform="matrix(1.00, 0.00, -0.00, -1.00, 235.0, 218.9)">r</text><text xml:space="preserve" font-family="GillSans-Light,Gill Sans" font-size="47.5" fill="#FEFFFE" transform="matrix(1.00, 0.00, -0.00, -1.00, 250.8, 218.9)">e</text><text xml:space="preserve" font-family="GillSans-Light,Gill Sans" font-size="47.5" fill="#FEFFFE" transform="matrix(1.00, 0.00, -0.00, -1.00, 273.6, 218.9)"> </text><text xml:space="preserve" font-family="GillSans-Light,Gill Sans" font-size="47.5" fill="#FEFFFE" transform="matrix(1.00, 0.00, -0.00, -1.00, 286.8, 218.9)">a</text><text xml:space="preserve" font-family="GillSans-Light,Gill Sans" font-size="47.5" fill="#FEFFFE" transform="matrix(1.00, 0.00, -0.00, -1.00, 307.0, 218.9)">r</text><text xml:space="preserve" font-family="GillSans-Light,Gill Sans" font-size="47.5" fill="#FEFFFE" transform="matrix(1.00, 0.00, -0.00, -1.00, 322.9, 218.9)">e</text><text xml:space="preserve" font-family="GillSans-Light,Gill Sans" font-size="47.5" fill="#FEFFFE" transform="matrix(1.00, 0.00, -0.00, -1.00, 345.6, 218.9)"> </text><text xml:space="preserve" font-family="GillSans-Light,Gill Sans" font-size="47.5" fill="#FEFFFE" transform="matrix(1.00, 0.00, -0.00, -1.00, 358.8, 218.9)">f</text><text xml:space="preserve" font-family="GillSans-Light,Gill Sans" font-size="47.5" fill="#FEFFFE" transform="matrix(1.00, 0.00, -0.00, -1.00, 369.5, 218.9)">e</text><text xml:space="preserve" font-family="GillSans-Light,Gill Sans" font-size="47.5" fill="#FEFFFE" transform="matrix(1.00, 0.00, -0.00, -1.00, 392.3, 218.9)">w</text><text xml:space="preserve" font-family="GillSans-Light,Gill Sans" font-size="47.5" fill="#FEFFFE" transform="matrix(1.00, 0.00, -0.00, -1.00, 425.9, 218.9)"> </text><text xml:space="preserve" font-family="GillSans-Light,Gill Sans" font-size="47.5" fill="#FEFFFE" transform="matrix(1.00, 0.00, -0.00, -1.00, 43.2, 164.9)">e</text><text xml:space="preserve" font-family="GillSans-Light,Gill Sans" font-size="47.5" fill="#FEFFFE" transform="matrix(1.00, 0.00, -0.00, -1.00, 65.9, 164.9)">l</text><text xml:space="preserve" font-family="GillSans-Light,Gill Sans" font-size="47.5" fill="#FEFFFE" transform="matrix(1.00, 0.00, -0.00, -1.00, 74.8, 164.9)">e</text><text xml:space="preserve" font-family="GillSans-Light,Gill Sans" font-size="47.5" fill="#FEFFFE" transform="matrix(1.00, 0.00, -0.00, -1.00, 97.6, 164.9)">m</text><text xml:space="preserve" font-family="GillSans-Light,Gill Sans" font-size="47.5" fill="#FEFFFE" transform="matrix(1.00, 0.00, -0.00, -1.00, 134.2, 164.9)">e</text><text xml:space="preserve" font-family="GillSans-Light,Gill Sans" font-size="47.5" fill="#FEFFFE" transform="matrix(1.00, 0.00, -0.00, -1.00, 157.0, 164.9)">n</text><text xml:space="preserve" font-family="GillSans-Light,Gill Sans" font-size="47.5" fill="#FEFFFE" transform="matrix(1.00, 0.00, -0.00, -1.00, 180.3, 164.9)">t</text><text xml:space="preserve" font-family="GillSans-Light,Gill Sans" font-size="47.5" fill="#FEFFFE" transform="matrix(1.00, 0.00, -0.00, -1.00, 194.6, 164.9)">s</text><text xml:space="preserve" font-family="GillSans-Light,Gill Sans" font-size="47.5" fill="#FEFFFE" transform="matrix(1.00, 0.00, -0.00, -1.00, 211.4, 164.9)">,</text><text xml:space="preserve" font-family="GillSans-Light,Gill Sans" font-size="47.5" fill="#FEFFFE" transform="matrix(1.00, 0.00, -0.00, -1.00, 216.0, 164.9)"> </text><text xml:space="preserve" font-family="GillSans-Light,Gill Sans" font-size="47.5" fill="#FEFFFE" transform="matrix(1.00, 0.00, -0.00, -1.00, 229.2, 164.9)">r</text><text xml:space="preserve" font-family="GillSans-Light,Gill Sans" font-size="47.5" fill="#FEFFFE" transform="matrix(1.00, 0.00, -0.00, -1.00, 245.0, 164.9)">e</text><text xml:space="preserve" font-family="GillSans-Light,Gill Sans" font-size="47.5" fill="#FEFFFE" transform="matrix(1.00, 0.00, -0.00, -1.00, 267.7, 164.9)">s</text><text xml:space="preserve" font-family="GillSans-Light,Gill Sans" font-size="47.5" fill="#FEFFFE" transform="matrix(1.00, 0.00, -0.00, -1.00, 284.6, 164.9)">p</text><text xml:space="preserve" font-family="GillSans-Light,Gill Sans" font-size="47.5" fill="#FEFFFE" transform="matrix(1.00, 0.00, -0.00, -1.00, 308.8, 164.9)">o</text><text xml:space="preserve" font-family="GillSans-Light,Gill Sans" font-size="47.5" fill="#FEFFFE" transform="matrix(1.00, 0.00, -0.00, -1.00, 334.5, 164.9)">n</text><text xml:space="preserve" font-family="GillSans-Light,Gill Sans" font-size="47.5" fill="#FEFFFE" transform="matrix(1.00, 0.00, -0.00, -1.00, 357.8, 164.9)">s</text><text xml:space="preserve" font-family="GillSans-Light,Gill Sans" font-size="47.5" fill="#FEFFFE" transform="matrix(1.00, 0.00, -0.00, -1.00, 374.6, 164.9)">e</text><text xml:space="preserve" font-family="GillSans-Light,Gill Sans" font-size="47.5" fill="#FEFFFE" transform="matrix(1.00, 0.00, -0.00, -1.00, 397.4, 164.9)">s</text><text xml:space="preserve" font-family="GillSans-Light,Gill Sans" font-size="47.5" fill="#FEFFFE" transform="matrix(1.00, 0.00, -0.00, -1.00, 414.2, 164.9)"> </text><text xml:space="preserve" font-family="GillSans-Light,Gill Sans" font-size="47.5" fill="#FEFFFE" transform="matrix(1.00, 0.00, -0.00, -1.00, 43.2, 110.9)">a</text><text xml:space="preserve" font-family="GillSans-Light,Gill Sans" font-size="47.5" fill="#FEFFFE" transform="matrix(1.00, 0.00, -0.00, -1.00, 63.4, 110.9)">r</text><text xml:space="preserve" font-family="GillSans-Light,Gill Sans" font-size="47.5" fill="#FEFFFE" transform="matrix(1.00, 0.00, -0.00, -1.00, 79.2, 110.9)">e</text><text xml:space="preserve" font-family="GillSans-Light,Gill Sans" font-size="47.5" fill="#FEFFFE" transform="matrix(1.00, 0.00, -0.00, -1.00, 102.0, 110.9)"> </text><text xml:space="preserve" font-family="GillSans-Light,Gill Sans" font-size="47.5" fill="#FEFFFE" transform="matrix(1.00, 0.00, -0.00, -1.00, 115.2, 110.9)">n</text><text xml:space="preserve" font-family="GillSans-Light,Gill Sans" font-size="47.5" fill="#FEFFFE" transform="matrix(1.00, 0.00, -0.00, -1.00, 138.5, 110.9)">o</text><text xml:space="preserve" font-family="GillSans-Light,Gill Sans" font-size="47.5" fill="#FEFFFE" transform="matrix(1.00, 0.00, -0.00, -1.00, 164.2, 110.9)">t</text><text xml:space="preserve" font-family="GillSans-Light,Gill Sans" font-size="47.5" fill="#FEFFFE" transform="matrix(1.00, 0.00, -0.00, -1.00, 178.5, 110.9)"> </text><text xml:space="preserve" font-family="GillSans-Light,Gill Sans" font-size="47.5" fill="#FEFFFE" transform="matrix(1.00, 0.00, -0.00, -1.00, 191.7, 110.9)">s</text><text xml:space="preserve" font-family="GillSans-Light,Gill Sans" font-size="47.5" fill="#FEFFFE" transform="matrix(1.00, 0.00, -0.00, -1.00, 208.6, 110.9)">e</text><text xml:space="preserve" font-family="GillSans-Light,Gill Sans" font-size="47.5" fill="#FEFFFE" transform="matrix(1.00, 0.00, -0.00, -1.00, 231.3, 110.9)">n</text><text xml:space="preserve" font-family="GillSans-Light,Gill Sans" font-size="47.5" fill="#FEFFFE" transform="matrix(1.00, 0.00, -0.00, -1.00, 254.6, 110.9)">s</text><text xml:space="preserve" font-family="GillSans-Light,Gill Sans" font-size="47.5" fill="#FEFFFE" transform="matrix(1.00, 0.00, -0.00, -1.00, 271.4, 110.9)">i</text><text xml:space="preserve" font-family="GillSans-Light,Gill Sans" font-size="47.5" fill="#FEFFFE" transform="matrix(1.00, 0.00, -0.00, -1.00, 280.3, 110.9)">t</text><text xml:space="preserve" font-family="GillSans-Light,Gill Sans" font-size="47.5" fill="#FEFFFE" transform="matrix(1.00, 0.00, -0.00, -1.00, 294.7, 110.9)">i</text><text xml:space="preserve" font-family="GillSans-Light,Gill Sans" font-size="47.5" fill="#FEFFFE" transform="matrix(1.00, 0.00, -0.00, -1.00, 303.6, 110.9)">v</text><text xml:space="preserve" font-family="GillSans-Light,Gill Sans" font-size="47.5" fill="#FEFFFE" transform="matrix(1.00, 0.00, -0.00, -1.00, 323.1, 110.9)">e</text><text xml:space="preserve" font-family="GillSans-Light,Gill Sans" font-size="47.5" fill="#FEFFFE" transform="matrix(1.00, 0.00, -0.00, -1.00, 345.9, 110.9)"> </text><text xml:space="preserve" font-family="GillSans-Light,Gill Sans" font-size="47.5" fill="#FEFFFE" transform="matrix(1.00, 0.00, -0.00, -1.00, 359.1, 110.9)">t</text><text xml:space="preserve" font-family="GillSans-Light,Gill Sans" font-size="47.5" fill="#FEFFFE" transform="matrix(1.00, 0.00, -0.00, -1.00, 373.4, 110.9)">o</text><text xml:space="preserve" font-family="GillSans-Light,Gill Sans" font-size="47.5" fill="#FEFFFE" transform="matrix(1.00, 0.00, -0.00, -1.00, 399.1, 110.9)"> </text><text xml:space="preserve" font-family="GillSans-Light,Gill Sans" font-size="47.5" fill="#FEFFFE" transform="matrix(1.00, 0.00, -0.00, -1.00, 43.2, 56.9)">c</text><text xml:space="preserve" font-family="GillSans-Light,Gill Sans" font-size="47.5" fill="#FEFFFE" transform="matrix(1.00, 0.00, -0.00, -1.00, 63.0, 56.9)">h</text><text xml:space="preserve" font-family="GillSans-Light,Gill Sans" font-size="47.5" fill="#FEFFFE" transform="matrix(1.00, 0.00, -0.00, -1.00, 86.3, 56.9)">a</text><text xml:space="preserve" font-family="GillSans-Light,Gill Sans" font-size="47.5" fill="#FEFFFE" transform="matrix(1.00, 0.00, -0.00, -1.00, 106.5, 56.9)">n</text><text xml:space="preserve" font-family="GillSans-Light,Gill Sans" font-size="47.5" fill="#FEFFFE" transform="matrix(1.00, 0.00, -0.00, -1.00, 129.8, 56.9)">g</text><text xml:space="preserve" font-family="GillSans-Light,Gill Sans" font-size="47.5" fill="#FEFFFE" transform="matrix(1.00, 0.00, -0.00, -1.00, 150.1, 56.9)">e</text><text xml:space="preserve" font-family="GillSans-Light,Gill Sans" font-size="47.5" fill="#FEFFFE" transform="matrix(1.00, 0.00, -0.00, -1.00, 172.8, 56.9)">s</text><text xml:space="preserve" font-family="GillSans-Light,Gill Sans" font-size="47.5" fill="#FEFFFE" transform="matrix(1.00, 0.00, -0.00, -1.00, 189.7, 56.9)"> </text><text xml:space="preserve" font-family="GillSans-Light,Gill Sans" font-size="47.5" fill="#FEFFFE" transform="matrix(1.00, 0.00, -0.00, -1.00, 202.8, 56.9)">i</text><text xml:space="preserve" font-family="GillSans-Light,Gill Sans" font-size="47.5" fill="#FEFFFE" transform="matrix(1.00, 0.00, -0.00, -1.00, 211.8, 56.9)">n</text><text xml:space="preserve" font-family="GillSans-Light,Gill Sans" font-size="47.5" fill="#FEFFFE" transform="matrix(1.00, 0.00, -0.00, -1.00, 235.1, 56.9)"> </text><text xml:space="preserve" font-family="GillSans-Light,Gill Sans" font-size="47.5" fill="#FEFFFE" transform="matrix(1.00, 0.00, -0.00, -1.00, 248.3, 56.9)">ﬁ</text><text xml:space="preserve" font-family="GillSans-Light,Gill Sans" font-size="47.5" fill="#FEFFFE" transform="matrix(1.00, 0.00, -0.00, -1.00, 271.0, 56.9)">r</text><text xml:space="preserve" font-family="GillSans-Light,Gill Sans" font-size="47.5" fill="#FEFFFE" transform="matrix(1.00, 0.00, -0.00, -1.00, 288.7, 56.9)">s</text><text xml:space="preserve" font-family="GillSans-Light,Gill Sans" font-size="47.5" fill="#FEFFFE" transform="matrix(1.00, 0.00, -0.00, -1.00, 305.5, 56.9)">t</text><text xml:space="preserve" font-family="GillSans-Light,Gill Sans" font-size="47.5" fill="#FEFFFE" transform="matrix(1.00, 0.00, -0.00, -1.00, 319.9, 56.9)">-</text><text xml:space="preserve" font-family="GillSans-Light,Gill Sans" font-size="47.5" fill="#FEFFFE" transform="matrix(1.00, 0.00, -0.00, -1.00, 334.7, 56.9)">o</text><text xml:space="preserve" font-family="GillSans-Light,Gill Sans" font-size="47.5" fill="#FEFFFE" transform="matrix(1.00, 0.00, -0.00, -1.00, 360.5, 56.9)">r</text><text xml:space="preserve" font-family="GillSans-Light,Gill Sans" font-size="47.5" fill="#FEFFFE" transform="matrix(1.00, 0.00, -0.00, -1.00, 376.3, 56.9)">d</text><text xml:space="preserve" font-family="GillSans-Light,Gill Sans" font-size="47.5" fill="#FEFFFE" transform="matrix(1.00, 0.00, -0.00, -1.00, 400.5, 56.9)">e</text><text xml:space="preserve" font-family="GillSans-Light,Gill Sans" font-size="47.5" fill="#FEFFFE" transform="matrix(1.00, 0.00, -0.00, -1.00, 423.2, 56.9)">r</text><text xml:space="preserve" font-family="GillSans-Light,Gill Sans" font-size="47.5" fill="#FEFFFE" transform="matrix(1.00, 0.00, -0.00, -1.00, 439.1, 56.9)"> </text><text xml:space="preserve" font-family="GillSans-Light,Gill Sans" font-size="47.5" fill="#FEFFFE" transform="matrix(1.00, 0.00, -0.00, -1.00, 43.2, 2.9)">m</text><text xml:space="preserve" font-family="GillSans-Light,Gill Sans" font-size="47.5" fill="#FEFFFE" transform="matrix(1.00, 0.00, -0.00, -1.00, 79.8, 2.9)">o</text><text xml:space="preserve" font-family="GillSans-Light,Gill Sans" font-size="47.5" fill="#FEFFFE" transform="matrix(1.00, 0.00, -0.00, -1.00, 105.5, 2.9)">t</text><text xml:space="preserve" font-family="GillSans-Light,Gill Sans" font-size="47.5" fill="#FEFFFE" transform="matrix(1.00, 0.00, -0.00, -1.00, 119.9, 2.9)">i</text><text xml:space="preserve" font-family="GillSans-Light,Gill Sans" font-size="47.5" fill="#FEFFFE" transform="matrix(1.00, 0.00, -0.00, -1.00, 128.8, 2.9)">o</text><text xml:space="preserve" font-family="GillSans-Light,Gill Sans" font-size="47.5" fill="#FEFFFE" transform="matrix(1.00, 0.00, -0.00, -1.00, 154.5, 2.9)">n</text><text xml:space="preserve" font-family="GillSans-Light,Gill Sans" font-size="47.5" fill="#FEFFFE" transform="matrix(1.00, 0.00, -0.00, -1.00, 177.8, 2.9)">.</text></g></svg>