<?xml version="1.0" encoding="UTF-8" standalone="no"?><svg xmlns="http://www.w3.org/2000/svg" xmlns:xlink="http://www.w3.org/1999/xlink" clip-rule="evenodd" stroke-miterlimit="10" viewBox="0 0 170 18"><desc>SVG generated by Keynote</desc><defs></defs><g transform="matrix(1.00, 0.00, -0.00, -1.00, 0.0, 18.0)"><text xml:space="preserve" font-family="GillSans,Gill Sans" font-size="23.0" fill="#FEFFFF" transform="matrix(1.00, 0.00, -0.00, -1.00, 0.4, 1.3)">c</text><text xml:space="preserve" font-family="GillSans,Gill Sans" font-size="23.0" fill="#FEFFFF" transform="matrix(1.00, 0.00, -0.00, -1.00, 10.5, 1.3)">o</text><text xml:space="preserve" font-family="GillSans,Gill Sans" font-size="23.0" fill="#FEFFFF" transform="matrix(1.00, 0.00, -0.00, -1.00, 23.2, 1.3)">u</text><text xml:space="preserve" font-family="GillSans,Gill Sans" font-size="23.0" fill="#FEFFFF" transform="matrix(1.00, 0.00, -0.00, -1.00, 34.7, 1.3)">n</text><text xml:space="preserve" font-family="GillSans,Gill Sans" font-size="23.0" fill="#FEFFFF" transform="matrix(1.00, 0.00, -0.00, -1.00, 46.2, 1.3)">t</text><text xml:space="preserve" font-family="GillSans,Gill Sans" font-size="23.0" fill="#FEFFFF" transform="matrix(1.00, 0.00, -0.00, -1.00, 53.8, 1.3)">e</text><text xml:space="preserve" font-family="GillSans,Gill Sans" font-size="23.0" fill="#FEFFFF" transform="matrix(1.00, 0.00, -0.00, -1.00, 64.8, 1.3)">r</text><text xml:space="preserve" font-family="GillSans,Gill Sans" font-size="23.0" fill="#FEFFFF" transform="matrix(1.00, 0.00, -0.00, -1.00, 73.4, 1.3)">c</text><text xml:space="preserve" font-family="GillSans,Gill Sans" font-size="23.0" fill="#FEFFFF" transform="matrix(1.00, 0.00, -0.00, -1.00, 83.4, 1.3)">l</text><text xml:space="preserve" font-family="GillSans,Gill Sans" font-size="23.0" fill="#FEFFFF" transform="matrix(1.00, 0.00, -0.00, -1.00, 88.5, 1.3)">o</text><text xml:space="preserve" font-family="GillSans,Gill Sans" font-size="23.0" fill="#FEFFFF" transform="matrix(1.00, 0.00, -0.00, -1.00, 101.2, 1.3)">c</text><text xml:space="preserve" font-family="GillSans,Gill Sans" font-size="23.0" fill="#FEFFFF" transform="matrix(1.00, 0.00, -0.00, -1.00, 111.3, 1.3)">k</text><text xml:space="preserve" font-family="GillSans,Gill Sans" font-size="23.0" fill="#FEFFFF" transform="matrix(1.00, 0.00, -0.00, -1.00, 122.3, 1.3)">w</text><text xml:space="preserve" font-family="GillSans,Gill Sans" font-size="23.0" fill="#FEFFFF" transform="matrix(1.00, 0.00, -0.00, -1.00, 138.8, 1.3)">i</text><text xml:space="preserve" font-family="GillSans,Gill Sans" font-size="23.0" fill="#FEFFFF" transform="matrix(1.00, 0.00, -0.00, -1.00, 143.9, 1.3)">s</text><text xml:space="preserve" font-family="GillSans,Gill Sans" font-size="23.0" fill="#FEFFFF" transform="matrix(1.00, 0.00, -0.00, -1.00, 152.7, 1.3)">e</text><text xml:space="preserve" font-family="GillSans,Gill Sans" font-size="23.0" fill="#FEFFFF" transform="matrix(1.00, 0.00, -0.00, -1.00, 164.2, 1.3)">.</text></g></svg>