<?xml version="1.0" encoding="UTF-8" standalone="no"?><svg xmlns="http://www.w3.org/2000/svg" xmlns:xlink="http://www.w3.org/1999/xlink" clip-rule="evenodd" stroke-miterlimit="10" viewBox="0 0 468 24"><desc>SVG generated by Keynote</desc><defs></defs><g transform="matrix(1.00, 0.00, -0.00, -1.00, 0.0, 24.0)"><text xml:space="preserve" font-family="GillSans,Gill Sans" font-size="23.0" fill="#FEFFFF" transform="matrix(1.00, 0.00, -0.00, -1.00, 0.0, 6.3)">b</text><text xml:space="preserve" font-family="GillSans,Gill Sans" font-size="23.0" fill="#FEFFFF" transform="matrix(1.00, 0.00, -0.00, -1.00, 11.3, 6.3)">y</text><text xml:space="preserve" font-family="GillSans,Gill Sans" font-size="23.0" fill="#FEFFFF" transform="matrix(1.00, 0.00, -0.00, -1.00, 21.3, 6.3)"> </text><text xml:space="preserve" font-family="GillSans,Gill Sans" font-size="23.0" fill="#FEFFFF" transform="matrix(1.00, 0.00, -0.00, -1.00, 27.7, 6.3)">a</text><text xml:space="preserve" font-family="GillSans,Gill Sans" font-size="23.0" fill="#FEFFFF" transform="matrix(1.00, 0.00, -0.00, -1.00, 37.5, 6.3)"> </text><text xml:space="preserve" font-family="GillSans,Gill Sans" font-size="23.0" fill="#FEFFFF" transform="matrix(1.00, 0.00, -0.00, -1.00, 43.9, 6.3)">u</text><text xml:space="preserve" font-family="GillSans,Gill Sans" font-size="23.0" fill="#FEFFFF" transform="matrix(1.00, 0.00, -0.00, -1.00, 55.4, 6.3)">n</text><text xml:space="preserve" font-family="GillSans,Gill Sans" font-size="23.0" fill="#FEFFFF" transform="matrix(1.00, 0.00, -0.00, -1.00, 66.9, 6.3)">i</text><text xml:space="preserve" font-family="GillSans,Gill Sans" font-size="23.0" fill="#FEFFFF" transform="matrix(1.00, 0.00, -0.00, -1.00, 72.0, 6.3)">t</text><text xml:space="preserve" font-family="GillSans,Gill Sans" font-size="23.0" fill="#FEFFFF" transform="matrix(1.00, 0.00, -0.00, -1.00, 79.6, 6.3)"> </text><text xml:space="preserve" font-family="GillSans,Gill Sans" font-size="23.0" fill="#FEFFFF" transform="matrix(1.00, 0.00, -0.00, -1.00, 86.0, 6.3)">i</text><text xml:space="preserve" font-family="GillSans,Gill Sans" font-size="23.0" fill="#FEFFFF" transform="matrix(1.00, 0.00, -0.00, -1.00, 91.1, 6.3)">n</text><text xml:space="preserve" font-family="GillSans,Gill Sans" font-size="23.0" fill="#FEFFFF" transform="matrix(1.00, 0.00, -0.00, -1.00, 102.6, 6.3)">c</text><text xml:space="preserve" font-family="GillSans,Gill Sans" font-size="23.0" fill="#FEFFFF" transform="matrix(1.00, 0.00, -0.00, -1.00, 112.6, 6.3)">r</text><text xml:space="preserve" font-family="GillSans,Gill Sans" font-size="23.0" fill="#FEFFFF" transform="matrix(1.00, 0.00, -0.00, -1.00, 121.3, 6.3)">e</text><text xml:space="preserve" font-family="GillSans,Gill Sans" font-size="23.0" fill="#FEFFFF" transform="matrix(1.00, 0.00, -0.00, -1.00, 132.3, 6.3)">m</text><text xml:space="preserve" font-family="GillSans,Gill Sans" font-size="23.0" fill="#FEFFFF" transform="matrix(1.00, 0.00, -0.00, -1.00, 150.0, 6.3)">e</text><text xml:space="preserve" font-family="GillSans,Gill Sans" font-size="23.0" fill="#FEFFFF" transform="matrix(1.00, 0.00, -0.00, -1.00, 161.1, 6.3)">n</text><text xml:space="preserve" font-family="GillSans,Gill Sans" font-size="23.0" fill="#FEFFFF" transform="matrix(1.00, 0.00, -0.00, -1.00, 172.6, 6.3)">t</text><text xml:space="preserve" font-family="GillSans,Gill Sans" font-size="23.0" fill="#FEFFFF" transform="matrix(1.00, 0.00, -0.00, -1.00, 180.2, 6.3)"> </text><text xml:space="preserve" font-family="GillSans,Gill Sans" font-size="23.0" fill="#FEFFFF" transform="matrix(1.00, 0.00, -0.00, -1.00, 186.6, 6.3)">o</text><text xml:space="preserve" font-family="GillSans,Gill Sans" font-size="23.0" fill="#FEFFFF" transform="matrix(1.00, 0.00, -0.00, -1.00, 199.3, 6.3)">f</text><text xml:space="preserve" font-family="GillSans,Gill Sans" font-size="23.0" fill="#FEFFFF" transform="matrix(1.00, 0.00, -0.00, -1.00, 205.0, 6.3)"> </text><text xml:space="preserve" font-family="GillSans,Gill Sans" font-size="23.0" fill="#FEFFFF" transform="matrix(1.00, 0.00, -0.00, -1.00, 211.4, 6.3)">ï¬</text><text xml:space="preserve" font-family="GillSans,Gill Sans" font-size="23.0" fill="#FEFFFF" transform="matrix(1.00, 0.00, -0.00, -1.00, 222.9, 6.3)">r</text><text xml:space="preserve" font-family="GillSans,Gill Sans" font-size="23.0" fill="#FEFFFF" transform="matrix(1.00, 0.00, -0.00, -1.00, 232.0, 6.3)">s</text><text xml:space="preserve" font-family="GillSans,Gill Sans" font-size="23.0" fill="#FEFFFF" transform="matrix(1.00, 0.00, -0.00, -1.00, 240.9, 6.3)">t</text><text xml:space="preserve" font-family="GillSans,Gill Sans" font-size="23.0" fill="#FEFFFF" transform="matrix(1.00, 0.00, -0.00, -1.00, 248.5, 6.3)">-</text><text xml:space="preserve" font-family="GillSans,Gill Sans" font-size="23.0" fill="#FEFFFF" transform="matrix(1.00, 0.00, -0.00, -1.00, 256.0, 6.3)">o</text><text xml:space="preserve" font-family="GillSans,Gill Sans" font-size="23.0" fill="#FEFFFF" transform="matrix(1.00, 0.00, -0.00, -1.00, 268.7, 6.3)">r</text><text xml:space="preserve" font-family="GillSans,Gill Sans" font-size="23.0" fill="#FEFFFF" transform="matrix(1.00, 0.00, -0.00, -1.00, 277.4, 6.3)">d</text><text xml:space="preserve" font-family="GillSans,Gill Sans" font-size="23.0" fill="#FEFFFF" transform="matrix(1.00, 0.00, -0.00, -1.00, 289.1, 6.3)">e</text><text xml:space="preserve" font-family="GillSans,Gill Sans" font-size="23.0" fill="#FEFFFF" transform="matrix(1.00, 0.00, -0.00, -1.00, 300.2, 6.3)">r</text><text xml:space="preserve" font-family="GillSans,Gill Sans" font-size="23.0" fill="#FEFFFF" transform="matrix(1.00, 0.00, -0.00, -1.00, 309.3, 6.3)"> </text><text xml:space="preserve" font-family="GillSans,Gill Sans" font-size="23.0" fill="#FEFFFF" transform="matrix(1.00, 0.00, -0.00, -1.00, 315.7, 6.3)">m</text><text xml:space="preserve" font-family="GillSans,Gill Sans" font-size="23.0" fill="#FEFFFF" transform="matrix(1.00, 0.00, -0.00, -1.00, 333.4, 6.3)">o</text><text xml:space="preserve" font-family="GillSans,Gill Sans" font-size="23.0" fill="#FEFFFF" transform="matrix(1.00, 0.00, -0.00, -1.00, 346.1, 6.3)">t</text><text xml:space="preserve" font-family="GillSans,Gill Sans" font-size="23.0" fill="#FEFFFF" transform="matrix(1.00, 0.00, -0.00, -1.00, 353.7, 6.3)">i</text><text xml:space="preserve" font-family="GillSans,Gill Sans" font-size="23.0" fill="#FEFFFF" transform="matrix(1.00, 0.00, -0.00, -1.00, 358.8, 6.3)">o</text><text xml:space="preserve" font-family="GillSans,Gill Sans" font-size="23.0" fill="#FEFFFF" transform="matrix(1.00, 0.00, -0.00, -1.00, 371.5, 6.3)">n</text><text xml:space="preserve" font-family="GillSans,Gill Sans" font-size="23.0" fill="#FEFFFF" transform="matrix(1.00, 0.00, -0.00, -1.00, 383.0, 6.3)">,</text><text xml:space="preserve" font-family="GillSans,Gill Sans" font-size="23.0" fill="#FEFFFF" transform="matrix(1.00, 0.00, -0.00, -1.00, 385.7, 6.3)"> </text><text xml:space="preserve" font-family="GillSans,Gill Sans" font-size="23.0" fill="#FEFFFF" transform="matrix(1.00, 0.00, -0.00, -1.00, 392.1, 6.3)">f</text><text xml:space="preserve" font-family="GillSans,Gill Sans" font-size="23.0" fill="#FEFFFF" transform="matrix(1.00, 0.00, -0.00, -1.00, 397.6, 6.3)">o</text><text xml:space="preserve" font-family="GillSans,Gill Sans" font-size="23.0" fill="#FEFFFF" transform="matrix(1.00, 0.00, -0.00, -1.00, 410.3, 6.3)">r</text><text xml:space="preserve" font-family="GillSans,Gill Sans" font-size="23.0" fill="#FEFFFF" transform="matrix(1.00, 0.00, -0.00, -1.00, 419.4, 6.3)"> </text><text xml:space="preserve" font-family="GillSans,Gill Sans" font-size="23.0" fill="#FEFFFF" transform="matrix(1.00, 0.00, -0.00, -1.00, 425.8, 6.3)">e</text><text xml:space="preserve" font-family="GillSans,Gill Sans" font-size="23.0" fill="#FEFFFF" transform="matrix(1.00, 0.00, -0.00, -1.00, 436.8, 6.3)">a</text><text xml:space="preserve" font-family="GillSans,Gill Sans" font-size="23.0" fill="#FEFFFF" transform="matrix(1.00, 0.00, -0.00, -1.00, 446.6, 6.3)">c</text><text xml:space="preserve" font-family="GillSans,Gill Sans" font-size="23.0" fill="#FEFFFF" transform="matrix(1.00, 0.00, -0.00, -1.00, 456.7, 6.3)">h</text></g></svg>