<?xml version="1.0" encoding="UTF-8" standalone="no"?><svg xmlns="http://www.w3.org/2000/svg" xmlns:xlink="http://www.w3.org/1999/xlink" clip-rule="evenodd" stroke-miterlimit="10" viewBox="0 0 295 39"><desc>SVG generated by Keynote</desc><defs></defs><g transform="matrix(1.00, 0.00, -0.00, -1.00, 0.0, 39.0)"><text xml:space="preserve" font-family="GillSans-Light,Gill Sans" font-size="50.0" fill="#FEFFFE" transform="matrix(1.00, 0.00, -0.00, -1.00, -1.3, 2.6)">i</text><text xml:space="preserve" font-family="GillSans-Light,Gill Sans" font-size="50.0" fill="#FEFFFE" transform="matrix(1.00, 0.00, -0.00, -1.00, 8.1, 2.6)">n</text><text xml:space="preserve" font-family="GillSans-Light,Gill Sans" font-size="50.0" fill="#FEFFFE" transform="matrix(1.00, 0.00, -0.00, -1.00, 32.7, 2.6)">c</text><text xml:space="preserve" font-family="GillSans-Light,Gill Sans" font-size="50.0" fill="#FEFFFE" transform="matrix(1.00, 0.00, -0.00, -1.00, 53.5, 2.6)">r</text><text xml:space="preserve" font-family="GillSans-Light,Gill Sans" font-size="50.0" fill="#FEFFFE" transform="matrix(1.00, 0.00, -0.00, -1.00, 70.2, 2.6)">e</text><text xml:space="preserve" font-family="GillSans-Light,Gill Sans" font-size="50.0" fill="#FEFFFE" transform="matrix(1.00, 0.00, -0.00, -1.00, 94.1, 2.6)">a</text><text xml:space="preserve" font-family="GillSans-Light,Gill Sans" font-size="50.0" fill="#FEFFFE" transform="matrix(1.00, 0.00, -0.00, -1.00, 115.4, 2.6)">s</text><text xml:space="preserve" font-family="GillSans-Light,Gill Sans" font-size="50.0" fill="#FEFFFE" transform="matrix(1.00, 0.00, -0.00, -1.00, 133.1, 2.6)">e</text><text xml:space="preserve" font-family="GillSans-Light,Gill Sans" font-size="50.0" fill="#FEFFFE" transform="matrix(1.00, 0.00, -0.00, -1.00, 157.1, 2.6)">s</text><text xml:space="preserve" font-family="GillSans-Light,Gill Sans" font-size="50.0" fill="#FEFFFE" transform="matrix(1.00, 0.00, -0.00, -1.00, 174.8, 2.6)"> </text><text xml:space="preserve" font-family="GillSans-Light,Gill Sans" font-size="50.0" fill="#FEFFFE" transform="matrix(1.00, 0.00, -0.00, -1.00, 188.7, 2.6)">w</text><text xml:space="preserve" font-family="GillSans-Light,Gill Sans" font-size="50.0" fill="#FEFFFE" transform="matrix(1.00, 0.00, -0.00, -1.00, 224.1, 2.6)">h</text><text xml:space="preserve" font-family="GillSans-Light,Gill Sans" font-size="50.0" fill="#FEFFFE" transform="matrix(1.00, 0.00, -0.00, -1.00, 248.6, 2.6)">e</text><text xml:space="preserve" font-family="GillSans-Light,Gill Sans" font-size="50.0" fill="#FEFFFE" transform="matrix(1.00, 0.00, -0.00, -1.00, 272.5, 2.6)">n</text></g></svg>