<?xml version="1.0" encoding="UTF-8" standalone="no"?><svg xmlns="http://www.w3.org/2000/svg" xmlns:xlink="http://www.w3.org/1999/xlink" clip-rule="evenodd" stroke-miterlimit="10" viewBox="0 0 428 45"><desc>SVG generated by Keynote</desc><defs></defs><g transform="matrix(1.00, 0.00, -0.00, -1.00, 0.0, 45.0)"><text xml:space="preserve" font-family="GillSans-Light,Gill Sans" font-size="39.0" fill="#FEFFFE" transform="matrix(1.00, 0.00, -0.00, -1.00, 0.7, 9.9)">•</text><text xml:space="preserve" font-family="GillSans-Light,Gill Sans" font-size="47.5" fill="#FEFFFE" transform="matrix(1.00, 0.00, -0.00, -1.00, 43.2, 6.9)">W</text><text xml:space="preserve" font-family="GillSans-Light,Gill Sans" font-size="47.5" fill="#FEFFFE" transform="matrix(1.00, 0.00, -0.00, -1.00, 92.1, 6.9)">h</text><text xml:space="preserve" font-family="GillSans-Light,Gill Sans" font-size="47.5" fill="#FEFFFE" transform="matrix(1.00, 0.00, -0.00, -1.00, 115.4, 6.9)">e</text><text xml:space="preserve" font-family="GillSans-Light,Gill Sans" font-size="47.5" fill="#FEFFFE" transform="matrix(1.00, 0.00, -0.00, -1.00, 138.2, 6.9)">n</text><text xml:space="preserve" font-family="GillSans-Light,Gill Sans" font-size="47.5" fill="#FEFFFE" transform="matrix(1.00, 0.00, -0.00, -1.00, 161.5, 6.9)"> </text><text xml:space="preserve" font-family="GillSans-Light,Gill Sans" font-size="47.5" fill="#FEFFFE" transform="matrix(1.00, 0.00, -0.00, -1.00, 174.6, 6.9)">t</text><text xml:space="preserve" font-family="GillSans-Light,Gill Sans" font-size="47.5" fill="#FEFFFE" transform="matrix(1.00, 0.00, -0.00, -1.00, 189.0, 6.9)">h</text><text xml:space="preserve" font-family="GillSans-Light,Gill Sans" font-size="47.5" fill="#FEFFFE" transform="matrix(1.00, 0.00, -0.00, -1.00, 212.3, 6.9)">e</text><text xml:space="preserve" font-family="GillSans-Light,Gill Sans" font-size="47.5" fill="#FEFFFE" transform="matrix(1.00, 0.00, -0.00, -1.00, 235.0, 6.9)">r</text><text xml:space="preserve" font-family="GillSans-Light,Gill Sans" font-size="47.5" fill="#FEFFFE" transform="matrix(1.00, 0.00, -0.00, -1.00, 250.8, 6.9)">e</text><text xml:space="preserve" font-family="GillSans-Light,Gill Sans" font-size="47.5" fill="#FEFFFE" transform="matrix(1.00, 0.00, -0.00, -1.00, 273.6, 6.9)"> </text><text xml:space="preserve" font-family="GillSans-Light,Gill Sans" font-size="47.5" fill="#FEFFFE" transform="matrix(1.00, 0.00, -0.00, -1.00, 286.8, 6.9)">a</text><text xml:space="preserve" font-family="GillSans-Light,Gill Sans" font-size="47.5" fill="#FEFFFE" transform="matrix(1.00, 0.00, -0.00, -1.00, 307.0, 6.9)">r</text><text xml:space="preserve" font-family="GillSans-Light,Gill Sans" font-size="47.5" fill="#FEFFFE" transform="matrix(1.00, 0.00, -0.00, -1.00, 322.9, 6.9)">e</text><text xml:space="preserve" font-family="GillSans-Light,Gill Sans" font-size="47.5" fill="#FEFFFE" transform="matrix(1.00, 0.00, -0.00, -1.00, 345.6, 6.9)"> </text><text xml:space="preserve" font-family="GillSans-Light,Gill Sans" font-size="47.5" fill="#FEFFFE" transform="matrix(1.00, 0.00, -0.00, -1.00, 358.8, 6.9)">f</text><text xml:space="preserve" font-family="GillSans-Light,Gill Sans" font-size="47.5" fill="#FEFFFE" transform="matrix(1.00, 0.00, -0.00, -1.00, 369.5, 6.9)">e</text><text xml:space="preserve" font-family="GillSans-Light,Gill Sans" font-size="47.5" fill="#FEFFFE" transform="matrix(1.00, 0.00, -0.00, -1.00, 392.3, 6.9)">w</text></g></svg>