<?xml version="1.0" encoding="UTF-8" standalone="no"?><svg xmlns="http://www.w3.org/2000/svg" xmlns:xlink="http://www.w3.org/1999/xlink" clip-rule="evenodd" stroke-miterlimit="10" viewBox="0 0 372 47"><desc>SVG generated by Keynote</desc><defs></defs><g transform="matrix(1.00, 0.00, -0.00, -1.00, 0.0, 47.0)"><text xml:space="preserve" font-family="GillSans-Light,Gill Sans" font-size="47.5" fill="#FEFFFE" transform="matrix(1.00, 0.00, -0.00, -1.00, 0.2, 12.9)">e</text><text xml:space="preserve" font-family="GillSans-Light,Gill Sans" font-size="47.5" fill="#FEFFFE" transform="matrix(1.00, 0.00, -0.00, -1.00, 22.9, 12.9)">l</text><text xml:space="preserve" font-family="GillSans-Light,Gill Sans" font-size="47.5" fill="#FEFFFE" transform="matrix(1.00, 0.00, -0.00, -1.00, 31.8, 12.9)">e</text><text xml:space="preserve" font-family="GillSans-Light,Gill Sans" font-size="47.5" fill="#FEFFFE" transform="matrix(1.00, 0.00, -0.00, -1.00, 54.6, 12.9)">m</text><text xml:space="preserve" font-family="GillSans-Light,Gill Sans" font-size="47.5" fill="#FEFFFE" transform="matrix(1.00, 0.00, -0.00, -1.00, 91.2, 12.9)">e</text><text xml:space="preserve" font-family="GillSans-Light,Gill Sans" font-size="47.5" fill="#FEFFFE" transform="matrix(1.00, 0.00, -0.00, -1.00, 114.0, 12.9)">n</text><text xml:space="preserve" font-family="GillSans-Light,Gill Sans" font-size="47.5" fill="#FEFFFE" transform="matrix(1.00, 0.00, -0.00, -1.00, 137.3, 12.9)">t</text><text xml:space="preserve" font-family="GillSans-Light,Gill Sans" font-size="47.5" fill="#FEFFFE" transform="matrix(1.00, 0.00, -0.00, -1.00, 151.6, 12.9)">s</text><text xml:space="preserve" font-family="GillSans-Light,Gill Sans" font-size="47.5" fill="#FEFFFE" transform="matrix(1.00, 0.00, -0.00, -1.00, 168.4, 12.9)">,</text><text xml:space="preserve" font-family="GillSans-Light,Gill Sans" font-size="47.5" fill="#FEFFFE" transform="matrix(1.00, 0.00, -0.00, -1.00, 173.0, 12.9)"> </text><text xml:space="preserve" font-family="GillSans-Light,Gill Sans" font-size="47.5" fill="#FEFFFE" transform="matrix(1.00, 0.00, -0.00, -1.00, 186.2, 12.9)">r</text><text xml:space="preserve" font-family="GillSans-Light,Gill Sans" font-size="47.5" fill="#FEFFFE" transform="matrix(1.00, 0.00, -0.00, -1.00, 202.0, 12.9)">e</text><text xml:space="preserve" font-family="GillSans-Light,Gill Sans" font-size="47.5" fill="#FEFFFE" transform="matrix(1.00, 0.00, -0.00, -1.00, 224.7, 12.9)">s</text><text xml:space="preserve" font-family="GillSans-Light,Gill Sans" font-size="47.5" fill="#FEFFFE" transform="matrix(1.00, 0.00, -0.00, -1.00, 241.6, 12.9)">p</text><text xml:space="preserve" font-family="GillSans-Light,Gill Sans" font-size="47.5" fill="#FEFFFE" transform="matrix(1.00, 0.00, -0.00, -1.00, 265.8, 12.9)">o</text><text xml:space="preserve" font-family="GillSans-Light,Gill Sans" font-size="47.5" fill="#FEFFFE" transform="matrix(1.00, 0.00, -0.00, -1.00, 291.5, 12.9)">n</text><text xml:space="preserve" font-family="GillSans-Light,Gill Sans" font-size="47.5" fill="#FEFFFE" transform="matrix(1.00, 0.00, -0.00, -1.00, 314.8, 12.9)">s</text><text xml:space="preserve" font-family="GillSans-Light,Gill Sans" font-size="47.5" fill="#FEFFFE" transform="matrix(1.00, 0.00, -0.00, -1.00, 331.6, 12.9)">e</text><text xml:space="preserve" font-family="GillSans-Light,Gill Sans" font-size="47.5" fill="#FEFFFE" transform="matrix(1.00, 0.00, -0.00, -1.00, 354.4, 12.9)">s</text></g></svg>