<?xml version="1.0" encoding="UTF-8" standalone="no"?><svg xmlns="http://www.w3.org/2000/svg" xmlns:xlink="http://www.w3.org/1999/xlink" clip-rule="evenodd" stroke-miterlimit="10" viewBox="0 0 410 47"><desc>SVG generated by Keynote</desc><defs></defs><g transform="matrix(1.00, 0.00, -0.00, -1.00, 0.0, 47.0)"><text xml:space="preserve" font-family="GillSans-Light,Gill Sans" font-size="47.5" fill="#FEFFFE" transform="matrix(1.00, 0.00, -0.00, -1.00, -0.8, 12.8)">m</text><text xml:space="preserve" font-family="GillSans-Light,Gill Sans" font-size="47.5" fill="#FEFFFE" transform="matrix(1.00, 0.00, -0.00, -1.00, 35.8, 12.8)">o</text><text xml:space="preserve" font-family="GillSans-Light,Gill Sans" font-size="47.5" fill="#FEFFFE" transform="matrix(1.00, 0.00, -0.00, -1.00, 61.5, 12.8)">t</text><text xml:space="preserve" font-family="GillSans-Light,Gill Sans" font-size="47.5" fill="#FEFFFE" transform="matrix(1.00, 0.00, -0.00, -1.00, 75.9, 12.8)">i</text><text xml:space="preserve" font-family="GillSans-Light,Gill Sans" font-size="47.5" fill="#FEFFFE" transform="matrix(1.00, 0.00, -0.00, -1.00, 84.8, 12.8)">o</text><text xml:space="preserve" font-family="GillSans-Light,Gill Sans" font-size="47.5" fill="#FEFFFE" transform="matrix(1.00, 0.00, -0.00, -1.00, 110.5, 12.8)">n</text><text xml:space="preserve" font-family="GillSans-Light,Gill Sans" font-size="47.5" fill="#FEFFFE" transform="matrix(1.00, 0.00, -0.00, -1.00, 133.8, 12.8)"> </text><text xml:space="preserve" font-family="GillSans-Light,Gill Sans" font-size="47.5" fill="#FEFFFE" transform="matrix(1.00, 0.00, -0.00, -1.00, 147.0, 12.8)">c</text><text xml:space="preserve" font-family="GillSans-Light,Gill Sans" font-size="47.5" fill="#FEFFFE" transform="matrix(1.00, 0.00, -0.00, -1.00, 166.8, 12.8)">a</text><text xml:space="preserve" font-family="GillSans-Light,Gill Sans" font-size="47.5" fill="#FEFFFE" transform="matrix(1.00, 0.00, -0.00, -1.00, 187.1, 12.8)">u</text><text xml:space="preserve" font-family="GillSans-Light,Gill Sans" font-size="47.5" fill="#FEFFFE" transform="matrix(1.00, 0.00, -0.00, -1.00, 210.4, 12.8)">s</text><text xml:space="preserve" font-family="GillSans-Light,Gill Sans" font-size="47.5" fill="#FEFFFE" transform="matrix(1.00, 0.00, -0.00, -1.00, 227.2, 12.8)">e</text><text xml:space="preserve" font-family="GillSans-Light,Gill Sans" font-size="47.5" fill="#FEFFFE" transform="matrix(1.00, 0.00, -0.00, -1.00, 249.9, 12.8)"> </text><text xml:space="preserve" font-family="GillSans-Light,Gill Sans" font-size="47.5" fill="#FEFFFE" transform="matrix(1.00, 0.00, -0.00, -1.00, 263.1, 12.8)">c</text><text xml:space="preserve" font-family="GillSans-Light,Gill Sans" font-size="47.5" fill="#FEFFFE" transform="matrix(1.00, 0.00, -0.00, -1.00, 282.9, 12.8)">h</text><text xml:space="preserve" font-family="GillSans-Light,Gill Sans" font-size="47.5" fill="#FEFFFE" transform="matrix(1.00, 0.00, -0.00, -1.00, 306.2, 12.8)">a</text><text xml:space="preserve" font-family="GillSans-Light,Gill Sans" font-size="47.5" fill="#FEFFFE" transform="matrix(1.00, 0.00, -0.00, -1.00, 326.5, 12.8)">n</text><text xml:space="preserve" font-family="GillSans-Light,Gill Sans" font-size="47.5" fill="#FEFFFE" transform="matrix(1.00, 0.00, -0.00, -1.00, 349.8, 12.8)">g</text><text xml:space="preserve" font-family="GillSans-Light,Gill Sans" font-size="47.5" fill="#FEFFFE" transform="matrix(1.00, 0.00, -0.00, -1.00, 370.1, 12.8)">e</text><text xml:space="preserve" font-family="GillSans-Light,Gill Sans" font-size="47.5" fill="#FEFFFE" transform="matrix(1.00, 0.00, -0.00, -1.00, 392.8, 12.8)">s</text></g></svg>