<?xml version="1.0" encoding="UTF-8" standalone="no"?><svg xmlns="http://www.w3.org/2000/svg" xmlns:xlink="http://www.w3.org/1999/xlink" clip-rule="evenodd" stroke-miterlimit="10" viewBox="0 0 467 19"><desc>SVG generated by Keynote</desc><defs></defs><g transform="matrix(1.00, 0.00, -0.00, -1.00, 0.0, 19.0)"><text xml:space="preserve" font-family="GillSans,Gill Sans" font-size="20.0" fill="#FEFFFF" transform="matrix(1.00, 0.00, -0.00, -1.00, 1.0, 3.6)">a</text><text xml:space="preserve" font-family="GillSans,Gill Sans" font-size="20.0" fill="#FEFFFF" transform="matrix(1.00, 0.00, -0.00, -1.00, 9.5, 3.6)">n</text><text xml:space="preserve" font-family="GillSans,Gill Sans" font-size="20.0" fill="#FEFFFF" transform="matrix(1.00, 0.00, -0.00, -1.00, 19.5, 3.6)">d</text><text xml:space="preserve" font-family="GillSans,Gill Sans" font-size="20.0" fill="#FEFFFF" transform="matrix(1.00, 0.00, -0.00, -1.00, 29.7, 3.6)"> </text><text xml:space="preserve" font-family="GillSans,Gill Sans" font-size="20.0" fill="#FEFFFF" transform="matrix(1.00, 0.00, -0.00, -1.00, 35.3, 3.6)">c</text><text xml:space="preserve" font-family="GillSans,Gill Sans" font-size="20.0" fill="#FEFFFF" transform="matrix(1.00, 0.00, -0.00, -1.00, 44.0, 3.6)">o</text><text xml:space="preserve" font-family="GillSans,Gill Sans" font-size="20.0" fill="#FEFFFF" transform="matrix(1.00, 0.00, -0.00, -1.00, 55.1, 3.6)">l</text><text xml:space="preserve" font-family="GillSans,Gill Sans" font-size="20.0" fill="#FEFFFF" transform="matrix(1.00, 0.00, -0.00, -1.00, 59.5, 3.6)">l</text><text xml:space="preserve" font-family="GillSans,Gill Sans" font-size="20.0" fill="#FEFFFF" transform="matrix(1.00, 0.00, -0.00, -1.00, 63.8, 3.6)">e</text><text xml:space="preserve" font-family="GillSans,Gill Sans" font-size="20.0" fill="#FEFFFF" transform="matrix(1.00, 0.00, -0.00, -1.00, 73.4, 3.6)">c</text><text xml:space="preserve" font-family="GillSans,Gill Sans" font-size="20.0" fill="#FEFFFF" transform="matrix(1.00, 0.00, -0.00, -1.00, 82.2, 3.6)">t</text><text xml:space="preserve" font-family="GillSans,Gill Sans" font-size="20.0" fill="#FEFFFF" transform="matrix(1.00, 0.00, -0.00, -1.00, 88.8, 3.6)"> </text><text xml:space="preserve" font-family="GillSans,Gill Sans" font-size="20.0" fill="#FEFFFF" transform="matrix(1.00, 0.00, -0.00, -1.00, 94.4, 3.6)">i</text><text xml:space="preserve" font-family="GillSans,Gill Sans" font-size="20.0" fill="#FEFFFF" transform="matrix(1.00, 0.00, -0.00, -1.00, 98.8, 3.6)">t</text><text xml:space="preserve" font-family="GillSans,Gill Sans" font-size="20.0" fill="#FEFFFF" transform="matrix(1.00, 0.00, -0.00, -1.00, 105.4, 3.6)"> </text><text xml:space="preserve" font-family="GillSans,Gill Sans" font-size="20.0" fill="#FEFFFF" transform="matrix(1.00, 0.00, -0.00, -1.00, 111.0, 3.6)">a</text><text xml:space="preserve" font-family="GillSans,Gill Sans" font-size="20.0" fill="#FEFFFF" transform="matrix(1.00, 0.00, -0.00, -1.00, 119.5, 3.6)">t</text><text xml:space="preserve" font-family="GillSans,Gill Sans" font-size="20.0" fill="#FEFFFF" transform="matrix(1.00, 0.00, -0.00, -1.00, 126.2, 3.6)"> </text><text xml:space="preserve" font-family="GillSans,Gill Sans" font-size="20.0" fill="#FEFFFF" transform="matrix(1.00, 0.00, -0.00, -1.00, 131.7, 3.6)">d</text><text xml:space="preserve" font-family="GillSans,Gill Sans" font-size="20.0" fill="#FEFFFF" transform="matrix(1.00, 0.00, -0.00, -1.00, 141.9, 3.6)">i</text><text xml:space="preserve" font-family="GillSans,Gill Sans" font-size="20.0" fill="#FEFFFF" transform="matrix(1.00, 0.00, -0.00, -1.00, 146.3, 3.6)">f</text><text xml:space="preserve" font-family="GillSans,Gill Sans" font-size="20.0" fill="#FEFFFF" transform="matrix(1.00, 0.00, -0.00, -1.00, 151.3, 3.6)">f</text><text xml:space="preserve" font-family="GillSans,Gill Sans" font-size="20.0" fill="#FEFFFF" transform="matrix(1.00, 0.00, -0.00, -1.00, 156.1, 3.6)">e</text><text xml:space="preserve" font-family="GillSans,Gill Sans" font-size="20.0" fill="#FEFFFF" transform="matrix(1.00, 0.00, -0.00, -1.00, 165.7, 3.6)">r</text><text xml:space="preserve" font-family="GillSans,Gill Sans" font-size="20.0" fill="#FEFFFF" transform="matrix(1.00, 0.00, -0.00, -1.00, 173.2, 3.6)">e</text><text xml:space="preserve" font-family="GillSans,Gill Sans" font-size="20.0" fill="#FEFFFF" transform="matrix(1.00, 0.00, -0.00, -1.00, 182.8, 3.6)">n</text><text xml:space="preserve" font-family="GillSans,Gill Sans" font-size="20.0" fill="#FEFFFF" transform="matrix(1.00, 0.00, -0.00, -1.00, 192.8, 3.6)">t</text><text xml:space="preserve" font-family="GillSans,Gill Sans" font-size="20.0" fill="#FEFFFF" transform="matrix(1.00, 0.00, -0.00, -1.00, 199.5, 3.6)"> </text><text xml:space="preserve" font-family="GillSans,Gill Sans" font-size="20.0" fill="#FEFFFF" transform="matrix(1.00, 0.00, -0.00, -1.00, 205.0, 3.6)">v</text><text xml:space="preserve" font-family="GillSans,Gill Sans" font-size="20.0" fill="#FEFFFF" transform="matrix(1.00, 0.00, -0.00, -1.00, 213.8, 3.6)">a</text><text xml:space="preserve" font-family="GillSans,Gill Sans" font-size="20.0" fill="#FEFFFF" transform="matrix(1.00, 0.00, -0.00, -1.00, 222.3, 3.6)">l</text><text xml:space="preserve" font-family="GillSans,Gill Sans" font-size="20.0" fill="#FEFFFF" transform="matrix(1.00, 0.00, -0.00, -1.00, 226.7, 3.6)">u</text><text xml:space="preserve" font-family="GillSans,Gill Sans" font-size="20.0" fill="#FEFFFF" transform="matrix(1.00, 0.00, -0.00, -1.00, 236.7, 3.6)">e</text><text xml:space="preserve" font-family="GillSans,Gill Sans" font-size="20.0" fill="#FEFFFF" transform="matrix(1.00, 0.00, -0.00, -1.00, 246.3, 3.6)">s</text><text xml:space="preserve" font-family="GillSans,Gill Sans" font-size="20.0" fill="#FEFFFF" transform="matrix(1.00, 0.00, -0.00, -1.00, 254.0, 3.6)"> </text><text xml:space="preserve" font-family="GillSans,Gill Sans" font-size="20.0" fill="#FEFFFF" transform="matrix(1.00, 0.00, -0.00, -1.00, 259.5, 3.6)">o</text><text xml:space="preserve" font-family="GillSans,Gill Sans" font-size="20.0" fill="#FEFFFF" transform="matrix(1.00, 0.00, -0.00, -1.00, 270.6, 3.6)">f</text><text xml:space="preserve" font-family="GillSans,Gill Sans" font-size="20.0" fill="#FEFFFF" transform="matrix(1.00, 0.00, -0.00, -1.00, 275.6, 3.6)"> </text><text xml:space="preserve" font-family="GillSans,Gill Sans" font-size="20.0" fill="#FEFFFF" transform="matrix(1.00, 0.00, -0.00, -1.00, 281.1, 3.6)">ï¬</text><text xml:space="preserve" font-family="GillSans,Gill Sans" font-size="20.0" fill="#FEFFFF" transform="matrix(1.00, 0.00, -0.00, -1.00, 291.1, 3.6)">r</text><text xml:space="preserve" font-family="GillSans,Gill Sans" font-size="20.0" fill="#FEFFFF" transform="matrix(1.00, 0.00, -0.00, -1.00, 299.0, 3.6)">s</text><text xml:space="preserve" font-family="GillSans,Gill Sans" font-size="20.0" fill="#FEFFFF" transform="matrix(1.00, 0.00, -0.00, -1.00, 306.7, 3.6)">t</text><text xml:space="preserve" font-family="GillSans,Gill Sans" font-size="20.0" fill="#FEFFFF" transform="matrix(1.00, 0.00, -0.00, -1.00, 313.4, 3.6)">-</text><text xml:space="preserve" font-family="GillSans,Gill Sans" font-size="20.0" fill="#FEFFFF" transform="matrix(1.00, 0.00, -0.00, -1.00, 319.8, 3.6)">o</text><text xml:space="preserve" font-family="GillSans,Gill Sans" font-size="20.0" fill="#FEFFFF" transform="matrix(1.00, 0.00, -0.00, -1.00, 330.9, 3.6)">r</text><text xml:space="preserve" font-family="GillSans,Gill Sans" font-size="20.0" fill="#FEFFFF" transform="matrix(1.00, 0.00, -0.00, -1.00, 338.5, 3.6)">d</text><text xml:space="preserve" font-family="GillSans,Gill Sans" font-size="20.0" fill="#FEFFFF" transform="matrix(1.00, 0.00, -0.00, -1.00, 348.7, 3.6)">e</text><text xml:space="preserve" font-family="GillSans,Gill Sans" font-size="20.0" fill="#FEFFFF" transform="matrix(1.00, 0.00, -0.00, -1.00, 358.3, 3.6)">r</text><text xml:space="preserve" font-family="GillSans,Gill Sans" font-size="20.0" fill="#FEFFFF" transform="matrix(1.00, 0.00, -0.00, -1.00, 366.2, 3.6)"> </text><text xml:space="preserve" font-family="GillSans,Gill Sans" font-size="20.0" fill="#FEFFFF" transform="matrix(1.00, 0.00, -0.00, -1.00, 371.7, 3.6)">m</text><text xml:space="preserve" font-family="GillSans,Gill Sans" font-size="20.0" fill="#FEFFFF" transform="matrix(1.00, 0.00, -0.00, -1.00, 387.2, 3.6)">o</text><text xml:space="preserve" font-family="GillSans,Gill Sans" font-size="20.0" fill="#FEFFFF" transform="matrix(1.00, 0.00, -0.00, -1.00, 398.2, 3.6)">t</text><text xml:space="preserve" font-family="GillSans,Gill Sans" font-size="20.0" fill="#FEFFFF" transform="matrix(1.00, 0.00, -0.00, -1.00, 404.9, 3.6)">i</text><text xml:space="preserve" font-family="GillSans,Gill Sans" font-size="20.0" fill="#FEFFFF" transform="matrix(1.00, 0.00, -0.00, -1.00, 409.2, 3.6)">o</text><text xml:space="preserve" font-family="GillSans,Gill Sans" font-size="20.0" fill="#FEFFFF" transform="matrix(1.00, 0.00, -0.00, -1.00, 420.3, 3.6)">n</text><text xml:space="preserve" font-family="GillSans,Gill Sans" font-size="20.0" fill="#FEFFFF" transform="matrix(1.00, 0.00, -0.00, -1.00, 430.3, 3.6)">,</text><text xml:space="preserve" font-family="GillSans,Gill Sans" font-size="20.0" fill="#FEFFFF" transform="matrix(1.00, 0.00, -0.00, -1.00, 432.7, 3.6)"> </text><text xml:space="preserve" font-family="GillSans,Gill Sans" font-size="20.0" fill="#FEFFFF" transform="matrix(1.00, 0.00, -0.00, -1.00, 438.2, 3.6)">a</text><text xml:space="preserve" font-family="GillSans,Gill Sans" font-size="20.0" fill="#FEFFFF" transform="matrix(1.00, 0.00, -0.00, -1.00, 446.7, 3.6)">n</text><text xml:space="preserve" font-family="GillSans,Gill Sans" font-size="20.0" fill="#FEFFFF" transform="matrix(1.00, 0.00, -0.00, -1.00, 456.7, 3.6)">d</text></g></svg>