<?xml version="1.0" encoding="UTF-8" standalone="no"?><svg xmlns="http://www.w3.org/2000/svg" xmlns:xlink="http://www.w3.org/1999/xlink" clip-rule="evenodd" stroke-miterlimit="10" viewBox="0 0 348 47"><desc>SVG generated by Keynote</desc><defs></defs><g transform="matrix(1.00, 0.00, -0.00, -1.00, 0.0, 47.0)"><image xlink:href="../../D920E9B0-4FDC-47B0-A3AE-389B575A3839/assets/83172B3430A73B514F0982005FB9E86A.png" width="345.00" height="44.00" transform="matrix(1.00, 0.00, -0.00, -1.00, 2.0, 45.0)"></image><text xml:space="preserve" font-family="GillSans-Light,Gill Sans" font-size="47.0" fill="#FEFFFE" transform="matrix(1.00, 0.00, -0.00, -1.00, 3.9, 8.2)">F</text><text xml:space="preserve" font-family="GillSans-Light,Gill Sans" font-size="47.0" fill="#FEFFFE" transform="matrix(1.00, 0.00, -0.00, -1.00, 24.5, 8.2)">i</text><text xml:space="preserve" font-family="GillSans-Light,Gill Sans" font-size="47.0" fill="#FEFFFE" transform="matrix(1.00, 0.00, -0.00, -1.00, 33.3, 8.2)">r</text><text xml:space="preserve" font-family="GillSans-Light,Gill Sans" font-size="47.0" fill="#FEFFFE" transform="matrix(1.00, 0.00, -0.00, -1.00, 50.9, 8.2)">s</text><text xml:space="preserve" font-family="GillSans-Light,Gill Sans" font-size="47.0" fill="#FEFFFE" transform="matrix(1.00, 0.00, -0.00, -1.00, 67.5, 8.2)">t</text><text xml:space="preserve" font-family="GillSans-Light,Gill Sans" font-size="47.0" fill="#FEFFFE" transform="matrix(1.00, 0.00, -0.00, -1.00, 81.7, 8.2)"> </text><text xml:space="preserve" font-family="GillSans-Light,Gill Sans" font-size="47.0" fill="#FEFFFE" transform="matrix(1.00, 0.00, -0.00, -1.00, 94.8, 8.2)">o</text><text xml:space="preserve" font-family="GillSans-Light,Gill Sans" font-size="47.0" fill="#FEFFFE" transform="matrix(1.00, 0.00, -0.00, -1.00, 120.3, 8.2)">r</text><text xml:space="preserve" font-family="GillSans-Light,Gill Sans" font-size="47.0" fill="#FEFFFE" transform="matrix(1.00, 0.00, -0.00, -1.00, 136.0, 8.2)">d</text><text xml:space="preserve" font-family="GillSans-Light,Gill Sans" font-size="47.0" fill="#FEFFFE" transform="matrix(1.00, 0.00, -0.00, -1.00, 159.9, 8.2)">e</text><text xml:space="preserve" font-family="GillSans-Light,Gill Sans" font-size="47.0" fill="#FEFFFE" transform="matrix(1.00, 0.00, -0.00, -1.00, 182.5, 8.2)">r</text><text xml:space="preserve" font-family="GillSans-Light,Gill Sans" font-size="47.0" fill="#FEFFFE" transform="matrix(1.00, 0.00, -0.00, -1.00, 198.1, 8.2)"> </text><text xml:space="preserve" font-family="GillSans-Light,Gill Sans" font-size="47.0" fill="#FEFFFE" transform="matrix(1.00, 0.00, -0.00, -1.00, 211.2, 8.2)">m</text><text xml:space="preserve" font-family="GillSans-Light,Gill Sans" font-size="47.0" fill="#FEFFFE" transform="matrix(1.00, 0.00, -0.00, -1.00, 247.4, 8.2)">o</text><text xml:space="preserve" font-family="GillSans-Light,Gill Sans" font-size="47.0" fill="#FEFFFE" transform="matrix(1.00, 0.00, -0.00, -1.00, 272.9, 8.2)">t</text><text xml:space="preserve" font-family="GillSans-Light,Gill Sans" font-size="47.0" fill="#FEFFFE" transform="matrix(1.00, 0.00, -0.00, -1.00, 287.1, 8.2)">i</text><text xml:space="preserve" font-family="GillSans-Light,Gill Sans" font-size="47.0" fill="#FEFFFE" transform="matrix(1.00, 0.00, -0.00, -1.00, 296.0, 8.2)">o</text><text xml:space="preserve" font-family="GillSans-Light,Gill Sans" font-size="47.0" fill="#FEFFFE" transform="matrix(1.00, 0.00, -0.00, -1.00, 321.5, 8.2)">n</text></g></svg>