<?xml version="1.0" encoding="UTF-8" standalone="no"?><svg xmlns="http://www.w3.org/2000/svg" xmlns:xlink="http://www.w3.org/1999/xlink" clip-rule="evenodd" stroke-miterlimit="10" viewBox="0 0 460 18"><desc>SVG generated by Keynote</desc><defs></defs><g transform="matrix(1.00, 0.00, -0.00, -1.00, 0.0, 18.0)"><text xml:space="preserve" font-family="GillSans,Gill Sans" font-size="17.0" fill="#FEFFFF" transform="matrix(1.00, 0.00, -0.00, -1.00, 1.0, 4.9)">o</text><text xml:space="preserve" font-family="GillSans,Gill Sans" font-size="17.0" fill="#FEFFFF" transform="matrix(1.00, 0.00, -0.00, -1.00, 10.4, 4.9)">f</text><text xml:space="preserve" font-family="GillSans,Gill Sans" font-size="17.0" fill="#FEFFFF" transform="matrix(1.00, 0.00, -0.00, -1.00, 14.6, 4.9)"> </text><text xml:space="preserve" font-family="GillSans,Gill Sans" font-size="17.0" fill="#FEFFFF" transform="matrix(1.00, 0.00, -0.00, -1.00, 19.3, 4.9)">ﬁ</text><text xml:space="preserve" font-family="GillSans,Gill Sans" font-size="17.0" fill="#FEFFFF" transform="matrix(1.00, 0.00, -0.00, -1.00, 27.8, 4.9)">r</text><text xml:space="preserve" font-family="GillSans,Gill Sans" font-size="17.0" fill="#FEFFFF" transform="matrix(1.00, 0.00, -0.00, -1.00, 34.6, 4.9)">s</text><text xml:space="preserve" font-family="GillSans,Gill Sans" font-size="17.0" fill="#FEFFFF" transform="matrix(1.00, 0.00, -0.00, -1.00, 41.1, 4.9)">t</text><text xml:space="preserve" font-family="GillSans,Gill Sans" font-size="17.0" fill="#FEFFFF" transform="matrix(1.00, 0.00, -0.00, -1.00, 46.8, 4.9)">-</text><text xml:space="preserve" font-family="GillSans,Gill Sans" font-size="17.0" fill="#FEFFFF" transform="matrix(1.00, 0.00, -0.00, -1.00, 52.3, 4.9)">o</text><text xml:space="preserve" font-family="GillSans,Gill Sans" font-size="17.0" fill="#FEFFFF" transform="matrix(1.00, 0.00, -0.00, -1.00, 61.7, 4.9)">r</text><text xml:space="preserve" font-family="GillSans,Gill Sans" font-size="17.0" fill="#FEFFFF" transform="matrix(1.00, 0.00, -0.00, -1.00, 68.1, 4.9)">d</text><text xml:space="preserve" font-family="GillSans,Gill Sans" font-size="17.0" fill="#FEFFFF" transform="matrix(1.00, 0.00, -0.00, -1.00, 76.8, 4.9)">e</text><text xml:space="preserve" font-family="GillSans,Gill Sans" font-size="17.0" fill="#FEFFFF" transform="matrix(1.00, 0.00, -0.00, -1.00, 84.9, 4.9)">r</text><text xml:space="preserve" font-family="GillSans,Gill Sans" font-size="17.0" fill="#FEFFFF" transform="matrix(1.00, 0.00, -0.00, -1.00, 91.7, 4.9)"> </text><text xml:space="preserve" font-family="GillSans,Gill Sans" font-size="17.0" fill="#FEFFFF" transform="matrix(1.00, 0.00, -0.00, -1.00, 96.4, 4.9)">a</text><text xml:space="preserve" font-family="GillSans,Gill Sans" font-size="17.0" fill="#FEFFFF" transform="matrix(1.00, 0.00, -0.00, -1.00, 103.6, 4.9)">n</text><text xml:space="preserve" font-family="GillSans,Gill Sans" font-size="17.0" fill="#FEFFFF" transform="matrix(1.00, 0.00, -0.00, -1.00, 112.1, 4.9)">d</text><text xml:space="preserve" font-family="GillSans,Gill Sans" font-size="17.0" fill="#FEFFFF" transform="matrix(1.00, 0.00, -0.00, -1.00, 120.8, 4.9)"> </text><text xml:space="preserve" font-family="GillSans,Gill Sans" font-size="17.0" fill="#FEFFFF" transform="matrix(1.00, 0.00, -0.00, -1.00, 125.5, 4.9)">p</text><text xml:space="preserve" font-family="GillSans,Gill Sans" font-size="17.0" fill="#FEFFFF" transform="matrix(1.00, 0.00, -0.00, -1.00, 134.0, 4.9)">o</text><text xml:space="preserve" font-family="GillSans,Gill Sans" font-size="17.0" fill="#FEFFFF" transform="matrix(1.00, 0.00, -0.00, -1.00, 143.4, 4.9)">s</text><text xml:space="preserve" font-family="GillSans,Gill Sans" font-size="17.0" fill="#FEFFFF" transform="matrix(1.00, 0.00, -0.00, -1.00, 149.9, 4.9)">i</text><text xml:space="preserve" font-family="GillSans,Gill Sans" font-size="17.0" fill="#FEFFFF" transform="matrix(1.00, 0.00, -0.00, -1.00, 153.7, 4.9)">t</text><text xml:space="preserve" font-family="GillSans,Gill Sans" font-size="17.0" fill="#FEFFFF" transform="matrix(1.00, 0.00, -0.00, -1.00, 159.3, 4.9)">i</text><text xml:space="preserve" font-family="GillSans,Gill Sans" font-size="17.0" fill="#FEFFFF" transform="matrix(1.00, 0.00, -0.00, -1.00, 163.1, 4.9)">o</text><text xml:space="preserve" font-family="GillSans,Gill Sans" font-size="17.0" fill="#FEFFFF" transform="matrix(1.00, 0.00, -0.00, -1.00, 172.4, 4.9)">n</text><text xml:space="preserve" font-family="GillSans,Gill Sans" font-size="17.0" fill="#FEFFFF" transform="matrix(1.00, 0.00, -0.00, -1.00, 180.9, 4.9)">a</text><text xml:space="preserve" font-family="GillSans,Gill Sans" font-size="17.0" fill="#FEFFFF" transform="matrix(1.00, 0.00, -0.00, -1.00, 188.2, 4.9)">l</text><text xml:space="preserve" font-family="GillSans,Gill Sans" font-size="17.0" fill="#FEFFFF" transform="matrix(1.00, 0.00, -0.00, -1.00, 191.9, 4.9)"> </text><text xml:space="preserve" font-family="GillSans,Gill Sans" font-size="17.0" fill="#FEFFFF" transform="matrix(1.00, 0.00, -0.00, -1.00, 196.6, 4.9)">m</text><text xml:space="preserve" font-family="GillSans,Gill Sans" font-size="17.0" fill="#FEFFFF" transform="matrix(1.00, 0.00, -0.00, -1.00, 209.7, 4.9)">o</text><text xml:space="preserve" font-family="GillSans,Gill Sans" font-size="17.0" fill="#FEFFFF" transform="matrix(1.00, 0.00, -0.00, -1.00, 219.1, 4.9)">t</text><text xml:space="preserve" font-family="GillSans,Gill Sans" font-size="17.0" fill="#FEFFFF" transform="matrix(1.00, 0.00, -0.00, -1.00, 224.8, 4.9)">i</text><text xml:space="preserve" font-family="GillSans,Gill Sans" font-size="17.0" fill="#FEFFFF" transform="matrix(1.00, 0.00, -0.00, -1.00, 228.5, 4.9)">o</text><text xml:space="preserve" font-family="GillSans,Gill Sans" font-size="17.0" fill="#FEFFFF" transform="matrix(1.00, 0.00, -0.00, -1.00, 237.9, 4.9)">n</text><text xml:space="preserve" font-family="GillSans,Gill Sans" font-size="17.0" fill="#FEFFFF" transform="matrix(1.00, 0.00, -0.00, -1.00, 246.4, 4.9)"> </text><text xml:space="preserve" font-family="GillSans,Gill Sans" font-size="17.0" fill="#FEFFFF" transform="matrix(1.00, 0.00, -0.00, -1.00, 251.1, 4.9)">s</text><text xml:space="preserve" font-family="GillSans,Gill Sans" font-size="17.0" fill="#FEFFFF" transform="matrix(1.00, 0.00, -0.00, -1.00, 257.6, 4.9)">i</text><text xml:space="preserve" font-family="GillSans,Gill Sans" font-size="17.0" fill="#FEFFFF" transform="matrix(1.00, 0.00, -0.00, -1.00, 261.4, 4.9)">g</text><text xml:space="preserve" font-family="GillSans,Gill Sans" font-size="17.0" fill="#FEFFFF" transform="matrix(1.00, 0.00, -0.00, -1.00, 268.6, 4.9)">n</text><text xml:space="preserve" font-family="GillSans,Gill Sans" font-size="17.0" fill="#FEFFFF" transform="matrix(1.00, 0.00, -0.00, -1.00, 277.1, 4.9)">a</text><text xml:space="preserve" font-family="GillSans,Gill Sans" font-size="17.0" fill="#FEFFFF" transform="matrix(1.00, 0.00, -0.00, -1.00, 284.4, 4.9)">l</text><text xml:space="preserve" font-family="GillSans,Gill Sans" font-size="17.0" fill="#FEFFFF" transform="matrix(1.00, 0.00, -0.00, -1.00, 288.1, 4.9)">s</text><text xml:space="preserve" font-family="GillSans,Gill Sans" font-size="17.0" fill="#FEFFFF" transform="matrix(1.00, 0.00, -0.00, -1.00, 294.6, 4.9)">.</text><text xml:space="preserve" font-family="GillSans,Gill Sans" font-size="17.0" fill="#FEFFFF" transform="matrix(1.00, 0.00, -0.00, -1.00, 296.7, 4.9)"> </text><text xml:space="preserve" font-family="GillSans,Gill Sans" font-size="17.0" fill="#FEFFFF" transform="matrix(1.00, 0.00, -0.00, -1.00, 301.4, 4.9)">H</text><text xml:space="preserve" font-family="GillSans,Gill Sans" font-size="17.0" fill="#FEFFFF" transform="matrix(1.00, 0.00, -0.00, -1.00, 313.8, 4.9)">e</text><text xml:space="preserve" font-family="GillSans,Gill Sans" font-size="17.0" fill="#FEFFFF" transform="matrix(1.00, 0.00, -0.00, -1.00, 321.9, 4.9)">r</text><text xml:space="preserve" font-family="GillSans,Gill Sans" font-size="17.0" fill="#FEFFFF" transform="matrix(1.00, 0.00, -0.00, -1.00, 328.3, 4.9)">e</text><text xml:space="preserve" font-family="GillSans,Gill Sans" font-size="17.0" fill="#FEFFFF" transform="matrix(1.00, 0.00, -0.00, -1.00, 336.5, 4.9)"> </text><text xml:space="preserve" font-family="GillSans,Gill Sans" font-size="17.0" fill="#FEFFFF" transform="matrix(1.00, 0.00, -0.00, -1.00, 341.2, 4.9)">w</text><text xml:space="preserve" font-family="GillSans,Gill Sans" font-size="17.0" fill="#FEFFFF" transform="matrix(1.00, 0.00, -0.00, -1.00, 353.1, 4.9)">e</text><text xml:space="preserve" font-family="GillSans,Gill Sans" font-size="17.0" fill="#FEFFFF" transform="matrix(1.00, 0.00, -0.00, -1.00, 361.2, 4.9)">’</text><text xml:space="preserve" font-family="GillSans,Gill Sans" font-size="17.0" fill="#FEFFFF" transform="matrix(1.00, 0.00, -0.00, -1.00, 363.6, 4.9)">r</text><text xml:space="preserve" font-family="GillSans,Gill Sans" font-size="17.0" fill="#FEFFFF" transform="matrix(1.00, 0.00, -0.00, -1.00, 370.0, 4.9)">e</text><text xml:space="preserve" font-family="GillSans,Gill Sans" font-size="17.0" fill="#FEFFFF" transform="matrix(1.00, 0.00, -0.00, -1.00, 378.1, 4.9)"> </text><text xml:space="preserve" font-family="GillSans,Gill Sans" font-size="17.0" fill="#FEFFFF" transform="matrix(1.00, 0.00, -0.00, -1.00, 382.8, 4.9)">u</text><text xml:space="preserve" font-family="GillSans,Gill Sans" font-size="17.0" fill="#FEFFFF" transform="matrix(1.00, 0.00, -0.00, -1.00, 391.3, 4.9)">s</text><text xml:space="preserve" font-family="GillSans,Gill Sans" font-size="17.0" fill="#FEFFFF" transform="matrix(1.00, 0.00, -0.00, -1.00, 397.9, 4.9)">i</text><text xml:space="preserve" font-family="GillSans,Gill Sans" font-size="17.0" fill="#FEFFFF" transform="matrix(1.00, 0.00, -0.00, -1.00, 401.6, 4.9)">n</text><text xml:space="preserve" font-family="GillSans,Gill Sans" font-size="17.0" fill="#FEFFFF" transform="matrix(1.00, 0.00, -0.00, -1.00, 410.1, 4.9)">g</text><text xml:space="preserve" font-family="GillSans,Gill Sans" font-size="17.0" fill="#FEFFFF" transform="matrix(1.00, 0.00, -0.00, -1.00, 417.4, 4.9)"> </text><text xml:space="preserve" font-family="GillSans,Gill Sans" font-size="17.0" fill="#FEFFFF" transform="matrix(1.00, 0.00, -0.00, -1.00, 422.1, 4.9)">t</text><text xml:space="preserve" font-family="GillSans,Gill Sans" font-size="17.0" fill="#FEFFFF" transform="matrix(1.00, 0.00, -0.00, -1.00, 427.7, 4.9)">h</text><text xml:space="preserve" font-family="GillSans,Gill Sans" font-size="17.0" fill="#FEFFFF" transform="matrix(1.00, 0.00, -0.00, -1.00, 436.2, 4.9)">e</text><text xml:space="preserve" font-family="GillSans,Gill Sans" font-size="17.0" fill="#FEFFFF" transform="matrix(1.00, 0.00, -0.00, -1.00, 444.4, 4.9)">s</text><text xml:space="preserve" font-family="GillSans,Gill Sans" font-size="17.0" fill="#FEFFFF" transform="matrix(1.00, 0.00, -0.00, -1.00, 450.9, 4.9)">e</text></g></svg>