<?xml version="1.0" encoding="UTF-8" standalone="no"?><svg xmlns="http://www.w3.org/2000/svg" xmlns:xlink="http://www.w3.org/1999/xlink" clip-rule="evenodd" stroke-miterlimit="10" viewBox="0 0 472 18"><desc>SVG generated by Keynote</desc><defs></defs><g transform="matrix(1.00, 0.00, -0.00, -1.00, 0.0, 18.0)"><text xml:space="preserve" font-family="GillSans,Gill Sans" font-size="17.0" fill="#FEFFFF" transform="matrix(1.00, 0.00, -0.00, -1.00, 1.4, 4.9)">T</text><text xml:space="preserve" font-family="GillSans,Gill Sans" font-size="17.0" fill="#FEFFFF" transform="matrix(1.00, 0.00, -0.00, -1.00, 11.7, 4.9)">h</text><text xml:space="preserve" font-family="GillSans,Gill Sans" font-size="17.0" fill="#FEFFFF" transform="matrix(1.00, 0.00, -0.00, -1.00, 20.2, 4.9)">e</text><text xml:space="preserve" font-family="GillSans,Gill Sans" font-size="17.0" fill="#FEFFFF" transform="matrix(1.00, 0.00, -0.00, -1.00, 28.3, 4.9)"> </text><text xml:space="preserve" font-family="GillSans,Gill Sans" font-size="17.0" fill="#FEFFFF" transform="matrix(1.00, 0.00, -0.00, -1.00, 33.0, 4.9)">t</text><text xml:space="preserve" font-family="GillSans,Gill Sans" font-size="17.0" fill="#FEFFFF" transform="matrix(1.00, 0.00, -0.00, -1.00, 38.7, 4.9)">h</text><text xml:space="preserve" font-family="GillSans,Gill Sans" font-size="17.0" fill="#FEFFFF" transform="matrix(1.00, 0.00, -0.00, -1.00, 47.2, 4.9)">i</text><text xml:space="preserve" font-family="GillSans,Gill Sans" font-size="17.0" fill="#FEFFFF" transform="matrix(1.00, 0.00, -0.00, -1.00, 50.9, 4.9)">n</text><text xml:space="preserve" font-family="GillSans,Gill Sans" font-size="17.0" fill="#FEFFFF" transform="matrix(1.00, 0.00, -0.00, -1.00, 59.4, 4.9)">g</text><text xml:space="preserve" font-family="GillSans,Gill Sans" font-size="17.0" fill="#FEFFFF" transform="matrix(1.00, 0.00, -0.00, -1.00, 66.7, 4.9)"> </text><text xml:space="preserve" font-family="GillSans,Gill Sans" font-size="17.0" fill="#FEFFFF" transform="matrix(1.00, 0.00, -0.00, -1.00, 71.4, 4.9)">t</text><text xml:space="preserve" font-family="GillSans,Gill Sans" font-size="17.0" fill="#FEFFFF" transform="matrix(1.00, 0.00, -0.00, -1.00, 77.1, 4.9)">o</text><text xml:space="preserve" font-family="GillSans,Gill Sans" font-size="17.0" fill="#FEFFFF" transform="matrix(1.00, 0.00, -0.00, -1.00, 86.4, 4.9)"> </text><text xml:space="preserve" font-family="GillSans,Gill Sans" font-size="17.0" fill="#FEFFFF" transform="matrix(1.00, 0.00, -0.00, -1.00, 91.2, 4.9)">n</text><text xml:space="preserve" font-family="GillSans,Gill Sans" font-size="17.0" fill="#FEFFFF" transform="matrix(1.00, 0.00, -0.00, -1.00, 99.7, 4.9)">o</text><text xml:space="preserve" font-family="GillSans,Gill Sans" font-size="17.0" fill="#FEFFFF" transform="matrix(1.00, 0.00, -0.00, -1.00, 109.0, 4.9)">t</text><text xml:space="preserve" font-family="GillSans,Gill Sans" font-size="17.0" fill="#FEFFFF" transform="matrix(1.00, 0.00, -0.00, -1.00, 114.7, 4.9)">i</text><text xml:space="preserve" font-family="GillSans,Gill Sans" font-size="17.0" fill="#FEFFFF" transform="matrix(1.00, 0.00, -0.00, -1.00, 118.4, 4.9)">c</text><text xml:space="preserve" font-family="GillSans,Gill Sans" font-size="17.0" fill="#FEFFFF" transform="matrix(1.00, 0.00, -0.00, -1.00, 125.9, 4.9)">e</text><text xml:space="preserve" font-family="GillSans,Gill Sans" font-size="17.0" fill="#FEFFFF" transform="matrix(1.00, 0.00, -0.00, -1.00, 134.0, 4.9)"> </text><text xml:space="preserve" font-family="GillSans,Gill Sans" font-size="17.0" fill="#FEFFFF" transform="matrix(1.00, 0.00, -0.00, -1.00, 138.7, 4.9)">h</text><text xml:space="preserve" font-family="GillSans,Gill Sans" font-size="17.0" fill="#FEFFFF" transform="matrix(1.00, 0.00, -0.00, -1.00, 147.2, 4.9)">e</text><text xml:space="preserve" font-family="GillSans,Gill Sans" font-size="17.0" fill="#FEFFFF" transform="matrix(1.00, 0.00, -0.00, -1.00, 155.4, 4.9)">r</text><text xml:space="preserve" font-family="GillSans,Gill Sans" font-size="17.0" fill="#FEFFFF" transform="matrix(1.00, 0.00, -0.00, -1.00, 161.8, 4.9)">e</text><text xml:space="preserve" font-family="GillSans,Gill Sans" font-size="17.0" fill="#FEFFFF" transform="matrix(1.00, 0.00, -0.00, -1.00, 169.9, 4.9)"> </text><text xml:space="preserve" font-family="GillSans,Gill Sans" font-size="17.0" fill="#FEFFFF" transform="matrix(1.00, 0.00, -0.00, -1.00, 174.6, 4.9)">i</text><text xml:space="preserve" font-family="GillSans,Gill Sans" font-size="17.0" fill="#FEFFFF" transform="matrix(1.00, 0.00, -0.00, -1.00, 178.4, 4.9)">s</text><text xml:space="preserve" font-family="GillSans,Gill Sans" font-size="17.0" fill="#FEFFFF" transform="matrix(1.00, 0.00, -0.00, -1.00, 184.9, 4.9)"> </text><text xml:space="preserve" font-family="GillSans,Gill Sans" font-size="17.0" fill="#FEFFFF" transform="matrix(1.00, 0.00, -0.00, -1.00, 189.6, 4.9)">t</text><text xml:space="preserve" font-family="GillSans,Gill Sans" font-size="17.0" fill="#FEFFFF" transform="matrix(1.00, 0.00, -0.00, -1.00, 195.3, 4.9)">h</text><text xml:space="preserve" font-family="GillSans,Gill Sans" font-size="17.0" fill="#FEFFFF" transform="matrix(1.00, 0.00, -0.00, -1.00, 203.8, 4.9)">a</text><text xml:space="preserve" font-family="GillSans,Gill Sans" font-size="17.0" fill="#FEFFFF" transform="matrix(1.00, 0.00, -0.00, -1.00, 211.0, 4.9)">t</text><text xml:space="preserve" font-family="GillSans,Gill Sans" font-size="17.0" fill="#FEFFFF" transform="matrix(1.00, 0.00, -0.00, -1.00, 216.7, 4.9)"> </text><text xml:space="preserve" font-family="GillSans,Gill Sans" font-size="17.0" fill="#FEFFFF" transform="matrix(1.00, 0.00, -0.00, -1.00, 221.4, 4.9)">o</text><text xml:space="preserve" font-family="GillSans,Gill Sans" font-size="17.0" fill="#FEFFFF" transform="matrix(1.00, 0.00, -0.00, -1.00, 230.8, 4.9)">f</text><text xml:space="preserve" font-family="GillSans,Gill Sans" font-size="17.0" fill="#FEFFFF" transform="matrix(1.00, 0.00, -0.00, -1.00, 235.0, 4.9)"> </text><text xml:space="preserve" font-family="GillSans,Gill Sans" font-size="17.0" fill="#FEFFFF" transform="matrix(1.00, 0.00, -0.00, -1.00, 239.8, 4.9)">t</text><text xml:space="preserve" font-family="GillSans,Gill Sans" font-size="17.0" fill="#FEFFFF" transform="matrix(1.00, 0.00, -0.00, -1.00, 245.4, 4.9)">h</text><text xml:space="preserve" font-family="GillSans,Gill Sans" font-size="17.0" fill="#FEFFFF" transform="matrix(1.00, 0.00, -0.00, -1.00, 253.9, 4.9)">e</text><text xml:space="preserve" font-family="GillSans,Gill Sans" font-size="17.0" fill="#FEFFFF" transform="matrix(1.00, 0.00, -0.00, -1.00, 262.1, 4.9)"> </text><text xml:space="preserve" font-family="GillSans,Gill Sans" font-size="17.0" fill="#FEFFFF" transform="matrix(1.00, 0.00, -0.00, -1.00, 266.8, 4.9)">t</text><text xml:space="preserve" font-family="GillSans,Gill Sans" font-size="17.0" fill="#FEFFFF" transform="matrix(1.00, 0.00, -0.00, -1.00, 272.4, 4.9)">w</text><text xml:space="preserve" font-family="GillSans,Gill Sans" font-size="17.0" fill="#FEFFFF" transform="matrix(1.00, 0.00, -0.00, -1.00, 284.3, 4.9)">o</text><text xml:space="preserve" font-family="GillSans,Gill Sans" font-size="17.0" fill="#FEFFFF" transform="matrix(1.00, 0.00, -0.00, -1.00, 293.7, 4.9)"> </text><text xml:space="preserve" font-family="GillSans,Gill Sans" font-size="17.0" fill="#FEFFFF" transform="matrix(1.00, 0.00, -0.00, -1.00, 298.4, 4.9)">i</text><text xml:space="preserve" font-family="GillSans,Gill Sans" font-size="17.0" fill="#FEFFFF" transform="matrix(1.00, 0.00, -0.00, -1.00, 302.2, 4.9)">s</text><text xml:space="preserve" font-family="GillSans,Gill Sans" font-size="17.0" fill="#FEFFFF" transform="matrix(1.00, 0.00, -0.00, -1.00, 308.7, 4.9)"> </text><text xml:space="preserve" font-family="GillSans,Gill Sans" font-size="17.0" fill="#FEFFFF" transform="matrix(1.00, 0.00, -0.00, -1.00, 313.4, 4.9)">t</text><text xml:space="preserve" font-family="GillSans,Gill Sans" font-size="17.0" fill="#FEFFFF" transform="matrix(1.00, 0.00, -0.00, -1.00, 319.1, 4.9)">h</text><text xml:space="preserve" font-family="GillSans,Gill Sans" font-size="17.0" fill="#FEFFFF" transform="matrix(1.00, 0.00, -0.00, -1.00, 327.6, 4.9)">a</text><text xml:space="preserve" font-family="GillSans,Gill Sans" font-size="17.0" fill="#FEFFFF" transform="matrix(1.00, 0.00, -0.00, -1.00, 334.8, 4.9)">t</text><text xml:space="preserve" font-family="GillSans,Gill Sans" font-size="17.0" fill="#FEFFFF" transform="matrix(1.00, 0.00, -0.00, -1.00, 340.5, 4.9)"> </text><text xml:space="preserve" font-family="GillSans,Gill Sans" font-size="17.0" fill="#FEFFFF" transform="matrix(1.00, 0.00, -0.00, -1.00, 345.2, 4.9)">i</text><text xml:space="preserve" font-family="GillSans,Gill Sans" font-size="17.0" fill="#FEFFFF" transform="matrix(1.00, 0.00, -0.00, -1.00, 348.9, 4.9)">t</text><text xml:space="preserve" font-family="GillSans,Gill Sans" font-size="17.0" fill="#FEFFFF" transform="matrix(1.00, 0.00, -0.00, -1.00, 354.6, 4.9)">’</text><text xml:space="preserve" font-family="GillSans,Gill Sans" font-size="17.0" fill="#FEFFFF" transform="matrix(1.00, 0.00, -0.00, -1.00, 357.0, 4.9)">s</text><text xml:space="preserve" font-family="GillSans,Gill Sans" font-size="17.0" fill="#FEFFFF" transform="matrix(1.00, 0.00, -0.00, -1.00, 363.5, 4.9)"> </text><text xml:space="preserve" font-family="GillSans,Gill Sans" font-size="17.0" fill="#FEFFFF" transform="matrix(1.00, 0.00, -0.00, -1.00, 368.2, 4.9)">t</text><text xml:space="preserve" font-family="GillSans,Gill Sans" font-size="17.0" fill="#FEFFFF" transform="matrix(1.00, 0.00, -0.00, -1.00, 373.9, 4.9)">h</text><text xml:space="preserve" font-family="GillSans,Gill Sans" font-size="17.0" fill="#FEFFFF" transform="matrix(1.00, 0.00, -0.00, -1.00, 382.4, 4.9)">e</text><text xml:space="preserve" font-family="GillSans,Gill Sans" font-size="17.0" fill="#FEFFFF" transform="matrix(1.00, 0.00, -0.00, -1.00, 390.5, 4.9)"> </text><text xml:space="preserve" font-family="GillSans,Gill Sans" font-size="17.0" fill="#FEFFFF" transform="matrix(1.00, 0.00, -0.00, -1.00, 395.2, 4.9)">o</text><text xml:space="preserve" font-family="GillSans,Gill Sans" font-size="17.0" fill="#FEFFFF" transform="matrix(1.00, 0.00, -0.00, -1.00, 404.6, 4.9)">n</text><text xml:space="preserve" font-family="GillSans,Gill Sans" font-size="17.0" fill="#FEFFFF" transform="matrix(1.00, 0.00, -0.00, -1.00, 413.1, 4.9)">e</text><text xml:space="preserve" font-family="GillSans,Gill Sans" font-size="17.0" fill="#FEFFFF" transform="matrix(1.00, 0.00, -0.00, -1.00, 421.3, 4.9)"> </text><text xml:space="preserve" font-family="GillSans,Gill Sans" font-size="17.0" fill="#FEFFFF" transform="matrix(1.00, 0.00, -0.00, -1.00, 426.0, 4.9)">o</text><text xml:space="preserve" font-family="GillSans,Gill Sans" font-size="17.0" fill="#FEFFFF" transform="matrix(1.00, 0.00, -0.00, -1.00, 435.4, 4.9)">n</text><text xml:space="preserve" font-family="GillSans,Gill Sans" font-size="17.0" fill="#FEFFFF" transform="matrix(1.00, 0.00, -0.00, -1.00, 443.9, 4.9)"> </text><text xml:space="preserve" font-family="GillSans,Gill Sans" font-size="17.0" fill="#FEFFFF" transform="matrix(1.00, 0.00, -0.00, -1.00, 448.6, 4.9)">t</text><text xml:space="preserve" font-family="GillSans,Gill Sans" font-size="17.0" fill="#FEFFFF" transform="matrix(1.00, 0.00, -0.00, -1.00, 454.2, 4.9)">h</text><text xml:space="preserve" font-family="GillSans,Gill Sans" font-size="17.0" fill="#FEFFFF" transform="matrix(1.00, 0.00, -0.00, -1.00, 462.7, 4.9)">e</text></g></svg>