<?xml version="1.0" encoding="UTF-8" standalone="no"?><svg xmlns="http://www.w3.org/2000/svg" xmlns:xlink="http://www.w3.org/1999/xlink" clip-rule="evenodd" stroke-miterlimit="10" viewBox="0 0 431 25"><desc>SVG generated by Keynote</desc><defs></defs><g transform="matrix(1.00, 0.00, -0.00, -1.00, 0.0, 25.0)"><text xml:space="preserve" font-family="GillSans,Gill Sans" font-size="24.0" fill="#FEFFFF" transform="matrix(1.00, 0.00, -0.00, -1.00, 0.0, 6.5)">I</text><text xml:space="preserve" font-family="GillSans,Gill Sans" font-size="24.0" fill="#FEFFFF" transform="matrix(1.00, 0.00, -0.00, -1.00, 6.0, 6.5)">’</text><text xml:space="preserve" font-family="GillSans,Gill Sans" font-size="24.0" fill="#FEFFFF" transform="matrix(1.00, 0.00, -0.00, -1.00, 11.3, 6.5)">l</text><text xml:space="preserve" font-family="GillSans,Gill Sans" font-size="24.0" fill="#FEFFFF" transform="matrix(1.00, 0.00, -0.00, -1.00, 16.5, 6.5)">l</text><text xml:space="preserve" font-family="GillSans,Gill Sans" font-size="24.0" fill="#FEFFFF" transform="matrix(1.00, 0.00, -0.00, -1.00, 21.8, 6.5)"> </text><text xml:space="preserve" font-family="GillSans,Gill Sans" font-size="24.0" fill="#FEFFFF" transform="matrix(1.00, 0.00, -0.00, -1.00, 28.5, 6.5)">p</text><text xml:space="preserve" font-family="GillSans,Gill Sans" font-size="24.0" fill="#FEFFFF" transform="matrix(1.00, 0.00, -0.00, -1.00, 40.5, 6.5)">l</text><text xml:space="preserve" font-family="GillSans,Gill Sans" font-size="24.0" fill="#FEFFFF" transform="matrix(1.00, 0.00, -0.00, -1.00, 45.7, 6.5)">o</text><text xml:space="preserve" font-family="GillSans,Gill Sans" font-size="24.0" fill="#FEFFFF" transform="matrix(1.00, 0.00, -0.00, -1.00, 59.0, 6.5)">t</text><text xml:space="preserve" font-family="GillSans,Gill Sans" font-size="24.0" fill="#FEFFFF" transform="matrix(1.00, 0.00, -0.00, -1.00, 67.0, 6.5)"> </text><text xml:space="preserve" font-family="GillSans,Gill Sans" font-size="24.0" fill="#FEFFFF" transform="matrix(1.00, 0.00, -0.00, -1.00, 73.6, 6.5)">t</text><text xml:space="preserve" font-family="GillSans,Gill Sans" font-size="24.0" fill="#FEFFFF" transform="matrix(1.00, 0.00, -0.00, -1.00, 81.6, 6.5)">h</text><text xml:space="preserve" font-family="GillSans,Gill Sans" font-size="24.0" fill="#FEFFFF" transform="matrix(1.00, 0.00, -0.00, -1.00, 93.6, 6.5)">e</text><text xml:space="preserve" font-family="GillSans,Gill Sans" font-size="24.0" fill="#FEFFFF" transform="matrix(1.00, 0.00, -0.00, -1.00, 105.1, 6.5)">s</text><text xml:space="preserve" font-family="GillSans,Gill Sans" font-size="24.0" fill="#FEFFFF" transform="matrix(1.00, 0.00, -0.00, -1.00, 114.3, 6.5)">e</text><text xml:space="preserve" font-family="GillSans,Gill Sans" font-size="24.0" fill="#FEFFFF" transform="matrix(1.00, 0.00, -0.00, -1.00, 125.8, 6.5)"> </text><text xml:space="preserve" font-family="GillSans,Gill Sans" font-size="24.0" fill="#FEFFFF" transform="matrix(1.00, 0.00, -0.00, -1.00, 132.5, 6.5)">s</text><text xml:space="preserve" font-family="GillSans,Gill Sans" font-size="24.0" fill="#FEFFFF" transform="matrix(1.00, 0.00, -0.00, -1.00, 141.7, 6.5)">t</text><text xml:space="preserve" font-family="GillSans,Gill Sans" font-size="24.0" fill="#FEFFFF" transform="matrix(1.00, 0.00, -0.00, -1.00, 149.7, 6.5)">i</text><text xml:space="preserve" font-family="GillSans,Gill Sans" font-size="24.0" fill="#FEFFFF" transform="matrix(1.00, 0.00, -0.00, -1.00, 155.0, 6.5)">m</text><text xml:space="preserve" font-family="GillSans,Gill Sans" font-size="24.0" fill="#FEFFFF" transform="matrix(1.00, 0.00, -0.00, -1.00, 173.3, 6.5)">u</text><text xml:space="preserve" font-family="GillSans,Gill Sans" font-size="24.0" fill="#FEFFFF" transform="matrix(1.00, 0.00, -0.00, -1.00, 185.3, 6.5)">l</text><text xml:space="preserve" font-family="GillSans,Gill Sans" font-size="24.0" fill="#FEFFFF" transform="matrix(1.00, 0.00, -0.00, -1.00, 190.5, 6.5)">i</text><text xml:space="preserve" font-family="GillSans,Gill Sans" font-size="24.0" fill="#FEFFFF" transform="matrix(1.00, 0.00, -0.00, -1.00, 195.8, 6.5)"> </text><text xml:space="preserve" font-family="GillSans,Gill Sans" font-size="24.0" fill="#FEFFFF" transform="matrix(1.00, 0.00, -0.00, -1.00, 202.5, 6.5)">a</text><text xml:space="preserve" font-family="GillSans,Gill Sans" font-size="24.0" fill="#FEFFFF" transform="matrix(1.00, 0.00, -0.00, -1.00, 212.7, 6.5)"> </text><text xml:space="preserve" font-family="GillSans,Gill Sans" font-size="24.0" fill="#FEFFFF" transform="matrix(1.00, 0.00, -0.00, -1.00, 219.4, 6.5)">d</text><text xml:space="preserve" font-family="GillSans,Gill Sans" font-size="24.0" fill="#FEFFFF" transform="matrix(1.00, 0.00, -0.00, -1.00, 231.6, 6.5)">i</text><text xml:space="preserve" font-family="GillSans,Gill Sans" font-size="24.0" fill="#FEFFFF" transform="matrix(1.00, 0.00, -0.00, -1.00, 236.8, 6.5)">f</text><text xml:space="preserve" font-family="GillSans,Gill Sans" font-size="24.0" fill="#FEFFFF" transform="matrix(1.00, 0.00, -0.00, -1.00, 242.8, 6.5)">f</text><text xml:space="preserve" font-family="GillSans,Gill Sans" font-size="24.0" fill="#FEFFFF" transform="matrix(1.00, 0.00, -0.00, -1.00, 248.6, 6.5)">e</text><text xml:space="preserve" font-family="GillSans,Gill Sans" font-size="24.0" fill="#FEFFFF" transform="matrix(1.00, 0.00, -0.00, -1.00, 260.1, 6.5)">r</text><text xml:space="preserve" font-family="GillSans,Gill Sans" font-size="24.0" fill="#FEFFFF" transform="matrix(1.00, 0.00, -0.00, -1.00, 269.1, 6.5)">e</text><text xml:space="preserve" font-family="GillSans,Gill Sans" font-size="24.0" fill="#FEFFFF" transform="matrix(1.00, 0.00, -0.00, -1.00, 280.6, 6.5)">n</text><text xml:space="preserve" font-family="GillSans,Gill Sans" font-size="24.0" fill="#FEFFFF" transform="matrix(1.00, 0.00, -0.00, -1.00, 292.6, 6.5)">t</text><text xml:space="preserve" font-family="GillSans,Gill Sans" font-size="24.0" fill="#FEFFFF" transform="matrix(1.00, 0.00, -0.00, -1.00, 300.6, 6.5)"> </text><text xml:space="preserve" font-family="GillSans,Gill Sans" font-size="24.0" fill="#FEFFFF" transform="matrix(1.00, 0.00, -0.00, -1.00, 307.3, 6.5)">w</text><text xml:space="preserve" font-family="GillSans,Gill Sans" font-size="24.0" fill="#FEFFFF" transform="matrix(1.00, 0.00, -0.00, -1.00, 324.6, 6.5)">a</text><text xml:space="preserve" font-family="GillSans,Gill Sans" font-size="24.0" fill="#FEFFFF" transform="matrix(1.00, 0.00, -0.00, -1.00, 333.8, 6.5)">y</text><text xml:space="preserve" font-family="GillSans,Gill Sans" font-size="24.0" fill="#FEFFFF" transform="matrix(1.00, 0.00, -0.00, -1.00, 344.3, 6.5)"> </text><text xml:space="preserve" font-family="GillSans,Gill Sans" font-size="24.0" fill="#FEFFFF" transform="matrix(1.00, 0.00, -0.00, -1.00, 351.0, 6.5)">t</text><text xml:space="preserve" font-family="GillSans,Gill Sans" font-size="24.0" fill="#FEFFFF" transform="matrix(1.00, 0.00, -0.00, -1.00, 359.0, 6.5)">o</text><text xml:space="preserve" font-family="GillSans,Gill Sans" font-size="24.0" fill="#FEFFFF" transform="matrix(1.00, 0.00, -0.00, -1.00, 372.2, 6.5)"> </text><text xml:space="preserve" font-family="GillSans,Gill Sans" font-size="24.0" fill="#FEFFFF" transform="matrix(1.00, 0.00, -0.00, -1.00, 378.9, 6.5)">m</text><text xml:space="preserve" font-family="GillSans,Gill Sans" font-size="24.0" fill="#FEFFFF" transform="matrix(1.00, 0.00, -0.00, -1.00, 397.4, 6.5)">a</text><text xml:space="preserve" font-family="GillSans,Gill Sans" font-size="24.0" fill="#FEFFFF" transform="matrix(1.00, 0.00, -0.00, -1.00, 407.6, 6.5)">k</text><text xml:space="preserve" font-family="GillSans,Gill Sans" font-size="24.0" fill="#FEFFFF" transform="matrix(1.00, 0.00, -0.00, -1.00, 418.4, 6.5)">e</text></g></svg>