<?xml version="1.0" encoding="UTF-8" standalone="no"?><svg xmlns="http://www.w3.org/2000/svg" xmlns:xlink="http://www.w3.org/1999/xlink" clip-rule="evenodd" stroke-miterlimit="10" viewBox="0 0 416 57"><desc>SVG generated by Keynote</desc><defs></defs><g transform="matrix(1.00, 0.00, -0.00, -1.00, 0.0, 57.0)"><image xlink:href="../../D920E9B0-4FDC-47B0-A3AE-389B575A3839/assets/05C35EEE9E122BB6FE5C05B66E530721.png" width="413.00" height="54.00" transform="matrix(1.00, 0.00, -0.00, -1.00, 2.0, 55.0)"></image><text xml:space="preserve" font-family="GillSans-Light,Gill Sans" font-size="47.0" fill="#FEFFFE" transform="matrix(1.00, 0.00, -0.00, -1.00, 4.3, 18.2)">N</text><text xml:space="preserve" font-family="GillSans-Light,Gill Sans" font-size="47.0" fill="#FEFFFE" transform="matrix(1.00, 0.00, -0.00, -1.00, 40.6, 18.2)">o</text><text xml:space="preserve" font-family="GillSans-Light,Gill Sans" font-size="47.0" fill="#FEFFFE" transform="matrix(1.00, 0.00, -0.00, -1.00, 66.1, 18.2)"> </text><text xml:space="preserve" font-family="GillSans-Light,Gill Sans" font-size="47.0" fill="#FEFFFE" transform="matrix(1.00, 0.00, -0.00, -1.00, 79.1, 18.2)">c</text><text xml:space="preserve" font-family="GillSans-Light,Gill Sans" font-size="47.0" fill="#FEFFFE" transform="matrix(1.00, 0.00, -0.00, -1.00, 98.8, 18.2)">h</text><text xml:space="preserve" font-family="GillSans-Light,Gill Sans" font-size="47.0" fill="#FEFFFE" transform="matrix(1.00, 0.00, -0.00, -1.00, 121.8, 18.2)">a</text><text xml:space="preserve" font-family="GillSans-Light,Gill Sans" font-size="47.0" fill="#FEFFFE" transform="matrix(1.00, 0.00, -0.00, -1.00, 141.9, 18.2)">n</text><text xml:space="preserve" font-family="GillSans-Light,Gill Sans" font-size="47.0" fill="#FEFFFE" transform="matrix(1.00, 0.00, -0.00, -1.00, 165.0, 18.2)">g</text><text xml:space="preserve" font-family="GillSans-Light,Gill Sans" font-size="47.0" fill="#FEFFFE" transform="matrix(1.00, 0.00, -0.00, -1.00, 185.0, 18.2)">e</text><text xml:space="preserve" font-family="GillSans-Light,Gill Sans" font-size="47.0" fill="#FEFFFE" transform="matrix(1.00, 0.00, -0.00, -1.00, 207.6, 18.2)"> </text><text xml:space="preserve" font-family="GillSans-Light,Gill Sans" font-size="47.0" fill="#FEFFFE" transform="matrix(1.00, 0.00, -0.00, -1.00, 220.6, 18.2)">i</text><text xml:space="preserve" font-family="GillSans-Light,Gill Sans" font-size="47.0" fill="#FEFFFE" transform="matrix(1.00, 0.00, -0.00, -1.00, 229.5, 18.2)">n</text><text xml:space="preserve" font-family="GillSans-Light,Gill Sans" font-size="47.0" fill="#FEFFFE" transform="matrix(1.00, 0.00, -0.00, -1.00, 252.5, 18.2)"> </text><text xml:space="preserve" font-family="GillSans-Light,Gill Sans" font-size="47.0" fill="#FEFFFE" transform="matrix(1.00, 0.00, -0.00, -1.00, 265.6, 18.2)">p</text><text xml:space="preserve" font-family="GillSans-Light,Gill Sans" font-size="47.0" fill="#FEFFFE" transform="matrix(1.00, 0.00, -0.00, -1.00, 289.6, 18.2)">o</text><text xml:space="preserve" font-family="GillSans-Light,Gill Sans" font-size="47.0" fill="#FEFFFE" transform="matrix(1.00, 0.00, -0.00, -1.00, 315.1, 18.2)">s</text><text xml:space="preserve" font-family="GillSans-Light,Gill Sans" font-size="47.0" fill="#FEFFFE" transform="matrix(1.00, 0.00, -0.00, -1.00, 331.7, 18.2)">i</text><text xml:space="preserve" font-family="GillSans-Light,Gill Sans" font-size="47.0" fill="#FEFFFE" transform="matrix(1.00, 0.00, -0.00, -1.00, 340.5, 18.2)">t</text><text xml:space="preserve" font-family="GillSans-Light,Gill Sans" font-size="47.0" fill="#FEFFFE" transform="matrix(1.00, 0.00, -0.00, -1.00, 354.7, 18.2)">i</text><text xml:space="preserve" font-family="GillSans-Light,Gill Sans" font-size="47.0" fill="#FEFFFE" transform="matrix(1.00, 0.00, -0.00, -1.00, 363.6, 18.2)">o</text><text xml:space="preserve" font-family="GillSans-Light,Gill Sans" font-size="47.0" fill="#FEFFFE" transform="matrix(1.00, 0.00, -0.00, -1.00, 389.1, 18.2)">n</text></g></svg>