<?xml version="1.0" encoding="UTF-8" standalone="no"?><svg xmlns="http://www.w3.org/2000/svg" xmlns:xlink="http://www.w3.org/1999/xlink" clip-rule="evenodd" stroke-miterlimit="10" viewBox="0 0 416 110"><desc>SVG generated by Keynote</desc><defs></defs><g transform="matrix(1.00, 0.00, -0.00, -1.00, 0.0, 110.0)"><image xlink:href="../../D920E9B0-4FDC-47B0-A3AE-389B575A3839/assets/83172B3430A73B514F0982005FB9E86A.png" width="345.00" height="44.00" transform="matrix(1.00, 0.00, -0.00, -1.00, 36.0, 108.0)"></image><text xml:space="preserve" font-family="GillSans-Light,Gill Sans" font-size="47.0" fill="#FEFFFE" transform="matrix(1.00, 0.00, -0.00, -1.00, 37.9, 71.2)">F</text><text xml:space="preserve" font-family="GillSans-Light,Gill Sans" font-size="47.0" fill="#FEFFFE" transform="matrix(1.00, 0.00, -0.00, -1.00, 58.5, 71.2)">i</text><text xml:space="preserve" font-family="GillSans-Light,Gill Sans" font-size="47.0" fill="#FEFFFE" transform="matrix(1.00, 0.00, -0.00, -1.00, 67.3, 71.2)">r</text><text xml:space="preserve" font-family="GillSans-Light,Gill Sans" font-size="47.0" fill="#FEFFFE" transform="matrix(1.00, 0.00, -0.00, -1.00, 84.9, 71.2)">s</text><text xml:space="preserve" font-family="GillSans-Light,Gill Sans" font-size="47.0" fill="#FEFFFE" transform="matrix(1.00, 0.00, -0.00, -1.00, 101.5, 71.2)">t</text><text xml:space="preserve" font-family="GillSans-Light,Gill Sans" font-size="47.0" fill="#FEFFFE" transform="matrix(1.00, 0.00, -0.00, -1.00, 115.7, 71.2)"> </text><text xml:space="preserve" font-family="GillSans-Light,Gill Sans" font-size="47.0" fill="#FEFFFE" transform="matrix(1.00, 0.00, -0.00, -1.00, 128.8, 71.2)">o</text><text xml:space="preserve" font-family="GillSans-Light,Gill Sans" font-size="47.0" fill="#FEFFFE" transform="matrix(1.00, 0.00, -0.00, -1.00, 154.3, 71.2)">r</text><text xml:space="preserve" font-family="GillSans-Light,Gill Sans" font-size="47.0" fill="#FEFFFE" transform="matrix(1.00, 0.00, -0.00, -1.00, 170.0, 71.2)">d</text><text xml:space="preserve" font-family="GillSans-Light,Gill Sans" font-size="47.0" fill="#FEFFFE" transform="matrix(1.00, 0.00, -0.00, -1.00, 193.9, 71.2)">e</text><text xml:space="preserve" font-family="GillSans-Light,Gill Sans" font-size="47.0" fill="#FEFFFE" transform="matrix(1.00, 0.00, -0.00, -1.00, 216.5, 71.2)">r</text><text xml:space="preserve" font-family="GillSans-Light,Gill Sans" font-size="47.0" fill="#FEFFFE" transform="matrix(1.00, 0.00, -0.00, -1.00, 232.1, 71.2)"> </text><text xml:space="preserve" font-family="GillSans-Light,Gill Sans" font-size="47.0" fill="#FEFFFE" transform="matrix(1.00, 0.00, -0.00, -1.00, 245.2, 71.2)">m</text><text xml:space="preserve" font-family="GillSans-Light,Gill Sans" font-size="47.0" fill="#FEFFFE" transform="matrix(1.00, 0.00, -0.00, -1.00, 281.4, 71.2)">o</text><text xml:space="preserve" font-family="GillSans-Light,Gill Sans" font-size="47.0" fill="#FEFFFE" transform="matrix(1.00, 0.00, -0.00, -1.00, 306.9, 71.2)">t</text><text xml:space="preserve" font-family="GillSans-Light,Gill Sans" font-size="47.0" fill="#FEFFFE" transform="matrix(1.00, 0.00, -0.00, -1.00, 321.1, 71.2)">i</text><text xml:space="preserve" font-family="GillSans-Light,Gill Sans" font-size="47.0" fill="#FEFFFE" transform="matrix(1.00, 0.00, -0.00, -1.00, 330.0, 71.2)">o</text><text xml:space="preserve" font-family="GillSans-Light,Gill Sans" font-size="47.0" fill="#FEFFFE" transform="matrix(1.00, 0.00, -0.00, -1.00, 355.5, 71.2)">n</text><text xml:space="preserve" font-family="GillSans-Light,Gill Sans" font-size="47.0" fill="#FEFFFE" transform="matrix(1.00, 0.00, -0.00, -1.00, 378.5, 71.2)">	</text><text xml:space="preserve" font-family="GillSans-Light,Gill Sans" font-size="47.0" fill="#FEFFFE" transform="matrix(1.00, 0.00, -0.00, -1.00, 406.5, 71.2)">
</text><text xml:space="preserve" font-family="GillSans-Light,Gill Sans" font-size="47.0" fill="#FEFFFE" transform="matrix(1.00, 0.00, -0.00, -1.00, 406.5, 71.2)"></text><image xlink:href="../../D920E9B0-4FDC-47B0-A3AE-389B575A3839/assets/05C35EEE9E122BB6FE5C05B66E530721.png" width="413.00" height="54.00" transform="matrix(1.00, 0.00, -0.00, -1.00, 2.0, 55.0)"></image><text xml:space="preserve" font-family="GillSans-Light,Gill Sans" font-size="47.0" fill="#FEFFFE" transform="matrix(1.00, 0.00, -0.00, -1.00, 4.3, 18.2)">N</text><text xml:space="preserve" font-family="GillSans-Light,Gill Sans" font-size="47.0" fill="#FEFFFE" transform="matrix(1.00, 0.00, -0.00, -1.00, 40.6, 18.2)">o</text><text xml:space="preserve" font-family="GillSans-Light,Gill Sans" font-size="47.0" fill="#FEFFFE" transform="matrix(1.00, 0.00, -0.00, -1.00, 66.1, 18.2)"> </text><text xml:space="preserve" font-family="GillSans-Light,Gill Sans" font-size="47.0" fill="#FEFFFE" transform="matrix(1.00, 0.00, -0.00, -1.00, 79.1, 18.2)">c</text><text xml:space="preserve" font-family="GillSans-Light,Gill Sans" font-size="47.0" fill="#FEFFFE" transform="matrix(1.00, 0.00, -0.00, -1.00, 98.8, 18.2)">h</text><text xml:space="preserve" font-family="GillSans-Light,Gill Sans" font-size="47.0" fill="#FEFFFE" transform="matrix(1.00, 0.00, -0.00, -1.00, 121.8, 18.2)">a</text><text xml:space="preserve" font-family="GillSans-Light,Gill Sans" font-size="47.0" fill="#FEFFFE" transform="matrix(1.00, 0.00, -0.00, -1.00, 141.9, 18.2)">n</text><text xml:space="preserve" font-family="GillSans-Light,Gill Sans" font-size="47.0" fill="#FEFFFE" transform="matrix(1.00, 0.00, -0.00, -1.00, 165.0, 18.2)">g</text><text xml:space="preserve" font-family="GillSans-Light,Gill Sans" font-size="47.0" fill="#FEFFFE" transform="matrix(1.00, 0.00, -0.00, -1.00, 185.0, 18.2)">e</text><text xml:space="preserve" font-family="GillSans-Light,Gill Sans" font-size="47.0" fill="#FEFFFE" transform="matrix(1.00, 0.00, -0.00, -1.00, 207.6, 18.2)"> </text><text xml:space="preserve" font-family="GillSans-Light,Gill Sans" font-size="47.0" fill="#FEFFFE" transform="matrix(1.00, 0.00, -0.00, -1.00, 220.6, 18.2)">i</text><text xml:space="preserve" font-family="GillSans-Light,Gill Sans" font-size="47.0" fill="#FEFFFE" transform="matrix(1.00, 0.00, -0.00, -1.00, 229.5, 18.2)">n</text><text xml:space="preserve" font-family="GillSans-Light,Gill Sans" font-size="47.0" fill="#FEFFFE" transform="matrix(1.00, 0.00, -0.00, -1.00, 252.5, 18.2)"> </text><text xml:space="preserve" font-family="GillSans-Light,Gill Sans" font-size="47.0" fill="#FEFFFE" transform="matrix(1.00, 0.00, -0.00, -1.00, 265.6, 18.2)">p</text><text xml:space="preserve" font-family="GillSans-Light,Gill Sans" font-size="47.0" fill="#FEFFFE" transform="matrix(1.00, 0.00, -0.00, -1.00, 289.6, 18.2)">o</text><text xml:space="preserve" font-family="GillSans-Light,Gill Sans" font-size="47.0" fill="#FEFFFE" transform="matrix(1.00, 0.00, -0.00, -1.00, 315.1, 18.2)">s</text><text xml:space="preserve" font-family="GillSans-Light,Gill Sans" font-size="47.0" fill="#FEFFFE" transform="matrix(1.00, 0.00, -0.00, -1.00, 331.7, 18.2)">i</text><text xml:space="preserve" font-family="GillSans-Light,Gill Sans" font-size="47.0" fill="#FEFFFE" transform="matrix(1.00, 0.00, -0.00, -1.00, 340.5, 18.2)">t</text><text xml:space="preserve" font-family="GillSans-Light,Gill Sans" font-size="47.0" fill="#FEFFFE" transform="matrix(1.00, 0.00, -0.00, -1.00, 354.7, 18.2)">i</text><text xml:space="preserve" font-family="GillSans-Light,Gill Sans" font-size="47.0" fill="#FEFFFE" transform="matrix(1.00, 0.00, -0.00, -1.00, 363.6, 18.2)">o</text><text xml:space="preserve" font-family="GillSans-Light,Gill Sans" font-size="47.0" fill="#FEFFFE" transform="matrix(1.00, 0.00, -0.00, -1.00, 389.1, 18.2)">n</text></g></svg>