<?xml version="1.0" encoding="UTF-8" standalone="no"?><svg xmlns="http://www.w3.org/2000/svg" xmlns:xlink="http://www.w3.org/1999/xlink" clip-rule="evenodd" stroke-miterlimit="10" viewBox="0 0 417 94"><desc>SVG generated by Keynote</desc><defs></defs><g transform="matrix(1.00, 0.00, -0.00, -1.00, 0.0, 94.0)"><image xlink:href="../../D920E9B0-4FDC-47B0-A3AE-389B575A3839/assets/7A7BD3AC9A5D171B49BE301469E82332.png" width="411.00" height="42.00" transform="matrix(1.00, 0.00, -0.00, -1.00, 2.0, 92.0)"></image><text xml:space="preserve" font-family="GillSans-Light,Gill Sans" font-size="43.2" fill="#FEFFFE" transform="matrix(1.00, 0.00, -0.00, -1.00, 4.1, 57.3)">P</text><text xml:space="preserve" font-family="GillSans-Light,Gill Sans" font-size="43.2" fill="#FEFFFE" transform="matrix(1.00, 0.00, -0.00, -1.00, 23.9, 57.3)">o</text><text xml:space="preserve" font-family="GillSans-Light,Gill Sans" font-size="43.2" fill="#FEFFFE" transform="matrix(1.00, 0.00, -0.00, -1.00, 47.3, 57.3)">s</text><text xml:space="preserve" font-family="GillSans-Light,Gill Sans" font-size="43.2" fill="#FEFFFE" transform="matrix(1.00, 0.00, -0.00, -1.00, 62.6, 57.3)">i</text><text xml:space="preserve" font-family="GillSans-Light,Gill Sans" font-size="43.2" fill="#FEFFFE" transform="matrix(1.00, 0.00, -0.00, -1.00, 70.8, 57.3)">t</text><text xml:space="preserve" font-family="GillSans-Light,Gill Sans" font-size="43.2" fill="#FEFFFE" transform="matrix(1.00, 0.00, -0.00, -1.00, 83.8, 57.3)">i</text><text xml:space="preserve" font-family="GillSans-Light,Gill Sans" font-size="43.2" fill="#FEFFFE" transform="matrix(1.00, 0.00, -0.00, -1.00, 91.9, 57.3)">o</text><text xml:space="preserve" font-family="GillSans-Light,Gill Sans" font-size="43.2" fill="#FEFFFE" transform="matrix(1.00, 0.00, -0.00, -1.00, 115.3, 57.3)">n</text><text xml:space="preserve" font-family="GillSans-Light,Gill Sans" font-size="43.2" fill="#FEFFFE" transform="matrix(1.00, 0.00, -0.00, -1.00, 136.5, 57.3)"> </text><text xml:space="preserve" font-family="GillSans-Light,Gill Sans" font-size="43.2" fill="#FEFFFE" transform="matrix(1.00, 0.00, -0.00, -1.00, 148.5, 57.3)">d</text><text xml:space="preserve" font-family="GillSans-Light,Gill Sans" font-size="43.2" fill="#FEFFFE" transform="matrix(1.00, 0.00, -0.00, -1.00, 170.5, 57.3)">e</text><text xml:space="preserve" font-family="GillSans-Light,Gill Sans" font-size="43.2" fill="#FEFFFE" transform="matrix(1.00, 0.00, -0.00, -1.00, 191.2, 57.3)">ﬁ</text><text xml:space="preserve" font-family="GillSans-Light,Gill Sans" font-size="43.2" fill="#FEFFFE" transform="matrix(1.00, 0.00, -0.00, -1.00, 211.9, 57.3)">n</text><text xml:space="preserve" font-family="GillSans-Light,Gill Sans" font-size="43.2" fill="#FEFFFE" transform="matrix(1.00, 0.00, -0.00, -1.00, 233.1, 57.3)">e</text><text xml:space="preserve" font-family="GillSans-Light,Gill Sans" font-size="43.2" fill="#FEFFFE" transform="matrix(1.00, 0.00, -0.00, -1.00, 253.8, 57.3)">d</text><text xml:space="preserve" font-family="GillSans-Light,Gill Sans" font-size="43.2" fill="#FEFFFE" transform="matrix(1.00, 0.00, -0.00, -1.00, 275.8, 57.3)"> </text><text xml:space="preserve" font-family="GillSans-Light,Gill Sans" font-size="43.2" fill="#FEFFFE" transform="matrix(1.00, 0.00, -0.00, -1.00, 287.8, 57.3)">m</text><text xml:space="preserve" font-family="GillSans-Light,Gill Sans" font-size="43.2" fill="#FEFFFE" transform="matrix(1.00, 0.00, -0.00, -1.00, 321.1, 57.3)">o</text><text xml:space="preserve" font-family="GillSans-Light,Gill Sans" font-size="43.2" fill="#FEFFFE" transform="matrix(1.00, 0.00, -0.00, -1.00, 344.5, 57.3)">t</text><text xml:space="preserve" font-family="GillSans-Light,Gill Sans" font-size="43.2" fill="#FEFFFE" transform="matrix(1.00, 0.00, -0.00, -1.00, 357.5, 57.3)">i</text><text xml:space="preserve" font-family="GillSans-Light,Gill Sans" font-size="43.2" fill="#FEFFFE" transform="matrix(1.00, 0.00, -0.00, -1.00, 365.7, 57.3)">o</text><text xml:space="preserve" font-family="GillSans-Light,Gill Sans" font-size="43.2" fill="#FEFFFE" transform="matrix(1.00, 0.00, -0.00, -1.00, 389.1, 57.3)">n</text><text xml:space="preserve" font-family="GillSans-Light,Gill Sans" font-size="43.2" fill="#FEFFFE" transform="matrix(1.00, 0.00, -0.00, -1.00, 410.3, 57.3)">	</text><text xml:space="preserve" font-family="GillSans-Light,Gill Sans" font-size="43.2" fill="#FEFFFE" transform="matrix(1.00, 0.00, -0.00, -1.00, 438.3, 57.3)">
</text><text xml:space="preserve" font-family="GillSans-Light,Gill Sans" font-size="43.2" fill="#FEFFFE" transform="matrix(1.00, 0.00, -0.00, -1.00, 438.3, 57.3)"></text><image xlink:href="../../D920E9B0-4FDC-47B0-A3AE-389B575A3839/assets/9A3A05028F81DA83BBE1D5373DEAD959.png" width="381.00" height="42.00" transform="matrix(1.00, 0.00, -0.00, -1.00, 17.0, 43.0)"></image><text xml:space="preserve" font-family="GillSans-Light,Gill Sans" font-size="43.2" fill="#FEFFFE" transform="matrix(1.00, 0.00, -0.00, -1.00, 19.6, 8.3)">N</text><text xml:space="preserve" font-family="GillSans-Light,Gill Sans" font-size="43.2" fill="#FEFFFE" transform="matrix(1.00, 0.00, -0.00, -1.00, 52.9, 8.3)">o</text><text xml:space="preserve" font-family="GillSans-Light,Gill Sans" font-size="43.2" fill="#FEFFFE" transform="matrix(1.00, 0.00, -0.00, -1.00, 76.3, 8.3)"> </text><text xml:space="preserve" font-family="GillSans-Light,Gill Sans" font-size="43.2" fill="#FEFFFE" transform="matrix(1.00, 0.00, -0.00, -1.00, 88.3, 8.3)">ﬁ</text><text xml:space="preserve" font-family="GillSans-Light,Gill Sans" font-size="43.2" fill="#FEFFFE" transform="matrix(1.00, 0.00, -0.00, -1.00, 109.0, 8.3)">r</text><text xml:space="preserve" font-family="GillSans-Light,Gill Sans" font-size="43.2" fill="#FEFFFE" transform="matrix(1.00, 0.00, -0.00, -1.00, 125.1, 8.3)">s</text><text xml:space="preserve" font-family="GillSans-Light,Gill Sans" font-size="43.2" fill="#FEFFFE" transform="matrix(1.00, 0.00, -0.00, -1.00, 140.4, 8.3)">t</text><text xml:space="preserve" font-family="GillSans-Light,Gill Sans" font-size="43.2" fill="#FEFFFE" transform="matrix(1.00, 0.00, -0.00, -1.00, 153.4, 8.3)"> </text><text xml:space="preserve" font-family="GillSans-Light,Gill Sans" font-size="43.2" fill="#FEFFFE" transform="matrix(1.00, 0.00, -0.00, -1.00, 165.4, 8.3)">o</text><text xml:space="preserve" font-family="GillSans-Light,Gill Sans" font-size="43.2" fill="#FEFFFE" transform="matrix(1.00, 0.00, -0.00, -1.00, 188.8, 8.3)">r</text><text xml:space="preserve" font-family="GillSans-Light,Gill Sans" font-size="43.2" fill="#FEFFFE" transform="matrix(1.00, 0.00, -0.00, -1.00, 203.2, 8.3)">d</text><text xml:space="preserve" font-family="GillSans-Light,Gill Sans" font-size="43.2" fill="#FEFFFE" transform="matrix(1.00, 0.00, -0.00, -1.00, 225.2, 8.3)">e</text><text xml:space="preserve" font-family="GillSans-Light,Gill Sans" font-size="43.2" fill="#FEFFFE" transform="matrix(1.00, 0.00, -0.00, -1.00, 245.9, 8.3)">r</text><text xml:space="preserve" font-family="GillSans-Light,Gill Sans" font-size="43.2" fill="#FEFFFE" transform="matrix(1.00, 0.00, -0.00, -1.00, 260.3, 8.3)"> </text><text xml:space="preserve" font-family="GillSans-Light,Gill Sans" font-size="43.2" fill="#FEFFFE" transform="matrix(1.00, 0.00, -0.00, -1.00, 272.3, 8.3)">m</text><text xml:space="preserve" font-family="GillSans-Light,Gill Sans" font-size="43.2" fill="#FEFFFE" transform="matrix(1.00, 0.00, -0.00, -1.00, 305.6, 8.3)">o</text><text xml:space="preserve" font-family="GillSans-Light,Gill Sans" font-size="43.2" fill="#FEFFFE" transform="matrix(1.00, 0.00, -0.00, -1.00, 329.0, 8.3)">t</text><text xml:space="preserve" font-family="GillSans-Light,Gill Sans" font-size="43.2" fill="#FEFFFE" transform="matrix(1.00, 0.00, -0.00, -1.00, 342.0, 8.3)">i</text><text xml:space="preserve" font-family="GillSans-Light,Gill Sans" font-size="43.2" fill="#FEFFFE" transform="matrix(1.00, 0.00, -0.00, -1.00, 350.1, 8.3)">o</text><text xml:space="preserve" font-family="GillSans-Light,Gill Sans" font-size="43.2" fill="#FEFFFE" transform="matrix(1.00, 0.00, -0.00, -1.00, 373.6, 8.3)">n</text></g></svg>