<?xml version="1.0" encoding="UTF-8" standalone="no"?><svg xmlns="http://www.w3.org/2000/svg" xmlns:xlink="http://www.w3.org/1999/xlink" clip-rule="evenodd" stroke-miterlimit="10" viewBox="0 0 481 18"><desc>SVG generated by Keynote</desc><defs></defs><g transform="matrix(1.00, 0.00, -0.00, -1.00, 0.0, 18.0)"><text xml:space="preserve" font-family="GillSans,Gill Sans" font-size="17.0" fill="#FEFFFF" transform="matrix(1.00, 0.00, -0.00, -1.00, 0.4, 4.9)">L</text><text xml:space="preserve" font-family="GillSans,Gill Sans" font-size="17.0" fill="#FEFFFF" transform="matrix(1.00, 0.00, -0.00, -1.00, 8.7, 4.9)">o</text><text xml:space="preserve" font-family="GillSans,Gill Sans" font-size="17.0" fill="#FEFFFF" transform="matrix(1.00, 0.00, -0.00, -1.00, 18.1, 4.9)">o</text><text xml:space="preserve" font-family="GillSans,Gill Sans" font-size="17.0" fill="#FEFFFF" transform="matrix(1.00, 0.00, -0.00, -1.00, 27.5, 4.9)">k</text><text xml:space="preserve" font-family="GillSans,Gill Sans" font-size="17.0" fill="#FEFFFF" transform="matrix(1.00, 0.00, -0.00, -1.00, 35.6, 4.9)"> </text><text xml:space="preserve" font-family="GillSans,Gill Sans" font-size="17.0" fill="#FEFFFF" transform="matrix(1.00, 0.00, -0.00, -1.00, 40.4, 4.9)">4</text><text xml:space="preserve" font-family="GillSans,Gill Sans" font-size="17.0" fill="#FEFFFF" transform="matrix(1.00, 0.00, -0.00, -1.00, 48.9, 4.9)">5</text><text xml:space="preserve" font-family="GillSans,Gill Sans" font-size="17.0" fill="#FEFFFF" transform="matrix(1.00, 0.00, -0.00, -1.00, 57.4, 4.9)"> </text><text xml:space="preserve" font-family="GillSans,Gill Sans" font-size="17.0" fill="#FEFFFF" transform="matrix(1.00, 0.00, -0.00, -1.00, 62.1, 4.9)">d</text><text xml:space="preserve" font-family="GillSans,Gill Sans" font-size="17.0" fill="#FEFFFF" transform="matrix(1.00, 0.00, -0.00, -1.00, 70.7, 4.9)">e</text><text xml:space="preserve" font-family="GillSans,Gill Sans" font-size="17.0" fill="#FEFFFF" transform="matrix(1.00, 0.00, -0.00, -1.00, 78.9, 4.9)">g</text><text xml:space="preserve" font-family="GillSans,Gill Sans" font-size="17.0" fill="#FEFFFF" transform="matrix(1.00, 0.00, -0.00, -1.00, 86.1, 4.9)">r</text><text xml:space="preserve" font-family="GillSans,Gill Sans" font-size="17.0" fill="#FEFFFF" transform="matrix(1.00, 0.00, -0.00, -1.00, 92.5, 4.9)">e</text><text xml:space="preserve" font-family="GillSans,Gill Sans" font-size="17.0" fill="#FEFFFF" transform="matrix(1.00, 0.00, -0.00, -1.00, 100.7, 4.9)">e</text><text xml:space="preserve" font-family="GillSans,Gill Sans" font-size="17.0" fill="#FEFFFF" transform="matrix(1.00, 0.00, -0.00, -1.00, 108.8, 4.9)">s</text><text xml:space="preserve" font-family="GillSans,Gill Sans" font-size="17.0" fill="#FEFFFF" transform="matrix(1.00, 0.00, -0.00, -1.00, 115.3, 4.9)"> </text><text xml:space="preserve" font-family="GillSans,Gill Sans" font-size="17.0" fill="#FEFFFF" transform="matrix(1.00, 0.00, -0.00, -1.00, 120.1, 4.9)">t</text><text xml:space="preserve" font-family="GillSans,Gill Sans" font-size="17.0" fill="#FEFFFF" transform="matrix(1.00, 0.00, -0.00, -1.00, 125.7, 4.9)">o</text><text xml:space="preserve" font-family="GillSans,Gill Sans" font-size="17.0" fill="#FEFFFF" transform="matrix(1.00, 0.00, -0.00, -1.00, 135.1, 4.9)"> </text><text xml:space="preserve" font-family="GillSans,Gill Sans" font-size="17.0" fill="#FEFFFF" transform="matrix(1.00, 0.00, -0.00, -1.00, 139.8, 4.9)">t</text><text xml:space="preserve" font-family="GillSans,Gill Sans" font-size="17.0" fill="#FEFFFF" transform="matrix(1.00, 0.00, -0.00, -1.00, 145.5, 4.9)">h</text><text xml:space="preserve" font-family="GillSans,Gill Sans" font-size="17.0" fill="#FEFFFF" transform="matrix(1.00, 0.00, -0.00, -1.00, 154.0, 4.9)">e</text><text xml:space="preserve" font-family="GillSans,Gill Sans" font-size="17.0" fill="#FEFFFF" transform="matrix(1.00, 0.00, -0.00, -1.00, 162.1, 4.9)"> </text><text xml:space="preserve" font-family="GillSans,Gill Sans" font-size="17.0" fill="#FEFFFF" transform="matrix(1.00, 0.00, -0.00, -1.00, 166.8, 4.9)">l</text><text xml:space="preserve" font-family="GillSans,Gill Sans" font-size="17.0" fill="#FEFFFF" transform="matrix(1.00, 0.00, -0.00, -1.00, 170.6, 4.9)">e</text><text xml:space="preserve" font-family="GillSans,Gill Sans" font-size="17.0" fill="#FEFFFF" transform="matrix(1.00, 0.00, -0.00, -1.00, 178.7, 4.9)">f</text><text xml:space="preserve" font-family="GillSans,Gill Sans" font-size="17.0" fill="#FEFFFF" transform="matrix(1.00, 0.00, -0.00, -1.00, 183.0, 4.9)">t</text><text xml:space="preserve" font-family="GillSans,Gill Sans" font-size="17.0" fill="#FEFFFF" transform="matrix(1.00, 0.00, -0.00, -1.00, 188.6, 4.9)"> </text><text xml:space="preserve" font-family="GillSans,Gill Sans" font-size="17.0" fill="#FEFFFF" transform="matrix(1.00, 0.00, -0.00, -1.00, 193.4, 4.9)">o</text><text xml:space="preserve" font-family="GillSans,Gill Sans" font-size="17.0" fill="#FEFFFF" transform="matrix(1.00, 0.00, -0.00, -1.00, 202.7, 4.9)">r</text><text xml:space="preserve" font-family="GillSans,Gill Sans" font-size="17.0" fill="#FEFFFF" transform="matrix(1.00, 0.00, -0.00, -1.00, 209.5, 4.9)"> </text><text xml:space="preserve" font-family="GillSans,Gill Sans" font-size="17.0" fill="#FEFFFF" transform="matrix(1.00, 0.00, -0.00, -1.00, 214.2, 4.9)">r</text><text xml:space="preserve" font-family="GillSans,Gill Sans" font-size="17.0" fill="#FEFFFF" transform="matrix(1.00, 0.00, -0.00, -1.00, 220.9, 4.9)">i</text><text xml:space="preserve" font-family="GillSans,Gill Sans" font-size="17.0" fill="#FEFFFF" transform="matrix(1.00, 0.00, -0.00, -1.00, 224.6, 4.9)">g</text><text xml:space="preserve" font-family="GillSans,Gill Sans" font-size="17.0" fill="#FEFFFF" transform="matrix(1.00, 0.00, -0.00, -1.00, 231.9, 4.9)">h</text><text xml:space="preserve" font-family="GillSans,Gill Sans" font-size="17.0" fill="#FEFFFF" transform="matrix(1.00, 0.00, -0.00, -1.00, 240.4, 4.9)">t</text><text xml:space="preserve" font-family="GillSans,Gill Sans" font-size="17.0" fill="#FEFFFF" transform="matrix(1.00, 0.00, -0.00, -1.00, 246.1, 4.9)"> </text><text xml:space="preserve" font-family="GillSans,Gill Sans" font-size="17.0" fill="#FEFFFF" transform="matrix(1.00, 0.00, -0.00, -1.00, 250.8, 4.9)">o</text><text xml:space="preserve" font-family="GillSans,Gill Sans" font-size="17.0" fill="#FEFFFF" transform="matrix(1.00, 0.00, -0.00, -1.00, 260.2, 4.9)">f</text><text xml:space="preserve" font-family="GillSans,Gill Sans" font-size="17.0" fill="#FEFFFF" transform="matrix(1.00, 0.00, -0.00, -1.00, 264.4, 4.9)"> </text><text xml:space="preserve" font-family="GillSans,Gill Sans" font-size="17.0" fill="#FEFFFF" transform="matrix(1.00, 0.00, -0.00, -1.00, 269.1, 4.9)">t</text><text xml:space="preserve" font-family="GillSans,Gill Sans" font-size="17.0" fill="#FEFFFF" transform="matrix(1.00, 0.00, -0.00, -1.00, 274.8, 4.9)">h</text><text xml:space="preserve" font-family="GillSans,Gill Sans" font-size="17.0" fill="#FEFFFF" transform="matrix(1.00, 0.00, -0.00, -1.00, 283.3, 4.9)">e</text><text xml:space="preserve" font-family="GillSans,Gill Sans" font-size="17.0" fill="#FEFFFF" transform="matrix(1.00, 0.00, -0.00, -1.00, 291.4, 4.9)"> </text><text xml:space="preserve" font-family="GillSans,Gill Sans" font-size="17.0" fill="#FEFFFF" transform="matrix(1.00, 0.00, -0.00, -1.00, 296.1, 4.9)">s</text><text xml:space="preserve" font-family="GillSans,Gill Sans" font-size="17.0" fill="#FEFFFF" transform="matrix(1.00, 0.00, -0.00, -1.00, 302.7, 4.9)">c</text><text xml:space="preserve" font-family="GillSans,Gill Sans" font-size="17.0" fill="#FEFFFF" transform="matrix(1.00, 0.00, -0.00, -1.00, 310.1, 4.9)">r</text><text xml:space="preserve" font-family="GillSans,Gill Sans" font-size="17.0" fill="#FEFFFF" transform="matrix(1.00, 0.00, -0.00, -1.00, 316.5, 4.9)">e</text><text xml:space="preserve" font-family="GillSans,Gill Sans" font-size="17.0" fill="#FEFFFF" transform="matrix(1.00, 0.00, -0.00, -1.00, 324.7, 4.9)">e</text><text xml:space="preserve" font-family="GillSans,Gill Sans" font-size="17.0" fill="#FEFFFF" transform="matrix(1.00, 0.00, -0.00, -1.00, 332.8, 4.9)">n</text><text xml:space="preserve" font-family="GillSans,Gill Sans" font-size="17.0" fill="#FEFFFF" transform="matrix(1.00, 0.00, -0.00, -1.00, 341.3, 4.9)">,</text><text xml:space="preserve" font-family="GillSans,Gill Sans" font-size="17.0" fill="#FEFFFF" transform="matrix(1.00, 0.00, -0.00, -1.00, 343.3, 4.9)"> </text><text xml:space="preserve" font-family="GillSans,Gill Sans" font-size="17.0" fill="#FEFFFF" transform="matrix(1.00, 0.00, -0.00, -1.00, 348.1, 4.9)">c</text><text xml:space="preserve" font-family="GillSans,Gill Sans" font-size="17.0" fill="#FEFFFF" transform="matrix(1.00, 0.00, -0.00, -1.00, 355.5, 4.9)">a</text><text xml:space="preserve" font-family="GillSans,Gill Sans" font-size="17.0" fill="#FEFFFF" transform="matrix(1.00, 0.00, -0.00, -1.00, 362.8, 4.9)">t</text><text xml:space="preserve" font-family="GillSans,Gill Sans" font-size="17.0" fill="#FEFFFF" transform="matrix(1.00, 0.00, -0.00, -1.00, 368.4, 4.9)">c</text><text xml:space="preserve" font-family="GillSans,Gill Sans" font-size="17.0" fill="#FEFFFF" transform="matrix(1.00, 0.00, -0.00, -1.00, 375.9, 4.9)">h</text><text xml:space="preserve" font-family="GillSans,Gill Sans" font-size="17.0" fill="#FEFFFF" transform="matrix(1.00, 0.00, -0.00, -1.00, 384.4, 4.9)">i</text><text xml:space="preserve" font-family="GillSans,Gill Sans" font-size="17.0" fill="#FEFFFF" transform="matrix(1.00, 0.00, -0.00, -1.00, 388.1, 4.9)">n</text><text xml:space="preserve" font-family="GillSans,Gill Sans" font-size="17.0" fill="#FEFFFF" transform="matrix(1.00, 0.00, -0.00, -1.00, 396.6, 4.9)">g</text><text xml:space="preserve" font-family="GillSans,Gill Sans" font-size="17.0" fill="#FEFFFF" transform="matrix(1.00, 0.00, -0.00, -1.00, 403.8, 4.9)"> </text><text xml:space="preserve" font-family="GillSans,Gill Sans" font-size="17.0" fill="#FEFFFF" transform="matrix(1.00, 0.00, -0.00, -1.00, 408.6, 4.9)">t</text><text xml:space="preserve" font-family="GillSans,Gill Sans" font-size="17.0" fill="#FEFFFF" transform="matrix(1.00, 0.00, -0.00, -1.00, 414.2, 4.9)">h</text><text xml:space="preserve" font-family="GillSans,Gill Sans" font-size="17.0" fill="#FEFFFF" transform="matrix(1.00, 0.00, -0.00, -1.00, 422.7, 4.9)">e</text><text xml:space="preserve" font-family="GillSans,Gill Sans" font-size="17.0" fill="#FEFFFF" transform="matrix(1.00, 0.00, -0.00, -1.00, 430.9, 4.9)"> </text><text xml:space="preserve" font-family="GillSans,Gill Sans" font-size="17.0" fill="#FEFFFF" transform="matrix(1.00, 0.00, -0.00, -1.00, 435.6, 4.9)">s</text><text xml:space="preserve" font-family="GillSans,Gill Sans" font-size="17.0" fill="#FEFFFF" transform="matrix(1.00, 0.00, -0.00, -1.00, 442.1, 4.9)">c</text><text xml:space="preserve" font-family="GillSans,Gill Sans" font-size="17.0" fill="#FEFFFF" transform="matrix(1.00, 0.00, -0.00, -1.00, 449.6, 4.9)">r</text><text xml:space="preserve" font-family="GillSans,Gill Sans" font-size="17.0" fill="#FEFFFF" transform="matrix(1.00, 0.00, -0.00, -1.00, 456.0, 4.9)">e</text><text xml:space="preserve" font-family="GillSans,Gill Sans" font-size="17.0" fill="#FEFFFF" transform="matrix(1.00, 0.00, -0.00, -1.00, 464.1, 4.9)">e</text><text xml:space="preserve" font-family="GillSans,Gill Sans" font-size="17.0" fill="#FEFFFF" transform="matrix(1.00, 0.00, -0.00, -1.00, 472.2, 4.9)">n</text></g></svg>