<?xml version="1.0" encoding="UTF-8" standalone="no"?><svg xmlns="http://www.w3.org/2000/svg" xmlns:xlink="http://www.w3.org/1999/xlink" clip-rule="evenodd" stroke-miterlimit="10" viewBox="0 0 469 18"><desc>SVG generated by Keynote</desc><defs></defs><g transform="matrix(1.00, 0.00, -0.00, -1.00, 0.0, 18.0)"><text xml:space="preserve" font-family="GillSans,Gill Sans" font-size="17.0" fill="#FEFFFF" transform="matrix(1.00, 0.00, -0.00, -1.00, 1.0, 4.9)">t</text><text xml:space="preserve" font-family="GillSans,Gill Sans" font-size="17.0" fill="#FEFFFF" transform="matrix(1.00, 0.00, -0.00, -1.00, 6.7, 4.9)">h</text><text xml:space="preserve" font-family="GillSans,Gill Sans" font-size="17.0" fill="#FEFFFF" transform="matrix(1.00, 0.00, -0.00, -1.00, 15.2, 4.9)">e</text><text xml:space="preserve" font-family="GillSans,Gill Sans" font-size="17.0" fill="#FEFFFF" transform="matrix(1.00, 0.00, -0.00, -1.00, 23.3, 4.9)"> </text><text xml:space="preserve" font-family="GillSans,Gill Sans" font-size="17.0" fill="#FEFFFF" transform="matrix(1.00, 0.00, -0.00, -1.00, 28.0, 4.9)">a</text><text xml:space="preserve" font-family="GillSans,Gill Sans" font-size="17.0" fill="#FEFFFF" transform="matrix(1.00, 0.00, -0.00, -1.00, 35.3, 4.9)">c</text><text xml:space="preserve" font-family="GillSans,Gill Sans" font-size="17.0" fill="#FEFFFF" transform="matrix(1.00, 0.00, -0.00, -1.00, 42.7, 4.9)">t</text><text xml:space="preserve" font-family="GillSans,Gill Sans" font-size="17.0" fill="#FEFFFF" transform="matrix(1.00, 0.00, -0.00, -1.00, 48.4, 4.9)">i</text><text xml:space="preserve" font-family="GillSans,Gill Sans" font-size="17.0" fill="#FEFFFF" transform="matrix(1.00, 0.00, -0.00, -1.00, 52.1, 4.9)">v</text><text xml:space="preserve" font-family="GillSans,Gill Sans" font-size="17.0" fill="#FEFFFF" transform="matrix(1.00, 0.00, -0.00, -1.00, 59.6, 4.9)">i</text><text xml:space="preserve" font-family="GillSans,Gill Sans" font-size="17.0" fill="#FEFFFF" transform="matrix(1.00, 0.00, -0.00, -1.00, 63.3, 4.9)">t</text><text xml:space="preserve" font-family="GillSans,Gill Sans" font-size="17.0" fill="#FEFFFF" transform="matrix(1.00, 0.00, -0.00, -1.00, 69.0, 4.9)">y</text><text xml:space="preserve" font-family="GillSans,Gill Sans" font-size="17.0" fill="#FEFFFF" transform="matrix(1.00, 0.00, -0.00, -1.00, 76.4, 4.9)"> </text><text xml:space="preserve" font-family="GillSans,Gill Sans" font-size="17.0" fill="#FEFFFF" transform="matrix(1.00, 0.00, -0.00, -1.00, 81.1, 4.9)">o</text><text xml:space="preserve" font-family="GillSans,Gill Sans" font-size="17.0" fill="#FEFFFF" transform="matrix(1.00, 0.00, -0.00, -1.00, 90.5, 4.9)">f</text><text xml:space="preserve" font-family="GillSans,Gill Sans" font-size="17.0" fill="#FEFFFF" transform="matrix(1.00, 0.00, -0.00, -1.00, 94.7, 4.9)"> </text><text xml:space="preserve" font-family="GillSans,Gill Sans" font-size="17.0" fill="#FEFFFF" transform="matrix(1.00, 0.00, -0.00, -1.00, 99.5, 4.9)">c</text><text xml:space="preserve" font-family="GillSans,Gill Sans" font-size="17.0" fill="#FEFFFF" transform="matrix(1.00, 0.00, -0.00, -1.00, 106.9, 4.9)">e</text><text xml:space="preserve" font-family="GillSans,Gill Sans" font-size="17.0" fill="#FEFFFF" transform="matrix(1.00, 0.00, -0.00, -1.00, 115.1, 4.9)">l</text><text xml:space="preserve" font-family="GillSans,Gill Sans" font-size="17.0" fill="#FEFFFF" transform="matrix(1.00, 0.00, -0.00, -1.00, 118.8, 4.9)">l</text><text xml:space="preserve" font-family="GillSans,Gill Sans" font-size="17.0" fill="#FEFFFF" transform="matrix(1.00, 0.00, -0.00, -1.00, 122.5, 4.9)">s</text><text xml:space="preserve" font-family="GillSans,Gill Sans" font-size="17.0" fill="#FEFFFF" transform="matrix(1.00, 0.00, -0.00, -1.00, 129.0, 4.9)"> </text><text xml:space="preserve" font-family="GillSans,Gill Sans" font-size="17.0" fill="#FEFFFF" transform="matrix(1.00, 0.00, -0.00, -1.00, 133.8, 4.9)">i</text><text xml:space="preserve" font-family="GillSans,Gill Sans" font-size="17.0" fill="#FEFFFF" transform="matrix(1.00, 0.00, -0.00, -1.00, 137.5, 4.9)">n</text><text xml:space="preserve" font-family="GillSans,Gill Sans" font-size="17.0" fill="#FEFFFF" transform="matrix(1.00, 0.00, -0.00, -1.00, 146.0, 4.9)"> </text><text xml:space="preserve" font-family="GillSans,Gill Sans" font-size="17.0" fill="#FEFFFF" transform="matrix(1.00, 0.00, -0.00, -1.00, 150.7, 4.9)">M</text><text xml:space="preserve" font-family="GillSans,Gill Sans" font-size="17.0" fill="#FEFFFF" transform="matrix(1.00, 0.00, -0.00, -1.00, 164.0, 4.9)">T</text><text xml:space="preserve" font-family="GillSans,Gill Sans" font-size="17.0" fill="#FEFFFF" transform="matrix(1.00, 0.00, -0.00, -1.00, 174.3, 4.9)"> </text><text xml:space="preserve" font-family="GillSans,Gill Sans" font-size="17.0" fill="#FEFFFF" transform="matrix(1.00, 0.00, -0.00, -1.00, 179.0, 4.9)">w</text><text xml:space="preserve" font-family="GillSans,Gill Sans" font-size="17.0" fill="#FEFFFF" transform="matrix(1.00, 0.00, -0.00, -1.00, 191.2, 4.9)">h</text><text xml:space="preserve" font-family="GillSans,Gill Sans" font-size="17.0" fill="#FEFFFF" transform="matrix(1.00, 0.00, -0.00, -1.00, 199.7, 4.9)">i</text><text xml:space="preserve" font-family="GillSans,Gill Sans" font-size="17.0" fill="#FEFFFF" transform="matrix(1.00, 0.00, -0.00, -1.00, 203.4, 4.9)">l</text><text xml:space="preserve" font-family="GillSans,Gill Sans" font-size="17.0" fill="#FEFFFF" transform="matrix(1.00, 0.00, -0.00, -1.00, 207.2, 4.9)">e</text><text xml:space="preserve" font-family="GillSans,Gill Sans" font-size="17.0" fill="#FEFFFF" transform="matrix(1.00, 0.00, -0.00, -1.00, 215.3, 4.9)"> </text><text xml:space="preserve" font-family="GillSans,Gill Sans" font-size="17.0" fill="#FEFFFF" transform="matrix(1.00, 0.00, -0.00, -1.00, 220.0, 4.9)">v</text><text xml:space="preserve" font-family="GillSans,Gill Sans" font-size="17.0" fill="#FEFFFF" transform="matrix(1.00, 0.00, -0.00, -1.00, 227.5, 4.9)">i</text><text xml:space="preserve" font-family="GillSans,Gill Sans" font-size="17.0" fill="#FEFFFF" transform="matrix(1.00, 0.00, -0.00, -1.00, 231.2, 4.9)">e</text><text xml:space="preserve" font-family="GillSans,Gill Sans" font-size="17.0" fill="#FEFFFF" transform="matrix(1.00, 0.00, -0.00, -1.00, 239.1, 4.9)">w</text><text xml:space="preserve" font-family="GillSans,Gill Sans" font-size="17.0" fill="#FEFFFF" transform="matrix(1.00, 0.00, -0.00, -1.00, 251.3, 4.9)">i</text><text xml:space="preserve" font-family="GillSans,Gill Sans" font-size="17.0" fill="#FEFFFF" transform="matrix(1.00, 0.00, -0.00, -1.00, 255.1, 4.9)">n</text><text xml:space="preserve" font-family="GillSans,Gill Sans" font-size="17.0" fill="#FEFFFF" transform="matrix(1.00, 0.00, -0.00, -1.00, 263.6, 4.9)">g</text><text xml:space="preserve" font-family="GillSans,Gill Sans" font-size="17.0" fill="#FEFFFF" transform="matrix(1.00, 0.00, -0.00, -1.00, 270.8, 4.9)"> </text><text xml:space="preserve" font-family="GillSans,Gill Sans" font-size="17.0" fill="#FEFFFF" transform="matrix(1.00, 0.00, -0.00, -1.00, 275.5, 4.9)">t</text><text xml:space="preserve" font-family="GillSans,Gill Sans" font-size="17.0" fill="#FEFFFF" transform="matrix(1.00, 0.00, -0.00, -1.00, 281.2, 4.9)">h</text><text xml:space="preserve" font-family="GillSans,Gill Sans" font-size="17.0" fill="#FEFFFF" transform="matrix(1.00, 0.00, -0.00, -1.00, 289.7, 4.9)">i</text><text xml:space="preserve" font-family="GillSans,Gill Sans" font-size="17.0" fill="#FEFFFF" transform="matrix(1.00, 0.00, -0.00, -1.00, 293.4, 4.9)">s</text><text xml:space="preserve" font-family="GillSans,Gill Sans" font-size="17.0" fill="#FEFFFF" transform="matrix(1.00, 0.00, -0.00, -1.00, 300.0, 4.9)"> </text><text xml:space="preserve" font-family="GillSans,Gill Sans" font-size="17.0" fill="#FEFFFF" transform="matrix(1.00, 0.00, -0.00, -1.00, 304.7, 4.9)">s</text><text xml:space="preserve" font-family="GillSans,Gill Sans" font-size="17.0" fill="#FEFFFF" transform="matrix(1.00, 0.00, -0.00, -1.00, 311.2, 4.9)">t</text><text xml:space="preserve" font-family="GillSans,Gill Sans" font-size="17.0" fill="#FEFFFF" transform="matrix(1.00, 0.00, -0.00, -1.00, 316.9, 4.9)">i</text><text xml:space="preserve" font-family="GillSans,Gill Sans" font-size="17.0" fill="#FEFFFF" transform="matrix(1.00, 0.00, -0.00, -1.00, 320.6, 4.9)">m</text><text xml:space="preserve" font-family="GillSans,Gill Sans" font-size="17.0" fill="#FEFFFF" transform="matrix(1.00, 0.00, -0.00, -1.00, 333.5, 4.9)">u</text><text xml:space="preserve" font-family="GillSans,Gill Sans" font-size="17.0" fill="#FEFFFF" transform="matrix(1.00, 0.00, -0.00, -1.00, 342.0, 4.9)">l</text><text xml:space="preserve" font-family="GillSans,Gill Sans" font-size="17.0" fill="#FEFFFF" transform="matrix(1.00, 0.00, -0.00, -1.00, 345.8, 4.9)">u</text><text xml:space="preserve" font-family="GillSans,Gill Sans" font-size="17.0" fill="#FEFFFF" transform="matrix(1.00, 0.00, -0.00, -1.00, 354.3, 4.9)">s</text><text xml:space="preserve" font-family="GillSans,Gill Sans" font-size="17.0" fill="#FEFFFF" transform="matrix(1.00, 0.00, -0.00, -1.00, 360.8, 4.9)">,</text><text xml:space="preserve" font-family="GillSans,Gill Sans" font-size="17.0" fill="#FEFFFF" transform="matrix(1.00, 0.00, -0.00, -1.00, 362.8, 4.9)"> </text><text xml:space="preserve" font-family="GillSans,Gill Sans" font-size="17.0" fill="#FEFFFF" transform="matrix(1.00, 0.00, -0.00, -1.00, 367.6, 4.9)">y</text><text xml:space="preserve" font-family="GillSans,Gill Sans" font-size="17.0" fill="#FEFFFF" transform="matrix(1.00, 0.00, -0.00, -1.00, 374.7, 4.9)">o</text><text xml:space="preserve" font-family="GillSans,Gill Sans" font-size="17.0" fill="#FEFFFF" transform="matrix(1.00, 0.00, -0.00, -1.00, 384.0, 4.9)">u</text><text xml:space="preserve" font-family="GillSans,Gill Sans" font-size="17.0" fill="#FEFFFF" transform="matrix(1.00, 0.00, -0.00, -1.00, 392.5, 4.9)"> </text><text xml:space="preserve" font-family="GillSans,Gill Sans" font-size="17.0" fill="#FEFFFF" transform="matrix(1.00, 0.00, -0.00, -1.00, 397.3, 4.9)">w</text><text xml:space="preserve" font-family="GillSans,Gill Sans" font-size="17.0" fill="#FEFFFF" transform="matrix(1.00, 0.00, -0.00, -1.00, 409.2, 4.9)">o</text><text xml:space="preserve" font-family="GillSans,Gill Sans" font-size="17.0" fill="#FEFFFF" transform="matrix(1.00, 0.00, -0.00, -1.00, 418.5, 4.9)">u</text><text xml:space="preserve" font-family="GillSans,Gill Sans" font-size="17.0" fill="#FEFFFF" transform="matrix(1.00, 0.00, -0.00, -1.00, 427.0, 4.9)">l</text><text xml:space="preserve" font-family="GillSans,Gill Sans" font-size="17.0" fill="#FEFFFF" transform="matrix(1.00, 0.00, -0.00, -1.00, 430.8, 4.9)">d</text><text xml:space="preserve" font-family="GillSans,Gill Sans" font-size="17.0" fill="#FEFFFF" transform="matrix(1.00, 0.00, -0.00, -1.00, 439.4, 4.9)"> </text><text xml:space="preserve" font-family="GillSans,Gill Sans" font-size="17.0" fill="#FEFFFF" transform="matrix(1.00, 0.00, -0.00, -1.00, 444.1, 4.9)">n</text><text xml:space="preserve" font-family="GillSans,Gill Sans" font-size="17.0" fill="#FEFFFF" transform="matrix(1.00, 0.00, -0.00, -1.00, 452.6, 4.9)">o</text><text xml:space="preserve" font-family="GillSans,Gill Sans" font-size="17.0" fill="#FEFFFF" transform="matrix(1.00, 0.00, -0.00, -1.00, 462.0, 4.9)">t</text></g></svg>