<?xml version="1.0" encoding="UTF-8" standalone="no"?><svg xmlns="http://www.w3.org/2000/svg" xmlns:xlink="http://www.w3.org/1999/xlink" clip-rule="evenodd" stroke-miterlimit="10" viewBox="0 0 470 710"><desc>SVG generated by Keynote</desc><defs></defs><g transform="matrix(1.00, 0.00, -0.00, -1.00, 0.0, 710.0)"><image xlink:href="../../6243C2AA-FAA2-4EB4-AB55-ED9F980DD97A/assets/26556D7BD30FEB579C198B67DA9A3CA6.png" width="467.00" height="699.00" transform="matrix(1.00, 0.00, -0.00, -1.00, 1.6, 700.1)" opacity="0.57"></image><g><clipPath id="clip0x618008ab8c60"><path d="M 41.6 161.4 L 428.4 161.4 L 428.4 548.1 L 41.6 548.1 Z M 41.6 161.4 "></path></clipPath><g clip-path="url(#clip0x618008ab8c60)"><path d="M 41.6 161.4 L 428.4 161.4 L 428.4 548.1 L 41.6 548.1 Z M 41.6 161.4 " fill="#FFFFFF"></path></g></g><g><clipPath id="clip0x618008ab8f00"><path d="M 56.4 548.1 L 414.9 548.1 L 414.9 161.4 L 56.4 161.4 Z M 56.4 548.1 "></path></clipPath><g clip-path="url(#clip0x618008ab8f00)"><g><clipPath id="clip0x618008ab9080"><path d="M 41.6 161.4 L 428.4 161.4 L 428.4 548.1 L 41.6 548.1 Z M 41.6 161.4 "></path></clipPath><g clip-path="url(#clip0x618008ab9080)"><path d="M 11.0 288.0 L 277.0 288.0 L 277.0 0.0 L 11.0 0.0 Z M 11.0 288.0 " fill="#FFFFFF" stroke="#FFFFFF" stroke-width="1.06" stroke-linecap="round" stroke-linejoin="round" transform="matrix(1.34, 0.00, 0.00, 1.34, 41.6, 161.4)"></path></g></g></g></g><g><clipPath id="clip0x618008ab9320"><path d="M 100.7 510.1 L 398.8 510.1 L 398.8 212.4 L 100.7 212.4 Z M 100.7 510.1 "></path></clipPath><g clip-path="url(#clip0x618008ab9320)"><g><clipPath id="clip0x618008ab9500"><path d="M 41.6 161.4 L 428.4 161.4 L 428.4 548.1 L 41.6 548.1 Z M 41.6 161.4 "></path></clipPath><g clip-path="url(#clip0x618008ab9500)"><path d="M 100.7 510.1 L 397.5 510.1 L 397.5 213.3 L 100.7 213.3 Z M 100.7 510.1 " fill="#FFFFFF"></path><path d="M 93.1 130.1 C 93.1 126.2 90.0 123.0 86.1 123.0 C 82.1 123.0 79.0 126.2 79.0 130.1 C 79.0 134.0 82.1 137.2 86.1 137.2 C 90.0 137.2 93.1 134.0 93.1 130.1 " fill="#CCCCCC" stroke="#000000" stroke-width="1.06" stroke-linecap="round" stroke-linejoin="round" transform="matrix(1.34, 0.00, 0.00, 1.34, 41.6, 161.4)"></path><path d="M 93.1 244.4 C 93.1 240.5 90.0 237.3 86.1 237.3 C 82.1 237.3 79.0 240.5 79.0 244.4 C 79.0 248.3 82.1 251.5 86.1 251.5 C 90.0 251.5 93.1 248.3 93.1 244.4 " fill="#CCCCCC" stroke="#000000" stroke-width="1.06" stroke-linecap="round" stroke-linejoin="round" transform="matrix(1.34, 0.00, 0.00, 1.34, 41.6, 161.4)"></path><path d="M 180.7 53.9 C 180.7 49.9 177.5 46.8 173.6 46.8 C 169.7 46.8 166.5 49.9 166.5 53.9 C 166.5 57.8 169.7 60.9 173.6 60.9 C 177.5 60.9 180.7 57.8 180.7 53.9 " fill="#CCCCCC" stroke="#000000" stroke-width="1.06" stroke-linecap="round" stroke-linejoin="round" transform="matrix(1.34, 0.00, 0.00, 1.34, 41.6, 161.4)"></path><path d="M 180.7 130.1 C 180.7 126.2 177.5 123.0 173.6 123.0 C 169.7 123.0 166.5 126.2 166.5 130.1 C 166.5 134.0 169.7 137.2 173.6 137.2 C 177.5 137.2 180.7 134.0 180.7 130.1 " fill="#CCCCCC" stroke="#000000" stroke-width="1.06" stroke-linecap="round" stroke-linejoin="round" transform="matrix(1.34, 0.00, 0.00, 1.34, 41.6, 161.4)"></path><path d="M 90.1 135.9 L 91.6 138.3 " fill="none" stroke="#000000" stroke-width="1.06" stroke-linecap="square" stroke-linejoin="round" transform="matrix(1.34, 0.00, 0.00, 1.34, 41.6, 161.4)"></path><path d="M 88.1 136.9 L 89.0 139.6 " fill="none" stroke="#000000" stroke-width="1.06" stroke-linecap="square" stroke-linejoin="round" transform="matrix(1.34, 0.00, 0.00, 1.34, 41.6, 161.4)"></path><path d="M 86.1 137.2 L 86.1 140.0 " fill="none" stroke="#000000" stroke-width="1.06" stroke-linecap="square" stroke-linejoin="round" transform="matrix(1.34, 0.00, 0.00, 1.34, 41.6, 161.4)"></path><path d="M 84.0 136.9 L 83.1 139.6 " fill="none" stroke="#000000" stroke-width="1.06" stroke-linecap="square" stroke-linejoin="round" transform="matrix(1.34, 0.00, 0.00, 1.34, 41.6, 161.4)"></path><path d="M 82.1 135.9 L 80.5 138.3 " fill="none" stroke="#000000" stroke-width="1.06" stroke-linecap="square" stroke-linejoin="round" transform="matrix(1.34, 0.00, 0.00, 1.34, 41.6, 161.4)"></path><path d="M 92.2 248.0 L 94.7 249.4 " fill="none" stroke="#000000" stroke-width="1.06" stroke-linecap="square" stroke-linejoin="round" transform="matrix(1.34, 0.00, 0.00, 1.34, 41.6, 161.4)"></path><path d="M 90.9 249.6 L 92.8 251.7 " fill="none" stroke="#000000" stroke-width="1.06" stroke-linecap="square" stroke-linejoin="round" transform="matrix(1.34, 0.00, 0.00, 1.34, 41.6, 161.4)"></path><path d="M 89.1 250.8 L 90.4 253.4 " fill="none" stroke="#000000" stroke-width="1.06" stroke-linecap="square" stroke-linejoin="round" transform="matrix(1.34, 0.00, 0.00, 1.34, 41.6, 161.4)"></path><path d="M 87.1 251.4 L 87.5 254.2 " fill="none" stroke="#000000" stroke-width="1.06" stroke-linecap="square" stroke-linejoin="round" transform="matrix(1.34, 0.00, 0.00, 1.34, 41.6, 161.4)"></path><path d="M 85.0 251.4 L 84.6 254.2 " fill="none" stroke="#000000" stroke-width="1.06" stroke-linecap="square" stroke-linejoin="round" transform="matrix(1.34, 0.00, 0.00, 1.34, 41.6, 161.4)"></path><path d="M 83.0 250.8 L 81.8 253.4 " fill="none" stroke="#000000" stroke-width="1.06" stroke-linecap="square" stroke-linejoin="round" transform="matrix(1.34, 0.00, 0.00, 1.34, 41.6, 161.4)"></path><path d="M 81.2 249.6 L 79.3 251.7 " fill="none" stroke="#000000" stroke-width="1.06" stroke-linecap="square" stroke-linejoin="round" transform="matrix(1.34, 0.00, 0.00, 1.34, 41.6, 161.4)"></path><path d="M 79.9 248.0 L 77.5 249.4 " fill="none" stroke="#000000" stroke-width="1.06" stroke-linecap="square" stroke-linejoin="round" transform="matrix(1.34, 0.00, 0.00, 1.34, 41.6, 161.4)"></path><path d="M 177.1 60.0 L 178.5 62.5 " fill="none" stroke="#000000" stroke-width="1.06" stroke-linecap="square" stroke-linejoin="round" transform="matrix(1.34, 0.00, 0.00, 1.34, 41.6, 161.4)"></path><path d="M 173.6 60.9 L 173.6 63.8 " fill="none" stroke="#000000" stroke-width="1.06" stroke-linecap="square" stroke-linejoin="round" transform="matrix(1.34, 0.00, 0.00, 1.34, 41.6, 161.4)"></path><path d="M 170.0 60.0 L 168.6 62.5 " fill="none" stroke="#000000" stroke-width="1.06" stroke-linecap="square" stroke-linejoin="round" transform="matrix(1.34, 0.00, 0.00, 1.34, 41.6, 161.4)"></path><path d="M 179.7 133.6 L 182.2 135.1 " fill="none" stroke="#000000" stroke-width="1.06" stroke-linecap="square" stroke-linejoin="round" transform="matrix(1.34, 0.00, 0.00, 1.34, 41.6, 161.4)"></path><path d="M 177.1 136.2 L 178.5 138.7 " fill="none" stroke="#000000" stroke-width="1.06" stroke-linecap="square" stroke-linejoin="round" transform="matrix(1.34, 0.00, 0.00, 1.34, 41.6, 161.4)"></path><path d="M 173.6 137.2 L 173.6 140.0 " fill="none" stroke="#000000" stroke-width="1.06" stroke-linecap="square" stroke-linejoin="round" transform="matrix(1.34, 0.00, 0.00, 1.34, 41.6, 161.4)"></path><path d="M 170.0 136.2 L 168.6 138.7 " fill="none" stroke="#000000" stroke-width="1.06" stroke-linecap="square" stroke-linejoin="round" transform="matrix(1.34, 0.00, 0.00, 1.34, 41.6, 161.4)"></path><path d="M 167.4 133.6 L 165.0 135.1 " fill="none" stroke="#000000" stroke-width="1.06" stroke-linecap="square" stroke-linejoin="round" transform="matrix(1.34, 0.00, 0.00, 1.34, 41.6, 161.4)"></path><path d="M 74.5 168.2 C 74.5 164.3 71.3 161.1 67.4 161.1 C 63.5 161.1 60.3 164.3 60.3 168.2 C 60.3 172.1 63.5 175.3 67.4 175.3 C 71.3 175.3 74.5 172.1 74.5 168.2 " fill="none" stroke="#000000" stroke-width="1.06" stroke-linecap="round" stroke-linejoin="round" transform="matrix(1.34, 0.00, 0.00, 1.34, 41.6, 161.4)"></path><path d="M 74.5 206.3 C 74.5 202.4 71.3 199.2 67.4 199.2 C 63.5 199.2 60.3 202.4 60.3 206.3 C 60.3 210.2 63.5 213.4 67.4 213.4 C 71.3 213.4 74.5 210.2 74.5 206.3 " fill="none" stroke="#000000" stroke-width="1.06" stroke-linecap="round" stroke-linejoin="round" transform="matrix(1.34, 0.00, 0.00, 1.34, 41.6, 161.4)"></path><path d="M 74.5 244.4 C 74.5 240.5 71.3 237.3 67.4 237.3 C 63.5 237.3 60.3 240.5 60.3 244.4 C 60.3 248.3 63.5 251.5 67.4 251.5 C 71.3 251.5 74.5 248.3 74.5 244.4 " fill="none" stroke="#000000" stroke-width="1.06" stroke-linecap="round" stroke-linejoin="round" transform="matrix(1.34, 0.00, 0.00, 1.34, 41.6, 161.4)"></path><path d="M 93.1 168.2 C 93.1 164.3 90.0 161.1 86.1 161.1 C 82.1 161.1 79.0 164.3 79.0 168.2 C 79.0 172.1 82.1 175.3 86.1 175.3 C 90.0 175.3 93.1 172.1 93.1 168.2 " fill="none" stroke="#000000" stroke-width="1.06" stroke-linecap="round" stroke-linejoin="round" transform="matrix(1.34, 0.00, 0.00, 1.34, 41.6, 161.4)"></path><path d="M 93.1 206.3 C 93.1 202.4 90.0 199.2 86.1 199.2 C 82.1 199.2 79.0 202.4 79.0 206.3 C 79.0 210.2 82.1 213.4 86.1 213.4 C 90.0 213.4 93.1 210.2 93.1 206.3 " fill="none" stroke="#000000" stroke-width="1.06" stroke-linecap="round" stroke-linejoin="round" transform="matrix(1.34, 0.00, 0.00, 1.34, 41.6, 161.4)"></path><path d="M 112.6 92.0 C 112.6 88.1 109.4 84.9 105.5 84.9 C 101.6 84.9 98.4 88.1 98.4 92.0 C 98.4 95.9 101.6 99.1 105.5 99.1 C 109.4 99.1 112.6 95.9 112.6 92.0 " fill="none" stroke="#000000" stroke-width="1.06" stroke-linecap="round" stroke-linejoin="round" transform="matrix(1.34, 0.00, 0.00, 1.34, 41.6, 161.4)"></path><path d="M 112.6 130.1 C 112.6 126.2 109.4 123.0 105.5 123.0 C 101.6 123.0 98.4 126.2 98.4 130.1 C 98.4 134.0 101.6 137.2 105.5 137.2 C 109.4 137.2 112.6 134.0 112.6 130.1 " fill="none" stroke="#000000" stroke-width="1.06" stroke-linecap="round" stroke-linejoin="round" transform="matrix(1.34, 0.00, 0.00, 1.34, 41.6, 161.4)"></path><path d="M 112.6 168.2 C 112.6 164.3 109.4 161.1 105.5 161.1 C 101.6 161.1 98.4 164.3 98.4 168.2 C 98.4 172.1 101.6 175.3 105.5 175.3 C 109.4 175.3 112.6 172.1 112.6 168.2 " fill="none" stroke="#000000" stroke-width="1.06" stroke-linecap="round" stroke-linejoin="round" transform="matrix(1.34, 0.00, 0.00, 1.34, 41.6, 161.4)"></path><path d="M 112.6 206.3 C 112.6 202.4 109.4 199.2 105.5 199.2 C 101.6 199.2 98.4 202.4 98.4 206.3 C 98.4 210.2 101.6 213.4 105.5 213.4 C 109.4 213.4 112.6 210.2 112.6 206.3 " fill="none" stroke="#000000" stroke-width="1.06" stroke-linecap="round" stroke-linejoin="round" transform="matrix(1.34, 0.00, 0.00, 1.34, 41.6, 161.4)"></path><path d="M 139.8 53.9 C 139.8 49.9 136.6 46.8 132.7 46.8 C 128.8 46.8 125.6 49.9 125.6 53.9 C 125.6 57.8 128.8 60.9 132.7 60.9 C 136.6 60.9 139.8 57.8 139.8 53.9 " fill="none" stroke="#000000" stroke-width="1.06" stroke-linecap="round" stroke-linejoin="round" transform="matrix(1.34, 0.00, 0.00, 1.34, 41.6, 161.4)"></path><path d="M 139.8 92.0 C 139.8 88.1 136.6 84.9 132.7 84.9 C 128.8 84.9 125.6 88.1 125.6 92.0 C 125.6 95.9 128.8 99.1 132.7 99.1 C 136.6 99.1 139.8 95.9 139.8 92.0 " fill="none" stroke="#000000" stroke-width="1.06" stroke-linecap="round" stroke-linejoin="round" transform="matrix(1.34, 0.00, 0.00, 1.34, 41.6, 161.4)"></path><path d="M 139.8 130.1 C 139.8 126.2 136.6 123.0 132.7 123.0 C 128.8 123.0 125.6 126.2 125.6 130.1 C 125.6 134.0 128.8 137.2 132.7 137.2 C 136.6 137.2 139.8 134.0 139.8 130.1 " fill="none" stroke="#000000" stroke-width="1.06" stroke-linecap="round" stroke-linejoin="round" transform="matrix(1.34, 0.00, 0.00, 1.34, 41.6, 161.4)"></path><path d="M 139.8 168.2 C 139.8 164.3 136.6 161.1 132.7 161.1 C 128.8 161.1 125.6 164.3 125.6 168.2 C 125.6 172.1 128.8 175.3 132.7 175.3 C 136.6 175.3 139.8 172.1 139.8 168.2 " fill="none" stroke="#000000" stroke-width="1.06" stroke-linecap="round" stroke-linejoin="round" transform="matrix(1.34, 0.00, 0.00, 1.34, 41.6, 161.4)"></path><path d="M 180.7 92.0 C 180.7 88.1 177.5 84.9 173.6 84.9 C 169.7 84.9 166.5 88.1 166.5 92.0 C 166.5 95.9 169.7 99.1 173.6 99.1 C 177.5 99.1 180.7 95.9 180.7 92.0 " fill="none" stroke="#000000" stroke-width="1.06" stroke-linecap="round" stroke-linejoin="round" transform="matrix(1.34, 0.00, 0.00, 1.34, 41.6, 161.4)"></path><path d="M 248.7 53.9 C 248.7 49.9 245.6 46.8 241.6 46.8 C 237.7 46.8 234.6 49.9 234.6 53.9 C 234.6 57.8 237.7 60.9 241.6 60.9 C 245.6 60.9 248.7 57.8 248.7 53.9 " fill="none" stroke="#000000" stroke-width="1.06" stroke-linecap="round" stroke-linejoin="round" transform="matrix(1.34, 0.00, 0.00, 1.34, 41.6, 161.4)"></path><path d="M 248.7 92.0 C 248.7 88.1 245.6 84.9 241.6 84.9 C 237.7 84.9 234.6 88.1 234.6 92.0 C 234.6 95.9 237.7 99.1 241.6 99.1 C 245.6 99.1 248.7 95.9 248.7 92.0 " fill="none" stroke="#000000" stroke-width="1.06" stroke-linecap="round" stroke-linejoin="round" transform="matrix(1.34, 0.00, 0.00, 1.34, 41.6, 161.4)"></path><path d="M 71.6 173.9 L 73.2 176.2 " fill="none" stroke="#000000" stroke-width="1.06" stroke-linecap="square" stroke-linejoin="round" transform="matrix(1.34, 0.00, 0.00, 1.34, 41.6, 161.4)"></path><path d="M 70.0 174.8 L 71.0 177.4 " fill="none" stroke="#000000" stroke-width="1.06" stroke-linecap="square" stroke-linejoin="round" transform="matrix(1.34, 0.00, 0.00, 1.34, 41.6, 161.4)"></path><path d="M 68.3 175.2 L 68.6 178.0 " fill="none" stroke="#000000" stroke-width="1.06" stroke-linecap="square" stroke-linejoin="round" transform="matrix(1.34, 0.00, 0.00, 1.34, 41.6, 161.4)"></path><path d="M 66.5 175.2 L 66.1 178.0 " fill="none" stroke="#000000" stroke-width="1.06" stroke-linecap="square" stroke-linejoin="round" transform="matrix(1.34, 0.00, 0.00, 1.34, 41.6, 161.4)"></path><path d="M 64.8 174.8 L 63.7 177.4 " fill="none" stroke="#000000" stroke-width="1.06" stroke-linecap="square" stroke-linejoin="round" transform="matrix(1.34, 0.00, 0.00, 1.34, 41.6, 161.4)"></path><path d="M 63.2 173.9 L 61.6 176.2 " fill="none" stroke="#000000" stroke-width="1.06" stroke-linecap="square" stroke-linejoin="round" transform="matrix(1.34, 0.00, 0.00, 1.34, 41.6, 161.4)"></path><path d="M 72.2 211.5 L 74.2 213.5 " fill="none" stroke="#000000" stroke-width="1.06" stroke-linecap="square" stroke-linejoin="round" transform="matrix(1.34, 0.00, 0.00, 1.34, 41.6, 161.4)"></path><path d="M 70.8 212.5 L 72.2 215.0 " fill="none" stroke="#000000" stroke-width="1.06" stroke-linecap="square" stroke-linejoin="round" transform="matrix(1.34, 0.00, 0.00, 1.34, 41.6, 161.4)"></path><path d="M 69.2 213.2 L 69.9 215.9 " fill="none" stroke="#000000" stroke-width="1.06" stroke-linecap="square" stroke-linejoin="round" transform="matrix(1.34, 0.00, 0.00, 1.34, 41.6, 161.4)"></path><path d="M 67.4 213.4 L 67.4 216.2 " fill="none" stroke="#000000" stroke-width="1.06" stroke-linecap="square" stroke-linejoin="round" transform="matrix(1.34, 0.00, 0.00, 1.34, 41.6, 161.4)"></path><path d="M 65.6 213.2 L 64.9 215.9 " fill="none" stroke="#000000" stroke-width="1.06" stroke-linecap="square" stroke-linejoin="round" transform="matrix(1.34, 0.00, 0.00, 1.34, 41.6, 161.4)"></path><path d="M 64.0 212.5 L 62.6 215.0 " fill="none" stroke="#000000" stroke-width="1.06" stroke-linecap="square" stroke-linejoin="round" transform="matrix(1.34, 0.00, 0.00, 1.34, 41.6, 161.4)"></path><path d="M 62.5 211.5 L 60.6 213.5 " fill="none" stroke="#000000" stroke-width="1.06" stroke-linecap="square" stroke-linejoin="round" transform="matrix(1.34, 0.00, 0.00, 1.34, 41.6, 161.4)"></path><path d="M 72.8 248.9 L 75.0 250.8 " fill="none" stroke="#000000" stroke-width="1.06" stroke-linecap="square" stroke-linejoin="round" transform="matrix(1.34, 0.00, 0.00, 1.34, 41.6, 161.4)"></path><path d="M 71.6 250.2 L 73.2 252.5 " fill="none" stroke="#000000" stroke-width="1.06" stroke-linecap="square" stroke-linejoin="round" transform="matrix(1.34, 0.00, 0.00, 1.34, 41.6, 161.4)"></path><path d="M 70.0 251.0 L 71.0 253.7 " fill="none" stroke="#000000" stroke-width="1.06" stroke-linecap="square" stroke-linejoin="round" transform="matrix(1.34, 0.00, 0.00, 1.34, 41.6, 161.4)"></path><path d="M 68.3 251.5 L 68.6 254.3 " fill="none" stroke="#000000" stroke-width="1.06" stroke-linecap="square" stroke-linejoin="round" transform="matrix(1.34, 0.00, 0.00, 1.34, 41.6, 161.4)"></path><path d="M 66.5 251.5 L 66.1 254.3 " fill="none" stroke="#000000" stroke-width="1.06" stroke-linecap="square" stroke-linejoin="round" transform="matrix(1.34, 0.00, 0.00, 1.34, 41.6, 161.4)"></path><path d="M 64.8 251.0 L 63.7 253.7 " fill="none" stroke="#000000" stroke-width="1.06" stroke-linecap="square" stroke-linejoin="round" transform="matrix(1.34, 0.00, 0.00, 1.34, 41.6, 161.4)"></path><path d="M 63.2 250.2 L 61.6 252.5 " fill="none" stroke="#000000" stroke-width="1.06" stroke-linecap="square" stroke-linejoin="round" transform="matrix(1.34, 0.00, 0.00, 1.34, 41.6, 161.4)"></path><path d="M 61.9 248.9 L 59.7 250.8 " fill="none" stroke="#000000" stroke-width="1.06" stroke-linecap="square" stroke-linejoin="round" transform="matrix(1.34, 0.00, 0.00, 1.34, 41.6, 161.4)"></path><path d="M 90.9 173.4 L 92.8 175.5 " fill="none" stroke="#000000" stroke-width="1.06" stroke-linecap="square" stroke-linejoin="round" transform="matrix(1.34, 0.00, 0.00, 1.34, 41.6, 161.4)"></path><path d="M 89.1 174.6 L 90.4 177.1 " fill="none" stroke="#000000" stroke-width="1.06" stroke-linecap="square" stroke-linejoin="round" transform="matrix(1.34, 0.00, 0.00, 1.34, 41.6, 161.4)"></path><path d="M 87.1 175.2 L 87.5 178.0 " fill="none" stroke="#000000" stroke-width="1.06" stroke-linecap="square" stroke-linejoin="round" transform="matrix(1.34, 0.00, 0.00, 1.34, 41.6, 161.4)"></path><path d="M 85.0 175.2 L 84.6 178.0 " fill="none" stroke="#000000" stroke-width="1.06" stroke-linecap="square" stroke-linejoin="round" transform="matrix(1.34, 0.00, 0.00, 1.34, 41.6, 161.4)"></path><path d="M 83.0 174.6 L 81.8 177.1 " fill="none" stroke="#000000" stroke-width="1.06" stroke-linecap="square" stroke-linejoin="round" transform="matrix(1.34, 0.00, 0.00, 1.34, 41.6, 161.4)"></path><path d="M 81.2 173.4 L 79.3 175.5 " fill="none" stroke="#000000" stroke-width="1.06" stroke-linecap="square" stroke-linejoin="round" transform="matrix(1.34, 0.00, 0.00, 1.34, 41.6, 161.4)"></path><path d="M 91.6 210.7 L 93.8 212.5 " fill="none" stroke="#000000" stroke-width="1.06" stroke-linecap="square" stroke-linejoin="round" transform="matrix(1.34, 0.00, 0.00, 1.34, 41.6, 161.4)"></path><path d="M 90.1 212.2 L 91.6 214.5 " fill="none" stroke="#000000" stroke-width="1.06" stroke-linecap="square" stroke-linejoin="round" transform="matrix(1.34, 0.00, 0.00, 1.34, 41.6, 161.4)"></path><path d="M 88.1 213.1 L 89.0 215.8 " fill="none" stroke="#000000" stroke-width="1.06" stroke-linecap="square" stroke-linejoin="round" transform="matrix(1.34, 0.00, 0.00, 1.34, 41.6, 161.4)"></path><path d="M 86.1 213.4 L 86.1 216.2 " fill="none" stroke="#000000" stroke-width="1.06" stroke-linecap="square" stroke-linejoin="round" transform="matrix(1.34, 0.00, 0.00, 1.34, 41.6, 161.4)"></path><path d="M 84.0 213.1 L 83.1 215.8 " fill="none" stroke="#000000" stroke-width="1.06" stroke-linecap="square" stroke-linejoin="round" transform="matrix(1.34, 0.00, 0.00, 1.34, 41.6, 161.4)"></path><path d="M 82.1 212.2 L 80.5 214.5 " fill="none" stroke="#000000" stroke-width="1.06" stroke-linecap="square" stroke-linejoin="round" transform="matrix(1.34, 0.00, 0.00, 1.34, 41.6, 161.4)"></path><path d="M 80.5 210.7 L 78.3 212.5 " fill="none" stroke="#000000" stroke-width="1.06" stroke-linecap="square" stroke-linejoin="round" transform="matrix(1.34, 0.00, 0.00, 1.34, 41.6, 161.4)"></path><path d="M 109.1 98.1 L 110.5 100.6 " fill="none" stroke="#000000" stroke-width="1.06" stroke-linecap="square" stroke-linejoin="round" transform="matrix(1.34, 0.00, 0.00, 1.34, 41.6, 161.4)"></path><path d="M 106.7 99.0 L 107.2 101.7 " fill="none" stroke="#000000" stroke-width="1.06" stroke-linecap="square" stroke-linejoin="round" transform="matrix(1.34, 0.00, 0.00, 1.34, 41.6, 161.4)"></path><path d="M 104.3 99.0 L 103.8 101.7 " fill="none" stroke="#000000" stroke-width="1.06" stroke-linecap="square" stroke-linejoin="round" transform="matrix(1.34, 0.00, 0.00, 1.34, 41.6, 161.4)"></path><path d="M 102.0 98.1 L 100.5 100.6 " fill="none" stroke="#000000" stroke-width="1.06" stroke-linecap="square" stroke-linejoin="round" transform="matrix(1.34, 0.00, 0.00, 1.34, 41.6, 161.4)"></path><path d="M 110.1 135.5 L 111.9 137.7 " fill="none" stroke="#000000" stroke-width="1.06" stroke-linecap="square" stroke-linejoin="round" transform="matrix(1.34, 0.00, 0.00, 1.34, 41.6, 161.4)"></path><path d="M 107.9 136.7 L 108.9 139.4 " fill="none" stroke="#000000" stroke-width="1.06" stroke-linecap="square" stroke-linejoin="round" transform="matrix(1.34, 0.00, 0.00, 1.34, 41.6, 161.4)"></path><path d="M 105.5 137.2 L 105.5 140.0 " fill="none" stroke="#000000" stroke-width="1.06" stroke-linecap="square" stroke-linejoin="round" transform="matrix(1.34, 0.00, 0.00, 1.34, 41.6, 161.4)"></path><path d="M 103.1 136.7 L 102.1 139.4 " fill="none" stroke="#000000" stroke-width="1.06" stroke-linecap="square" stroke-linejoin="round" transform="matrix(1.34, 0.00, 0.00, 1.34, 41.6, 161.4)"></path><path d="M 101.0 135.5 L 99.1 137.7 " fill="none" stroke="#000000" stroke-width="1.06" stroke-linecap="square" stroke-linejoin="round" transform="matrix(1.34, 0.00, 0.00, 1.34, 41.6, 161.4)"></path><path d="M 110.9 172.8 L 113.1 174.6 " fill="none" stroke="#000000" stroke-width="1.06" stroke-linecap="square" stroke-linejoin="round" transform="matrix(1.34, 0.00, 0.00, 1.34, 41.6, 161.4)"></path><path d="M 109.1 174.3 L 110.5 176.8 " fill="none" stroke="#000000" stroke-width="1.06" stroke-linecap="square" stroke-linejoin="round" transform="matrix(1.34, 0.00, 0.00, 1.34, 41.6, 161.4)"></path><path d="M 106.7 175.2 L 107.2 178.0 " fill="none" stroke="#000000" stroke-width="1.06" stroke-linecap="square" stroke-linejoin="round" transform="matrix(1.34, 0.00, 0.00, 1.34, 41.6, 161.4)"></path><path d="M 104.3 175.2 L 103.8 178.0 " fill="none" stroke="#000000" stroke-width="1.06" stroke-linecap="square" stroke-linejoin="round" transform="matrix(1.34, 0.00, 0.00, 1.34, 41.6, 161.4)"></path><path d="M 102.0 174.3 L 100.5 176.8 " fill="none" stroke="#000000" stroke-width="1.06" stroke-linecap="square" stroke-linejoin="round" transform="matrix(1.34, 0.00, 0.00, 1.34, 41.6, 161.4)"></path><path d="M 100.1 172.8 L 97.9 174.6 " fill="none" stroke="#000000" stroke-width="1.06" stroke-linecap="square" stroke-linejoin="round" transform="matrix(1.34, 0.00, 0.00, 1.34, 41.6, 161.4)"></path><path d="M 111.6 209.9 L 114.1 211.3 " fill="none" stroke="#000000" stroke-width="1.06" stroke-linecap="square" stroke-linejoin="round" transform="matrix(1.34, 0.00, 0.00, 1.34, 41.6, 161.4)"></path><path d="M 110.1 211.7 L 111.9 213.9 " fill="none" stroke="#000000" stroke-width="1.06" stroke-linecap="square" stroke-linejoin="round" transform="matrix(1.34, 0.00, 0.00, 1.34, 41.6, 161.4)"></path><path d="M 107.9 213.0 L 108.9 215.6 " fill="none" stroke="#000000" stroke-width="1.06" stroke-linecap="square" stroke-linejoin="round" transform="matrix(1.34, 0.00, 0.00, 1.34, 41.6, 161.4)"></path><path d="M 105.5 213.4 L 105.5 216.2 " fill="none" stroke="#000000" stroke-width="1.06" stroke-linecap="square" stroke-linejoin="round" transform="matrix(1.34, 0.00, 0.00, 1.34, 41.6, 161.4)"></path><path d="M 103.1 213.0 L 102.1 215.6 " fill="none" stroke="#000000" stroke-width="1.06" stroke-linecap="square" stroke-linejoin="round" transform="matrix(1.34, 0.00, 0.00, 1.34, 41.6, 161.4)"></path><path d="M 101.0 211.7 L 99.1 213.9 " fill="none" stroke="#000000" stroke-width="1.06" stroke-linecap="square" stroke-linejoin="round" transform="matrix(1.34, 0.00, 0.00, 1.34, 41.6, 161.4)"></path><path d="M 99.4 209.9 L 96.9 211.3 " fill="none" stroke="#000000" stroke-width="1.06" stroke-linecap="square" stroke-linejoin="round" transform="matrix(1.34, 0.00, 0.00, 1.34, 41.6, 161.4)"></path><path d="M 135.6 60.3 L 136.8 62.9 " fill="none" stroke="#000000" stroke-width="1.06" stroke-linecap="square" stroke-linejoin="round" transform="matrix(1.34, 0.00, 0.00, 1.34, 41.6, 161.4)"></path><path d="M 132.7 60.9 L 132.7 63.8 " fill="none" stroke="#000000" stroke-width="1.06" stroke-linecap="square" stroke-linejoin="round" transform="matrix(1.34, 0.00, 0.00, 1.34, 41.6, 161.4)"></path><path d="M 129.9 60.3 L 128.7 62.9 " fill="none" stroke="#000000" stroke-width="1.06" stroke-linecap="square" stroke-linejoin="round" transform="matrix(1.34, 0.00, 0.00, 1.34, 41.6, 161.4)"></path><path d="M 136.9 97.7 L 138.6 100.0 " fill="none" stroke="#000000" stroke-width="1.06" stroke-linecap="square" stroke-linejoin="round" transform="matrix(1.34, 0.00, 0.00, 1.34, 41.6, 161.4)"></path><path d="M 134.2 98.9 L 134.8 101.7 " fill="none" stroke="#000000" stroke-width="1.06" stroke-linecap="square" stroke-linejoin="round" transform="matrix(1.34, 0.00, 0.00, 1.34, 41.6, 161.4)"></path><path d="M 131.3 98.9 L 130.7 101.7 " fill="none" stroke="#000000" stroke-width="1.06" stroke-linecap="square" stroke-linejoin="round" transform="matrix(1.34, 0.00, 0.00, 1.34, 41.6, 161.4)"></path><path d="M 128.6 97.7 L 126.9 100.0 " fill="none" stroke="#000000" stroke-width="1.06" stroke-linecap="square" stroke-linejoin="round" transform="matrix(1.34, 0.00, 0.00, 1.34, 41.6, 161.4)"></path><path d="M 138.0 134.8 L 140.1 136.7 " fill="none" stroke="#000000" stroke-width="1.06" stroke-linecap="square" stroke-linejoin="round" transform="matrix(1.34, 0.00, 0.00, 1.34, 41.6, 161.4)"></path><path d="M 135.6 136.6 L 136.8 139.2 " fill="none" stroke="#000000" stroke-width="1.06" stroke-linecap="square" stroke-linejoin="round" transform="matrix(1.34, 0.00, 0.00, 1.34, 41.6, 161.4)"></path><path d="M 132.7 137.2 L 132.7 140.0 " fill="none" stroke="#000000" stroke-width="1.06" stroke-linecap="square" stroke-linejoin="round" transform="matrix(1.34, 0.00, 0.00, 1.34, 41.6, 161.4)"></path><path d="M 129.9 136.6 L 128.7 139.2 " fill="none" stroke="#000000" stroke-width="1.06" stroke-linecap="square" stroke-linejoin="round" transform="matrix(1.34, 0.00, 0.00, 1.34, 41.6, 161.4)"></path><path d="M 127.5 134.8 L 125.4 136.7 " fill="none" stroke="#000000" stroke-width="1.06" stroke-linecap="square" stroke-linejoin="round" transform="matrix(1.34, 0.00, 0.00, 1.34, 41.6, 161.4)"></path><path d="M 138.9 171.7 L 141.3 173.2 " fill="none" stroke="#000000" stroke-width="1.06" stroke-linecap="square" stroke-linejoin="round" transform="matrix(1.34, 0.00, 0.00, 1.34, 41.6, 161.4)"></path><path d="M 136.9 173.9 L 138.6 176.2 " fill="none" stroke="#000000" stroke-width="1.06" stroke-linecap="square" stroke-linejoin="round" transform="matrix(1.34, 0.00, 0.00, 1.34, 41.6, 161.4)"></path><path d="M 134.2 175.1 L 134.8 177.9 " fill="none" stroke="#000000" stroke-width="1.06" stroke-linecap="square" stroke-linejoin="round" transform="matrix(1.34, 0.00, 0.00, 1.34, 41.6, 161.4)"></path><path d="M 131.3 175.1 L 130.7 177.9 " fill="none" stroke="#000000" stroke-width="1.06" stroke-linecap="square" stroke-linejoin="round" transform="matrix(1.34, 0.00, 0.00, 1.34, 41.6, 161.4)"></path><path d="M 128.6 173.9 L 126.9 176.2 " fill="none" stroke="#000000" stroke-width="1.06" stroke-linecap="square" stroke-linejoin="round" transform="matrix(1.34, 0.00, 0.00, 1.34, 41.6, 161.4)"></path><path d="M 126.6 171.7 L 124.1 173.2 " fill="none" stroke="#000000" stroke-width="1.06" stroke-linecap="square" stroke-linejoin="round" transform="matrix(1.34, 0.00, 0.00, 1.34, 41.6, 161.4)"></path><path d="M 178.6 97.0 L 180.6 99.0 " fill="none" stroke="#000000" stroke-width="1.06" stroke-linecap="square" stroke-linejoin="round" transform="matrix(1.34, 0.00, 0.00, 1.34, 41.6, 161.4)"></path><path d="M 175.4 98.8 L 176.1 101.6 " fill="none" stroke="#000000" stroke-width="1.06" stroke-linecap="square" stroke-linejoin="round" transform="matrix(1.34, 0.00, 0.00, 1.34, 41.6, 161.4)"></path><path d="M 171.7 98.8 L 171.0 101.6 " fill="none" stroke="#000000" stroke-width="1.06" stroke-linecap="square" stroke-linejoin="round" transform="matrix(1.34, 0.00, 0.00, 1.34, 41.6, 161.4)"></path><path d="M 168.6 97.0 L 166.6 99.0 " fill="none" stroke="#000000" stroke-width="1.06" stroke-linecap="square" stroke-linejoin="round" transform="matrix(1.34, 0.00, 0.00, 1.34, 41.6, 161.4)"></path><path d="M 246.2 59.3 L 248.0 61.5 " fill="none" stroke="#000000" stroke-width="1.06" stroke-linecap="square" stroke-linejoin="round" transform="matrix(1.34, 0.00, 0.00, 1.34, 41.6, 161.4)"></path><path d="M 241.6 60.9 L 241.6 63.8 " fill="none" stroke="#000000" stroke-width="1.06" stroke-linecap="square" stroke-linejoin="round" transform="matrix(1.34, 0.00, 0.00, 1.34, 41.6, 161.4)"></path><path d="M 237.1 59.3 L 235.3 61.5 " fill="none" stroke="#000000" stroke-width="1.06" stroke-linecap="square" stroke-linejoin="round" transform="matrix(1.34, 0.00, 0.00, 1.34, 41.6, 161.4)"></path><path d="M 247.8 95.5 L 250.2 96.9 " fill="none" stroke="#000000" stroke-width="1.06" stroke-linecap="square" stroke-linejoin="round" transform="matrix(1.34, 0.00, 0.00, 1.34, 41.6, 161.4)"></path><path d="M 244.1 98.6 L 245.0 101.3 " fill="none" stroke="#000000" stroke-width="1.06" stroke-linecap="square" stroke-linejoin="round" transform="matrix(1.34, 0.00, 0.00, 1.34, 41.6, 161.4)"></path><path d="M 239.2 98.6 L 238.2 101.3 " fill="none" stroke="#000000" stroke-width="1.06" stroke-linecap="square" stroke-linejoin="round" transform="matrix(1.34, 0.00, 0.00, 1.34, 41.6, 161.4)"></path><path d="M 235.5 95.5 L 233.1 96.9 " fill="none" stroke="#000000" stroke-width="1.06" stroke-linecap="square" stroke-linejoin="round" transform="matrix(1.34, 0.00, 0.00, 1.34, 41.6, 161.4)"></path><text xml:space="preserve" font-family="Helvetica,Helvetica" font-size="14.2" fill="#000000" transform="matrix(1.34, 0.00, -0.00, -1.34, 151.9, 329.2)">3</text><text xml:space="preserve" font-family="Helvetica,Helvetica" font-size="14.2" fill="#000000" transform="matrix(1.34, 0.00, -0.00, -1.34, 151.9, 482.8)">4</text><text xml:space="preserve" font-family="Helvetica,Helvetica" font-size="14.2" fill="#000000" transform="matrix(1.34, 0.00, -0.00, -1.34, 269.4, 226.9)">1</text><text xml:space="preserve" font-family="Helvetica,Helvetica" font-size="14.2" fill="#000000" transform="matrix(1.34, 0.00, -0.00, -1.34, 269.4, 329.2)">2</text><path d="M 44.0 259.7 L 265.0 259.7 L 265.0 38.6 L 44.0 38.6 Z M 44.0 259.7 " fill="none" stroke="#7E7E7E" stroke-width="1.06" stroke-linecap="round" stroke-linejoin="round" transform="matrix(1.34, 0.00, 0.00, 1.34, 41.6, 161.4)"></path></g></g></g></g><g><clipPath id="clip0x618008abc9e0"><path d="M 41.6 161.4 L 428.4 161.4 L 428.4 548.1 L 41.6 548.1 Z M 41.6 161.4 "></path></clipPath><g clip-path="url(#clip0x618008abc9e0)"><text xml:space="preserve" font-family="Helvetica,Helvetica" font-size="9.6" fill="#000000" transform="matrix(1.34, 0.00, -0.00, -1.34, 84.0, 229.1)">3</text><text xml:space="preserve" font-family="Helvetica,Helvetica" font-size="9.6" fill="#000000" transform="matrix(1.34, 0.00, -0.00, -1.34, 84.0, 280.3)">4</text><text xml:space="preserve" font-family="Helvetica,Helvetica" font-size="9.6" fill="#000000" transform="matrix(1.34, 0.00, -0.00, -1.34, 84.0, 331.5)">5</text><text xml:space="preserve" font-family="Helvetica,Helvetica" font-size="9.6" fill="#000000" transform="matrix(1.34, 0.00, -0.00, -1.34, 84.0, 382.7)">6</text><text xml:space="preserve" font-family="Helvetica,Helvetica" font-size="9.6" fill="#000000" transform="matrix(1.34, 0.00, -0.00, -1.34, 84.0, 433.8)">7</text><text xml:space="preserve" font-family="Helvetica,Helvetica" font-size="9.6" fill="#000000" transform="matrix(1.34, 0.00, -0.00, -1.34, 84.0, 485.0)">8</text><path d="M 39.7 53.9 L 44.0 53.9 " fill="none" stroke="#000000" stroke-width="1.06" stroke-linejoin="round" transform="matrix(1.34, 0.00, 0.00, 1.34, 41.6, 161.4)"></path><path d="M 39.7 92.0 L 44.0 92.0 " fill="none" stroke="#000000" stroke-width="1.06" stroke-linejoin="round" transform="matrix(1.34, 0.00, 0.00, 1.34, 41.6, 161.4)"></path><path d="M 39.7 130.1 L 44.0 130.1 " fill="none" stroke="#000000" stroke-width="1.06" stroke-linejoin="round" transform="matrix(1.34, 0.00, 0.00, 1.34, 41.6, 161.4)"></path><path d="M 39.7 168.2 L 44.0 168.2 " fill="none" stroke="#000000" stroke-width="1.06" stroke-linejoin="round" transform="matrix(1.34, 0.00, 0.00, 1.34, 41.6, 161.4)"></path><path d="M 39.7 206.3 L 44.0 206.3 " fill="none" stroke="#000000" stroke-width="1.06" stroke-linejoin="round" transform="matrix(1.34, 0.00, 0.00, 1.34, 41.6, 161.4)"></path><path d="M 39.7 244.4 L 44.0 244.4 " fill="none" stroke="#000000" stroke-width="1.06" stroke-linejoin="round" transform="matrix(1.34, 0.00, 0.00, 1.34, 41.6, 161.4)"></path><path d="M 173.6 34.4 L 173.6 38.6 " fill="none" stroke="#000000" stroke-width="1.06" stroke-linejoin="round" transform="matrix(1.34, 0.00, 0.00, 1.34, 41.6, 161.4)"></path><path d="M 132.7 34.4 L 132.7 38.6 " fill="none" stroke="#000000" stroke-width="1.06" stroke-linejoin="round" transform="matrix(1.34, 0.00, 0.00, 1.34, 41.6, 161.4)"></path><path d="M 105.5 34.4 L 105.5 38.6 " fill="none" stroke="#000000" stroke-width="1.06" stroke-linejoin="round" transform="matrix(1.34, 0.00, 0.00, 1.34, 41.6, 161.4)"></path><path d="M 86.1 34.4 L 86.1 38.6 " fill="none" stroke="#000000" stroke-width="1.06" stroke-linejoin="round" transform="matrix(1.34, 0.00, 0.00, 1.34, 41.6, 161.4)"></path><path d="M 67.4 34.4 L 67.4 38.6 " fill="none" stroke="#000000" stroke-width="1.06" stroke-linejoin="round" transform="matrix(1.34, 0.00, 0.00, 1.34, 41.6, 161.4)"></path><path d="M 241.6 34.4 L 241.6 38.6 " fill="none" stroke="#000000" stroke-width="1.06" stroke-linejoin="round" transform="matrix(1.34, 0.00, 0.00, 1.34, 41.6, 161.4)"></path><text xml:space="preserve" font-family="Helvetica,Helvetica" font-size="9.6" fill="#000000" transform="matrix(1.34, 0.00, -0.00, -1.34, 265.8, 194.5)">3</text><text xml:space="preserve" font-family="Helvetica,Helvetica" font-size="9.6" fill="#000000" transform="matrix(1.34, 0.00, -0.00, -1.34, 272.9, 194.5)">.</text><text xml:space="preserve" font-family="Helvetica,Helvetica" font-size="9.6" fill="#000000" transform="matrix(1.34, 0.00, -0.00, -1.34, 276.5, 194.5)">5</text><text xml:space="preserve" font-family="Helvetica,Helvetica" font-size="9.6" fill="#000000" transform="matrix(1.34, 0.00, -0.00, -1.34, 210.9, 194.5)">2</text><text xml:space="preserve" font-family="Helvetica,Helvetica" font-size="9.6" fill="#000000" transform="matrix(1.34, 0.00, -0.00, -1.34, 218.1, 194.5)">.</text><text xml:space="preserve" font-family="Helvetica,Helvetica" font-size="9.6" fill="#000000" transform="matrix(1.34, 0.00, -0.00, -1.34, 221.6, 194.5)">8</text><text xml:space="preserve" font-family="Helvetica,Helvetica" font-size="9.6" fill="#000000" transform="matrix(1.34, 0.00, -0.00, -1.34, 174.3, 194.5)">2</text><text xml:space="preserve" font-family="Helvetica,Helvetica" font-size="9.6" fill="#000000" transform="matrix(1.34, 0.00, -0.00, -1.34, 181.5, 194.5)">.</text><text xml:space="preserve" font-family="Helvetica,Helvetica" font-size="9.6" fill="#000000" transform="matrix(1.34, 0.00, -0.00, -1.34, 185.1, 194.5)">3</text><text xml:space="preserve" font-family="Helvetica,Helvetica" font-size="9.6" fill="#000000" transform="matrix(1.34, 0.00, -0.00, -1.34, 148.2, 194.5)">2</text><text xml:space="preserve" font-family="Helvetica,Helvetica" font-size="9.6" fill="#000000" transform="matrix(1.34, 0.00, -0.00, -1.34, 155.4, 194.5)">.</text><text xml:space="preserve" font-family="Helvetica,Helvetica" font-size="9.6" fill="#000000" transform="matrix(1.34, 0.00, -0.00, -1.34, 159.0, 194.5)">0</text><text xml:space="preserve" font-family="Helvetica,Helvetica" font-size="9.6" fill="#000000" transform="matrix(1.34, 0.00, -0.00, -1.34, 123.2, 194.5)">1</text><text xml:space="preserve" font-family="Helvetica,Helvetica" font-size="9.6" fill="#000000" transform="matrix(1.34, 0.00, -0.00, -1.34, 130.3, 194.5)">.</text><text xml:space="preserve" font-family="Helvetica,Helvetica" font-size="9.6" fill="#000000" transform="matrix(1.34, 0.00, -0.00, -1.34, 133.9, 194.5)">7</text><text xml:space="preserve" font-family="Helvetica,Helvetica" font-size="9.6" fill="#000000" transform="matrix(1.34, 0.00, -0.00, -1.34, 357.2, 194.5)">4</text><text xml:space="preserve" font-family="Helvetica,Helvetica" font-size="9.6" fill="#000000" transform="matrix(1.34, 0.00, -0.00, -1.34, 364.3, 194.5)">.</text><text xml:space="preserve" font-family="Helvetica,Helvetica" font-size="9.6" fill="#000000" transform="matrix(1.34, 0.00, -0.00, -1.34, 367.9, 194.5)">7</text><text xml:space="preserve" font-family="Helvetica,Helvetica" font-size="12.0" fill="#000000" transform="matrix(1.34, 0.00, -0.00, -1.34, 115.9, 177.1)">E</text><text xml:space="preserve" font-family="Helvetica,Helvetica" font-size="12.0" fill="#000000" transform="matrix(1.34, 0.00, -0.00, -1.34, 126.6, 177.1)">l</text><text xml:space="preserve" font-family="Helvetica,Helvetica" font-size="12.0" fill="#000000" transform="matrix(1.34, 0.00, -0.00, -1.34, 130.2, 177.1)">e</text><text xml:space="preserve" font-family="Helvetica,Helvetica" font-size="12.0" fill="#000000" transform="matrix(1.34, 0.00, -0.00, -1.34, 139.2, 177.1)">m</text><text xml:space="preserve" font-family="Helvetica,Helvetica" font-size="12.0" fill="#000000" transform="matrix(1.34, 0.00, -0.00, -1.34, 152.6, 177.1)">e</text><text xml:space="preserve" font-family="Helvetica,Helvetica" font-size="12.0" fill="#000000" transform="matrix(1.34, 0.00, -0.00, -1.34, 161.6, 177.1)">n</text><text xml:space="preserve" font-family="Helvetica,Helvetica" font-size="12.0" fill="#000000" transform="matrix(1.34, 0.00, -0.00, -1.34, 170.5, 177.1)">t</text><text xml:space="preserve" font-family="Helvetica,Helvetica" font-size="12.0" fill="#000000" transform="matrix(1.34, 0.00, -0.00, -1.34, 175.0, 177.1)"> </text><text xml:space="preserve" font-family="Helvetica,Helvetica" font-size="12.0" fill="#000000" transform="matrix(1.34, 0.00, -0.00, -1.34, 179.4, 177.1)">s</text><text xml:space="preserve" font-family="Helvetica,Helvetica" font-size="12.0" fill="#000000" transform="matrix(1.34, 0.00, -0.00, -1.34, 187.5, 177.1)">p</text><text xml:space="preserve" font-family="Helvetica,Helvetica" font-size="12.0" fill="#000000" transform="matrix(1.34, 0.00, -0.00, -1.34, 196.5, 177.1)">a</text><text xml:space="preserve" font-family="Helvetica,Helvetica" font-size="12.0" fill="#000000" transform="matrix(1.34, 0.00, -0.00, -1.34, 205.4, 177.1)">c</text><text xml:space="preserve" font-family="Helvetica,Helvetica" font-size="12.0" fill="#000000" transform="matrix(1.34, 0.00, -0.00, -1.34, 213.5, 177.1)">i</text><text xml:space="preserve" font-family="Helvetica,Helvetica" font-size="12.0" fill="#000000" transform="matrix(1.34, 0.00, -0.00, -1.34, 217.1, 177.1)">n</text><text xml:space="preserve" font-family="Helvetica,Helvetica" font-size="12.0" fill="#000000" transform="matrix(1.34, 0.00, -0.00, -1.34, 226.0, 177.1)">g</text><text xml:space="preserve" font-family="Helvetica,Helvetica" font-size="12.0" fill="#000000" transform="matrix(1.34, 0.00, -0.00, -1.34, 235.0, 177.1)"> </text><text xml:space="preserve" font-family="Helvetica,Helvetica" font-size="12.0" fill="#000000" transform="matrix(1.34, 0.00, -0.00, -1.34, 239.4, 177.1)">(</text><text xml:space="preserve" font-family="Helvetica,Helvetica" font-size="12.0" fill="#000000" transform="matrix(1.34, 0.00, -0.00, -1.34, 244.8, 177.1)">a</text><text xml:space="preserve" font-family="Helvetica,Helvetica" font-size="12.0" fill="#000000" transform="matrix(1.34, 0.00, -0.00, -1.34, 253.8, 177.1)">t</text><text xml:space="preserve" font-family="Helvetica,Helvetica" font-size="12.0" fill="#000000" transform="matrix(1.34, 0.00, -0.00, -1.34, 258.2, 177.1)"> </text><text xml:space="preserve" font-family="Helvetica,Helvetica" font-size="12.0" fill="#000000" transform="matrix(1.34, 0.00, -0.00, -1.34, 262.7, 177.1)">6</text><text xml:space="preserve" font-family="Helvetica,Helvetica" font-size="12.0" fill="#000000" transform="matrix(1.34, 0.00, -0.00, -1.34, 271.7, 177.1)">.</text><text xml:space="preserve" font-family="Helvetica,Helvetica" font-size="12.0" fill="#000000" transform="matrix(1.34, 0.00, -0.00, -1.34, 276.1, 177.1)">7</text><text xml:space="preserve" font-family="Helvetica,Helvetica" font-size="12.0" fill="#000000" transform="matrix(1.34, 0.00, -0.00, -1.34, 285.1, 177.1)">°</text><text xml:space="preserve" font-family="Helvetica,Helvetica" font-size="12.0" fill="#000000" transform="matrix(1.34, 0.00, -0.00, -1.34, 291.8, 177.1)"> </text><text xml:space="preserve" font-family="Helvetica,Helvetica" font-size="12.0" fill="#000000" transform="matrix(1.34, 0.00, -0.00, -1.34, 296.2, 177.1)">e</text><text xml:space="preserve" font-family="Helvetica,Helvetica" font-size="12.0" fill="#000000" transform="matrix(1.34, 0.00, -0.00, -1.34, 305.2, 177.1)">c</text><text xml:space="preserve" font-family="Helvetica,Helvetica" font-size="12.0" fill="#000000" transform="matrix(1.34, 0.00, -0.00, -1.34, 313.2, 177.1)">c</text><text xml:space="preserve" font-family="Helvetica,Helvetica" font-size="12.0" fill="#000000" transform="matrix(1.34, 0.00, -0.00, -1.34, 321.3, 177.1)">e</text><text xml:space="preserve" font-family="Helvetica,Helvetica" font-size="12.0" fill="#000000" transform="matrix(1.34, 0.00, -0.00, -1.34, 330.3, 177.1)">n</text><text xml:space="preserve" font-family="Helvetica,Helvetica" font-size="12.0" fill="#000000" transform="matrix(1.34, 0.00, -0.00, -1.34, 339.2, 177.1)">t</text><text xml:space="preserve" font-family="Helvetica,Helvetica" font-size="12.0" fill="#000000" transform="matrix(1.34, 0.00, -0.00, -1.34, 343.7, 177.1)">r</text><text xml:space="preserve" font-family="Helvetica,Helvetica" font-size="12.0" fill="#000000" transform="matrix(1.34, 0.00, -0.00, -1.34, 349.1, 177.1)">i</text><text xml:space="preserve" font-family="Helvetica,Helvetica" font-size="12.0" fill="#000000" transform="matrix(1.34, 0.00, -0.00, -1.34, 352.6, 177.1)">c</text><text xml:space="preserve" font-family="Helvetica,Helvetica" font-size="12.0" fill="#000000" transform="matrix(1.34, 0.00, -0.00, -1.34, 360.7, 177.1)">i</text><text xml:space="preserve" font-family="Helvetica,Helvetica" font-size="12.0" fill="#000000" transform="matrix(1.34, 0.00, -0.00, -1.34, 364.3, 177.1)">t</text><text xml:space="preserve" font-family="Helvetica,Helvetica" font-size="12.0" fill="#000000" transform="matrix(1.34, 0.00, -0.00, -1.34, 368.7, 177.1)">y</text><text xml:space="preserve" font-family="Helvetica,Helvetica" font-size="12.0" fill="#000000" transform="matrix(1.34, 0.00, -0.00, -1.34, 376.8, 177.1)">)</text><text xml:space="preserve" font-family="Helvetica,Helvetica" font-size="12.0" fill="#000000" transform="matrix(0.00, 1.34, 1.34, -0.00, 80.0, 302.6)">E</text><text xml:space="preserve" font-family="Helvetica,Helvetica" font-size="12.0" fill="#000000" transform="matrix(0.00, 1.34, 1.34, -0.00, 90.7, 302.6)">l</text><text xml:space="preserve" font-family="Helvetica,Helvetica" font-size="12.0" fill="#000000" transform="matrix(0.00, 1.34, 1.34, -0.00, 94.3, 302.6)">e</text><text xml:space="preserve" font-family="Helvetica,Helvetica" font-size="12.0" fill="#000000" transform="matrix(0.00, 1.34, 1.34, -0.00, 103.3, 302.6)">m</text><text xml:space="preserve" font-family="Helvetica,Helvetica" font-size="12.0" fill="#000000" transform="matrix(0.00, 1.34, 1.34, -0.00, 116.7, 302.6)">e</text><text xml:space="preserve" font-family="Helvetica,Helvetica" font-size="12.0" fill="#000000" transform="matrix(0.00, 1.34, 1.34, -0.00, 125.7, 302.6)">n</text><text xml:space="preserve" font-family="Helvetica,Helvetica" font-size="12.0" fill="#000000" transform="matrix(0.00, 1.34, 1.34, -0.00, 134.6, 302.6)">t</text><text xml:space="preserve" font-family="Helvetica,Helvetica" font-size="12.0" fill="#000000" transform="matrix(0.00, 1.34, 1.34, -0.00, 139.1, 302.6)"> </text><text xml:space="preserve" font-family="Helvetica,Helvetica" font-size="12.0" fill="#000000" transform="matrix(0.00, 1.34, 1.34, -0.00, 143.5, 302.6)">n</text><text xml:space="preserve" font-family="Helvetica,Helvetica" font-size="12.0" fill="#000000" transform="matrix(0.00, 1.34, 1.34, -0.00, 152.5, 302.6)">u</text><text xml:space="preserve" font-family="Helvetica,Helvetica" font-size="12.0" fill="#000000" transform="matrix(0.00, 1.34, 1.34, -0.00, 161.5, 302.6)">m</text><text xml:space="preserve" font-family="Helvetica,Helvetica" font-size="12.0" fill="#000000" transform="matrix(0.00, 1.34, 1.34, -0.00, 174.9, 302.6)">b</text><text xml:space="preserve" font-family="Helvetica,Helvetica" font-size="12.0" fill="#000000" transform="matrix(0.00, 1.34, 1.34, -0.00, 183.8, 302.6)">e</text><text xml:space="preserve" font-family="Helvetica,Helvetica" font-size="12.0" fill="#000000" transform="matrix(0.00, 1.34, 1.34, -0.00, 192.8, 302.6)">r</text><text xml:space="preserve" font-family="Helvetica,Helvetica" font-size="14.4" fill="#000000" transform="matrix(1.34, 0.00, -0.00, -1.34, 122.8, 514.1)">S</text><text xml:space="preserve" font-family="Helvetica,Helvetica" font-size="14.4" fill="#000000" transform="matrix(1.34, 0.00, -0.00, -1.34, 135.7, 514.1)">t</text><text xml:space="preserve" font-family="Helvetica,Helvetica" font-size="14.4" fill="#000000" transform="matrix(1.34, 0.00, -0.00, -1.34, 141.0, 514.1)">i</text><text xml:space="preserve" font-family="Helvetica,Helvetica" font-size="14.4" fill="#000000" transform="matrix(1.34, 0.00, -0.00, -1.34, 145.3, 514.1)">m</text><text xml:space="preserve" font-family="Helvetica,Helvetica" font-size="14.4" fill="#000000" transform="matrix(1.34, 0.00, -0.00, -1.34, 161.4, 514.1)">u</text><text xml:space="preserve" font-family="Helvetica,Helvetica" font-size="14.4" fill="#000000" transform="matrix(1.34, 0.00, -0.00, -1.34, 172.2, 514.1)">l</text><text xml:space="preserve" font-family="Helvetica,Helvetica" font-size="14.4" fill="#000000" transform="matrix(1.34, 0.00, -0.00, -1.34, 176.5, 514.1)">u</text><text xml:space="preserve" font-family="Helvetica,Helvetica" font-size="14.4" fill="#000000" transform="matrix(1.34, 0.00, -0.00, -1.34, 187.2, 514.1)">s</text><text xml:space="preserve" font-family="Helvetica,Helvetica" font-size="14.4" fill="#000000" transform="matrix(1.34, 0.00, -0.00, -1.34, 196.9, 514.1)"> </text><text xml:space="preserve" font-family="Helvetica,Helvetica" font-size="14.4" fill="#000000" transform="matrix(1.34, 0.00, -0.00, -1.34, 202.3, 514.1)">s</text><text xml:space="preserve" font-family="Helvetica,Helvetica" font-size="14.4" fill="#000000" transform="matrix(1.34, 0.00, -0.00, -1.34, 211.9, 514.1)">e</text><text xml:space="preserve" font-family="Helvetica,Helvetica" font-size="14.4" fill="#000000" transform="matrix(1.34, 0.00, -0.00, -1.34, 222.7, 514.1)">t</text><text xml:space="preserve" font-family="Helvetica,Helvetica" font-size="14.4" fill="#000000" transform="matrix(1.34, 0.00, -0.00, -1.34, 228.0, 514.1)"> </text><text xml:space="preserve" font-family="Helvetica,Helvetica" font-size="14.4" fill="#000000" transform="matrix(1.34, 0.00, -0.00, -1.34, 233.4, 514.1)">f</text><text xml:space="preserve" font-family="Helvetica,Helvetica" font-size="14.4" fill="#000000" transform="matrix(1.34, 0.00, -0.00, -1.34, 238.8, 514.1)">o</text><text xml:space="preserve" font-family="Helvetica,Helvetica" font-size="14.4" fill="#000000" transform="matrix(1.34, 0.00, -0.00, -1.34, 249.5, 514.1)">r</text><text xml:space="preserve" font-family="Helvetica,Helvetica" font-size="14.4" fill="#000000" transform="matrix(1.34, 0.00, -0.00, -1.34, 256.0, 514.1)"> </text><text xml:space="preserve" font-family="Helvetica,Helvetica" font-size="14.4" fill="#000000" transform="matrix(1.34, 0.00, -0.00, -1.34, 261.3, 514.1)">E</text><text xml:space="preserve" font-family="Helvetica,Helvetica" font-size="14.4" fill="#000000" transform="matrix(1.34, 0.00, -0.00, -1.34, 274.2, 514.1)">x</text><text xml:space="preserve" font-family="Helvetica,Helvetica" font-size="14.4" fill="#000000" transform="matrix(1.34, 0.00, -0.00, -1.34, 283.9, 514.1)">p</text><text xml:space="preserve" font-family="Helvetica,Helvetica" font-size="14.4" fill="#000000" transform="matrix(1.34, 0.00, -0.00, -1.34, 294.6, 514.1)">e</text><text xml:space="preserve" font-family="Helvetica,Helvetica" font-size="14.4" fill="#000000" transform="matrix(1.34, 0.00, -0.00, -1.34, 305.4, 514.1)">r</text><text xml:space="preserve" font-family="Helvetica,Helvetica" font-size="14.4" fill="#000000" transform="matrix(1.34, 0.00, -0.00, -1.34, 311.8, 514.1)">i</text><text xml:space="preserve" font-family="Helvetica,Helvetica" font-size="14.4" fill="#000000" transform="matrix(1.34, 0.00, -0.00, -1.34, 316.1, 514.1)">m</text><text xml:space="preserve" font-family="Helvetica,Helvetica" font-size="14.4" fill="#000000" transform="matrix(1.34, 0.00, -0.00, -1.34, 332.2, 514.1)">e</text><text xml:space="preserve" font-family="Helvetica,Helvetica" font-size="14.4" fill="#000000" transform="matrix(1.34, 0.00, -0.00, -1.34, 343.0, 514.1)">n</text><text xml:space="preserve" font-family="Helvetica,Helvetica" font-size="14.4" fill="#000000" transform="matrix(1.34, 0.00, -0.00, -1.34, 353.7, 514.1)">t</text><text xml:space="preserve" font-family="Helvetica,Helvetica" font-size="14.4" fill="#000000" transform="matrix(1.34, 0.00, -0.00, -1.34, 359.1, 514.1)"> </text><text xml:space="preserve" font-family="Helvetica,Helvetica" font-size="14.4" fill="#000000" transform="matrix(1.34, 0.00, -0.00, -1.34, 364.4, 514.1)">2</text></g></g></g></svg>