<?xml version="1.0" encoding="UTF-8" standalone="no"?><svg xmlns="http://www.w3.org/2000/svg" xmlns:xlink="http://www.w3.org/1999/xlink" clip-rule="evenodd" stroke-miterlimit="10" viewBox="0 0 940 136"><desc>SVG generated by Keynote</desc><defs></defs><g transform="matrix(1.00, 0.00, -0.00, -1.00, 0.0, 136.0)"><text xml:space="preserve" font-family="GillSans-Light,Gill Sans" font-size="45.8" fill="#FEFFFE" transform="matrix(1.00, 0.00, -0.00, -1.00, 1.0, 94.4)">•</text><text xml:space="preserve" font-family="GillSans-Light,Gill Sans" font-size="55.8" fill="#FEFFFE" transform="matrix(1.00, 0.00, -0.00, -1.00, 50.7, 91.3)">I</text><text xml:space="preserve" font-family="GillSans-Light,Gill Sans" font-size="55.8" fill="#FEFFFE" transform="matrix(1.00, 0.00, -0.00, -1.00, 62.3, 91.3)">n</text><text xml:space="preserve" font-family="GillSans-Light,Gill Sans" font-size="55.8" fill="#FEFFFE" transform="matrix(1.00, 0.00, -0.00, -1.00, 89.7, 91.3)"> </text><text xml:space="preserve" font-family="GillSans-Light,Gill Sans" font-size="55.8" fill="#FEFFFE" transform="matrix(1.00, 0.00, -0.00, -1.00, 105.2, 91.3)">n</text><text xml:space="preserve" font-family="GillSans-Light,Gill Sans" font-size="55.8" fill="#FEFFFE" transform="matrix(1.00, 0.00, -0.00, -1.00, 132.6, 91.3)">a</text><text xml:space="preserve" font-family="GillSans-Light,Gill Sans" font-size="55.8" fill="#FEFFFE" transform="matrix(1.00, 0.00, -0.00, -1.00, 156.4, 91.3)">t</text><text xml:space="preserve" font-family="GillSans-Light,Gill Sans" font-size="55.8" fill="#FEFFFE" transform="matrix(1.00, 0.00, -0.00, -1.00, 173.2, 91.3)">u</text><text xml:space="preserve" font-family="GillSans-Light,Gill Sans" font-size="55.8" fill="#FEFFFE" transform="matrix(1.00, 0.00, -0.00, -1.00, 200.6, 91.3)">r</text><text xml:space="preserve" font-family="GillSans-Light,Gill Sans" font-size="55.8" fill="#FEFFFE" transform="matrix(1.00, 0.00, -0.00, -1.00, 220.5, 91.3)">a</text><text xml:space="preserve" font-family="GillSans-Light,Gill Sans" font-size="55.8" fill="#FEFFFE" transform="matrix(1.00, 0.00, -0.00, -1.00, 244.3, 91.3)">l</text><text xml:space="preserve" font-family="GillSans-Light,Gill Sans" font-size="55.8" fill="#FEFFFE" transform="matrix(1.00, 0.00, -0.00, -1.00, 254.8, 91.3)"> </text><text xml:space="preserve" font-family="GillSans-Light,Gill Sans" font-size="55.8" fill="#FEFFFE" transform="matrix(1.00, 0.00, -0.00, -1.00, 270.3, 91.3)">s</text><text xml:space="preserve" font-family="GillSans-Light,Gill Sans" font-size="55.8" fill="#FEFFFE" transform="matrix(1.00, 0.00, -0.00, -1.00, 290.1, 91.3)">c</text><text xml:space="preserve" font-family="GillSans-Light,Gill Sans" font-size="55.8" fill="#FEFFFE" transform="matrix(1.00, 0.00, -0.00, -1.00, 313.3, 91.3)">e</text><text xml:space="preserve" font-family="GillSans-Light,Gill Sans" font-size="55.8" fill="#FEFFFE" transform="matrix(1.00, 0.00, -0.00, -1.00, 340.1, 91.3)">n</text><text xml:space="preserve" font-family="GillSans-Light,Gill Sans" font-size="55.8" fill="#FEFFFE" transform="matrix(1.00, 0.00, -0.00, -1.00, 367.4, 91.3)">e</text><text xml:space="preserve" font-family="GillSans-Light,Gill Sans" font-size="55.8" fill="#FEFFFE" transform="matrix(1.00, 0.00, -0.00, -1.00, 394.2, 91.3)">s</text><text xml:space="preserve" font-family="GillSans-Light,Gill Sans" font-size="55.8" fill="#FEFFFE" transform="matrix(1.00, 0.00, -0.00, -1.00, 413.9, 91.3)">,</text><text xml:space="preserve" font-family="GillSans-Light,Gill Sans" font-size="55.8" fill="#FEFFFE" transform="matrix(1.00, 0.00, -0.00, -1.00, 419.3, 91.3)"> </text><text xml:space="preserve" font-family="GillSans-Light,Gill Sans" font-size="55.8" fill="#FEFFFE" transform="matrix(1.00, 0.00, -0.00, -1.00, 434.8, 91.3)">o</text><text xml:space="preserve" font-family="GillSans-Light,Gill Sans" font-size="55.8" fill="#FEFFFE" transform="matrix(1.00, 0.00, -0.00, -1.00, 465.0, 91.3)">b</text><text xml:space="preserve" font-family="GillSans-Light,Gill Sans" font-size="55.8" fill="#FEFFFE" transform="matrix(1.00, 0.00, -0.00, -1.00, 493.5, 91.3)">j</text><text xml:space="preserve" font-family="GillSans-Light,Gill Sans" font-size="55.8" fill="#FEFFFE" transform="matrix(1.00, 0.00, -0.00, -1.00, 504.0, 91.3)">e</text><text xml:space="preserve" font-family="GillSans-Light,Gill Sans" font-size="55.8" fill="#FEFFFE" transform="matrix(1.00, 0.00, -0.00, -1.00, 530.7, 91.3)">c</text><text xml:space="preserve" font-family="GillSans-Light,Gill Sans" font-size="55.8" fill="#FEFFFE" transform="matrix(1.00, 0.00, -0.00, -1.00, 554.0, 91.3)">t</text><text xml:space="preserve" font-family="GillSans-Light,Gill Sans" font-size="55.8" fill="#FEFFFE" transform="matrix(1.00, 0.00, -0.00, -1.00, 570.8, 91.3)">s</text><text xml:space="preserve" font-family="GillSans-Light,Gill Sans" font-size="55.8" fill="#FEFFFE" transform="matrix(1.00, 0.00, -0.00, -1.00, 590.5, 91.3)"> </text><text xml:space="preserve" font-family="GillSans-Light,Gill Sans" font-size="55.8" fill="#FEFFFE" transform="matrix(1.00, 0.00, -0.00, -1.00, 606.0, 91.3)">h</text><text xml:space="preserve" font-family="GillSans-Light,Gill Sans" font-size="55.8" fill="#FEFFFE" transform="matrix(1.00, 0.00, -0.00, -1.00, 633.4, 91.3)">a</text><text xml:space="preserve" font-family="GillSans-Light,Gill Sans" font-size="55.8" fill="#FEFFFE" transform="matrix(1.00, 0.00, -0.00, -1.00, 655.8, 91.3)">v</text><text xml:space="preserve" font-family="GillSans-Light,Gill Sans" font-size="55.8" fill="#FEFFFE" transform="matrix(1.00, 0.00, -0.00, -1.00, 678.8, 91.3)">e</text><text xml:space="preserve" font-family="GillSans-Light,Gill Sans" font-size="55.8" fill="#FEFFFE" transform="matrix(1.00, 0.00, -0.00, -1.00, 705.5, 91.3)"> </text><text xml:space="preserve" font-family="GillSans-Light,Gill Sans" font-size="55.8" fill="#FEFFFE" transform="matrix(1.00, 0.00, -0.00, -1.00, 721.0, 91.3)">b</text><text xml:space="preserve" font-family="GillSans-Light,Gill Sans" font-size="55.8" fill="#FEFFFE" transform="matrix(1.00, 0.00, -0.00, -1.00, 749.4, 91.3)">o</text><text xml:space="preserve" font-family="GillSans-Light,Gill Sans" font-size="55.8" fill="#FEFFFE" transform="matrix(1.00, 0.00, -0.00, -1.00, 779.7, 91.3)">t</text><text xml:space="preserve" font-family="GillSans-Light,Gill Sans" font-size="55.8" fill="#FEFFFE" transform="matrix(1.00, 0.00, -0.00, -1.00, 796.5, 91.3)">h</text><text xml:space="preserve" font-family="GillSans-Light,Gill Sans" font-size="55.8" fill="#FEFFFE" transform="matrix(1.00, 0.00, -0.00, -1.00, 823.8, 91.3)"> </text><text xml:space="preserve" font-family="GillSans-Light,Gill Sans" font-size="55.8" fill="#FEFFFE" transform="matrix(1.00, 0.00, -0.00, -1.00, 839.3, 91.3)">ﬁ</text><text xml:space="preserve" font-family="GillSans-Light,Gill Sans" font-size="55.8" fill="#FEFFFE" transform="matrix(1.00, 0.00, -0.00, -1.00, 866.1, 91.3)">r</text><text xml:space="preserve" font-family="GillSans-Light,Gill Sans" font-size="55.8" fill="#FEFFFE" transform="matrix(1.00, 0.00, -0.00, -1.00, 886.9, 91.3)">s</text><text xml:space="preserve" font-family="GillSans-Light,Gill Sans" font-size="55.8" fill="#FEFFFE" transform="matrix(1.00, 0.00, -0.00, -1.00, 906.6, 91.3)">t</text><text xml:space="preserve" font-family="GillSans-Light,Gill Sans" font-size="55.8" fill="#FEFFFE" transform="matrix(1.00, 0.00, -0.00, -1.00, 923.5, 91.3)">-</text><text xml:space="preserve" font-family="GillSans-Light,Gill Sans" font-size="55.8" fill="#FEFFFE" transform="matrix(1.00, 0.00, -0.00, -1.00, 50.7, 15.7)">o</text><text xml:space="preserve" font-family="GillSans-Light,Gill Sans" font-size="55.8" fill="#FEFFFE" transform="matrix(1.00, 0.00, -0.00, -1.00, 81.0, 15.7)">r</text><text xml:space="preserve" font-family="GillSans-Light,Gill Sans" font-size="55.8" fill="#FEFFFE" transform="matrix(1.00, 0.00, -0.00, -1.00, 99.6, 15.7)">d</text><text xml:space="preserve" font-family="GillSans-Light,Gill Sans" font-size="55.8" fill="#FEFFFE" transform="matrix(1.00, 0.00, -0.00, -1.00, 128.0, 15.7)">e</text><text xml:space="preserve" font-family="GillSans-Light,Gill Sans" font-size="55.8" fill="#FEFFFE" transform="matrix(1.00, 0.00, -0.00, -1.00, 154.7, 15.7)">r</text><text xml:space="preserve" font-family="GillSans-Light,Gill Sans" font-size="55.8" fill="#FEFFFE" transform="matrix(1.00, 0.00, -0.00, -1.00, 173.3, 15.7)"> </text><text xml:space="preserve" font-family="GillSans-Light,Gill Sans" font-size="55.8" fill="#FEFFFE" transform="matrix(1.00, 0.00, -0.00, -1.00, 188.8, 15.7)">a</text><text xml:space="preserve" font-family="GillSans-Light,Gill Sans" font-size="55.8" fill="#FEFFFE" transform="matrix(1.00, 0.00, -0.00, -1.00, 212.6, 15.7)">n</text><text xml:space="preserve" font-family="GillSans-Light,Gill Sans" font-size="55.8" fill="#FEFFFE" transform="matrix(1.00, 0.00, -0.00, -1.00, 240.0, 15.7)">d</text><text xml:space="preserve" font-family="GillSans-Light,Gill Sans" font-size="55.8" fill="#FEFFFE" transform="matrix(1.00, 0.00, -0.00, -1.00, 268.4, 15.7)"> </text><text xml:space="preserve" font-family="GillSans-Light,Gill Sans" font-size="55.8" fill="#FEFFFE" transform="matrix(1.00, 0.00, -0.00, -1.00, 283.9, 15.7)">p</text><text xml:space="preserve" font-family="GillSans-Light,Gill Sans" font-size="55.8" fill="#FEFFFE" transform="matrix(1.00, 0.00, -0.00, -1.00, 312.3, 15.7)">o</text><text xml:space="preserve" font-family="GillSans-Light,Gill Sans" font-size="55.8" fill="#FEFFFE" transform="matrix(1.00, 0.00, -0.00, -1.00, 342.6, 15.7)">s</text><text xml:space="preserve" font-family="GillSans-Light,Gill Sans" font-size="55.8" fill="#FEFFFE" transform="matrix(1.00, 0.00, -0.00, -1.00, 362.3, 15.7)">i</text><text xml:space="preserve" font-family="GillSans-Light,Gill Sans" font-size="55.8" fill="#FEFFFE" transform="matrix(1.00, 0.00, -0.00, -1.00, 372.8, 15.7)">t</text><text xml:space="preserve" font-family="GillSans-Light,Gill Sans" font-size="55.8" fill="#FEFFFE" transform="matrix(1.00, 0.00, -0.00, -1.00, 389.6, 15.7)">i</text><text xml:space="preserve" font-family="GillSans-Light,Gill Sans" font-size="55.8" fill="#FEFFFE" transform="matrix(1.00, 0.00, -0.00, -1.00, 400.1, 15.7)">o</text><text xml:space="preserve" font-family="GillSans-Light,Gill Sans" font-size="55.8" fill="#FEFFFE" transform="matrix(1.00, 0.00, -0.00, -1.00, 430.4, 15.7)">n</text><text xml:space="preserve" font-family="GillSans-Light,Gill Sans" font-size="55.8" fill="#FEFFFE" transform="matrix(1.00, 0.00, -0.00, -1.00, 457.7, 15.7)">-</text><text xml:space="preserve" font-family="GillSans-Light,Gill Sans" font-size="55.8" fill="#FEFFFE" transform="matrix(1.00, 0.00, -0.00, -1.00, 475.2, 15.7)">d</text><text xml:space="preserve" font-family="GillSans-Light,Gill Sans" font-size="55.8" fill="#FEFFFE" transform="matrix(1.00, 0.00, -0.00, -1.00, 503.6, 15.7)">e</text><text xml:space="preserve" font-family="GillSans-Light,Gill Sans" font-size="55.8" fill="#FEFFFE" transform="matrix(1.00, 0.00, -0.00, -1.00, 530.4, 15.7)">ﬁ</text><text xml:space="preserve" font-family="GillSans-Light,Gill Sans" font-size="55.8" fill="#FEFFFE" transform="matrix(1.00, 0.00, -0.00, -1.00, 557.1, 15.7)">n</text><text xml:space="preserve" font-family="GillSans-Light,Gill Sans" font-size="55.8" fill="#FEFFFE" transform="matrix(1.00, 0.00, -0.00, -1.00, 584.5, 15.7)">e</text><text xml:space="preserve" font-family="GillSans-Light,Gill Sans" font-size="55.8" fill="#FEFFFE" transform="matrix(1.00, 0.00, -0.00, -1.00, 611.2, 15.7)">d</text><text xml:space="preserve" font-family="GillSans-Light,Gill Sans" font-size="55.8" fill="#FEFFFE" transform="matrix(1.00, 0.00, -0.00, -1.00, 639.6, 15.7)"> </text><text xml:space="preserve" font-family="GillSans-Light,Gill Sans" font-size="55.8" fill="#FEFFFE" transform="matrix(1.00, 0.00, -0.00, -1.00, 655.1, 15.7)">m</text><text xml:space="preserve" font-family="GillSans-Light,Gill Sans" font-size="55.8" fill="#FEFFFE" transform="matrix(1.00, 0.00, -0.00, -1.00, 698.1, 15.7)">o</text><text xml:space="preserve" font-family="GillSans-Light,Gill Sans" font-size="55.8" fill="#FEFFFE" transform="matrix(1.00, 0.00, -0.00, -1.00, 728.4, 15.7)">t</text><text xml:space="preserve" font-family="GillSans-Light,Gill Sans" font-size="55.8" fill="#FEFFFE" transform="matrix(1.00, 0.00, -0.00, -1.00, 745.2, 15.7)">i</text><text xml:space="preserve" font-family="GillSans-Light,Gill Sans" font-size="55.8" fill="#FEFFFE" transform="matrix(1.00, 0.00, -0.00, -1.00, 755.7, 15.7)">o</text><text xml:space="preserve" font-family="GillSans-Light,Gill Sans" font-size="55.8" fill="#FEFFFE" transform="matrix(1.00, 0.00, -0.00, -1.00, 785.9, 15.7)">n</text><text xml:space="preserve" font-family="GillSans-Light,Gill Sans" font-size="55.8" fill="#FEFFFE" transform="matrix(1.00, 0.00, -0.00, -1.00, 813.3, 15.7)">.</text></g></svg>