<?xml version="1.0" encoding="UTF-8" standalone="no"?><svg xmlns="http://www.w3.org/2000/svg" xmlns:xlink="http://www.w3.org/1999/xlink" clip-rule="evenodd" stroke-miterlimit="10" viewBox="0 0 950 123"><desc>SVG generated by Keynote</desc><defs></defs><g transform="matrix(1.00, 0.00, -0.00, -1.00, 0.0, 123.0)"><text xml:space="preserve" font-family="GillSans-Light,Gill Sans" font-size="45.8" fill="#FEFFFE" transform="matrix(1.00, 0.00, -0.00, -1.00, 1.0, 81.4)">•</text><text xml:space="preserve" font-family="GillSans-Light,Gill Sans" font-size="55.8" fill="#FEFFFE" transform="matrix(1.00, 0.00, -0.00, -1.00, 50.7, 78.3)">H</text><text xml:space="preserve" font-family="GillSans-Light,Gill Sans" font-size="55.8" fill="#FEFFFE" transform="matrix(1.00, 0.00, -0.00, -1.00, 90.9, 78.3)">o</text><text xml:space="preserve" font-family="GillSans-Light,Gill Sans" font-size="55.8" fill="#FEFFFE" transform="matrix(1.00, 0.00, -0.00, -1.00, 120.3, 78.3)">w</text><text xml:space="preserve" font-family="GillSans-Light,Gill Sans" font-size="55.8" fill="#FEFFFE" transform="matrix(1.00, 0.00, -0.00, -1.00, 159.8, 78.3)"> </text><text xml:space="preserve" font-family="GillSans-Light,Gill Sans" font-size="55.8" fill="#FEFFFE" transform="matrix(1.00, 0.00, -0.00, -1.00, 175.3, 78.3)">d</text><text xml:space="preserve" font-family="GillSans-Light,Gill Sans" font-size="55.8" fill="#FEFFFE" transform="matrix(1.00, 0.00, -0.00, -1.00, 203.7, 78.3)">o</text><text xml:space="preserve" font-family="GillSans-Light,Gill Sans" font-size="55.8" fill="#FEFFFE" transform="matrix(1.00, 0.00, -0.00, -1.00, 234.0, 78.3)">e</text><text xml:space="preserve" font-family="GillSans-Light,Gill Sans" font-size="55.8" fill="#FEFFFE" transform="matrix(1.00, 0.00, -0.00, -1.00, 260.7, 78.3)">s</text><text xml:space="preserve" font-family="GillSans-Light,Gill Sans" font-size="55.8" fill="#FEFFFE" transform="matrix(1.00, 0.00, -0.00, -1.00, 280.4, 78.3)"> </text><text xml:space="preserve" font-family="GillSans-Light,Gill Sans" font-size="55.8" fill="#FEFFFE" transform="matrix(1.00, 0.00, -0.00, -1.00, 295.9, 78.3)">t</text><text xml:space="preserve" font-family="GillSans-Light,Gill Sans" font-size="55.8" fill="#FEFFFE" transform="matrix(1.00, 0.00, -0.00, -1.00, 312.8, 78.3)">h</text><text xml:space="preserve" font-family="GillSans-Light,Gill Sans" font-size="55.8" fill="#FEFFFE" transform="matrix(1.00, 0.00, -0.00, -1.00, 340.1, 78.3)">e</text><text xml:space="preserve" font-family="GillSans-Light,Gill Sans" font-size="55.8" fill="#FEFFFE" transform="matrix(1.00, 0.00, -0.00, -1.00, 366.9, 78.3)"> </text><text xml:space="preserve" font-family="GillSans-Light,Gill Sans" font-size="55.8" fill="#FEFFFE" transform="matrix(1.00, 0.00, -0.00, -1.00, 382.3, 78.3)">v</text><text xml:space="preserve" font-family="GillSans-Light,Gill Sans" font-size="55.8" fill="#FEFFFE" transform="matrix(1.00, 0.00, -0.00, -1.00, 406.1, 78.3)">i</text><text xml:space="preserve" font-family="GillSans-Light,Gill Sans" font-size="55.8" fill="#FEFFFE" transform="matrix(1.00, 0.00, -0.00, -1.00, 416.6, 78.3)">s</text><text xml:space="preserve" font-family="GillSans-Light,Gill Sans" font-size="55.8" fill="#FEFFFE" transform="matrix(1.00, 0.00, -0.00, -1.00, 436.4, 78.3)">u</text><text xml:space="preserve" font-family="GillSans-Light,Gill Sans" font-size="55.8" fill="#FEFFFE" transform="matrix(1.00, 0.00, -0.00, -1.00, 463.8, 78.3)">a</text><text xml:space="preserve" font-family="GillSans-Light,Gill Sans" font-size="55.8" fill="#FEFFFE" transform="matrix(1.00, 0.00, -0.00, -1.00, 487.6, 78.3)">l</text><text xml:space="preserve" font-family="GillSans-Light,Gill Sans" font-size="55.8" fill="#FEFFFE" transform="matrix(1.00, 0.00, -0.00, -1.00, 498.0, 78.3)"> </text><text xml:space="preserve" font-family="GillSans-Light,Gill Sans" font-size="55.8" fill="#FEFFFE" transform="matrix(1.00, 0.00, -0.00, -1.00, 513.5, 78.3)">s</text><text xml:space="preserve" font-family="GillSans-Light,Gill Sans" font-size="55.8" fill="#FEFFFE" transform="matrix(1.00, 0.00, -0.00, -1.00, 533.3, 78.3)">y</text><text xml:space="preserve" font-family="GillSans-Light,Gill Sans" font-size="55.8" fill="#FEFFFE" transform="matrix(1.00, 0.00, -0.00, -1.00, 556.6, 78.3)">s</text><text xml:space="preserve" font-family="GillSans-Light,Gill Sans" font-size="55.8" fill="#FEFFFE" transform="matrix(1.00, 0.00, -0.00, -1.00, 576.3, 78.3)">t</text><text xml:space="preserve" font-family="GillSans-Light,Gill Sans" font-size="55.8" fill="#FEFFFE" transform="matrix(1.00, 0.00, -0.00, -1.00, 593.1, 78.3)">e</text><text xml:space="preserve" font-family="GillSans-Light,Gill Sans" font-size="55.8" fill="#FEFFFE" transform="matrix(1.00, 0.00, -0.00, -1.00, 619.9, 78.3)">m</text><text xml:space="preserve" font-family="GillSans-Light,Gill Sans" font-size="55.8" fill="#FEFFFE" transform="matrix(1.00, 0.00, -0.00, -1.00, 662.9, 78.3)"> </text><text xml:space="preserve" font-family="GillSans-Light,Gill Sans" font-size="55.8" fill="#FEFFFE" transform="matrix(1.00, 0.00, -0.00, -1.00, 678.4, 78.3)">m</text><text xml:space="preserve" font-family="GillSans-Light,Gill Sans" font-size="55.8" fill="#FEFFFE" transform="matrix(1.00, 0.00, -0.00, -1.00, 721.4, 78.3)">a</text><text xml:space="preserve" font-family="GillSans-Light,Gill Sans" font-size="55.8" fill="#FEFFFE" transform="matrix(1.00, 0.00, -0.00, -1.00, 745.2, 78.3)">k</text><text xml:space="preserve" font-family="GillSans-Light,Gill Sans" font-size="55.8" fill="#FEFFFE" transform="matrix(1.00, 0.00, -0.00, -1.00, 768.5, 78.3)">e</text><text xml:space="preserve" font-family="GillSans-Light,Gill Sans" font-size="55.8" fill="#FEFFFE" transform="matrix(1.00, 0.00, -0.00, -1.00, 795.2, 78.3)"> </text><text xml:space="preserve" font-family="GillSans-Light,Gill Sans" font-size="55.8" fill="#FEFFFE" transform="matrix(1.00, 0.00, -0.00, -1.00, 810.7, 78.3)">u</text><text xml:space="preserve" font-family="GillSans-Light,Gill Sans" font-size="55.8" fill="#FEFFFE" transform="matrix(1.00, 0.00, -0.00, -1.00, 838.0, 78.3)">s</text><text xml:space="preserve" font-family="GillSans-Light,Gill Sans" font-size="55.8" fill="#FEFFFE" transform="matrix(1.00, 0.00, -0.00, -1.00, 857.8, 78.3)">e</text><text xml:space="preserve" font-family="GillSans-Light,Gill Sans" font-size="55.8" fill="#FEFFFE" transform="matrix(1.00, 0.00, -0.00, -1.00, 884.5, 78.3)"> </text><text xml:space="preserve" font-family="GillSans-Light,Gill Sans" font-size="55.8" fill="#FEFFFE" transform="matrix(1.00, 0.00, -0.00, -1.00, 900.0, 78.3)">o</text><text xml:space="preserve" font-family="GillSans-Light,Gill Sans" font-size="55.8" fill="#FEFFFE" transform="matrix(1.00, 0.00, -0.00, -1.00, 930.3, 78.3)">f</text><text xml:space="preserve" font-family="GillSans-Light,Gill Sans" font-size="55.8" fill="#FEFFFE" transform="matrix(1.00, 0.00, -0.00, -1.00, 943.7, 78.3)"> </text><text xml:space="preserve" font-family="GillSans-Light,Gill Sans" font-size="55.8" fill="#FEFFFE" transform="matrix(1.00, 0.00, -0.00, -1.00, 50.7, 2.7)">e</text><text xml:space="preserve" font-family="GillSans-Light,Gill Sans" font-size="55.8" fill="#FEFFFE" transform="matrix(1.00, 0.00, -0.00, -1.00, 77.5, 2.7)">a</text><text xml:space="preserve" font-family="GillSans-Light,Gill Sans" font-size="55.8" fill="#FEFFFE" transform="matrix(1.00, 0.00, -0.00, -1.00, 101.3, 2.7)">c</text><text xml:space="preserve" font-family="GillSans-Light,Gill Sans" font-size="55.8" fill="#FEFFFE" transform="matrix(1.00, 0.00, -0.00, -1.00, 124.5, 2.7)">h</text><text xml:space="preserve" font-family="GillSans-Light,Gill Sans" font-size="55.8" fill="#FEFFFE" transform="matrix(1.00, 0.00, -0.00, -1.00, 151.9, 2.7)">?</text></g></svg>