<?xml version="1.0" encoding="UTF-8" standalone="no"?><svg xmlns="http://www.w3.org/2000/svg" xmlns:xlink="http://www.w3.org/1999/xlink" clip-rule="evenodd" stroke-miterlimit="10" viewBox="0 0 348 83"><desc>SVG generated by Keynote</desc><defs></defs><g transform="matrix(1.00, 0.00, -0.00, -1.00, 0.0, 83.0)"><image xlink:href="../../E453365A-544C-448F-B155-93C351C37A66/assets/3197DE6C855A36F1FE5ED49F2460F559.png" width="346.00" height="80.00" transform="matrix(1.00, 0.00, -0.00, -1.00, 1.0, 81.0)"></image><text xml:space="preserve" font-family="GillSans-Light,Gill Sans" font-size="85.4" fill="#FEFFFE" transform="matrix(1.00, 0.00, -0.00, -1.00, 1.2, 18.8)">Q</text><text xml:space="preserve" font-family="GillSans-Light,Gill Sans" font-size="85.4" fill="#FEFFFE" transform="matrix(1.00, 0.00, -0.00, -1.00, 71.5, 18.8)">u</text><text xml:space="preserve" font-family="GillSans-Light,Gill Sans" font-size="85.4" fill="#FEFFFE" transform="matrix(1.00, 0.00, -0.00, -1.00, 113.4, 18.8)">e</text><text xml:space="preserve" font-family="GillSans-Light,Gill Sans" font-size="85.4" fill="#FEFFFE" transform="matrix(1.00, 0.00, -0.00, -1.00, 154.3, 18.8)">s</text><text xml:space="preserve" font-family="GillSans-Light,Gill Sans" font-size="85.4" fill="#FEFFFE" transform="matrix(1.00, 0.00, -0.00, -1.00, 184.6, 18.8)">t</text><text xml:space="preserve" font-family="GillSans-Light,Gill Sans" font-size="85.4" fill="#FEFFFE" transform="matrix(1.00, 0.00, -0.00, -1.00, 210.4, 18.8)">i</text><text xml:space="preserve" font-family="GillSans-Light,Gill Sans" font-size="85.4" fill="#FEFFFE" transform="matrix(1.00, 0.00, -0.00, -1.00, 226.4, 18.8)">o</text><text xml:space="preserve" font-family="GillSans-Light,Gill Sans" font-size="85.4" fill="#FEFFFE" transform="matrix(1.00, 0.00, -0.00, -1.00, 272.7, 18.8)">n</text><text xml:space="preserve" font-family="GillSans-Light,Gill Sans" font-size="85.4" fill="#FEFFFE" transform="matrix(1.00, 0.00, -0.00, -1.00, 314.6, 18.8)">s</text></g></svg>