<?xml version="1.0" encoding="UTF-8" standalone="no"?><svg xmlns="http://www.w3.org/2000/svg" xmlns:xlink="http://www.w3.org/1999/xlink" clip-rule="evenodd" stroke-miterlimit="10" viewBox="0 0 622 71"><desc>SVG generated by Keynote</desc><defs></defs><g transform="matrix(1.00, 0.00, -0.00, -1.00, 0.0, 71.0)"><image xlink:href="../../6AAC8609-FB72-4982-94B0-40166F4ED34A/assets/C2CDE7CC3E7442D49DE7579BCEBE581A.png" width="619.00" height="68.00" transform="matrix(1.00, 0.00, -0.00, -1.00, 2.0, 69.0)"></image><text xml:space="preserve" font-family="GillSans-Light,Gill Sans" font-size="85.4" fill="#FEFFFE" transform="matrix(1.00, 0.00, -0.00, -1.00, 0.1, 7.4)">F</text><text xml:space="preserve" font-family="GillSans-Light,Gill Sans" font-size="85.4" fill="#FEFFFE" transform="matrix(1.00, 0.00, -0.00, -1.00, 37.5, 7.4)">i</text><text xml:space="preserve" font-family="GillSans-Light,Gill Sans" font-size="85.4" fill="#FEFFFE" transform="matrix(1.00, 0.00, -0.00, -1.00, 53.6, 7.4)">r</text><text xml:space="preserve" font-family="GillSans-Light,Gill Sans" font-size="85.4" fill="#FEFFFE" transform="matrix(1.00, 0.00, -0.00, -1.00, 85.5, 7.4)">s</text><text xml:space="preserve" font-family="GillSans-Light,Gill Sans" font-size="85.4" fill="#FEFFFE" transform="matrix(1.00, 0.00, -0.00, -1.00, 115.7, 7.4)">t</text><text xml:space="preserve" font-family="GillSans-Light,Gill Sans" font-size="85.4" fill="#FEFFFE" transform="matrix(1.00, 0.00, -0.00, -1.00, 141.5, 7.4)">-</text><text xml:space="preserve" font-family="GillSans-Light,Gill Sans" font-size="85.4" fill="#FEFFFE" transform="matrix(1.00, 0.00, -0.00, -1.00, 168.2, 7.4)">o</text><text xml:space="preserve" font-family="GillSans-Light,Gill Sans" font-size="85.4" fill="#FEFFFE" transform="matrix(1.00, 0.00, -0.00, -1.00, 214.5, 7.4)">r</text><text xml:space="preserve" font-family="GillSans-Light,Gill Sans" font-size="85.4" fill="#FEFFFE" transform="matrix(1.00, 0.00, -0.00, -1.00, 243.0, 7.4)">d</text><text xml:space="preserve" font-family="GillSans-Light,Gill Sans" font-size="85.4" fill="#FEFFFE" transform="matrix(1.00, 0.00, -0.00, -1.00, 286.5, 7.4)">e</text><text xml:space="preserve" font-family="GillSans-Light,Gill Sans" font-size="85.4" fill="#FEFFFE" transform="matrix(1.00, 0.00, -0.00, -1.00, 327.4, 7.4)">r</text><text xml:space="preserve" font-family="GillSans-Light,Gill Sans" font-size="85.4" fill="#FEFFFE" transform="matrix(1.00, 0.00, -0.00, -1.00, 355.9, 7.4)"> </text><text xml:space="preserve" font-family="GillSans-Light,Gill Sans" font-size="85.4" fill="#FEFFFE" transform="matrix(1.00, 0.00, -0.00, -1.00, 379.6, 7.4)">m</text><text xml:space="preserve" font-family="GillSans-Light,Gill Sans" font-size="85.4" fill="#FEFFFE" transform="matrix(1.00, 0.00, -0.00, -1.00, 445.5, 7.4)">o</text><text xml:space="preserve" font-family="GillSans-Light,Gill Sans" font-size="85.4" fill="#FEFFFE" transform="matrix(1.00, 0.00, -0.00, -1.00, 491.8, 7.4)">t</text><text xml:space="preserve" font-family="GillSans-Light,Gill Sans" font-size="85.4" fill="#FEFFFE" transform="matrix(1.00, 0.00, -0.00, -1.00, 517.6, 7.4)">i</text><text xml:space="preserve" font-family="GillSans-Light,Gill Sans" font-size="85.4" fill="#FEFFFE" transform="matrix(1.00, 0.00, -0.00, -1.00, 533.6, 7.4)">o</text><text xml:space="preserve" font-family="GillSans-Light,Gill Sans" font-size="85.4" fill="#FEFFFE" transform="matrix(1.00, 0.00, -0.00, -1.00, 579.9, 7.4)">n</text></g></svg>