<?xml version="1.0" encoding="UTF-8" standalone="no"?><svg xmlns="http://www.w3.org/2000/svg" xmlns:xlink="http://www.w3.org/1999/xlink" clip-rule="evenodd" stroke-miterlimit="10" viewBox="0 0 200 200"><desc>SVG generated by Keynote</desc><defs></defs><g transform="matrix(1.00, 0.00, -0.00, -1.00, 0.0, 200.0)"><path d="M 165.8 165.9 C 202.2 129.5 202.2 70.4 165.8 34.0 C 129.4 -2.4 70.3 -2.4 33.9 34.0 C -2.5 70.4 -2.5 129.5 33.9 165.9 C 70.3 202.3 129.4 202.3 165.8 165.9 Z M 165.8 165.9 " fill="#797F7D"></path><path d="M 175.2 150.7 C 175.2 151.2 174.1 152.0 174.2 152.4 M 175.2 150.7 C 173.0 150.6 171.7 152.3 169.7 154.3 C 167.7 156.7 171.1 155.3 171.4 156.0 C 169.4 159.8 168.3 158.9 167.2 157.2 C 167.2 159.2 162.2 161.1 164.7 162.1 C 169.4 157.2 161.8 166.0 166.8 162.8 C 167.5 162.6 166.8 164.3 166.4 164.7 C 168.5 164.1 167.0 167.3 169.8 165.5 C 171.2 166.3 170.3 166.2 172.6 165.5 C 173.3 165.0 172.7 164.9 172.3 164.7 C 171.2 163.3 174.8 163.5 174.9 161.5 C 177.8 161.8 176.5 158.8 174.9 159.2 C 176.1 158.2 179.1 158.3 178.6 156.0 C 180.1 156.0 181.7 152.3 179.1 153.4 C 177.4 154.3 177.9 152.3 177.5 151.8 C 176.8 152.0 176.0 154.4 175.5 154.4 C 175.6 153.6 176.6 150.6 174.8 153.3 C 174.7 152.0 173.5 153.0 175.2 150.7 C 175.2 150.7 175.2 150.7 175.2 150.7 Z M 167.3 158.7 C 166.8 158.3 168.0 157.9 167.3 158.7 C 167.3 158.7 167.3 158.7 167.3 158.7 Z M 178.9 157.8 C 178.3 157.4 179.6 156.9 178.9 157.8 C 178.9 157.8 178.9 157.8 178.9 157.8 Z M 172.8 164.3 C 172.3 163.9 173.5 163.4 172.8 164.3 C 172.8 164.3 172.8 164.3 172.8 164.3 Z M 169.5 156.7 C 171.0 155.7 169.2 158.5 168.6 158.3 C 168.9 158.0 168.8 156.7 169.5 156.7 C 169.5 156.7 169.5 156.7 169.5 156.7 Z M 172.5 158.9 C 172.4 158.6 172.8 158.0 173.2 158.4 C 173.1 158.9 172.6 159.1 172.5 158.9 C 172.5 158.9 172.5 158.9 172.5 158.9 Z M 164.5 163.9 C 164.4 163.6 164.9 163.0 165.3 163.5 C 165.1 164.0 164.5 164.2 164.5 163.9 C 164.5 163.9 164.5 163.9 164.5 163.9 Z M 172.0 156.2 C 172.4 155.9 173.0 156.1 172.7 156.6 C 172.3 156.6 171.5 157.6 172.0 156.2 C 172.0 156.2 172.0 156.2 172.0 156.2 Z M 172.0 152.7 C 173.2 151.7 172.1 154.7 171.9 154.5 C 171.3 154.6 171.1 153.1 172.0 152.7 C 172.0 152.7 172.0 152.7 172.0 152.7 Z M 173.3 156.0 C 174.3 155.2 173.3 156.8 173.3 156.0 C 173.3 156.0 173.3 156.0 173.3 156.0 Z M 168.7 166.3 C 169.9 165.5 168.7 167.0 168.7 166.3 C 168.7 166.3 168.7 166.3 168.7 166.3 Z M 174.9 162.3 C 175.9 161.5 174.9 163.1 174.9 162.3 C 174.9 162.3 174.9 162.3 174.9 162.3 Z M 168.3 160.1 C 166.8 161.7 166.9 159.2 168.3 160.1 C 168.3 160.1 168.3 160.1 168.3 160.1 Z M 173.8 149.9 C 172.6 151.6 172.4 149.2 173.8 149.9 C 173.8 149.9 173.8 149.9 173.8 149.9 Z M 161.3 165.5 C 162.5 163.9 155.4 167.5 159.2 167.4 C 161.3 168.4 157.1 171.7 156.9 169.3 C 155.6 170.2 155.5 170.1 155.5 171.3 C 154.3 170.3 151.1 171.8 150.5 173.1 C 150.6 174.6 152.5 171.9 151.7 174.2 C 148.2 177.1 152.8 175.2 152.3 177.6 C 152.1 177.7 151.6 177.1 151.5 177.7 C 152.2 179.1 155.1 178.4 154.7 180.1 C 155.2 179.5 159.0 178.9 157.0 178.6 C 155.8 177.7 161.2 177.7 159.4 176.0 C 161.0 176.2 161.0 174.2 162.7 174.6 C 163.6 174.2 162.7 173.2 162.4 173.1 C 161.6 172.2 164.9 174.3 164.6 171.9 C 165.1 172.2 167.8 169.4 165.1 170.7 C 165.8 170.3 169.4 167.6 166.2 167.6 C 163.3 169.0 166.9 163.8 164.2 166.2 C 162.1 167.9 162.0 168.6 162.7 166.4 C 163.2 166.0 165.3 163.7 162.7 164.8 C 162.5 165.5 161.4 166.2 161.3 165.5 C 161.3 165.5 161.3 165.5 161.3 165.5 Z M 163.9 167.4 C 162.8 168.6 163.2 166.9 163.9 167.4 C 163.9 167.4 163.9 167.4 163.9 167.4 Z M 162.9 175.1 C 161.7 176.2 162.2 174.5 162.9 175.1 C 162.9 175.1 162.9 175.1 162.9 175.1 Z M 157.4 168.2 C 157.2 169.2 155.6 167.6 157.4 168.2 C 157.4 168.2 157.4 168.2 157.4 168.2 Z M 163.7 171.9 C 163.7 172.0 163.8 171.5 163.9 171.2 C 163.9 171.3 163.8 171.8 163.7 171.9 C 163.7 171.9 163.7 171.9 163.7 171.9 Z M 155.4 169.8 C 154.4 172.1 154.0 168.7 155.4 169.8 C 155.4 169.8 155.4 169.8 155.4 169.8 Z M 153.1 174.3 C 154.2 176.3 150.9 175.3 153.1 174.3 C 153.1 174.3 153.1 174.3 153.1 174.3 Z M 158.7 176.4 C 158.8 175.7 159.2 176.3 158.7 176.4 C 158.7 176.4 158.7 176.4 158.7 176.4 Z M 167.0 169.7 C 166.9 169.0 167.5 169.6 167.0 169.7 C 167.0 169.7 167.0 169.7 167.0 169.7 Z M 156.2 178.0 C 155.9 177.2 157.2 177.8 156.2 178.0 C 156.2 178.0 156.2 178.0 156.2 178.0 Z M 157.6 169.2 C 158.1 166.5 161.3 169.6 157.6 169.2 C 157.6 169.2 157.6 169.2 157.6 169.2 Z M 160.3 166.6 C 161.1 165.4 160.9 167.6 160.2 167.8 C 160.2 167.7 160.2 166.8 160.3 166.6 C 160.3 166.6 160.3 166.6 160.3 166.6 Z M 156.1 170.7 C 156.6 169.1 157.4 170.3 156.1 170.7 C 156.1 170.7 156.1 170.7 156.1 170.7 Z M 158.2 167.7 C 158.9 167.4 157.9 168.2 158.2 167.7 C 158.2 167.7 158.2 167.7 158.2 167.7 Z M 152.7 170.9 C 153.4 170.7 152.4 171.5 152.7 170.9 C 152.7 170.9 152.7 170.9 152.7 170.9 Z M 161.0 164.7 C 161.6 164.4 160.7 165.3 161.0 164.7 C 161.0 164.7 161.0 164.7 161.0 164.7 Z M 153.9 171.5 C 154.2 172.3 156.9 172.6 153.1 173.5 C 152.3 173.4 152.8 171.6 153.9 171.5 C 153.9 171.5 153.9 171.5 153.9 171.5 Z M 178.7 145.2 C 171.9 151.9 176.5 152.2 176.9 153.1 C 177.2 154.8 178.6 154.2 180.3 153.1 C 183.9 152.9 179.5 149.0 182.7 149.1 C 187.3 148.8 181.3 145.0 185.3 145.9 C 186.0 146.8 187.1 143.0 186.7 143.2 C 189.2 142.3 187.3 138.4 187.0 138.3 C 187.9 137.3 191.4 138.5 190.3 133.9 C 190.4 130.8 194.1 130.7 191.6 130.7 C 194.9 129.5 191.3 129.0 192.8 127.2 C 194.6 126.2 190.6 126.6 194.1 124.7 C 192.2 122.9 195.5 126.2 195.3 118.6 C 194.4 122.1 194.1 114.9 195.4 116.6 C 196.6 119.3 195.4 113.1 196.7 109.9 C 196.0 108.9 194.2 104.8 196.4 105.6 C 199.2 102.3 194.9 102.1 197.1 100.6 C 198.0 99.5 196.1 99.0 196.2 98.2 C 197.8 97.0 196.8 95.9 196.9 91.6 C 196.9 82.1 192.7 90.6 191.6 87.2 C 190.8 86.8 186.1 92.3 189.9 89.9 C 188.8 90.7 193.5 97.4 188.9 94.2 C 190.8 96.8 187.2 93.6 189.3 99.1 C 192.4 91.6 190.6 107.5 189.1 100.4 C 188.2 101.5 188.3 104.5 189.1 102.4 C 191.9 101.6 187.5 107.5 191.1 104.6 C 189.9 109.2 193.0 108.3 190.7 109.3 C 186.9 110.1 191.8 109.2 190.4 111.5 C 189.7 116.9 186.1 112.0 188.2 115.7 C 185.5 120.6 189.7 117.2 189.7 119.1 C 192.1 120.1 186.6 124.0 187.2 120.0 C 188.0 122.4 185.9 120.0 186.9 122.8 C 189.6 121.7 183.6 125.1 185.6 125.0 C 185.6 127.2 187.3 126.6 187.1 127.2 C 186.2 130.4 184.2 128.7 185.7 129.9 C 186.3 130.9 182.9 131.3 183.4 132.0 C 184.8 128.9 184.7 135.5 183.4 135.3 C 184.1 133.3 180.2 135.0 181.3 137.0 C 186.7 137.6 178.9 139.0 179.8 141.2 C 183.0 141.3 176.5 147.9 177.0 144.3 C 177.1 144.6 178.7 145.2 178.7 145.2 M 183.5 133.0 C 184.7 130.5 182.9 136.0 183.5 133.0 M 182.7 132.8 C 184.1 132.1 181.1 135.0 182.5 132.6 C 182.5 132.6 182.6 133.0 182.7 132.8 M 186.1 122.1 C 186.8 122.6 185.3 123.4 186.1 122.1 M 188.4 120.4 C 189.5 118.7 188.0 122.8 188.4 120.4 M 190.0 95.3 C 194.4 97.6 187.7 98.1 190.0 95.3 M 188.5 111.7 C 188.6 114.8 186.8 110.5 188.5 111.7 M 189.4 112.8 C 189.9 114.3 188.4 113.0 189.4 112.8 M 190.1 100.1 C 190.2 99.8 190.2 99.8 190.1 100.1 C 190.1 100.1 190.1 100.1 190.1 100.1 Z M 190.0 92.6 C 189.9 92.6 189.9 92.6 190.0 92.6 C 190.0 92.6 190.0 92.6 190.0 92.6 Z M 190.3 107.3 C 189.1 109.5 190.2 103.5 190.3 107.3 C 190.3 107.3 190.3 107.3 190.3 107.3 Z M 196.7 95.9 C 196.7 96.0 196.7 96.0 196.7 95.9 C 196.7 95.9 196.7 95.9 196.7 95.9 Z M 184.5 135.8 C 184.5 135.9 184.5 135.9 184.5 135.8 C 184.5 135.8 184.5 135.8 184.5 135.8 Z M 179.2 143.0 C 179.8 143.1 178.1 144.1 179.2 143.0 C 179.2 143.0 179.2 143.0 179.2 143.0 Z M 179.7 151.7 C 179.7 151.8 179.7 151.8 179.7 151.7 C 179.7 151.7 179.7 151.7 179.7 151.7 Z M 185.3 139.4 C 185.3 139.6 185.3 139.6 185.3 139.4 C 185.3 139.4 185.3 139.4 185.3 139.4 Z M 183.0 137.0 C 180.2 137.3 184.9 134.2 183.0 137.0 C 183.0 137.0 183.0 137.0 183.0 137.0 Z M 195.9 110.8 C 194.9 110.6 196.5 108.8 195.9 110.8 C 195.9 110.8 195.9 110.8 195.9 110.8 Z M 189.4 120.2 C 188.9 119.8 189.9 119.1 189.4 120.2 C 189.4 120.2 189.4 120.2 189.4 120.2 Z M 185.1 124.0 C 184.7 123.5 185.7 122.9 185.1 124.0 C 185.1 124.0 185.1 124.0 185.1 124.0 Z M 178.7 142.5 C 178.7 142.3 178.7 142.3 178.7 142.5 C 178.7 142.5 178.7 142.5 178.7 142.5 Z M 181.7 140.6 C 178.8 141.5 184.3 138.1 181.7 140.6 C 181.7 140.6 181.7 140.6 181.7 140.6 Z M 180.6 144.2 C 181.9 143.6 178.9 146.5 180.6 144.2 M 184.6 143.8 C 185.0 140.9 186.9 147.9 184.6 143.8 C 184.6 143.8 184.6 143.8 184.6 143.8 Z M 190.9 131.2 C 191.1 131.1 191.1 131.1 190.9 131.2 C 190.9 131.2 190.9 131.2 190.9 131.2 Z M 184.4 130.5 C 185.2 128.3 184.4 132.0 184.4 130.5 C 184.4 130.5 184.4 130.5 184.4 130.5 Z M 175.1 148.1 C 176.5 146.2 174.8 149.6 175.1 148.1 C 175.1 148.1 175.1 148.1 175.1 148.1 Z M 191.2 122.9 C 191.8 119.1 191.7 125.5 191.2 122.9 C 191.2 122.9 191.2 122.9 191.2 122.9 Z M 191.0 108.7 C 191.1 108.6 191.1 108.6 191.0 108.7 C 191.0 108.7 191.0 108.7 191.0 108.7 Z M 190.3 106.1 C 190.4 106.0 190.4 106.0 190.3 106.1 C 190.3 106.1 190.3 106.1 190.3 106.1 Z M 192.7 95.4 C 192.8 95.2 192.8 95.2 192.7 95.4 C 192.7 95.4 192.7 95.4 192.7 95.4 Z M 189.4 103.7 C 189.4 103.6 189.4 103.6 189.4 103.7 C 189.4 103.7 189.4 103.7 189.4 103.7 Z M 190.0 96.5 C 190.0 96.3 190.0 96.3 190.0 96.5 C 190.0 96.5 190.0 96.5 190.0 96.5 Z M 188.1 97.5 C 188.2 97.4 188.2 97.4 188.1 97.5 C 188.1 97.5 188.1 97.5 188.1 97.5 Z M 196.6 114.8 C 196.7 114.6 196.7 114.6 196.6 114.8 C 196.6 114.8 196.6 114.8 196.6 114.8 Z M 179.9 138.6 C 180.2 138.5 180.2 138.5 179.9 138.6 C 179.9 138.6 179.9 138.6 179.9 138.6 Z M 190.8 97.0 C 190.9 96.9 190.9 96.9 190.8 97.0 C 190.8 97.0 190.8 97.0 190.8 97.0 Z M 191.4 115.2 C 193.3 115.4 188.7 116.3 191.4 114.7 C 191.4 114.8 191.1 115.3 191.4 115.2 M 194.8 113.2 C 194.9 113.3 194.9 113.3 194.8 113.2 C 194.8 113.2 194.8 113.2 194.8 113.2 Z M 194.4 121.9 C 194.5 122.0 194.5 122.0 194.4 121.9 C 194.4 121.9 194.4 121.9 194.4 121.9 Z M 188.9 105.0 C 187.9 105.2 189.9 103.0 189.0 105.3 M 196.0 95.1 C 194.9 95.5 196.7 93.0 196.0 95.5 M 174.3 150.7 C 174.8 151.4 173.0 151.7 174.3 150.7 M 194.9 124.0 C 195.6 124.6 194.1 125.5 194.9 124.0 M 193.5 119.6 C 192.4 119.7 194.7 117.6 193.5 119.9 M 196.0 101.0 C 196.0 100.9 196.0 100.9 196.0 101.0 C 196.0 101.0 196.0 101.0 196.0 101.0 Z M 185.7 127.2 C 185.7 127.2 185.7 127.2 185.7 127.2 C 185.7 127.2 185.7 127.2 185.7 127.2 Z M 190.3 118.1 C 188.7 119.2 191.6 116.5 190.3 118.1 M 187.1 130.8 C 184.8 132.1 188.8 128.0 187.1 130.8 M 196.1 90.6 C 194.1 93.2 197.1 88.8 196.1 90.6 M 191.1 102.1 C 188.9 104.3 192.3 100.5 191.1 102.1 M 187.1 125.6 C 186.0 125.4 188.4 123.6 187.1 125.6 M 177.0 146.1 C 175.7 147.8 177.7 143.3 177.0 146.1 M 195.8 106.7 C 195.9 106.6 195.9 106.6 195.8 106.7 C 195.8 106.7 195.8 106.7 195.8 106.7 Z M 187.7 143.7 C 187.8 143.6 187.8 143.6 187.7 143.7 C 187.7 143.7 187.7 143.7 187.7 143.7 Z M 188.7 88.5 C 188.8 88.4 188.8 88.4 188.7 88.5 C 188.7 88.5 188.7 88.5 188.7 88.5 Z M 192.0 103.5 C 192.2 103.4 192.2 103.4 192.0 103.5 C 192.0 103.5 192.0 103.5 192.0 103.5 Z M 188.9 92.7 C 189.0 92.6 189.0 92.6 188.9 92.7 C 188.9 92.7 188.9 92.7 188.9 92.7 Z M 193.2 110.6 C 193.2 110.6 193.2 110.6 193.2 110.6 C 193.2 110.6 193.2 110.6 193.2 110.6 Z M 187.6 111.3 C 187.6 111.3 187.6 111.3 187.6 111.3 C 187.6 111.3 187.6 111.3 187.6 111.3 Z M 188.6 119.1 C 188.7 119.0 188.7 119.0 188.6 119.1 C 188.6 119.1 188.6 119.1 188.6 119.1 Z M 188.4 108.1 C 188.4 103.7 190.0 110.5 188.4 108.1 C 188.4 108.1 188.4 108.1 188.4 108.1 Z M 192.7 116.6 C 192.8 116.5 192.8 116.5 192.7 116.6 C 192.7 116.6 192.7 116.6 192.7 116.6 Z M 188.8 116.5 C 187.8 113.4 191.7 115.5 188.8 116.5 M 184.4 128.2 C 183.9 127.1 185.8 128.2 184.4 128.2 M 189.5 135.5 C 189.6 135.6 189.6 135.6 189.5 135.5 C 189.5 135.5 189.5 135.5 189.5 135.5 Z M 189.5 134.0 C 189.6 133.9 189.6 133.9 189.5 134.0 C 189.5 134.0 189.5 134.0 189.5 134.0 Z M 183.1 130.9 C 183.2 130.9 183.2 130.9 183.1 130.9 C 183.1 130.9 183.1 130.9 183.1 130.9 Z M 191.5 134.5 C 191.6 134.4 191.6 134.4 191.5 134.5 C 191.5 134.5 191.5 134.5 191.5 134.5 Z M 187.5 113.0 C 187.5 113.0 187.5 113.0 187.5 113.0 C 187.5 113.0 187.5 113.0 187.5 113.0 Z M 187.9 90.7 C 187.9 90.6 187.9 90.6 187.9 90.7 C 187.9 90.7 187.9 90.7 187.9 90.7 Z M 182.3 148.5 C 182.4 148.4 182.4 148.4 182.3 148.5 C 182.3 148.5 182.3 148.5 182.3 148.5 Z M 189.9 111.0 C 190.0 110.9 190.0 110.9 189.9 111.0 C 189.9 111.0 189.9 111.0 189.9 111.0 Z M 187.8 138.6 C 187.9 138.6 187.9 138.6 187.8 138.6 C 187.8 138.6 187.8 138.6 187.8 138.6 Z M 189.3 112.4 C 189.3 112.3 189.3 112.3 189.3 112.4 C 189.3 112.4 189.3 112.4 189.3 112.4 Z M 196.3 107.5 C 196.3 107.5 196.3 107.5 196.3 107.5 C 196.3 107.5 196.3 107.5 196.3 107.5 Z M 197.8 102.3 C 197.8 102.2 197.8 102.2 197.8 102.3 C 197.8 102.3 197.8 102.3 197.8 102.3 Z M 192.4 107.6 C 192.4 107.5 192.4 107.5 192.4 107.6 C 192.4 107.6 192.4 107.6 192.4 107.6 Z M 185.0 139.2 C 179.3 147.1 187.3 132.0 185.0 139.2 M 193.0 106.0 C 192.1 112.5 191.2 100.7 193.0 106.0 C 192.4 105.3 192.9 106.0 193.0 106.0 M 187.5 86.5 C 189.9 88.7 191.8 88.5 193.7 87.1 C 194.6 85.6 190.6 86.3 194.0 85.7 C 195.1 88.7 198.8 83.5 194.5 84.3 C 193.2 80.3 197.2 83.1 194.9 81.0 C 193.7 76.7 195.4 78.7 194.3 75.4 C 191.4 74.0 194.9 73.1 192.4 72.9 C 195.3 73.8 190.7 69.6 191.7 69.1 C 194.2 71.6 187.6 57.9 189.8 65.8 C 187.5 63.1 189.7 62.9 189.5 61.8 C 187.6 61.0 188.2 56.1 185.9 54.9 C 185.8 55.4 186.2 56.4 185.9 56.9 C 185.3 57.9 185.0 54.7 185.1 55.0 C 184.0 54.1 180.0 49.9 185.1 53.9 C 186.3 53.6 182.3 50.0 183.3 49.6 C 180.6 45.1 180.6 49.8 180.9 46.9 C 178.9 43.8 177.2 41.6 177.0 41.8 C 175.9 39.9 176.6 38.6 174.3 37.9 C 173.4 32.7 168.5 38.8 171.0 34.1 C 169.2 33.9 170.8 30.7 168.6 33.0 C 170.8 33.2 164.6 25.7 166.0 30.2 C 164.7 30.0 162.9 23.1 161.5 26.1 C 158.3 26.6 157.3 28.7 159.0 33.2 C 159.9 31.5 161.1 37.7 160.8 33.2 C 158.8 29.8 166.5 37.2 164.2 36.4 C 161.1 38.6 169.5 38.6 168.9 42.0 C 168.9 39.7 174.8 45.9 171.1 45.7 C 171.8 47.1 173.1 46.6 172.8 48.9 C 170.1 44.7 176.3 48.8 174.7 49.5 C 173.3 49.4 176.5 56.1 177.5 54.6 C 179.6 50.4 177.8 56.7 179.7 57.1 C 182.4 60.2 176.5 58.0 180.4 59.4 C 180.3 60.3 182.6 65.1 180.4 62.4 C 180.3 61.1 185.6 63.7 182.8 65.5 C 178.9 60.9 184.1 71.9 184.5 69.8 C 183.2 60.9 189.3 78.0 185.5 72.0 C 185.0 76.3 184.5 71.1 186.6 75.5 C 187.4 74.6 189.4 78.0 187.1 77.7 C 184.3 79.2 191.6 78.1 188.0 81.8 C 186.3 82.6 190.3 87.3 188.0 85.6 C 187.7 85.5 187.5 86.3 187.5 86.5 M 187.6 84.7 C 188.4 85.2 186.9 85.9 187.6 84.7 M 188.4 85.3 C 188.4 85.4 188.4 85.4 188.4 85.3 C 188.4 85.3 188.4 85.3 188.4 85.3 Z M 186.9 76.2 C 186.8 76.2 186.8 76.2 186.9 76.2 C 186.9 76.2 186.9 76.2 186.9 76.2 Z M 192.1 66.4 C 192.0 66.5 192.0 66.5 192.1 66.4 C 192.1 66.4 192.1 66.4 192.1 66.4 Z M 185.2 70.1 C 185.2 70.2 185.2 70.2 185.2 70.1 C 185.2 70.1 185.2 70.1 185.2 70.1 Z M 188.2 79.3 C 188.2 79.3 188.2 79.3 188.2 79.3 C 188.2 79.3 188.2 79.3 188.2 79.3 Z M 184.3 71.1 C 185.3 70.2 184.2 73.4 184.1 71.0 C 184.2 70.9 184.3 71.3 184.3 71.1 M 180.9 63.7 C 181.0 63.6 181.0 63.6 180.9 63.7 M 179.5 42.7 C 179.6 42.6 179.6 42.6 179.5 42.7 M 171.0 47.0 C 171.0 46.7 171.0 46.7 171.0 47.0 M 178.4 55.9 C 177.0 53.8 178.6 55.1 178.4 55.9 M 167.3 41.3 C 168.8 44.2 164.5 39.1 167.3 41.3 M 164.6 39.4 C 164.5 39.1 164.5 39.1 164.6 39.4 M 174.0 50.5 C 174.1 50.5 174.1 50.5 174.0 50.5 C 174.0 50.5 174.0 50.5 174.0 50.5 Z M 178.5 57.1 C 179.5 60.3 175.9 54.7 178.5 57.1 M 185.5 75.4 C 184.5 73.9 187.0 75.0 185.5 75.4 M 187.1 78.8 C 187.2 78.8 187.2 78.8 187.1 78.8 C 187.1 78.8 187.1 78.8 187.1 78.8 Z M 170.5 45.4 C 170.6 45.4 170.6 45.4 170.5 45.4 C 170.5 45.4 170.5 45.4 170.5 45.4 Z M 168.0 42.6 C 168.1 42.7 168.1 42.7 168.0 42.6 C 168.0 42.6 168.0 42.6 168.0 42.6 Z M 170.1 31.9 C 170.2 32.0 170.2 32.0 170.1 31.9 C 170.1 31.9 170.1 31.9 170.1 31.9 Z M 189.9 75.2 C 190.0 77.7 186.5 73.5 188.6 73.4 C 189.4 72.9 189.6 74.9 189.9 75.2 M 181.9 58.0 C 184.3 56.1 179.5 62.0 181.9 58.0 M 165.7 37.7 C 166.5 33.4 166.2 41.8 165.7 37.7 M 161.6 34.4 C 161.0 32.9 168.8 40.9 162.6 36.1 C 161.6 36.0 161.7 35.1 161.6 34.4 M 182.2 63.0 C 183.4 61.7 183.1 66.9 182.2 63.0 M 178.9 47.0 C 177.3 46.5 174.6 44.3 176.9 44.5 C 178.8 43.2 180.5 47.8 178.9 47.0 M 189.1 83.7 C 186.2 82.3 191.3 83.4 189.1 83.7 M 187.2 74.4 C 187.1 74.4 187.1 74.4 187.2 74.4 C 187.2 74.4 187.2 74.4 187.2 74.4 Z M 185.7 71.0 C 185.8 70.7 185.8 70.7 185.7 71.0 M 186.6 82.7 C 186.8 82.5 186.8 82.5 186.6 82.7 M 176.7 48.6 C 176.7 48.3 176.7 48.3 176.7 48.6 M 179.3 56.2 C 179.8 51.7 180.7 57.7 179.3 56.2 M 187.9 62.4 C 188.5 60.9 188.9 64.6 187.9 62.4 M 175.3 51.5 C 176.0 47.9 179.3 53.3 175.3 51.5 M 180.0 58.0 C 179.9 57.8 179.9 57.8 180.0 58.0 C 180.0 58.0 180.0 58.0 180.0 58.0 Z M 178.5 46.0 C 178.6 46.0 178.6 46.0 178.5 46.0 C 178.5 46.0 178.5 46.0 178.5 46.0 Z M 177.7 45.0 C 177.9 45.1 177.9 45.1 177.7 45.0 C 177.7 45.0 177.7 45.0 177.7 45.0 Z M 173.3 48.9 C 173.4 49.0 173.4 49.0 173.3 48.9 C 173.3 48.9 173.3 48.9 173.3 48.9 Z M 193.7 77.4 C 193.3 74.7 194.6 79.4 193.7 77.4 C 193.7 77.4 193.7 77.4 193.7 77.4 Z M 183.4 68.3 C 183.7 63.6 186.1 70.4 183.4 68.3 C 183.4 68.3 183.4 68.3 183.4 68.3 Z M 184.5 62.5 C 184.6 62.5 184.6 62.5 184.5 62.5 C 184.5 62.5 184.5 62.5 184.5 62.5 Z M 174.9 53.7 C 175.1 53.6 175.1 53.6 174.9 53.7 C 174.9 53.7 174.9 53.7 174.9 53.7 Z M 193.7 76.0 C 193.9 76.0 193.9 76.0 193.7 76.0 C 193.7 76.0 193.7 76.0 193.7 76.0 Z M 169.7 42.1 C 169.8 42.0 169.8 42.0 169.7 42.1 C 169.7 42.1 169.7 42.1 169.7 42.1 Z M 182.9 52.2 C 181.6 51.8 183.5 51.6 182.9 52.2 C 182.9 52.2 182.9 52.2 182.9 52.2 Z M 180.8 48.6 C 180.7 48.5 180.7 48.5 180.8 48.6 C 180.8 48.6 180.8 48.6 180.8 48.6 Z M 163.8 38.8 C 163.7 38.7 163.7 38.7 163.8 38.8 C 163.8 38.8 163.8 38.8 163.8 38.8 Z M 176.3 38.4 C 176.2 38.3 176.2 38.3 176.3 38.4 C 176.3 38.4 176.3 38.4 176.3 38.4 Z M 171.7 37.4 C 171.8 37.4 171.8 37.4 171.7 37.4 C 171.7 37.4 171.7 37.4 171.7 37.4 Z M 174.2 49.2 C 171.6 46.2 175.6 49.3 174.2 49.2 C 174.2 49.2 174.2 49.2 174.2 49.2 Z M 163.7 30.4 C 163.7 30.2 163.7 30.2 163.7 30.4 C 163.7 30.4 163.7 30.4 163.7 30.4 Z M 159.9 31.4 C 159.9 31.2 159.9 31.2 159.9 31.4 C 159.9 31.4 159.9 31.4 159.9 31.4 Z M 157.9 32.1 C 157.9 31.9 157.9 31.9 157.9 32.1 C 157.9 32.1 157.9 32.1 157.9 32.1 Z M 189.1 69.9 C 189.0 70.0 189.0 70.0 189.1 69.9 C 189.1 69.9 189.1 69.9 189.1 69.9 Z M 184.4 73.1 C 184.4 73.1 184.4 73.1 184.4 73.1 C 184.4 73.1 184.4 73.1 184.4 73.1 Z M 182.4 68.3 C 182.4 68.3 182.4 68.3 182.4 68.3 C 182.4 68.3 182.4 68.3 182.4 68.3 Z M 192.6 69.8 C 192.5 69.9 192.5 69.9 192.6 69.8 C 192.6 69.8 192.6 69.8 192.6 69.8 Z M 179.8 52.7 C 179.7 52.8 179.7 52.8 179.8 52.7 C 179.8 52.7 179.8 52.7 179.8 52.7 Z M 180.7 49.9 C 180.6 50.0 180.6 50.0 180.7 49.9 C 180.7 49.9 180.7 49.9 180.7 49.9 Z M 185.7 52.7 C 185.7 52.7 185.7 52.7 185.7 52.7 C 185.7 52.7 185.7 52.7 185.7 52.7 Z M 181.4 47.6 C 181.4 47.6 181.4 47.6 181.4 47.6 C 181.4 47.6 181.4 47.6 181.4 47.6 Z M 194.9 83.7 C 195.0 83.7 195.0 83.7 194.9 83.7 C 194.9 83.7 194.9 83.7 194.9 83.7 Z M 190.9 84.8 C 191.0 84.9 191.0 84.9 190.9 84.8 C 190.9 84.8 190.9 84.8 190.9 84.8 Z M 176.9 53.8 C 175.6 53.4 176.9 51.6 176.9 53.8 M 181.0 60.2 C 181.0 60.2 181.0 60.2 181.0 60.2 C 181.0 60.2 181.0 60.2 181.0 60.2 Z M 169.5 43.1 C 170.2 41.3 171.2 46.5 169.5 43.1 C 169.5 43.1 169.5 43.1 169.5 43.1 Z M 177.7 42.1 C 177.7 42.1 177.7 42.1 177.7 42.1 C 177.7 42.1 177.7 42.1 177.7 42.1 Z M 175.8 40.8 C 175.8 40.6 175.8 40.6 175.8 40.8 C 175.8 40.8 175.8 40.8 175.8 40.8 Z M 164.6 35.0 C 164.5 34.7 164.5 34.7 164.6 35.0 M 180.0 61.7 C 180.2 60.3 180.2 60.6 180.0 61.7 M 167.9 41.0 C 168.0 41.1 168.0 41.1 167.9 41.0 C 167.9 41.0 167.9 41.0 167.9 41.0 Z M 162.1 33.8 C 162.2 33.9 162.2 33.9 162.1 33.8 C 162.1 33.8 162.1 33.8 162.1 33.8 Z M 183.2 66.1 C 185.0 65.1 184.9 66.2 183.2 66.1 M 188.2 80.0 C 188.4 80.0 188.4 80.0 188.2 80.0 C 188.2 80.0 188.2 80.0 188.2 80.0 Z M 151.6 27.1 C 153.7 31.3 155.5 28.9 155.5 28.8 C 152.6 31.9 159.6 29.9 159.4 28.7 C 159.9 28.4 161.7 20.3 156.6 22.1 C 155.6 22.0 155.9 20.7 155.5 20.2 C 150.8 17.2 157.3 24.1 151.8 20.5 C 151.1 19.4 154.1 17.0 149.6 17.1 C 149.6 16.7 146.4 13.4 147.0 15.6 C 146.0 13.2 143.8 14.3 141.9 13.8 C 140.8 12.1 144.4 11.9 137.8 11.2 C 136.5 7.5 133.7 11.9 132.5 8.0 C 131.1 7.4 127.1 11.6 131.5 10.0 C 130.9 10.1 132.2 13.1 127.9 10.9 C 128.8 10.4 133.0 5.8 124.8 6.3 C 123.6 5.9 120.5 6.6 119.9 5.8 C 123.9 6.1 115.0 2.5 115.7 4.3 C 109.8 2.2 113.0 5.1 108.7 2.9 C 105.1 2.5 109.7 5.3 105.3 3.7 C 101.9 3.8 104.3 2.6 104.6 2.7 C 101.7 2.2 100.6 3.3 99.5 3.2 C 98.9 2.9 97.5 1.8 96.8 3.2 C 93.8 5.7 96.7 8.1 95.5 10.6 C 97.7 11.6 96.4 8.7 97.9 10.5 C 98.9 8.9 98.0 10.4 103.8 10.3 C 103.7 9.9 102.3 8.8 103.7 8.7 C 106.0 9.0 104.1 13.0 108.1 10.4 C 103.8 9.1 114.4 9.8 110.4 8.5 C 115.6 8.6 111.8 8.9 115.4 10.5 C 115.6 7.7 115.1 13.5 116.9 11.5 C 117.0 12.7 122.8 13.5 119.1 10.9 C 125.2 11.5 121.1 12.2 122.8 14.2 C 125.4 15.1 124.2 9.9 124.9 13.6 C 128.0 16.1 125.6 12.0 127.3 15.4 C 126.9 12.8 129.8 16.3 129.7 13.5 C 135.8 15.4 128.0 15.7 132.8 15.6 C 131.6 15.1 130.8 18.4 134.1 17.4 C 134.6 13.2 135.9 22.1 136.3 16.3 C 145.0 18.5 136.8 18.9 141.0 21.1 C 142.1 21.7 140.6 18.9 141.6 19.4 C 146.9 23.0 141.5 21.7 145.7 21.1 C 151.5 23.7 146.1 23.9 148.5 25.7 C 149.4 24.8 152.8 24.5 151.6 27.1 M 147.7 22.9 C 146.1 23.0 147.4 21.8 147.7 22.9 M 157.2 31.4 C 155.6 31.2 157.1 30.2 157.2 31.4 M 142.8 21.0 C 140.9 21.0 143.0 19.5 142.8 21.0 M 112.0 9.6 C 114.3 9.9 110.9 10.2 112.0 9.6 M 153.1 28.4 C 151.0 28.1 153.6 26.9 153.1 28.4 M 156.2 28.1 C 156.2 28.0 156.2 28.0 156.2 28.1 M 108.6 11.4 C 108.5 11.4 108.5 11.4 108.6 11.4 M 117.1 12.7 C 115.3 12.3 118.2 12.4 117.1 12.7 M 119.2 4.0 C 117.2 3.5 120.4 3.7 119.2 4.0 M 103.9 11.2 C 102.0 11.8 103.4 10.2 103.9 11.2 M 99.1 9.2 C 97.4 10.0 98.0 8.3 99.1 9.2 M 150.3 20.9 C 150.4 20.8 150.4 20.8 150.3 20.9 C 150.3 20.9 150.3 20.9 150.3 20.9 Z M 136.1 11.0 C 137.6 12.6 134.1 9.1 136.1 11.0 M 136.6 17.6 C 136.1 15.4 138.8 18.8 136.6 17.6 C 136.6 17.6 136.6 17.6 136.6 17.6 Z M 139.5 18.1 C 139.6 18.0 139.6 18.0 139.5 18.1 C 139.5 18.1 139.5 18.1 139.5 18.1 Z M 131.1 14.4 C 131.2 14.4 131.2 14.4 131.1 14.4 C 131.1 14.4 131.1 14.4 131.1 14.4 Z M 132.9 14.9 C 133.7 14.8 133.8 15.7 132.9 14.9 C 132.9 14.9 132.9 14.9 132.9 14.9 Z M 121.4 5.4 C 122.3 5.2 122.4 6.0 121.4 5.4 C 121.4 5.4 121.4 5.4 121.4 5.4 Z M 135.8 15.5 C 136.8 13.9 136.6 17.1 135.8 15.5 C 135.8 15.5 135.8 15.5 135.8 15.5 Z M 127.7 7.9 C 126.7 8.1 126.5 5.7 127.7 7.9 M 106.8 10.9 C 106.0 11.4 105.3 9.1 106.8 10.9 M 125.3 14.9 C 124.4 15.1 124.2 12.8 125.3 14.9 M 146.3 23.1 C 146.3 22.8 146.3 22.8 146.3 23.1 M 140.0 10.8 C 138.5 10.9 139.7 9.8 140.0 10.8 M 157.0 21.4 C 155.4 21.1 156.9 20.3 157.0 21.4 M 110.4 2.8 C 110.4 3.3 108.3 2.4 110.4 2.8 M 123.9 11.5 C 122.3 10.8 120.8 9.4 124.3 10.5 C 124.4 10.9 123.3 10.9 123.9 11.5 C 123.9 11.5 123.9 11.5 123.9 11.5 Z M 118.7 6.0 C 118.5 5.8 118.5 5.8 118.7 6.0 M 120.6 12.4 C 120.4 12.1 120.4 12.1 120.6 12.4 M 111.0 10.5 C 110.8 10.2 110.8 10.2 111.0 10.5 M 109.7 10.8 C 109.7 10.8 109.7 10.8 109.7 10.8 C 109.7 10.8 109.7 10.8 109.7 10.8 Z M 99.1 11.1 C 99.1 11.0 99.1 11.0 99.1 11.1 C 99.1 11.1 99.1 11.1 99.1 11.1 Z M 114.1 10.7 C 114.1 10.6 114.1 10.6 114.1 10.7 C 114.1 10.7 114.1 10.7 114.1 10.7 Z M 105.7 2.8 C 105.7 2.7 105.7 2.7 105.7 2.8 C 105.7 2.8 105.7 2.8 105.7 2.8 Z M 106.8 4.0 C 106.8 3.9 106.8 3.9 106.8 4.0 C 106.8 4.0 106.8 4.0 106.8 4.0 Z M 150.9 26.6 C 148.9 26.8 152.0 23.5 150.9 26.6 M 101.7 3.7 C 100.3 2.4 104.4 3.5 101.7 3.7 C 101.7 3.7 101.7 3.7 101.7 3.7 Z M 115.5 9.4 C 115.4 9.1 115.4 9.1 115.5 9.4 M 109.1 10.6 C 109.0 10.4 109.0 10.4 109.1 10.6 M 136.0 19.2 C 136.0 18.9 136.0 18.9 136.0 19.2 M 101.6 9.8 C 97.1 9.3 103.7 7.2 101.6 9.8 M 138.6 18.5 C 138.7 18.7 138.7 18.7 138.6 18.5 M 130.1 11.4 C 127.0 10.5 131.5 10.8 130.1 11.4 M 121.7 11.3 C 121.8 11.3 121.8 11.3 121.7 11.3 C 121.7 11.3 121.7 11.3 121.7 11.3 Z M 126.2 12.5 C 128.4 12.9 126.6 13.2 126.2 12.5 C 126.2 12.5 126.2 12.5 126.2 12.5 Z M 149.9 24.0 C 147.6 22.1 152.9 25.2 149.9 24.0 C 149.9 24.0 149.9 24.0 149.9 24.0 Z M 103.9 5.6 C 104.0 5.5 104.0 5.5 103.9 5.6 C 103.9 5.6 103.9 5.6 103.9 5.6 Z M 114.4 12.0 C 115.8 11.8 115.0 12.6 114.4 12.0 C 114.4 12.0 114.4 12.0 114.4 12.0 Z M 97.5 11.1 C 98.8 10.6 98.1 11.6 97.5 11.1 C 97.5 11.1 97.5 11.1 97.5 11.1 Z M 152.8 26.3 C 145.5 17.3 164.3 35.6 152.8 26.3 C 152.8 26.3 152.8 26.3 152.8 26.3 Z M 124.1 13.2 C 124.2 13.1 124.2 13.1 124.1 13.2 C 124.1 13.2 124.1 13.2 124.1 13.2 Z M 141.8 21.7 C 141.9 21.6 141.9 21.6 141.8 21.7 C 141.8 21.7 141.8 21.7 141.8 21.7 Z M 145.6 21.9 C 145.7 21.8 145.7 21.8 145.6 21.9 C 145.6 21.9 145.6 21.9 145.6 21.9 Z M 148.3 15.2 C 148.4 15.2 148.4 15.2 148.3 15.2 C 148.3 15.2 148.3 15.2 148.3 15.2 Z M 145.6 17.5 C 145.8 17.3 145.8 17.3 145.6 17.5 C 145.6 17.5 145.6 17.5 145.6 17.5 Z M 152.5 20.3 C 152.7 20.2 152.7 20.2 152.5 20.3 C 152.5 20.3 152.5 20.3 152.5 20.3 Z M 152.9 19.4 C 153.0 19.3 153.0 19.3 152.9 19.4 C 152.9 19.4 152.9 19.4 152.9 19.4 Z M 109.3 8.6 C 109.4 8.5 109.4 8.5 109.3 8.6 C 109.3 8.6 109.3 8.6 109.3 8.6 Z M 113.4 6.1 C 110.7 6.8 114.4 4.7 113.4 6.1 C 113.4 6.1 113.4 6.1 113.4 6.1 Z M 135.1 13.5 C 132.8 13.0 136.9 13.2 135.1 13.5 C 135.1 13.5 135.1 13.5 135.1 13.5 Z M 134.1 9.0 C 134.0 8.9 134.0 8.9 134.1 9.0 C 134.1 9.0 134.1 9.0 134.1 9.0 Z M 144.7 23.3 C 144.8 23.2 144.8 23.2 144.7 23.3 C 144.7 23.3 144.7 23.3 144.7 23.3 Z M 148.9 24.6 C 149.9 23.4 149.6 25.9 148.9 24.6 M 129.6 16.0 C 129.6 15.8 129.6 15.8 129.6 16.0 C 129.6 16.0 129.6 16.0 129.6 16.0 Z M 117.3 10.2 C 117.4 10.1 117.4 10.1 117.3 10.2 C 117.3 10.2 117.3 10.2 117.3 10.2 Z M 104.0 9.6 C 104.1 9.4 104.1 9.4 104.0 9.6 C 104.0 9.6 104.0 9.6 104.0 9.6 Z M 121.8 13.4 C 121.9 13.2 121.9 13.2 121.8 13.4 C 121.8 13.4 121.8 13.4 121.8 13.4 Z M 128.2 13.8 C 128.3 13.7 128.3 13.7 128.2 13.8 C 128.2 13.8 128.2 13.8 128.2 13.8 Z M 101.2 7.4 C 101.3 7.3 101.3 7.3 101.2 7.4 C 101.2 7.4 101.2 7.4 101.2 7.4 Z M 120.3 13.3 C 120.4 13.2 120.4 13.2 120.3 13.3 C 120.3 13.3 120.3 13.3 120.3 13.3 Z M 117.5 7.8 C 117.6 7.7 117.6 7.7 117.5 7.8 C 117.5 7.8 117.5 7.8 117.5 7.8 Z M 147.3 26.0 C 147.4 26.0 147.4 26.0 147.3 26.0 C 147.3 26.0 147.3 26.0 147.3 26.0 Z M 101.0 9.4 C 101.1 9.3 101.1 9.3 101.0 9.4 C 101.0 9.4 101.0 9.4 101.0 9.4 Z M 100.2 10.7 C 100.3 10.6 100.3 10.6 100.2 10.7 C 100.2 10.7 100.2 10.7 100.2 10.7 Z M 110.1 4.1 C 115.0 5.5 105.8 4.0 109.1 6.0 C 102.1 5.7 109.1 4.0 110.1 4.1 C 110.1 4.1 110.1 4.1 110.1 4.1 Z M 94.1 11.4 C 96.5 9.3 96.5 7.3 95.2 5.3 C 93.8 4.3 94.1 8.4 93.8 5.0 C 96.9 4.1 92.1 -0.1 92.5 4.3 C 88.4 5.3 91.6 1.6 89.3 3.6 C 84.9 4.5 87.0 2.9 83.6 3.7 C 82.0 6.5 81.4 2.9 81.0 5.4 C 82.2 2.6 77.6 6.8 77.2 5.7 C 79.9 3.5 65.7 8.9 73.8 7.3 C 70.9 9.4 70.9 7.2 69.7 7.3 C 68.8 9.1 64.0 8.1 62.7 10.2 C 63.2 10.4 64.2 10.1 64.6 10.4 C 65.5 11.1 62.4 11.1 62.7 11.0 C 61.6 12.1 57.2 15.6 61.5 10.9 C 61.3 9.7 57.5 13.4 57.1 12.4 C 52.5 14.6 57.1 15.0 54.3 14.5 C 51.0 16.2 48.8 17.6 49.0 17.8 C 46.9 18.8 45.8 17.9 44.9 20.2 C 39.6 20.6 45.3 26.0 40.8 23.0 C 40.5 24.8 37.4 22.9 39.6 25.3 C 39.9 23.2 32.0 28.5 36.6 27.6 C 36.3 28.9 29.2 30.0 32.1 31.7 C 32.2 34.9 34.2 36.1 38.9 34.8 C 37.3 33.8 43.6 33.2 39.0 33.0 C 35.6 34.7 43.5 27.7 42.5 30.0 C 44.5 33.3 45.2 25.0 48.5 25.9 C 46.2 25.7 52.8 20.5 52.3 24.1 C 53.7 23.5 53.3 22.2 55.6 22.7 C 51.2 25.0 55.8 19.2 56.4 20.9 C 56.1 22.2 63.0 19.7 61.6 18.6 C 57.7 16.1 63.7 18.5 64.2 16.6 C 67.6 14.3 64.9 19.9 66.6 16.1 C 67.5 16.3 72.5 14.5 69.6 16.4 C 68.3 16.4 71.3 11.3 72.8 14.3 C 68.0 17.8 79.3 13.5 77.2 13.0 C 68.4 13.5 85.8 8.9 79.5 12.2 C 83.7 13.1 78.5 13.1 83.1 11.4 C 82.3 10.5 85.8 8.8 85.3 11.1 C 86.5 14.1 86.1 6.6 89.5 10.6 C 90.1 12.4 95.2 8.7 93.2 10.9 C 93.1 11.2 93.9 11.5 94.1 11.4 M 92.4 11.2 C 92.9 10.5 93.5 12.0 92.4 11.2 M 93.0 10.5 C 93.1 10.5 93.1 10.5 93.0 10.5 C 93.0 10.5 93.0 10.5 93.0 10.5 Z M 83.8 11.2 C 83.8 11.2 83.8 11.2 83.8 11.2 C 83.8 11.2 83.8 11.2 83.8 11.2 Z M 74.5 5.1 C 74.6 5.2 74.6 5.2 74.5 5.1 C 74.5 5.1 74.5 5.1 74.5 5.1 Z M 77.6 12.3 C 77.7 12.3 77.7 12.3 77.6 12.3 C 77.6 12.3 77.6 12.3 77.6 12.3 Z M 87.0 10.1 C 87.0 10.1 87.0 10.1 87.0 10.1 C 87.0 10.1 87.0 10.1 87.0 10.1 Z M 78.5 13.3 C 77.7 12.2 80.8 13.6 78.4 13.5 C 78.3 13.4 78.7 13.3 78.5 13.3 M 70.9 16.0 C 70.8 15.9 70.8 15.9 70.9 16.0 M 50.0 15.5 C 49.9 15.4 49.9 15.4 50.0 15.5 M 53.5 24.3 C 53.3 24.3 53.3 24.3 53.5 24.3 M 63.0 17.8 C 60.8 19.0 62.2 17.5 63.0 17.8 M 47.6 27.4 C 50.7 26.2 45.2 30.0 47.6 27.4 M 45.6 29.9 C 45.3 29.9 45.3 29.9 45.6 29.9 M 57.3 21.6 C 57.3 21.5 57.3 21.5 57.3 21.6 C 57.3 21.6 57.3 21.6 57.3 21.6 Z M 64.1 17.9 C 67.4 17.1 61.6 20.2 64.1 17.9 M 82.9 12.5 C 81.3 13.4 82.6 11.0 82.9 12.5 M 86.4 11.2 C 86.4 11.1 86.4 11.1 86.4 11.2 C 86.4 11.2 86.4 11.2 86.4 11.2 Z M 51.9 24.6 C 52.0 24.5 52.0 24.5 51.9 24.6 C 51.9 24.6 51.9 24.6 51.9 24.6 Z M 49.0 26.8 C 49.0 26.7 49.0 26.7 49.0 26.8 C 49.0 26.8 49.0 26.8 49.0 26.8 Z M 38.6 23.7 C 38.7 23.6 38.7 23.6 38.6 23.7 C 38.6 23.7 38.6 23.7 38.6 23.7 Z M 83.1 8.1 C 85.6 8.2 81.1 11.4 81.2 9.2 C 80.7 8.4 82.8 8.3 83.1 8.1 M 65.3 14.5 C 63.6 12.0 69.1 17.3 65.3 14.5 M 44.0 28.6 C 39.8 27.4 48.0 28.6 44.0 28.6 M 40.4 32.4 C 38.8 32.9 47.4 25.9 42.1 31.6 C 41.9 32.5 41.1 32.3 40.4 32.4 M 70.4 14.7 C 69.1 13.4 74.2 14.1 70.4 14.7 M 54.2 16.5 C 53.6 18.0 51.2 20.5 51.6 18.2 C 50.4 16.2 55.1 15.0 54.2 16.5 M 91.5 9.6 C 89.8 12.4 91.4 7.4 91.5 9.6 M 82.1 10.7 C 82.1 10.9 82.1 10.9 82.1 10.7 C 82.1 10.7 82.1 10.7 82.1 10.7 Z M 78.5 11.9 C 78.3 11.8 78.3 11.8 78.5 11.9 M 90.2 12.0 C 90.0 11.9 90.0 11.9 90.2 12.0 M 55.6 18.8 C 55.3 18.7 55.3 18.7 55.6 18.8 M 63.4 16.9 C 59.0 16.0 65.0 15.6 63.4 16.9 M 70.2 9.0 C 68.7 8.2 72.5 8.1 70.2 9.0 M 58.3 20.4 C 54.9 19.5 60.4 16.7 58.3 20.4 M 65.2 16.4 C 65.0 16.5 65.0 16.5 65.2 16.4 C 65.2 16.4 65.2 16.4 65.2 16.4 Z M 53.2 16.7 C 53.2 16.7 53.2 16.7 53.2 16.7 C 53.2 16.7 53.2 16.7 53.2 16.7 Z M 52.2 17.4 C 52.3 17.3 52.3 17.3 52.2 17.4 C 52.2 17.4 52.2 17.4 52.2 17.4 Z M 55.7 22.2 C 55.7 22.1 55.7 22.1 55.7 22.2 C 55.7 22.2 55.7 22.2 55.7 22.2 Z M 85.6 4.5 C 82.9 4.7 87.7 3.8 85.6 4.5 C 85.6 4.5 85.6 4.5 85.6 4.5 Z M 75.7 14.0 C 71.1 13.3 78.0 11.4 75.7 14.0 C 75.7 14.0 75.7 14.0 75.7 14.0 Z M 70.0 12.4 C 70.0 12.2 70.0 12.2 70.0 12.4 C 70.0 12.4 70.0 12.4 70.0 12.4 Z M 60.5 21.0 C 60.4 20.9 60.4 20.9 60.5 21.0 C 60.5 21.0 60.5 21.0 60.5 21.0 Z M 84.2 4.4 C 84.2 4.2 84.2 4.2 84.2 4.4 C 84.2 4.4 84.2 4.4 84.2 4.4 Z M 48.6 25.1 C 48.5 25.0 48.5 25.0 48.6 25.1 C 48.6 25.1 48.6 25.1 48.6 25.1 Z M 59.7 13.0 C 59.2 14.2 59.2 12.4 59.7 13.0 C 59.7 13.0 59.7 13.0 59.7 13.0 Z M 56.0 14.8 C 55.9 14.8 55.9 14.8 56.0 14.8 C 56.0 14.8 56.0 14.8 56.0 14.8 Z M 44.9 30.6 C 44.8 30.7 44.8 30.7 44.9 30.6 C 44.9 30.6 44.9 30.6 44.9 30.6 Z M 45.5 18.3 C 45.4 18.3 45.4 18.3 45.5 18.3 C 45.5 18.3 45.5 18.3 45.5 18.3 Z M 44.2 22.7 C 44.2 22.6 44.2 22.6 44.2 22.7 C 44.2 22.7 44.2 22.7 44.2 22.7 Z M 56.0 21.3 C 52.8 23.7 56.2 19.9 56.0 21.3 C 56.0 21.3 56.0 21.3 56.0 21.3 Z M 36.5 29.9 C 36.3 29.9 36.3 29.9 36.5 29.9 C 36.5 29.9 36.5 29.9 36.5 29.9 Z M 37.2 33.8 C 37.0 33.8 37.0 33.8 37.2 33.8 C 37.2 33.8 37.2 33.8 37.2 33.8 Z M 37.7 35.8 C 37.5 35.8 37.5 35.8 37.7 35.8 C 37.7 35.8 37.7 35.8 37.7 35.8 Z M 77.7 8.4 C 77.9 8.5 77.9 8.5 77.7 8.4 C 77.7 8.4 77.7 8.4 77.7 8.4 Z M 80.5 13.4 C 80.5 13.4 80.5 13.4 80.5 13.4 C 80.5 13.4 80.5 13.4 80.5 13.4 Z M 75.6 14.9 C 75.6 14.9 75.6 14.9 75.6 14.9 C 75.6 14.9 75.6 14.9 75.6 14.9 Z M 78.0 5.0 C 78.0 5.0 78.0 5.0 78.0 5.0 C 78.0 5.0 78.0 5.0 78.0 5.0 Z M 59.9 16.1 C 60.1 16.2 60.1 16.2 59.9 16.1 C 59.9 16.1 59.9 16.1 59.9 16.1 Z M 57.2 15.0 C 57.4 15.0 57.4 15.0 57.2 15.0 C 57.2 15.0 57.2 15.0 57.2 15.0 Z M 60.4 10.2 C 60.5 10.3 60.5 10.3 60.4 10.2 C 60.4 10.2 60.4 10.2 60.4 10.2 Z M 55.0 14.0 C 55.0 14.0 55.0 14.0 55.0 14.0 C 55.0 14.0 55.0 14.0 55.0 14.0 Z M 92.0 3.8 C 92.0 3.8 92.0 3.8 92.0 3.8 C 92.0 3.8 92.0 3.8 92.0 3.8 Z M 92.7 8.0 C 92.8 7.8 92.8 7.8 92.7 8.0 C 92.7 8.0 92.7 8.0 92.7 8.0 Z M 60.7 19.1 C 60.3 20.3 58.6 18.8 60.7 19.1 M 67.4 15.7 C 67.4 15.6 67.4 15.6 67.4 15.7 C 67.4 15.7 67.4 15.7 67.4 15.7 Z M 49.6 25.4 C 47.8 24.5 53.1 24.1 49.6 25.4 C 49.6 25.4 49.6 25.4 49.6 25.4 Z M 49.3 17.2 C 49.3 17.2 49.3 17.2 49.3 17.2 C 49.3 17.2 49.3 17.2 49.3 17.2 Z M 47.9 18.9 C 47.7 18.9 47.7 18.9 47.9 18.9 C 47.9 18.9 47.9 18.9 47.9 18.9 Z M 41.2 29.5 C 40.9 29.5 40.9 29.5 41.2 29.5 M 68.8 16.7 C 67.5 16.4 67.8 16.5 68.8 16.7 M 47.4 26.8 C 47.5 26.7 47.5 26.7 47.4 26.8 C 47.4 26.8 47.4 26.8 47.4 26.8 Z M 39.8 31.9 C 39.9 31.7 39.9 31.7 39.8 31.9 C 39.8 31.9 39.8 31.9 39.8 31.9 Z M 73.4 14.0 C 72.6 12.1 73.8 12.2 73.4 14.0 M 87.7 10.2 C 87.7 10.0 87.7 10.0 87.7 10.2 C 87.7 10.2 87.7 10.2 87.7 10.2 Z M 32.1 41.8 C 36.5 40.1 34.3 38.0 34.2 37.9 C 36.9 41.2 35.7 34.0 34.5 34.0 C 34.2 33.5 26.3 31.0 27.5 36.3 C 27.4 37.4 26.0 36.9 25.6 37.3 C 22.1 41.7 29.6 35.8 25.5 41.0 C 24.3 41.6 22.2 38.4 21.9 43.0 C 21.5 42.9 17.8 45.9 20.1 45.4 C 17.6 46.2 18.5 48.5 17.8 50.3 C 16.0 51.4 16.1 47.8 14.8 54.3 C 11.0 55.3 15.1 58.4 11.2 59.3 C 10.4 60.7 14.3 65.1 13.0 60.5 C 13.1 61.1 16.3 60.1 13.6 64.1 C 13.2 63.3 9.0 58.7 8.8 66.9 C 8.2 68.0 8.6 71.3 7.9 71.8 C 8.5 67.8 4.1 76.4 5.9 75.9 C 3.3 81.6 6.5 78.6 4.0 82.7 C 3.3 86.3 6.5 81.9 4.4 86.2 C 4.2 89.6 3.2 87.1 3.4 86.8 C 2.7 89.7 3.6 90.9 3.5 91.9 C 3.1 92.5 1.9 93.8 3.2 94.6 C 5.5 97.8 8.1 95.1 10.5 96.5 C 11.7 94.4 8.6 95.5 10.6 94.1 C 9.1 93.0 10.5 94.0 10.9 88.2 C 10.5 88.3 9.3 89.6 9.3 88.1 C 9.8 85.9 13.6 88.2 11.4 84.0 C 9.7 88.2 11.3 77.6 9.6 81.5 C 10.2 76.3 10.2 80.1 12.1 76.7 C 9.4 76.2 15.0 77.2 13.3 75.3 C 14.5 75.3 15.7 69.5 12.8 73.0 C 14.0 67.0 14.3 71.1 16.4 69.6 C 17.6 67.0 12.3 67.8 16.1 67.4 C 18.9 64.6 14.6 66.6 18.0 65.2 C 15.4 65.3 19.2 62.7 16.4 62.6 C 18.8 56.7 18.4 64.5 18.8 59.7 C 18.1 60.9 21.4 62.0 20.7 58.5 C 16.5 57.6 25.6 57.1 19.8 56.2 C 22.8 47.7 22.4 56.0 25.0 51.9 C 25.7 50.9 22.8 52.1 23.4 51.2 C 27.5 46.2 25.7 51.5 25.5 47.2 C 28.6 41.6 28.3 47.0 30.4 44.7 C 29.5 43.8 29.5 40.4 32.1 41.8 M 27.5 45.4 C 27.4 46.9 26.3 45.5 27.5 45.4 M 36.9 36.6 C 36.5 38.1 35.7 36.5 36.9 36.6 M 25.1 50.1 C 24.9 52.0 23.6 49.7 25.1 50.1 M 10.9 79.9 C 11.4 77.7 11.4 81.1 10.9 79.9 M 33.5 40.4 C 33.0 42.4 32.1 39.8 33.5 40.4 M 33.6 37.2 C 33.4 37.3 33.4 37.3 33.6 37.2 M 12.4 83.5 C 12.4 83.6 12.4 83.6 12.4 83.5 M 14.5 75.1 C 13.9 76.9 14.2 74.0 14.5 75.1 M 6.0 72.3 C 5.3 74.3 5.8 71.0 6.0 72.3 M 11.8 88.2 C 12.3 90.1 10.8 88.6 11.8 88.2 M 9.4 92.8 C 10.0 94.5 8.4 93.8 9.4 92.8 M 25.7 42.6 C 25.7 42.5 25.7 42.5 25.7 42.6 C 25.7 42.6 25.7 42.6 25.7 42.6 Z M 14.5 56.0 C 16.3 54.6 12.4 57.8 14.5 56.0 M 21.2 56.1 C 18.9 56.3 22.5 53.9 21.2 56.1 C 21.2 56.1 21.2 56.1 21.2 56.1 Z M 21.9 53.1 C 21.8 53.1 21.8 53.1 21.9 53.1 C 21.9 53.1 21.9 53.1 21.9 53.1 Z M 17.4 61.3 C 17.4 61.2 17.4 61.2 17.4 61.3 C 17.4 61.3 17.4 61.3 17.4 61.3 Z M 18.1 59.5 C 18.1 58.7 18.9 58.7 18.1 59.5 C 18.1 59.5 18.1 59.5 18.1 59.5 Z M 7.6 70.2 C 7.4 69.3 8.2 69.3 7.6 70.2 C 7.6 70.2 7.6 70.2 7.6 70.2 Z M 18.9 56.6 C 17.4 55.5 20.6 56.0 18.9 56.6 C 18.9 56.6 18.9 56.6 18.9 56.6 Z M 10.6 64.1 C 10.7 65.1 8.4 65.1 10.6 64.1 M 11.8 85.3 C 12.2 86.1 9.8 86.6 11.8 85.3 M 17.4 67.2 C 17.5 68.1 15.1 68.1 17.4 67.2 M 27.5 46.7 C 27.2 46.8 27.2 46.8 27.5 46.7 M 14.7 52.0 C 14.6 53.6 13.6 52.3 14.7 52.0 M 26.9 35.9 C 26.5 37.4 25.8 35.9 26.9 35.9 M 4.0 81.0 C 4.5 81.0 3.4 83.0 4.0 81.0 M 13.8 68.2 C 13.0 69.8 11.5 71.1 12.9 67.8 C 13.3 67.7 13.2 68.8 13.8 68.2 C 13.8 68.2 13.8 68.2 13.8 68.2 Z M 7.9 72.9 C 7.7 73.1 7.7 73.1 7.9 72.9 M 14.4 71.6 C 14.2 71.8 14.2 71.8 14.4 71.6 M 11.7 81.1 C 11.4 81.2 11.4 81.2 11.7 81.1 M 12.0 82.4 C 11.9 82.3 11.9 82.3 12.0 82.4 C 12.0 82.4 12.0 82.4 12.0 82.4 Z M 11.2 93.0 C 11.2 93.0 11.2 93.0 11.2 93.0 C 11.2 93.0 11.2 93.0 11.2 93.0 Z M 12.2 78.0 C 12.1 77.9 12.1 77.9 12.2 78.0 C 12.2 78.0 12.2 78.0 12.2 78.0 Z M 3.6 85.7 C 3.5 85.7 3.5 85.7 3.6 85.7 C 3.6 85.7 3.6 85.7 3.6 85.7 Z M 4.9 84.7 C 4.8 84.7 4.8 84.7 4.9 84.7 C 4.9 84.7 4.9 84.7 4.9 84.7 Z M 31.5 42.5 C 31.5 44.5 28.5 41.1 31.5 42.5 M 4.2 89.7 C 2.8 91.1 4.2 87.0 4.2 89.7 C 4.2 89.7 4.2 89.7 4.2 89.7 Z M 11.0 76.4 C 10.7 76.5 10.7 76.5 11.0 76.4 M 11.7 82.9 C 11.4 83.0 11.4 83.0 11.7 82.9 M 22.6 56.8 C 22.4 56.8 22.4 56.8 22.6 56.8 M 10.2 90.3 C 9.3 94.8 7.9 88.0 10.2 90.3 M 22.2 54.1 C 22.4 54.1 22.4 54.1 22.2 54.1 M 14.3 62.0 C 13.1 65.0 13.8 60.6 14.3 62.0 M 13.5 70.4 C 13.4 70.3 13.4 70.3 13.5 70.4 C 13.5 70.4 13.5 70.4 13.5 70.4 Z M 15.1 66.0 C 15.7 63.8 15.8 65.7 15.1 66.0 C 15.1 66.0 15.1 66.0 15.1 66.0 Z M 28.8 43.2 C 26.6 45.4 30.2 40.3 28.8 43.2 C 28.8 43.2 28.8 43.2 28.8 43.2 Z M 6.3 87.7 C 6.2 87.6 6.2 87.6 6.3 87.7 C 6.3 87.7 6.3 87.7 6.3 87.7 Z M 13.5 77.7 C 13.4 76.3 14.2 77.3 13.5 77.7 C 13.5 77.7 13.5 77.7 13.5 77.7 Z M 11.1 94.6 C 10.7 93.2 11.7 94.0 11.1 94.6 C 11.1 94.6 11.1 94.6 11.1 94.6 Z M 31.4 40.5 C 21.7 47.1 41.8 29.7 31.4 40.5 C 31.4 40.5 31.4 40.5 31.4 40.5 Z M 15.6 68.2 C 15.5 68.1 15.5 68.1 15.6 68.2 C 15.6 68.2 15.6 68.2 15.6 68.2 Z M 25.7 51.2 C 25.6 51.1 25.6 51.1 25.7 51.2 C 25.7 51.2 25.7 51.2 25.7 51.2 Z M 26.2 47.4 C 26.2 47.3 26.2 47.3 26.2 47.4 C 26.2 47.4 26.2 47.4 26.2 47.4 Z M 19.8 44.1 C 19.8 44.0 19.8 44.0 19.8 44.1 C 19.8 44.1 19.8 44.1 19.8 44.1 Z M 21.8 47.0 C 21.7 46.7 21.7 46.7 21.8 47.0 C 21.8 47.0 21.8 47.0 21.8 47.0 Z M 25.3 40.2 C 25.3 40.1 25.3 40.1 25.3 40.2 C 25.3 40.2 25.3 40.2 25.3 40.2 Z M 24.5 39.8 C 24.4 39.7 24.4 39.7 24.5 39.8 C 24.5 39.8 24.5 39.8 24.5 39.8 Z M 9.7 82.6 C 9.6 82.5 9.6 82.5 9.7 82.6 C 9.7 82.6 9.7 82.6 9.7 82.6 Z M 7.6 78.3 C 8.0 81.0 6.3 77.1 7.6 78.3 C 7.6 78.3 7.6 78.3 7.6 78.3 Z M 16.9 57.2 C 16.1 59.5 16.8 55.4 16.9 57.2 C 16.9 57.2 16.9 57.2 16.9 57.2 Z M 12.3 57.8 C 12.2 57.9 12.2 57.9 12.3 57.8 C 12.3 57.8 12.3 57.8 12.3 57.8 Z M 27.6 48.4 C 27.5 48.2 27.5 48.2 27.6 48.4 C 27.6 48.4 27.6 48.4 27.6 48.4 Z M 29.2 44.2 C 28.2 43.2 30.7 43.6 29.2 44.2 M 18.8 63.0 C 18.6 62.9 18.6 62.9 18.8 63.0 C 18.8 63.0 18.8 63.0 18.8 63.0 Z M 12.0 74.7 C 11.9 74.7 11.9 74.7 12.0 74.7 C 12.0 74.7 12.0 74.7 12.0 74.7 Z M 10.2 87.9 C 10.0 87.8 10.0 87.8 10.2 87.9 C 10.2 87.9 10.2 87.9 10.2 87.9 Z M 15.6 70.5 C 15.4 70.4 15.4 70.4 15.6 70.5 C 15.6 70.5 15.6 70.5 15.6 70.5 Z M 16.6 64.2 C 16.4 64.0 16.4 64.0 16.6 64.2 C 16.6 64.2 16.6 64.2 16.6 64.2 Z M 7.8 90.6 C 7.7 90.5 7.7 90.5 7.8 90.6 C 7.8 90.6 7.8 90.6 7.8 90.6 Z M 15.3 72.0 C 15.3 71.9 15.3 71.9 15.3 72.0 C 15.3 72.0 15.3 72.0 15.3 72.0 Z M 9.6 74.3 C 9.5 74.2 9.5 74.2 9.6 74.3 C 9.6 74.3 9.6 74.3 9.6 74.3 Z M 30.5 46.0 C 30.5 45.9 30.5 45.9 30.5 46.0 C 30.5 46.0 30.5 46.0 30.5 46.0 Z M 9.7 90.9 C 9.7 90.9 9.7 90.9 9.7 90.9 C 9.7 90.9 9.7 90.9 9.7 90.9 Z M 11.0 91.8 C 10.9 91.8 10.9 91.8 11.0 91.8 C 11.0 91.8 11.0 91.8 11.0 91.8 Z M 5.3 81.4 C 7.1 76.6 4.8 85.7 7.1 82.5 C 6.2 89.5 5.0 82.4 5.3 81.4 C 5.3 81.4 5.3 81.4 5.3 81.4 Z M 11.2 98.0 C 9.2 95.4 7.3 95.2 5.2 96.3 C 4.1 97.6 8.2 97.7 4.7 97.7 C 4.2 94.6 -0.4 99.0 4.0 99.0 C 4.6 103.1 1.1 99.7 2.9 102.1 C 3.5 106.6 2.0 104.3 2.6 107.8 C 5.2 109.6 1.6 109.9 4.0 110.5 C 1.3 109.1 5.1 114.0 4.0 114.3 C 2.1 111.4 6.1 126.0 5.4 117.9 C 7.1 120.9 5.0 120.7 5.0 121.9 C 6.7 123.0 5.2 127.6 7.2 129.1 C 7.4 128.6 7.2 127.6 7.6 127.2 C 8.3 126.4 8.1 129.5 8.1 129.2 C 9.0 130.3 12.1 135.0 7.8 130.3 C 6.6 130.4 9.9 134.5 8.9 134.7 C 10.6 139.5 11.5 135.0 10.7 137.8 C 12.1 141.1 13.3 143.5 13.6 143.3 C 14.3 145.4 13.3 146.5 15.5 147.6 C 15.4 152.8 21.3 147.6 17.9 151.8 C 19.6 152.2 17.5 155.1 20.0 153.2 C 18.0 152.7 22.5 160.9 22.0 156.3 C 23.2 156.7 23.7 163.8 25.7 161.1 C 28.9 161.2 30.2 159.4 29.4 154.6 C 28.2 156.1 28.2 149.9 27.6 154.4 C 29.0 157.9 22.8 149.5 25.0 150.7 C 28.4 149.0 20.2 147.6 21.5 144.4 C 21.1 146.7 16.5 139.7 20.1 140.6 C 19.6 139.1 18.2 139.4 19.0 137.2 C 20.8 141.7 15.6 136.7 17.3 136.3 C 18.6 136.6 16.7 129.6 15.5 130.8 C 12.6 134.6 15.6 128.8 13.7 128.1 C 11.7 124.6 17.1 127.8 13.5 125.7 C 13.7 124.8 12.4 119.8 14.0 122.7 C 13.9 124.1 9.1 120.7 12.2 119.4 C 15.2 124.5 12.0 112.9 11.3 114.9 C 11.0 123.8 8.0 106.1 10.7 112.6 C 12.0 108.5 11.5 113.6 10.2 108.9 C 9.2 109.7 7.9 106.0 10.1 106.7 C 13.1 105.8 5.7 105.6 9.9 102.5 C 11.8 102.0 8.6 96.7 10.6 98.8 C 10.8 98.9 11.2 98.2 11.2 98.0 M 10.8 99.7 C 10.1 99.1 11.7 98.7 10.8 99.7 M 10.1 99.0 C 10.2 99.0 10.2 99.0 10.1 99.0 C 10.1 99.0 10.1 99.0 10.1 99.0 Z M 10.0 108.3 C 10.1 108.2 10.1 108.2 10.0 108.3 C 10.0 108.3 10.0 108.3 10.0 108.3 Z M 3.2 116.9 C 3.3 116.8 3.3 116.8 3.2 116.9 C 3.2 116.9 3.2 116.9 3.2 116.9 Z M 10.6 114.4 C 10.6 114.4 10.6 114.4 10.6 114.4 C 10.6 114.4 10.6 114.4 10.6 114.4 Z M 9.3 105.0 C 9.3 104.9 9.3 104.9 9.3 105.0 C 9.3 105.0 9.3 105.0 9.3 105.0 Z M 11.7 113.7 C 10.6 114.3 12.2 111.4 11.9 113.8 C 11.8 113.9 11.8 113.4 11.7 113.7 M 13.7 121.4 C 13.6 121.5 13.6 121.5 13.7 121.4 M 11.3 142.0 C 11.2 142.2 11.2 142.2 11.3 142.0 M 20.4 139.3 C 20.3 139.6 20.3 139.6 20.4 139.3 M 14.8 129.4 C 15.8 131.7 14.5 130.2 14.8 129.4 M 22.9 145.4 C 22.0 142.3 25.2 148.0 22.9 145.4 M 25.1 147.7 C 25.2 148.0 25.2 148.0 25.1 147.7 M 18.1 135.4 C 18.0 135.4 18.0 135.4 18.1 135.4 C 18.1 135.4 18.1 135.4 18.1 135.4 Z M 15.0 128.3 C 14.5 125.0 17.0 131.1 15.0 128.3 M 11.3 109.2 C 12.0 110.9 9.8 109.4 11.3 109.2 M 10.3 105.7 C 10.2 105.6 10.2 105.6 10.3 105.7 C 10.3 105.7 10.3 105.7 10.3 105.7 Z M 20.5 141.0 C 20.5 140.9 20.5 140.9 20.5 141.0 C 20.5 141.0 20.5 141.0 20.5 141.0 Z M 22.5 144.1 C 22.4 144.0 22.4 144.0 22.5 144.1 C 22.5 144.1 22.5 144.1 22.5 144.1 Z M 18.4 154.0 C 18.3 153.9 18.3 153.9 18.4 154.0 C 18.4 154.0 18.4 154.0 18.4 154.0 Z M 6.9 108.7 C 7.3 106.2 10.0 110.9 7.8 110.7 C 7.0 111.0 7.1 109.0 6.9 108.7 M 11.7 126.8 C 9.1 128.3 14.9 123.3 11.7 126.8 M 23.8 149.1 C 22.2 153.1 24.1 145.1 23.8 149.1 M 27.1 153.0 C 27.4 154.6 21.4 145.5 26.5 151.2 C 27.4 151.5 27.1 152.3 27.1 153.0 M 12.4 121.9 C 10.9 123.0 12.1 118.0 12.4 121.9 M 12.7 138.0 C 14.1 138.7 16.4 141.3 14.1 140.8 C 12.0 141.7 11.3 137.0 12.7 138.0 M 9.1 100.4 C 11.8 102.4 6.9 100.4 9.1 100.4 M 9.5 109.9 C 9.6 109.9 9.6 109.9 9.5 109.9 C 9.5 109.9 9.5 109.9 9.5 109.9 Z M 10.4 113.5 C 10.2 113.7 10.2 113.7 10.4 113.5 M 11.5 101.9 C 11.3 102.1 11.3 102.1 11.5 101.9 M 15.1 136.9 C 15.0 137.1 15.0 137.1 15.1 136.9 M 14.0 129.0 C 12.7 133.3 12.8 127.3 14.0 129.0 M 6.7 121.5 C 5.7 122.9 6.0 119.2 6.7 121.5 M 17.0 134.3 C 15.7 137.6 13.5 131.9 17.0 134.3 M 13.6 127.2 C 13.7 127.4 13.7 127.4 13.6 127.2 C 13.6 127.2 13.6 127.2 13.6 127.2 Z M 12.8 139.1 C 12.8 139.0 12.8 139.0 12.8 139.1 C 12.8 139.1 12.8 139.1 12.8 139.1 Z M 13.4 140.1 C 13.3 140.0 13.3 140.0 13.4 140.1 C 13.4 140.1 13.4 140.1 13.4 140.1 Z M 18.5 137.1 C 18.4 137.0 18.4 137.0 18.5 137.1 C 18.5 137.1 18.5 137.1 18.5 137.1 Z M 3.5 105.8 C 3.5 108.6 3.0 103.7 3.5 105.8 C 3.5 105.8 3.5 105.8 3.5 105.8 Z M 12.1 116.6 C 11.0 121.1 9.8 114.0 12.1 116.6 C 12.1 116.6 12.1 116.6 12.1 116.6 Z M 10.0 122.0 C 9.9 122.0 9.9 122.0 10.0 122.0 C 10.0 122.0 10.0 122.0 10.0 122.0 Z M 17.8 132.2 C 17.7 132.2 17.7 132.2 17.8 132.2 C 17.8 132.2 17.8 132.2 17.8 132.2 Z M 3.3 107.2 C 3.1 107.2 3.1 107.2 3.3 107.2 C 3.3 107.2 3.3 107.2 3.3 107.2 Z M 20.7 144.3 C 20.6 144.4 20.6 144.4 20.7 144.3 C 20.7 144.3 20.7 144.3 20.7 144.3 Z M 9.7 132.3 C 10.9 132.9 9.0 132.7 9.7 132.3 C 9.7 132.3 9.7 132.3 9.7 132.3 Z M 11.1 136.1 C 11.2 136.2 11.2 136.2 11.1 136.1 C 11.1 136.1 11.1 136.1 11.1 136.1 Z M 25.8 148.4 C 25.9 148.5 25.9 148.5 25.8 148.4 C 25.8 148.4 25.8 148.4 25.8 148.4 Z M 13.6 146.8 C 13.7 146.9 13.7 146.9 13.6 146.8 C 13.6 146.8 13.6 146.8 13.6 146.8 Z M 17.9 148.4 C 17.8 148.4 17.8 148.4 17.9 148.4 C 17.9 148.4 17.9 148.4 17.9 148.4 Z M 17.7 136.7 C 19.7 140.0 16.3 136.3 17.7 136.7 C 17.7 136.7 17.7 136.7 17.7 136.7 Z M 24.3 156.6 C 24.2 156.8 24.2 156.8 24.3 156.6 C 24.3 156.6 24.3 156.6 24.3 156.6 Z M 28.2 156.2 C 28.2 156.4 28.2 156.4 28.2 156.2 C 28.2 156.2 28.2 156.2 28.2 156.2 Z M 30.3 155.9 C 30.2 156.1 30.2 156.1 30.3 155.9 C 30.3 155.9 30.3 155.9 30.3 155.9 Z M 6.8 114.0 C 6.9 113.9 6.9 113.9 6.8 114.0 C 6.8 114.0 6.8 114.0 6.8 114.0 Z M 12.0 111.7 C 12.0 111.7 12.0 111.7 12.0 111.7 C 12.0 111.7 12.0 111.7 12.0 111.7 Z M 13.0 116.7 C 13.1 116.7 13.1 116.7 13.0 116.7 C 13.0 116.7 13.0 116.7 13.0 116.7 Z M 3.3 113.5 C 3.4 113.4 3.4 113.4 3.3 113.5 C 3.3 113.5 3.3 113.5 3.3 113.5 Z M 12.9 132.3 C 12.9 132.2 12.9 132.2 12.9 132.3 C 12.9 132.3 12.9 132.3 12.9 132.3 Z M 11.5 134.9 C 11.5 134.8 11.5 134.8 11.5 134.9 C 11.5 134.9 11.5 134.9 11.5 134.9 Z M 7.1 131.3 C 7.1 131.3 7.1 131.3 7.1 131.3 C 7.1 131.3 7.1 131.3 7.1 131.3 Z M 10.3 137.0 C 10.3 137.0 10.3 137.0 10.3 137.0 C 10.3 137.0 10.3 137.0 10.3 137.0 Z M 3.4 99.5 C 3.4 99.5 3.4 99.5 3.4 99.5 C 3.4 99.5 3.4 99.5 3.4 99.5 Z M 7.6 99.1 C 7.5 99.0 7.5 99.0 7.6 99.1 C 7.6 99.1 7.6 99.1 7.6 99.1 Z M 15.9 131.8 C 17.1 132.3 15.4 133.9 15.9 131.8 M 13.1 124.9 C 13.0 124.9 13.0 124.9 13.1 124.9 C 13.1 124.9 13.1 124.9 13.1 124.9 Z M 21.1 143.3 C 20.1 145.0 20.1 139.8 21.1 143.3 C 21.1 143.3 21.1 143.3 21.1 143.3 Z M 13.0 142.9 C 13.0 143.0 13.0 143.0 13.0 142.9 C 13.0 142.9 13.0 142.9 13.0 142.9 Z M 14.5 144.5 C 14.5 144.7 14.5 144.7 14.5 144.5 C 14.5 144.5 14.5 144.5 14.5 144.5 Z M 24.3 152.0 C 24.3 152.2 24.3 152.2 24.3 152.0 M 14.2 123.6 C 13.8 124.8 13.9 124.6 14.2 123.6 M 22.3 145.6 C 22.2 145.5 22.2 145.5 22.3 145.6 C 22.3 145.6 22.3 145.6 22.3 145.6 Z M 26.6 153.5 C 26.5 153.4 26.5 153.4 26.6 153.5 C 26.6 153.5 26.6 153.5 26.6 153.5 Z M 11.9 118.8 C 10.0 119.4 10.2 118.3 11.9 118.8 M 9.4 104.2 C 9.2 104.3 9.2 104.3 9.4 104.2 C 9.4 104.2 9.4 104.2 9.4 104.2 Z M 35.0 163.5 C 30.1 154.8 28.6 159.4 27.7 159.6 C 25.9 159.3 26.1 160.8 26.8 162.8 C 26.0 166.3 31.0 163.3 30.0 166.3 C 29.2 170.9 34.5 166.1 32.6 169.8 C 31.5 170.3 35.0 172.4 34.9 172.0 C 35.1 174.7 39.5 173.9 39.7 173.7 C 40.4 174.9 38.3 177.9 43.2 178.1 C 46.2 179.1 45.4 182.8 46.0 180.3 C 46.4 183.8 47.7 180.5 49.2 182.4 C 49.7 184.5 50.3 180.5 51.3 184.4 C 53.5 183.0 49.4 185.4 56.9 187.2 C 53.8 185.5 60.9 187.1 58.9 187.9 C 55.9 188.3 62.3 188.8 65.2 190.9 C 66.3 190.5 70.8 189.8 69.4 191.8 C 71.9 195.3 73.2 191.3 74.1 193.7 C 75.0 194.9 75.9 193.1 76.6 193.5 C 77.4 195.4 78.7 194.6 82.9 195.8 C 92.1 198.3 85.0 192.0 88.4 191.9 C 89.1 191.2 85.0 185.2 86.3 189.5 C 85.9 188.3 78.1 191.1 82.4 187.4 C 79.4 188.6 83.4 185.9 77.6 186.6 C 84.1 191.5 69.1 185.6 76.4 186.0 C 75.5 184.9 72.6 184.2 74.4 185.5 C 74.4 188.4 69.9 182.7 71.7 186.9 C 67.5 184.6 67.7 187.8 67.2 185.3 C 67.5 181.4 67.1 186.3 65.2 184.4 C 60.1 182.2 65.8 180.1 61.6 181.2 C 57.5 177.2 59.8 182.2 57.9 181.7 C 56.3 183.7 53.9 177.3 57.7 179.0 C 55.2 179.2 58.0 177.8 55.0 178.0 C 55.4 180.9 53.6 174.1 53.2 176.2 C 51.0 175.5 51.2 177.3 50.6 177.0 C 47.7 175.1 49.9 173.8 48.4 174.8 C 47.2 175.1 47.7 171.7 46.9 172.1 C 49.6 174.2 43.0 172.3 43.5 171.1 C 45.3 172.3 44.7 168.0 42.4 168.5 C 40.4 173.6 41.0 165.6 38.6 165.8 C 37.8 169.0 32.9 160.6 36.2 162.2 C 35.9 162.2 35.0 163.6 35.0 163.5 M 45.8 171.8 C 48.0 173.7 43.0 170.4 45.8 171.8 M 46.2 171.1 C 46.6 172.6 44.5 168.9 46.5 171.0 C 46.5 171.0 46.1 171.0 46.2 171.1 M 55.9 177.4 C 55.2 178.0 54.8 176.2 55.9 177.4 M 57.0 180.1 C 58.3 181.6 54.7 179.0 57.0 180.1 M 81.1 188.2 C 77.7 191.9 79.0 185.3 81.1 188.2 M 65.5 182.5 C 62.4 181.8 67.1 181.2 65.5 182.5 M 64.2 183.1 C 62.6 183.2 64.3 182.1 64.2 183.1 M 76.4 187.1 C 76.6 187.3 76.6 187.3 76.4 187.1 C 76.4 187.1 76.4 187.1 76.4 187.1 Z M 83.7 188.9 C 83.7 188.8 83.7 188.8 83.7 188.9 C 83.7 188.9 83.7 188.9 83.7 188.9 Z M 69.3 185.4 C 67.4 183.6 73.0 186.3 69.3 185.4 C 69.3 185.4 69.3 185.4 69.3 185.4 Z M 78.8 194.5 C 78.6 194.6 78.6 194.6 78.8 194.5 C 78.8 194.5 78.8 194.5 78.8 194.5 Z M 42.8 171.9 C 42.7 171.9 42.7 171.9 42.8 171.9 C 42.8 171.9 42.8 171.9 42.8 171.9 Z M 37.0 164.7 C 36.7 165.2 36.2 163.3 37.0 164.7 C 37.0 164.7 37.0 164.7 37.0 164.7 Z M 28.3 162.6 C 28.2 162.6 28.2 162.6 28.3 162.6 C 28.3 162.6 28.3 162.6 28.3 162.6 Z M 39.0 171.7 C 38.9 171.7 38.9 171.7 39.0 171.7 C 39.0 171.7 39.0 171.7 39.0 171.7 Z M 42.0 170.1 C 42.4 167.4 44.3 172.8 42.0 170.1 C 42.0 170.1 42.0 170.1 42.0 170.1 Z M 64.4 189.9 C 64.9 188.9 66.3 191.0 64.4 189.9 C 64.4 189.9 64.4 189.9 64.4 189.9 Z M 56.9 181.1 C 57.5 180.7 57.9 181.9 56.9 181.1 C 56.9 181.1 56.9 181.1 56.9 181.1 Z M 54.3 175.9 C 54.9 175.7 55.2 176.8 54.3 175.9 C 54.3 175.9 54.3 175.9 54.3 175.9 Z M 37.6 164.4 C 37.9 164.4 37.9 164.4 37.6 164.4 C 37.6 164.4 37.6 164.4 37.6 164.4 Z M 38.8 167.9 C 38.6 164.8 40.6 171.1 38.8 167.9 C 38.8 167.9 38.8 167.9 38.8 167.9 Z M 35.5 165.7 C 35.8 167.1 33.6 163.3 35.5 165.7 M 34.8 169.7 C 37.6 171.0 30.2 170.8 34.8 169.7 C 34.8 169.7 34.8 169.7 34.8 169.7 Z M 45.6 179.5 C 45.7 179.7 45.7 179.7 45.6 179.5 C 45.6 179.5 45.6 179.5 45.6 179.5 Z M 48.1 173.4 C 50.0 174.8 46.6 172.9 48.1 173.4 C 48.1 173.4 48.1 173.4 48.1 173.4 Z M 33.0 159.2 C 34.6 161.1 31.6 158.4 33.0 159.2 C 33.0 159.2 33.0 159.2 33.0 159.2 Z M 53.8 182.0 C 57.4 183.7 51.1 181.9 53.8 182.0 C 53.8 182.0 53.8 182.0 53.8 182.0 Z M 67.8 185.7 C 67.9 185.8 67.9 185.8 67.8 185.7 C 67.8 185.7 67.8 185.7 67.8 185.7 Z M 70.5 185.7 C 70.6 185.8 70.6 185.8 70.5 185.7 C 70.5 185.7 70.5 185.7 70.5 185.7 Z M 80.3 190.8 C 80.5 190.9 80.5 190.9 80.3 190.8 C 80.3 190.8 80.3 190.8 80.3 190.8 Z M 73.1 185.5 C 73.1 185.5 73.1 185.5 73.1 185.5 C 73.1 185.5 73.1 185.5 73.1 185.5 Z M 80.0 187.9 C 80.1 188.0 80.1 188.0 80.0 187.9 C 80.0 187.9 80.0 187.9 80.0 187.9 Z M 79.4 185.8 C 79.5 185.9 79.5 185.9 79.4 185.8 C 79.4 185.8 79.4 185.8 79.4 185.8 Z M 60.3 189.5 C 60.5 189.7 60.5 189.7 60.3 189.5 C 60.3 189.5 60.3 189.5 60.3 189.5 Z M 41.2 166.7 C 41.2 167.0 41.2 167.0 41.2 166.7 C 41.2 166.7 41.2 166.7 41.2 166.7 Z M 79.2 188.6 C 79.3 188.7 79.3 188.7 79.2 188.6 C 79.2 188.6 79.2 188.6 79.2 188.6 Z M 61.3 184.3 C 60.6 186.1 60.9 181.4 61.8 184.5 C 61.7 184.5 61.3 184.0 61.3 184.3 M 62.4 188.2 C 62.3 188.3 62.3 188.3 62.4 188.2 C 62.4 188.2 62.4 188.2 62.4 188.2 Z M 53.9 185.5 C 53.8 185.5 53.8 185.5 53.9 185.5 C 53.9 185.5 53.9 185.5 53.9 185.5 Z M 72.0 184.7 C 72.0 183.6 73.6 186.1 71.6 184.7 M 79.7 194.0 C 79.6 192.9 81.6 195.3 79.4 194.0 M 30.7 157.6 C 29.9 157.9 30.1 156.1 30.7 157.6 M 51.7 185.4 C 51.0 185.9 50.5 184.1 51.7 185.4 M 56.5 185.2 C 56.7 184.1 58.0 186.9 56.2 185.1 M 74.0 192.5 C 74.1 192.6 74.1 192.6 74.0 192.5 C 74.0 192.5 74.0 192.5 74.0 192.5 Z M 50.9 175.6 C 51.0 175.6 51.0 175.6 50.9 175.6 C 50.9 175.6 50.9 175.6 50.9 175.6 Z M 58.7 182.6 C 58.1 180.7 60.0 184.2 58.7 182.6 M 47.0 176.0 C 46.4 173.3 49.4 178.3 47.0 176.0 M 84.0 195.3 C 82.1 192.8 85.5 196.7 84.0 195.3 M 74.2 187.5 C 72.7 184.8 75.4 189.1 74.2 187.5 M 52.2 177.4 C 52.7 176.4 53.8 179.2 52.2 177.4 M 34.5 161.6 C 33.1 159.8 37.1 163.1 34.5 161.6 M 68.4 190.9 C 68.5 191.0 68.5 191.0 68.4 190.9 C 68.4 190.9 68.4 190.9 68.4 190.9 Z M 34.1 172.8 C 34.2 172.9 34.2 172.9 34.1 172.8 C 34.1 172.8 34.1 172.8 34.1 172.8 Z M 87.9 188.7 C 88.0 188.8 88.0 188.8 87.9 188.7 C 87.9 188.7 87.9 188.7 87.9 188.7 Z M 72.6 188.1 C 72.6 188.2 72.6 188.2 72.6 188.1 C 72.6 188.1 72.6 188.1 72.6 188.1 Z M 83.9 187.8 C 84.0 188.0 84.0 188.0 83.9 187.8 C 83.9 187.8 83.9 187.8 83.9 187.8 Z M 65.3 187.3 C 65.4 187.4 65.4 187.4 65.3 187.3 C 65.3 187.3 65.3 187.3 65.3 187.3 Z M 66.1 181.7 C 66.1 181.7 66.1 181.7 66.1 181.7 C 66.1 181.7 66.1 181.7 66.1 181.7 Z M 58.2 180.6 C 58.3 180.7 58.3 180.7 58.2 180.6 C 58.2 180.6 58.2 180.6 58.2 180.6 Z M 69.1 183.3 C 73.4 184.5 66.3 184.3 69.1 183.3 C 69.1 183.3 69.1 183.3 69.1 183.3 Z M 59.6 185.3 C 59.6 185.4 59.6 185.4 59.6 185.3 C 59.6 185.3 59.6 185.3 59.6 185.3 Z M 60.7 181.5 C 64.0 181.3 60.9 184.6 60.7 181.5 M 50.3 174.1 C 51.5 173.9 49.9 175.4 50.3 174.1 M 41.8 176.9 C 41.7 177.0 41.7 177.0 41.8 176.9 C 41.8 176.9 41.8 176.9 41.8 176.9 Z M 43.3 177.3 C 43.4 177.5 43.4 177.5 43.3 177.3 C 43.3 177.3 43.3 177.3 43.3 177.3 Z M 47.9 172.0 C 48.0 172.1 48.0 172.1 47.9 172.0 C 47.9 172.0 47.9 172.0 47.9 172.0 Z M 42.2 179.1 C 42.3 179.2 42.3 179.2 42.2 179.1 C 42.2 179.1 42.2 179.1 42.2 179.1 Z M 64.5 181.2 C 64.5 181.2 64.5 181.2 64.5 181.2 C 64.5 181.2 64.5 181.2 64.5 181.2 Z M 86.1 187.4 C 86.2 187.4 86.2 187.4 86.1 187.4 C 86.1 187.4 86.1 187.4 86.1 187.4 Z M 30.8 166.1 C 30.8 166.2 30.8 166.2 30.8 166.1 C 30.8 166.1 30.8 166.1 30.8 166.1 Z M 65.8 184.1 C 65.9 184.2 65.9 184.2 65.8 184.1 C 65.8 184.1 65.8 184.1 65.8 184.1 Z M 39.1 174.4 C 39.1 174.5 39.1 174.5 39.1 174.4 C 39.1 174.4 39.1 174.4 39.1 174.4 Z M 64.6 183.1 C 64.7 183.1 64.7 183.1 64.6 183.1 C 64.6 183.1 64.6 183.1 64.6 183.1 Z M 67.6 191.1 C 67.6 191.1 67.6 191.1 67.6 191.1 C 67.6 191.1 67.6 191.1 67.6 191.1 Z M 72.3 193.9 C 72.3 193.9 72.3 193.9 72.3 193.9 C 72.3 193.9 72.3 193.9 72.3 193.9 Z M 68.5 187.4 C 68.6 187.4 68.6 187.4 68.5 187.4 C 68.5 187.4 68.5 187.4 68.5 187.4 Z M 39.3 171.4 C 33.0 163.6 45.8 175.8 39.3 171.4 M 69.9 188.3 C 63.8 185.8 75.5 188.0 69.9 188.3 C 70.7 188.0 70.0 188.3 69.9 188.3 M 94.6 189.1 C 90.8 186.6 90.5 189.7 90.5 189.8 C 91.4 185.6 86.7 191.0 87.4 191.9 C 87.2 192.5 89.8 200.3 93.1 196.0 C 93.9 195.5 94.3 196.9 94.9 197.0 C 100.2 197.1 91.5 194.6 97.8 194.8 C 98.9 195.4 97.6 199.0 101.3 196.5 C 101.5 196.8 105.9 198.0 104.2 196.4 C 106.3 198.0 107.5 195.9 109.4 195.3 C 111.2 196.1 108.3 198.2 114.1 195.4 C 117.2 197.9 117.2 192.7 120.2 195.3 C 121.8 195.1 123.0 189.4 120.1 193.1 C 120.5 192.7 117.8 190.8 122.6 190.5 C 122.2 191.3 121.0 197.4 127.7 192.7 C 128.9 192.5 131.3 190.3 132.1 190.6 C 128.6 192.5 138.1 190.8 136.6 189.7 C 142.8 188.3 138.5 187.6 143.4 187.1 C 146.8 185.5 141.2 185.6 145.9 184.7 C 148.9 182.8 147.4 185.0 147.1 185.1 C 149.9 183.9 150.3 182.4 151.2 181.9 C 152.0 181.8 153.8 182.0 153.6 180.4 C 155.0 176.6 151.2 176.2 150.9 173.5 C 148.4 173.8 151.1 175.6 148.8 174.9 C 148.8 176.7 148.7 175.0 143.7 178.2 C 144.0 178.5 145.8 178.7 144.6 179.5 C 142.5 180.5 142.1 176.1 140.0 180.4 C 144.4 179.2 134.8 184.3 139.0 183.3 C 134.4 186.0 137.5 183.7 133.6 184.2 C 134.8 186.7 132.3 181.6 131.7 184.1 C 131.0 183.2 125.6 185.6 130.2 185.8 C 124.7 188.5 127.8 185.8 125.3 185.0 C 122.6 185.6 126.3 189.4 123.8 186.6 C 119.8 186.0 124.0 188.3 120.8 186.3 C 122.5 188.4 118.2 186.9 119.8 189.2 C 113.7 190.8 120.0 186.4 116.0 189.0 C 117.4 188.8 116.3 185.5 114.0 188.2 C 115.8 192.0 110.1 185.1 112.8 190.2 C 104.3 192.9 111.0 188.3 106.4 188.6 C 105.2 188.7 107.8 190.3 106.7 190.4 C 100.5 190.1 105.6 188.3 102.5 191.1 C 96.4 191.9 100.7 188.9 97.8 188.6 C 97.5 189.9 95.0 192.0 94.6 189.1 M 99.9 190.5 C 101.2 189.7 100.7 191.4 99.9 190.5 M 87.9 188.5 C 89.3 187.8 88.6 189.4 87.9 188.5 M 104.9 189.6 C 106.5 188.6 105.5 191.0 104.9 189.6 M 136.9 183.2 C 134.8 184.2 137.6 182.1 136.9 183.2 M 92.7 188.8 C 94.5 187.9 93.1 190.3 92.7 188.8 M 90.3 190.7 C 90.4 190.8 90.4 190.8 90.3 190.7 M 139.0 179.8 C 139.1 179.8 139.1 179.8 139.0 179.8 M 130.9 183.2 C 132.7 182.7 130.2 184.1 130.9 183.2 M 133.7 191.8 C 135.7 191.1 132.8 192.7 133.7 191.8 M 143.2 177.5 C 144.5 176.0 144.2 178.1 143.2 177.5 M 148.5 176.6 C 149.5 175.0 149.9 176.8 148.5 176.6 M 98.8 193.7 C 98.8 193.8 98.8 193.8 98.8 193.7 C 98.8 193.7 98.8 193.7 98.8 193.7 Z M 115.7 194.6 C 113.6 194.0 118.3 195.3 115.7 194.6 M 111.8 189.2 C 113.3 190.9 109.3 189.4 111.8 189.2 C 111.8 189.2 111.8 189.2 111.8 189.2 Z M 109.1 190.4 C 109.1 190.5 109.1 190.5 109.1 190.4 C 109.1 190.4 109.1 190.4 109.1 190.4 Z M 118.2 189.1 C 118.1 189.2 118.1 189.2 118.2 189.1 C 118.2 189.1 118.2 189.1 118.2 189.1 Z M 116.3 189.6 C 115.7 190.1 115.2 189.5 116.3 189.6 C 116.3 189.6 116.3 189.6 116.3 189.6 Z M 131.1 191.7 C 130.4 192.4 129.9 191.7 131.1 191.7 C 131.1 191.7 131.1 191.7 131.1 191.7 Z M 113.6 190.7 C 113.6 192.6 112.1 189.7 113.6 190.7 C 113.6 190.7 113.6 190.7 113.6 190.7 Z M 124.4 192.9 C 125.1 192.2 126.5 194.1 124.4 192.9 M 140.8 179.3 C 141.3 178.5 143.1 180.1 140.8 179.3 M 122.8 185.7 C 123.4 185.0 124.9 186.9 122.8 185.7 M 100.9 189.7 C 101.2 189.9 101.2 189.9 100.9 189.7 M 112.5 196.8 C 113.7 196.0 113.3 197.5 112.5 196.8 M 93.1 196.8 C 94.5 196.2 93.7 197.7 93.1 196.8 M 141.9 188.1 C 141.7 187.7 144.0 187.4 141.9 188.1 M 125.8 187.9 C 127.5 187.6 129.5 188.1 126.0 189.0 C 125.6 188.6 126.6 188.1 125.8 187.9 C 125.8 187.9 125.8 187.9 125.8 187.9 Z M 133.1 189.8 C 133.4 189.9 133.4 189.9 133.1 189.8 M 128.1 185.4 C 128.4 185.5 128.4 185.5 128.1 185.4 M 137.4 181.9 C 137.7 182.1 137.7 182.1 137.4 181.9 M 138.3 180.9 C 138.3 181.0 138.3 181.0 138.3 180.9 C 138.3 180.9 138.3 180.9 138.3 180.9 Z M 147.5 175.0 C 147.5 175.1 147.5 175.1 147.5 175.0 C 147.5 175.0 147.5 175.0 147.5 175.0 Z M 134.6 183.4 C 134.6 183.5 134.6 183.5 134.6 183.4 C 134.6 183.4 134.6 183.4 134.6 183.4 Z M 146.1 185.6 C 146.1 185.7 146.1 185.7 146.1 185.6 C 146.1 185.6 146.1 185.6 146.1 185.6 Z M 144.5 185.2 C 144.5 185.3 144.5 185.3 144.5 185.2 C 144.5 185.2 144.5 185.2 144.5 185.2 Z M 95.4 189.1 C 97.0 187.9 96.1 192.3 95.4 189.1 M 149.0 182.7 C 151.0 183.0 146.8 184.3 149.0 182.7 C 149.0 182.7 149.0 182.7 149.0 182.7 Z M 134.1 185.3 C 134.3 185.4 134.3 185.4 134.1 185.3 M 139.0 180.8 C 139.2 181.0 139.2 181.0 139.0 180.8 M 111.5 187.6 C 111.7 187.8 111.7 187.8 111.5 187.6 M 145.9 177.5 C 150.2 175.4 145.4 180.8 145.9 177.5 M 109.7 189.6 C 109.6 189.4 109.6 189.4 109.7 189.6 M 120.6 191.2 C 123.6 190.4 119.7 192.4 120.6 191.2 M 127.7 186.9 C 127.6 187.0 127.6 187.0 127.7 186.9 C 127.7 186.9 127.7 186.9 127.7 186.9 Z M 123.3 188.2 C 121.1 189.0 122.6 187.8 123.3 188.2 C 123.3 188.2 123.3 188.2 123.3 188.2 Z M 97.5 190.9 C 100.4 191.2 94.5 191.4 97.5 190.9 C 97.5 190.9 97.5 190.9 97.5 190.9 Z M 146.1 182.2 C 146.1 182.4 146.1 182.4 146.1 182.2 C 146.1 182.2 146.1 182.2 146.1 182.2 Z M 133.6 182.4 C 132.5 183.4 132.8 182.2 133.6 182.4 C 133.6 182.4 133.6 182.4 133.6 182.4 Z M 148.9 174.1 C 148.0 175.3 148.0 174.0 148.9 174.1 C 148.9 174.1 148.9 174.1 148.9 174.1 Z M 94.1 190.4 C 104.5 194.1 79.9 188.7 94.1 190.4 C 94.1 190.4 94.1 190.4 94.1 190.4 Z M 124.7 186.5 C 124.7 186.6 124.7 186.6 124.7 186.5 C 124.7 186.5 124.7 186.5 124.7 186.5 Z M 105.4 188.5 C 105.4 188.6 105.4 188.6 105.4 188.5 C 105.4 188.5 105.4 188.5 105.4 188.5 Z M 102.2 190.3 C 102.1 190.4 102.1 190.4 102.2 190.3 C 102.2 190.3 102.2 190.3 102.2 190.3 Z M 103.4 197.4 C 103.3 197.5 103.3 197.5 103.4 197.4 C 103.4 197.4 103.4 197.4 103.4 197.4 Z M 104.5 194.1 C 104.3 194.3 104.3 194.3 104.5 194.1 C 104.5 194.1 104.5 194.1 104.5 194.1 Z M 97.3 195.4 C 97.2 195.5 97.2 195.5 97.3 195.4 C 97.3 195.4 97.3 195.4 97.3 195.4 Z M 97.4 196.4 C 97.4 196.4 97.4 196.4 97.4 196.4 C 97.4 196.4 97.4 196.4 97.4 196.4 Z M 139.8 182.6 C 139.8 182.8 139.8 182.8 139.8 182.6 C 139.8 182.6 139.8 182.6 139.8 182.6 Z M 137.6 186.9 C 139.6 184.9 137.4 188.6 137.6 186.9 C 137.6 186.9 137.6 186.9 137.6 186.9 Z M 115.2 192.0 C 117.5 191.2 113.9 193.1 115.2 192.0 C 115.2 192.0 115.2 192.0 115.2 192.0 Z M 118.4 195.3 C 118.5 195.4 118.5 195.4 118.4 195.3 C 118.4 195.3 118.4 195.3 118.4 195.3 Z M 102.2 188.6 C 102.1 188.8 102.1 188.8 102.2 188.6 C 102.2 188.6 102.2 188.6 102.2 188.6 Z M 98.1 189.9 C 97.8 191.3 96.8 189.1 98.1 189.9 M 118.6 187.0 C 118.7 187.2 118.7 187.2 118.6 187.0 C 118.6 187.0 118.6 187.0 118.6 187.0 Z M 132.1 185.5 C 132.1 185.6 132.1 185.6 132.1 185.5 C 132.1 185.5 132.1 185.5 132.1 185.5 Z M 143.9 179.0 C 144.0 179.2 144.0 179.2 143.9 179.0 C 143.9 179.0 143.9 179.0 143.9 179.0 Z M 126.6 185.1 C 126.6 185.3 126.6 185.3 126.6 185.1 C 126.6 185.1 126.6 185.1 126.6 185.1 Z M 120.9 188.1 C 120.9 188.3 120.9 188.3 120.9 188.1 C 120.9 188.1 120.9 188.1 120.9 188.1 Z M 147.6 179.3 C 147.6 179.4 147.6 179.4 147.6 179.3 C 147.6 179.3 147.6 179.3 147.6 179.3 Z M 127.9 184.5 C 127.9 184.5 127.9 184.5 127.9 184.5 C 127.9 184.5 127.9 184.5 127.9 184.5 Z M 133.2 187.6 C 133.1 187.8 133.1 187.8 133.2 187.6 C 133.2 187.6 133.2 187.6 133.2 187.6 Z M 98.7 187.7 C 98.6 187.8 98.6 187.8 98.7 187.7 C 98.7 187.7 98.7 187.7 98.7 187.7 Z M 146.7 177.5 C 146.7 177.6 146.7 177.6 146.7 177.5 C 146.7 177.5 146.7 177.5 146.7 177.5 Z M 146.7 175.9 C 146.7 176.0 146.7 176.0 146.7 175.9 C 146.7 175.9 146.7 175.9 146.7 175.9 Z M 141.5 186.9 C 136.5 188.3 145.3 184.6 141.4 184.7 C 147.6 181.2 142.5 186.5 141.5 186.9 C 141.5 186.9 141.5 186.9 141.5 186.9 Z M 141.5 186.9 " fill="#797F7D"></path></g></svg>