<?xml version="1.0" encoding="UTF-8" standalone="no"?><svg xmlns="http://www.w3.org/2000/svg" xmlns:xlink="http://www.w3.org/1999/xlink" clip-rule="evenodd" stroke-miterlimit="10" viewBox="0 0 453 93"><desc>SVG generated by Keynote</desc><defs></defs><g transform="matrix(1.00, 0.00, -0.00, -1.00, 0.0, 93.0)"><text xml:space="preserve" font-family="GillSans-Light,Gill Sans" font-size="34.4" fill="#FEFFFE" transform="matrix(1.00, 0.00, -0.00, -1.00, 1.0, 62.3)">•</text><text xml:space="preserve" font-family="GillSans-Light,Gill Sans" font-size="42.0" fill="#FEFFFE" transform="matrix(1.00, 0.00, -0.00, -1.00, 38.6, 59.6)">P</text><text xml:space="preserve" font-family="GillSans-Light,Gill Sans" font-size="42.0" fill="#FEFFFE" transform="matrix(1.00, 0.00, -0.00, -1.00, 57.9, 59.6)">o</text><text xml:space="preserve" font-family="GillSans-Light,Gill Sans" font-size="42.0" fill="#FEFFFE" transform="matrix(1.00, 0.00, -0.00, -1.00, 80.7, 59.6)">o</text><text xml:space="preserve" font-family="GillSans-Light,Gill Sans" font-size="42.0" fill="#FEFFFE" transform="matrix(1.00, 0.00, -0.00, -1.00, 103.4, 59.6)">l</text><text xml:space="preserve" font-family="GillSans-Light,Gill Sans" font-size="42.0" fill="#FEFFFE" transform="matrix(1.00, 0.00, -0.00, -1.00, 111.3, 59.6)">i</text><text xml:space="preserve" font-family="GillSans-Light,Gill Sans" font-size="42.0" fill="#FEFFFE" transform="matrix(1.00, 0.00, -0.00, -1.00, 119.2, 59.6)">n</text><text xml:space="preserve" font-family="GillSans-Light,Gill Sans" font-size="42.0" fill="#FEFFFE" transform="matrix(1.00, 0.00, -0.00, -1.00, 139.8, 59.6)">g</text><text xml:space="preserve" font-family="GillSans-Light,Gill Sans" font-size="42.0" fill="#FEFFFE" transform="matrix(1.00, 0.00, -0.00, -1.00, 157.7, 59.6)"> </text><text xml:space="preserve" font-family="GillSans-Light,Gill Sans" font-size="42.0" fill="#FEFFFE" transform="matrix(1.00, 0.00, -0.00, -1.00, 169.4, 59.6)">l</text><text xml:space="preserve" font-family="GillSans-Light,Gill Sans" font-size="42.0" fill="#FEFFFE" transform="matrix(1.00, 0.00, -0.00, -1.00, 177.3, 59.6)">o</text><text xml:space="preserve" font-family="GillSans-Light,Gill Sans" font-size="42.0" fill="#FEFFFE" transform="matrix(1.00, 0.00, -0.00, -1.00, 200.0, 59.6)">s</text><text xml:space="preserve" font-family="GillSans-Light,Gill Sans" font-size="42.0" fill="#FEFFFE" transform="matrix(1.00, 0.00, -0.00, -1.00, 214.9, 59.6)">e</text><text xml:space="preserve" font-family="GillSans-Light,Gill Sans" font-size="42.0" fill="#FEFFFE" transform="matrix(1.00, 0.00, -0.00, -1.00, 235.0, 59.6)">s</text><text xml:space="preserve" font-family="GillSans-Light,Gill Sans" font-size="42.0" fill="#FEFFFE" transform="matrix(1.00, 0.00, -0.00, -1.00, 249.9, 59.6)"> </text><text xml:space="preserve" font-family="GillSans-Light,Gill Sans" font-size="42.0" fill="#FEFFFE" transform="matrix(1.00, 0.00, -0.00, -1.00, 261.6, 59.6)">i</text><text xml:space="preserve" font-family="GillSans-Light,Gill Sans" font-size="42.0" fill="#FEFFFE" transform="matrix(1.00, 0.00, -0.00, -1.00, 269.5, 59.6)">n</text><text xml:space="preserve" font-family="GillSans-Light,Gill Sans" font-size="42.0" fill="#FEFFFE" transform="matrix(1.00, 0.00, -0.00, -1.00, 290.0, 59.6)">f</text><text xml:space="preserve" font-family="GillSans-Light,Gill Sans" font-size="42.0" fill="#FEFFFE" transform="matrix(1.00, 0.00, -0.00, -1.00, 299.7, 59.6)">o</text><text xml:space="preserve" font-family="GillSans-Light,Gill Sans" font-size="42.0" fill="#FEFFFE" transform="matrix(1.00, 0.00, -0.00, -1.00, 322.5, 59.6)">r</text><text xml:space="preserve" font-family="GillSans-Light,Gill Sans" font-size="42.0" fill="#FEFFFE" transform="matrix(1.00, 0.00, -0.00, -1.00, 337.5, 59.6)">m</text><text xml:space="preserve" font-family="GillSans-Light,Gill Sans" font-size="42.0" fill="#FEFFFE" transform="matrix(1.00, 0.00, -0.00, -1.00, 369.9, 59.6)">a</text><text xml:space="preserve" font-family="GillSans-Light,Gill Sans" font-size="42.0" fill="#FEFFFE" transform="matrix(1.00, 0.00, -0.00, -1.00, 387.8, 59.6)">t</text><text xml:space="preserve" font-family="GillSans-Light,Gill Sans" font-size="42.0" fill="#FEFFFE" transform="matrix(1.00, 0.00, -0.00, -1.00, 400.5, 59.6)">i</text><text xml:space="preserve" font-family="GillSans-Light,Gill Sans" font-size="42.0" fill="#FEFFFE" transform="matrix(1.00, 0.00, -0.00, -1.00, 408.4, 59.6)">o</text><text xml:space="preserve" font-family="GillSans-Light,Gill Sans" font-size="42.0" fill="#FEFFFE" transform="matrix(1.00, 0.00, -0.00, -1.00, 431.2, 59.6)">n</text><text xml:space="preserve" font-family="GillSans-Light,Gill Sans" font-size="42.0" fill="#FEFFFE" transform="matrix(1.00, 0.00, -0.00, -1.00, 451.8, 59.6)"> </text><text xml:space="preserve" font-family="GillSans-Light,Gill Sans" font-size="42.0" fill="#FEFFFE" transform="matrix(1.00, 0.00, -0.00, -1.00, 38.6, 11.6)">a</text><text xml:space="preserve" font-family="GillSans-Light,Gill Sans" font-size="42.0" fill="#FEFFFE" transform="matrix(1.00, 0.00, -0.00, -1.00, 56.5, 11.6)">b</text><text xml:space="preserve" font-family="GillSans-Light,Gill Sans" font-size="42.0" fill="#FEFFFE" transform="matrix(1.00, 0.00, -0.00, -1.00, 77.9, 11.6)">o</text><text xml:space="preserve" font-family="GillSans-Light,Gill Sans" font-size="42.0" fill="#FEFFFE" transform="matrix(1.00, 0.00, -0.00, -1.00, 100.7, 11.6)">u</text><text xml:space="preserve" font-family="GillSans-Light,Gill Sans" font-size="42.0" fill="#FEFFFE" transform="matrix(1.00, 0.00, -0.00, -1.00, 121.3, 11.6)">t</text><text xml:space="preserve" font-family="GillSans-Light,Gill Sans" font-size="42.0" fill="#FEFFFE" transform="matrix(1.00, 0.00, -0.00, -1.00, 133.9, 11.6)"> </text><text xml:space="preserve" font-family="GillSans-Light,Gill Sans" font-size="42.0" fill="#FEFFFE" transform="matrix(1.00, 0.00, -0.00, -1.00, 145.6, 11.6)">p</text><text xml:space="preserve" font-family="GillSans-Light,Gill Sans" font-size="42.0" fill="#FEFFFE" transform="matrix(1.00, 0.00, -0.00, -1.00, 167.0, 11.6)">o</text><text xml:space="preserve" font-family="GillSans-Light,Gill Sans" font-size="42.0" fill="#FEFFFE" transform="matrix(1.00, 0.00, -0.00, -1.00, 189.7, 11.6)">s</text><text xml:space="preserve" font-family="GillSans-Light,Gill Sans" font-size="42.0" fill="#FEFFFE" transform="matrix(1.00, 0.00, -0.00, -1.00, 204.6, 11.6)">i</text><text xml:space="preserve" font-family="GillSans-Light,Gill Sans" font-size="42.0" fill="#FEFFFE" transform="matrix(1.00, 0.00, -0.00, -1.00, 212.5, 11.6)">t</text><text xml:space="preserve" font-family="GillSans-Light,Gill Sans" font-size="42.0" fill="#FEFFFE" transform="matrix(1.00, 0.00, -0.00, -1.00, 225.2, 11.6)">i</text><text xml:space="preserve" font-family="GillSans-Light,Gill Sans" font-size="42.0" fill="#FEFFFE" transform="matrix(1.00, 0.00, -0.00, -1.00, 233.1, 11.6)">o</text><text xml:space="preserve" font-family="GillSans-Light,Gill Sans" font-size="42.0" fill="#FEFFFE" transform="matrix(1.00, 0.00, -0.00, -1.00, 255.8, 11.6)">n</text></g></svg>