<?xml version="1.0" encoding="UTF-8" standalone="no"?><svg xmlns="http://www.w3.org/2000/svg" xmlns:xlink="http://www.w3.org/1999/xlink" clip-rule="evenodd" stroke-miterlimit="10" viewBox="0 0 110 110"><desc>SVG generated by Keynote</desc><defs></defs><g transform="matrix(1.00, 0.00, -0.00, -1.00, 0.0, 110.0)"><g><clipPath id="clip0x6000020add40"><path d="M 0.4 69.3 L 69.6 109.3 L 109.6 40.0 L 40.4 0.0 Z M 0.4 69.3 "></path></clipPath><g clip-path="url(#clip0x6000020add40)"><g opacity="0.54"><g><clipPath id="clip0x6000020ae3a0"><path d="M 1.0 1.0 L 109.0 1.0 L 109.0 108.0 L 1.0 108.0 Z M 1.0 1.0 "></path></clipPath><g clip-path="url(#clip0x6000020ae3a0)"><path d="M 64.1 88.5 C 82.7 83.5 93.8 64.3 88.8 45.6 C 83.8 26.9 64.6 15.8 45.9 20.8 C 27.3 25.8 16.2 45.0 21.2 63.7 C 26.2 82.4 45.4 93.5 64.1 88.5 Z M 64.1 88.5 " fill="#797F7D"></path><path d="M 75.4 80.6 C 75.3 81.0 74.3 81.3 74.2 81.6 M 75.4 80.6 C 73.8 80.0 72.5 80.9 70.5 81.7 C 68.5 82.8 71.3 82.8 71.3 83.5 C 68.9 85.5 68.3 84.5 68.0 82.9 C 67.5 84.3 63.4 83.7 64.7 85.4 C 69.7 83.8 61.3 87.1 65.9 86.7 C 66.5 86.8 65.4 87.7 64.9 87.9 C 66.6 88.2 64.3 90.0 67.0 89.7 C 67.7 90.8 67.1 90.5 69.0 90.7 C 69.8 90.6 69.3 90.3 69.2 90.1 C 68.9 88.6 71.4 90.0 72.2 88.6 C 74.2 89.7 74.3 87.1 73.0 86.9 C 74.1 86.5 76.4 87.4 76.7 85.6 C 77.8 85.9 80.0 83.4 77.7 83.7 C 76.2 83.9 77.0 82.5 76.9 82.1 C 76.3 82.0 75.2 83.6 74.7 83.5 C 75.0 82.9 76.5 81.0 74.5 82.5 C 74.8 81.5 73.6 81.9 75.4 80.6 C 75.4 80.6 75.4 80.6 75.4 80.6 Z M 67.6 84.0 C 67.4 83.5 68.4 83.7 67.6 84.0 C 67.6 84.0 67.6 84.0 67.6 84.0 Z M 76.3 86.9 C 76.0 86.5 77.1 86.5 76.3 86.9 C 76.3 86.9 76.3 86.9 76.3 86.9 Z M 69.6 89.9 C 69.4 89.5 70.5 89.6 69.6 89.9 C 69.6 89.9 69.6 89.9 69.6 89.9 Z M 69.7 83.3 C 71.1 83.1 69.0 84.5 68.7 84.1 C 68.9 84.1 69.3 83.1 69.7 83.3 C 69.7 83.3 69.7 83.3 69.7 83.3 Z M 71.3 85.9 C 71.3 85.6 71.8 85.3 71.9 85.8 C 71.7 86.1 71.2 86.1 71.3 85.9 C 71.3 85.9 71.3 85.9 71.3 85.9 Z M 63.9 86.5 C 64.0 86.3 64.5 86.1 64.6 86.6 C 64.3 86.8 63.9 86.7 63.9 86.5 C 63.9 86.5 63.9 86.5 63.9 86.5 Z M 71.7 83.8 C 72.1 83.7 72.4 84.0 72.1 84.3 C 71.8 84.2 70.9 84.6 71.7 83.8 C 71.7 83.8 71.7 83.8 71.7 83.8 Z M 72.6 81.2 C 73.7 80.9 72.2 82.7 72.1 82.5 C 71.6 82.4 71.9 81.2 72.6 81.2 C 72.6 81.2 72.6 81.2 72.6 81.2 Z M 72.7 84.0 C 73.6 83.8 72.5 84.6 72.7 84.0 C 72.7 84.0 72.7 84.0 72.7 84.0 Z M 66.0 89.8 C 67.1 89.8 65.6 90.3 66.0 89.8 C 66.0 89.8 66.0 89.8 66.0 89.8 Z M 71.9 89.2 C 73.0 88.9 71.6 89.7 71.9 89.2 C 71.9 89.2 71.9 89.2 71.9 89.2 Z M 67.9 85.3 C 66.3 85.9 67.2 84.2 67.9 85.3 C 67.9 85.3 67.9 85.3 67.9 85.3 Z M 74.6 79.7 C 73.3 80.6 73.6 78.8 74.6 79.7 C 74.6 79.7 74.6 79.7 74.6 79.7 Z M 61.2 86.3 C 62.6 85.7 56.6 85.0 59.1 86.7 C 59.9 88.2 55.9 88.5 56.8 86.9 C 55.7 86.8 55.7 86.7 55.0 87.4 C 54.8 86.2 52.3 85.5 51.3 86.0 C 50.7 87.0 53.1 86.3 51.5 87.3 C 48.1 87.2 51.6 88.5 50.0 89.6 C 49.9 89.6 49.9 88.9 49.5 89.3 C 49.2 90.5 51.3 91.6 50.2 92.5 C 50.8 92.3 53.5 93.9 52.4 92.8 C 52.1 91.5 55.5 94.3 55.2 92.3 C 56.2 93.2 57.1 91.9 58.1 93.0 C 58.9 93.1 58.8 92.1 58.6 91.8 C 58.5 90.9 59.8 93.8 60.7 92.0 C 60.8 92.5 64.0 91.7 61.5 91.5 C 62.2 91.5 65.9 91.0 63.6 89.8 C 61.0 89.6 65.6 87.5 62.8 88.0 C 60.7 88.3 60.4 88.7 61.7 87.5 C 62.2 87.5 64.5 86.8 62.4 86.5 C 62.0 86.8 61.0 86.8 61.2 86.3 C 61.2 86.3 61.2 86.3 61.2 86.3 Z M 62.1 88.7 C 60.9 89.1 61.9 88.1 62.1 88.7 C 62.1 88.7 62.1 88.7 62.1 88.7 Z M 58.0 93.4 C 56.6 93.6 57.8 92.7 58.0 93.4 C 58.0 93.4 58.0 93.4 58.0 93.4 Z M 57.6 86.3 C 57.1 86.9 56.7 85.1 57.6 86.3 C 57.6 86.3 57.6 86.3 57.6 86.3 Z M 60.1 91.7 C 60.0 91.7 60.3 91.4 60.5 91.3 C 60.5 91.4 60.2 91.6 60.1 91.7 C 60.1 91.7 60.1 91.7 60.1 91.7 Z M 55.7 86.4 C 54.1 87.4 55.3 85.0 55.7 86.4 C 55.7 86.4 55.7 86.4 55.7 86.4 Z M 52.2 88.1 C 51.9 89.9 50.5 87.5 52.2 88.1 C 52.2 88.1 52.2 88.1 52.2 88.1 Z M 54.6 92.2 C 55.0 91.8 54.9 92.4 54.6 92.2 C 54.6 92.2 54.6 92.2 54.6 92.2 Z M 63.3 91.5 C 63.5 91.1 63.7 91.7 63.3 91.5 C 63.3 91.5 63.3 91.5 63.3 91.5 Z M 52.2 91.9 C 52.4 91.3 52.9 92.3 52.2 91.9 C 52.2 91.9 52.2 91.9 52.2 91.9 Z M 57.3 87.1 C 58.8 85.5 59.4 89.1 57.3 87.1 C 57.3 87.1 57.3 87.1 57.3 87.1 Z M 60.1 86.6 C 61.1 86.2 60.1 87.6 59.5 87.4 C 59.6 87.3 59.9 86.7 60.1 86.6 C 60.1 86.6 60.1 86.6 60.1 86.6 Z M 55.7 87.3 C 56.7 86.6 56.7 87.7 55.7 87.3 C 55.7 87.3 55.7 87.3 55.7 87.3 Z M 58.3 86.4 C 58.9 86.5 57.9 86.6 58.3 86.4 C 58.3 86.4 58.3 86.4 58.3 86.4 Z M 53.6 85.8 C 54.1 86.0 53.2 86.0 53.6 85.8 C 53.6 85.8 53.6 85.8 53.6 85.8 Z M 61.3 85.7 C 61.8 85.7 60.9 85.9 61.3 85.7 C 61.3 85.7 61.3 85.7 61.3 85.7 Z M 54.0 86.8 C 53.9 87.4 55.3 89.0 52.6 87.6 C 52.2 87.1 53.4 86.2 54.0 86.8 C 54.0 86.8 54.0 86.8 54.0 86.8 Z M 78.6 77.8 C 72.8 80.8 76.0 82.1 76.2 82.9 C 76.1 84.2 77.1 84.2 78.6 83.8 C 81.2 84.7 78.7 80.7 81.0 81.6 C 84.4 82.5 80.5 78.4 83.4 79.9 C 83.8 80.7 85.1 78.1 84.8 78.2 C 86.8 78.1 85.7 74.9 85.5 74.7 C 86.3 74.2 88.9 75.5 88.3 72.1 C 88.7 69.8 91.6 70.1 89.5 69.9 C 92.2 69.3 89.4 68.7 90.6 67.4 C 92.1 66.8 88.9 66.9 91.7 65.6 C 90.2 64.3 93.0 66.8 92.6 61.2 C 92.0 63.8 91.6 58.5 92.6 59.7 C 93.7 61.7 92.5 57.1 93.3 54.6 C 92.6 53.9 90.8 51.1 92.6 51.4 C 94.5 48.6 91.0 49.0 92.5 47.6 C 93.1 46.6 91.5 46.5 91.5 45.9 C 92.5 44.7 91.5 44.0 90.7 40.8 C 88.7 33.7 87.3 41.0 85.8 39.0 C 85.0 38.9 82.6 43.8 85.0 41.3 C 84.3 42.0 89.2 45.6 85.0 44.4 C 87.0 45.8 83.7 44.3 86.2 47.7 C 87.5 42.0 88.3 53.3 86.2 48.6 C 85.6 49.6 86.1 51.6 86.4 50.0 C 88.6 49.1 85.8 53.8 88.3 51.3 C 87.9 54.7 90.2 53.8 88.5 54.7 C 85.5 55.5 89.3 54.6 88.3 56.2 C 88.2 60.0 85.0 56.7 86.9 59.2 C 84.9 62.5 88.1 60.2 88.2 61.5 C 90.1 62.3 85.8 64.7 86.2 62.0 C 86.9 63.7 85.2 62.0 86.0 63.9 C 88.1 63.3 83.4 65.3 85.0 65.3 C 85.0 66.8 86.3 66.5 86.2 67.0 C 85.3 69.1 83.9 67.6 85.0 68.6 C 85.4 69.4 82.8 69.2 83.2 69.8 C 84.3 67.9 84.0 72.4 83.0 72.1 C 83.6 70.8 80.5 71.3 81.3 72.8 C 85.3 74.3 79.3 73.7 79.8 75.4 C 82.2 76.1 76.7 79.1 77.5 76.8 C 77.5 77.1 78.6 77.8 78.6 77.8 M 83.2 70.5 C 84.2 69.0 82.6 72.4 83.2 70.5 M 82.6 70.2 C 83.7 70.0 81.3 71.4 82.4 70.0 C 82.4 70.0 82.5 70.3 82.6 70.2 M 85.4 63.4 C 86.0 63.8 84.8 64.3 85.4 63.4 M 87.1 62.3 C 88.0 61.3 86.9 64.0 87.1 62.3 M 86.1 44.9 C 89.9 45.6 84.8 47.3 86.1 44.9 M 86.8 56.5 C 87.2 58.5 85.5 55.7 86.8 56.5 M 87.7 57.1 C 88.1 58.2 86.9 57.3 87.7 57.1 M 87.0 48.3 C 87.0 48.1 87.0 48.1 87.0 48.3 C 87.0 48.3 87.0 48.3 87.0 48.3 Z M 85.6 43.1 C 85.5 43.1 85.5 43.1 85.6 43.1 C 85.6 43.1 85.6 43.1 85.6 43.1 Z M 87.9 53.3 C 87.2 55.0 87.5 50.7 87.9 53.3 C 87.9 53.3 87.9 53.3 87.9 53.3 Z M 91.4 44.1 C 91.5 44.1 91.5 44.1 91.4 44.1 C 91.4 44.1 91.4 44.1 91.4 44.1 Z M 83.7 72.6 C 83.7 72.6 83.7 72.6 83.7 72.6 C 83.7 72.6 83.7 72.6 83.7 72.6 Z M 79.2 76.4 C 79.6 76.7 78.3 77.0 79.2 76.4 C 79.2 76.4 79.2 76.4 79.2 76.4 Z M 78.4 82.7 C 78.4 82.7 78.4 82.7 78.4 82.7 C 78.4 82.7 78.4 82.7 78.4 82.7 Z M 84.1 75.3 C 84.1 75.3 84.1 75.3 84.1 75.3 C 84.1 75.3 84.1 75.3 84.1 75.3 Z M 82.5 73.1 C 80.4 72.8 84.2 71.6 82.5 73.1 C 82.5 73.1 82.5 73.1 82.5 73.1 Z M 92.7 55.4 C 91.9 55.3 93.0 53.8 92.7 55.4 C 92.7 55.4 92.7 55.4 92.7 55.4 Z M 87.9 62.3 C 87.6 62.0 88.3 61.5 87.9 62.3 C 87.9 62.3 87.9 62.3 87.9 62.3 Z M 84.6 64.6 C 84.3 64.3 85.1 63.9 84.6 64.6 C 84.6 64.6 84.6 64.6 84.6 64.6 Z M 78.9 76.0 C 78.9 75.8 78.9 75.8 78.9 76.0 C 78.9 76.0 78.9 76.0 78.9 76.0 Z M 81.3 75.4 C 79.0 75.4 83.5 74.2 81.3 75.4 C 81.3 75.4 81.3 75.4 81.3 75.4 Z M 80.1 77.6 C 81.1 77.5 78.6 78.8 80.1 77.6 M 83.1 78.2 C 83.8 76.3 84.4 81.6 83.1 78.2 C 83.1 78.2 83.1 78.2 83.1 78.2 Z M 89.0 70.2 C 89.1 70.1 89.1 70.1 89.0 70.2 C 89.0 70.2 89.0 70.2 89.0 70.2 Z M 83.9 68.9 C 84.7 67.6 83.9 69.9 83.9 68.9 C 83.9 68.9 83.9 68.9 83.9 68.9 Z M 75.7 78.9 C 76.9 77.9 75.2 79.8 75.7 78.9 C 75.7 78.9 75.7 78.9 75.7 78.9 Z M 89.4 64.2 C 89.8 61.5 89.8 66.1 89.4 64.2 C 89.4 64.2 89.4 64.2 89.4 64.2 Z M 88.6 54.2 C 88.7 54.1 88.7 54.1 88.6 54.2 C 88.6 54.2 88.6 54.2 88.6 54.2 Z M 87.8 52.4 C 87.9 52.4 87.9 52.4 87.8 52.4 C 87.8 52.4 87.8 52.4 87.8 52.4 Z M 88.2 44.5 C 88.2 44.3 88.2 44.3 88.2 44.5 C 88.2 44.5 88.2 44.5 88.2 44.5 Z M 86.8 50.9 C 86.9 50.9 86.9 50.9 86.8 50.9 C 86.8 50.9 86.8 50.9 86.8 50.9 Z M 86.3 45.8 C 86.3 45.6 86.3 45.6 86.3 45.8 C 86.3 45.8 86.3 45.8 86.3 45.8 Z M 85.0 46.8 C 85.0 46.7 85.0 46.7 85.0 46.8 C 85.0 46.8 85.0 46.8 85.0 46.8 Z M 93.5 58.3 C 93.6 58.2 93.6 58.2 93.5 58.3 C 93.5 58.3 93.5 58.3 93.5 58.3 Z M 80.1 73.6 C 80.3 73.6 80.3 73.6 80.1 73.6 C 80.1 73.6 80.1 73.6 80.1 73.6 Z M 87.1 46.0 C 87.1 45.9 87.1 45.9 87.1 46.0 C 87.1 46.0 87.1 46.0 87.1 46.0 Z M 89.4 58.8 C 90.9 58.9 87.3 59.6 89.3 58.4 C 89.4 58.5 89.1 58.8 89.4 58.8 M 92.0 57.2 C 92.1 57.3 92.1 57.3 92.0 57.2 C 92.0 57.2 92.0 57.2 92.0 57.2 Z M 92.0 63.6 C 92.0 63.7 92.0 63.7 92.0 63.6 C 92.0 63.6 92.0 63.6 92.0 63.6 Z M 86.6 51.8 C 85.8 52.1 87.2 50.4 86.7 52.0 M 90.7 43.6 C 90.0 44.1 90.8 41.8 90.8 43.8 M 74.7 80.4 C 74.9 81.1 73.7 80.7 74.7 80.4 M 92.4 65.2 C 92.9 65.6 91.7 66.3 92.4 65.2 M 91.2 61.9 C 90.3 62.0 92.1 60.5 91.2 62.1 M 91.7 48.1 C 91.7 48.0 91.7 48.0 91.7 48.1 C 91.7 48.1 91.7 48.1 91.7 48.1 Z M 85.0 66.9 C 85.1 66.8 85.1 66.8 85.0 66.9 C 85.0 66.9 85.0 66.9 85.0 66.9 Z M 88.6 60.8 C 87.3 61.5 89.6 59.7 88.6 60.8 M 86.1 69.5 C 84.2 70.1 87.4 67.7 86.1 69.5 M 89.9 40.3 C 88.9 42.6 90.2 38.7 89.9 40.3 M 88.0 49.6 C 86.5 51.4 88.7 48.3 88.0 49.6 M 86.2 65.9 C 85.3 65.6 87.2 64.6 86.2 65.9 M 77.2 78.0 C 76.1 78.9 78.1 76.3 77.2 78.0 M 92.3 52.4 C 92.4 52.3 92.4 52.3 92.3 52.4 C 92.3 52.4 92.3 52.4 92.3 52.4 Z M 85.5 78.8 C 85.6 78.8 85.6 78.8 85.5 78.8 C 85.5 78.8 85.5 78.8 85.5 78.8 Z M 83.8 40.6 C 83.8 40.5 83.8 40.5 83.8 40.6 C 83.8 40.6 83.8 40.6 83.8 40.6 Z M 88.9 50.4 C 89.0 50.3 89.0 50.3 88.9 50.4 C 88.9 50.4 88.9 50.4 88.9 50.4 Z M 84.8 43.4 C 84.8 43.3 84.8 43.3 84.8 43.4 C 84.8 43.4 84.8 43.4 84.8 43.4 Z M 90.5 55.4 C 90.6 55.4 90.6 55.4 90.5 55.4 C 90.5 55.4 90.5 55.4 90.5 55.4 Z M 86.1 56.2 C 86.1 56.2 86.1 56.2 86.1 56.2 C 86.1 56.2 86.1 56.2 86.1 56.2 Z M 87.3 61.5 C 87.3 61.4 87.3 61.4 87.3 61.5 C 87.3 61.5 87.3 61.5 87.3 61.5 Z M 86.5 54.0 C 86.1 51.0 88.0 55.5 86.5 54.0 C 86.5 54.0 86.5 54.0 86.5 54.0 Z M 90.5 59.7 C 90.6 59.7 90.6 59.7 90.5 59.7 C 90.5 59.7 90.5 59.7 90.5 59.7 Z M 87.4 59.7 C 86.4 57.6 89.6 59.0 87.4 59.7 M 84.0 67.4 C 83.7 66.6 85.1 67.5 84.0 67.4 M 87.6 73.1 C 87.7 73.2 87.7 73.2 87.6 73.1 C 87.6 73.1 87.6 73.1 87.6 73.1 Z M 87.7 72.0 C 87.8 72.0 87.8 72.0 87.7 72.0 C 87.7 72.0 87.7 72.0 87.7 72.0 Z M 83.0 69.0 C 83.0 69.0 83.0 69.0 83.0 69.0 C 83.0 69.0 83.0 69.0 83.0 69.0 Z M 89.2 72.7 C 89.3 72.6 89.3 72.6 89.2 72.7 C 89.2 72.7 89.2 72.7 89.2 72.7 Z M 86.1 57.4 C 86.2 57.3 86.2 57.3 86.1 57.4 C 86.1 57.4 86.1 57.4 86.1 57.4 Z M 83.6 42.3 C 83.6 42.2 83.6 42.2 83.6 42.3 C 83.6 42.3 83.6 42.3 83.6 42.3 Z M 80.8 81.0 C 80.9 81.0 80.9 81.0 80.8 81.0 C 80.8 81.0 80.8 81.0 80.8 81.0 Z M 88.0 55.9 C 88.0 55.8 88.0 55.8 88.0 55.9 C 88.0 55.9 88.0 55.9 88.0 55.9 Z M 86.1 75.1 C 86.2 75.1 86.2 75.1 86.1 75.1 C 86.1 75.1 86.1 75.1 86.1 75.1 Z M 87.5 56.9 C 87.6 56.8 87.6 56.8 87.5 56.9 C 87.5 56.9 87.5 56.9 87.5 56.9 Z M 92.7 52.9 C 92.7 52.8 92.7 52.8 92.7 52.9 C 92.7 52.9 92.7 52.9 92.7 52.9 Z M 93.3 48.8 C 93.3 48.7 93.3 48.7 93.3 48.8 C 93.3 48.8 93.3 48.8 93.3 48.8 Z M 89.6 53.3 C 89.7 53.2 89.7 53.2 89.6 53.3 C 89.6 53.3 89.6 53.3 89.6 53.3 Z M 83.9 75.0 C 78.8 79.5 86.3 70.4 83.9 75.0 M 89.9 52.1 C 89.9 56.9 88.0 48.5 89.9 52.1 C 89.4 51.7 89.9 52.1 89.9 52.1 M 82.5 39.6 C 84.7 40.4 86.2 39.8 87.3 38.3 C 87.6 37.1 84.7 38.6 87.1 37.3 C 88.7 39.0 90.2 34.3 87.2 36.2 C 85.2 33.7 88.8 34.5 86.6 33.7 C 84.5 31.1 86.4 31.9 84.5 30.1 C 82.1 30.2 84.2 28.3 82.5 29.1 C 84.8 28.6 80.2 27.6 80.8 26.9 C 83.3 27.5 74.1 21.4 78.4 25.5 C 75.9 24.8 77.2 23.8 76.7 23.1 C 75.2 23.5 73.7 20.1 71.8 20.5 C 72.0 20.9 72.6 21.3 72.6 21.7 C 72.6 22.6 71.2 20.8 71.4 21.0 C 70.3 20.9 66.2 20.4 70.9 20.3 C 71.5 19.5 67.6 19.4 68.0 18.6 C 64.6 17.3 66.6 20.1 65.5 18.3 C 63.0 17.5 61.1 17.2 61.1 17.5 C 59.5 17.0 59.3 15.9 57.8 16.8 C 54.7 14.5 55.5 20.8 54.2 16.7 C 53.3 17.7 52.3 15.1 52.6 17.6 C 53.6 16.3 46.7 16.3 49.9 17.7 C 49.2 18.4 44.3 16.2 45.6 18.6 C 44.5 20.8 45.5 22.4 48.7 23.5 C 48.1 22.2 51.9 24.5 49.4 22.4 C 46.7 22.0 53.8 21.0 52.4 22.0 C 52.3 25.1 55.9 20.0 57.2 22.3 C 56.1 21.0 61.7 21.0 59.8 23.0 C 60.8 23.4 61.2 22.3 62.0 23.9 C 59.0 23.0 63.8 21.9 63.2 23.2 C 62.5 23.8 66.8 26.0 66.8 24.6 C 66.3 21.1 67.6 25.6 68.9 24.9 C 71.6 25.4 67.3 27.0 70.2 25.9 C 70.5 26.5 73.4 28.3 71.2 27.7 C 70.7 27.0 74.9 26.0 73.7 28.4 C 69.7 27.4 76.5 31.7 76.1 30.3 C 72.6 25.4 81.7 33.3 77.4 31.2 C 78.3 34.1 76.5 31.0 79.2 33.0 C 79.5 32.1 81.8 33.5 80.1 34.1 C 78.5 36.1 83.5 32.9 81.8 36.5 C 80.7 37.6 84.8 39.3 82.6 38.9 C 82.4 38.9 82.4 39.5 82.5 39.6 M 82.2 38.5 C 82.9 38.6 81.9 39.4 82.2 38.5 M 82.9 38.6 C 82.9 38.7 82.9 38.7 82.9 38.6 C 82.9 38.6 82.9 38.6 82.9 38.6 Z M 79.6 33.3 C 79.5 33.3 79.5 33.3 79.6 33.3 C 79.6 33.3 79.6 33.3 79.6 33.3 Z M 80.1 24.9 C 80.1 25.0 80.1 25.0 80.1 24.9 C 80.1 24.9 80.1 24.9 80.1 24.9 Z M 76.7 30.2 C 76.7 30.2 76.7 30.2 76.7 30.2 C 76.7 30.2 76.7 30.2 76.7 30.2 Z M 81.3 34.8 C 81.3 34.8 81.3 34.8 81.3 34.8 C 81.3 34.8 81.3 34.8 81.3 34.8 Z M 76.4 31.1 C 76.8 30.2 76.9 32.6 76.2 31.2 C 76.2 31.1 76.4 31.3 76.4 31.1 M 72.0 28.2 C 72.0 28.1 72.0 28.1 72.0 28.2 M 62.8 16.6 C 62.8 16.5 62.8 16.5 62.8 16.6 M 60.3 23.8 C 60.2 23.6 60.2 23.6 60.3 23.8 M 67.7 24.9 C 66.2 24.4 67.5 24.3 67.7 24.9 M 56.1 22.8 C 58.2 23.5 53.9 23.2 56.1 22.8 M 54.1 23.3 C 53.9 23.3 53.9 23.3 54.1 23.3 M 63.3 24.1 C 63.3 24.0 63.3 24.0 63.3 24.1 C 63.3 24.1 63.3 24.1 63.3 24.1 Z M 68.2 25.5 C 69.9 26.9 65.9 25.4 68.2 25.5 M 78.4 33.3 C 77.3 32.8 79.3 32.5 78.4 33.3 M 80.4 34.8 C 80.4 34.8 80.4 34.8 80.4 34.8 C 80.4 34.8 80.4 34.8 80.4 34.8 Z M 59.4 23.1 C 59.5 23.1 59.5 23.1 59.4 23.1 C 59.4 23.1 59.4 23.1 59.4 23.1 Z M 57.0 23.1 C 57.1 23.0 57.1 23.0 57.0 23.1 C 57.0 23.1 57.0 23.1 57.0 23.1 Z M 52.6 16.1 C 52.7 16.1 52.7 16.1 52.6 16.1 C 52.6 16.1 52.6 16.1 52.6 16.1 Z M 81.4 31.5 C 82.2 33.1 78.5 31.8 80.0 30.9 C 80.4 30.2 81.1 31.5 81.4 31.5 M 70.6 24.3 C 71.3 22.0 70.6 28.0 70.6 24.3 M 53.7 21.8 C 51.9 19.1 55.9 23.7 53.7 21.8 M 50.4 22.6 C 49.3 22.2 56.6 21.6 51.6 22.9 C 51.2 23.4 50.7 22.9 50.4 22.6 M 72.5 27.2 C 72.8 25.9 74.4 29.1 72.5 27.2 M 64.4 19.4 C 63.3 20.0 61.0 20.2 62.3 19.0 C 62.6 17.2 65.6 19.0 64.4 19.4 M 83.1 37.4 C 80.6 37.3 84.6 36.5 83.1 37.4 M 79.3 32.1 C 79.2 32.1 79.2 32.1 79.3 32.1 C 79.3 32.1 79.3 32.1 79.3 32.1 Z M 77.2 30.5 C 77.3 30.3 77.3 30.3 77.2 30.5 M 81.0 37.5 C 81.0 37.3 81.0 37.3 81.0 37.5 M 63.9 21.5 C 63.8 21.3 63.8 21.3 63.9 21.5 M 68.4 24.6 C 67.0 21.7 69.8 24.7 68.4 24.6 M 75.9 24.2 C 75.8 22.9 77.4 25.1 75.9 24.2 M 64.4 23.9 C 63.3 21.5 67.2 22.8 64.4 23.9 M 69.4 25.3 C 69.3 25.2 69.3 25.2 69.4 25.3 C 69.4 25.3 69.4 25.3 69.4 25.3 Z M 63.8 19.0 C 63.8 19.0 63.8 19.0 63.8 19.0 C 63.8 19.0 63.8 19.0 63.8 19.0 Z M 62.9 18.9 C 63.0 18.9 63.0 18.9 62.9 18.9 C 62.9 18.9 62.9 18.9 62.9 18.9 Z M 62.3 23.6 C 62.4 23.6 62.4 23.6 62.3 23.6 C 62.3 23.6 62.3 23.6 62.3 23.6 Z M 84.8 31.6 C 83.6 30.0 86.0 32.7 84.8 31.6 C 84.8 31.6 84.8 31.6 84.8 31.6 Z M 74.9 29.8 C 73.7 26.9 77.4 29.9 74.9 29.8 C 74.9 29.8 74.9 29.8 74.9 29.8 Z M 73.7 25.8 C 73.8 25.7 73.8 25.7 73.7 25.8 C 73.7 25.8 73.7 25.8 73.7 25.8 Z M 65.0 25.4 C 65.1 25.3 65.1 25.3 65.0 25.4 C 65.0 25.4 65.0 25.4 65.0 25.4 Z M 84.3 30.7 C 84.4 30.6 84.4 30.6 84.3 30.7 C 84.3 30.7 84.3 30.7 84.3 30.7 Z M 57.6 21.8 C 57.6 21.7 57.6 21.7 57.6 21.8 C 57.6 21.8 57.6 21.8 57.6 21.8 Z M 68.9 20.4 C 68.0 20.8 69.0 19.7 68.9 20.4 C 68.9 20.4 68.9 20.4 68.9 20.4 Z M 66.2 19.3 C 66.1 19.3 66.1 19.3 66.2 19.3 C 66.2 19.3 66.2 19.3 66.2 19.3 Z M 53.5 23.5 C 53.4 23.5 53.4 23.5 53.5 23.5 C 53.5 23.5 53.5 23.5 53.5 23.5 Z M 59.0 16.0 C 58.9 16.0 58.9 16.0 59.0 16.0 C 59.0 16.0 59.0 16.0 59.0 16.0 Z M 56.3 18.1 C 56.3 18.1 56.3 18.1 56.3 18.1 C 56.3 18.1 56.3 18.1 56.3 18.1 Z M 62.9 23.2 C 60.3 23.0 63.6 22.5 62.9 23.2 C 62.9 23.2 62.9 23.2 62.9 23.2 Z M 49.0 19.2 C 48.9 19.1 48.9 19.1 49.0 19.2 C 49.0 19.2 49.0 19.2 49.0 19.2 Z M 48.0 22.2 C 47.9 22.0 47.9 22.0 48.0 22.2 C 48.0 22.2 48.0 22.2 48.0 22.2 Z M 47.7 23.7 C 47.6 23.6 47.6 23.6 47.7 23.7 C 47.7 23.7 47.7 23.7 47.7 23.7 Z M 79.2 28.4 C 79.2 28.5 79.2 28.5 79.2 28.4 C 79.2 28.4 79.2 28.4 79.2 28.4 Z M 77.0 32.3 C 77.0 32.4 77.0 32.4 77.0 32.3 C 77.0 32.3 77.0 32.3 77.0 32.3 Z M 74.3 30.3 C 74.3 30.3 74.3 30.3 74.3 30.3 C 74.3 30.3 74.3 30.3 74.3 30.3 Z M 81.6 27.0 C 81.6 27.1 81.6 27.1 81.6 27.0 C 81.6 27.0 81.6 27.0 81.6 27.0 Z M 67.3 22.3 C 67.3 22.4 67.3 22.4 67.3 22.3 C 67.3 22.3 67.3 22.3 67.3 22.3 Z M 66.7 20.2 C 66.7 20.3 66.7 20.3 66.7 20.2 C 66.7 20.2 66.7 20.2 66.7 20.2 Z M 70.8 19.2 C 70.8 19.3 70.8 19.3 70.8 19.2 C 70.8 19.2 70.8 19.2 70.8 19.2 Z M 66.1 18.4 C 66.1 18.4 66.1 18.4 66.1 18.4 C 66.1 18.4 66.1 18.4 66.1 18.4 Z M 87.3 35.6 C 87.4 35.6 87.4 35.6 87.3 35.6 C 87.3 35.6 87.3 35.6 87.3 35.6 Z M 84.6 37.6 C 84.7 37.5 84.7 37.5 84.6 37.6 C 84.6 37.6 84.6 37.6 84.6 37.6 Z M 66.1 24.4 C 65.3 24.9 65.3 23.1 66.1 24.4 M 70.8 26.1 C 70.8 26.1 70.8 26.1 70.8 26.1 C 70.8 26.1 70.8 26.1 70.8 26.1 Z M 58.0 22.5 C 57.4 21.1 60.3 23.4 58.0 22.5 C 58.0 22.5 58.0 22.5 58.0 22.5 Z M 61.6 17.3 C 61.5 17.3 61.5 17.3 61.6 17.3 C 61.6 17.3 61.6 17.3 61.6 17.3 Z M 60.0 17.6 C 59.9 17.5 59.9 17.5 60.0 17.6 C 60.0 17.6 60.0 17.6 60.0 17.6 Z M 51.8 21.1 C 51.7 20.9 51.7 20.9 51.8 21.1 M 70.7 27.4 C 70.4 26.6 70.5 26.7 70.7 27.4 M 56.3 22.3 C 56.3 22.3 56.3 22.3 56.3 22.3 C 56.3 22.3 56.3 22.3 56.3 22.3 Z M 50.2 22.0 C 50.3 22.0 50.3 22.0 50.2 22.0 C 50.2 22.0 50.2 22.0 50.2 22.0 Z M 74.1 28.6 C 75.0 27.2 75.3 27.9 74.1 28.6 M 81.5 35.2 C 81.6 35.2 81.6 35.2 81.5 35.2 C 81.5 35.2 81.5 35.2 81.5 35.2 Z M 42.5 25.4 C 45.7 25.9 44.9 23.7 44.9 23.6 C 45.6 27.0 47.1 21.6 46.3 21.1 C 46.3 20.6 41.9 15.7 41.1 19.9 C 40.7 20.5 39.9 19.7 39.5 19.8 C 35.8 21.6 42.5 20.3 38.4 22.4 C 37.4 22.3 36.8 19.4 35.4 22.5 C 35.2 22.3 31.9 23.2 33.6 23.6 C 31.6 23.4 31.8 25.3 30.9 26.4 C 29.5 26.7 30.1 24.1 28.1 28.4 C 25.1 28.2 27.7 31.4 24.6 31.2 C 23.8 32.1 26.2 36.0 25.8 32.5 C 25.8 32.9 28.3 32.8 25.8 35.1 C 25.7 34.4 22.8 30.4 21.9 36.3 C 21.3 37.0 21.4 39.4 20.8 39.7 C 21.5 36.9 17.6 42.7 19.1 42.5 C 16.8 46.4 19.4 44.4 17.4 47.4 C 16.8 50.1 19.3 46.8 17.8 50.0 C 17.7 52.5 16.8 50.7 16.9 50.4 C 16.5 52.6 17.3 53.5 17.2 54.2 C 17.0 54.7 16.1 55.8 17.2 56.3 C 19.3 58.5 21.1 56.3 23.1 57.1 C 23.9 55.5 21.6 56.5 23.0 55.4 C 21.8 54.7 22.9 55.3 23.0 51.4 C 22.7 51.4 21.8 52.3 21.7 51.3 C 22.0 49.8 25.1 51.4 23.3 48.5 C 22.0 51.3 23.2 44.1 21.9 46.7 C 22.3 43.1 22.3 45.7 23.9 43.6 C 21.8 43.0 26.2 44.3 24.9 42.7 C 25.8 42.9 27.0 39.1 24.6 41.2 C 25.8 37.2 25.9 40.0 27.6 39.4 C 28.6 37.9 24.5 37.4 27.5 37.8 C 29.8 36.4 26.4 36.9 29.1 36.7 C 27.1 36.3 30.2 35.3 28.1 34.6 C 30.5 31.1 29.4 36.4 30.2 33.2 C 29.6 33.8 31.8 35.4 31.7 32.9 C 28.8 31.2 35.4 33.2 31.4 31.1 C 34.8 26.0 33.3 31.6 35.8 29.7 C 36.4 29.2 34.2 29.1 34.7 28.6 C 38.5 26.5 36.2 29.6 36.9 26.6 C 40.2 23.9 38.9 27.5 40.7 26.7 C 40.4 25.7 41.3 23.4 42.5 25.4 M 38.7 26.1 C 38.3 27.1 37.9 25.8 38.7 26.1 M 46.9 23.8 C 46.2 24.7 46.2 23.3 46.9 23.8 M 36.1 28.5 C 35.6 29.7 35.2 27.8 36.1 28.5 M 22.9 45.7 C 23.3 44.2 23.3 46.6 22.9 45.7 M 43.8 25.0 C 42.9 26.2 43.0 24.0 43.8 25.0 M 44.7 22.9 C 44.6 22.9 44.6 22.9 44.7 22.9 M 24.1 48.2 C 24.1 48.3 24.1 48.3 24.1 48.2 M 25.8 42.8 C 25.3 43.9 25.6 42.0 25.8 42.8 M 19.3 39.9 C 18.6 41.2 19.2 38.9 19.3 39.9 M 23.7 51.4 C 24.1 52.6 22.9 51.6 23.7 51.4 M 22.0 54.6 C 22.6 55.8 21.2 55.3 22.0 54.6 M 38.2 23.5 C 38.2 23.4 38.2 23.4 38.2 23.5 C 38.2 23.5 38.2 23.5 38.2 23.5 Z M 27.6 29.6 C 29.1 29.0 25.7 30.3 27.6 29.6 M 32.4 31.3 C 30.8 30.9 33.7 30.2 32.4 31.3 C 32.4 31.3 32.4 31.3 32.4 31.3 Z M 33.4 29.6 C 33.3 29.5 33.3 29.5 33.4 29.6 C 33.4 29.6 33.4 29.6 33.4 29.6 Z M 29.0 34.0 C 29.0 33.9 29.0 33.9 29.0 34.0 C 29.0 34.0 29.0 34.0 29.0 34.0 Z M 29.7 32.9 C 29.8 32.3 30.4 32.6 29.7 32.9 C 29.7 32.9 29.7 32.9 29.7 32.9 Z M 20.6 38.5 C 20.6 37.8 21.3 37.9 20.6 38.5 C 20.6 38.5 20.6 38.5 20.6 38.5 Z M 30.7 31.1 C 29.8 30.0 32.0 31.1 30.7 31.1 C 30.7 31.1 30.7 31.1 30.7 31.1 Z M 23.6 34.6 C 23.6 35.3 21.7 34.9 23.6 34.6 M 23.6 49.4 C 23.9 50.0 22.1 50.3 23.6 49.4 M 28.4 37.9 C 28.5 38.6 26.7 38.1 28.4 37.9 M 38.4 27.0 C 38.2 26.9 38.2 26.9 38.4 27.0 M 28.3 26.8 C 28.0 27.9 27.5 26.7 28.3 26.8 M 40.8 19.3 C 40.0 20.2 40.1 18.9 40.8 19.3 M 17.4 46.1 C 17.8 46.2 16.9 47.6 17.4 46.1 M 25.7 38.0 C 24.9 39.0 23.6 39.6 24.9 37.5 C 25.3 37.6 25.1 38.3 25.7 38.0 C 25.7 38.0 25.7 38.0 25.7 38.0 Z M 20.8 40.5 C 20.6 40.6 20.6 40.6 20.8 40.5 M 25.9 40.4 C 25.7 40.5 25.7 40.5 25.9 40.4 M 23.5 46.6 C 23.3 46.6 23.3 46.6 23.5 46.6 M 23.7 47.4 C 23.7 47.4 23.7 47.4 23.7 47.4 C 23.7 47.4 23.7 47.4 23.7 47.4 Z M 23.5 54.6 C 23.4 54.6 23.4 54.6 23.5 54.6 C 23.5 54.6 23.5 54.6 23.5 54.6 Z M 23.9 44.5 C 23.9 44.4 23.9 44.4 23.9 44.5 C 23.9 44.5 23.9 44.5 23.9 44.5 Z M 17.1 49.6 C 17.0 49.6 17.0 49.6 17.1 49.6 C 17.1 49.6 17.1 49.6 17.1 49.6 Z M 18.1 48.9 C 18.0 48.9 18.0 48.9 18.1 48.9 C 18.1 48.9 18.1 48.9 18.1 48.9 Z M 42.0 25.6 C 41.4 26.9 40.4 23.5 42.0 25.6 M 17.7 52.6 C 16.6 53.6 17.6 50.6 17.7 52.6 C 17.7 52.6 17.7 52.6 17.7 52.6 Z M 23.0 43.3 C 22.8 43.3 22.8 43.3 23.0 43.3 M 23.5 47.8 C 23.3 47.9 23.3 47.9 23.5 47.8 M 33.4 32.3 C 33.2 32.2 33.2 32.2 33.4 32.3 M 22.5 52.8 C 22.0 56.0 20.5 51.3 22.5 52.8 M 33.4 30.3 C 33.6 30.3 33.6 30.3 33.4 30.3 M 26.6 33.8 C 25.4 35.6 26.4 32.7 26.6 33.8 M 25.3 39.5 C 25.2 39.4 25.2 39.4 25.3 39.5 C 25.3 39.5 25.3 39.5 25.3 39.5 Z M 26.8 36.7 C 27.5 35.3 27.4 36.6 26.8 36.7 C 26.8 36.7 26.8 36.7 26.8 36.7 Z M 40.0 25.0 C 38.1 25.8 41.7 23.7 40.0 25.0 C 40.0 25.0 40.0 25.0 40.0 25.0 Z M 19.3 51.1 C 19.2 51.0 19.2 51.0 19.3 51.1 C 19.3 51.1 19.3 51.1 19.3 51.1 Z M 25.0 44.4 C 24.9 43.5 25.5 44.2 25.0 44.4 C 25.0 44.4 25.0 44.4 25.0 44.4 Z M 23.5 55.7 C 23.1 54.8 23.9 55.3 23.5 55.7 C 23.5 55.7 23.5 55.7 23.5 55.7 Z M 42.4 24.2 C 34.5 24.9 51.9 21.0 42.4 24.2 C 42.4 24.2 42.4 24.2 42.4 24.2 Z M 27.0 38.3 C 27.0 38.2 27.0 38.2 27.0 38.3 C 27.0 38.3 27.0 38.3 27.0 38.3 Z M 36.3 29.4 C 36.3 29.3 36.3 29.3 36.3 29.4 C 36.3 29.4 36.3 29.4 36.3 29.4 Z M 37.4 27.0 C 37.4 26.9 37.4 26.9 37.4 27.0 C 37.4 27.0 37.4 27.0 37.4 27.0 Z M 33.7 22.6 C 33.7 22.6 33.7 22.6 33.7 22.6 C 33.7 22.6 33.7 22.6 33.7 22.6 Z M 34.5 25.3 C 34.4 25.1 34.4 25.1 34.5 25.3 C 34.5 25.3 34.5 25.3 34.5 25.3 Z M 38.5 21.8 C 38.5 21.6 38.5 21.6 38.5 21.8 C 38.5 21.8 38.5 21.8 38.5 21.8 Z M 38.0 21.1 C 38.0 21.1 38.0 21.1 38.0 21.1 C 38.0 21.1 38.0 21.1 38.0 21.1 Z M 21.9 47.5 C 21.8 47.4 21.8 47.4 21.9 47.5 C 21.9 47.5 21.9 47.5 21.9 47.5 Z M 20.3 44.3 C 20.6 46.3 19.3 43.4 20.3 44.3 C 20.3 44.3 20.3 44.3 20.3 44.3 Z M 29.1 31.0 C 28.2 32.4 29.3 29.7 29.1 31.0 C 29.1 31.0 29.1 31.0 29.1 31.0 Z M 25.6 30.4 C 25.5 30.4 25.5 30.4 25.6 30.4 C 25.6 30.4 25.6 30.4 25.6 30.4 Z M 38.1 28.2 C 38.1 28.0 38.1 28.0 38.1 28.2 C 38.1 28.2 38.1 28.2 38.1 28.2 Z M 40.1 25.9 C 39.6 24.8 41.2 26.1 40.1 25.9 M 29.9 35.4 C 29.8 35.3 29.8 35.3 29.9 35.4 C 29.9 35.4 29.9 35.4 29.9 35.4 Z M 23.9 42.2 C 23.8 42.2 23.8 42.2 23.9 42.2 C 23.9 42.2 23.9 42.2 23.9 42.2 Z M 22.4 51.2 C 22.3 51.1 22.3 51.1 22.4 51.2 C 22.4 51.2 22.4 51.2 22.4 51.2 Z M 26.8 39.9 C 26.7 39.8 26.7 39.8 26.8 39.9 C 26.8 39.9 26.8 39.9 26.8 39.9 Z M 28.1 35.7 C 28.0 35.6 28.0 35.6 28.1 35.7 C 28.1 35.7 28.1 35.7 28.1 35.7 Z M 20.6 53.1 C 20.5 53.0 20.5 53.0 20.6 53.1 C 20.6 53.1 20.6 53.1 20.6 53.1 Z M 26.6 40.8 C 26.5 40.8 26.5 40.8 26.6 40.8 C 26.6 40.8 26.6 40.8 26.6 40.8 Z M 22.0 41.7 C 22.0 41.6 22.0 41.6 22.0 41.7 C 22.0 41.7 22.0 41.7 22.0 41.7 Z M 40.5 27.6 C 40.5 27.6 40.5 27.6 40.5 27.6 C 40.5 27.6 40.5 27.6 40.5 27.6 Z M 22.2 53.3 C 22.1 53.2 22.1 53.2 22.2 53.3 C 22.2 53.3 22.2 53.3 22.2 53.3 Z M 23.2 53.8 C 23.2 53.8 23.2 53.8 23.2 53.8 C 23.2 53.8 23.2 53.8 23.2 53.8 Z M 18.4 46.4 C 19.9 43.1 18.0 49.6 19.8 47.4 C 19.1 52.3 18.2 47.2 18.4 46.4 C 18.4 46.4 18.4 46.4 18.4 46.4 Z M 23.8 58.0 C 22.0 56.5 20.5 56.4 18.9 57.4 C 18.2 58.5 21.4 58.1 18.7 58.5 C 17.9 56.2 14.7 60.0 18.2 59.5 C 19.1 62.5 16.0 60.4 17.8 62.0 C 18.8 65.3 17.4 63.9 18.4 66.4 C 20.7 67.3 18.0 68.2 20.0 68.2 C 17.7 67.7 21.6 70.5 20.8 71.0 C 18.7 69.4 25.1 78.7 22.6 73.2 C 24.6 74.9 23.0 75.3 23.3 76.1 C 24.8 76.4 25.0 80.0 26.9 80.4 C 26.9 80.0 26.5 79.4 26.6 78.9 C 26.9 78.1 27.6 80.3 27.5 80.1 C 28.5 80.5 32.1 82.5 27.7 80.9 C 26.9 81.4 30.5 83.0 29.8 83.5 C 32.6 86.0 31.6 82.6 32.1 84.8 C 34.1 86.4 35.7 87.3 35.8 87.1 C 37.1 88.0 36.9 89.2 38.6 88.8 C 40.6 92.1 42.1 86.0 41.8 90.3 C 43.0 89.7 42.9 92.5 43.6 90.0 C 42.2 90.8 48.3 93.3 46.0 90.8 C 46.9 90.4 50.4 94.3 50.2 91.6 C 51.9 90.0 51.6 88.1 49.2 85.9 C 49.3 87.4 46.7 83.8 48.2 86.7 C 50.4 88.0 43.8 86.4 45.4 85.9 C 46.6 83.2 41.5 86.5 41.2 84.0 C 41.7 85.6 36.5 83.5 39.0 82.4 C 38.2 81.7 37.4 82.5 37.3 80.8 C 39.8 82.7 34.9 82.0 35.9 81.0 C 36.8 80.6 33.6 77.1 33.1 78.4 C 32.2 81.8 32.7 77.1 31.2 77.3 C 28.9 75.8 33.5 75.9 30.4 75.9 C 30.4 75.3 28.2 72.5 30.1 73.8 C 30.3 74.7 26.0 74.0 28.0 72.3 C 31.4 74.7 26.5 68.0 26.4 69.6 C 27.9 75.5 22.2 64.4 25.5 68.1 C 25.7 65.1 26.2 68.8 24.5 65.8 C 23.9 66.5 22.2 64.2 24.0 64.3 C 26.3 63.0 20.4 64.1 23.3 61.3 C 24.7 60.7 21.6 57.4 23.5 58.6 C 23.6 58.7 23.9 58.1 23.8 58.0 M 23.7 59.2 C 23.1 58.9 24.3 58.4 23.7 59.2 M 23.1 58.8 C 23.1 58.8 23.1 58.8 23.1 58.8 C 23.1 58.8 23.1 58.8 23.1 58.8 Z M 24.2 65.3 C 24.3 65.3 24.3 65.3 24.2 65.3 C 24.2 65.3 24.2 65.3 24.2 65.3 Z M 20.7 73.1 C 20.8 73.0 20.8 73.0 20.7 73.1 C 20.7 73.1 20.7 73.1 20.7 73.1 Z M 25.8 69.4 C 25.8 69.4 25.8 69.4 25.8 69.4 C 25.8 69.4 25.8 69.4 25.8 69.4 Z M 23.2 63.2 C 23.2 63.1 23.2 63.1 23.2 63.2 C 23.2 63.2 23.2 63.2 23.2 63.2 Z M 26.5 68.6 C 25.7 69.4 26.4 67.0 26.6 68.7 C 26.6 68.7 26.5 68.5 26.5 68.6 M 29.6 73.1 C 29.5 73.2 29.5 73.2 29.6 73.1 M 33.9 87.3 C 33.9 87.4 33.9 87.4 33.9 87.3 M 38.8 81.5 C 38.8 81.6 38.8 81.6 38.8 81.5 M 32.3 77.7 C 33.6 78.8 32.3 78.4 32.3 77.7 M 42.3 83.9 C 40.7 82.5 44.5 84.3 42.3 83.9 M 44.3 84.1 C 44.5 84.2 44.5 84.2 44.3 84.1 M 36.2 80.1 C 36.1 80.2 36.1 80.2 36.2 80.1 C 36.2 80.1 36.2 80.1 36.2 80.1 Z M 32.1 77.0 C 31.0 75.1 34.3 77.9 32.1 77.0 M 25.4 65.8 C 26.2 66.7 24.2 66.2 25.4 65.8 M 24.0 63.5 C 24.0 63.5 24.0 63.5 24.0 63.5 C 24.0 63.5 24.0 63.5 24.0 63.5 Z M 39.4 82.4 C 39.3 82.4 39.3 82.4 39.4 82.4 C 39.4 82.4 39.4 82.4 39.4 82.4 Z M 41.6 83.3 C 41.5 83.3 41.5 83.3 41.6 83.3 C 41.6 83.3 41.6 83.3 41.6 83.3 Z M 43.0 91.3 C 42.9 91.3 42.9 91.3 43.0 91.3 C 43.0 91.3 43.0 91.3 43.0 91.3 Z M 21.9 66.3 C 21.7 64.4 24.7 67.2 23.0 67.5 C 22.4 67.9 22.1 66.4 21.9 66.3 M 29.5 77.2 C 28.0 79.1 30.8 73.9 29.5 77.2 M 44.1 85.7 C 44.7 88.9 42.8 83.1 44.1 85.7 M 47.4 86.1 C 48.2 86.9 41.5 84.8 46.4 85.4 C 47.0 85.1 47.2 85.8 47.4 86.1 M 28.7 73.8 C 27.9 75.0 27.6 71.4 28.7 73.8 M 33.4 84.1 C 34.6 83.9 36.9 84.5 35.3 85.2 C 34.3 86.7 32.2 84.0 33.4 84.1 M 22.5 59.9 C 24.8 61.0 20.7 60.2 22.5 59.9 M 24.1 66.6 C 24.2 66.6 24.2 66.6 24.1 66.6 C 24.1 66.6 24.1 66.6 24.1 66.6 Z M 25.4 68.9 C 25.3 69.1 25.3 69.1 25.4 68.9 M 24.5 60.7 C 24.3 60.8 24.3 60.8 24.5 60.7 M 34.7 82.3 C 34.7 82.5 34.7 82.5 34.7 82.3 M 31.6 77.8 C 31.9 81.0 30.4 77.2 31.6 77.8 M 24.4 75.3 C 24.1 76.6 23.4 73.9 24.4 75.3 M 35.1 79.9 C 35.2 82.5 32.1 79.9 35.1 79.9 M 30.9 76.8 C 31.0 76.9 31.0 76.9 30.9 76.8 C 30.9 76.8 30.9 76.8 30.9 76.8 Z M 33.9 84.7 C 33.8 84.7 33.8 84.7 33.9 84.7 C 33.9 84.7 33.9 84.7 33.9 84.7 Z M 34.6 85.1 C 34.5 85.1 34.5 85.1 34.6 85.1 C 34.6 85.1 34.6 85.1 34.6 85.1 Z M 36.9 80.9 C 36.8 80.9 36.8 80.9 36.9 80.9 C 36.9 80.9 36.9 80.9 36.9 80.9 Z M 18.8 64.8 C 19.2 66.9 18.0 63.3 18.8 64.8 C 18.8 64.8 18.8 64.8 18.8 64.8 Z M 27.4 70.4 C 27.4 73.7 25.1 69.4 27.4 70.4 C 27.4 70.4 27.4 70.4 27.4 70.4 Z M 27.0 74.6 C 26.9 74.7 26.9 74.7 27.0 74.6 C 27.0 74.6 27.0 74.6 27.0 74.6 Z M 35.0 78.3 C 35.0 78.3 35.0 78.3 35.0 78.3 C 35.0 78.3 35.0 78.3 35.0 78.3 Z M 18.8 65.9 C 18.7 65.9 18.7 65.9 18.8 65.9 C 18.8 65.9 18.8 65.9 18.8 65.9 Z M 40.6 84.3 C 40.6 84.4 40.6 84.4 40.6 84.3 C 40.6 84.3 40.6 84.3 40.6 84.3 Z M 29.6 81.6 C 30.6 81.5 29.3 82.1 29.6 81.6 C 29.6 81.6 29.6 81.6 29.6 81.6 Z M 31.8 83.5 C 31.9 83.5 31.9 83.5 31.8 83.5 C 31.8 83.5 31.8 83.5 31.8 83.5 Z M 45.0 84.2 C 45.1 84.2 45.1 84.2 45.0 84.2 C 45.0 84.2 45.0 84.2 45.0 84.2 Z M 37.2 89.2 C 37.3 89.2 37.3 89.2 37.2 89.2 C 37.2 89.2 37.2 89.2 37.2 89.2 Z M 40.5 88.2 C 40.4 88.2 40.4 88.2 40.5 88.2 C 40.5 88.2 40.5 88.2 40.5 88.2 Z M 36.3 81.1 C 38.6 82.2 35.3 81.4 36.3 81.1 C 36.3 81.1 36.3 81.1 36.3 81.1 Z M 47.4 89.8 C 47.5 89.9 47.5 89.9 47.4 89.8 C 47.4 89.8 47.4 89.8 47.4 89.8 Z M 49.3 87.4 C 49.4 87.5 49.4 87.5 49.3 87.4 C 49.3 87.4 49.3 87.4 49.3 87.4 Z M 50.2 86.1 C 50.2 86.2 50.2 86.2 50.2 86.1 C 50.2 86.1 50.2 86.1 50.2 86.1 Z M 22.8 70.1 C 22.9 70.0 22.9 70.0 22.8 70.1 C 22.8 70.1 22.8 70.1 22.8 70.1 Z M 26.3 67.3 C 26.3 67.2 26.3 67.2 26.3 67.3 C 26.3 67.3 26.3 67.3 26.3 67.3 Z M 28.1 70.3 C 28.1 70.2 28.1 70.2 28.1 70.3 C 28.1 70.3 28.1 70.3 28.1 70.3 Z M 20.1 70.5 C 20.1 70.5 20.1 70.5 20.1 70.5 C 20.1 70.5 20.1 70.5 20.1 70.5 Z M 31.8 80.4 C 31.8 80.2 31.8 80.2 31.8 80.4 C 31.8 80.4 31.8 80.4 31.8 80.4 Z M 31.6 82.6 C 31.6 82.5 31.6 82.5 31.6 82.6 C 31.6 82.6 31.6 82.6 31.6 82.6 Z M 27.5 81.9 C 27.5 81.9 27.5 81.9 27.5 81.9 C 27.5 81.9 27.5 81.9 27.5 81.9 Z M 31.5 84.4 C 31.5 84.4 31.5 84.4 31.5 84.4 C 31.5 84.4 31.5 84.4 31.5 84.4 Z M 17.8 59.9 C 17.8 59.9 17.8 59.9 17.8 59.9 C 17.8 59.9 17.8 59.9 17.8 59.9 Z M 21.1 59.2 C 21.0 59.1 21.0 59.1 21.1 59.2 C 21.1 59.2 21.1 59.2 21.1 59.2 Z M 33.7 78.8 C 34.6 78.7 34.0 80.3 33.7 78.8 M 29.9 75.5 C 29.9 75.5 29.9 75.5 29.9 75.5 C 29.9 75.5 29.9 75.5 29.9 75.5 Z M 40.5 83.5 C 40.5 85.0 38.7 81.9 40.5 83.5 C 40.5 83.5 40.5 83.5 40.5 83.5 Z M 35.3 87.1 C 35.3 87.1 35.3 87.1 35.3 87.1 C 35.3 87.1 35.3 87.1 35.3 87.1 Z M 36.9 87.3 C 36.9 87.5 36.9 87.5 36.9 87.3 C 36.9 87.3 36.9 87.3 36.9 87.3 Z M 45.5 87.0 C 45.6 87.2 45.6 87.2 45.5 87.0 M 30.4 74.3 C 30.4 75.2 30.4 75.0 30.4 74.3 M 42.0 84.3 C 41.9 84.3 41.9 84.3 42.0 84.3 C 42.0 84.3 42.0 84.3 42.0 84.3 Z M 47.3 86.7 C 47.2 86.8 47.2 86.8 47.3 86.7 C 47.3 86.7 47.3 86.7 47.3 86.7 Z M 27.7 71.9 C 26.4 72.9 26.3 72.1 27.7 71.9 M 23.1 62.6 C 23.0 62.6 23.0 62.6 23.1 62.6 C 23.1 62.6 23.1 62.6 23.1 62.6 Z M 23.1 62.6 " fill="#797F7D"></path></g></g></g></g></g><g><clipPath id="clip0x6000020ae640"><path d="M 23.4 67.1 L 40.8 77.2 L 67.4 31.1 L 50.0 21.1 Z M 23.4 67.1 "></path></clipPath><g clip-path="url(#clip0x6000020ae640)"><path d="M 41.9 68.0 C 50.0 61.1 58.1 47.1 60.0 36.6 C 62.0 26.2 57.0 23.3 48.9 30.2 C 40.9 37.1 32.8 51.2 30.8 61.6 C 28.9 72.0 33.8 74.9 41.9 68.0 Z M 41.9 68.0 " fill="#353837"></path></g></g><g><clipPath id="clip0x6000020ae880"><path d="M 42.6 78.2 L 60.0 88.2 L 86.6 42.2 L 69.2 32.1 Z M 42.6 78.2 "></path></clipPath><g clip-path="url(#clip0x6000020ae880)"><path d="M 61.1 79.1 C 69.1 72.2 77.2 58.1 79.2 47.7 C 81.1 37.3 76.1 34.4 68.1 41.3 C 60.0 48.2 51.9 62.2 50.0 72.7 C 48.0 83.1 53.0 85.9 61.1 79.1 Z M 61.1 79.1 " fill="#B4B4B4"></path></g></g></g></svg>