<?xml version="1.0" encoding="UTF-8" standalone="no"?><svg xmlns="http://www.w3.org/2000/svg" xmlns:xlink="http://www.w3.org/1999/xlink" clip-rule="evenodd" stroke-miterlimit="10" viewBox="0 0 389 110"><desc>SVG generated by Keynote</desc><defs></defs><g transform="matrix(1.00, 0.00, -0.00, -1.00, 0.0, 110.0)"><text xml:space="preserve" font-family="GillSans-Light,Gill Sans" font-size="26.7" fill="#FEFFFE" transform="matrix(1.00, 0.00, -0.00, -1.00, 1.0, 85.9)">•</text><text xml:space="preserve" font-family="GillSans-Light,Gill Sans" font-size="32.5" fill="#FEFFFE" transform="matrix(1.00, 0.00, -0.00, -1.00, 30.1, 83.8)">I</text><text xml:space="preserve" font-family="GillSans-Light,Gill Sans" font-size="32.5" fill="#FEFFFE" transform="matrix(1.00, 0.00, -0.00, -1.00, 36.8, 83.8)">n</text><text xml:space="preserve" font-family="GillSans-Light,Gill Sans" font-size="32.5" fill="#FEFFFE" transform="matrix(1.00, 0.00, -0.00, -1.00, 52.8, 83.8)"> </text><text xml:space="preserve" font-family="GillSans-Light,Gill Sans" font-size="32.5" fill="#FEFFFE" transform="matrix(1.00, 0.00, -0.00, -1.00, 61.8, 83.8)">c</text><text xml:space="preserve" font-family="GillSans-Light,Gill Sans" font-size="32.5" fill="#FEFFFE" transform="matrix(1.00, 0.00, -0.00, -1.00, 75.4, 83.8)">o</text><text xml:space="preserve" font-family="GillSans-Light,Gill Sans" font-size="32.5" fill="#FEFFFE" transform="matrix(1.00, 0.00, -0.00, -1.00, 93.0, 83.8)">n</text><text xml:space="preserve" font-family="GillSans-Light,Gill Sans" font-size="32.5" fill="#FEFFFE" transform="matrix(1.00, 0.00, -0.00, -1.00, 108.9, 83.8)">t</text><text xml:space="preserve" font-family="GillSans-Light,Gill Sans" font-size="32.5" fill="#FEFFFE" transform="matrix(1.00, 0.00, -0.00, -1.00, 118.7, 83.8)">r</text><text xml:space="preserve" font-family="GillSans-Light,Gill Sans" font-size="32.5" fill="#FEFFFE" transform="matrix(1.00, 0.00, -0.00, -1.00, 130.3, 83.8)">a</text><text xml:space="preserve" font-family="GillSans-Light,Gill Sans" font-size="32.5" fill="#FEFFFE" transform="matrix(1.00, 0.00, -0.00, -1.00, 144.2, 83.8)">s</text><text xml:space="preserve" font-family="GillSans-Light,Gill Sans" font-size="32.5" fill="#FEFFFE" transform="matrix(1.00, 0.00, -0.00, -1.00, 155.7, 83.8)">t</text><text xml:space="preserve" font-family="GillSans-Light,Gill Sans" font-size="32.5" fill="#FEFFFE" transform="matrix(1.00, 0.00, -0.00, -1.00, 165.5, 83.8)">,</text><text xml:space="preserve" font-family="GillSans-Light,Gill Sans" font-size="32.5" fill="#FEFFFE" transform="matrix(1.00, 0.00, -0.00, -1.00, 168.6, 83.8)"> </text><text xml:space="preserve" font-family="GillSans-Light,Gill Sans" font-size="32.5" fill="#FEFFFE" transform="matrix(1.00, 0.00, -0.00, -1.00, 177.7, 83.8)">c</text><text xml:space="preserve" font-family="GillSans-Light,Gill Sans" font-size="32.5" fill="#FEFFFE" transform="matrix(1.00, 0.00, -0.00, -1.00, 191.2, 83.8)">o</text><text xml:space="preserve" font-family="GillSans-Light,Gill Sans" font-size="32.5" fill="#FEFFFE" transform="matrix(1.00, 0.00, -0.00, -1.00, 208.8, 83.8)">m</text><text xml:space="preserve" font-family="GillSans-Light,Gill Sans" font-size="32.5" fill="#FEFFFE" transform="matrix(1.00, 0.00, -0.00, -1.00, 233.9, 83.8)">p</text><text xml:space="preserve" font-family="GillSans-Light,Gill Sans" font-size="32.5" fill="#FEFFFE" transform="matrix(1.00, 0.00, -0.00, -1.00, 250.5, 83.8)">l</text><text xml:space="preserve" font-family="GillSans-Light,Gill Sans" font-size="32.5" fill="#FEFFFE" transform="matrix(1.00, 0.00, -0.00, -1.00, 256.6, 83.8)">e</text><text xml:space="preserve" font-family="GillSans-Light,Gill Sans" font-size="32.5" fill="#FEFFFE" transform="matrix(1.00, 0.00, -0.00, -1.00, 272.1, 83.8)">x</text><text xml:space="preserve" font-family="GillSans-Light,Gill Sans" font-size="32.5" fill="#FEFFFE" transform="matrix(1.00, 0.00, -0.00, -1.00, 287.7, 83.8)"> </text><text xml:space="preserve" font-family="GillSans-Light,Gill Sans" font-size="32.5" fill="#FEFFFE" transform="matrix(1.00, 0.00, -0.00, -1.00, 296.7, 83.8)">o</text><text xml:space="preserve" font-family="GillSans-Light,Gill Sans" font-size="32.5" fill="#FEFFFE" transform="matrix(1.00, 0.00, -0.00, -1.00, 314.3, 83.8)">b</text><text xml:space="preserve" font-family="GillSans-Light,Gill Sans" font-size="32.5" fill="#FEFFFE" transform="matrix(1.00, 0.00, -0.00, -1.00, 330.9, 83.8)">j</text><text xml:space="preserve" font-family="GillSans-Light,Gill Sans" font-size="32.5" fill="#FEFFFE" transform="matrix(1.00, 0.00, -0.00, -1.00, 337.0, 83.8)">e</text><text xml:space="preserve" font-family="GillSans-Light,Gill Sans" font-size="32.5" fill="#FEFFFE" transform="matrix(1.00, 0.00, -0.00, -1.00, 352.6, 83.8)">c</text><text xml:space="preserve" font-family="GillSans-Light,Gill Sans" font-size="32.5" fill="#FEFFFE" transform="matrix(1.00, 0.00, -0.00, -1.00, 366.1, 83.8)">t</text><text xml:space="preserve" font-family="GillSans-Light,Gill Sans" font-size="32.5" fill="#FEFFFE" transform="matrix(1.00, 0.00, -0.00, -1.00, 375.9, 83.8)">s</text><text xml:space="preserve" font-family="GillSans-Light,Gill Sans" font-size="32.5" fill="#FEFFFE" transform="matrix(1.00, 0.00, -0.00, -1.00, 387.4, 83.8)"> </text><text xml:space="preserve" font-family="GillSans-Light,Gill Sans" font-size="32.5" fill="#FEFFFE" transform="matrix(1.00, 0.00, -0.00, -1.00, 30.1, 46.8)">s</text><text xml:space="preserve" font-family="GillSans-Light,Gill Sans" font-size="32.5" fill="#FEFFFE" transform="matrix(1.00, 0.00, -0.00, -1.00, 41.6, 46.8)">h</text><text xml:space="preserve" font-family="GillSans-Light,Gill Sans" font-size="32.5" fill="#FEFFFE" transform="matrix(1.00, 0.00, -0.00, -1.00, 57.5, 46.8)">o</text><text xml:space="preserve" font-family="GillSans-Light,Gill Sans" font-size="32.5" fill="#FEFFFE" transform="matrix(1.00, 0.00, -0.00, -1.00, 74.6, 46.8)">w</text><text xml:space="preserve" font-family="GillSans-Light,Gill Sans" font-size="32.5" fill="#FEFFFE" transform="matrix(1.00, 0.00, -0.00, -1.00, 97.7, 46.8)"> </text><text xml:space="preserve" font-family="GillSans-Light,Gill Sans" font-size="32.5" fill="#FEFFFE" transform="matrix(1.00, 0.00, -0.00, -1.00, 106.7, 46.8)">c</text><text xml:space="preserve" font-family="GillSans-Light,Gill Sans" font-size="32.5" fill="#FEFFFE" transform="matrix(1.00, 0.00, -0.00, -1.00, 120.2, 46.8)">r</text><text xml:space="preserve" font-family="GillSans-Light,Gill Sans" font-size="32.5" fill="#FEFFFE" transform="matrix(1.00, 0.00, -0.00, -1.00, 131.1, 46.8)">o</text><text xml:space="preserve" font-family="GillSans-Light,Gill Sans" font-size="32.5" fill="#FEFFFE" transform="matrix(1.00, 0.00, -0.00, -1.00, 148.2, 46.8)">w</text><text xml:space="preserve" font-family="GillSans-Light,Gill Sans" font-size="32.5" fill="#FEFFFE" transform="matrix(1.00, 0.00, -0.00, -1.00, 171.2, 46.8)">d</text><text xml:space="preserve" font-family="GillSans-Light,Gill Sans" font-size="32.5" fill="#FEFFFE" transform="matrix(1.00, 0.00, -0.00, -1.00, 187.8, 46.8)">i</text><text xml:space="preserve" font-family="GillSans-Light,Gill Sans" font-size="32.5" fill="#FEFFFE" transform="matrix(1.00, 0.00, -0.00, -1.00, 193.9, 46.8)">n</text><text xml:space="preserve" font-family="GillSans-Light,Gill Sans" font-size="32.5" fill="#FEFFFE" transform="matrix(1.00, 0.00, -0.00, -1.00, 209.8, 46.8)">g</text><text xml:space="preserve" font-family="GillSans-Light,Gill Sans" font-size="32.5" fill="#FEFFFE" transform="matrix(1.00, 0.00, -0.00, -1.00, 223.7, 46.8)"> </text><text xml:space="preserve" font-family="GillSans-Light,Gill Sans" font-size="32.5" fill="#FEFFFE" transform="matrix(1.00, 0.00, -0.00, -1.00, 232.7, 46.8)">w</text><text xml:space="preserve" font-family="GillSans-Light,Gill Sans" font-size="32.5" fill="#FEFFFE" transform="matrix(1.00, 0.00, -0.00, -1.00, 255.7, 46.8)">i</text><text xml:space="preserve" font-family="GillSans-Light,Gill Sans" font-size="32.5" fill="#FEFFFE" transform="matrix(1.00, 0.00, -0.00, -1.00, 261.8, 46.8)">t</text><text xml:space="preserve" font-family="GillSans-Light,Gill Sans" font-size="32.5" fill="#FEFFFE" transform="matrix(1.00, 0.00, -0.00, -1.00, 271.6, 46.8)">h</text><text xml:space="preserve" font-family="GillSans-Light,Gill Sans" font-size="32.5" fill="#FEFFFE" transform="matrix(1.00, 0.00, -0.00, -1.00, 287.5, 46.8)"> </text><text xml:space="preserve" font-family="GillSans-Light,Gill Sans" font-size="32.5" fill="#FEFFFE" transform="matrix(1.00, 0.00, -0.00, -1.00, 296.6, 46.8)">n</text><text xml:space="preserve" font-family="GillSans-Light,Gill Sans" font-size="32.5" fill="#FEFFFE" transform="matrix(1.00, 0.00, -0.00, -1.00, 312.5, 46.8)">o</text><text xml:space="preserve" font-family="GillSans-Light,Gill Sans" font-size="32.5" fill="#FEFFFE" transform="matrix(1.00, 0.00, -0.00, -1.00, 330.1, 46.8)"> </text><text xml:space="preserve" font-family="GillSans-Light,Gill Sans" font-size="32.5" fill="#FEFFFE" transform="matrix(1.00, 0.00, -0.00, -1.00, 30.1, 9.8)">a</text><text xml:space="preserve" font-family="GillSans-Light,Gill Sans" font-size="32.5" fill="#FEFFFE" transform="matrix(1.00, 0.00, -0.00, -1.00, 43.1, 9.8)">v</text><text xml:space="preserve" font-family="GillSans-Light,Gill Sans" font-size="32.5" fill="#FEFFFE" transform="matrix(1.00, 0.00, -0.00, -1.00, 56.5, 9.8)">e</text><text xml:space="preserve" font-family="GillSans-Light,Gill Sans" font-size="32.5" fill="#FEFFFE" transform="matrix(1.00, 0.00, -0.00, -1.00, 72.1, 9.8)">r</text><text xml:space="preserve" font-family="GillSans-Light,Gill Sans" font-size="32.5" fill="#FEFFFE" transform="matrix(1.00, 0.00, -0.00, -1.00, 83.7, 9.8)">a</text><text xml:space="preserve" font-family="GillSans-Light,Gill Sans" font-size="32.5" fill="#FEFFFE" transform="matrix(1.00, 0.00, -0.00, -1.00, 97.6, 9.8)">g</text><text xml:space="preserve" font-family="GillSans-Light,Gill Sans" font-size="32.5" fill="#FEFFFE" transform="matrix(1.00, 0.00, -0.00, -1.00, 111.4, 9.8)">i</text><text xml:space="preserve" font-family="GillSans-Light,Gill Sans" font-size="32.5" fill="#FEFFFE" transform="matrix(1.00, 0.00, -0.00, -1.00, 117.5, 9.8)">n</text><text xml:space="preserve" font-family="GillSans-Light,Gill Sans" font-size="32.5" fill="#FEFFFE" transform="matrix(1.00, 0.00, -0.00, -1.00, 133.5, 9.8)">g</text><text xml:space="preserve" font-family="GillSans-Light,Gill Sans" font-size="32.5" fill="#FEFFFE" transform="matrix(1.00, 0.00, -0.00, -1.00, 147.3, 9.8)"> </text><text xml:space="preserve" font-family="GillSans-Light,Gill Sans" font-size="32.5" fill="#FEFFFE" transform="matrix(1.00, 0.00, -0.00, -1.00, 156.4, 9.8)">(</text><text xml:space="preserve" font-family="GillSans-Light,Gill Sans" font-size="32.5" fill="#FEFFFE" transform="matrix(1.00, 0.00, -0.00, -1.00, 167.2, 9.8)">a</text><text xml:space="preserve" font-family="GillSans-Light,Gill Sans" font-size="32.5" fill="#FEFFFE" transform="matrix(1.00, 0.00, -0.00, -1.00, 181.0, 9.8)"> </text><text xml:space="preserve" font-family="GillSans-Light,Gill Sans" font-size="32.5" fill="#FEFFFE" transform="matrix(1.00, 0.00, -0.00, -1.00, 186.8, 9.8)">“</text><text xml:space="preserve" font-family="GillSans-Light,Gill Sans" font-size="32.5" fill="#FEFFFE" transform="matrix(1.00, 0.00, -0.00, -1.00, 199.7, 9.8)">j</text><text xml:space="preserve" font-family="GillSans-Light,Gill Sans" font-size="32.5" fill="#FEFFFE" transform="matrix(1.00, 0.00, -0.00, -1.00, 205.8, 9.8)">u</text><text xml:space="preserve" font-family="GillSans-Light,Gill Sans" font-size="32.5" fill="#FEFFFE" transform="matrix(1.00, 0.00, -0.00, -1.00, 221.7, 9.8)">m</text><text xml:space="preserve" font-family="GillSans-Light,Gill Sans" font-size="32.5" fill="#FEFFFE" transform="matrix(1.00, 0.00, -0.00, -1.00, 246.8, 9.8)">b</text><text xml:space="preserve" font-family="GillSans-Light,Gill Sans" font-size="32.5" fill="#FEFFFE" transform="matrix(1.00, 0.00, -0.00, -1.00, 262.9, 9.8)">l</text><text xml:space="preserve" font-family="GillSans-Light,Gill Sans" font-size="32.5" fill="#FEFFFE" transform="matrix(1.00, 0.00, -0.00, -1.00, 269.0, 9.8)">e</text><text xml:space="preserve" font-family="GillSans-Light,Gill Sans" font-size="32.5" fill="#FEFFFE" transform="matrix(1.00, 0.00, -0.00, -1.00, 284.5, 9.8)">”</text><text xml:space="preserve" font-family="GillSans-Light,Gill Sans" font-size="32.5" fill="#FEFFFE" transform="matrix(1.00, 0.00, -0.00, -1.00, 297.4, 9.8)">)</text></g></svg>