<?xml version="1.0" encoding="UTF-8" standalone="no"?><svg xmlns="http://www.w3.org/2000/svg" xmlns:xlink="http://www.w3.org/1999/xlink" clip-rule="evenodd" stroke-miterlimit="10" viewBox="0 0 386 138"><desc>SVG generated by Keynote</desc><defs></defs><g transform="matrix(1.00, 0.00, -0.00, -1.00, 0.0, 138.0)"><text xml:space="preserve" font-family="AppleSymbols,Apple Symbols" font-size="32.5" fill="#FEFFFE" transform="matrix(1.00, 0.00, -0.00, -1.00, 183.5, 124.1)">∴</text><text xml:space="preserve" font-family="GillSans-Light,Gill Sans" font-size="32.5" fill="#FEFFFE" transform="matrix(1.00, 0.00, -0.00, -1.00, 203.1, 124.1)"> </text><text xml:space="preserve" font-family="LucidaGrande,Lucida Grande" font-size="32.5" fill="#FEFFFE" transform="matrix(1.00, 0.00, -0.00, -1.00, 212.1, 124.1)"> </text><text xml:space="preserve" font-family="GillSans-Light,Gill Sans" font-size="32.5" fill="#FEFFFE" transform="matrix(1.00, 0.00, -0.00, -1.00, 14.9, 84.0)">F</text><text xml:space="preserve" font-family="GillSans-Light,Gill Sans" font-size="32.5" fill="#FEFFFE" transform="matrix(1.00, 0.00, -0.00, -1.00, 29.2, 84.0)">i</text><text xml:space="preserve" font-family="GillSans-Light,Gill Sans" font-size="32.5" fill="#FEFFFE" transform="matrix(1.00, 0.00, -0.00, -1.00, 35.3, 84.0)">r</text><text xml:space="preserve" font-family="GillSans-Light,Gill Sans" font-size="32.5" fill="#FEFFFE" transform="matrix(1.00, 0.00, -0.00, -1.00, 47.4, 84.0)">s</text><text xml:space="preserve" font-family="GillSans-Light,Gill Sans" font-size="32.5" fill="#FEFFFE" transform="matrix(1.00, 0.00, -0.00, -1.00, 58.9, 84.0)">t</text><text xml:space="preserve" font-family="GillSans-Light,Gill Sans" font-size="32.5" fill="#FEFFFE" transform="matrix(1.00, 0.00, -0.00, -1.00, 68.7, 84.0)">-</text><text xml:space="preserve" font-family="GillSans-Light,Gill Sans" font-size="32.5" fill="#FEFFFE" transform="matrix(1.00, 0.00, -0.00, -1.00, 78.9, 84.0)">o</text><text xml:space="preserve" font-family="GillSans-Light,Gill Sans" font-size="32.5" fill="#FEFFFE" transform="matrix(1.00, 0.00, -0.00, -1.00, 96.5, 84.0)">r</text><text xml:space="preserve" font-family="GillSans-Light,Gill Sans" font-size="32.5" fill="#FEFFFE" transform="matrix(1.00, 0.00, -0.00, -1.00, 107.3, 84.0)">d</text><text xml:space="preserve" font-family="GillSans-Light,Gill Sans" font-size="32.5" fill="#FEFFFE" transform="matrix(1.00, 0.00, -0.00, -1.00, 123.9, 84.0)">e</text><text xml:space="preserve" font-family="GillSans-Light,Gill Sans" font-size="32.5" fill="#FEFFFE" transform="matrix(1.00, 0.00, -0.00, -1.00, 139.4, 84.0)">r</text><text xml:space="preserve" font-family="GillSans-Light,Gill Sans" font-size="32.5" fill="#FEFFFE" transform="matrix(1.00, 0.00, -0.00, -1.00, 150.3, 84.0)"> </text><text xml:space="preserve" font-family="GillSans-Light,Gill Sans" font-size="32.5" fill="#FEFFFE" transform="matrix(1.00, 0.00, -0.00, -1.00, 159.3, 84.0)">m</text><text xml:space="preserve" font-family="GillSans-Light,Gill Sans" font-size="32.5" fill="#FEFFFE" transform="matrix(1.00, 0.00, -0.00, -1.00, 184.3, 84.0)">o</text><text xml:space="preserve" font-family="GillSans-Light,Gill Sans" font-size="32.5" fill="#FEFFFE" transform="matrix(1.00, 0.00, -0.00, -1.00, 202.0, 84.0)">t</text><text xml:space="preserve" font-family="GillSans-Light,Gill Sans" font-size="32.5" fill="#FEFFFE" transform="matrix(1.00, 0.00, -0.00, -1.00, 211.8, 84.0)">i</text><text xml:space="preserve" font-family="GillSans-Light,Gill Sans" font-size="32.5" fill="#FEFFFE" transform="matrix(1.00, 0.00, -0.00, -1.00, 217.9, 84.0)">o</text><text xml:space="preserve" font-family="GillSans-Light,Gill Sans" font-size="32.5" fill="#FEFFFE" transform="matrix(1.00, 0.00, -0.00, -1.00, 235.5, 84.0)">n</text><text xml:space="preserve" font-family="GillSans-Light,Gill Sans" font-size="32.5" fill="#FEFFFE" transform="matrix(1.00, 0.00, -0.00, -1.00, 251.4, 84.0)"> </text><text xml:space="preserve" font-family="GillSans-Light,Gill Sans" font-size="32.5" fill="#FEFFFE" transform="matrix(1.00, 0.00, -0.00, -1.00, 260.4, 84.0)">i</text><text xml:space="preserve" font-family="GillSans-Light,Gill Sans" font-size="32.5" fill="#FEFFFE" transform="matrix(1.00, 0.00, -0.00, -1.00, 266.6, 84.0)">s</text><text xml:space="preserve" font-family="GillSans-Light,Gill Sans" font-size="32.5" fill="#FEFFFE" transform="matrix(1.00, 0.00, -0.00, -1.00, 278.1, 84.0)"> </text><text xml:space="preserve" font-family="GillSans-Light,Gill Sans" font-size="32.5" fill="#FEFFFE" transform="matrix(1.00, 0.00, -0.00, -1.00, 287.1, 84.0)">a</text><text xml:space="preserve" font-family="GillSans-Light,Gill Sans" font-size="32.5" fill="#FEFFFE" transform="matrix(1.00, 0.00, -0.00, -1.00, 300.9, 84.0)"> </text><text xml:space="preserve" font-family="GillSans-Light,Gill Sans" font-size="32.5" fill="#FEFFFE" transform="matrix(1.00, 0.00, -0.00, -1.00, 310.0, 84.0)">b</text><text xml:space="preserve" font-family="GillSans-Light,Gill Sans" font-size="32.5" fill="#FEFFFE" transform="matrix(1.00, 0.00, -0.00, -1.00, 326.5, 84.0)">a</text><text xml:space="preserve" font-family="GillSans-Light,Gill Sans" font-size="32.5" fill="#FEFFFE" transform="matrix(1.00, 0.00, -0.00, -1.00, 340.4, 84.0)">s</text><text xml:space="preserve" font-family="GillSans-Light,Gill Sans" font-size="32.5" fill="#FEFFFE" transform="matrix(1.00, 0.00, -0.00, -1.00, 351.9, 84.0)">i</text><text xml:space="preserve" font-family="GillSans-Light,Gill Sans" font-size="32.5" fill="#FEFFFE" transform="matrix(1.00, 0.00, -0.00, -1.00, 358.0, 84.0)">c</text><text xml:space="preserve" font-family="GillSans-Light,Gill Sans" font-size="32.5" fill="#FEFFFE" transform="matrix(1.00, 0.00, -0.00, -1.00, 371.6, 84.0)"> </text><text xml:space="preserve" font-family="GillSans-Light,Gill Sans" font-size="32.5" fill="#FEFFFE" transform="matrix(1.00, 0.00, -0.00, -1.00, 2.1, 47.0)">f</text><text xml:space="preserve" font-family="GillSans-Light,Gill Sans" font-size="32.5" fill="#FEFFFE" transform="matrix(1.00, 0.00, -0.00, -1.00, 9.4, 47.0)">e</text><text xml:space="preserve" font-family="GillSans-Light,Gill Sans" font-size="32.5" fill="#FEFFFE" transform="matrix(1.00, 0.00, -0.00, -1.00, 25.0, 47.0)">a</text><text xml:space="preserve" font-family="GillSans-Light,Gill Sans" font-size="32.5" fill="#FEFFFE" transform="matrix(1.00, 0.00, -0.00, -1.00, 38.8, 47.0)">t</text><text xml:space="preserve" font-family="GillSans-Light,Gill Sans" font-size="32.5" fill="#FEFFFE" transform="matrix(1.00, 0.00, -0.00, -1.00, 48.6, 47.0)">u</text><text xml:space="preserve" font-family="GillSans-Light,Gill Sans" font-size="32.5" fill="#FEFFFE" transform="matrix(1.00, 0.00, -0.00, -1.00, 64.6, 47.0)">r</text><text xml:space="preserve" font-family="GillSans-Light,Gill Sans" font-size="32.5" fill="#FEFFFE" transform="matrix(1.00, 0.00, -0.00, -1.00, 75.4, 47.0)">e</text><text xml:space="preserve" font-family="GillSans-Light,Gill Sans" font-size="32.5" fill="#FEFFFE" transform="matrix(1.00, 0.00, -0.00, -1.00, 91.0, 47.0)"> </text><text xml:space="preserve" font-family="GillSans-Light,Gill Sans" font-size="32.5" fill="#FEFFFE" transform="matrix(1.00, 0.00, -0.00, -1.00, 100.0, 47.0)">(</text><text xml:space="preserve" font-family="GillSans-Light,Gill Sans" font-size="32.5" fill="#FEFFFE" transform="matrix(1.00, 0.00, -0.00, -1.00, 110.8, 47.0)">c</text><text xml:space="preserve" font-family="GillSans-Light,Gill Sans" font-size="32.5" fill="#FEFFFE" transform="matrix(1.00, 0.00, -0.00, -1.00, 124.4, 47.0)">o</text><text xml:space="preserve" font-family="GillSans-Light,Gill Sans" font-size="32.5" fill="#FEFFFE" transform="matrix(1.00, 0.00, -0.00, -1.00, 142.0, 47.0)">m</text><text xml:space="preserve" font-family="GillSans-Light,Gill Sans" font-size="32.5" fill="#FEFFFE" transform="matrix(1.00, 0.00, -0.00, -1.00, 167.0, 47.0)">p</text><text xml:space="preserve" font-family="GillSans-Light,Gill Sans" font-size="32.5" fill="#FEFFFE" transform="matrix(1.00, 0.00, -0.00, -1.00, 183.6, 47.0)">u</text><text xml:space="preserve" font-family="GillSans-Light,Gill Sans" font-size="32.5" fill="#FEFFFE" transform="matrix(1.00, 0.00, -0.00, -1.00, 199.5, 47.0)">t</text><text xml:space="preserve" font-family="GillSans-Light,Gill Sans" font-size="32.5" fill="#FEFFFE" transform="matrix(1.00, 0.00, -0.00, -1.00, 209.3, 47.0)">e</text><text xml:space="preserve" font-family="GillSans-Light,Gill Sans" font-size="32.5" fill="#FEFFFE" transform="matrix(1.00, 0.00, -0.00, -1.00, 224.9, 47.0)">d</text><text xml:space="preserve" font-family="GillSans-Light,Gill Sans" font-size="32.5" fill="#FEFFFE" transform="matrix(1.00, 0.00, -0.00, -1.00, 241.5, 47.0)"> </text><text xml:space="preserve" font-family="GillSans-Light,Gill Sans" font-size="32.5" fill="#FEFFFE" transform="matrix(1.00, 0.00, -0.00, -1.00, 250.5, 47.0)">b</text><text xml:space="preserve" font-family="GillSans-Light,Gill Sans" font-size="32.5" fill="#FEFFFE" transform="matrix(1.00, 0.00, -0.00, -1.00, 267.0, 47.0)">e</text><text xml:space="preserve" font-family="GillSans-Light,Gill Sans" font-size="32.5" fill="#FEFFFE" transform="matrix(1.00, 0.00, -0.00, -1.00, 282.6, 47.0)">f</text><text xml:space="preserve" font-family="GillSans-Light,Gill Sans" font-size="32.5" fill="#FEFFFE" transform="matrix(1.00, 0.00, -0.00, -1.00, 290.1, 47.0)">o</text><text xml:space="preserve" font-family="GillSans-Light,Gill Sans" font-size="32.5" fill="#FEFFFE" transform="matrix(1.00, 0.00, -0.00, -1.00, 307.7, 47.0)">r</text><text xml:space="preserve" font-family="GillSans-Light,Gill Sans" font-size="32.5" fill="#FEFFFE" transform="matrix(1.00, 0.00, -0.00, -1.00, 318.5, 47.0)">e</text><text xml:space="preserve" font-family="GillSans-Light,Gill Sans" font-size="32.5" fill="#FEFFFE" transform="matrix(1.00, 0.00, -0.00, -1.00, 334.1, 47.0)"> </text><text xml:space="preserve" font-family="GillSans-Light,Gill Sans" font-size="32.5" fill="#FEFFFE" transform="matrix(1.00, 0.00, -0.00, -1.00, 343.1, 47.0)">t</text><text xml:space="preserve" font-family="GillSans-Light,Gill Sans" font-size="32.5" fill="#FEFFFE" transform="matrix(1.00, 0.00, -0.00, -1.00, 352.9, 47.0)">h</text><text xml:space="preserve" font-family="GillSans-Light,Gill Sans" font-size="32.5" fill="#FEFFFE" transform="matrix(1.00, 0.00, -0.00, -1.00, 368.9, 47.0)">e</text><text xml:space="preserve" font-family="GillSans-Light,Gill Sans" font-size="32.5" fill="#FEFFFE" transform="matrix(1.00, 0.00, -0.00, -1.00, 384.4, 47.0)"> </text><text xml:space="preserve" font-family="GillSans-Light,Gill Sans" font-size="32.5" fill="#FEFFFE" transform="matrix(1.00, 0.00, -0.00, -1.00, 56.1, 10.0)">c</text><text xml:space="preserve" font-family="GillSans-Light,Gill Sans" font-size="32.5" fill="#FEFFFE" transform="matrix(1.00, 0.00, -0.00, -1.00, 69.6, 10.0)">r</text><text xml:space="preserve" font-family="GillSans-Light,Gill Sans" font-size="32.5" fill="#FEFFFE" transform="matrix(1.00, 0.00, -0.00, -1.00, 80.5, 10.0)">o</text><text xml:space="preserve" font-family="GillSans-Light,Gill Sans" font-size="32.5" fill="#FEFFFE" transform="matrix(1.00, 0.00, -0.00, -1.00, 97.6, 10.0)">w</text><text xml:space="preserve" font-family="GillSans-Light,Gill Sans" font-size="32.5" fill="#FEFFFE" transform="matrix(1.00, 0.00, -0.00, -1.00, 120.6, 10.0)">d</text><text xml:space="preserve" font-family="GillSans-Light,Gill Sans" font-size="32.5" fill="#FEFFFE" transform="matrix(1.00, 0.00, -0.00, -1.00, 137.2, 10.0)">i</text><text xml:space="preserve" font-family="GillSans-Light,Gill Sans" font-size="32.5" fill="#FEFFFE" transform="matrix(1.00, 0.00, -0.00, -1.00, 143.3, 10.0)">n</text><text xml:space="preserve" font-family="GillSans-Light,Gill Sans" font-size="32.5" fill="#FEFFFE" transform="matrix(1.00, 0.00, -0.00, -1.00, 159.2, 10.0)">g</text><text xml:space="preserve" font-family="GillSans-Light,Gill Sans" font-size="32.5" fill="#FEFFFE" transform="matrix(1.00, 0.00, -0.00, -1.00, 173.1, 10.0)"> </text><text xml:space="preserve" font-family="GillSans-Light,Gill Sans" font-size="32.5" fill="#FEFFFE" transform="matrix(1.00, 0.00, -0.00, -1.00, 182.1, 10.0)">b</text><text xml:space="preserve" font-family="GillSans-Light,Gill Sans" font-size="32.5" fill="#FEFFFE" transform="matrix(1.00, 0.00, -0.00, -1.00, 198.7, 10.0)">o</text><text xml:space="preserve" font-family="GillSans-Light,Gill Sans" font-size="32.5" fill="#FEFFFE" transform="matrix(1.00, 0.00, -0.00, -1.00, 216.3, 10.0)">t</text><text xml:space="preserve" font-family="GillSans-Light,Gill Sans" font-size="32.5" fill="#FEFFFE" transform="matrix(1.00, 0.00, -0.00, -1.00, 226.1, 10.0)">t</text><text xml:space="preserve" font-family="GillSans-Light,Gill Sans" font-size="32.5" fill="#FEFFFE" transform="matrix(1.00, 0.00, -0.00, -1.00, 235.9, 10.0)">l</text><text xml:space="preserve" font-family="GillSans-Light,Gill Sans" font-size="32.5" fill="#FEFFFE" transform="matrix(1.00, 0.00, -0.00, -1.00, 242.0, 10.0)">e</text><text xml:space="preserve" font-family="GillSans-Light,Gill Sans" font-size="32.5" fill="#FEFFFE" transform="matrix(1.00, 0.00, -0.00, -1.00, 257.5, 10.0)">n</text><text xml:space="preserve" font-family="GillSans-Light,Gill Sans" font-size="32.5" fill="#FEFFFE" transform="matrix(1.00, 0.00, -0.00, -1.00, 273.5, 10.0)">e</text><text xml:space="preserve" font-family="GillSans-Light,Gill Sans" font-size="32.5" fill="#FEFFFE" transform="matrix(1.00, 0.00, -0.00, -1.00, 289.1, 10.0)">c</text><text xml:space="preserve" font-family="GillSans-Light,Gill Sans" font-size="32.5" fill="#FEFFFE" transform="matrix(1.00, 0.00, -0.00, -1.00, 302.6, 10.0)">k</text><text xml:space="preserve" font-family="GillSans-Light,Gill Sans" font-size="32.5" fill="#FEFFFE" transform="matrix(1.00, 0.00, -0.00, -1.00, 316.5, 10.0)">)</text><text xml:space="preserve" font-family="GillSans-Light,Gill Sans" font-size="32.5" fill="#FEFFFE" transform="matrix(1.00, 0.00, -0.00, -1.00, 327.3, 10.0)">,</text><text xml:space="preserve" font-family="GillSans-Light,Gill Sans" font-size="32.5" fill="#FEFFFE" transform="matrix(1.00, 0.00, -0.00, -1.00, 330.4, 10.0)"> </text></g></svg>