<?xml version="1.0" encoding="UTF-8" standalone="no"?><svg xmlns="http://www.w3.org/2000/svg" xmlns:xlink="http://www.w3.org/1999/xlink" clip-rule="evenodd" stroke-miterlimit="10" viewBox="0 0 336 91"><desc>SVG generated by Keynote</desc><defs></defs><g transform="matrix(1.00, 0.00, -0.00, -1.00, 0.0, 91.0)"><image xlink:href="../../3D6EDF0D-40D7-4E65-A116-901A72ACC3F4/assets/E3BD2084E7BE51E8D632FA6149CDDD8E.png" width="334.00" height="87.00" transform="matrix(1.00, 0.00, -0.00, -1.00, 1.0, 89.0)"></image><text xml:space="preserve" font-family="GillSans-Light,Gill Sans" font-size="85.4" fill="#FEFFFE" transform="matrix(1.00, 0.00, -0.00, -1.00, 1.1, 26.8)">C</text><text xml:space="preserve" font-family="GillSans-Light,Gill Sans" font-size="85.4" fill="#FEFFFE" transform="matrix(1.00, 0.00, -0.00, -1.00, 58.9, 26.8)">r</text><text xml:space="preserve" font-family="GillSans-Light,Gill Sans" font-size="85.4" fill="#FEFFFE" transform="matrix(1.00, 0.00, -0.00, -1.00, 87.4, 26.8)">o</text><text xml:space="preserve" font-family="GillSans-Light,Gill Sans" font-size="85.4" fill="#FEFFFE" transform="matrix(1.00, 0.00, -0.00, -1.00, 132.4, 26.8)">w</text><text xml:space="preserve" font-family="GillSans-Light,Gill Sans" font-size="85.4" fill="#FEFFFE" transform="matrix(1.00, 0.00, -0.00, -1.00, 192.9, 26.8)">d</text><text xml:space="preserve" font-family="GillSans-Light,Gill Sans" font-size="85.4" fill="#FEFFFE" transform="matrix(1.00, 0.00, -0.00, -1.00, 236.4, 26.8)">i</text><text xml:space="preserve" font-family="GillSans-Light,Gill Sans" font-size="85.4" fill="#FEFFFE" transform="matrix(1.00, 0.00, -0.00, -1.00, 252.5, 26.8)">n</text><text xml:space="preserve" font-family="GillSans-Light,Gill Sans" font-size="85.4" fill="#FEFFFE" transform="matrix(1.00, 0.00, -0.00, -1.00, 294.4, 26.8)">g</text></g></svg>