<?xml version="1.0" encoding="UTF-8" standalone="no"?><svg xmlns="http://www.w3.org/2000/svg" xmlns:xlink="http://www.w3.org/1999/xlink" clip-rule="evenodd" stroke-miterlimit="10" viewBox="0 0 403 147"><desc>SVG generated by Keynote</desc><defs></defs><g transform="matrix(1.00, 0.00, -0.00, -1.00, 0.0, 147.0)"><text xml:space="preserve" font-family="GillSans-Light,Gill Sans" font-size="26.7" fill="#FEFFFE" transform="matrix(1.00, 0.00, -0.00, -1.00, 1.0, 122.6)">•</text><text xml:space="preserve" font-family="GillSans-Light,Gill Sans" font-size="32.5" fill="#FEFFFE" transform="matrix(1.00, 0.00, -0.00, -1.00, 30.1, 120.5)">B</text><text xml:space="preserve" font-family="GillSans-Light,Gill Sans" font-size="32.5" fill="#FEFFFE" transform="matrix(1.00, 0.00, -0.00, -1.00, 47.3, 120.5)">a</text><text xml:space="preserve" font-family="GillSans-Light,Gill Sans" font-size="32.5" fill="#FEFFFE" transform="matrix(1.00, 0.00, -0.00, -1.00, 61.2, 120.5)">s</text><text xml:space="preserve" font-family="GillSans-Light,Gill Sans" font-size="32.5" fill="#FEFFFE" transform="matrix(1.00, 0.00, -0.00, -1.00, 72.7, 120.5)">i</text><text xml:space="preserve" font-family="GillSans-Light,Gill Sans" font-size="32.5" fill="#FEFFFE" transform="matrix(1.00, 0.00, -0.00, -1.00, 78.8, 120.5)">c</text><text xml:space="preserve" font-family="GillSans-Light,Gill Sans" font-size="32.5" fill="#FEFFFE" transform="matrix(1.00, 0.00, -0.00, -1.00, 92.4, 120.5)"> </text><text xml:space="preserve" font-family="GillSans-Light,Gill Sans" font-size="32.5" fill="#FEFFFE" transform="matrix(1.00, 0.00, -0.00, -1.00, 101.4, 120.5)">f</text><text xml:space="preserve" font-family="GillSans-Light,Gill Sans" font-size="32.5" fill="#FEFFFE" transform="matrix(1.00, 0.00, -0.00, -1.00, 108.7, 120.5)">e</text><text xml:space="preserve" font-family="GillSans-Light,Gill Sans" font-size="32.5" fill="#FEFFFE" transform="matrix(1.00, 0.00, -0.00, -1.00, 124.3, 120.5)">a</text><text xml:space="preserve" font-family="GillSans-Light,Gill Sans" font-size="32.5" fill="#FEFFFE" transform="matrix(1.00, 0.00, -0.00, -1.00, 138.1, 120.5)">t</text><text xml:space="preserve" font-family="GillSans-Light,Gill Sans" font-size="32.5" fill="#FEFFFE" transform="matrix(1.00, 0.00, -0.00, -1.00, 147.9, 120.5)">u</text><text xml:space="preserve" font-family="GillSans-Light,Gill Sans" font-size="32.5" fill="#FEFFFE" transform="matrix(1.00, 0.00, -0.00, -1.00, 163.9, 120.5)">r</text><text xml:space="preserve" font-family="GillSans-Light,Gill Sans" font-size="32.5" fill="#FEFFFE" transform="matrix(1.00, 0.00, -0.00, -1.00, 174.7, 120.5)">e</text><text xml:space="preserve" font-family="GillSans-Light,Gill Sans" font-size="32.5" fill="#FEFFFE" transform="matrix(1.00, 0.00, -0.00, -1.00, 190.3, 120.5)">s</text><text xml:space="preserve" font-family="GillSans-Light,Gill Sans" font-size="32.5" fill="#FEFFFE" transform="matrix(1.00, 0.00, -0.00, -1.00, 201.8, 120.5)"> </text><text xml:space="preserve" font-family="GillSans-Light,Gill Sans" font-size="32.5" fill="#FEFFFE" transform="matrix(1.00, 0.00, -0.00, -1.00, 210.8, 120.5)">l</text><text xml:space="preserve" font-family="GillSans-Light,Gill Sans" font-size="32.5" fill="#FEFFFE" transform="matrix(1.00, 0.00, -0.00, -1.00, 216.9, 120.5)">i</text><text xml:space="preserve" font-family="GillSans-Light,Gill Sans" font-size="32.5" fill="#FEFFFE" transform="matrix(1.00, 0.00, -0.00, -1.00, 223.0, 120.5)">k</text><text xml:space="preserve" font-family="GillSans-Light,Gill Sans" font-size="32.5" fill="#FEFFFE" transform="matrix(1.00, 0.00, -0.00, -1.00, 236.6, 120.5)">e</text><text xml:space="preserve" font-family="GillSans-Light,Gill Sans" font-size="32.5" fill="#FEFFFE" transform="matrix(1.00, 0.00, -0.00, -1.00, 252.1, 120.5)"> </text><text xml:space="preserve" font-family="GillSans-Light,Gill Sans" font-size="32.5" fill="#FEFFFE" transform="matrix(1.00, 0.00, -0.00, -1.00, 261.1, 120.5)">o</text><text xml:space="preserve" font-family="GillSans-Light,Gill Sans" font-size="32.5" fill="#FEFFFE" transform="matrix(1.00, 0.00, -0.00, -1.00, 278.8, 120.5)">r</text><text xml:space="preserve" font-family="GillSans-Light,Gill Sans" font-size="32.5" fill="#FEFFFE" transform="matrix(1.00, 0.00, -0.00, -1.00, 290.4, 120.5)">i</text><text xml:space="preserve" font-family="GillSans-Light,Gill Sans" font-size="32.5" fill="#FEFFFE" transform="matrix(1.00, 0.00, -0.00, -1.00, 296.5, 120.5)">e</text><text xml:space="preserve" font-family="GillSans-Light,Gill Sans" font-size="32.5" fill="#FEFFFE" transform="matrix(1.00, 0.00, -0.00, -1.00, 312.1, 120.5)">n</text><text xml:space="preserve" font-family="GillSans-Light,Gill Sans" font-size="32.5" fill="#FEFFFE" transform="matrix(1.00, 0.00, -0.00, -1.00, 328.0, 120.5)">t</text><text xml:space="preserve" font-family="GillSans-Light,Gill Sans" font-size="32.5" fill="#FEFFFE" transform="matrix(1.00, 0.00, -0.00, -1.00, 337.8, 120.5)">a</text><text xml:space="preserve" font-family="GillSans-Light,Gill Sans" font-size="32.5" fill="#FEFFFE" transform="matrix(1.00, 0.00, -0.00, -1.00, 351.7, 120.5)">t</text><text xml:space="preserve" font-family="GillSans-Light,Gill Sans" font-size="32.5" fill="#FEFFFE" transform="matrix(1.00, 0.00, -0.00, -1.00, 361.5, 120.5)">i</text><text xml:space="preserve" font-family="GillSans-Light,Gill Sans" font-size="32.5" fill="#FEFFFE" transform="matrix(1.00, 0.00, -0.00, -1.00, 367.6, 120.5)">o</text><text xml:space="preserve" font-family="GillSans-Light,Gill Sans" font-size="32.5" fill="#FEFFFE" transform="matrix(1.00, 0.00, -0.00, -1.00, 385.2, 120.5)">n</text><text xml:space="preserve" font-family="GillSans-Light,Gill Sans" font-size="32.5" fill="#FEFFFE" transform="matrix(1.00, 0.00, -0.00, -1.00, 401.1, 120.5)"> </text><text xml:space="preserve" font-family="GillSans-Light,Gill Sans" font-size="32.5" fill="#FEFFFE" transform="matrix(1.00, 0.00, -0.00, -1.00, 30.1, 83.5)">o</text><text xml:space="preserve" font-family="GillSans-Light,Gill Sans" font-size="32.5" fill="#FEFFFE" transform="matrix(1.00, 0.00, -0.00, -1.00, 47.7, 83.5)">r</text><text xml:space="preserve" font-family="GillSans-Light,Gill Sans" font-size="32.5" fill="#FEFFFE" transform="matrix(1.00, 0.00, -0.00, -1.00, 58.5, 83.5)"> </text><text xml:space="preserve" font-family="GillSans-Light,Gill Sans" font-size="32.5" fill="#FEFFFE" transform="matrix(1.00, 0.00, -0.00, -1.00, 67.5, 83.5)">ﬁ</text><text xml:space="preserve" font-family="GillSans-Light,Gill Sans" font-size="32.5" fill="#FEFFFE" transform="matrix(1.00, 0.00, -0.00, -1.00, 83.1, 83.5)">r</text><text xml:space="preserve" font-family="GillSans-Light,Gill Sans" font-size="32.5" fill="#FEFFFE" transform="matrix(1.00, 0.00, -0.00, -1.00, 95.2, 83.5)">s</text><text xml:space="preserve" font-family="GillSans-Light,Gill Sans" font-size="32.5" fill="#FEFFFE" transform="matrix(1.00, 0.00, -0.00, -1.00, 106.7, 83.5)">t</text><text xml:space="preserve" font-family="GillSans-Light,Gill Sans" font-size="32.5" fill="#FEFFFE" transform="matrix(1.00, 0.00, -0.00, -1.00, 116.5, 83.5)">-</text><text xml:space="preserve" font-family="GillSans-Light,Gill Sans" font-size="32.5" fill="#FEFFFE" transform="matrix(1.00, 0.00, -0.00, -1.00, 126.7, 83.5)">o</text><text xml:space="preserve" font-family="GillSans-Light,Gill Sans" font-size="32.5" fill="#FEFFFE" transform="matrix(1.00, 0.00, -0.00, -1.00, 144.3, 83.5)">r</text><text xml:space="preserve" font-family="GillSans-Light,Gill Sans" font-size="32.5" fill="#FEFFFE" transform="matrix(1.00, 0.00, -0.00, -1.00, 155.1, 83.5)">d</text><text xml:space="preserve" font-family="GillSans-Light,Gill Sans" font-size="32.5" fill="#FEFFFE" transform="matrix(1.00, 0.00, -0.00, -1.00, 171.7, 83.5)">e</text><text xml:space="preserve" font-family="GillSans-Light,Gill Sans" font-size="32.5" fill="#FEFFFE" transform="matrix(1.00, 0.00, -0.00, -1.00, 187.3, 83.5)">r</text><text xml:space="preserve" font-family="GillSans-Light,Gill Sans" font-size="32.5" fill="#FEFFFE" transform="matrix(1.00, 0.00, -0.00, -1.00, 198.1, 83.5)"> </text><text xml:space="preserve" font-family="GillSans-Light,Gill Sans" font-size="32.5" fill="#FEFFFE" transform="matrix(1.00, 0.00, -0.00, -1.00, 207.1, 83.5)">m</text><text xml:space="preserve" font-family="GillSans-Light,Gill Sans" font-size="32.5" fill="#FEFFFE" transform="matrix(1.00, 0.00, -0.00, -1.00, 232.2, 83.5)">o</text><text xml:space="preserve" font-family="GillSans-Light,Gill Sans" font-size="32.5" fill="#FEFFFE" transform="matrix(1.00, 0.00, -0.00, -1.00, 249.8, 83.5)">t</text><text xml:space="preserve" font-family="GillSans-Light,Gill Sans" font-size="32.5" fill="#FEFFFE" transform="matrix(1.00, 0.00, -0.00, -1.00, 259.6, 83.5)">i</text><text xml:space="preserve" font-family="GillSans-Light,Gill Sans" font-size="32.5" fill="#FEFFFE" transform="matrix(1.00, 0.00, -0.00, -1.00, 265.7, 83.5)">o</text><text xml:space="preserve" font-family="GillSans-Light,Gill Sans" font-size="32.5" fill="#FEFFFE" transform="matrix(1.00, 0.00, -0.00, -1.00, 283.3, 83.5)">n</text><text xml:space="preserve" font-family="GillSans-Light,Gill Sans" font-size="32.5" fill="#FEFFFE" transform="matrix(1.00, 0.00, -0.00, -1.00, 299.3, 83.5)"> </text><text xml:space="preserve" font-family="GillSans-Light,Gill Sans" font-size="27.3" fill="#FEFFFE" transform="matrix(1.00, 0.00, -0.00, -1.00, 308.3, 83.5)">(</text><text xml:space="preserve" font-family="GillSans-Light,Gill Sans" font-size="27.3" fill="#FEFFFE" transform="matrix(1.00, 0.00, -0.00, -1.00, 317.4, 83.5)">B</text><text xml:space="preserve" font-family="GillSans-Light,Gill Sans" font-size="27.3" fill="#FEFFFE" transform="matrix(1.00, 0.00, -0.00, -1.00, 331.9, 83.5)">e</text><text xml:space="preserve" font-family="GillSans-Light,Gill Sans" font-size="27.3" fill="#FEFFFE" transform="matrix(1.00, 0.00, -0.00, -1.00, 345.0, 83.5)">x</text><text xml:space="preserve" font-family="GillSans-Light,Gill Sans" font-size="27.3" fill="#FEFFFE" transform="matrix(1.00, 0.00, -0.00, -1.00, 358.0, 83.5)"> </text><text xml:space="preserve" font-family="GillSans-Light,Gill Sans" font-size="27.3" fill="#FEFFFE" transform="matrix(1.00, 0.00, -0.00, -1.00, 365.6, 83.5)">&amp;</text><text xml:space="preserve" font-family="GillSans-Light,Gill Sans" font-size="27.3" fill="#FEFFFE" transform="matrix(1.00, 0.00, -0.00, -1.00, 382.4, 83.5)"> </text><text xml:space="preserve" font-family="GillSans-Light,Gill Sans" font-size="27.3" fill="#FEFFFE" transform="matrix(1.00, 0.00, -0.00, -1.00, 30.1, 46.5)">D</text><text xml:space="preserve" font-family="GillSans-Light,Gill Sans" font-size="27.3" fill="#FEFFFE" transform="matrix(1.00, 0.00, -0.00, -1.00, 50.3, 46.5)">a</text><text xml:space="preserve" font-family="GillSans-Light,Gill Sans" font-size="27.3" fill="#FEFFFE" transform="matrix(1.00, 0.00, -0.00, -1.00, 61.9, 46.5)">k</text><text xml:space="preserve" font-family="GillSans-Light,Gill Sans" font-size="27.3" fill="#FEFFFE" transform="matrix(1.00, 0.00, -0.00, -1.00, 73.6, 46.5)">i</text><text xml:space="preserve" font-family="GillSans-Light,Gill Sans" font-size="27.3" fill="#FEFFFE" transform="matrix(1.00, 0.00, -0.00, -1.00, 78.7, 46.5)">n</text><text xml:space="preserve" font-family="GillSans-Light,Gill Sans" font-size="27.3" fill="#FEFFFE" transform="matrix(1.00, 0.00, -0.00, -1.00, 92.1, 46.5)"> </text><text xml:space="preserve" font-family="GillSans-Light,Gill Sans" font-size="27.3" fill="#FEFFFE" transform="matrix(1.00, 0.00, -0.00, -1.00, 99.7, 46.5)">2</text><text xml:space="preserve" font-family="GillSans-Light,Gill Sans" font-size="27.3" fill="#FEFFFE" transform="matrix(1.00, 0.00, -0.00, -1.00, 113.3, 46.5)">0</text><text xml:space="preserve" font-family="GillSans-Light,Gill Sans" font-size="27.3" fill="#FEFFFE" transform="matrix(1.00, 0.00, -0.00, -1.00, 127.0, 46.5)">0</text><text xml:space="preserve" font-family="GillSans-Light,Gill Sans" font-size="27.3" fill="#FEFFFE" transform="matrix(1.00, 0.00, -0.00, -1.00, 140.6, 46.5)">5</text><text xml:space="preserve" font-family="GillSans-Light,Gill Sans" font-size="27.3" fill="#FEFFFE" transform="matrix(1.00, 0.00, -0.00, -1.00, 154.3, 46.5)">)</text><text xml:space="preserve" font-family="GillSans-Light,Gill Sans" font-size="32.5" fill="#FEFFFE" transform="matrix(1.00, 0.00, -0.00, -1.00, 163.4, 46.5)"> </text><text xml:space="preserve" font-family="GillSans-Light,Gill Sans" font-size="32.5" fill="#FEFFFE" transform="matrix(1.00, 0.00, -0.00, -1.00, 172.4, 46.5)">e</text><text xml:space="preserve" font-family="GillSans-Light,Gill Sans" font-size="32.5" fill="#FEFFFE" transform="matrix(1.00, 0.00, -0.00, -1.00, 188.0, 46.5)">x</text><text xml:space="preserve" font-family="GillSans-Light,Gill Sans" font-size="32.5" fill="#FEFFFE" transform="matrix(1.00, 0.00, -0.00, -1.00, 203.5, 46.5)">h</text><text xml:space="preserve" font-family="GillSans-Light,Gill Sans" font-size="32.5" fill="#FEFFFE" transform="matrix(1.00, 0.00, -0.00, -1.00, 219.5, 46.5)">i</text><text xml:space="preserve" font-family="GillSans-Light,Gill Sans" font-size="32.5" fill="#FEFFFE" transform="matrix(1.00, 0.00, -0.00, -1.00, 225.6, 46.5)">b</text><text xml:space="preserve" font-family="GillSans-Light,Gill Sans" font-size="32.5" fill="#FEFFFE" transform="matrix(1.00, 0.00, -0.00, -1.00, 242.1, 46.5)">i</text><text xml:space="preserve" font-family="GillSans-Light,Gill Sans" font-size="32.5" fill="#FEFFFE" transform="matrix(1.00, 0.00, -0.00, -1.00, 248.3, 46.5)">t</text><text xml:space="preserve" font-family="GillSans-Light,Gill Sans" font-size="32.5" fill="#FEFFFE" transform="matrix(1.00, 0.00, -0.00, -1.00, 258.1, 46.5)"> </text><text xml:space="preserve" font-family="GillSans-Light,Gill Sans" font-size="32.5" fill="#FEFFFE" transform="matrix(1.00, 0.00, -0.00, -1.00, 267.1, 46.5)">c</text><text xml:space="preserve" font-family="GillSans-Light,Gill Sans" font-size="32.5" fill="#FEFFFE" transform="matrix(1.00, 0.00, -0.00, -1.00, 280.6, 46.5)">r</text><text xml:space="preserve" font-family="GillSans-Light,Gill Sans" font-size="32.5" fill="#FEFFFE" transform="matrix(1.00, 0.00, -0.00, -1.00, 291.5, 46.5)">o</text><text xml:space="preserve" font-family="GillSans-Light,Gill Sans" font-size="32.5" fill="#FEFFFE" transform="matrix(1.00, 0.00, -0.00, -1.00, 308.6, 46.5)">w</text><text xml:space="preserve" font-family="GillSans-Light,Gill Sans" font-size="32.5" fill="#FEFFFE" transform="matrix(1.00, 0.00, -0.00, -1.00, 331.6, 46.5)">d</text><text xml:space="preserve" font-family="GillSans-Light,Gill Sans" font-size="32.5" fill="#FEFFFE" transform="matrix(1.00, 0.00, -0.00, -1.00, 348.2, 46.5)">i</text><text xml:space="preserve" font-family="GillSans-Light,Gill Sans" font-size="32.5" fill="#FEFFFE" transform="matrix(1.00, 0.00, -0.00, -1.00, 354.3, 46.5)">n</text><text xml:space="preserve" font-family="GillSans-Light,Gill Sans" font-size="32.5" fill="#FEFFFE" transform="matrix(1.00, 0.00, -0.00, -1.00, 370.2, 46.5)">g</text><text xml:space="preserve" font-family="GillSans-Light,Gill Sans" font-size="32.5" fill="#FEFFFE" transform="matrix(1.00, 0.00, -0.00, -1.00, 384.1, 46.5)"> </text><text xml:space="preserve" font-family="GillSans-Light,Gill Sans" font-size="32.5" fill="#FEFFFE" transform="matrix(1.00, 0.00, -0.00, -1.00, 30.1, 9.5)">w</text><text xml:space="preserve" font-family="GillSans-Light,Gill Sans" font-size="32.5" fill="#FEFFFE" transform="matrix(1.00, 0.00, -0.00, -1.00, 53.1, 9.5)">i</text><text xml:space="preserve" font-family="GillSans-Light,Gill Sans" font-size="32.5" fill="#FEFFFE" transform="matrix(1.00, 0.00, -0.00, -1.00, 59.2, 9.5)">t</text><text xml:space="preserve" font-family="GillSans-Light,Gill Sans" font-size="32.5" fill="#FEFFFE" transform="matrix(1.00, 0.00, -0.00, -1.00, 69.0, 9.5)">h</text><text xml:space="preserve" font-family="GillSans-Light,Gill Sans" font-size="32.5" fill="#FEFFFE" transform="matrix(1.00, 0.00, -0.00, -1.00, 84.9, 9.5)"> </text><text xml:space="preserve" font-family="GillSans-Light,Gill Sans" font-size="32.5" fill="#FEFFFE" transform="matrix(1.00, 0.00, -0.00, -1.00, 94.0, 9.5)">a</text><text xml:space="preserve" font-family="GillSans-Light,Gill Sans" font-size="32.5" fill="#FEFFFE" transform="matrix(1.00, 0.00, -0.00, -1.00, 107.0, 9.5)">v</text><text xml:space="preserve" font-family="GillSans-Light,Gill Sans" font-size="32.5" fill="#FEFFFE" transform="matrix(1.00, 0.00, -0.00, -1.00, 120.4, 9.5)">e</text><text xml:space="preserve" font-family="GillSans-Light,Gill Sans" font-size="32.5" fill="#FEFFFE" transform="matrix(1.00, 0.00, -0.00, -1.00, 136.0, 9.5)">r</text><text xml:space="preserve" font-family="GillSans-Light,Gill Sans" font-size="32.5" fill="#FEFFFE" transform="matrix(1.00, 0.00, -0.00, -1.00, 147.6, 9.5)">a</text><text xml:space="preserve" font-family="GillSans-Light,Gill Sans" font-size="32.5" fill="#FEFFFE" transform="matrix(1.00, 0.00, -0.00, -1.00, 161.4, 9.5)">g</text><text xml:space="preserve" font-family="GillSans-Light,Gill Sans" font-size="32.5" fill="#FEFFFE" transform="matrix(1.00, 0.00, -0.00, -1.00, 175.3, 9.5)">i</text><text xml:space="preserve" font-family="GillSans-Light,Gill Sans" font-size="32.5" fill="#FEFFFE" transform="matrix(1.00, 0.00, -0.00, -1.00, 181.4, 9.5)">n</text><text xml:space="preserve" font-family="GillSans-Light,Gill Sans" font-size="32.5" fill="#FEFFFE" transform="matrix(1.00, 0.00, -0.00, -1.00, 197.4, 9.5)">g</text><text xml:space="preserve" font-family="GillSans-Light,Gill Sans" font-size="32.5" fill="#FEFFFE" transform="matrix(1.00, 0.00, -0.00, -1.00, 211.2, 9.5)"> </text></g></svg>