<?xml version="1.0" encoding="UTF-8" standalone="no"?><svg xmlns="http://www.w3.org/2000/svg" xmlns:xlink="http://www.w3.org/1999/xlink" clip-rule="evenodd" stroke-miterlimit="10" viewBox="0 0 156 23"><desc>SVG generated by Keynote</desc><defs></defs><g transform="matrix(1.00, 0.00, -0.00, -1.00, 0.0, 23.0)"><text xml:space="preserve" font-family="GillSans,Gill Sans" font-size="22.0" fill="#FEFFFF" transform="matrix(1.00, 0.00, -0.00, -1.00, 0.4, 6.1)">p</text><text xml:space="preserve" font-family="GillSans,Gill Sans" font-size="22.0" fill="#FEFFFF" transform="matrix(1.00, 0.00, -0.00, -1.00, 11.4, 6.1)">e</text><text xml:space="preserve" font-family="GillSans,Gill Sans" font-size="22.0" fill="#FEFFFF" transform="matrix(1.00, 0.00, -0.00, -1.00, 21.9, 6.1)">r</text><text xml:space="preserve" font-family="GillSans,Gill Sans" font-size="22.0" fill="#FEFFFF" transform="matrix(1.00, 0.00, -0.00, -1.00, 30.6, 6.1)">i</text><text xml:space="preserve" font-family="GillSans,Gill Sans" font-size="22.0" fill="#FEFFFF" transform="matrix(1.00, 0.00, -0.00, -1.00, 35.5, 6.1)">p</text><text xml:space="preserve" font-family="GillSans,Gill Sans" font-size="22.0" fill="#FEFFFF" transform="matrix(1.00, 0.00, -0.00, -1.00, 46.5, 6.1)">h</text><text xml:space="preserve" font-family="GillSans,Gill Sans" font-size="22.0" fill="#FEFFFF" transform="matrix(1.00, 0.00, -0.00, -1.00, 57.5, 6.1)">e</text><text xml:space="preserve" font-family="GillSans,Gill Sans" font-size="22.0" fill="#FEFFFF" transform="matrix(1.00, 0.00, -0.00, -1.00, 68.0, 6.1)">r</text><text xml:space="preserve" font-family="GillSans,Gill Sans" font-size="22.0" fill="#FEFFFF" transform="matrix(1.00, 0.00, -0.00, -1.00, 76.7, 6.1)">a</text><text xml:space="preserve" font-family="GillSans,Gill Sans" font-size="22.0" fill="#FEFFFF" transform="matrix(1.00, 0.00, -0.00, -1.00, 86.1, 6.1)">l</text><text xml:space="preserve" font-family="GillSans,Gill Sans" font-size="22.0" fill="#FEFFFF" transform="matrix(1.00, 0.00, -0.00, -1.00, 90.9, 6.1)"> </text><text xml:space="preserve" font-family="GillSans,Gill Sans" font-size="22.0" fill="#FEFFFF" transform="matrix(1.00, 0.00, -0.00, -1.00, 97.0, 6.1)">v</text><text xml:space="preserve" font-family="GillSans,Gill Sans" font-size="22.0" fill="#FEFFFF" transform="matrix(1.00, 0.00, -0.00, -1.00, 106.7, 6.1)">i</text><text xml:space="preserve" font-family="GillSans,Gill Sans" font-size="22.0" fill="#FEFFFF" transform="matrix(1.00, 0.00, -0.00, -1.00, 111.5, 6.1)">s</text><text xml:space="preserve" font-family="GillSans,Gill Sans" font-size="22.0" fill="#FEFFFF" transform="matrix(1.00, 0.00, -0.00, -1.00, 120.0, 6.1)">i</text><text xml:space="preserve" font-family="GillSans,Gill Sans" font-size="22.0" fill="#FEFFFF" transform="matrix(1.00, 0.00, -0.00, -1.00, 124.8, 6.1)">o</text><text xml:space="preserve" font-family="GillSans,Gill Sans" font-size="22.0" fill="#FEFFFF" transform="matrix(1.00, 0.00, -0.00, -1.00, 136.9, 6.1)">n</text><text xml:space="preserve" font-family="GillSans,Gill Sans" font-size="22.0" fill="#FEFFFF" transform="matrix(1.00, 0.00, -0.00, -1.00, 147.9, 6.1)">?</text></g></svg>