<?xml version="1.0" encoding="UTF-8" standalone="no"?><svg xmlns="http://www.w3.org/2000/svg" xmlns:xlink="http://www.w3.org/1999/xlink" clip-rule="evenodd" stroke-miterlimit="10" viewBox="0 0 443 23"><desc>SVG generated by Keynote</desc><defs></defs><g transform="matrix(1.00, 0.00, -0.00, -1.00, 0.0, 23.0)"><text xml:space="preserve" font-family="GillSans,Gill Sans" font-size="22.0" fill="#FEFFFF" transform="matrix(1.00, 0.00, -0.00, -1.00, 0.0, 6.1)">l</text><text xml:space="preserve" font-family="GillSans,Gill Sans" font-size="22.0" fill="#FEFFFF" transform="matrix(1.00, 0.00, -0.00, -1.00, 4.8, 6.1)">e</text><text xml:space="preserve" font-family="GillSans,Gill Sans" font-size="22.0" fill="#FEFFFF" transform="matrix(1.00, 0.00, -0.00, -1.00, 15.4, 6.1)">f</text><text xml:space="preserve" font-family="GillSans,Gill Sans" font-size="22.0" fill="#FEFFFF" transform="matrix(1.00, 0.00, -0.00, -1.00, 20.9, 6.1)">t</text><text xml:space="preserve" font-family="GillSans,Gill Sans" font-size="22.0" fill="#FEFFFF" transform="matrix(1.00, 0.00, -0.00, -1.00, 28.2, 6.1)">,</text><text xml:space="preserve" font-family="GillSans,Gill Sans" font-size="22.0" fill="#FEFFFF" transform="matrix(1.00, 0.00, -0.00, -1.00, 30.8, 6.1)"> </text><text xml:space="preserve" font-family="GillSans,Gill Sans" font-size="22.0" fill="#FEFFFF" transform="matrix(1.00, 0.00, -0.00, -1.00, 36.9, 6.1)">i</text><text xml:space="preserve" font-family="GillSans,Gill Sans" font-size="22.0" fill="#FEFFFF" transform="matrix(1.00, 0.00, -0.00, -1.00, 41.8, 6.1)">t</text><text xml:space="preserve" font-family="GillSans,Gill Sans" font-size="22.0" fill="#FEFFFF" transform="matrix(1.00, 0.00, -0.00, -1.00, 49.1, 6.1)"> </text><text xml:space="preserve" font-family="GillSans,Gill Sans" font-size="22.0" fill="#FEFFFF" transform="matrix(1.00, 0.00, -0.00, -1.00, 55.2, 6.1)">w</text><text xml:space="preserve" font-family="GillSans,Gill Sans" font-size="22.0" fill="#FEFFFF" transform="matrix(1.00, 0.00, -0.00, -1.00, 71.0, 6.1)">i</text><text xml:space="preserve" font-family="GillSans,Gill Sans" font-size="22.0" fill="#FEFFFF" transform="matrix(1.00, 0.00, -0.00, -1.00, 75.8, 6.1)">l</text><text xml:space="preserve" font-family="GillSans,Gill Sans" font-size="22.0" fill="#FEFFFF" transform="matrix(1.00, 0.00, -0.00, -1.00, 80.7, 6.1)">l</text><text xml:space="preserve" font-family="GillSans,Gill Sans" font-size="22.0" fill="#FEFFFF" transform="matrix(1.00, 0.00, -0.00, -1.00, 85.5, 6.1)"> </text><text xml:space="preserve" font-family="GillSans,Gill Sans" font-size="22.0" fill="#FEFFFF" transform="matrix(1.00, 0.00, -0.00, -1.00, 91.6, 6.1)">a</text><text xml:space="preserve" font-family="GillSans,Gill Sans" font-size="22.0" fill="#FEFFFF" transform="matrix(1.00, 0.00, -0.00, -1.00, 100.8, 6.1)">p</text><text xml:space="preserve" font-family="GillSans,Gill Sans" font-size="22.0" fill="#FEFFFF" transform="matrix(1.00, 0.00, -0.00, -1.00, 111.8, 6.1)">p</text><text xml:space="preserve" font-family="GillSans,Gill Sans" font-size="22.0" fill="#FEFFFF" transform="matrix(1.00, 0.00, -0.00, -1.00, 122.8, 6.1)">e</text><text xml:space="preserve" font-family="GillSans,Gill Sans" font-size="22.0" fill="#FEFFFF" transform="matrix(1.00, 0.00, -0.00, -1.00, 133.3, 6.1)">a</text><text xml:space="preserve" font-family="GillSans,Gill Sans" font-size="22.0" fill="#FEFFFF" transform="matrix(1.00, 0.00, -0.00, -1.00, 142.7, 6.1)">r</text><text xml:space="preserve" font-family="GillSans,Gill Sans" font-size="22.0" fill="#FEFFFF" transform="matrix(1.00, 0.00, -0.00, -1.00, 151.4, 6.1)"> </text><text xml:space="preserve" font-family="GillSans,Gill Sans" font-size="22.0" fill="#FEFFFF" transform="matrix(1.00, 0.00, -0.00, -1.00, 157.5, 6.1)">t</text><text xml:space="preserve" font-family="GillSans,Gill Sans" font-size="22.0" fill="#FEFFFF" transform="matrix(1.00, 0.00, -0.00, -1.00, 164.8, 6.1)">o</text><text xml:space="preserve" font-family="GillSans,Gill Sans" font-size="22.0" fill="#FEFFFF" transform="matrix(1.00, 0.00, -0.00, -1.00, 177.0, 6.1)"> </text><text xml:space="preserve" font-family="GillSans,Gill Sans" font-size="22.0" fill="#FEFFFF" transform="matrix(1.00, 0.00, -0.00, -1.00, 183.1, 6.1)">b</text><text xml:space="preserve" font-family="GillSans,Gill Sans" font-size="22.0" fill="#FEFFFF" transform="matrix(1.00, 0.00, -0.00, -1.00, 194.1, 6.1)">e</text><text xml:space="preserve" font-family="GillSans,Gill Sans" font-size="22.0" fill="#FEFFFF" transform="matrix(1.00, 0.00, -0.00, -1.00, 204.6, 6.1)"> </text><text xml:space="preserve" font-family="GillSans,Gill Sans" font-size="22.0" fill="#FEFFFF" transform="matrix(1.00, 0.00, -0.00, -1.00, 210.7, 6.1)">m</text><text xml:space="preserve" font-family="GillSans,Gill Sans" font-size="22.0" fill="#FEFFFF" transform="matrix(1.00, 0.00, -0.00, -1.00, 227.7, 6.1)">o</text><text xml:space="preserve" font-family="GillSans,Gill Sans" font-size="22.0" fill="#FEFFFF" transform="matrix(1.00, 0.00, -0.00, -1.00, 239.6, 6.1)">v</text><text xml:space="preserve" font-family="GillSans,Gill Sans" font-size="22.0" fill="#FEFFFF" transform="matrix(1.00, 0.00, -0.00, -1.00, 249.2, 6.1)">i</text><text xml:space="preserve" font-family="GillSans,Gill Sans" font-size="22.0" fill="#FEFFFF" transform="matrix(1.00, 0.00, -0.00, -1.00, 254.1, 6.1)">n</text><text xml:space="preserve" font-family="GillSans,Gill Sans" font-size="22.0" fill="#FEFFFF" transform="matrix(1.00, 0.00, -0.00, -1.00, 265.1, 6.1)">g</text><text xml:space="preserve" font-family="GillSans,Gill Sans" font-size="22.0" fill="#FEFFFF" transform="matrix(1.00, 0.00, -0.00, -1.00, 274.5, 6.1)"> </text><text xml:space="preserve" font-family="GillSans,Gill Sans" font-size="22.0" fill="#FEFFFF" transform="matrix(1.00, 0.00, -0.00, -1.00, 280.6, 6.1)">C</text><text xml:space="preserve" font-family="GillSans,Gill Sans" font-size="22.0" fill="#FEFFFF" transform="matrix(1.00, 0.00, -0.00, -1.00, 296.1, 6.1)">C</text><text xml:space="preserve" font-family="GillSans,Gill Sans" font-size="22.0" fill="#FEFFFF" transform="matrix(1.00, 0.00, -0.00, -1.00, 311.7, 6.1)">W</text><text xml:space="preserve" font-family="GillSans,Gill Sans" font-size="22.0" fill="#FEFFFF" transform="matrix(1.00, 0.00, -0.00, -1.00, 331.8, 6.1)">.</text><text xml:space="preserve" font-family="GillSans,Gill Sans" font-size="22.0" fill="#FEFFFF" transform="matrix(1.00, 0.00, -0.00, -1.00, 334.4, 6.1)"> </text><text xml:space="preserve" font-family="GillSans,Gill Sans" font-size="22.0" fill="#FEFFFF" transform="matrix(1.00, 0.00, -0.00, -1.00, 340.5, 6.1)">S</text><text xml:space="preserve" font-family="GillSans,Gill Sans" font-size="22.0" fill="#FEFFFF" transform="matrix(1.00, 0.00, -0.00, -1.00, 350.6, 6.1)">a</text><text xml:space="preserve" font-family="GillSans,Gill Sans" font-size="22.0" fill="#FEFFFF" transform="matrix(1.00, 0.00, -0.00, -1.00, 360.0, 6.1)">m</text><text xml:space="preserve" font-family="GillSans,Gill Sans" font-size="22.0" fill="#FEFFFF" transform="matrix(1.00, 0.00, -0.00, -1.00, 376.9, 6.1)">e</text><text xml:space="preserve" font-family="GillSans,Gill Sans" font-size="22.0" fill="#FEFFFF" transform="matrix(1.00, 0.00, -0.00, -1.00, 387.5, 6.1)"> </text><text xml:space="preserve" font-family="GillSans,Gill Sans" font-size="22.0" fill="#FEFFFF" transform="matrix(1.00, 0.00, -0.00, -1.00, 393.6, 6.1)">i</text><text xml:space="preserve" font-family="GillSans,Gill Sans" font-size="22.0" fill="#FEFFFF" transform="matrix(1.00, 0.00, -0.00, -1.00, 398.4, 6.1)">f</text><text xml:space="preserve" font-family="GillSans,Gill Sans" font-size="22.0" fill="#FEFFFF" transform="matrix(1.00, 0.00, -0.00, -1.00, 403.9, 6.1)"> </text><text xml:space="preserve" font-family="GillSans,Gill Sans" font-size="22.0" fill="#FEFFFF" transform="matrix(1.00, 0.00, -0.00, -1.00, 410.0, 6.1)">y</text><text xml:space="preserve" font-family="GillSans,Gill Sans" font-size="22.0" fill="#FEFFFF" transform="matrix(1.00, 0.00, -0.00, -1.00, 419.2, 6.1)">o</text><text xml:space="preserve" font-family="GillSans,Gill Sans" font-size="22.0" fill="#FEFFFF" transform="matrix(1.00, 0.00, -0.00, -1.00, 431.4, 6.1)">u</text></g></svg>