<?xml version="1.0" encoding="UTF-8" standalone="no"?><svg xmlns="http://www.w3.org/2000/svg" xmlns:xlink="http://www.w3.org/1999/xlink" clip-rule="evenodd" stroke-miterlimit="10" viewBox="0 0 429 23"><desc>SVG generated by Keynote</desc><defs></defs><g transform="matrix(1.00, 0.00, -0.00, -1.00, 0.0, 23.0)"><text xml:space="preserve" font-family="GillSans,Gill Sans" font-size="22.0" fill="#FEFFFF" transform="matrix(1.00, 0.00, -0.00, -1.00, 0.0, 6.5)">N</text><text xml:space="preserve" font-family="GillSans,Gill Sans" font-size="22.0" fill="#FEFFFF" transform="matrix(1.00, 0.00, -0.00, -1.00, 17.2, 6.5)">o</text><text xml:space="preserve" font-family="GillSans,Gill Sans" font-size="22.0" fill="#FEFFFF" transform="matrix(1.00, 0.00, -0.00, -1.00, 29.1, 6.5)">w</text><text xml:space="preserve" font-family="GillSans,Gill Sans" font-size="22.0" fill="#FEFFFF" transform="matrix(1.00, 0.00, -0.00, -1.00, 44.9, 6.5)"> </text><text xml:space="preserve" font-family="GillSans,Gill Sans" font-size="22.0" fill="#FEFFFF" transform="matrix(1.00, 0.00, -0.00, -1.00, 51.0, 6.5)">a</text><text xml:space="preserve" font-family="GillSans,Gill Sans" font-size="22.0" fill="#FEFFFF" transform="matrix(1.00, 0.00, -0.00, -1.00, 60.4, 6.5)">n</text><text xml:space="preserve" font-family="GillSans,Gill Sans" font-size="22.0" fill="#FEFFFF" transform="matrix(1.00, 0.00, -0.00, -1.00, 71.4, 6.5)"> </text><text xml:space="preserve" font-family="GillSans,Gill Sans" font-size="22.0" fill="#FEFFFF" transform="matrix(1.00, 0.00, -0.00, -1.00, 77.5, 6.5)">i</text><text xml:space="preserve" font-family="GillSans,Gill Sans" font-size="22.0" fill="#FEFFFF" transform="matrix(1.00, 0.00, -0.00, -1.00, 82.3, 6.5)">n</text><text xml:space="preserve" font-family="GillSans,Gill Sans" font-size="22.0" fill="#FEFFFF" transform="matrix(1.00, 0.00, -0.00, -1.00, 93.3, 6.5)">t</text><text xml:space="preserve" font-family="GillSans,Gill Sans" font-size="22.0" fill="#FEFFFF" transform="matrix(1.00, 0.00, -0.00, -1.00, 100.7, 6.5)">e</text><text xml:space="preserve" font-family="GillSans,Gill Sans" font-size="22.0" fill="#FEFFFF" transform="matrix(1.00, 0.00, -0.00, -1.00, 111.2, 6.5)">r</text><text xml:space="preserve" font-family="GillSans,Gill Sans" font-size="22.0" fill="#FEFFFF" transform="matrix(1.00, 0.00, -0.00, -1.00, 119.5, 6.5)">e</text><text xml:space="preserve" font-family="GillSans,Gill Sans" font-size="22.0" fill="#FEFFFF" transform="matrix(1.00, 0.00, -0.00, -1.00, 130.0, 6.5)">s</text><text xml:space="preserve" font-family="GillSans,Gill Sans" font-size="22.0" fill="#FEFFFF" transform="matrix(1.00, 0.00, -0.00, -1.00, 138.5, 6.5)">t</text><text xml:space="preserve" font-family="GillSans,Gill Sans" font-size="22.0" fill="#FEFFFF" transform="matrix(1.00, 0.00, -0.00, -1.00, 145.8, 6.5)">i</text><text xml:space="preserve" font-family="GillSans,Gill Sans" font-size="22.0" fill="#FEFFFF" transform="matrix(1.00, 0.00, -0.00, -1.00, 150.6, 6.5)">n</text><text xml:space="preserve" font-family="GillSans,Gill Sans" font-size="22.0" fill="#FEFFFF" transform="matrix(1.00, 0.00, -0.00, -1.00, 161.6, 6.5)">g</text><text xml:space="preserve" font-family="GillSans,Gill Sans" font-size="22.0" fill="#FEFFFF" transform="matrix(1.00, 0.00, -0.00, -1.00, 171.0, 6.5)"> </text><text xml:space="preserve" font-family="GillSans,Gill Sans" font-size="22.0" fill="#FEFFFF" transform="matrix(1.00, 0.00, -0.00, -1.00, 177.1, 6.5)">t</text><text xml:space="preserve" font-family="GillSans,Gill Sans" font-size="22.0" fill="#FEFFFF" transform="matrix(1.00, 0.00, -0.00, -1.00, 184.5, 6.5)">h</text><text xml:space="preserve" font-family="GillSans,Gill Sans" font-size="22.0" fill="#FEFFFF" transform="matrix(1.00, 0.00, -0.00, -1.00, 195.5, 6.5)">i</text><text xml:space="preserve" font-family="GillSans,Gill Sans" font-size="22.0" fill="#FEFFFF" transform="matrix(1.00, 0.00, -0.00, -1.00, 200.3, 6.5)">n</text><text xml:space="preserve" font-family="GillSans,Gill Sans" font-size="22.0" fill="#FEFFFF" transform="matrix(1.00, 0.00, -0.00, -1.00, 211.3, 6.5)">g</text><text xml:space="preserve" font-family="GillSans,Gill Sans" font-size="22.0" fill="#FEFFFF" transform="matrix(1.00, 0.00, -0.00, -1.00, 220.7, 6.5)"> </text><text xml:space="preserve" font-family="GillSans,Gill Sans" font-size="22.0" fill="#FEFFFF" transform="matrix(1.00, 0.00, -0.00, -1.00, 226.8, 6.5)">h</text><text xml:space="preserve" font-family="GillSans,Gill Sans" font-size="22.0" fill="#FEFFFF" transform="matrix(1.00, 0.00, -0.00, -1.00, 237.8, 6.5)">a</text><text xml:space="preserve" font-family="GillSans,Gill Sans" font-size="22.0" fill="#FEFFFF" transform="matrix(1.00, 0.00, -0.00, -1.00, 246.9, 6.5)">p</text><text xml:space="preserve" font-family="GillSans,Gill Sans" font-size="22.0" fill="#FEFFFF" transform="matrix(1.00, 0.00, -0.00, -1.00, 257.9, 6.5)">p</text><text xml:space="preserve" font-family="GillSans,Gill Sans" font-size="22.0" fill="#FEFFFF" transform="matrix(1.00, 0.00, -0.00, -1.00, 268.9, 6.5)">e</text><text xml:space="preserve" font-family="GillSans,Gill Sans" font-size="22.0" fill="#FEFFFF" transform="matrix(1.00, 0.00, -0.00, -1.00, 279.5, 6.5)">n</text><text xml:space="preserve" font-family="GillSans,Gill Sans" font-size="22.0" fill="#FEFFFF" transform="matrix(1.00, 0.00, -0.00, -1.00, 290.5, 6.5)">s</text><text xml:space="preserve" font-family="GillSans,Gill Sans" font-size="22.0" fill="#FEFFFF" transform="matrix(1.00, 0.00, -0.00, -1.00, 298.9, 6.5)"> </text><text xml:space="preserve" font-family="GillSans,Gill Sans" font-size="22.0" fill="#FEFFFF" transform="matrix(1.00, 0.00, -0.00, -1.00, 305.0, 6.5)">w</text><text xml:space="preserve" font-family="GillSans,Gill Sans" font-size="22.0" fill="#FEFFFF" transform="matrix(1.00, 0.00, -0.00, -1.00, 320.9, 6.5)">h</text><text xml:space="preserve" font-family="GillSans,Gill Sans" font-size="22.0" fill="#FEFFFF" transform="matrix(1.00, 0.00, -0.00, -1.00, 331.9, 6.5)">e</text><text xml:space="preserve" font-family="GillSans,Gill Sans" font-size="22.0" fill="#FEFFFF" transform="matrix(1.00, 0.00, -0.00, -1.00, 342.4, 6.5)">n</text><text xml:space="preserve" font-family="GillSans,Gill Sans" font-size="22.0" fill="#FEFFFF" transform="matrix(1.00, 0.00, -0.00, -1.00, 353.4, 6.5)"> </text><text xml:space="preserve" font-family="GillSans,Gill Sans" font-size="22.0" fill="#FEFFFF" transform="matrix(1.00, 0.00, -0.00, -1.00, 359.5, 6.5)">y</text><text xml:space="preserve" font-family="GillSans,Gill Sans" font-size="22.0" fill="#FEFFFF" transform="matrix(1.00, 0.00, -0.00, -1.00, 368.7, 6.5)">o</text><text xml:space="preserve" font-family="GillSans,Gill Sans" font-size="22.0" fill="#FEFFFF" transform="matrix(1.00, 0.00, -0.00, -1.00, 380.9, 6.5)">u</text><text xml:space="preserve" font-family="GillSans,Gill Sans" font-size="22.0" fill="#FEFFFF" transform="matrix(1.00, 0.00, -0.00, -1.00, 391.9, 6.5)"> </text><text xml:space="preserve" font-family="GillSans,Gill Sans" font-size="22.0" fill="#FEFFFF" transform="matrix(1.00, 0.00, -0.00, -1.00, 398.0, 6.5)">p</text><text xml:space="preserve" font-family="GillSans,Gill Sans" font-size="22.0" fill="#FEFFFF" transform="matrix(1.00, 0.00, -0.00, -1.00, 409.0, 6.5)">u</text><text xml:space="preserve" font-family="GillSans,Gill Sans" font-size="22.0" fill="#FEFFFF" transform="matrix(1.00, 0.00, -0.00, -1.00, 420.0, 6.5)">t</text></g></svg>