<?xml version="1.0" encoding="UTF-8" standalone="no"?><svg xmlns="http://www.w3.org/2000/svg" xmlns:xlink="http://www.w3.org/1999/xlink" clip-rule="evenodd" stroke-miterlimit="10" viewBox="0 0 334 136"><desc>SVG generated by Keynote</desc><defs></defs><g transform="matrix(1.00, 0.00, -0.00, -1.00, 0.0, 136.0)"><text xml:space="preserve" font-family="GillSans-Light,Gill Sans" font-size="33.2" fill="#FEFFFE" transform="matrix(1.00, 0.00, -0.00, -1.00, 1.0, 105.9)">•</text><text xml:space="preserve" font-family="GillSans-Light,Gill Sans" font-size="40.5" fill="#FEFFFE" transform="matrix(1.00, 0.00, -0.00, -1.00, 37.2, 103.7)">S</text><text xml:space="preserve" font-family="GillSans-Light,Gill Sans" font-size="40.5" fill="#FEFFFE" transform="matrix(1.00, 0.00, -0.00, -1.00, 56.2, 103.7)">e</text><text xml:space="preserve" font-family="GillSans-Light,Gill Sans" font-size="40.5" fill="#FEFFFE" transform="matrix(1.00, 0.00, -0.00, -1.00, 75.6, 103.7)">n</text><text xml:space="preserve" font-family="GillSans-Light,Gill Sans" font-size="40.5" fill="#FEFFFE" transform="matrix(1.00, 0.00, -0.00, -1.00, 95.5, 103.7)">s</text><text xml:space="preserve" font-family="GillSans-Light,Gill Sans" font-size="40.5" fill="#FEFFFE" transform="matrix(1.00, 0.00, -0.00, -1.00, 109.8, 103.7)">i</text><text xml:space="preserve" font-family="GillSans-Light,Gill Sans" font-size="40.5" fill="#FEFFFE" transform="matrix(1.00, 0.00, -0.00, -1.00, 117.5, 103.7)">t</text><text xml:space="preserve" font-family="GillSans-Light,Gill Sans" font-size="40.5" fill="#FEFFFE" transform="matrix(1.00, 0.00, -0.00, -1.00, 129.7, 103.7)">i</text><text xml:space="preserve" font-family="GillSans-Light,Gill Sans" font-size="40.5" fill="#FEFFFE" transform="matrix(1.00, 0.00, -0.00, -1.00, 137.3, 103.7)">v</text><text xml:space="preserve" font-family="GillSans-Light,Gill Sans" font-size="40.5" fill="#FEFFFE" transform="matrix(1.00, 0.00, -0.00, -1.00, 154.6, 103.7)">i</text><text xml:space="preserve" font-family="GillSans-Light,Gill Sans" font-size="40.5" fill="#FEFFFE" transform="matrix(1.00, 0.00, -0.00, -1.00, 162.2, 103.7)">t</text><text xml:space="preserve" font-family="GillSans-Light,Gill Sans" font-size="40.5" fill="#FEFFFE" transform="matrix(1.00, 0.00, -0.00, -1.00, 174.4, 103.7)">y</text><text xml:space="preserve" font-family="GillSans-Light,Gill Sans" font-size="40.5" fill="#FEFFFE" transform="matrix(1.00, 0.00, -0.00, -1.00, 191.3, 103.7)"> </text><text xml:space="preserve" font-family="GillSans-Light,Gill Sans" font-size="40.5" fill="#FEFFFE" transform="matrix(1.00, 0.00, -0.00, -1.00, 202.5, 103.7)">i</text><text xml:space="preserve" font-family="GillSans-Light,Gill Sans" font-size="40.5" fill="#FEFFFE" transform="matrix(1.00, 0.00, -0.00, -1.00, 210.1, 103.7)">s</text><text xml:space="preserve" font-family="GillSans-Light,Gill Sans" font-size="40.5" fill="#FEFFFE" transform="matrix(1.00, 0.00, -0.00, -1.00, 224.5, 103.7)"> </text><text xml:space="preserve" font-family="GillSans-Light,Gill Sans" font-size="40.5" fill="#FEFFFE" transform="matrix(1.00, 0.00, -0.00, -1.00, 235.7, 103.7)">l</text><text xml:space="preserve" font-family="GillSans-Light,Gill Sans" font-size="40.5" fill="#FEFFFE" transform="matrix(1.00, 0.00, -0.00, -1.00, 243.3, 103.7)">e</text><text xml:space="preserve" font-family="GillSans-Light,Gill Sans" font-size="40.5" fill="#FEFFFE" transform="matrix(1.00, 0.00, -0.00, -1.00, 262.7, 103.7)">s</text><text xml:space="preserve" font-family="GillSans-Light,Gill Sans" font-size="40.5" fill="#FEFFFE" transform="matrix(1.00, 0.00, -0.00, -1.00, 277.1, 103.7)">s</text><text xml:space="preserve" font-family="GillSans-Light,Gill Sans" font-size="40.5" fill="#FEFFFE" transform="matrix(1.00, 0.00, -0.00, -1.00, 291.4, 103.7)"> </text><text xml:space="preserve" font-family="GillSans-Light,Gill Sans" font-size="40.5" fill="#FEFFFE" transform="matrix(1.00, 0.00, -0.00, -1.00, 302.6, 103.7)">a</text><text xml:space="preserve" font-family="GillSans-Light,Gill Sans" font-size="40.5" fill="#FEFFFE" transform="matrix(1.00, 0.00, -0.00, -1.00, 319.9, 103.7)">t</text><text xml:space="preserve" font-family="GillSans-Light,Gill Sans" font-size="40.5" fill="#FEFFFE" transform="matrix(1.00, 0.00, -0.00, -1.00, 332.1, 103.7)"> </text><text xml:space="preserve" font-family="GillSans-Light,Gill Sans" font-size="40.5" fill="#FEFFFE" transform="matrix(1.00, 0.00, -0.00, -1.00, 37.2, 57.7)">n</text><text xml:space="preserve" font-family="GillSans-Light,Gill Sans" font-size="40.5" fill="#FEFFFE" transform="matrix(1.00, 0.00, -0.00, -1.00, 57.1, 57.7)">a</text><text xml:space="preserve" font-family="GillSans-Light,Gill Sans" font-size="40.5" fill="#FEFFFE" transform="matrix(1.00, 0.00, -0.00, -1.00, 74.4, 57.7)">r</text><text xml:space="preserve" font-family="GillSans-Light,Gill Sans" font-size="40.5" fill="#FEFFFE" transform="matrix(1.00, 0.00, -0.00, -1.00, 88.9, 57.7)">r</text><text xml:space="preserve" font-family="GillSans-Light,Gill Sans" font-size="40.5" fill="#FEFFFE" transform="matrix(1.00, 0.00, -0.00, -1.00, 102.4, 57.7)">o</text><text xml:space="preserve" font-family="GillSans-Light,Gill Sans" font-size="40.5" fill="#FEFFFE" transform="matrix(1.00, 0.00, -0.00, -1.00, 123.7, 57.7)">w</text><text xml:space="preserve" font-family="GillSans-Light,Gill Sans" font-size="40.5" fill="#FEFFFE" transform="matrix(1.00, 0.00, -0.00, -1.00, 151.8, 57.7)">e</text><text xml:space="preserve" font-family="GillSans-Light,Gill Sans" font-size="40.5" fill="#FEFFFE" transform="matrix(1.00, 0.00, -0.00, -1.00, 171.2, 57.7)">r</text><text xml:space="preserve" font-family="GillSans-Light,Gill Sans" font-size="40.5" fill="#FEFFFE" transform="matrix(1.00, 0.00, -0.00, -1.00, 184.6, 57.7)"> </text><text xml:space="preserve" font-family="GillSans-Light,Gill Sans" font-size="40.5" fill="#FEFFFE" transform="matrix(1.00, 0.00, -0.00, -1.00, 195.9, 57.7)">s</text><text xml:space="preserve" font-family="GillSans-Light,Gill Sans" font-size="40.5" fill="#FEFFFE" transform="matrix(1.00, 0.00, -0.00, -1.00, 210.2, 57.7)">p</text><text xml:space="preserve" font-family="GillSans-Light,Gill Sans" font-size="40.5" fill="#FEFFFE" transform="matrix(1.00, 0.00, -0.00, -1.00, 230.9, 57.7)">a</text><text xml:space="preserve" font-family="GillSans-Light,Gill Sans" font-size="40.5" fill="#FEFFFE" transform="matrix(1.00, 0.00, -0.00, -1.00, 248.1, 57.7)">c</text><text xml:space="preserve" font-family="GillSans-Light,Gill Sans" font-size="40.5" fill="#FEFFFE" transform="matrix(1.00, 0.00, -0.00, -1.00, 265.0, 57.7)">i</text><text xml:space="preserve" font-family="GillSans-Light,Gill Sans" font-size="40.5" fill="#FEFFFE" transform="matrix(1.00, 0.00, -0.00, -1.00, 272.6, 57.7)">n</text><text xml:space="preserve" font-family="GillSans-Light,Gill Sans" font-size="40.5" fill="#FEFFFE" transform="matrix(1.00, 0.00, -0.00, -1.00, 292.5, 57.7)">g</text><text xml:space="preserve" font-family="GillSans-Light,Gill Sans" font-size="40.5" fill="#FEFFFE" transform="matrix(1.00, 0.00, -0.00, -1.00, 309.8, 57.7)">s</text><text xml:space="preserve" font-family="GillSans-Light,Gill Sans" font-size="40.5" fill="#FEFFFE" transform="matrix(1.00, 0.00, -0.00, -1.00, 324.1, 57.7)"> </text><text xml:space="preserve" font-family="GillSans-Light,Gill Sans" font-size="40.5" fill="#FEFFFE" transform="matrix(1.00, 0.00, -0.00, -1.00, 37.2, 11.7)">(</text><text xml:space="preserve" font-family="GillSans-Light,Gill Sans" font-size="40.5" fill="#FEFFFE" transform="matrix(1.00, 0.00, -0.00, -1.00, 50.7, 11.7)">c</text><text xml:space="preserve" font-family="GillSans-Light,Gill Sans" font-size="40.5" fill="#FEFFFE" transform="matrix(1.00, 0.00, -0.00, -1.00, 67.6, 11.7)">r</text><text xml:space="preserve" font-family="GillSans-Light,Gill Sans" font-size="40.5" fill="#FEFFFE" transform="matrix(1.00, 0.00, -0.00, -1.00, 81.1, 11.7)">o</text><text xml:space="preserve" font-family="GillSans-Light,Gill Sans" font-size="40.5" fill="#FEFFFE" transform="matrix(1.00, 0.00, -0.00, -1.00, 102.4, 11.7)">w</text><text xml:space="preserve" font-family="GillSans-Light,Gill Sans" font-size="40.5" fill="#FEFFFE" transform="matrix(1.00, 0.00, -0.00, -1.00, 131.1, 11.7)">d</text><text xml:space="preserve" font-family="GillSans-Light,Gill Sans" font-size="40.5" fill="#FEFFFE" transform="matrix(1.00, 0.00, -0.00, -1.00, 151.7, 11.7)">i</text><text xml:space="preserve" font-family="GillSans-Light,Gill Sans" font-size="40.5" fill="#FEFFFE" transform="matrix(1.00, 0.00, -0.00, -1.00, 159.4, 11.7)">n</text><text xml:space="preserve" font-family="GillSans-Light,Gill Sans" font-size="40.5" fill="#FEFFFE" transform="matrix(1.00, 0.00, -0.00, -1.00, 179.2, 11.7)">g</text><text xml:space="preserve" font-family="GillSans-Light,Gill Sans" font-size="40.5" fill="#FEFFFE" transform="matrix(1.00, 0.00, -0.00, -1.00, 196.5, 11.7)">)</text></g></svg>