<?xml version="1.0" encoding="UTF-8" standalone="no"?><svg xmlns="http://www.w3.org/2000/svg" xmlns:xlink="http://www.w3.org/1999/xlink" clip-rule="evenodd" stroke-miterlimit="10" viewBox="0 0 296 47"><desc>SVG generated by Keynote</desc><defs></defs><g transform="matrix(1.00, 0.00, -0.00, -1.00, 0.0, 47.0)"><text xml:space="preserve" font-family="GillSans-Light,Gill Sans" font-size="47.0" fill="#FEFFFE" transform="matrix(1.00, 0.00, -0.00, -1.00, -1.9, 12.8)">p</text><text xml:space="preserve" font-family="GillSans-Light,Gill Sans" font-size="47.0" fill="#FEFFFE" transform="matrix(1.00, 0.00, -0.00, -1.00, 22.0, 12.8)">o</text><text xml:space="preserve" font-family="GillSans-Light,Gill Sans" font-size="47.0" fill="#FEFFFE" transform="matrix(1.00, 0.00, -0.00, -1.00, 47.5, 12.8)">s</text><text xml:space="preserve" font-family="GillSans-Light,Gill Sans" font-size="47.0" fill="#FEFFFE" transform="matrix(1.00, 0.00, -0.00, -1.00, 64.1, 12.8)">i</text><text xml:space="preserve" font-family="GillSans-Light,Gill Sans" font-size="47.0" fill="#FEFFFE" transform="matrix(1.00, 0.00, -0.00, -1.00, 72.9, 12.8)">t</text><text xml:space="preserve" font-family="GillSans-Light,Gill Sans" font-size="47.0" fill="#FEFFFE" transform="matrix(1.00, 0.00, -0.00, -1.00, 87.1, 12.8)">i</text><text xml:space="preserve" font-family="GillSans-Light,Gill Sans" font-size="47.0" fill="#FEFFFE" transform="matrix(1.00, 0.00, -0.00, -1.00, 96.0, 12.8)">o</text><text xml:space="preserve" font-family="GillSans-Light,Gill Sans" font-size="47.0" fill="#FEFFFE" transform="matrix(1.00, 0.00, -0.00, -1.00, 121.4, 12.8)">n</text><text xml:space="preserve" font-family="GillSans-Light,Gill Sans" font-size="47.0" fill="#FEFFFE" transform="matrix(1.00, 0.00, -0.00, -1.00, 144.5, 12.8)">-</text><text xml:space="preserve" font-family="GillSans-Light,Gill Sans" font-size="47.0" fill="#FEFFFE" transform="matrix(1.00, 0.00, -0.00, -1.00, 159.2, 12.8)">d</text><text xml:space="preserve" font-family="GillSans-Light,Gill Sans" font-size="47.0" fill="#FEFFFE" transform="matrix(1.00, 0.00, -0.00, -1.00, 183.1, 12.8)">e</text><text xml:space="preserve" font-family="GillSans-Light,Gill Sans" font-size="47.0" fill="#FEFFFE" transform="matrix(1.00, 0.00, -0.00, -1.00, 205.7, 12.8)">ï¬</text><text xml:space="preserve" font-family="GillSans-Light,Gill Sans" font-size="47.0" fill="#FEFFFE" transform="matrix(1.00, 0.00, -0.00, -1.00, 228.2, 12.8)">n</text><text xml:space="preserve" font-family="GillSans-Light,Gill Sans" font-size="47.0" fill="#FEFFFE" transform="matrix(1.00, 0.00, -0.00, -1.00, 251.2, 12.8)">e</text><text xml:space="preserve" font-family="GillSans-Light,Gill Sans" font-size="47.0" fill="#FEFFFE" transform="matrix(1.00, 0.00, -0.00, -1.00, 273.7, 12.8)">d</text></g></svg>