<?xml version="1.0" encoding="UTF-8" standalone="no"?><svg xmlns="http://www.w3.org/2000/svg" xmlns:xlink="http://www.w3.org/1999/xlink" clip-rule="evenodd" stroke-miterlimit="10" viewBox="0 0 410 22"><desc>SVG generated by Keynote</desc><defs></defs><g transform="matrix(1.00, 0.00, -0.00, -1.00, 0.0, 22.0)"><text xml:space="preserve" font-family="GillSans,Gill Sans" font-size="21.0" fill="#FEFFFF" transform="matrix(1.00, 0.00, -0.00, -1.00, 0.4, 5.8)">H</text><text xml:space="preserve" font-family="GillSans,Gill Sans" font-size="21.0" fill="#FEFFFF" transform="matrix(1.00, 0.00, -0.00, -1.00, 15.7, 5.8)">e</text><text xml:space="preserve" font-family="GillSans,Gill Sans" font-size="21.0" fill="#FEFFFF" transform="matrix(1.00, 0.00, -0.00, -1.00, 25.8, 5.8)">r</text><text xml:space="preserve" font-family="GillSans,Gill Sans" font-size="21.0" fill="#FEFFFF" transform="matrix(1.00, 0.00, -0.00, -1.00, 33.7, 5.8)">e</text><text xml:space="preserve" font-family="GillSans,Gill Sans" font-size="21.0" fill="#FEFFFF" transform="matrix(1.00, 0.00, -0.00, -1.00, 43.7, 5.8)"> </text><text xml:space="preserve" font-family="GillSans,Gill Sans" font-size="21.0" fill="#FEFFFF" transform="matrix(1.00, 0.00, -0.00, -1.00, 49.6, 5.8)">I</text><text xml:space="preserve" font-family="GillSans,Gill Sans" font-size="21.0" fill="#FEFFFF" transform="matrix(1.00, 0.00, -0.00, -1.00, 54.8, 5.8)">’</text><text xml:space="preserve" font-family="GillSans,Gill Sans" font-size="21.0" fill="#FEFFFF" transform="matrix(1.00, 0.00, -0.00, -1.00, 59.4, 5.8)">m</text><text xml:space="preserve" font-family="GillSans,Gill Sans" font-size="21.0" fill="#FEFFFF" transform="matrix(1.00, 0.00, -0.00, -1.00, 75.6, 5.8)"> </text><text xml:space="preserve" font-family="GillSans,Gill Sans" font-size="21.0" fill="#FEFFFF" transform="matrix(1.00, 0.00, -0.00, -1.00, 81.4, 5.8)">s</text><text xml:space="preserve" font-family="GillSans,Gill Sans" font-size="21.0" fill="#FEFFFF" transform="matrix(1.00, 0.00, -0.00, -1.00, 89.5, 5.8)">h</text><text xml:space="preserve" font-family="GillSans,Gill Sans" font-size="21.0" fill="#FEFFFF" transform="matrix(1.00, 0.00, -0.00, -1.00, 100.0, 5.8)">o</text><text xml:space="preserve" font-family="GillSans,Gill Sans" font-size="21.0" fill="#FEFFFF" transform="matrix(1.00, 0.00, -0.00, -1.00, 111.4, 5.8)">w</text><text xml:space="preserve" font-family="GillSans,Gill Sans" font-size="21.0" fill="#FEFFFF" transform="matrix(1.00, 0.00, -0.00, -1.00, 126.5, 5.8)">i</text><text xml:space="preserve" font-family="GillSans,Gill Sans" font-size="21.0" fill="#FEFFFF" transform="matrix(1.00, 0.00, -0.00, -1.00, 131.1, 5.8)">n</text><text xml:space="preserve" font-family="GillSans,Gill Sans" font-size="21.0" fill="#FEFFFF" transform="matrix(1.00, 0.00, -0.00, -1.00, 141.6, 5.8)">g</text><text xml:space="preserve" font-family="GillSans,Gill Sans" font-size="21.0" fill="#FEFFFF" transform="matrix(1.00, 0.00, -0.00, -1.00, 150.6, 5.8)"> </text><text xml:space="preserve" font-family="GillSans,Gill Sans" font-size="21.0" fill="#FEFFFF" transform="matrix(1.00, 0.00, -0.00, -1.00, 156.4, 5.8)">d</text><text xml:space="preserve" font-family="GillSans,Gill Sans" font-size="21.0" fill="#FEFFFF" transform="matrix(1.00, 0.00, -0.00, -1.00, 167.1, 5.8)">a</text><text xml:space="preserve" font-family="GillSans,Gill Sans" font-size="21.0" fill="#FEFFFF" transform="matrix(1.00, 0.00, -0.00, -1.00, 176.0, 5.8)">t</text><text xml:space="preserve" font-family="GillSans,Gill Sans" font-size="21.0" fill="#FEFFFF" transform="matrix(1.00, 0.00, -0.00, -1.00, 183.0, 5.8)">a</text><text xml:space="preserve" font-family="GillSans,Gill Sans" font-size="21.0" fill="#FEFFFF" transform="matrix(1.00, 0.00, -0.00, -1.00, 192.0, 5.8)"> </text><text xml:space="preserve" font-family="GillSans,Gill Sans" font-size="21.0" fill="#FEFFFF" transform="matrix(1.00, 0.00, -0.00, -1.00, 197.8, 5.8)">u</text><text xml:space="preserve" font-family="GillSans,Gill Sans" font-size="21.0" fill="#FEFFFF" transform="matrix(1.00, 0.00, -0.00, -1.00, 208.3, 5.8)">n</text><text xml:space="preserve" font-family="GillSans,Gill Sans" font-size="21.0" fill="#FEFFFF" transform="matrix(1.00, 0.00, -0.00, -1.00, 218.8, 5.8)">d</text><text xml:space="preserve" font-family="GillSans,Gill Sans" font-size="21.0" fill="#FEFFFF" transform="matrix(1.00, 0.00, -0.00, -1.00, 229.5, 5.8)">e</text><text xml:space="preserve" font-family="GillSans,Gill Sans" font-size="21.0" fill="#FEFFFF" transform="matrix(1.00, 0.00, -0.00, -1.00, 239.6, 5.8)">r</text><text xml:space="preserve" font-family="GillSans,Gill Sans" font-size="21.0" fill="#FEFFFF" transform="matrix(1.00, 0.00, -0.00, -1.00, 247.9, 5.8)"> </text><text xml:space="preserve" font-family="GillSans,Gill Sans" font-size="21.0" fill="#FEFFFF" transform="matrix(1.00, 0.00, -0.00, -1.00, 253.7, 5.8)">t</text><text xml:space="preserve" font-family="GillSans,Gill Sans" font-size="21.0" fill="#FEFFFF" transform="matrix(1.00, 0.00, -0.00, -1.00, 260.7, 5.8)">w</text><text xml:space="preserve" font-family="GillSans,Gill Sans" font-size="21.0" fill="#FEFFFF" transform="matrix(1.00, 0.00, -0.00, -1.00, 275.4, 5.8)">o</text><text xml:space="preserve" font-family="GillSans,Gill Sans" font-size="21.0" fill="#FEFFFF" transform="matrix(1.00, 0.00, -0.00, -1.00, 287.0, 5.8)"> </text><text xml:space="preserve" font-family="GillSans,Gill Sans" font-size="21.0" fill="#FEFFFF" transform="matrix(1.00, 0.00, -0.00, -1.00, 292.8, 5.8)">c</text><text xml:space="preserve" font-family="GillSans,Gill Sans" font-size="21.0" fill="#FEFFFF" transform="matrix(1.00, 0.00, -0.00, -1.00, 302.0, 5.8)">o</text><text xml:space="preserve" font-family="GillSans,Gill Sans" font-size="21.0" fill="#FEFFFF" transform="matrix(1.00, 0.00, -0.00, -1.00, 313.6, 5.8)">n</text><text xml:space="preserve" font-family="GillSans,Gill Sans" font-size="21.0" fill="#FEFFFF" transform="matrix(1.00, 0.00, -0.00, -1.00, 324.1, 5.8)">d</text><text xml:space="preserve" font-family="GillSans,Gill Sans" font-size="21.0" fill="#FEFFFF" transform="matrix(1.00, 0.00, -0.00, -1.00, 334.8, 5.8)">i</text><text xml:space="preserve" font-family="GillSans,Gill Sans" font-size="21.0" fill="#FEFFFF" transform="matrix(1.00, 0.00, -0.00, -1.00, 339.4, 5.8)">t</text><text xml:space="preserve" font-family="GillSans,Gill Sans" font-size="21.0" fill="#FEFFFF" transform="matrix(1.00, 0.00, -0.00, -1.00, 346.4, 5.8)">i</text><text xml:space="preserve" font-family="GillSans,Gill Sans" font-size="21.0" fill="#FEFFFF" transform="matrix(1.00, 0.00, -0.00, -1.00, 351.0, 5.8)">o</text><text xml:space="preserve" font-family="GillSans,Gill Sans" font-size="21.0" fill="#FEFFFF" transform="matrix(1.00, 0.00, -0.00, -1.00, 362.6, 5.8)">n</text><text xml:space="preserve" font-family="GillSans,Gill Sans" font-size="21.0" fill="#FEFFFF" transform="matrix(1.00, 0.00, -0.00, -1.00, 373.1, 5.8)">s</text><text xml:space="preserve" font-family="GillSans,Gill Sans" font-size="21.0" fill="#FEFFFF" transform="matrix(1.00, 0.00, -0.00, -1.00, 381.2, 5.8)"> </text><text xml:space="preserve" font-family="GillSans,Gill Sans" font-size="21.0" fill="#FEFFFF" transform="matrix(1.00, 0.00, -0.00, -1.00, 387.0, 5.8)">—</text></g></svg>