<?xml version="1.0" encoding="UTF-8" standalone="no"?><svg xmlns="http://www.w3.org/2000/svg" xmlns:xlink="http://www.w3.org/1999/xlink" clip-rule="evenodd" stroke-miterlimit="10" viewBox="0 0 323 37"><desc>SVG generated by Keynote</desc><defs></defs><g transform="matrix(1.00, 0.00, -0.00, -1.00, 0.0, 37.0)"><text xml:space="preserve" font-family="GillSans-Light,Gill Sans" font-size="47.0" fill="#FEFFFE" transform="matrix(1.00, 0.00, -0.00, -1.00, 0.1, 2.5)">d</text><text xml:space="preserve" font-family="GillSans-Light,Gill Sans" font-size="47.0" fill="#FEFFFE" transform="matrix(1.00, 0.00, -0.00, -1.00, 24.0, 2.5)">e</text><text xml:space="preserve" font-family="GillSans-Light,Gill Sans" font-size="47.0" fill="#FEFFFE" transform="matrix(1.00, 0.00, -0.00, -1.00, 46.5, 2.5)">ï¬</text><text xml:space="preserve" font-family="GillSans-Light,Gill Sans" font-size="47.0" fill="#FEFFFE" transform="matrix(1.00, 0.00, -0.00, -1.00, 69.0, 2.5)">n</text><text xml:space="preserve" font-family="GillSans-Light,Gill Sans" font-size="47.0" fill="#FEFFFE" transform="matrix(1.00, 0.00, -0.00, -1.00, 92.1, 2.5)">e</text><text xml:space="preserve" font-family="GillSans-Light,Gill Sans" font-size="47.0" fill="#FEFFFE" transform="matrix(1.00, 0.00, -0.00, -1.00, 114.6, 2.5)">d</text><text xml:space="preserve" font-family="GillSans-Light,Gill Sans" font-size="47.0" fill="#FEFFFE" transform="matrix(1.00, 0.00, -0.00, -1.00, 138.5, 2.5)"> </text><text xml:space="preserve" font-family="GillSans-Light,Gill Sans" font-size="47.0" fill="#FEFFFE" transform="matrix(1.00, 0.00, -0.00, -1.00, 151.6, 2.5)">m</text><text xml:space="preserve" font-family="GillSans-Light,Gill Sans" font-size="47.0" fill="#FEFFFE" transform="matrix(1.00, 0.00, -0.00, -1.00, 187.8, 2.5)">o</text><text xml:space="preserve" font-family="GillSans-Light,Gill Sans" font-size="47.0" fill="#FEFFFE" transform="matrix(1.00, 0.00, -0.00, -1.00, 213.3, 2.5)">t</text><text xml:space="preserve" font-family="GillSans-Light,Gill Sans" font-size="47.0" fill="#FEFFFE" transform="matrix(1.00, 0.00, -0.00, -1.00, 227.5, 2.5)">i</text><text xml:space="preserve" font-family="GillSans-Light,Gill Sans" font-size="47.0" fill="#FEFFFE" transform="matrix(1.00, 0.00, -0.00, -1.00, 236.3, 2.5)">o</text><text xml:space="preserve" font-family="GillSans-Light,Gill Sans" font-size="47.0" fill="#FEFFFE" transform="matrix(1.00, 0.00, -0.00, -1.00, 261.8, 2.5)">n</text><text xml:space="preserve" font-family="GillSans-Light,Gill Sans" font-size="47.0" fill="#FEFFFE" transform="matrix(1.00, 0.00, -0.00, -1.00, 284.8, 2.5)"> </text><text xml:space="preserve" font-family="GillSans-Light,Gill Sans" font-size="47.0" fill="#FEFFFE" transform="matrix(1.00, 0.00, -0.00, -1.00, 297.9, 2.5)">i</text><text xml:space="preserve" font-family="GillSans-Light,Gill Sans" font-size="47.0" fill="#FEFFFE" transform="matrix(1.00, 0.00, -0.00, -1.00, 306.7, 2.5)">s</text></g></svg>