<?xml version="1.0" encoding="UTF-8" standalone="no"?><svg xmlns="http://www.w3.org/2000/svg" xmlns:xlink="http://www.w3.org/1999/xlink" clip-rule="evenodd" stroke-miterlimit="10" viewBox="0 0 466 22"><desc>SVG generated by Keynote</desc><defs></defs><g transform="matrix(1.00, 0.00, -0.00, -1.00, 0.0, 22.0)"><text xml:space="preserve" font-family="GillSans,Gill Sans" font-size="21.0" fill="#FEFFFF" transform="matrix(1.00, 0.00, -0.00, -1.00, 0.4, 5.8)">n</text><text xml:space="preserve" font-family="GillSans,Gill Sans" font-size="21.0" fill="#FEFFFF" transform="matrix(1.00, 0.00, -0.00, -1.00, 10.9, 5.8)">a</text><text xml:space="preserve" font-family="GillSans,Gill Sans" font-size="21.0" fill="#FEFFFF" transform="matrix(1.00, 0.00, -0.00, -1.00, 19.9, 5.8)">r</text><text xml:space="preserve" font-family="GillSans,Gill Sans" font-size="21.0" fill="#FEFFFF" transform="matrix(1.00, 0.00, -0.00, -1.00, 28.0, 5.8)">r</text><text xml:space="preserve" font-family="GillSans,Gill Sans" font-size="21.0" fill="#FEFFFF" transform="matrix(1.00, 0.00, -0.00, -1.00, 35.8, 5.8)">o</text><text xml:space="preserve" font-family="GillSans,Gill Sans" font-size="21.0" fill="#FEFFFF" transform="matrix(1.00, 0.00, -0.00, -1.00, 47.1, 5.8)">w</text><text xml:space="preserve" font-family="GillSans,Gill Sans" font-size="21.0" fill="#FEFFFF" transform="matrix(1.00, 0.00, -0.00, -1.00, 62.2, 5.8)">l</text><text xml:space="preserve" font-family="GillSans,Gill Sans" font-size="21.0" fill="#FEFFFF" transform="matrix(1.00, 0.00, -0.00, -1.00, 66.7, 5.8)">y</text><text xml:space="preserve" font-family="GillSans,Gill Sans" font-size="21.0" fill="#FEFFFF" transform="matrix(1.00, 0.00, -0.00, -1.00, 75.8, 5.8)"> </text><text xml:space="preserve" font-family="GillSans,Gill Sans" font-size="21.0" fill="#FEFFFF" transform="matrix(1.00, 0.00, -0.00, -1.00, 81.7, 5.8)">s</text><text xml:space="preserve" font-family="GillSans,Gill Sans" font-size="21.0" fill="#FEFFFF" transform="matrix(1.00, 0.00, -0.00, -1.00, 89.8, 5.8)">p</text><text xml:space="preserve" font-family="GillSans,Gill Sans" font-size="21.0" fill="#FEFFFF" transform="matrix(1.00, 0.00, -0.00, -1.00, 100.3, 5.8)">a</text><text xml:space="preserve" font-family="GillSans,Gill Sans" font-size="21.0" fill="#FEFFFF" transform="matrix(1.00, 0.00, -0.00, -1.00, 109.2, 5.8)">c</text><text xml:space="preserve" font-family="GillSans,Gill Sans" font-size="21.0" fill="#FEFFFF" transform="matrix(1.00, 0.00, -0.00, -1.00, 118.4, 5.8)">e</text><text xml:space="preserve" font-family="GillSans,Gill Sans" font-size="21.0" fill="#FEFFFF" transform="matrix(1.00, 0.00, -0.00, -1.00, 128.5, 5.8)">d</text><text xml:space="preserve" font-family="GillSans,Gill Sans" font-size="21.0" fill="#FEFFFF" transform="matrix(1.00, 0.00, -0.00, -1.00, 139.2, 5.8)">,</text><text xml:space="preserve" font-family="GillSans,Gill Sans" font-size="21.0" fill="#FEFFFF" transform="matrix(1.00, 0.00, -0.00, -1.00, 141.7, 5.8)"> </text><text xml:space="preserve" font-family="GillSans,Gill Sans" font-size="21.0" fill="#FEFFFF" transform="matrix(1.00, 0.00, -0.00, -1.00, 147.5, 5.8)">s</text><text xml:space="preserve" font-family="GillSans,Gill Sans" font-size="21.0" fill="#FEFFFF" transform="matrix(1.00, 0.00, -0.00, -1.00, 155.6, 5.8)">e</text><text xml:space="preserve" font-family="GillSans,Gill Sans" font-size="21.0" fill="#FEFFFF" transform="matrix(1.00, 0.00, -0.00, -1.00, 165.6, 5.8)">n</text><text xml:space="preserve" font-family="GillSans,Gill Sans" font-size="21.0" fill="#FEFFFF" transform="matrix(1.00, 0.00, -0.00, -1.00, 176.1, 5.8)">s</text><text xml:space="preserve" font-family="GillSans,Gill Sans" font-size="21.0" fill="#FEFFFF" transform="matrix(1.00, 0.00, -0.00, -1.00, 184.2, 5.8)">i</text><text xml:space="preserve" font-family="GillSans,Gill Sans" font-size="21.0" fill="#FEFFFF" transform="matrix(1.00, 0.00, -0.00, -1.00, 188.8, 5.8)">t</text><text xml:space="preserve" font-family="GillSans,Gill Sans" font-size="21.0" fill="#FEFFFF" transform="matrix(1.00, 0.00, -0.00, -1.00, 195.8, 5.8)">i</text><text xml:space="preserve" font-family="GillSans,Gill Sans" font-size="21.0" fill="#FEFFFF" transform="matrix(1.00, 0.00, -0.00, -1.00, 200.4, 5.8)">v</text><text xml:space="preserve" font-family="GillSans,Gill Sans" font-size="21.0" fill="#FEFFFF" transform="matrix(1.00, 0.00, -0.00, -1.00, 209.6, 5.8)">i</text><text xml:space="preserve" font-family="GillSans,Gill Sans" font-size="21.0" fill="#FEFFFF" transform="matrix(1.00, 0.00, -0.00, -1.00, 214.2, 5.8)">t</text><text xml:space="preserve" font-family="GillSans,Gill Sans" font-size="21.0" fill="#FEFFFF" transform="matrix(1.00, 0.00, -0.00, -1.00, 221.2, 5.8)">y</text><text xml:space="preserve" font-family="GillSans,Gill Sans" font-size="21.0" fill="#FEFFFF" transform="matrix(1.00, 0.00, -0.00, -1.00, 230.4, 5.8)"> </text><text xml:space="preserve" font-family="GillSans,Gill Sans" font-size="21.0" fill="#FEFFFF" transform="matrix(1.00, 0.00, -0.00, -1.00, 236.3, 5.8)">t</text><text xml:space="preserve" font-family="GillSans,Gill Sans" font-size="21.0" fill="#FEFFFF" transform="matrix(1.00, 0.00, -0.00, -1.00, 243.2, 5.8)">o</text><text xml:space="preserve" font-family="GillSans,Gill Sans" font-size="21.0" fill="#FEFFFF" transform="matrix(1.00, 0.00, -0.00, -1.00, 254.8, 5.8)"> </text><text xml:space="preserve" font-family="GillSans,Gill Sans" font-size="21.0" fill="#FEFFFF" transform="matrix(1.00, 0.00, -0.00, -1.00, 260.7, 5.8)">p</text><text xml:space="preserve" font-family="GillSans,Gill Sans" font-size="21.0" fill="#FEFFFF" transform="matrix(1.00, 0.00, -0.00, -1.00, 271.2, 5.8)">o</text><text xml:space="preserve" font-family="GillSans,Gill Sans" font-size="21.0" fill="#FEFFFF" transform="matrix(1.00, 0.00, -0.00, -1.00, 282.7, 5.8)">s</text><text xml:space="preserve" font-family="GillSans,Gill Sans" font-size="21.0" fill="#FEFFFF" transform="matrix(1.00, 0.00, -0.00, -1.00, 290.8, 5.8)">i</text><text xml:space="preserve" font-family="GillSans,Gill Sans" font-size="21.0" fill="#FEFFFF" transform="matrix(1.00, 0.00, -0.00, -1.00, 295.4, 5.8)">t</text><text xml:space="preserve" font-family="GillSans,Gill Sans" font-size="21.0" fill="#FEFFFF" transform="matrix(1.00, 0.00, -0.00, -1.00, 302.4, 5.8)">i</text><text xml:space="preserve" font-family="GillSans,Gill Sans" font-size="21.0" fill="#FEFFFF" transform="matrix(1.00, 0.00, -0.00, -1.00, 307.0, 5.8)">o</text><text xml:space="preserve" font-family="GillSans,Gill Sans" font-size="21.0" fill="#FEFFFF" transform="matrix(1.00, 0.00, -0.00, -1.00, 318.6, 5.8)">n</text><text xml:space="preserve" font-family="GillSans,Gill Sans" font-size="21.0" fill="#FEFFFF" transform="matrix(1.00, 0.00, -0.00, -1.00, 329.1, 5.8)">-</text><text xml:space="preserve" font-family="GillSans,Gill Sans" font-size="21.0" fill="#FEFFFF" transform="matrix(1.00, 0.00, -0.00, -1.00, 335.9, 5.8)">d</text><text xml:space="preserve" font-family="GillSans,Gill Sans" font-size="21.0" fill="#FEFFFF" transform="matrix(1.00, 0.00, -0.00, -1.00, 346.6, 5.8)">e</text><text xml:space="preserve" font-family="GillSans,Gill Sans" font-size="21.0" fill="#FEFFFF" transform="matrix(1.00, 0.00, -0.00, -1.00, 356.7, 5.8)">ï¬</text><text xml:space="preserve" font-family="GillSans,Gill Sans" font-size="21.0" fill="#FEFFFF" transform="matrix(1.00, 0.00, -0.00, -1.00, 367.2, 5.8)">n</text><text xml:space="preserve" font-family="GillSans,Gill Sans" font-size="21.0" fill="#FEFFFF" transform="matrix(1.00, 0.00, -0.00, -1.00, 377.7, 5.8)">e</text><text xml:space="preserve" font-family="GillSans,Gill Sans" font-size="21.0" fill="#FEFFFF" transform="matrix(1.00, 0.00, -0.00, -1.00, 387.7, 5.8)">d</text><text xml:space="preserve" font-family="GillSans,Gill Sans" font-size="21.0" fill="#FEFFFF" transform="matrix(1.00, 0.00, -0.00, -1.00, 398.4, 5.8)"> </text><text xml:space="preserve" font-family="GillSans,Gill Sans" font-size="21.0" fill="#FEFFFF" transform="matrix(1.00, 0.00, -0.00, -1.00, 404.3, 5.8)">m</text><text xml:space="preserve" font-family="GillSans,Gill Sans" font-size="21.0" fill="#FEFFFF" transform="matrix(1.00, 0.00, -0.00, -1.00, 420.4, 5.8)">o</text><text xml:space="preserve" font-family="GillSans,Gill Sans" font-size="21.0" fill="#FEFFFF" transform="matrix(1.00, 0.00, -0.00, -1.00, 432.0, 5.8)">t</text><text xml:space="preserve" font-family="GillSans,Gill Sans" font-size="21.0" fill="#FEFFFF" transform="matrix(1.00, 0.00, -0.00, -1.00, 439.0, 5.8)">i</text><text xml:space="preserve" font-family="GillSans,Gill Sans" font-size="21.0" fill="#FEFFFF" transform="matrix(1.00, 0.00, -0.00, -1.00, 443.6, 5.8)">o</text><text xml:space="preserve" font-family="GillSans,Gill Sans" font-size="21.0" fill="#FEFFFF" transform="matrix(1.00, 0.00, -0.00, -1.00, 455.2, 5.8)">n</text></g></svg>