<?xml version="1.0" encoding="UTF-8" standalone="no"?><svg xmlns="http://www.w3.org/2000/svg" xmlns:xlink="http://www.w3.org/1999/xlink" clip-rule="evenodd" stroke-miterlimit="10" viewBox="0 0 459 127"><desc>SVG generated by Keynote</desc><defs></defs><g transform="matrix(1.00, 0.00, -0.00, -1.00, 0.0, 127.0)"><text xml:space="preserve" font-family="GillSans-Light,Gill Sans" font-size="33.2" fill="#FEFFFE" transform="matrix(1.00, 0.00, -0.00, -1.00, 1.0, 96.7)">•</text><text xml:space="preserve" font-family="GillSans-Light,Gill Sans" font-size="40.5" fill="#FEFFFE" transform="matrix(1.00, 0.00, -0.00, -1.00, 37.2, 94.5)">“</text><text xml:space="preserve" font-family="GillSans-Light,Gill Sans" font-size="40.5" fill="#FEFFFE" transform="matrix(1.00, 0.00, -0.00, -1.00, 53.3, 94.5)">S</text><text xml:space="preserve" font-family="GillSans-Light,Gill Sans" font-size="40.5" fill="#FEFFFE" transform="matrix(1.00, 0.00, -0.00, -1.00, 72.3, 94.5)">e</text><text xml:space="preserve" font-family="GillSans-Light,Gill Sans" font-size="40.5" fill="#FEFFFE" transform="matrix(1.00, 0.00, -0.00, -1.00, 91.7, 94.5)">n</text><text xml:space="preserve" font-family="GillSans-Light,Gill Sans" font-size="40.5" fill="#FEFFFE" transform="matrix(1.00, 0.00, -0.00, -1.00, 111.5, 94.5)">s</text><text xml:space="preserve" font-family="GillSans-Light,Gill Sans" font-size="40.5" fill="#FEFFFE" transform="matrix(1.00, 0.00, -0.00, -1.00, 125.9, 94.5)">i</text><text xml:space="preserve" font-family="GillSans-Light,Gill Sans" font-size="40.5" fill="#FEFFFE" transform="matrix(1.00, 0.00, -0.00, -1.00, 133.5, 94.5)">t</text><text xml:space="preserve" font-family="GillSans-Light,Gill Sans" font-size="40.5" fill="#FEFFFE" transform="matrix(1.00, 0.00, -0.00, -1.00, 145.7, 94.5)">i</text><text xml:space="preserve" font-family="GillSans-Light,Gill Sans" font-size="40.5" fill="#FEFFFE" transform="matrix(1.00, 0.00, -0.00, -1.00, 153.3, 94.5)">v</text><text xml:space="preserve" font-family="GillSans-Light,Gill Sans" font-size="40.5" fill="#FEFFFE" transform="matrix(1.00, 0.00, -0.00, -1.00, 170.6, 94.5)">i</text><text xml:space="preserve" font-family="GillSans-Light,Gill Sans" font-size="40.5" fill="#FEFFFE" transform="matrix(1.00, 0.00, -0.00, -1.00, 178.2, 94.5)">t</text><text xml:space="preserve" font-family="GillSans-Light,Gill Sans" font-size="40.5" fill="#FEFFFE" transform="matrix(1.00, 0.00, -0.00, -1.00, 190.4, 94.5)">y</text><text xml:space="preserve" font-family="GillSans-Light,Gill Sans" font-size="40.5" fill="#FEFFFE" transform="matrix(1.00, 0.00, -0.00, -1.00, 207.3, 94.5)">”</text><text xml:space="preserve" font-family="GillSans-Light,Gill Sans" font-size="40.5" fill="#FEFFFE" transform="matrix(1.00, 0.00, -0.00, -1.00, 220.1, 94.5)"> </text><text xml:space="preserve" font-family="GillSans-Light,Gill Sans" font-size="40.5" fill="#FEFFFE" transform="matrix(1.00, 0.00, -0.00, -1.00, 231.4, 94.5)">i</text><text xml:space="preserve" font-family="GillSans-Light,Gill Sans" font-size="40.5" fill="#FEFFFE" transform="matrix(1.00, 0.00, -0.00, -1.00, 239.0, 94.5)">s</text><text xml:space="preserve" font-family="GillSans-Light,Gill Sans" font-size="40.5" fill="#FEFFFE" transform="matrix(1.00, 0.00, -0.00, -1.00, 253.3, 94.5)"> </text><text xml:space="preserve" font-family="GillSans-Light,Gill Sans" font-size="40.5" fill="#FEFFFE" transform="matrix(1.00, 0.00, -0.00, -1.00, 264.5, 94.5)">t</text><text xml:space="preserve" font-family="GillSans-Light,Gill Sans" font-size="40.5" fill="#FEFFFE" transform="matrix(1.00, 0.00, -0.00, -1.00, 276.8, 94.5)">h</text><text xml:space="preserve" font-family="GillSans-Light,Gill Sans" font-size="40.5" fill="#FEFFFE" transform="matrix(1.00, 0.00, -0.00, -1.00, 296.6, 94.5)">e</text><text xml:space="preserve" font-family="GillSans-Light,Gill Sans" font-size="40.5" fill="#FEFFFE" transform="matrix(1.00, 0.00, -0.00, -1.00, 316.0, 94.5)"> </text><text xml:space="preserve" font-family="GillSans-Light,Gill Sans" font-size="40.5" fill="#FEFFFE" transform="matrix(1.00, 0.00, -0.00, -1.00, 327.3, 94.5)">s</text><text xml:space="preserve" font-family="GillSans-Light,Gill Sans" font-size="40.5" fill="#FEFFFE" transform="matrix(1.00, 0.00, -0.00, -1.00, 341.6, 94.5)">l</text><text xml:space="preserve" font-family="GillSans-Light,Gill Sans" font-size="40.5" fill="#FEFFFE" transform="matrix(1.00, 0.00, -0.00, -1.00, 349.2, 94.5)">o</text><text xml:space="preserve" font-family="GillSans-Light,Gill Sans" font-size="40.5" fill="#FEFFFE" transform="matrix(1.00, 0.00, -0.00, -1.00, 371.2, 94.5)">p</text><text xml:space="preserve" font-family="GillSans-Light,Gill Sans" font-size="40.5" fill="#FEFFFE" transform="matrix(1.00, 0.00, -0.00, -1.00, 391.8, 94.5)">e</text><text xml:space="preserve" font-family="GillSans-Light,Gill Sans" font-size="40.5" fill="#FEFFFE" transform="matrix(1.00, 0.00, -0.00, -1.00, 411.2, 94.5)"> </text><text xml:space="preserve" font-family="GillSans-Light,Gill Sans" font-size="40.5" fill="#FEFFFE" transform="matrix(1.00, 0.00, -0.00, -1.00, 422.5, 94.5)">o</text><text xml:space="preserve" font-family="GillSans-Light,Gill Sans" font-size="40.5" fill="#FEFFFE" transform="matrix(1.00, 0.00, -0.00, -1.00, 444.4, 94.5)">f</text><text xml:space="preserve" font-family="GillSans-Light,Gill Sans" font-size="40.5" fill="#FEFFFE" transform="matrix(1.00, 0.00, -0.00, -1.00, 454.1, 94.5)"> </text><text xml:space="preserve" font-family="GillSans-Light,Gill Sans" font-size="40.5" fill="#FEFFFE" transform="matrix(1.00, 0.00, -0.00, -1.00, 37.2, 48.5)">t</text><text xml:space="preserve" font-family="GillSans-Light,Gill Sans" font-size="40.5" fill="#FEFFFE" transform="matrix(1.00, 0.00, -0.00, -1.00, 49.4, 48.5)">h</text><text xml:space="preserve" font-family="GillSans-Light,Gill Sans" font-size="40.5" fill="#FEFFFE" transform="matrix(1.00, 0.00, -0.00, -1.00, 69.3, 48.5)">e</text><text xml:space="preserve" font-family="GillSans-Light,Gill Sans" font-size="40.5" fill="#FEFFFE" transform="matrix(1.00, 0.00, -0.00, -1.00, 88.7, 48.5)"> </text><text xml:space="preserve" font-family="GillSans-Light,Gill Sans" font-size="40.5" fill="#FEFFFE" transform="matrix(1.00, 0.00, -0.00, -1.00, 100.0, 48.5)">p</text><text xml:space="preserve" font-family="GillSans-Light,Gill Sans" font-size="40.5" fill="#FEFFFE" transform="matrix(1.00, 0.00, -0.00, -1.00, 120.6, 48.5)">s</text><text xml:space="preserve" font-family="GillSans-Light,Gill Sans" font-size="40.5" fill="#FEFFFE" transform="matrix(1.00, 0.00, -0.00, -1.00, 134.9, 48.5)">y</text><text xml:space="preserve" font-family="GillSans-Light,Gill Sans" font-size="40.5" fill="#FEFFFE" transform="matrix(1.00, 0.00, -0.00, -1.00, 151.8, 48.5)">c</text><text xml:space="preserve" font-family="GillSans-Light,Gill Sans" font-size="40.5" fill="#FEFFFE" transform="matrix(1.00, 0.00, -0.00, -1.00, 168.7, 48.5)">h</text><text xml:space="preserve" font-family="GillSans-Light,Gill Sans" font-size="40.5" fill="#FEFFFE" transform="matrix(1.00, 0.00, -0.00, -1.00, 188.6, 48.5)">o</text><text xml:space="preserve" font-family="GillSans-Light,Gill Sans" font-size="40.5" fill="#FEFFFE" transform="matrix(1.00, 0.00, -0.00, -1.00, 210.5, 48.5)">m</text><text xml:space="preserve" font-family="GillSans-Light,Gill Sans" font-size="40.5" fill="#FEFFFE" transform="matrix(1.00, 0.00, -0.00, -1.00, 241.7, 48.5)">e</text><text xml:space="preserve" font-family="GillSans-Light,Gill Sans" font-size="40.5" fill="#FEFFFE" transform="matrix(1.00, 0.00, -0.00, -1.00, 261.1, 48.5)">t</text><text xml:space="preserve" font-family="GillSans-Light,Gill Sans" font-size="40.5" fill="#FEFFFE" transform="matrix(1.00, 0.00, -0.00, -1.00, 273.4, 48.5)">r</text><text xml:space="preserve" font-family="GillSans-Light,Gill Sans" font-size="40.5" fill="#FEFFFE" transform="matrix(1.00, 0.00, -0.00, -1.00, 287.9, 48.5)">i</text><text xml:space="preserve" font-family="GillSans-Light,Gill Sans" font-size="40.5" fill="#FEFFFE" transform="matrix(1.00, 0.00, -0.00, -1.00, 295.5, 48.5)">c</text><text xml:space="preserve" font-family="GillSans-Light,Gill Sans" font-size="40.5" fill="#FEFFFE" transform="matrix(1.00, 0.00, -0.00, -1.00, 312.4, 48.5)"> </text><text xml:space="preserve" font-family="GillSans-Light,Gill Sans" font-size="40.5" fill="#FEFFFE" transform="matrix(1.00, 0.00, -0.00, -1.00, 37.2, 2.5)">f</text><text xml:space="preserve" font-family="GillSans-Light,Gill Sans" font-size="40.5" fill="#FEFFFE" transform="matrix(1.00, 0.00, -0.00, -1.00, 47.0, 2.5)">u</text><text xml:space="preserve" font-family="GillSans-Light,Gill Sans" font-size="40.5" fill="#FEFFFE" transform="matrix(1.00, 0.00, -0.00, -1.00, 66.8, 2.5)">n</text><text xml:space="preserve" font-family="GillSans-Light,Gill Sans" font-size="40.5" fill="#FEFFFE" transform="matrix(1.00, 0.00, -0.00, -1.00, 86.7, 2.5)">c</text><text xml:space="preserve" font-family="GillSans-Light,Gill Sans" font-size="40.5" fill="#FEFFFE" transform="matrix(1.00, 0.00, -0.00, -1.00, 103.6, 2.5)">t</text><text xml:space="preserve" font-family="GillSans-Light,Gill Sans" font-size="40.5" fill="#FEFFFE" transform="matrix(1.00, 0.00, -0.00, -1.00, 115.8, 2.5)">i</text><text xml:space="preserve" font-family="GillSans-Light,Gill Sans" font-size="40.5" fill="#FEFFFE" transform="matrix(1.00, 0.00, -0.00, -1.00, 123.4, 2.5)">o</text><text xml:space="preserve" font-family="GillSans-Light,Gill Sans" font-size="40.5" fill="#FEFFFE" transform="matrix(1.00, 0.00, -0.00, -1.00, 145.3, 2.5)">n</text><text xml:space="preserve" font-family="GillSans-Light,Gill Sans" font-size="40.5" fill="#FEFFFE" transform="matrix(1.00, 0.00, -0.00, -1.00, 165.2, 2.5)">.</text></g></svg>