<?xml version="1.0" encoding="UTF-8" standalone="no"?><svg xmlns="http://www.w3.org/2000/svg" xmlns:xlink="http://www.w3.org/1999/xlink" clip-rule="evenodd" stroke-miterlimit="10" viewBox="0 0 368 32"><desc>SVG generated by Keynote</desc><defs></defs><g transform="matrix(1.00, 0.00, -0.00, -1.00, 0.0, 32.0)"><text xml:space="preserve" font-family="GillSans-Light,Gill Sans" font-size="40.5" fill="#FEFFFE" transform="matrix(1.00, 0.00, -0.00, -1.00, 3.2, 2.2)">t</text><text xml:space="preserve" font-family="GillSans-Light,Gill Sans" font-size="40.5" fill="#FEFFFE" transform="matrix(1.00, 0.00, -0.00, -1.00, 15.4, 2.2)">h</text><text xml:space="preserve" font-family="GillSans-Light,Gill Sans" font-size="40.5" fill="#FEFFFE" transform="matrix(1.00, 0.00, -0.00, -1.00, 35.3, 2.2)">e</text><text xml:space="preserve" font-family="GillSans-Light,Gill Sans" font-size="40.5" fill="#FEFFFE" transform="matrix(1.00, 0.00, -0.00, -1.00, 54.7, 2.2)">n</text><text xml:space="preserve" font-family="GillSans-Light,Gill Sans" font-size="40.5" fill="#FEFFFE" transform="matrix(1.00, 0.00, -0.00, -1.00, 74.6, 2.2)"> </text><text xml:space="preserve" font-family="GillSans-Light,Gill Sans" font-size="40.5" fill="#FEFFFE" transform="matrix(1.00, 0.00, -0.00, -1.00, 85.8, 2.2)">c</text><text xml:space="preserve" font-family="GillSans-Light,Gill Sans" font-size="40.5" fill="#FEFFFE" transform="matrix(1.00, 0.00, -0.00, -1.00, 102.7, 2.2)">o</text><text xml:space="preserve" font-family="GillSans-Light,Gill Sans" font-size="40.5" fill="#FEFFFE" transform="matrix(1.00, 0.00, -0.00, -1.00, 124.7, 2.2)">u</text><text xml:space="preserve" font-family="GillSans-Light,Gill Sans" font-size="40.5" fill="#FEFFFE" transform="matrix(1.00, 0.00, -0.00, -1.00, 144.5, 2.2)">n</text><text xml:space="preserve" font-family="GillSans-Light,Gill Sans" font-size="40.5" fill="#FEFFFE" transform="matrix(1.00, 0.00, -0.00, -1.00, 164.4, 2.2)">t</text><text xml:space="preserve" font-family="GillSans-Light,Gill Sans" font-size="40.5" fill="#FEFFFE" transform="matrix(1.00, 0.00, -0.00, -1.00, 176.6, 2.2)">e</text><text xml:space="preserve" font-family="GillSans-Light,Gill Sans" font-size="40.5" fill="#FEFFFE" transform="matrix(1.00, 0.00, -0.00, -1.00, 196.0, 2.2)">r</text><text xml:space="preserve" font-family="GillSans-Light,Gill Sans" font-size="40.5" fill="#FEFFFE" transform="matrix(1.00, 0.00, -0.00, -1.00, 209.5, 2.2)">c</text><text xml:space="preserve" font-family="GillSans-Light,Gill Sans" font-size="40.5" fill="#FEFFFE" transform="matrix(1.00, 0.00, -0.00, -1.00, 226.4, 2.2)">l</text><text xml:space="preserve" font-family="GillSans-Light,Gill Sans" font-size="40.5" fill="#FEFFFE" transform="matrix(1.00, 0.00, -0.00, -1.00, 234.0, 2.2)">o</text><text xml:space="preserve" font-family="GillSans-Light,Gill Sans" font-size="40.5" fill="#FEFFFE" transform="matrix(1.00, 0.00, -0.00, -1.00, 255.9, 2.2)">c</text><text xml:space="preserve" font-family="GillSans-Light,Gill Sans" font-size="40.5" fill="#FEFFFE" transform="matrix(1.00, 0.00, -0.00, -1.00, 272.8, 2.2)">k</text><text xml:space="preserve" font-family="GillSans-Light,Gill Sans" font-size="40.5" fill="#FEFFFE" transform="matrix(1.00, 0.00, -0.00, -1.00, 290.1, 2.2)">w</text><text xml:space="preserve" font-family="GillSans-Light,Gill Sans" font-size="40.5" fill="#FEFFFE" transform="matrix(1.00, 0.00, -0.00, -1.00, 318.8, 2.2)">i</text><text xml:space="preserve" font-family="GillSans-Light,Gill Sans" font-size="40.5" fill="#FEFFFE" transform="matrix(1.00, 0.00, -0.00, -1.00, 326.4, 2.2)">s</text><text xml:space="preserve" font-family="GillSans-Light,Gill Sans" font-size="40.5" fill="#FEFFFE" transform="matrix(1.00, 0.00, -0.00, -1.00, 340.7, 2.2)">e</text><text xml:space="preserve" font-family="GillSans-Light,Gill Sans" font-size="40.5" fill="#FEFFFE" transform="matrix(1.00, 0.00, -0.00, -1.00, 361.3, 2.2)">.</text></g></svg>