<?xml version="1.0" encoding="UTF-8" standalone="no"?><svg xmlns="http://www.w3.org/2000/svg" xmlns:xlink="http://www.w3.org/1999/xlink" clip-rule="evenodd" stroke-miterlimit="10" viewBox="0 0 485 22"><desc>SVG generated by Keynote</desc><defs></defs><g transform="matrix(1.00, 0.00, -0.00, -1.00, 0.0, 22.0)"><text xml:space="preserve" font-family="GillSans,Gill Sans" font-size="21.0" fill="#FEFFFF" transform="matrix(1.00, 0.00, -0.00, -1.00, 1.4, 5.8)">a</text><text xml:space="preserve" font-family="GillSans,Gill Sans" font-size="21.0" fill="#FEFFFF" transform="matrix(1.00, 0.00, -0.00, -1.00, 10.4, 5.8)">s</text><text xml:space="preserve" font-family="GillSans,Gill Sans" font-size="21.0" fill="#FEFFFF" transform="matrix(1.00, 0.00, -0.00, -1.00, 18.4, 5.8)"> </text><text xml:space="preserve" font-family="GillSans,Gill Sans" font-size="21.0" fill="#FEFFFF" transform="matrix(1.00, 0.00, -0.00, -1.00, 24.3, 5.8)">y</text><text xml:space="preserve" font-family="GillSans,Gill Sans" font-size="21.0" fill="#FEFFFF" transform="matrix(1.00, 0.00, -0.00, -1.00, 33.0, 5.8)">o</text><text xml:space="preserve" font-family="GillSans,Gill Sans" font-size="21.0" fill="#FEFFFF" transform="matrix(1.00, 0.00, -0.00, -1.00, 44.6, 5.8)">u</text><text xml:space="preserve" font-family="GillSans,Gill Sans" font-size="21.0" fill="#FEFFFF" transform="matrix(1.00, 0.00, -0.00, -1.00, 55.1, 5.8)"> </text><text xml:space="preserve" font-family="GillSans,Gill Sans" font-size="21.0" fill="#FEFFFF" transform="matrix(1.00, 0.00, -0.00, -1.00, 61.0, 5.8)">c</text><text xml:space="preserve" font-family="GillSans,Gill Sans" font-size="21.0" fill="#FEFFFF" transform="matrix(1.00, 0.00, -0.00, -1.00, 70.2, 5.8)">h</text><text xml:space="preserve" font-family="GillSans,Gill Sans" font-size="21.0" fill="#FEFFFF" transform="matrix(1.00, 0.00, -0.00, -1.00, 80.7, 5.8)">a</text><text xml:space="preserve" font-family="GillSans,Gill Sans" font-size="21.0" fill="#FEFFFF" transform="matrix(1.00, 0.00, -0.00, -1.00, 89.6, 5.8)">n</text><text xml:space="preserve" font-family="GillSans,Gill Sans" font-size="21.0" fill="#FEFFFF" transform="matrix(1.00, 0.00, -0.00, -1.00, 100.1, 5.8)">g</text><text xml:space="preserve" font-family="GillSans,Gill Sans" font-size="21.0" fill="#FEFFFF" transform="matrix(1.00, 0.00, -0.00, -1.00, 109.1, 5.8)">e</text><text xml:space="preserve" font-family="GillSans,Gill Sans" font-size="21.0" fill="#FEFFFF" transform="matrix(1.00, 0.00, -0.00, -1.00, 119.1, 5.8)"> </text><text xml:space="preserve" font-family="GillSans,Gill Sans" font-size="21.0" fill="#FEFFFF" transform="matrix(1.00, 0.00, -0.00, -1.00, 125.0, 5.8)">t</text><text xml:space="preserve" font-family="GillSans,Gill Sans" font-size="21.0" fill="#FEFFFF" transform="matrix(1.00, 0.00, -0.00, -1.00, 132.0, 5.8)">h</text><text xml:space="preserve" font-family="GillSans,Gill Sans" font-size="21.0" fill="#FEFFFF" transform="matrix(1.00, 0.00, -0.00, -1.00, 142.5, 5.8)">e</text><text xml:space="preserve" font-family="GillSans,Gill Sans" font-size="21.0" fill="#FEFFFF" transform="matrix(1.00, 0.00, -0.00, -1.00, 152.5, 5.8)"> </text><text xml:space="preserve" font-family="GillSans,Gill Sans" font-size="21.0" fill="#FEFFFF" transform="matrix(1.00, 0.00, -0.00, -1.00, 158.3, 5.8)">a</text><text xml:space="preserve" font-family="GillSans,Gill Sans" font-size="21.0" fill="#FEFFFF" transform="matrix(1.00, 0.00, -0.00, -1.00, 167.3, 5.8)">m</text><text xml:space="preserve" font-family="GillSans,Gill Sans" font-size="21.0" fill="#FEFFFF" transform="matrix(1.00, 0.00, -0.00, -1.00, 183.5, 5.8)">o</text><text xml:space="preserve" font-family="GillSans,Gill Sans" font-size="21.0" fill="#FEFFFF" transform="matrix(1.00, 0.00, -0.00, -1.00, 195.1, 5.8)">u</text><text xml:space="preserve" font-family="GillSans,Gill Sans" font-size="21.0" fill="#FEFFFF" transform="matrix(1.00, 0.00, -0.00, -1.00, 205.6, 5.8)">n</text><text xml:space="preserve" font-family="GillSans,Gill Sans" font-size="21.0" fill="#FEFFFF" transform="matrix(1.00, 0.00, -0.00, -1.00, 216.1, 5.8)">t</text><text xml:space="preserve" font-family="GillSans,Gill Sans" font-size="21.0" fill="#FEFFFF" transform="matrix(1.00, 0.00, -0.00, -1.00, 223.1, 5.8)"> </text><text xml:space="preserve" font-family="GillSans,Gill Sans" font-size="21.0" fill="#FEFFFF" transform="matrix(1.00, 0.00, -0.00, -1.00, 228.9, 5.8)">o</text><text xml:space="preserve" font-family="GillSans,Gill Sans" font-size="21.0" fill="#FEFFFF" transform="matrix(1.00, 0.00, -0.00, -1.00, 240.5, 5.8)">f</text><text xml:space="preserve" font-family="GillSans,Gill Sans" font-size="21.0" fill="#FEFFFF" transform="matrix(1.00, 0.00, -0.00, -1.00, 245.7, 5.8)"> </text><text xml:space="preserve" font-family="GillSans,Gill Sans" font-size="21.0" fill="#FEFFFF" transform="matrix(1.00, 0.00, -0.00, -1.00, 251.6, 5.8)">p</text><text xml:space="preserve" font-family="GillSans,Gill Sans" font-size="21.0" fill="#FEFFFF" transform="matrix(1.00, 0.00, -0.00, -1.00, 262.1, 5.8)">o</text><text xml:space="preserve" font-family="GillSans,Gill Sans" font-size="21.0" fill="#FEFFFF" transform="matrix(1.00, 0.00, -0.00, -1.00, 273.6, 5.8)">s</text><text xml:space="preserve" font-family="GillSans,Gill Sans" font-size="21.0" fill="#FEFFFF" transform="matrix(1.00, 0.00, -0.00, -1.00, 281.7, 5.8)">i</text><text xml:space="preserve" font-family="GillSans,Gill Sans" font-size="21.0" fill="#FEFFFF" transform="matrix(1.00, 0.00, -0.00, -1.00, 286.3, 5.8)">t</text><text xml:space="preserve" font-family="GillSans,Gill Sans" font-size="21.0" fill="#FEFFFF" transform="matrix(1.00, 0.00, -0.00, -1.00, 293.3, 5.8)">i</text><text xml:space="preserve" font-family="GillSans,Gill Sans" font-size="21.0" fill="#FEFFFF" transform="matrix(1.00, 0.00, -0.00, -1.00, 297.9, 5.8)">o</text><text xml:space="preserve" font-family="GillSans,Gill Sans" font-size="21.0" fill="#FEFFFF" transform="matrix(1.00, 0.00, -0.00, -1.00, 309.5, 5.8)">n</text><text xml:space="preserve" font-family="GillSans,Gill Sans" font-size="21.0" fill="#FEFFFF" transform="matrix(1.00, 0.00, -0.00, -1.00, 320.0, 5.8)">-</text><text xml:space="preserve" font-family="GillSans,Gill Sans" font-size="21.0" fill="#FEFFFF" transform="matrix(1.00, 0.00, -0.00, -1.00, 326.8, 5.8)">d</text><text xml:space="preserve" font-family="GillSans,Gill Sans" font-size="21.0" fill="#FEFFFF" transform="matrix(1.00, 0.00, -0.00, -1.00, 337.5, 5.8)">e</text><text xml:space="preserve" font-family="GillSans,Gill Sans" font-size="21.0" fill="#FEFFFF" transform="matrix(1.00, 0.00, -0.00, -1.00, 347.6, 5.8)">ﬁ</text><text xml:space="preserve" font-family="GillSans,Gill Sans" font-size="21.0" fill="#FEFFFF" transform="matrix(1.00, 0.00, -0.00, -1.00, 358.1, 5.8)">n</text><text xml:space="preserve" font-family="GillSans,Gill Sans" font-size="21.0" fill="#FEFFFF" transform="matrix(1.00, 0.00, -0.00, -1.00, 368.6, 5.8)">e</text><text xml:space="preserve" font-family="GillSans,Gill Sans" font-size="21.0" fill="#FEFFFF" transform="matrix(1.00, 0.00, -0.00, -1.00, 378.6, 5.8)">d</text><text xml:space="preserve" font-family="GillSans,Gill Sans" font-size="21.0" fill="#FEFFFF" transform="matrix(1.00, 0.00, -0.00, -1.00, 389.3, 5.8)"> </text><text xml:space="preserve" font-family="GillSans,Gill Sans" font-size="21.0" fill="#FEFFFF" transform="matrix(1.00, 0.00, -0.00, -1.00, 395.2, 5.8)">m</text><text xml:space="preserve" font-family="GillSans,Gill Sans" font-size="21.0" fill="#FEFFFF" transform="matrix(1.00, 0.00, -0.00, -1.00, 411.3, 5.8)">o</text><text xml:space="preserve" font-family="GillSans,Gill Sans" font-size="21.0" fill="#FEFFFF" transform="matrix(1.00, 0.00, -0.00, -1.00, 422.9, 5.8)">t</text><text xml:space="preserve" font-family="GillSans,Gill Sans" font-size="21.0" fill="#FEFFFF" transform="matrix(1.00, 0.00, -0.00, -1.00, 429.9, 5.8)">i</text><text xml:space="preserve" font-family="GillSans,Gill Sans" font-size="21.0" fill="#FEFFFF" transform="matrix(1.00, 0.00, -0.00, -1.00, 434.5, 5.8)">o</text><text xml:space="preserve" font-family="GillSans,Gill Sans" font-size="21.0" fill="#FEFFFF" transform="matrix(1.00, 0.00, -0.00, -1.00, 446.1, 5.8)">n</text><text xml:space="preserve" font-family="GillSans,Gill Sans" font-size="21.0" fill="#FEFFFF" transform="matrix(1.00, 0.00, -0.00, -1.00, 456.6, 5.8)"> </text><text xml:space="preserve" font-family="GillSans,Gill Sans" font-size="21.0" fill="#FEFFFF" transform="matrix(1.00, 0.00, -0.00, -1.00, 462.4, 5.8)">—</text></g></svg>