<?xml version="1.0" encoding="UTF-8" standalone="no"?><svg xmlns="http://www.w3.org/2000/svg" xmlns:xlink="http://www.w3.org/1999/xlink" clip-rule="evenodd" stroke-miterlimit="10" viewBox="0 0 403 22"><desc>SVG generated by Keynote</desc><defs></defs><g transform="matrix(1.00, 0.00, -0.00, -1.00, 0.0, 22.0)"><text xml:space="preserve" font-family="GillSans,Gill Sans" font-size="21.0" fill="#FEFFFF" transform="matrix(1.00, 0.00, -0.00, -1.00, 0.0, 5.8)">H</text><text xml:space="preserve" font-family="GillSans,Gill Sans" font-size="21.0" fill="#FEFFFF" transform="matrix(1.00, 0.00, -0.00, -1.00, 15.3, 5.8)">e</text><text xml:space="preserve" font-family="GillSans,Gill Sans" font-size="21.0" fill="#FEFFFF" transform="matrix(1.00, 0.00, -0.00, -1.00, 25.4, 5.8)">r</text><text xml:space="preserve" font-family="GillSans,Gill Sans" font-size="21.0" fill="#FEFFFF" transform="matrix(1.00, 0.00, -0.00, -1.00, 33.3, 5.8)">e</text><text xml:space="preserve" font-family="GillSans,Gill Sans" font-size="21.0" fill="#FEFFFF" transform="matrix(1.00, 0.00, -0.00, -1.00, 43.3, 5.8)">’</text><text xml:space="preserve" font-family="GillSans,Gill Sans" font-size="21.0" fill="#FEFFFF" transform="matrix(1.00, 0.00, -0.00, -1.00, 46.3, 5.8)">s</text><text xml:space="preserve" font-family="GillSans,Gill Sans" font-size="21.0" fill="#FEFFFF" transform="matrix(1.00, 0.00, -0.00, -1.00, 54.3, 5.8)"> </text><text xml:space="preserve" font-family="GillSans,Gill Sans" font-size="21.0" fill="#FEFFFF" transform="matrix(1.00, 0.00, -0.00, -1.00, 60.2, 5.8)">a</text><text xml:space="preserve" font-family="GillSans,Gill Sans" font-size="21.0" fill="#FEFFFF" transform="matrix(1.00, 0.00, -0.00, -1.00, 69.1, 5.8)">n</text><text xml:space="preserve" font-family="GillSans,Gill Sans" font-size="21.0" fill="#FEFFFF" transform="matrix(1.00, 0.00, -0.00, -1.00, 79.6, 5.8)"> </text><text xml:space="preserve" font-family="GillSans,Gill Sans" font-size="21.0" fill="#FEFFFF" transform="matrix(1.00, 0.00, -0.00, -1.00, 85.4, 5.8)">e</text><text xml:space="preserve" font-family="GillSans,Gill Sans" font-size="21.0" fill="#FEFFFF" transform="matrix(1.00, 0.00, -0.00, -1.00, 95.5, 5.8)">x</text><text xml:space="preserve" font-family="GillSans,Gill Sans" font-size="21.0" fill="#FEFFFF" transform="matrix(1.00, 0.00, -0.00, -1.00, 106.0, 5.8)">a</text><text xml:space="preserve" font-family="GillSans,Gill Sans" font-size="21.0" fill="#FEFFFF" transform="matrix(1.00, 0.00, -0.00, -1.00, 115.0, 5.8)">m</text><text xml:space="preserve" font-family="GillSans,Gill Sans" font-size="21.0" fill="#FEFFFF" transform="matrix(1.00, 0.00, -0.00, -1.00, 131.2, 5.8)">p</text><text xml:space="preserve" font-family="GillSans,Gill Sans" font-size="21.0" fill="#FEFFFF" transform="matrix(1.00, 0.00, -0.00, -1.00, 141.7, 5.8)">l</text><text xml:space="preserve" font-family="GillSans,Gill Sans" font-size="21.0" fill="#FEFFFF" transform="matrix(1.00, 0.00, -0.00, -1.00, 146.3, 5.8)">e</text><text xml:space="preserve" font-family="GillSans,Gill Sans" font-size="21.0" fill="#FEFFFF" transform="matrix(1.00, 0.00, -0.00, -1.00, 156.3, 5.8)"> </text><text xml:space="preserve" font-family="GillSans,Gill Sans" font-size="21.0" fill="#FEFFFF" transform="matrix(1.00, 0.00, -0.00, -1.00, 162.2, 5.8)">o</text><text xml:space="preserve" font-family="GillSans,Gill Sans" font-size="21.0" fill="#FEFFFF" transform="matrix(1.00, 0.00, -0.00, -1.00, 173.7, 5.8)">f</text><text xml:space="preserve" font-family="GillSans,Gill Sans" font-size="21.0" fill="#FEFFFF" transform="matrix(1.00, 0.00, -0.00, -1.00, 179.0, 5.8)"> </text><text xml:space="preserve" font-family="GillSans,Gill Sans" font-size="21.0" fill="#FEFFFF" transform="matrix(1.00, 0.00, -0.00, -1.00, 184.8, 5.8)">t</text><text xml:space="preserve" font-family="GillSans,Gill Sans" font-size="21.0" fill="#FEFFFF" transform="matrix(1.00, 0.00, -0.00, -1.00, 191.8, 5.8)">h</text><text xml:space="preserve" font-family="GillSans,Gill Sans" font-size="21.0" fill="#FEFFFF" transform="matrix(1.00, 0.00, -0.00, -1.00, 202.3, 5.8)">e</text><text xml:space="preserve" font-family="GillSans,Gill Sans" font-size="21.0" fill="#FEFFFF" transform="matrix(1.00, 0.00, -0.00, -1.00, 212.4, 5.8)"> </text><text xml:space="preserve" font-family="GillSans,Gill Sans" font-size="21.0" fill="#FEFFFF" transform="matrix(1.00, 0.00, -0.00, -1.00, 218.2, 5.8)">t</text><text xml:space="preserve" font-family="GillSans,Gill Sans" font-size="21.0" fill="#FEFFFF" transform="matrix(1.00, 0.00, -0.00, -1.00, 225.2, 5.8)">y</text><text xml:space="preserve" font-family="GillSans,Gill Sans" font-size="21.0" fill="#FEFFFF" transform="matrix(1.00, 0.00, -0.00, -1.00, 234.4, 5.8)">p</text><text xml:space="preserve" font-family="GillSans,Gill Sans" font-size="21.0" fill="#FEFFFF" transform="matrix(1.00, 0.00, -0.00, -1.00, 244.9, 5.8)">e</text><text xml:space="preserve" font-family="GillSans,Gill Sans" font-size="21.0" fill="#FEFFFF" transform="matrix(1.00, 0.00, -0.00, -1.00, 254.9, 5.8)"> </text><text xml:space="preserve" font-family="GillSans,Gill Sans" font-size="21.0" fill="#FEFFFF" transform="matrix(1.00, 0.00, -0.00, -1.00, 260.8, 5.8)">o</text><text xml:space="preserve" font-family="GillSans,Gill Sans" font-size="21.0" fill="#FEFFFF" transform="matrix(1.00, 0.00, -0.00, -1.00, 272.4, 5.8)">f</text><text xml:space="preserve" font-family="GillSans,Gill Sans" font-size="21.0" fill="#FEFFFF" transform="matrix(1.00, 0.00, -0.00, -1.00, 277.6, 5.8)"> </text><text xml:space="preserve" font-family="GillSans,Gill Sans" font-size="21.0" fill="#FEFFFF" transform="matrix(1.00, 0.00, -0.00, -1.00, 283.4, 5.8)">d</text><text xml:space="preserve" font-family="GillSans,Gill Sans" font-size="21.0" fill="#FEFFFF" transform="matrix(1.00, 0.00, -0.00, -1.00, 294.1, 5.8)">a</text><text xml:space="preserve" font-family="GillSans,Gill Sans" font-size="21.0" fill="#FEFFFF" transform="matrix(1.00, 0.00, -0.00, -1.00, 303.1, 5.8)">t</text><text xml:space="preserve" font-family="GillSans,Gill Sans" font-size="21.0" fill="#FEFFFF" transform="matrix(1.00, 0.00, -0.00, -1.00, 310.1, 5.8)">a</text><text xml:space="preserve" font-family="GillSans,Gill Sans" font-size="21.0" fill="#FEFFFF" transform="matrix(1.00, 0.00, -0.00, -1.00, 319.0, 5.8)"> </text><text xml:space="preserve" font-family="GillSans,Gill Sans" font-size="21.0" fill="#FEFFFF" transform="matrix(1.00, 0.00, -0.00, -1.00, 324.9, 5.8)">I</text><text xml:space="preserve" font-family="GillSans,Gill Sans" font-size="21.0" fill="#FEFFFF" transform="matrix(1.00, 0.00, -0.00, -1.00, 330.1, 5.8)"> </text><text xml:space="preserve" font-family="GillSans,Gill Sans" font-size="21.0" fill="#FEFFFF" transform="matrix(1.00, 0.00, -0.00, -1.00, 336.0, 5.8)">g</text><text xml:space="preserve" font-family="GillSans,Gill Sans" font-size="21.0" fill="#FEFFFF" transform="matrix(1.00, 0.00, -0.00, -1.00, 344.7, 5.8)">o</text><text xml:space="preserve" font-family="GillSans,Gill Sans" font-size="21.0" fill="#FEFFFF" transform="matrix(1.00, 0.00, -0.00, -1.00, 356.3, 5.8)">t</text><text xml:space="preserve" font-family="GillSans,Gill Sans" font-size="21.0" fill="#FEFFFF" transform="matrix(1.00, 0.00, -0.00, -1.00, 363.3, 5.8)">.</text><text xml:space="preserve" font-family="GillSans,Gill Sans" font-size="21.0" fill="#FEFFFF" transform="matrix(1.00, 0.00, -0.00, -1.00, 365.8, 5.8)"> </text><text xml:space="preserve" font-family="GillSans,Gill Sans" font-size="21.0" fill="#FEFFFF" transform="matrix(1.00, 0.00, -0.00, -1.00, 369.0, 5.8)">T</text><text xml:space="preserve" font-family="GillSans,Gill Sans" font-size="21.0" fill="#FEFFFF" transform="matrix(1.00, 0.00, -0.00, -1.00, 381.7, 5.8)">h</text><text xml:space="preserve" font-family="GillSans,Gill Sans" font-size="21.0" fill="#FEFFFF" transform="matrix(1.00, 0.00, -0.00, -1.00, 392.2, 5.8)">e</text></g></svg>