<?xml version="1.0" encoding="UTF-8" standalone="no"?><svg xmlns="http://www.w3.org/2000/svg" xmlns:xlink="http://www.w3.org/1999/xlink" clip-rule="evenodd" stroke-miterlimit="10" viewBox="0 0 407 136"><desc>SVG generated by Keynote</desc><defs></defs><g transform="matrix(1.00, 0.00, -0.00, -1.00, 0.0, 136.0)"><text xml:space="preserve" font-family="GillSans-Light,Gill Sans" font-size="32.8" fill="#FEFFFE" transform="matrix(1.00, 0.00, -0.00, -1.00, 1.0, 106.3)">•</text><text xml:space="preserve" font-family="GillSans-Light,Gill Sans" font-size="40.0" fill="#FEFFFE" transform="matrix(1.00, 0.00, -0.00, -1.00, 36.8, 103.5)">R</text><text xml:space="preserve" font-family="GillSans-Light,Gill Sans" font-size="40.0" fill="#FEFFFE" transform="matrix(1.00, 0.00, -0.00, -1.00, 59.7, 103.5)">e</text><text xml:space="preserve" font-family="GillSans-Light,Gill Sans" font-size="40.0" fill="#FEFFFE" transform="matrix(1.00, 0.00, -0.00, -1.00, 78.9, 103.5)">l</text><text xml:space="preserve" font-family="GillSans-Light,Gill Sans" font-size="40.0" fill="#FEFFFE" transform="matrix(1.00, 0.00, -0.00, -1.00, 86.4, 103.5)">e</text><text xml:space="preserve" font-family="GillSans-Light,Gill Sans" font-size="40.0" fill="#FEFFFE" transform="matrix(1.00, 0.00, -0.00, -1.00, 105.6, 103.5)">v</text><text xml:space="preserve" font-family="GillSans-Light,Gill Sans" font-size="40.0" fill="#FEFFFE" transform="matrix(1.00, 0.00, -0.00, -1.00, 122.6, 103.5)">a</text><text xml:space="preserve" font-family="GillSans-Light,Gill Sans" font-size="40.0" fill="#FEFFFE" transform="matrix(1.00, 0.00, -0.00, -1.00, 139.7, 103.5)">n</text><text xml:space="preserve" font-family="GillSans-Light,Gill Sans" font-size="40.0" fill="#FEFFFE" transform="matrix(1.00, 0.00, -0.00, -1.00, 159.3, 103.5)">t</text><text xml:space="preserve" font-family="GillSans-Light,Gill Sans" font-size="40.0" fill="#FEFFFE" transform="matrix(1.00, 0.00, -0.00, -1.00, 171.4, 103.5)"> </text><text xml:space="preserve" font-family="GillSans-Light,Gill Sans" font-size="40.0" fill="#FEFFFE" transform="matrix(1.00, 0.00, -0.00, -1.00, 182.5, 103.5)">a</text><text xml:space="preserve" font-family="GillSans-Light,Gill Sans" font-size="40.0" fill="#FEFFFE" transform="matrix(1.00, 0.00, -0.00, -1.00, 199.5, 103.5)">n</text><text xml:space="preserve" font-family="GillSans-Light,Gill Sans" font-size="40.0" fill="#FEFFFE" transform="matrix(1.00, 0.00, -0.00, -1.00, 219.2, 103.5)">d</text><text xml:space="preserve" font-family="GillSans-Light,Gill Sans" font-size="40.0" fill="#FEFFFE" transform="matrix(1.00, 0.00, -0.00, -1.00, 239.5, 103.5)"> </text><text xml:space="preserve" font-family="GillSans-Light,Gill Sans" font-size="40.0" fill="#FEFFFE" transform="matrix(1.00, 0.00, -0.00, -1.00, 250.6, 103.5)">i</text><text xml:space="preserve" font-family="GillSans-Light,Gill Sans" font-size="40.0" fill="#FEFFFE" transform="matrix(1.00, 0.00, -0.00, -1.00, 258.2, 103.5)">r</text><text xml:space="preserve" font-family="GillSans-Light,Gill Sans" font-size="40.0" fill="#FEFFFE" transform="matrix(1.00, 0.00, -0.00, -1.00, 272.5, 103.5)">r</text><text xml:space="preserve" font-family="GillSans-Light,Gill Sans" font-size="40.0" fill="#FEFFFE" transform="matrix(1.00, 0.00, -0.00, -1.00, 285.8, 103.5)">e</text><text xml:space="preserve" font-family="GillSans-Light,Gill Sans" font-size="40.0" fill="#FEFFFE" transform="matrix(1.00, 0.00, -0.00, -1.00, 305.0, 103.5)">l</text><text xml:space="preserve" font-family="GillSans-Light,Gill Sans" font-size="40.0" fill="#FEFFFE" transform="matrix(1.00, 0.00, -0.00, -1.00, 312.5, 103.5)">e</text><text xml:space="preserve" font-family="GillSans-Light,Gill Sans" font-size="40.0" fill="#FEFFFE" transform="matrix(1.00, 0.00, -0.00, -1.00, 331.6, 103.5)">v</text><text xml:space="preserve" font-family="GillSans-Light,Gill Sans" font-size="40.0" fill="#FEFFFE" transform="matrix(1.00, 0.00, -0.00, -1.00, 348.7, 103.5)">a</text><text xml:space="preserve" font-family="GillSans-Light,Gill Sans" font-size="40.0" fill="#FEFFFE" transform="matrix(1.00, 0.00, -0.00, -1.00, 365.8, 103.5)">n</text><text xml:space="preserve" font-family="GillSans-Light,Gill Sans" font-size="40.0" fill="#FEFFFE" transform="matrix(1.00, 0.00, -0.00, -1.00, 385.4, 103.5)">t</text><text xml:space="preserve" font-family="GillSans-Light,Gill Sans" font-size="40.0" fill="#FEFFFE" transform="matrix(1.00, 0.00, -0.00, -1.00, 397.4, 103.5)"> </text><text xml:space="preserve" font-family="GillSans-Light,Gill Sans" font-size="40.0" fill="#FEFFFE" transform="matrix(1.00, 0.00, -0.00, -1.00, 36.8, 57.5)">m</text><text xml:space="preserve" font-family="GillSans-Light,Gill Sans" font-size="40.0" fill="#FEFFFE" transform="matrix(1.00, 0.00, -0.00, -1.00, 67.6, 57.5)">o</text><text xml:space="preserve" font-family="GillSans-Light,Gill Sans" font-size="40.0" fill="#FEFFFE" transform="matrix(1.00, 0.00, -0.00, -1.00, 89.3, 57.5)">t</text><text xml:space="preserve" font-family="GillSans-Light,Gill Sans" font-size="40.0" fill="#FEFFFE" transform="matrix(1.00, 0.00, -0.00, -1.00, 101.4, 57.5)">i</text><text xml:space="preserve" font-family="GillSans-Light,Gill Sans" font-size="40.0" fill="#FEFFFE" transform="matrix(1.00, 0.00, -0.00, -1.00, 108.9, 57.5)">o</text><text xml:space="preserve" font-family="GillSans-Light,Gill Sans" font-size="40.0" fill="#FEFFFE" transform="matrix(1.00, 0.00, -0.00, -1.00, 130.6, 57.5)">n</text><text xml:space="preserve" font-family="GillSans-Light,Gill Sans" font-size="40.0" fill="#FEFFFE" transform="matrix(1.00, 0.00, -0.00, -1.00, 150.2, 57.5)">s</text><text xml:space="preserve" font-family="GillSans-Light,Gill Sans" font-size="40.0" fill="#FEFFFE" transform="matrix(1.00, 0.00, -0.00, -1.00, 164.3, 57.5)"> </text><text xml:space="preserve" font-family="GillSans-Light,Gill Sans" font-size="40.0" fill="#FEFFFE" transform="matrix(1.00, 0.00, -0.00, -1.00, 175.5, 57.5)">c</text><text xml:space="preserve" font-family="GillSans-Light,Gill Sans" font-size="40.0" fill="#FEFFFE" transform="matrix(1.00, 0.00, -0.00, -1.00, 192.1, 57.5)">a</text><text xml:space="preserve" font-family="GillSans-Light,Gill Sans" font-size="40.0" fill="#FEFFFE" transform="matrix(1.00, 0.00, -0.00, -1.00, 209.2, 57.5)">n</text><text xml:space="preserve" font-family="GillSans-Light,Gill Sans" font-size="40.0" fill="#FEFFFE" transform="matrix(1.00, 0.00, -0.00, -1.00, 228.8, 57.5)"> </text><text xml:space="preserve" font-family="GillSans-Light,Gill Sans" font-size="40.0" fill="#FEFFFE" transform="matrix(1.00, 0.00, -0.00, -1.00, 239.9, 57.5)">b</text><text xml:space="preserve" font-family="GillSans-Light,Gill Sans" font-size="40.0" fill="#FEFFFE" transform="matrix(1.00, 0.00, -0.00, -1.00, 260.3, 57.5)">e</text><text xml:space="preserve" font-family="GillSans-Light,Gill Sans" font-size="40.0" fill="#FEFFFE" transform="matrix(1.00, 0.00, -0.00, -1.00, 279.5, 57.5)"> </text><text xml:space="preserve" font-family="GillSans-Light,Gill Sans" font-size="40.0" fill="#FEFFFE" transform="matrix(1.00, 0.00, -0.00, -1.00, 290.6, 57.5)">h</text><text xml:space="preserve" font-family="GillSans-Light,Gill Sans" font-size="40.0" fill="#FEFFFE" transform="matrix(1.00, 0.00, -0.00, -1.00, 310.2, 57.5)">a</text><text xml:space="preserve" font-family="GillSans-Light,Gill Sans" font-size="40.0" fill="#FEFFFE" transform="matrix(1.00, 0.00, -0.00, -1.00, 327.2, 57.5)">r</text><text xml:space="preserve" font-family="GillSans-Light,Gill Sans" font-size="40.0" fill="#FEFFFE" transform="matrix(1.00, 0.00, -0.00, -1.00, 340.6, 57.5)">d</text><text xml:space="preserve" font-family="GillSans-Light,Gill Sans" font-size="40.0" fill="#FEFFFE" transform="matrix(1.00, 0.00, -0.00, -1.00, 360.9, 57.5)"> </text><text xml:space="preserve" font-family="GillSans-Light,Gill Sans" font-size="40.0" fill="#FEFFFE" transform="matrix(1.00, 0.00, -0.00, -1.00, 372.1, 57.5)">t</text><text xml:space="preserve" font-family="GillSans-Light,Gill Sans" font-size="40.0" fill="#FEFFFE" transform="matrix(1.00, 0.00, -0.00, -1.00, 384.1, 57.5)">o</text><text xml:space="preserve" font-family="GillSans-Light,Gill Sans" font-size="40.0" fill="#FEFFFE" transform="matrix(1.00, 0.00, -0.00, -1.00, 405.8, 57.5)"> </text><text xml:space="preserve" font-family="GillSans-Light,Gill Sans" font-size="40.0" fill="#FEFFFE" transform="matrix(1.00, 0.00, -0.00, -1.00, 36.8, 11.5)">d</text><text xml:space="preserve" font-family="GillSans-Light,Gill Sans" font-size="40.0" fill="#FEFFFE" transform="matrix(1.00, 0.00, -0.00, -1.00, 57.2, 11.5)">i</text><text xml:space="preserve" font-family="GillSans-Light,Gill Sans" font-size="40.0" fill="#FEFFFE" transform="matrix(1.00, 0.00, -0.00, -1.00, 64.7, 11.5)">s</text><text xml:space="preserve" font-family="GillSans-Light,Gill Sans" font-size="40.0" fill="#FEFFFE" transform="matrix(1.00, 0.00, -0.00, -1.00, 78.9, 11.5)">t</text><text xml:space="preserve" font-family="GillSans-Light,Gill Sans" font-size="40.0" fill="#FEFFFE" transform="matrix(1.00, 0.00, -0.00, -1.00, 90.9, 11.5)">i</text><text xml:space="preserve" font-family="GillSans-Light,Gill Sans" font-size="40.0" fill="#FEFFFE" transform="matrix(1.00, 0.00, -0.00, -1.00, 98.4, 11.5)">n</text><text xml:space="preserve" font-family="GillSans-Light,Gill Sans" font-size="40.0" fill="#FEFFFE" transform="matrix(1.00, 0.00, -0.00, -1.00, 118.1, 11.5)">g</text><text xml:space="preserve" font-family="GillSans-Light,Gill Sans" font-size="40.0" fill="#FEFFFE" transform="matrix(1.00, 0.00, -0.00, -1.00, 135.1, 11.5)">u</text><text xml:space="preserve" font-family="GillSans-Light,Gill Sans" font-size="40.0" fill="#FEFFFE" transform="matrix(1.00, 0.00, -0.00, -1.00, 154.7, 11.5)">i</text><text xml:space="preserve" font-family="GillSans-Light,Gill Sans" font-size="40.0" fill="#FEFFFE" transform="matrix(1.00, 0.00, -0.00, -1.00, 162.3, 11.5)">s</text><text xml:space="preserve" font-family="GillSans-Light,Gill Sans" font-size="40.0" fill="#FEFFFE" transform="matrix(1.00, 0.00, -0.00, -1.00, 176.4, 11.5)">h</text><text xml:space="preserve" font-family="GillSans-Light,Gill Sans" font-size="40.0" fill="#FEFFFE" transform="matrix(1.00, 0.00, -0.00, -1.00, 196.0, 11.5)">.</text></g></svg>