<?xml version="1.0" encoding="UTF-8" standalone="no"?><svg xmlns="http://www.w3.org/2000/svg" xmlns:xlink="http://www.w3.org/1999/xlink" clip-rule="evenodd" stroke-miterlimit="10" viewBox="0 0 570 87"><desc>SVG generated by Keynote</desc><defs></defs><g transform="matrix(1.00, 0.00, -0.00, -1.00, 0.0, 87.0)"><image xlink:href="../../4ED3B295-8E8F-4A71-9E51-594A20238F33/assets/7A64D002C9DF55062874A6989CD343E3.png" width="567.00" height="84.00" transform="matrix(1.00, 0.00, -0.00, -1.00, 1.0, 86.0)"></image><text xml:space="preserve" font-family="GillSans-Light,Gill Sans" font-size="79.7" fill="#FEFFFE" transform="matrix(1.00, 0.00, -0.00, -1.00, 0.3, 25.7)">M</text><text xml:space="preserve" font-family="GillSans-Light,Gill Sans" font-size="79.7" fill="#FEFFFE" transform="matrix(1.00, 0.00, -0.00, -1.00, 62.5, 25.7)">o</text><text xml:space="preserve" font-family="GillSans-Light,Gill Sans" font-size="79.7" fill="#FEFFFE" transform="matrix(1.00, 0.00, -0.00, -1.00, 105.7, 25.7)">d</text><text xml:space="preserve" font-family="GillSans-Light,Gill Sans" font-size="79.7" fill="#FEFFFE" transform="matrix(1.00, 0.00, -0.00, -1.00, 146.3, 25.7)">e</text><text xml:space="preserve" font-family="GillSans-Light,Gill Sans" font-size="79.7" fill="#FEFFFE" transform="matrix(1.00, 0.00, -0.00, -1.00, 184.5, 25.7)">l</text><text xml:space="preserve" font-family="GillSans-Light,Gill Sans" font-size="79.7" fill="#FEFFFE" transform="matrix(1.00, 0.00, -0.00, -1.00, 199.4, 25.7)"> </text><text xml:space="preserve" font-family="GillSans-Light,Gill Sans" font-size="79.7" fill="#FEFFFE" transform="matrix(1.00, 0.00, -0.00, -1.00, 221.6, 25.7)">p</text><text xml:space="preserve" font-family="GillSans-Light,Gill Sans" font-size="79.7" fill="#FEFFFE" transform="matrix(1.00, 0.00, -0.00, -1.00, 262.2, 25.7)">r</text><text xml:space="preserve" font-family="GillSans-Light,Gill Sans" font-size="79.7" fill="#FEFFFE" transform="matrix(1.00, 0.00, -0.00, -1.00, 288.7, 25.7)">e</text><text xml:space="preserve" font-family="GillSans-Light,Gill Sans" font-size="79.7" fill="#FEFFFE" transform="matrix(1.00, 0.00, -0.00, -1.00, 326.9, 25.7)">d</text><text xml:space="preserve" font-family="GillSans-Light,Gill Sans" font-size="79.7" fill="#FEFFFE" transform="matrix(1.00, 0.00, -0.00, -1.00, 367.5, 25.7)">i</text><text xml:space="preserve" font-family="GillSans-Light,Gill Sans" font-size="79.7" fill="#FEFFFE" transform="matrix(1.00, 0.00, -0.00, -1.00, 382.4, 25.7)">c</text><text xml:space="preserve" font-family="GillSans-Light,Gill Sans" font-size="79.7" fill="#FEFFFE" transform="matrix(1.00, 0.00, -0.00, -1.00, 415.7, 25.7)">t</text><text xml:space="preserve" font-family="GillSans-Light,Gill Sans" font-size="79.7" fill="#FEFFFE" transform="matrix(1.00, 0.00, -0.00, -1.00, 439.7, 25.7)">i</text><text xml:space="preserve" font-family="GillSans-Light,Gill Sans" font-size="79.7" fill="#FEFFFE" transform="matrix(1.00, 0.00, -0.00, -1.00, 454.7, 25.7)">o</text><text xml:space="preserve" font-family="GillSans-Light,Gill Sans" font-size="79.7" fill="#FEFFFE" transform="matrix(1.00, 0.00, -0.00, -1.00, 497.9, 25.7)">n</text><text xml:space="preserve" font-family="GillSans-Light,Gill Sans" font-size="79.7" fill="#FEFFFE" transform="matrix(1.00, 0.00, -0.00, -1.00, 536.9, 25.7)">s</text></g></svg>