<?xml version="1.0" encoding="UTF-8" standalone="no"?><svg xmlns="http://www.w3.org/2000/svg" xmlns:xlink="http://www.w3.org/1999/xlink" clip-rule="evenodd" stroke-miterlimit="10" viewBox="0 0 501 316"><desc>SVG generated by Keynote</desc><defs></defs><g transform="matrix(1.00, 0.00, -0.00, -1.00, 0.0, 316.0)"><image xlink:href="C6D0B4FD0C59DB829527CE100E1970B7.png" width="486.00" height="293.00" transform="matrix(1.00, 0.00, -0.00, -1.00, 13.2, 294.1)" opacity="0.39"></image><g><clipPath id="clip0x6080060a9540"><path d="M 33.0 278.0 L 468.0 278.0 L 468.0 38.0 L 33.0 38.0 Z M 33.3 278.5 "></path></clipPath><g clip-path="url(#clip0x6080060a9540)"><g><clipPath id="clip0x6080060a9900"><path d="M -61.6 4.7 L 552.3 4.7 L 552.3 383.4 L -61.6 383.4 Z M -61.6 4.7 "></path></clipPath><g clip-path="url(#clip0x6080060a9900)"><text xml:space="preserve" font-family="Helvetica,Helvetica" font-size="12.0" fill="#000000" transform="matrix(0.92, 0.00, -0.00, -0.92, 74.2, 66.8)">0</text><path d="M 157.2 110.8 L 147.3 104.1 " fill="none" stroke="#000000" stroke-width="1.00" transform="matrix(0.92, 0.00, 0.00, 0.92, -61.6, 4.7)"></path><text xml:space="preserve" font-family="Helvetica,Helvetica" font-size="12.0" fill="#000000" transform="matrix(0.92, 0.00, -0.00, -0.92, 44.6, 82.7)">-</text><text xml:space="preserve" font-family="Helvetica,Helvetica" font-size="12.0" fill="#000000" transform="matrix(0.92, 0.00, -0.00, -0.92, 48.3, 82.7)">0</text><text xml:space="preserve" font-family="Helvetica,Helvetica" font-size="12.0" fill="#000000" transform="matrix(0.92, 0.00, -0.00, -0.92, 54.4, 82.7)">.</text><text xml:space="preserve" font-family="Helvetica,Helvetica" font-size="12.0" fill="#000000" transform="matrix(0.92, 0.00, -0.00, -0.92, 57.5, 82.7)">5</text><path d="M 182.4 95.5 L 157.2 110.8 " fill="none" stroke="#000000" stroke-width="1.00" transform="matrix(0.92, 0.00, 0.00, 0.92, -61.6, 4.7)"></path><image xlink:href="../../4ED3B295-8E8F-4A71-9E51-594A20238F33/assets/E4E23CF22CFE234FD7AFDC317FBFA692.png" width="9.00" height="7.00" transform="matrix(1.00, 0.00, -0.00, -1.00, 110.0, 103.0)"></image><text xml:space="preserve" font-family="Helvetica,Helvetica" font-size="12.0" fill="#000000" transform="matrix(0.92, 0.00, -0.00, -0.92, 370.8, 163.6)">F</text><text xml:space="preserve" font-family="Helvetica,Helvetica" font-size="12.0" fill="#000000" transform="matrix(0.92, 0.00, -0.00, -0.92, 377.5, 163.6)">i</text><text xml:space="preserve" font-family="Helvetica,Helvetica" font-size="12.0" fill="#000000" transform="matrix(0.92, 0.00, -0.00, -0.92, 379.9, 163.6)">r</text><text xml:space="preserve" font-family="Helvetica,Helvetica" font-size="12.0" fill="#000000" transform="matrix(0.92, 0.00, -0.00, -0.92, 383.6, 163.6)">s</text><text xml:space="preserve" font-family="Helvetica,Helvetica" font-size="12.0" fill="#000000" transform="matrix(0.92, 0.00, -0.00, -0.92, 389.1, 163.6)">t</text><text xml:space="preserve" font-family="Helvetica,Helvetica" font-size="12.0" fill="#000000" transform="matrix(0.92, 0.00, -0.00, -0.92, 392.2, 163.6)"> </text><text xml:space="preserve" font-family="Helvetica,Helvetica" font-size="12.0" fill="#000000" transform="matrix(0.92, 0.00, -0.00, -0.92, 395.3, 163.6)">o</text><text xml:space="preserve" font-family="Helvetica,Helvetica" font-size="12.0" fill="#000000" transform="matrix(0.92, 0.00, -0.00, -0.92, 401.4, 163.6)">r</text><text xml:space="preserve" font-family="Helvetica,Helvetica" font-size="12.0" fill="#000000" transform="matrix(0.92, 0.00, -0.00, -0.92, 405.1, 163.6)">d</text><text xml:space="preserve" font-family="Helvetica,Helvetica" font-size="12.0" fill="#000000" transform="matrix(0.92, 0.00, -0.00, -0.92, 411.2, 163.6)">e</text><text xml:space="preserve" font-family="Helvetica,Helvetica" font-size="12.0" fill="#000000" transform="matrix(0.92, 0.00, -0.00, -0.92, 417.3, 163.6)">r</text><text xml:space="preserve" font-family="Helvetica,Helvetica" font-size="12.0" fill="#000000" transform="matrix(0.92, 0.00, -0.00, -0.92, 421.0, 163.6)"> </text><text xml:space="preserve" font-family="Helvetica,Helvetica" font-size="12.0" fill="#000000" transform="matrix(0.92, 0.00, -0.00, -0.92, 424.1, 163.6)">m</text><text xml:space="preserve" font-family="Helvetica,Helvetica" font-size="12.0" fill="#000000" transform="matrix(0.92, 0.00, -0.00, -0.92, 433.3, 163.6)">o</text><text xml:space="preserve" font-family="Helvetica,Helvetica" font-size="12.0" fill="#000000" transform="matrix(0.92, 0.00, -0.00, -0.92, 439.4, 163.6)">t</text><text xml:space="preserve" font-family="Helvetica,Helvetica" font-size="12.0" fill="#000000" transform="matrix(0.92, 0.00, -0.00, -0.92, 442.5, 163.6)">i</text><text xml:space="preserve" font-family="Helvetica,Helvetica" font-size="12.0" fill="#000000" transform="matrix(0.92, 0.00, -0.00, -0.92, 444.9, 163.6)">o</text><text xml:space="preserve" font-family="Helvetica,Helvetica" font-size="12.0" fill="#000000" transform="matrix(0.92, 0.00, -0.00, -0.92, 451.0, 163.6)">n</text><text xml:space="preserve" font-family="Helvetica,Helvetica" font-size="12.0" fill="#000000" transform="matrix(0.92, 0.00, -0.00, -0.92, 379.3, 193.0)">0</text><text xml:space="preserve" font-family="Helvetica,Helvetica" font-size="12.0" fill="#000000" transform="matrix(0.92, 0.00, -0.00, -0.92, 385.4, 193.0)">.</text><text xml:space="preserve" font-family="Helvetica,Helvetica" font-size="12.0" fill="#000000" transform="matrix(0.92, 0.00, -0.00, -0.92, 388.5, 193.0)">0</text><path d="M 285.0 146.8 L 422.0 213.6 " fill="none" stroke="#7E7E7E" stroke-width="1.00" transform="matrix(0.92, 0.00, 0.00, 0.92, -61.6, 4.7)"></path><image xlink:href="../../4ED3B295-8E8F-4A71-9E51-594A20238F33/assets/D3B502E2BC6A5D16221D12267CBC60E3.png" width="5.00" height="5.00" transform="matrix(1.00, 0.00, -0.00, -1.00, 244.0, 124.0)"></image><path d="M 285.0 146.8 L 208.6 109.6 M 285.0 146.8 L 285.0 146.8 M 289.8 144.8 L 337.6 125.1 M 337.6 128.8 L 337.6 125.1 " fill="none" stroke="#7E7E7E" stroke-width="1.00" transform="matrix(0.92, 0.00, 0.00, 0.92, -61.6, 4.7)"></path><image xlink:href="../../4ED3B295-8E8F-4A71-9E51-594A20238F33/assets/1B228E20BC3792BE963ED081C30961E4.png" width="6.00" height="5.00" transform="matrix(1.00, 0.00, -0.00, -1.00, 174.0, 83.0)"></image><path d="M 182.4 95.5 L 172.4 88.1 " fill="none" stroke="#000000" stroke-width="1.00" transform="matrix(0.92, 0.00, 0.00, 0.92, -61.6, 4.7)"></path><text xml:space="preserve" font-family="Helvetica,Helvetica" font-size="12.0" fill="#000000" transform="matrix(0.92, 0.00, -0.00, -0.92, 94.7, 48.9)">0</text><text xml:space="preserve" font-family="Helvetica,Helvetica" font-size="12.0" fill="#000000" transform="matrix(0.92, 0.00, -0.00, -0.92, 100.9, 48.9)">.</text><text xml:space="preserve" font-family="Helvetica,Helvetica" font-size="12.0" fill="#000000" transform="matrix(0.92, 0.00, -0.00, -0.92, 103.9, 48.9)">5</text><path d="M 210.6 78.3 L 200.5 70.2 " fill="none" stroke="#000000" stroke-width="1.00" transform="matrix(0.92, 0.00, 0.00, 0.92, -61.6, 4.7)"></path><text xml:space="preserve" font-family="Helvetica,Helvetica" font-size="12.0" fill="#000000" transform="matrix(0.92, 0.00, -0.00, -0.92, 136.8, 61.5)">P</text><text xml:space="preserve" font-family="Helvetica,Helvetica" font-size="12.0" fill="#000000" transform="matrix(0.92, 0.00, -0.00, -0.92, 144.2, 61.5)">o</text><text xml:space="preserve" font-family="Helvetica,Helvetica" font-size="12.0" fill="#000000" transform="matrix(0.92, 0.00, -0.00, -0.92, 150.3, 61.5)">s</text><text xml:space="preserve" font-family="Helvetica,Helvetica" font-size="12.0" fill="#000000" transform="matrix(0.92, 0.00, -0.00, -0.92, 155.8, 61.5)">i</text><text xml:space="preserve" font-family="Helvetica,Helvetica" font-size="12.0" fill="#000000" transform="matrix(0.92, 0.00, -0.00, -0.92, 158.3, 61.5)">t</text><text xml:space="preserve" font-family="Helvetica,Helvetica" font-size="12.0" fill="#000000" transform="matrix(0.92, 0.00, -0.00, -0.92, 161.3, 61.5)">i</text><text xml:space="preserve" font-family="Helvetica,Helvetica" font-size="12.0" fill="#000000" transform="matrix(0.92, 0.00, -0.00, -0.92, 163.8, 61.5)">o</text><text xml:space="preserve" font-family="Helvetica,Helvetica" font-size="12.0" fill="#000000" transform="matrix(0.92, 0.00, -0.00, -0.92, 169.9, 61.5)">n</text><text xml:space="preserve" font-family="Helvetica,Helvetica" font-size="12.0" fill="#000000" transform="matrix(0.92, 0.00, -0.00, -0.92, 176.0, 61.5)"> </text><text xml:space="preserve" font-family="Helvetica,Helvetica" font-size="12.0" fill="#000000" transform="matrix(0.92, 0.00, -0.00, -0.92, 179.1, 61.5)">d</text><text xml:space="preserve" font-family="Helvetica,Helvetica" font-size="12.0" fill="#000000" transform="matrix(0.92, 0.00, -0.00, -0.92, 185.2, 61.5)">e</text><text xml:space="preserve" font-family="Helvetica,Helvetica" font-size="12.0" fill="#000000" transform="matrix(0.92, 0.00, -0.00, -0.92, 191.4, 61.5)">f</text><text xml:space="preserve" font-family="Helvetica,Helvetica" font-size="12.0" fill="#000000" transform="matrix(0.92, 0.00, -0.00, -0.92, 194.4, 61.5)">i</text><text xml:space="preserve" font-family="Helvetica,Helvetica" font-size="12.0" fill="#000000" transform="matrix(0.92, 0.00, -0.00, -0.92, 196.9, 61.5)">n</text><text xml:space="preserve" font-family="Helvetica,Helvetica" font-size="12.0" fill="#000000" transform="matrix(0.92, 0.00, -0.00, -0.92, 203.0, 61.5)">e</text><text xml:space="preserve" font-family="Helvetica,Helvetica" font-size="12.0" fill="#000000" transform="matrix(0.92, 0.00, -0.00, -0.92, 209.2, 61.5)">d</text><text xml:space="preserve" font-family="Helvetica,Helvetica" font-size="12.0" fill="#000000" transform="matrix(0.92, 0.00, -0.00, -0.92, 215.3, 61.5)"> </text><text xml:space="preserve" font-family="Helvetica,Helvetica" font-size="12.0" fill="#000000" transform="matrix(0.92, 0.00, -0.00, -0.92, 218.4, 61.5)">m</text><text xml:space="preserve" font-family="Helvetica,Helvetica" font-size="12.0" fill="#000000" transform="matrix(0.92, 0.00, -0.00, -0.92, 227.5, 61.5)">o</text><text xml:space="preserve" font-family="Helvetica,Helvetica" font-size="12.0" fill="#000000" transform="matrix(0.92, 0.00, -0.00, -0.92, 233.7, 61.5)">t</text><text xml:space="preserve" font-family="Helvetica,Helvetica" font-size="12.0" fill="#000000" transform="matrix(0.92, 0.00, -0.00, -0.92, 236.7, 61.5)">i</text><text xml:space="preserve" font-family="Helvetica,Helvetica" font-size="12.0" fill="#000000" transform="matrix(0.92, 0.00, -0.00, -0.92, 239.2, 61.5)">o</text><text xml:space="preserve" font-family="Helvetica,Helvetica" font-size="12.0" fill="#000000" transform="matrix(0.92, 0.00, -0.00, -0.92, 245.3, 61.5)">n</text><path d="M 182.4 95.5 L 210.6 78.3 " fill="none" stroke="#000000" stroke-width="1.00" transform="matrix(0.92, 0.00, 0.00, 0.92, -61.6, 4.7)"></path><path d="M 187.7 103.6 L 188.1 99.6 M 208.6 109.6 L 188.1 99.6 " fill="none" stroke="#7E7E7E" stroke-width="1.00" transform="matrix(0.92, 0.00, 0.00, 0.92, -61.6, 4.7)"></path><path d="M 212.2 107.6 L 262.1 80.2 " fill="none" stroke="#7E7E7E" stroke-width="1.00" transform="matrix(0.92, 0.00, 0.00, 0.92, -61.6, 4.7)"></path><path d="M 208.2 113.4 L 202.8 110.8 " fill="none" stroke="#DDDD00" stroke-width="1.00" transform="matrix(0.92, 0.00, 0.00, 0.92, -61.6, 4.7)"></path><path d="M 208.2 113.4 L 208.2 113.4 " fill="none" stroke="#DDDD00" stroke-width="1.00" transform="matrix(0.92, 0.00, 0.00, 0.92, -61.6, 4.7)"></path><path d="M 261.9 84.4 L 262.1 80.2 " fill="none" stroke="#7E7E7E" stroke-width="1.00" transform="matrix(0.92, 0.00, 0.00, 0.92, -61.6, 4.7)"></path><image xlink:href="../../4ED3B295-8E8F-4A71-9E51-594A20238F33/assets/BA582F70DD654CBC1BA041E2C8CA030F.png" width="299.00" height="133.00" transform="matrix(1.00, 0.00, -0.00, -1.00, 70.0, 204.0)"></image><path d="M 202.8 110.8 L 195.4 107.3 " fill="none" stroke="#DDDD00" stroke-width="1.00" transform="matrix(0.92, 0.00, 0.00, 0.92, -61.6, 4.7)"></path><path d="M 233.9 240.9 L 374.3 278.6 " fill="none" stroke="#000000" stroke-width="1.00" transform="matrix(0.92, 0.00, 0.00, 0.92, -61.6, 4.7)"></path><text xml:space="preserve" font-family="Helvetica,Helvetica" font-size="12.0" fill="#000000" transform="matrix(0.92, 0.00, -0.00, -0.92, 145.0, 257.1)">S</text><text xml:space="preserve" font-family="Helvetica,Helvetica" font-size="12.0" fill="#000000" transform="matrix(0.92, 0.00, -0.00, -0.92, 152.4, 257.1)">p</text><text xml:space="preserve" font-family="Helvetica,Helvetica" font-size="12.0" fill="#000000" transform="matrix(0.92, 0.00, -0.00, -0.92, 158.5, 257.1)">a</text><text xml:space="preserve" font-family="Helvetica,Helvetica" font-size="12.0" fill="#000000" transform="matrix(0.92, 0.00, -0.00, -0.92, 164.6, 257.1)">c</text><text xml:space="preserve" font-family="Helvetica,Helvetica" font-size="12.0" fill="#000000" transform="matrix(0.92, 0.00, -0.00, -0.92, 170.2, 257.1)">i</text><text xml:space="preserve" font-family="Helvetica,Helvetica" font-size="12.0" fill="#000000" transform="matrix(0.92, 0.00, -0.00, -0.92, 172.6, 257.1)">n</text><text xml:space="preserve" font-family="Helvetica,Helvetica" font-size="12.0" fill="#000000" transform="matrix(0.92, 0.00, -0.00, -0.92, 178.7, 257.1)">g</text><text xml:space="preserve" font-family="Helvetica,Helvetica" font-size="12.0" fill="#000000" transform="matrix(0.92, 0.00, -0.00, -0.92, 177.9, 238.0)">1</text><text xml:space="preserve" font-family="Helvetica,Helvetica" font-size="12.0" fill="#000000" transform="matrix(0.92, 0.00, -0.00, -0.92, 184.0, 238.0)">0</text><path d="M 274.5 251.8 L 272.2 254.2 " fill="none" stroke="#000000" stroke-width="1.00" transform="matrix(0.92, 0.00, 0.00, 0.92, -61.6, 4.7)"></path><text xml:space="preserve" font-family="Helvetica,Helvetica" font-size="12.0" fill="#000000" transform="matrix(0.92, 0.00, -0.00, -0.92, 229.1, 250.8)">1</text><text xml:space="preserve" font-family="Helvetica,Helvetica" font-size="12.0" fill="#000000" transform="matrix(0.92, 0.00, -0.00, -0.92, 235.3, 250.8)">5</text><path d="M 329.9 266.7 L 327.8 268.8 " fill="none" stroke="#000000" stroke-width="1.00" transform="matrix(0.92, 0.00, 0.00, 0.92, -61.6, 4.7)"></path><text xml:space="preserve" font-family="Helvetica,Helvetica" font-size="12.0" fill="#000000" transform="matrix(0.92, 0.00, -0.00, -0.92, 270.3, 261.2)">2</text><text xml:space="preserve" font-family="Helvetica,Helvetica" font-size="12.0" fill="#000000" transform="matrix(0.92, 0.00, -0.00, -0.92, 276.5, 261.2)">0</text><path d="M 374.3 278.6 L 372.3 280.5 " fill="none" stroke="#000000" stroke-width="1.00" transform="matrix(0.92, 0.00, 0.00, 0.92, -61.6, 4.7)"></path><image xlink:href="../../4ED3B295-8E8F-4A71-9E51-594A20238F33/assets/98256072F73AB79A1F5B84105C299809.png" width="44.00" height="32.00" transform="matrix(1.00, 0.00, -0.00, -1.00, 154.0, 225.0)"></image><path d="M 240.2 168.4 L 235.2 239.4 M 249.3 235.5 L 235.2 239.4 " fill="none" stroke="#7E7E7E" stroke-width="1.00" transform="matrix(0.92, 0.00, 0.00, 0.92, -61.6, 4.7)"></path><path d="M 233.9 240.9 L 203.4 232.8 " fill="none" stroke="#000000" stroke-width="1.00" transform="matrix(0.92, 0.00, 0.00, 0.92, -61.6, 4.7)"></path><text xml:space="preserve" font-family="Helvetica,Helvetica" font-size="12.0" fill="#000000" transform="matrix(0.92, 0.00, -0.00, -0.92, 113.9, 221.5)"> </text><text xml:space="preserve" font-family="Helvetica,Helvetica" font-size="12.0" fill="#000000" transform="matrix(0.92, 0.00, -0.00, -0.92, 116.9, 221.5)">5</text><path d="M 203.4 232.8 L 201.0 235.5 " fill="none" stroke="#000000" stroke-width="1.00" transform="matrix(0.92, 0.00, 0.00, 0.92, -61.6, 4.7)"></path><path d="M 257.9 222.0 L 257.3 223.1 M 259.0 220.1 L 257.9 222.0 M 257.3 223.1 L 256.8 223.9 M 260.0 218.2 L 259.3 219.6 L 259.0 220.1 M 254.4 227.7 L 253.3 229.6 M 255.6 225.8 L 255.3 226.4 M 256.8 223.9 L 255.6 225.8 M 255.3 226.4 L 254.4 227.7 M 253.2 229.7 L 251.9 231.6 M 253.3 229.6 L 253.2 229.7 M 250.6 233.6 L 249.4 235.4 M 251.9 231.6 L 251.3 232.5 L 250.6 233.6 M 249.4 235.4 L 249.3 235.5 " fill="none" stroke="#DDDD00" stroke-width="1.00" transform="matrix(0.92, 0.00, 0.00, 0.92, -61.6, 4.7)"></path><path d="M 249.3 235.5 L 259.7 232.6 " fill="none" stroke="#7E7E7E" stroke-width="1.00" transform="matrix(0.92, 0.00, 0.00, 0.92, -61.6, 4.7)"></path><path d="M 267.4 220.8 L 266.6 222.1 M 266.2 222.7 L 265.0 224.7 M 266.6 222.1 L 266.2 222.7 M 263.7 226.7 L 262.5 228.5 M 264.6 225.3 L 263.7 226.7 M 265.0 224.7 L 264.6 225.3 M 262.5 228.5 L 262.4 228.6 M 261.0 230.6 L 260.5 231.4 M 262.4 228.6 L 261.0 230.6 M 260.5 231.4 L 259.7 232.6 " fill="none" stroke="#DDDD00" stroke-width="1.00" transform="matrix(0.92, 0.00, 0.00, 0.92, -61.6, 4.7)"></path><path d="M 259.7 232.6 L 265.9 230.9 " fill="none" stroke="#7E7E7E" stroke-width="1.00" transform="matrix(0.92, 0.00, 0.00, 0.92, -61.6, 4.7)"></path><path d="M 270.3 224.4 L 270.0 224.9 M 271.3 222.9 L 270.3 224.4 M 270.0 224.9 L 268.7 226.9 M 268.2 227.5 L 267.3 228.9 M 268.7 226.9 L 268.2 227.5 M 266.2 230.4 L 265.9 230.9 M 267.3 228.9 L 266.2 230.4 " fill="none" stroke="#DDDD00" stroke-width="1.00" transform="matrix(0.92, 0.00, 0.00, 0.92, -61.6, 4.7)"></path><path d="M 265.9 230.9 L 272.2 229.1 " fill="none" stroke="#7E7E7E" stroke-width="1.00" transform="matrix(0.92, 0.00, 0.00, 0.92, -61.6, 4.7)"></path><path d="M 274.1 226.5 L 273.7 227.1 M 276.2 223.4 L 275.1 225.0 L 274.1 226.5 M 273.7 227.1 L 272.2 229.1 " fill="none" stroke="#DDDD00" stroke-width="1.00" transform="matrix(0.92, 0.00, 0.00, 0.92, -61.6, 4.7)"></path><path d="M 272.2 229.1 L 282.0 226.4 " fill="none" stroke="#7E7E7E" stroke-width="1.00" transform="matrix(0.92, 0.00, 0.00, 0.92, -61.6, 4.7)"></path><image xlink:href="../../4ED3B295-8E8F-4A71-9E51-594A20238F33/assets/ABF2C72431FABD2B2A95E16AF06BDBFE.png" width="209.00" height="126.00" transform="matrix(1.00, 0.00, -0.00, -1.00, 121.0, 256.0)"></image><path d="M 370.7 188.3 L 374.4 190.1 M 378.0 191.9 L 381.6 193.7 L 385.1 195.4 M 374.4 190.1 L 378.0 191.9 M 391.9 198.8 L 395.2 200.4 M 388.5 197.1 L 391.9 198.8 M 385.1 195.4 L 388.5 197.1 M 334.3 170.0 L 338.7 172.2 M 404.9 205.2 L 408.0 206.7 M 395.2 200.4 L 398.5 202.0 M 411.0 208.2 L 413.4 209.4 M 408.0 206.7 L 411.0 208.2 M 401.7 203.6 L 404.9 205.2 M 398.5 202.0 L 401.7 203.6 M 342.9 174.4 L 347.1 176.5 M 338.7 172.2 L 342.9 174.4 M 351.2 178.6 L 355.3 180.6 L 359.2 182.6 M 347.1 176.5 L 351.2 178.6 M 363.1 184.5 L 367.0 186.4 L 370.7 188.3 M 359.2 182.6 L 363.1 184.5 M 422.8 214.0 L 425.6 215.4 M 419.9 212.6 L 422.8 214.0 M 417.0 211.1 L 419.9 212.6 M 414.0 209.7 L 417.0 211.1 M 413.4 209.4 L 414.0 209.7 " fill="none" stroke="#DDDD00" stroke-width="1.00" transform="matrix(0.92, 0.00, 0.00, 0.92, -61.6, 4.7)"></path><path d="M 422.2 216.2 L 422.2 216.2 " fill="none" stroke="#7E7E7E" stroke-width="1.00" transform="matrix(0.92, 0.00, 0.00, 0.92, -61.6, 4.7)"></path><path d="M 428.8 212.5 L 431.6 213.9 M 426.0 211.1 L 428.8 212.5 M 423.2 209.6 L 426.0 211.1 M 366.7 180.2 L 370.4 182.3 M 362.8 178.2 L 366.7 180.2 M 417.3 206.6 L 420.3 208.1 L 423.2 209.6 M 414.3 205.1 L 417.3 206.6 M 411.3 203.5 L 414.3 205.1 M 358.9 176.1 L 362.8 178.2 M 350.9 171.7 L 355.0 173.9 M 408.2 201.9 L 411.3 203.5 M 405.0 200.3 L 408.2 201.9 M 346.8 169.5 L 350.9 171.7 M 342.6 167.2 L 346.8 169.5 M 398.6 196.9 L 401.8 198.6 L 405.0 200.3 M 395.2 195.2 L 398.6 196.9 M 338.4 164.8 L 342.6 167.2 M 334.8 162.8 L 338.4 164.8 M 385.0 189.9 L 388.4 191.7 L 391.9 193.5 M 381.4 188.0 L 385.0 189.9 M 374.1 184.2 L 375.5 185.0 M 355.0 173.9 L 358.9 176.1 M 370.4 182.3 L 374.1 184.2 M 391.9 193.5 L 395.2 195.2 M 375.5 185.0 L 377.8 186.2 L 381.4 188.0 " fill="none" stroke="#DDDD00" stroke-width="1.00" transform="matrix(0.92, 0.00, 0.00, 0.92, -61.6, 4.7)"></path><path d="M 337.6 128.8 L 468.1 205.3 M 422.2 216.2 L 468.1 205.3 " fill="none" stroke="#7E7E7E" stroke-width="1.00" transform="matrix(0.92, 0.00, 0.00, 0.92, -61.6, 4.7)"></path><path d="M 471.5 206.1 L 477.3 207.4 M 475.1 241.5 L 471.5 206.1 " fill="none" stroke="#000000" stroke-width="1.00" transform="matrix(0.92, 0.00, 0.00, 0.92, -61.6, 4.7)"></path><text xml:space="preserve" font-family="Helvetica,Helvetica" font-size="12.0" fill="#000000" transform="matrix(0.92, 0.00, -0.00, -0.92, 382.1, 218.1)">0</text><text xml:space="preserve" font-family="Helvetica,Helvetica" font-size="12.0" fill="#000000" transform="matrix(0.92, 0.00, -0.00, -0.92, 388.2, 218.1)">.</text><text xml:space="preserve" font-family="Helvetica,Helvetica" font-size="12.0" fill="#000000" transform="matrix(0.92, 0.00, -0.00, -0.92, 391.3, 218.1)">5</text><path d="M 474.3 233.9 L 480.2 235.1 " fill="none" stroke="#000000" stroke-width="1.00" transform="matrix(0.92, 0.00, 0.00, 0.92, -61.6, 4.7)"></path><path d="M 338.4 175.9 L 334.0 173.8 M 342.6 178.0 L 338.4 175.9 M 346.8 180.0 L 342.6 178.0 M 350.9 182.0 L 346.8 180.0 M 355.0 183.9 L 350.9 182.0 M 358.9 185.8 L 355.0 183.9 M 362.8 187.7 L 358.9 185.8 M 366.6 189.5 L 362.8 187.7 M 370.4 191.3 L 366.6 189.5 M 374.1 193.1 L 370.4 191.3 M 377.7 194.8 L 374.1 193.1 M 381.2 196.5 L 377.7 194.8 M 384.7 198.2 L 381.2 196.5 M 388.1 199.8 L 384.7 198.2 M 391.5 201.4 L 388.1 199.8 M 394.8 203.0 L 391.5 201.4 M 398.0 204.6 L 394.8 203.0 M 401.2 206.1 L 398.0 204.6 M 404.4 207.6 L 401.2 206.1 M 407.5 209.1 L 404.4 207.6 M 410.5 210.6 L 407.5 209.1 M 413.5 212.0 L 410.5 210.6 M 416.5 213.4 L 413.5 212.0 M 419.4 214.8 L 416.5 213.4 M 422.2 216.2 L 419.4 214.8 M 416.5 213.4 L 419.4 214.8 M 413.5 212.0 L 416.5 213.4 M 410.5 210.6 L 413.5 212.0 M 407.5 209.1 L 410.5 210.6 M 404.4 207.6 L 407.5 209.1 M 401.2 206.1 L 404.4 207.6 M 398.0 204.6 L 401.2 206.1 M 394.8 203.0 L 398.0 204.6 M 391.5 201.4 L 394.8 203.0 M 388.1 199.8 L 391.5 201.4 M 384.7 198.2 L 388.1 199.8 M 381.2 196.5 L 384.7 198.2 M 377.7 194.8 L 381.2 196.5 M 374.1 193.0 L 377.7 194.8 M 370.4 191.3 L 374.1 193.0 M 366.6 189.5 L 370.4 191.3 M 362.8 187.7 L 366.6 189.5 M 358.9 185.8 L 362.8 187.7 M 355.0 183.9 L 358.9 185.8 M 350.9 182.0 L 355.0 183.9 M 346.8 180.0 L 350.9 182.0 M 342.6 178.0 L 346.8 180.0 M 338.4 175.9 L 342.6 178.0 M 334.0 173.8 L 338.4 175.9 M 419.4 214.8 L 422.2 216.2 " fill="none" stroke="#DDDD00" stroke-width="1.00" transform="matrix(0.92, 0.00, 0.00, 0.92, -61.6, 4.7)"></path><path d="M 422.8 225.9 L 422.2 216.2 " fill="none" stroke="#7E7E7E" stroke-width="1.00" transform="matrix(0.92, 0.00, 0.00, 0.92, -61.6, 4.7)"></path><path d="M 475.8 249.3 L 475.1 241.5 " fill="none" stroke="#000000" stroke-width="1.00" transform="matrix(0.92, 0.00, 0.00, 0.92, -61.6, 4.7)"></path><path d="M 420.0 224.7 L 422.8 225.9 M 417.1 223.4 L 420.0 224.7 M 411.1 220.8 L 414.1 222.1 L 417.1 223.4 M 408.0 219.4 L 411.1 220.8 M 403.4 217.4 L 404.9 218.1 L 408.0 219.4 M 401.8 216.7 L 403.4 217.4 M 395.3 213.9 L 398.6 215.3 L 401.8 216.7 M 392.0 212.5 L 395.3 213.9 M 385.1 209.5 L 388.6 211.0 L 392.0 212.5 M 381.6 208.0 L 385.1 209.5 M 370.7 203.4 L 374.4 205.0 M 363.1 200.2 L 366.9 201.8 M 356.7 197.6 L 359.2 198.6 M 351.1 195.4 L 355.2 197.0 M 342.7 192.0 L 347.0 193.7 M 334.0 188.7 L 338.4 190.4 M 378.0 206.5 L 381.6 208.0 M 366.9 201.8 L 370.7 203.4 M 355.2 197.0 L 356.7 197.6 M 338.4 190.4 L 342.7 192.0 M 359.2 198.6 L 363.1 200.2 M 347.0 193.7 L 351.1 195.4 M 374.4 205.0 L 378.0 206.5 M 403.3 247.7 L 400.0 246.2 L 396.7 244.7 L 393.2 243.2 L 389.8 241.6 M 389.4 241.4 L 386.3 239.9 M 389.8 241.6 L 389.4 241.4 M 386.3 239.9 L 382.7 238.3 L 379.0 236.5 L 375.3 234.8 M 375.2 234.7 L 371.5 232.9 M 375.3 234.8 L 375.2 234.7 M 371.5 232.9 L 367.6 231.1 L 363.7 229.1 L 362.9 228.7 L 359.7 227.1 L 355.6 225.0 L 352.3 223.3 M 347.2 220.5 L 343.0 218.3 M 338.5 215.7 L 335.0 213.7 M 342.9 218.2 L 338.5 215.7 M 343.0 218.3 L 342.9 218.2 M 335.0 213.7 L 334.0 213.1 L 329.4 210.3 M 406.1 248.9 L 403.3 247.7 " fill="none" stroke="#DDDD00" stroke-width="1.00" transform="matrix(0.92, 0.00, 0.00, 0.92, -61.6, 4.7)"></path><path d="M 422.8 225.9 L 424.7 254.4 " fill="none" stroke="#7E7E7E" stroke-width="1.00" transform="matrix(0.92, 0.00, 0.00, 0.92, -61.6, 4.7)"></path><path d="M 409.7 250.5 L 406.5 249.1 L 406.1 248.9 " fill="none" stroke="#DDDD00" stroke-width="1.00" transform="matrix(0.92, 0.00, 0.00, 0.92, -61.6, 4.7)"></path><path d="M 475.8 249.3 L 477.2 263.0 " fill="none" stroke="#000000" stroke-width="1.00" transform="matrix(0.92, 0.00, 0.00, 0.92, -61.6, 4.7)"></path><text xml:space="preserve" font-family="Helvetica,Helvetica" font-size="12.0" fill="#000000" transform="matrix(0.92, 0.00, -0.00, -0.92, 385.1, 244.3)">1</text><text xml:space="preserve" font-family="Helvetica,Helvetica" font-size="12.0" fill="#000000" transform="matrix(0.92, 0.00, -0.00, -0.92, 391.2, 244.3)">.</text><text xml:space="preserve" font-family="Helvetica,Helvetica" font-size="12.0" fill="#000000" transform="matrix(0.92, 0.00, -0.00, -0.92, 394.3, 244.3)">0</text><path d="M 415.4 253.0 L 412.8 251.8 L 409.7 250.5 " fill="none" stroke="#DDDD00" stroke-width="1.00" transform="matrix(0.92, 0.00, 0.00, 0.92, -61.6, 4.7)"></path><path d="M 477.2 263.0 L 483.2 263.9 " fill="none" stroke="#000000" stroke-width="1.00" transform="matrix(0.92, 0.00, 0.00, 0.92, -61.6, 4.7)"></path><path d="M 421.9 255.7 L 418.9 254.5 M 424.8 257.0 L 421.9 255.7 M 415.4 253.0 L 415.9 253.2 M 418.9 254.5 L 415.9 253.2 " fill="none" stroke="#DDDD00" stroke-width="1.00" transform="matrix(0.92, 0.00, 0.00, 0.92, -61.6, 4.7)"></path><path d="M 424.7 254.4 L 425.2 262.5 " fill="none" stroke="#7E7E7E" stroke-width="1.00" transform="matrix(0.92, 0.00, 0.00, 0.92, -61.6, 4.7)"></path><path d="M 351.5 222.8 L 347.2 220.5 M 352.3 223.3 L 351.5 222.8 M 386.7 252.0 L 390.3 253.5 M 371.8 245.8 L 375.7 247.5 M 407.1 260.2 L 410.3 261.5 M 359.9 240.7 L 364.0 242.5 M 354.3 238.2 L 355.8 238.9 M 368.0 244.2 L 370.8 245.4 M 379.4 249.0 L 383.1 250.5 M 393.7 254.9 L 397.2 256.3 M 400.5 257.6 L 403.8 258.9 M 410.3 261.5 L 413.4 262.7 M 355.8 238.9 L 359.9 240.7 M 364.0 242.5 L 368.0 244.2 M 309.9 216.7 L 314.9 219.3 M 370.8 245.4 L 371.8 245.8 M 314.9 219.3 L 317.3 220.6 M 375.7 247.5 L 379.4 249.0 M 317.3 220.6 L 319.8 221.9 M 383.1 250.5 L 386.7 252.0 M 319.8 221.9 L 324.6 224.3 L 327.9 225.9 M 390.4 253.5 L 393.7 254.9 M 390.3 253.5 L 390.4 253.5 M 327.9 225.9 L 329.4 226.6 M 397.2 256.3 L 400.5 257.6 M 329.4 226.6 L 334.0 228.9 M 403.8 258.9 L 407.1 260.2 M 334.0 228.9 L 338.5 231.0 L 340.1 231.8 L 343.0 233.1 M 414.0 262.9 L 416.5 263.9 L 419.6 265.0 M 413.4 262.7 L 414.0 262.9 M 343.0 233.1 L 347.4 235.1 L 351.6 237.0 M 422.5 266.2 L 425.5 267.3 M 419.6 265.0 L 422.5 266.2 M 351.6 237.0 L 354.3 238.2 " fill="none" stroke="#DDDD00" stroke-width="1.00" transform="matrix(0.92, 0.00, 0.00, 0.92, -61.6, 4.7)"></path><path d="M 425.2 262.5 L 425.8 273.0 " fill="none" stroke="#7E7E7E" stroke-width="1.00" transform="matrix(0.92, 0.00, 0.00, 0.92, -61.6, 4.7)"></path><path d="M 293.9 219.4 L 299.0 222.1 M 299.3 222.2 L 304.5 224.9 M 299.0 222.1 L 299.3 222.2 M 308.8 227.0 L 309.7 227.5 M 304.5 224.9 L 308.8 227.0 M 309.7 227.5 L 314.8 229.9 L 319.7 232.3 M 320.0 232.4 L 324.6 234.5 M 319.7 232.3 L 320.0 232.4 M 324.6 234.5 L 329.3 236.7 M 333.0 238.3 L 334.0 238.8 M 329.3 236.7 L 333.0 238.3 M 334.0 238.8 L 338.6 240.8 L 343.1 242.7 L 347.4 244.6 M 348.1 244.8 L 351.8 246.4 M 347.4 244.6 L 348.1 244.8 M 351.8 246.4 L 356.0 248.1 L 360.1 249.8 L 364.2 251.5 M 366.0 252.2 L 368.2 253.0 M 364.2 251.5 L 366.0 252.2 M 368.2 253.0 L 372.1 254.6 L 375.9 256.1 L 379.7 257.6 L 383.4 259.0 L 387.0 260.4 L 387.4 260.5 " fill="none" stroke="#DDDD00" stroke-width="1.00" transform="matrix(0.92, 0.00, 0.00, 0.92, -61.6, 4.7)"></path><path d="M 282.0 226.4 L 425.8 273.0 " fill="none" stroke="#7E7E7E" stroke-width="1.00" transform="matrix(0.92, 0.00, 0.00, 0.92, -61.6, 4.7)"></path><image xlink:href="../../4ED3B295-8E8F-4A71-9E51-594A20238F33/assets/00A1D8AC67194F94C7D129E2B7709C87.png" width="52.00" height="90.00" transform="matrix(1.00, 0.00, -0.00, -1.00, 197.0, 213.0)"></image><path d="M 249.9 216.0 L 199.7 199.8 " fill="none" stroke="#7E7E7E" stroke-width="1.00" transform="matrix(0.92, 0.00, 0.00, 0.92, -61.6, 4.7)"></path><path d="M 265.6 86.5 L 261.9 84.4 " fill="none" stroke="#7E7E7E" stroke-width="1.00" transform="matrix(0.92, 0.00, 0.00, 0.92, -61.6, 4.7)"></path><path d="M 265.6 86.5 L 263.7 88.1 M 263.5 88.3 L 261.9 89.7 M 292.3 149.8 L 292.6 150.5 L 292.9 151.1 M 293.4 152.4 L 293.9 153.7 M 270.8 135.8 L 274.1 137.8 M 265.6 132.4 L 270.8 135.8 M 260.6 128.9 L 262.2 130.0 L 265.6 132.4 M 255.9 125.0 L 260.6 128.9 M 291.3 147.6 L 291.7 148.5 M 291.3 147.6 L 286.4 144.9 M 274.1 137.8 L 276.0 139.0 M 281.2 142.0 L 286.4 144.9 M 276.0 139.0 L 281.2 142.0 M 261.9 89.7 L 260.2 91.2 M 292.9 151.1 L 293.4 152.4 M 294.2 154.7 L 293.9 153.7 M 291.7 148.5 L 292.3 149.8 M 279.3 120.2 L 279.5 120.7 M 263.5 88.3 L 263.7 88.1 M 278.6 118.0 L 279.3 120.2 M 306.3 152.0 L 306.7 153.4 M 302.6 143.0 L 302.8 143.5 M 303.1 143.9 L 303.8 145.2 L 304.3 146.5 M 302.8 143.5 L 303.1 143.9 " fill="none" stroke="#DDDD00" stroke-width="1.00" transform="matrix(0.92, 0.00, 0.00, 0.92, -61.6, 4.7)"></path><path d="M 302.6 143.0 L 301.4 142.2 " fill="none" stroke="#DDDD00" stroke-width="1.00" transform="matrix(0.92, 0.00, 0.00, 0.92, -61.6, 4.7)"></path><path d="M 283.7 97.2 L 282.2 98.8 L 282.2 98.8 M 293.9 136.6 L 298.3 140.0 M 281.3 100.8 L 280.4 102.8 M 282.2 98.8 L 281.3 100.8 M 280.4 102.8 L 279.5 104.7 M 277.8 115.3 L 278.6 118.0 M 298.3 140.0 L 301.4 142.2 M 277.6 114.7 L 277.8 115.3 M 289.7 133.0 L 293.2 136.1 M 277.7 113.0 L 277.6 114.7 M 285.7 129.2 L 287.8 131.3 M 279.5 120.7 L 281.4 123.8 M 282.2 124.9 L 284.1 127.3 M 277.8 110.8 L 277.7 113.0 M 277.9 108.6 L 277.8 110.8 M 279.5 104.7 L 278.6 106.6 M 284.1 127.3 L 285.7 129.2 M 281.4 123.8 L 282.2 124.9 M 287.8 131.3 L 289.7 133.0 M 278.0 107.9 L 277.9 108.6 M 278.6 106.6 L 278.0 107.9 M 293.2 136.1 L 293.9 136.6 " fill="none" stroke="#DDDD00" stroke-width="1.00" transform="matrix(0.92, 0.00, 0.00, 0.92, -61.6, 4.7)"></path><path d="M 286.1 98.5 L 265.6 86.5 " fill="none" stroke="#7E7E7E" stroke-width="1.00" transform="matrix(0.92, 0.00, 0.00, 0.92, -61.6, 4.7)"></path><path d="M 306.0 150.9 L 306.3 152.0 M 304.3 146.5 L 304.8 147.6 M 306.0 150.9 L 305.9 150.6 M 304.8 147.6 L 304.9 147.9 L 305.4 149.2 " fill="none" stroke="#DDDD00" stroke-width="1.00" transform="matrix(0.92, 0.00, 0.00, 0.92, -61.6, 4.7)"></path><path d="M 286.1 98.5 L 288.2 99.8 " fill="none" stroke="#7E7E7E" stroke-width="1.00" transform="matrix(0.92, 0.00, 0.00, 0.92, -61.6, 4.7)"></path><path d="M 305.4 149.2 L 305.9 150.6 " fill="none" stroke="#DDDD00" stroke-width="1.00" transform="matrix(0.92, 0.00, 0.00, 0.92, -61.6, 4.7)"></path><path d="M 288.2 99.8 L 296.5 104.7 " fill="none" stroke="#7E7E7E" stroke-width="1.00" transform="matrix(0.92, 0.00, 0.00, 0.92, -61.6, 4.7)"></path><path d="M 262.4 139.5 L 268.3 142.3 M 284.9 150.2 L 284.9 150.2 M 268.3 142.3 L 262.4 139.5 M 274.0 145.0 L 268.3 142.3 M 256.4 136.6 L 262.4 139.5 M 284.9 150.2 L 279.6 147.7 M 284.9 150.2 L 279.6 147.7 M 274.0 145.0 L 279.6 147.7 M 268.3 142.3 L 274.0 145.0 M 279.6 147.7 L 274.0 145.0 M 250.2 191.0 L 253.0 193.3 M 246.8 188.2 L 250.2 191.0 M 246.3 187.8 L 246.8 188.2 M 242.8 184.7 L 246.3 187.8 M 240.4 182.5 L 242.8 184.7 M 262.4 139.5 L 256.4 136.6 M 269.3 191.4 L 271.8 193.2 M 266.0 188.8 L 269.3 191.4 M 264.8 187.9 L 266.0 188.8 M 260.7 184.6 L 264.8 187.9 M 260.0 184.0 L 260.7 184.6 M 257.0 181.4 L 260.0 184.0 M 253.9 178.8 L 257.0 181.4 M 289.7 172.3 L 289.7 173.9 M 289.3 164.7 L 289.5 166.2 M 288.0 185.5 L 287.6 187.2 M 284.8 196.1 L 284.2 197.9 M 287.4 156.3 L 287.9 157.6 M 271.8 193.2 L 274.2 194.9 M 284.9 150.2 L 285.3 151.1 M 288.9 161.8 L 289.1 163.2 M 289.7 169.2 L 289.7 170.7 M 289.6 175.5 L 289.4 177.1 M 289.0 180.4 L 288.7 182.1 M 289.2 178.7 L 289.0 180.4 M 288.4 183.8 L 288.0 185.5 M 286.6 190.7 L 286.1 192.5 M 283.4 199.8 L 283.0 200.9 M 283.0 200.9 L 279.6 198.6 M 283.0 200.9 L 283.0 200.9 M 277.6 197.3 L 279.6 198.6 M 274.2 194.9 L 277.6 197.3 M 285.3 151.1 L 285.9 152.4 L 286.5 153.7 M 286.6 154.1 L 287.0 155.0 M 286.5 153.7 L 286.6 154.1 M 287.0 155.0 L 287.4 156.3 M 287.9 157.6 L 288.2 159.0 L 288.4 159.7 L 288.6 160.4 L 288.9 161.8 M 289.1 163.2 L 289.3 164.7 M 289.5 166.2 L 289.6 167.7 L 289.7 169.2 M 289.7 170.7 L 289.7 172.3 M 289.7 173.9 L 289.6 175.5 M 289.4 177.1 L 289.2 178.7 M 287.6 187.2 L 287.4 187.9 L 287.1 189.0 M 288.7 182.1 L 288.4 183.8 M 295.1 157.9 L 295.4 159.3 M 287.1 189.0 L 286.6 190.7 M 285.2 195.2 L 284.8 196.1 M 285.5 194.3 L 285.2 195.2 M 284.2 197.9 L 283.4 199.8 M 286.1 192.5 L 285.5 194.3 M 296.2 165.2 L 296.3 166.7 M 296.3 168.3 L 296.3 169.9 M 293.5 187.8 L 293.3 188.5 M 294.3 184.9 L 293.8 186.7 L 293.5 187.8 M 295.6 178.0 L 295.4 179.7 M 296.3 171.5 L 296.2 173.1 M 292.7 190.3 L 292.1 192.1 M 296.1 174.7 L 295.9 176.4 M 296.2 164.9 L 296.2 165.2 M 296.1 163.7 L 296.2 164.9 M 294.4 155.4 L 294.8 156.5 M 294.2 154.7 L 294.3 155.1 L 294.4 155.4 M 294.8 156.5 L 295.1 157.9 M 295.9 162.2 L 296.1 163.7 M 295.4 159.3 L 295.7 160.7 L 295.9 162.2 M 296.3 166.7 L 296.3 168.3 M 296.3 169.9 L 296.3 171.5 M 296.2 173.1 L 296.1 174.7 M 295.8 176.6 L 295.6 178.0 M 295.9 176.4 L 295.8 176.6 M 253.0 193.3 L 254.4 194.3 M 295.4 179.7 L 295.0 181.4 M 254.4 194.3 L 259.0 197.8 M 294.7 183.2 L 294.3 184.9 M 259.0 197.8 L 259.2 197.9 M 295.0 181.4 L 294.7 183.2 M 259.2 197.9 L 264.1 201.4 M 293.3 188.5 L 292.7 190.3 M 264.1 201.4 L 265.3 202.2 M 292.1 192.1 L 291.5 193.9 M 265.3 202.2 L 269.7 205.1 M 271.2 206.1 L 275.8 209.0 L 277.1 209.8 M 291.5 193.9 L 291.2 194.6 M 290.8 195.8 L 290.1 197.6 M 291.2 194.6 L 290.8 195.8 M 283.6 211.1 L 282.5 213.0 M 290.1 197.6 L 289.3 199.5 L 289.0 200.1 L 288.4 201.4 L 287.6 203.3 L 286.8 204.8 L 286.6 205.2 M 284.7 209.1 L 283.6 211.1 M 284.7 209.1 L 284.7 209.1 M 285.7 207.2 L 284.7 209.1 M 286.6 205.2 L 285.7 207.2 M 304.5 186.3 L 303.9 188.2 M 308.1 165.6 L 308.1 167.2 M 308.0 168.8 L 307.9 170.5 M 305.1 184.5 L 304.5 186.3 M 299.2 199.6 L 298.4 201.6 M 306.9 177.3 L 306.5 179.1 M 307.5 173.9 L 307.2 175.6 M 298.4 201.6 L 297.3 203.6 M 307.2 175.6 L 306.9 177.3 M 308.0 162.4 L 308.1 164.0 M 306.7 153.4 L 306.7 153.6 M 307.0 154.8 L 307.3 156.3 L 307.6 157.8 M 306.7 153.6 L 307.0 154.8 " fill="none" stroke="#DDDD00" stroke-width="1.00" transform="matrix(0.92, 0.00, 0.00, 0.92, -61.6, 4.7)"></path><path d="M 296.5 104.7 L 300.9 107.3 " fill="none" stroke="#7E7E7E" stroke-width="1.00" transform="matrix(0.92, 0.00, 0.00, 0.92, -61.6, 4.7)"></path><path d="M 307.6 157.8 L 307.8 159.3 " fill="none" stroke="#DDDD00" stroke-width="1.00" transform="matrix(0.92, 0.00, 0.00, 0.92, -61.6, 4.7)"></path><path d="M 300.9 107.3 L 302.9 108.4 " fill="none" stroke="#7E7E7E" stroke-width="1.00" transform="matrix(0.92, 0.00, 0.00, 0.92, -61.6, 4.7)"></path><path d="M 307.8 159.3 L 307.9 160.8 " fill="none" stroke="#DDDD00" stroke-width="1.00" transform="matrix(0.92, 0.00, 0.00, 0.92, -61.6, 4.7)"></path><path d="M 302.9 108.4 L 304.6 109.4 " fill="none" stroke="#7E7E7E" stroke-width="1.00" transform="matrix(0.92, 0.00, 0.00, 0.92, -61.6, 4.7)"></path><path d="M 307.9 160.8 L 308.0 162.4 " fill="none" stroke="#DDDD00" stroke-width="1.00" transform="matrix(0.92, 0.00, 0.00, 0.92, -61.6, 4.7)"></path><path d="M 304.6 109.4 L 307.8 111.3 " fill="none" stroke="#7E7E7E" stroke-width="1.00" transform="matrix(0.92, 0.00, 0.00, 0.92, -61.6, 4.7)"></path><path d="M 308.1 164.0 L 308.1 165.6 " fill="none" stroke="#DDDD00" stroke-width="1.00" transform="matrix(0.92, 0.00, 0.00, 0.92, -61.6, 4.7)"></path><path d="M 307.8 111.3 L 310.7 113.0 " fill="none" stroke="#7E7E7E" stroke-width="1.00" transform="matrix(0.92, 0.00, 0.00, 0.92, -61.6, 4.7)"></path><path d="M 308.1 167.2 L 308.0 168.8 " fill="none" stroke="#DDDD00" stroke-width="1.00" transform="matrix(0.92, 0.00, 0.00, 0.92, -61.6, 4.7)"></path><path d="M 310.7 113.0 L 313.6 114.7 " fill="none" stroke="#7E7E7E" stroke-width="1.00" transform="matrix(0.92, 0.00, 0.00, 0.92, -61.6, 4.7)"></path><path d="M 307.9 170.5 L 307.7 172.2 " fill="none" stroke="#DDDD00" stroke-width="1.00" transform="matrix(0.92, 0.00, 0.00, 0.92, -61.6, 4.7)"></path><path d="M 313.6 114.7 L 315.1 115.5 " fill="none" stroke="#7E7E7E" stroke-width="1.00" transform="matrix(0.92, 0.00, 0.00, 0.92, -61.6, 4.7)"></path><path d="M 307.7 172.2 L 307.5 173.9 " fill="none" stroke="#DDDD00" stroke-width="1.00" transform="matrix(0.92, 0.00, 0.00, 0.92, -61.6, 4.7)"></path><path d="M 315.1 115.5 L 321.0 119.0 " fill="none" stroke="#7E7E7E" stroke-width="1.00" transform="matrix(0.92, 0.00, 0.00, 0.92, -61.6, 4.7)"></path><path d="M 306.5 179.1 L 306.2 180.4 L 306.0 180.9 M 305.6 182.7 L 305.1 184.5 M 306.0 180.9 L 305.6 182.7 " fill="none" stroke="#DDDD00" stroke-width="1.00" transform="matrix(0.92, 0.00, 0.00, 0.92, -61.6, 4.7)"></path><path d="M 321.0 119.0 L 328.3 123.3 " fill="none" stroke="#7E7E7E" stroke-width="1.00" transform="matrix(0.92, 0.00, 0.00, 0.92, -61.6, 4.7)"></path><path d="M 303.9 188.2 L 303.9 188.3 L 303.3 190.1 L 302.6 191.9 " fill="none" stroke="#DDDD00" stroke-width="1.00" transform="matrix(0.92, 0.00, 0.00, 0.92, -61.6, 4.7)"></path><path d="M 328.3 123.3 L 331.5 125.2 " fill="none" stroke="#7E7E7E" stroke-width="1.00" transform="matrix(0.92, 0.00, 0.00, 0.92, -61.6, 4.7)"></path><path d="M 269.7 205.1 L 271.2 206.1 M 282.5 213.0 L 277.1 209.8 M 237.9 199.2 L 239.1 200.3 M 234.3 196.1 L 237.9 199.2 M 232.5 194.5 L 234.3 196.1 M 231.1 193.1 L 232.5 194.5 M 228.1 190.2 L 231.1 193.1 M 225.8 187.9 L 228.1 190.2 M 245.9 205.6 L 250.4 208.9 M 258.3 214.3 L 261.0 216.1 L 264.5 218.2 M 252.0 210.1 L 255.5 212.4 M 245.6 205.4 L 245.9 205.6 M 250.4 208.9 L 252.0 210.1 M 255.5 212.4 L 258.3 214.3 M 264.5 218.2 L 267.2 219.9 L 270.5 221.8 L 274.1 223.9 M 239.1 200.3 L 241.7 202.3 M 282.5 213.0 L 282.5 213.0 M 241.7 202.3 L 245.6 205.4 " fill="none" stroke="#DDDD00" stroke-width="1.00" transform="matrix(0.92, 0.00, 0.00, 0.92, -61.6, 4.7)"></path><path d="M 249.9 216.0 L 282.0 226.4 " fill="none" stroke="#7E7E7E" stroke-width="1.00" transform="matrix(0.92, 0.00, 0.00, 0.92, -61.6, 4.7)"></path><path d="M 299.4 199.4 L 299.2 199.6 M 301.0 195.8 L 300.2 197.7 L 299.4 199.4 M 301.6 194.3 L 301.0 195.8 M 301.8 193.8 L 301.6 194.3 M 302.6 191.9 L 301.8 193.8 " fill="none" stroke="#DDDD00" stroke-width="1.00" transform="matrix(0.92, 0.00, 0.00, 0.92, -61.6, 4.7)"></path><path d="M 331.5 125.2 L 337.6 128.8 " fill="none" stroke="#7E7E7E" stroke-width="1.00" transform="matrix(0.92, 0.00, 0.00, 0.92, -61.6, 4.7)"></path><path d="M 297.3 203.6 L 297.1 203.9 M 296.3 205.5 L 295.2 207.5 M 297.1 203.9 L 296.3 205.5 M 295.2 207.5 L 294.9 208.0 L 294.1 209.5 L 292.9 211.6 L 292.7 211.9 L 291.7 213.6 L 290.6 215.5 M 290.4 215.7 L 289.2 217.7 M 290.6 215.5 L 290.4 215.7 M 289.2 217.7 L 288.4 218.9 L 287.8 219.8 L 286.4 221.8 L 286.2 222.1 M 285.0 223.9 L 284.1 225.2 L 283.5 226.0 M 286.2 222.1 L 285.0 223.9 " fill="none" stroke="#DDDD00" stroke-width="1.00" transform="matrix(0.92, 0.00, 0.00, 0.92, -61.6, 4.7)"></path><path d="M 282.0 226.4 L 337.9 210.9 M 337.6 128.8 L 337.9 210.9 M 337.6 128.8 L 337.6 128.8 " fill="none" stroke="#7E7E7E" stroke-width="1.00" transform="matrix(0.92, 0.00, 0.00, 0.92, -61.6, 4.7)"></path><image xlink:href="../../4ED3B295-8E8F-4A71-9E51-594A20238F33/assets/A38E8905F282B7C3CF8CFEE6698D32C0.png" width="101.00" height="123.00" transform="matrix(1.00, 0.00, -0.00, -1.00, 79.0, 205.0)"></image><path d="M 187.7 103.6 L 143.8 129.2 " fill="none" stroke="#7E7E7E" stroke-width="1.00" transform="matrix(0.92, 0.00, 0.00, 0.92, -61.6, 4.7)"></path><path d="M 185.9 104.6 L 194.4 107.8 " fill="none" stroke="#DDDD00" stroke-width="1.00" transform="matrix(0.92, 0.00, 0.00, 0.92, -61.6, 4.7)"></path><path d="M 164.0 137.4 L 164.0 137.4 M 164.0 137.4 L 143.8 129.2 M 164.0 137.4 L 161.4 156.7 " fill="none" stroke="#7E7E7E" stroke-width="1.00" transform="matrix(0.92, 0.00, 0.00, 0.92, -61.6, 4.7)"></path><path d="M 161.4 156.7 L 163.1 155.4 M 180.8 141.3 L 182.7 139.8 L 184.4 138.3 M 179.6 142.3 L 180.8 141.3 M 177.2 144.3 L 179.0 142.9 L 179.6 142.3 M 175.4 145.8 L 177.2 144.3 M 174.5 146.5 L 175.4 145.8 M 173.6 147.2 L 174.5 146.5 M 169.1 150.8 L 170.1 150.1 M 171.8 148.7 L 173.6 147.2 M 170.1 150.1 L 171.8 148.7 M 164.8 154.1 L 166.6 152.8 L 168.3 151.4 L 169.1 150.8 M 163.5 155.2 L 164.8 154.1 M 163.1 155.4 L 163.5 155.2 " fill="none" stroke="#DDDD00" stroke-width="1.00" transform="matrix(0.92, 0.00, 0.00, 0.92, -61.6, 4.7)"></path><path d="M 161.4 156.7 L 159.8 169.5 " fill="none" stroke="#7E7E7E" stroke-width="1.00" transform="matrix(0.92, 0.00, 0.00, 0.92, -61.6, 4.7)"></path><path d="M 177.2 158.1 L 175.4 159.3 L 173.6 160.5 M 179.0 156.9 L 177.2 158.1 M 170.1 162.8 L 168.3 163.9 M 173.6 160.5 L 171.8 161.6 L 170.2 162.7 L 170.1 162.8 M 182.6 154.4 L 180.8 155.7 L 179.0 156.9 L 179.0 156.9 M 166.6 165.1 L 164.9 166.2 M 168.3 163.9 L 166.6 165.1 M 161.3 168.5 L 159.8 169.5 M 164.9 166.2 L 163.1 167.3 L 161.4 168.4 L 161.3 168.5 " fill="none" stroke="#DDDD00" stroke-width="1.00" transform="matrix(0.92, 0.00, 0.00, 0.92, -61.6, 4.7)"></path><path d="M 159.8 169.5 L 159.7 170.0 M 157.7 185.0 L 159.7 170.0 " fill="none" stroke="#7E7E7E" stroke-width="1.00" transform="matrix(0.92, 0.00, 0.00, 0.92, -61.6, 4.7)"></path><path d="M 175.2 175.0 L 176.2 174.4 L 177.0 174.0 M 178.8 173.0 L 180.6 171.9 M 162.8 182.1 L 163.3 181.8 M 177.0 174.0 L 178.8 173.0 M 173.4 176.1 L 175.2 175.0 M 169.8 178.1 L 171.6 177.1 L 173.4 176.1 M 166.3 180.2 L 168.0 179.2 L 169.8 178.1 M 163.3 181.8 L 164.6 181.1 L 166.3 180.2 " fill="none" stroke="#DDDD00" stroke-width="1.00" transform="matrix(0.92, 0.00, 0.00, 0.92, -61.6, 4.7)"></path><path d="M 157.7 185.0 L 153.5 217.2 " fill="none" stroke="#7E7E7E" stroke-width="1.00" transform="matrix(0.92, 0.00, 0.00, 0.92, -61.6, 4.7)"></path><path d="M 161.1 183.1 L 162.8 182.1 M 157.7 185.1 L 159.4 184.1 L 161.1 183.1 " fill="none" stroke="#DDDD00" stroke-width="1.00" transform="matrix(0.92, 0.00, 0.00, 0.92, -61.6, 4.7)"></path><path d="M 199.7 199.8 L 153.5 217.2 " fill="none" stroke="#7E7E7E" stroke-width="1.00" transform="matrix(0.92, 0.00, 0.00, 0.92, -61.6, 4.7)"></path><image xlink:href="../../4ED3B295-8E8F-4A71-9E51-594A20238F33/assets/34962004BA57634E7579600C2064C8D2.png" width="29.00" height="90.00" transform="matrix(1.00, 0.00, -0.00, -1.00, 101.0, 189.0)"></image><path d="M 184.6 129.8 L 177.4 192.5 M 199.7 199.8 L 177.4 192.5 " fill="none" stroke="#7E7E7E" stroke-width="1.00" transform="matrix(0.92, 0.00, 0.00, 0.92, -61.6, 4.7)"></path><path d="M 203.8 158.7 L 203.7 158.5 " fill="none" stroke="#DDDD00" stroke-width="1.00" transform="matrix(0.92, 0.00, 0.00, 0.92, -61.6, 4.7)"></path><path d="M 185.0 127.1 L 184.6 129.8 " fill="none" stroke="#7E7E7E" stroke-width="1.00" transform="matrix(0.92, 0.00, 0.00, 0.92, -61.6, 4.7)"></path><path d="M 202.2 156.0 L 203.7 158.5 " fill="none" stroke="#DDDD00" stroke-width="1.00" transform="matrix(0.92, 0.00, 0.00, 0.92, -61.6, 4.7)"></path><path d="M 185.2 124.7 L 185.0 127.1 " fill="none" stroke="#7E7E7E" stroke-width="1.00" transform="matrix(0.92, 0.00, 0.00, 0.92, -61.6, 4.7)"></path><path d="M 200.9 153.6 L 202.2 156.0 " fill="none" stroke="#DDDD00" stroke-width="1.00" transform="matrix(0.92, 0.00, 0.00, 0.92, -61.6, 4.7)"></path><path d="M 185.5 122.1 L 185.2 124.7 " fill="none" stroke="#7E7E7E" stroke-width="1.00" transform="matrix(0.92, 0.00, 0.00, 0.92, -61.6, 4.7)"></path><path d="M 197.0 146.4 L 198.4 148.9 M 194.6 141.6 L 195.7 143.9 M 193.5 139.2 L 194.6 141.6 M 195.7 143.9 L 197.0 146.4 M 192.5 136.9 L 193.5 139.2 M 192.2 136.2 L 192.5 136.9 M 198.4 148.9 L 198.9 149.5 M 191.2 134.5 L 192.2 136.2 M 188.7 129.6 L 189.8 132.0 M 187.7 127.3 L 188.7 129.6 M 185.5 122.3 L 185.6 122.6 L 186.7 124.9 L 187.7 127.3 M 189.8 132.0 L 191.2 134.5 M 198.9 149.5 L 199.7 151.3 L 200.9 153.6 " fill="none" stroke="#DDDD00" stroke-width="1.00" transform="matrix(0.92, 0.00, 0.00, 0.92, -61.6, 4.7)"></path><path d="M 187.3 107.1 L 185.5 122.1 " fill="none" stroke="#7E7E7E" stroke-width="1.00" transform="matrix(0.92, 0.00, 0.00, 0.92, -61.6, 4.7)"></path><path d="M 190.9 115.7 L 192.8 118.4 M 186.8 111.0 L 188.4 112.6 L 190.9 115.7 M 192.8 118.4 L 194.0 120.1 M 196.7 123.8 L 198.4 126.4 L 199.9 129.0 M 194.0 120.1 L 194.7 121.1 L 196.7 123.8 M 199.9 129.0 L 200.8 130.6 M 201.4 131.5 L 203.1 134.1 M 200.8 130.6 L 201.4 131.5 " fill="none" stroke="#DDDD00" stroke-width="1.00" transform="matrix(0.92, 0.00, 0.00, 0.92, -61.6, 4.7)"></path><path d="M 205.8 138.5 L 204.6 136.6 " fill="none" stroke="#DDDD00" stroke-width="1.00" transform="matrix(0.92, 0.00, 0.00, 0.92, -61.6, 4.7)"></path><path d="M 203.1 134.1 L 204.6 136.6 " fill="none" stroke="#DDDD00" stroke-width="1.00" transform="matrix(0.92, 0.00, 0.00, 0.92, -61.6, 4.7)"></path><path d="M 187.7 103.6 L 187.7 103.6 " fill="none" stroke="#7E7E7E" stroke-width="1.00" transform="matrix(0.92, 0.00, 0.00, 0.92, -61.6, 4.7)"></path><path d="M 187.7 103.6 L 241.2 72.2 " fill="none" stroke="#7E7E7E" stroke-width="1.00" transform="matrix(0.92, 0.00, 0.00, 0.92, -61.6, 4.7)"></path><path d="M 187.7 103.6 L 187.3 107.1 " fill="none" stroke="#7E7E7E" stroke-width="1.00" transform="matrix(0.92, 0.00, 0.00, 0.92, -61.6, 4.7)"></path><path d="M 195.4 107.3 L 187.7 103.6 M 216.0 131.4 L 213.9 132.9 L 212.7 133.8 M 218.1 129.9 L 216.0 131.4 M 212.7 133.8 L 211.8 134.3 M 209.8 135.8 L 207.8 137.2 M 211.8 134.3 L 209.8 135.8 M 224.5 125.3 L 222.3 126.8 L 220.5 128.1 M 255.0 101.8 L 253.9 102.7 L 251.6 104.6 L 249.2 106.5 L 248.8 106.8 M 205.7 138.6 L 205.7 138.6 M 207.8 137.2 L 205.7 138.6 M 228.1 122.6 L 226.6 123.7 L 224.5 125.3 M 258.7 98.7 L 256.3 100.7 L 255.0 101.8 M 260.7 97.1 L 258.7 98.7 " fill="none" stroke="#DDDD00" stroke-width="1.00" transform="matrix(0.92, 0.00, 0.00, 0.92, -61.6, 4.7)"></path><path d="M 261.9 84.4 L 241.2 72.2 " fill="none" stroke="#7E7E7E" stroke-width="1.00" transform="matrix(0.92, 0.00, 0.00, 0.92, -61.6, 4.7)"></path><path d="M 261.2 96.6 L 260.7 97.1 M 231.0 120.4 L 228.8 122.1 L 228.1 122.6 M 235.4 117.2 L 233.2 118.8 L 231.0 120.4 M 235.5 117.1 L 235.4 117.2 M 240.0 113.7 L 237.7 115.4 L 235.5 117.1 M 242.3 111.9 L 242.2 111.9 L 240.0 113.7 M 246.9 108.3 L 244.5 110.1 M 248.8 106.8 L 246.9 108.3 M 244.5 110.1 L 242.3 111.9 " fill="none" stroke="#DDDD00" stroke-width="1.00" transform="matrix(0.92, 0.00, 0.00, 0.92, -61.6, 4.7)"></path><path d="M 261.0 99.0 L 261.9 84.4 " fill="none" stroke="#7E7E7E" stroke-width="1.00" transform="matrix(0.92, 0.00, 0.00, 0.92, -61.6, 4.7)"></path><path d="M 261.9 84.4 L 261.9 84.4 " fill="none" stroke="#7E7E7E" stroke-width="1.00" transform="matrix(0.92, 0.00, 0.00, 0.92, -61.6, 4.7)"></path><path d="M 220.5 128.1 L 220.2 128.4 L 218.1 129.9 M 257.9 126.2 L 259.5 125.2 M 247.5 132.5 L 249.8 131.1 M 254.6 128.2 L 257.1 126.7 L 257.9 126.2 M 252.2 129.7 L 254.6 128.2 M 249.8 131.1 L 252.2 129.7 M 245.1 133.9 L 247.5 132.5 M 243.8 134.7 L 245.1 133.9 M 235.9 139.5 L 238.2 138.1 M 233.6 140.8 L 235.9 139.5 M 240.5 136.7 L 242.8 135.3 L 243.8 134.7 M 238.2 138.1 L 240.5 136.7 M 229.9 143.0 L 231.4 142.1 L 233.6 140.8 M 220.4 148.6 L 222.6 147.4 M 227.0 144.8 L 229.2 143.4 L 229.9 143.0 M 224.8 146.1 L 227.0 144.8 M 222.6 147.4 L 224.8 146.1 M 218.3 149.9 L 220.4 148.6 M 216.2 151.1 L 216.2 151.1 L 218.3 149.9 M 207.9 156.0 L 209.9 154.8 M 214.1 152.4 L 216.2 151.1 M 212.0 153.6 L 214.1 152.4 M 209.9 154.8 L 212.0 153.6 M 203.8 158.4 L 205.8 157.2 L 207.9 156.0 M 203.8 158.4 L 203.8 158.4 " fill="none" stroke="#DDDD00" stroke-width="1.00" transform="matrix(0.92, 0.00, 0.00, 0.92, -61.6, 4.7)"></path><path d="M 261.0 99.0 L 256.4 178.4 " fill="none" stroke="#7E7E7E" stroke-width="1.00" transform="matrix(0.92, 0.00, 0.00, 0.92, -61.6, 4.7)"></path><path d="M 199.7 199.8 L 256.4 178.4 " fill="none" stroke="#7E7E7E" stroke-width="1.00" transform="matrix(0.92, 0.00, 0.00, 0.92, -61.6, 4.7)"></path></g></g></g></g></g></svg>