<?xml version="1.0" encoding="UTF-8" standalone="no"?><svg xmlns="http://www.w3.org/2000/svg" xmlns:xlink="http://www.w3.org/1999/xlink" clip-rule="evenodd" stroke-miterlimit="10" viewBox="0 0 651 246"><desc>SVG generated by Keynote</desc><defs></defs><g transform="matrix(1.00, 0.00, -0.00, -1.00, 0.0, 246.0)"><g><clipPath id="clip0x6000092a85e0"><path d="M 1.9 1.9 L 649.6 1.9 L 649.6 244.9 L 1.9 244.9 Z M 1.9 1.9 "></path></clipPath><g clip-path="url(#clip0x6000092a85e0)"><path d="M -4.2 -259.7 L 771.1 -259.7 L 771.1 515.7 L -4.2 515.7 Z M -4.2 -259.7 " fill="#FFFFFF"></path></g></g><g><clipPath id="clip0x6000092a8820"><path d="M -4.2 255.9 L 771.1 255.9 L 771.1 -1.2 L -4.2 -1.2 Z M -4.2 255.9 "></path></clipPath><g clip-path="url(#clip0x6000092a8820)"><g><clipPath id="clip0x6000092a89a0"><path d="M 1.9 1.9 L 649.6 1.9 L 649.6 244.9 L 1.9 244.9 Z M 1.9 1.9 "></path></clipPath><g clip-path="url(#clip0x6000092a89a0)"><path d="M 0.0 335.1 L 504.0 335.1 L 504.0 168.9 L 0.0 168.9 Z M 0.0 335.1 " fill="#FFFFFF" stroke="#FFFFFF" stroke-width="1.06" stroke-linecap="round" stroke-linejoin="round" transform="matrix(1.54, 0.00, 0.00, 1.54, -4.2, -259.7)"></path><text xml:space="preserve" font-family="Helvetica,Helvetica" font-size="8.0" fill="#000000" transform="matrix(1.54, 0.00, -0.00, -1.54, 106.5, 219.4)">O</text><text xml:space="preserve" font-family="Helvetica,Helvetica" font-size="8.0" fill="#000000" transform="matrix(1.54, 0.00, -0.00, -1.54, 116.0, 219.4)">b</text><text xml:space="preserve" font-family="Helvetica,Helvetica" font-size="8.0" fill="#000000" transform="matrix(1.54, 0.00, -0.00, -1.54, 122.9, 219.4)">s</text><text xml:space="preserve" font-family="Helvetica,Helvetica" font-size="8.0" fill="#000000" transform="matrix(1.54, 0.00, -0.00, -1.54, 129.0, 219.4)">e</text><text xml:space="preserve" font-family="Helvetica,Helvetica" font-size="8.0" fill="#000000" transform="matrix(1.54, 0.00, -0.00, -1.54, 135.9, 219.4)">r</text><text xml:space="preserve" font-family="Helvetica,Helvetica" font-size="8.0" fill="#000000" transform="matrix(1.54, 0.00, -0.00, -1.54, 140.0, 219.4)">v</text><text xml:space="preserve" font-family="Helvetica,Helvetica" font-size="8.0" fill="#000000" transform="matrix(1.54, 0.00, -0.00, -1.54, 146.1, 219.4)">e</text><text xml:space="preserve" font-family="Helvetica,Helvetica" font-size="8.0" fill="#000000" transform="matrix(1.54, 0.00, -0.00, -1.54, 153.0, 219.4)">r</text><text xml:space="preserve" font-family="Helvetica,Helvetica" font-size="8.0" fill="#000000" transform="matrix(1.54, 0.00, -0.00, -1.54, 157.1, 219.4)"> </text><text xml:space="preserve" font-family="Helvetica,Helvetica" font-size="8.0" fill="#000000" transform="matrix(1.54, 0.00, -0.00, -1.54, 160.5, 219.4)">N</text><text xml:space="preserve" font-family="Helvetica,Helvetica" font-size="8.0" fill="#000000" transform="matrix(1.54, 0.00, -0.00, -1.54, 169.4, 219.4)">J</text><text xml:space="preserve" font-family="Helvetica,Helvetica" font-size="8.0" fill="#000000" transform="matrix(1.54, 0.00, -0.00, -1.54, 267.8, 219.4)">O</text><text xml:space="preserve" font-family="Helvetica,Helvetica" font-size="8.0" fill="#000000" transform="matrix(1.54, 0.00, -0.00, -1.54, 277.4, 219.4)">b</text><text xml:space="preserve" font-family="Helvetica,Helvetica" font-size="8.0" fill="#000000" transform="matrix(1.54, 0.00, -0.00, -1.54, 284.2, 219.4)">s</text><text xml:space="preserve" font-family="Helvetica,Helvetica" font-size="8.0" fill="#000000" transform="matrix(1.54, 0.00, -0.00, -1.54, 290.4, 219.4)">e</text><text xml:space="preserve" font-family="Helvetica,Helvetica" font-size="8.0" fill="#000000" transform="matrix(1.54, 0.00, -0.00, -1.54, 297.2, 219.4)">r</text><text xml:space="preserve" font-family="Helvetica,Helvetica" font-size="8.0" fill="#000000" transform="matrix(1.54, 0.00, -0.00, -1.54, 301.3, 219.4)">v</text><text xml:space="preserve" font-family="Helvetica,Helvetica" font-size="8.0" fill="#000000" transform="matrix(1.54, 0.00, -0.00, -1.54, 307.5, 219.4)">e</text><text xml:space="preserve" font-family="Helvetica,Helvetica" font-size="8.0" fill="#000000" transform="matrix(1.54, 0.00, -0.00, -1.54, 314.3, 219.4)">r</text><text xml:space="preserve" font-family="Helvetica,Helvetica" font-size="8.0" fill="#000000" transform="matrix(1.54, 0.00, -0.00, -1.54, 318.4, 219.4)"> </text><text xml:space="preserve" font-family="Helvetica,Helvetica" font-size="8.0" fill="#000000" transform="matrix(1.54, 0.00, -0.00, -1.54, 321.8, 219.4)">N</text><text xml:space="preserve" font-family="Helvetica,Helvetica" font-size="8.0" fill="#000000" transform="matrix(1.54, 0.00, -0.00, -1.54, 330.7, 219.4)">S</text><text xml:space="preserve" font-family="Helvetica,Helvetica" font-size="8.0" fill="#000000" transform="matrix(1.54, 0.00, -0.00, -1.54, 425.4, 219.4)">O</text><text xml:space="preserve" font-family="Helvetica,Helvetica" font-size="8.0" fill="#000000" transform="matrix(1.54, 0.00, -0.00, -1.54, 435.0, 219.4)">b</text><text xml:space="preserve" font-family="Helvetica,Helvetica" font-size="8.0" fill="#000000" transform="matrix(1.54, 0.00, -0.00, -1.54, 441.8, 219.4)">s</text><text xml:space="preserve" font-family="Helvetica,Helvetica" font-size="8.0" fill="#000000" transform="matrix(1.54, 0.00, -0.00, -1.54, 448.0, 219.4)">e</text><text xml:space="preserve" font-family="Helvetica,Helvetica" font-size="8.0" fill="#000000" transform="matrix(1.54, 0.00, -0.00, -1.54, 454.8, 219.4)">r</text><text xml:space="preserve" font-family="Helvetica,Helvetica" font-size="8.0" fill="#000000" transform="matrix(1.54, 0.00, -0.00, -1.54, 458.9, 219.4)">v</text><text xml:space="preserve" font-family="Helvetica,Helvetica" font-size="8.0" fill="#000000" transform="matrix(1.54, 0.00, -0.00, -1.54, 465.1, 219.4)">e</text><text xml:space="preserve" font-family="Helvetica,Helvetica" font-size="8.0" fill="#000000" transform="matrix(1.54, 0.00, -0.00, -1.54, 471.9, 219.4)">r</text><text xml:space="preserve" font-family="Helvetica,Helvetica" font-size="8.0" fill="#000000" transform="matrix(1.54, 0.00, -0.00, -1.54, 476.0, 219.4)"> </text><text xml:space="preserve" font-family="Helvetica,Helvetica" font-size="8.0" fill="#000000" transform="matrix(1.54, 0.00, -0.00, -1.54, 479.4, 219.4)">P</text><text xml:space="preserve" font-family="Helvetica,Helvetica" font-size="8.0" fill="#000000" transform="matrix(1.54, 0.00, -0.00, -1.54, 487.6, 219.4)">B</text><text xml:space="preserve" font-family="Helvetica,Helvetica" font-size="8.0" fill="#000000" transform="matrix(1.54, 0.00, -0.00, -1.54, 495.8, 219.4)">M</text></g></g></g></g><g><clipPath id="clip0x6000092a9960"><path d="M 62.6 213.9 L 220.4 213.9 L 220.4 55.7 L 62.6 55.7 Z M 62.6 213.9 "></path></clipPath><g clip-path="url(#clip0x6000092a9960)"><g><clipPath id="clip0x6000092a9ae0"><path d="M 1.9 1.9 L 649.6 1.9 L 649.6 244.9 L 1.9 244.9 Z M 1.9 1.9 "></path></clipPath><g clip-path="url(#clip0x6000092a9ae0)"><path d="M 62.6 213.9 L 219.4 213.9 L 219.4 57.0 L 62.6 57.0 Z M 62.6 213.9 " fill="#FFFFFF"></path><path d="M 82.8 235.7 L 140.8 235.7 " fill="none" stroke="#878AFF" stroke-width="1.06" stroke-linejoin="round" transform="matrix(1.54, 0.00, 0.00, 1.54, -4.2, -259.7)"></path><path d="M 68.3 245.0 L 140.8 245.0 " fill="none" stroke="#62C3EF" stroke-width="1.06" stroke-linejoin="round" transform="matrix(1.54, 0.00, 0.00, 1.54, -4.2, -259.7)"></path><path d="M 58.0 256.0 L 104.5 256.0 " fill="none" stroke="#6BDBBF" stroke-width="1.06" stroke-linejoin="round" transform="matrix(1.54, 0.00, 0.00, 1.54, -4.2, -259.7)"></path><path d="M 48.1 267.1 L 82.8 267.1 " fill="none" stroke="#AEBF48" stroke-width="1.06" stroke-linejoin="round" transform="matrix(1.54, 0.00, 0.00, 1.54, -4.2, -259.7)"></path><path d="M 48.1 276.8 L 68.3 276.8 " fill="none" stroke="#D89533" stroke-width="1.06" stroke-linejoin="round" transform="matrix(1.54, 0.00, 0.00, 1.54, -4.2, -259.7)"></path><path d="M 48.1 284.1 L 58.0 284.1 " fill="none" stroke="#FF5252" stroke-width="1.06" stroke-linejoin="round" transform="matrix(1.54, 0.00, 0.00, 1.54, -4.2, -259.7)"></path><path d="M 82.8 235.7 L 140.8 235.7 " fill="none" stroke="#878AFF" stroke-width="1.06" stroke-linejoin="round" transform="matrix(1.54, 0.00, 0.00, 1.54, -4.2, -259.7)"></path><path d="M 68.3 245.0 L 140.8 245.0 " fill="none" stroke="#62C3EF" stroke-width="1.06" stroke-linejoin="round" transform="matrix(1.54, 0.00, 0.00, 1.54, -4.2, -259.7)"></path><path d="M 58.0 256.0 L 104.5 256.0 " fill="none" stroke="#6BDBBF" stroke-width="1.06" stroke-linejoin="round" transform="matrix(1.54, 0.00, 0.00, 1.54, -4.2, -259.7)"></path><path d="M 48.1 267.1 L 82.8 267.1 " fill="none" stroke="#AEBF48" stroke-width="1.06" stroke-linejoin="round" transform="matrix(1.54, 0.00, 0.00, 1.54, -4.2, -259.7)"></path><path d="M 48.1 276.8 L 68.3 276.8 " fill="none" stroke="#D89533" stroke-width="1.06" stroke-linejoin="round" transform="matrix(1.54, 0.00, 0.00, 1.54, -4.2, -259.7)"></path><path d="M 48.1 284.1 L 58.0 284.1 " fill="none" stroke="#FF5252" stroke-width="1.06" stroke-linejoin="round" transform="matrix(1.54, 0.00, 0.00, 1.54, -4.2, -259.7)"></path><path d="M 73.0 151.3 C 73.0 146.9 66.5 146.9 66.5 151.3 C 66.5 155.7 73.0 155.7 73.0 151.3 " fill="#FFFFFF"></path><path d="M 73.0 166.1 C 73.0 161.8 66.5 161.8 66.5 166.1 C 66.5 170.5 73.0 170.5 73.0 166.1 " fill="#FFFFFF"></path><path d="M 73.0 177.4 C 73.0 173.0 66.5 173.0 66.5 177.4 C 66.5 181.7 73.0 181.7 73.0 177.4 " fill="#FFFFFF"></path><path d="M 88.3 134.2 C 88.3 129.8 81.7 129.8 81.7 134.2 C 81.7 138.5 88.3 138.5 88.3 134.2 " fill="#FFFFFF"></path><path d="M 88.3 151.3 C 88.3 146.9 81.7 146.9 81.7 151.3 C 81.7 155.7 88.3 155.7 88.3 151.3 " fill="#FFFFFF"></path><path d="M 88.3 166.1 C 88.3 161.8 81.7 161.8 81.7 166.1 C 81.7 170.5 88.3 170.5 88.3 166.1 " fill="#FFFFFF"></path><path d="M 88.3 177.4 C 88.3 173.0 81.7 173.0 81.7 177.4 C 81.7 181.7 88.3 181.7 88.3 177.4 " fill="#FFFFFF"></path><path d="M 104.2 117.3 C 104.2 112.9 97.6 112.9 97.6 117.3 C 97.6 121.6 104.2 121.6 104.2 117.3 " fill="#FFFFFF"></path><path d="M 104.2 134.2 C 104.2 129.8 97.6 129.8 97.6 134.2 C 97.6 138.5 104.2 138.5 104.2 134.2 " fill="#FFFFFF"></path><path d="M 104.2 151.3 C 104.2 146.9 97.6 146.9 97.6 151.3 C 97.6 155.7 104.2 155.7 104.2 151.3 " fill="#FFFFFF"></path><path d="M 104.2 166.1 C 104.2 161.8 97.6 161.8 97.6 166.1 C 97.6 170.5 104.2 170.5 104.2 166.1 " fill="#FFFFFF"></path><path d="M 126.5 102.9 C 126.5 98.5 119.9 98.5 119.9 102.9 C 119.9 107.3 126.5 107.3 126.5 102.9 " fill="#FFFFFF"></path><path d="M 126.5 117.3 C 126.5 112.9 119.9 112.9 119.9 117.3 C 119.9 121.6 126.5 121.6 126.5 117.3 " fill="#FFFFFF"></path><path d="M 126.5 134.2 C 126.5 129.8 119.9 129.8 119.9 134.2 C 119.9 138.5 126.5 138.5 126.5 134.2 " fill="#FFFFFF"></path><path d="M 126.5 151.3 C 126.5 146.9 119.9 146.9 119.9 151.3 C 119.9 155.7 126.5 155.7 126.5 151.3 " fill="#FFFFFF"></path><path d="M 159.9 102.9 C 159.9 98.5 153.3 98.5 153.3 102.9 C 153.3 107.3 159.9 107.3 159.9 102.9 " fill="#FFFFFF"></path><path d="M 159.9 117.3 C 159.9 112.9 153.3 112.9 153.3 117.3 C 153.3 121.6 159.9 121.6 159.9 117.3 " fill="#FFFFFF"></path><path d="M 159.9 134.2 C 159.9 129.8 153.3 129.8 153.3 134.2 C 153.3 138.5 159.9 138.5 159.9 134.2 " fill="#FFFFFF"></path><path d="M 215.6 102.9 C 215.6 98.5 209.0 98.5 209.0 102.9 C 209.0 107.3 215.6 107.3 215.6 102.9 " fill="#FFFFFF"></path><path d="M 215.6 117.3 C 215.6 112.9 209.0 112.9 209.0 117.3 C 209.0 121.6 215.6 121.6 215.6 117.3 " fill="#FFFFFF"></path><path d="M 123.2 107.6 L 156.6 107.5 L 212.3 107.0 L 212.3 98.8 L 156.6 98.3 L 123.2 98.2 Z M 123.2 107.6 " fill="#878AFF" fill-opacity="0.20"></path><path d="M 100.9 121.9 L 123.2 122.1 L 156.6 122.0 L 212.3 121.6 L 212.3 113.0 L 156.6 112.5 L 123.2 112.5 L 100.9 112.6 Z M 100.9 121.9 " fill="#62C3EF" fill-opacity="0.20"></path><path d="M 85.0 137.9 L 100.9 138.3 L 123.2 139.0 L 156.6 139.0 L 156.6 129.4 L 123.2 129.3 L 100.9 130.1 L 85.0 130.4 Z M 85.0 137.9 " fill="#6BDBBF" fill-opacity="0.20"></path><path d="M 69.7 154.9 L 85.0 155.0 L 100.9 155.1 L 123.2 156.1 L 123.2 146.5 L 100.9 147.5 L 85.0 147.6 L 69.7 147.7 Z M 69.7 154.9 " fill="#AEBF48" fill-opacity="0.20"></path><path d="M 69.7 169.6 L 85.0 169.7 L 100.9 169.7 L 100.9 162.6 L 85.0 162.6 L 69.7 162.7 Z M 69.7 169.6 " fill="#D89533" fill-opacity="0.20"></path><path d="M 69.7 180.7 L 85.0 180.7 L 85.0 174.1 L 69.7 174.1 Z M 69.7 180.7 " fill="#FF5252" fill-opacity="0.20"></path><text xml:space="preserve" font-family="Helvetica,Helvetica" font-size="7.1" fill="#AEBF48" transform="matrix(1.54, 0.00, -0.00, -1.54, 66.7, 147.4)">6</text><text xml:space="preserve" font-family="Helvetica,Helvetica" font-size="7.1" fill="#D89533" transform="matrix(1.54, 0.00, -0.00, -1.54, 66.7, 162.2)">7</text><text xml:space="preserve" font-family="Helvetica,Helvetica" font-size="7.1" fill="#FF5252" transform="matrix(1.54, 0.00, -0.00, -1.54, 66.7, 173.5)">8</text><text xml:space="preserve" font-family="Helvetica,Helvetica" font-size="7.1" fill="#6BDBBF" transform="matrix(1.54, 0.00, -0.00, -1.54, 82.0, 130.3)">5</text><text xml:space="preserve" font-family="Helvetica,Helvetica" font-size="7.1" fill="#AEBF48" transform="matrix(1.54, 0.00, -0.00, -1.54, 82.0, 147.4)">6</text><text xml:space="preserve" font-family="Helvetica,Helvetica" font-size="7.1" fill="#D89533" transform="matrix(1.54, 0.00, -0.00, -1.54, 82.0, 162.2)">7</text><text xml:space="preserve" font-family="Helvetica,Helvetica" font-size="7.1" fill="#FF5252" transform="matrix(1.54, 0.00, -0.00, -1.54, 82.0, 173.5)">8</text><text xml:space="preserve" font-family="Helvetica,Helvetica" font-size="7.1" fill="#62C3EF" transform="matrix(1.54, 0.00, -0.00, -1.54, 97.9, 113.4)">4</text><text xml:space="preserve" font-family="Helvetica,Helvetica" font-size="7.1" fill="#6BDBBF" transform="matrix(1.54, 0.00, -0.00, -1.54, 97.9, 130.3)">5</text><text xml:space="preserve" font-family="Helvetica,Helvetica" font-size="7.1" fill="#AEBF48" transform="matrix(1.54, 0.00, -0.00, -1.54, 97.9, 147.4)">6</text><text xml:space="preserve" font-family="Helvetica,Helvetica" font-size="7.1" fill="#D89533" transform="matrix(1.54, 0.00, -0.00, -1.54, 97.9, 162.2)">7</text><text xml:space="preserve" font-family="Helvetica,Helvetica" font-size="7.1" fill="#878AFF" transform="matrix(1.54, 0.00, -0.00, -1.54, 120.2, 99.0)">3</text><text xml:space="preserve" font-family="Helvetica,Helvetica" font-size="7.1" fill="#62C3EF" transform="matrix(1.54, 0.00, -0.00, -1.54, 120.2, 113.4)">4</text><text xml:space="preserve" font-family="Helvetica,Helvetica" font-size="7.1" fill="#6BDBBF" transform="matrix(1.54, 0.00, -0.00, -1.54, 120.2, 130.3)">5</text><text xml:space="preserve" font-family="Helvetica,Helvetica" font-size="7.1" fill="#AEBF48" transform="matrix(1.54, 0.00, -0.00, -1.54, 120.2, 147.4)">6</text><text xml:space="preserve" font-family="Helvetica,Helvetica" font-size="7.1" fill="#878AFF" transform="matrix(1.54, 0.00, -0.00, -1.54, 153.6, 99.0)">3</text><text xml:space="preserve" font-family="Helvetica,Helvetica" font-size="7.1" fill="#62C3EF" transform="matrix(1.54, 0.00, -0.00, -1.54, 153.6, 113.4)">4</text><text xml:space="preserve" font-family="Helvetica,Helvetica" font-size="7.1" fill="#6BDBBF" transform="matrix(1.54, 0.00, -0.00, -1.54, 153.6, 130.3)">5</text><text xml:space="preserve" font-family="Helvetica,Helvetica" font-size="7.1" fill="#878AFF" transform="matrix(1.54, 0.00, -0.00, -1.54, 209.3, 99.0)">3</text><text xml:space="preserve" font-family="Helvetica,Helvetica" font-size="7.1" fill="#62C3EF" transform="matrix(1.54, 0.00, -0.00, -1.54, 209.3, 113.4)">4</text><path d="M 43.4 307.8 L 145.4 307.8 L 145.4 205.8 L 43.4 205.8 Z M 43.4 307.8 " fill="none" stroke="#7E7E7E" stroke-width="1.06" stroke-linecap="round" stroke-linejoin="round" transform="matrix(1.54, 0.00, 0.00, 1.54, -4.2, -259.7)"></path></g></g></g></g><g><clipPath id="clip0x6000092ac1e0"><path d="M 225.0 213.9 L 381.9 213.9 L 381.9 55.7 L 225.0 55.7 Z M 225.0 213.9 "></path></clipPath><g clip-path="url(#clip0x6000092ac1e0)"><g><clipPath id="clip0x6000092ac360"><path d="M 1.9 1.9 L 649.6 1.9 L 649.6 244.9 L 1.9 244.9 Z M 1.9 1.9 "></path></clipPath><g clip-path="url(#clip0x6000092ac360)"><path d="M 225.0 213.9 L 381.8 213.9 L 381.8 57.0 L 225.0 57.0 Z M 225.0 213.9 " fill="#FFFFFF"></path><path d="M 188.4 239.2 L 246.3 239.2 " fill="none" stroke="#878AFF" stroke-width="1.06" stroke-linejoin="round" transform="matrix(1.54, 0.00, 0.00, 1.54, -4.2, -259.7)"></path><path d="M 173.9 241.3 L 246.3 241.3 " fill="none" stroke="#62C3EF" stroke-width="1.06" stroke-linejoin="round" transform="matrix(1.54, 0.00, 0.00, 1.54, -4.2, -259.7)"></path><path d="M 163.5 243.7 L 210.1 243.7 " fill="none" stroke="#6BDBBF" stroke-width="1.06" stroke-linejoin="round" transform="matrix(1.54, 0.00, 0.00, 1.54, -4.2, -259.7)"></path><path d="M 153.6 246.4 L 188.4 246.4 " fill="none" stroke="#AEBF48" stroke-width="1.06" stroke-linejoin="round" transform="matrix(1.54, 0.00, 0.00, 1.54, -4.2, -259.7)"></path><path d="M 153.6 249.3 L 173.9 249.3 " fill="none" stroke="#D89533" stroke-width="1.06" stroke-linejoin="round" transform="matrix(1.54, 0.00, 0.00, 1.54, -4.2, -259.7)"></path><path d="M 153.6 252.4 L 163.5 252.4 " fill="none" stroke="#FF5252" stroke-width="1.06" stroke-linejoin="round" transform="matrix(1.54, 0.00, 0.00, 1.54, -4.2, -259.7)"></path><path d="M 188.4 239.2 L 246.3 239.2 " fill="none" stroke="#878AFF" stroke-width="1.06" stroke-linejoin="round" transform="matrix(1.54, 0.00, 0.00, 1.54, -4.2, -259.7)"></path><path d="M 173.9 241.3 L 246.3 241.3 " fill="none" stroke="#62C3EF" stroke-width="1.06" stroke-linejoin="round" transform="matrix(1.54, 0.00, 0.00, 1.54, -4.2, -259.7)"></path><path d="M 163.5 243.7 L 210.1 243.7 " fill="none" stroke="#6BDBBF" stroke-width="1.06" stroke-linejoin="round" transform="matrix(1.54, 0.00, 0.00, 1.54, -4.2, -259.7)"></path><path d="M 153.6 246.4 L 188.4 246.4 " fill="none" stroke="#AEBF48" stroke-width="1.06" stroke-linejoin="round" transform="matrix(1.54, 0.00, 0.00, 1.54, -4.2, -259.7)"></path><path d="M 153.6 249.3 L 173.9 249.3 " fill="none" stroke="#D89533" stroke-width="1.06" stroke-linejoin="round" transform="matrix(1.54, 0.00, 0.00, 1.54, -4.2, -259.7)"></path><path d="M 153.6 252.4 L 163.5 252.4 " fill="none" stroke="#FF5252" stroke-width="1.06" stroke-linejoin="round" transform="matrix(1.54, 0.00, 0.00, 1.54, -4.2, -259.7)"></path><path d="M 235.4 119.4 C 235.4 115.0 228.8 115.0 228.8 119.4 C 228.8 123.8 235.4 123.8 235.4 119.4 " fill="#FFFFFF"></path><path d="M 235.4 123.9 C 235.4 119.5 228.8 119.5 228.8 123.9 C 228.8 128.3 235.4 128.3 235.4 123.9 " fill="#FFFFFF"></path><path d="M 235.4 128.7 C 235.4 124.3 228.8 124.3 228.8 128.7 C 228.8 133.0 235.4 133.0 235.4 128.7 " fill="#FFFFFF"></path><path d="M 250.7 115.3 C 250.7 110.9 244.1 110.9 244.1 115.3 C 244.1 119.6 250.7 119.6 250.7 115.3 " fill="#FFFFFF"></path><path d="M 250.7 119.4 C 250.7 115.0 244.1 115.0 244.1 119.4 C 244.1 123.8 250.7 123.8 250.7 119.4 " fill="#FFFFFF"></path><path d="M 250.7 123.9 C 250.7 119.5 244.1 119.5 244.1 123.9 C 244.1 128.3 250.7 128.3 250.7 123.9 " fill="#FFFFFF"></path><path d="M 250.7 128.7 C 250.7 124.3 244.1 124.3 244.1 128.7 C 244.1 133.0 250.7 133.0 250.7 128.7 " fill="#FFFFFF"></path><path d="M 266.6 111.6 C 266.6 107.2 260.0 107.2 260.0 111.6 C 260.0 115.9 266.6 115.9 266.6 111.6 " fill="#FFFFFF"></path><path d="M 266.6 115.3 C 266.6 110.9 260.0 110.9 260.0 115.3 C 260.0 119.6 266.6 119.6 266.6 115.3 " fill="#FFFFFF"></path><path d="M 266.6 119.4 C 266.6 115.0 260.0 115.0 260.0 119.4 C 260.0 123.8 266.6 123.8 266.6 119.4 " fill="#FFFFFF"></path><path d="M 266.6 123.9 C 266.6 119.5 260.0 119.5 260.0 123.9 C 260.0 128.3 266.6 128.3 266.6 123.9 " fill="#FFFFFF"></path><path d="M 288.8 108.3 C 288.8 104.0 282.3 104.0 282.3 108.3 C 282.3 112.7 288.8 112.7 288.8 108.3 " fill="#FFFFFF"></path><path d="M 288.8 111.6 C 288.8 107.2 282.3 107.2 282.3 111.6 C 282.3 115.9 288.8 115.9 288.8 111.6 " fill="#FFFFFF"></path><path d="M 288.8 115.3 C 288.8 110.9 282.3 110.9 282.3 115.3 C 282.3 119.6 288.8 119.6 288.8 115.3 " fill="#FFFFFF"></path><path d="M 288.8 119.4 C 288.8 115.0 282.3 115.0 282.3 119.4 C 282.3 123.8 288.8 123.8 288.8 119.4 " fill="#FFFFFF"></path><path d="M 322.3 108.3 C 322.3 104.0 315.7 104.0 315.7 108.3 C 315.7 112.7 322.3 112.7 322.3 108.3 " fill="#FFFFFF"></path><path d="M 322.3 111.6 C 322.3 107.2 315.7 107.2 315.7 111.6 C 315.7 115.9 322.3 115.9 322.3 111.6 " fill="#FFFFFF"></path><path d="M 322.3 115.3 C 322.3 110.9 315.7 110.9 315.7 115.3 C 315.7 119.6 322.3 119.6 322.3 115.3 " fill="#FFFFFF"></path><path d="M 378.0 108.3 C 378.0 104.0 371.4 104.0 371.4 108.3 C 371.4 112.7 378.0 112.7 378.0 108.3 " fill="#FFFFFF"></path><path d="M 378.0 111.6 C 378.0 107.2 371.4 107.2 371.4 111.6 C 371.4 115.9 378.0 115.9 378.0 111.6 " fill="#FFFFFF"></path><path d="M 285.6 114.2 L 319.0 113.3 L 374.7 112.8 L 374.7 103.9 L 319.0 103.3 L 285.6 102.5 Z M 285.6 114.2 " fill="#878AFF" fill-opacity="0.20"></path><path d="M 263.3 118.1 L 285.6 116.8 L 319.0 114.7 L 374.7 115.5 L 374.7 107.6 L 319.0 108.5 L 285.6 106.3 L 263.3 105.1 Z M 263.3 118.1 " fill="#62C3EF" fill-opacity="0.20"></path><path d="M 247.4 121.4 L 263.3 121.3 L 285.6 119.9 L 319.0 119.8 L 319.0 110.8 L 285.6 110.6 L 263.3 109.3 L 247.4 109.2 Z M 247.4 121.4 " fill="#6BDBBF" fill-opacity="0.20"></path><path d="M 232.1 124.2 L 247.4 125.5 L 263.3 125.3 L 285.6 125.3 L 285.6 113.5 L 263.3 113.5 L 247.4 113.3 L 232.1 114.6 Z M 232.1 124.2 " fill="#AEBF48" fill-opacity="0.20"></path><path d="M 232.1 129.4 L 247.4 130.5 L 263.3 130.5 L 263.3 117.3 L 247.4 117.3 L 232.1 118.4 Z M 232.1 129.4 " fill="#D89533" fill-opacity="0.20"></path><path d="M 232.1 134.3 L 247.4 134.7 L 247.4 122.6 L 232.1 123.1 Z M 232.1 134.3 " fill="#FF5252" fill-opacity="0.20"></path><text xml:space="preserve" font-family="Helvetica,Helvetica" font-size="7.1" fill="#AEBF48" transform="matrix(1.54, 0.00, -0.00, -1.54, 229.1, 115.5)">6</text><text xml:space="preserve" font-family="Helvetica,Helvetica" font-size="7.1" fill="#D89533" transform="matrix(1.54, 0.00, -0.00, -1.54, 229.1, 120.0)">7</text><text xml:space="preserve" font-family="Helvetica,Helvetica" font-size="7.1" fill="#FF5252" transform="matrix(1.54, 0.00, -0.00, -1.54, 229.1, 124.8)">8</text><text xml:space="preserve" font-family="Helvetica,Helvetica" font-size="7.1" fill="#6BDBBF" transform="matrix(1.54, 0.00, -0.00, -1.54, 244.3, 111.4)">5</text><text xml:space="preserve" font-family="Helvetica,Helvetica" font-size="7.1" fill="#AEBF48" transform="matrix(1.54, 0.00, -0.00, -1.54, 244.3, 115.5)">6</text><text xml:space="preserve" font-family="Helvetica,Helvetica" font-size="7.1" fill="#D89533" transform="matrix(1.54, 0.00, -0.00, -1.54, 244.3, 120.0)">7</text><text xml:space="preserve" font-family="Helvetica,Helvetica" font-size="7.1" fill="#FF5252" transform="matrix(1.54, 0.00, -0.00, -1.54, 244.3, 124.8)">8</text><text xml:space="preserve" font-family="Helvetica,Helvetica" font-size="7.1" fill="#62C3EF" transform="matrix(1.54, 0.00, -0.00, -1.54, 260.3, 107.7)">4</text><text xml:space="preserve" font-family="Helvetica,Helvetica" font-size="7.1" fill="#6BDBBF" transform="matrix(1.54, 0.00, -0.00, -1.54, 260.3, 111.4)">5</text><text xml:space="preserve" font-family="Helvetica,Helvetica" font-size="7.1" fill="#AEBF48" transform="matrix(1.54, 0.00, -0.00, -1.54, 260.3, 115.5)">6</text><text xml:space="preserve" font-family="Helvetica,Helvetica" font-size="7.1" fill="#D89533" transform="matrix(1.54, 0.00, -0.00, -1.54, 260.3, 120.0)">7</text><text xml:space="preserve" font-family="Helvetica,Helvetica" font-size="7.1" fill="#878AFF" transform="matrix(1.54, 0.00, -0.00, -1.54, 282.5, 104.4)">3</text><text xml:space="preserve" font-family="Helvetica,Helvetica" font-size="7.1" fill="#62C3EF" transform="matrix(1.54, 0.00, -0.00, -1.54, 282.5, 107.7)">4</text><text xml:space="preserve" font-family="Helvetica,Helvetica" font-size="7.1" fill="#6BDBBF" transform="matrix(1.54, 0.00, -0.00, -1.54, 282.5, 111.4)">5</text><text xml:space="preserve" font-family="Helvetica,Helvetica" font-size="7.1" fill="#AEBF48" transform="matrix(1.54, 0.00, -0.00, -1.54, 282.5, 115.5)">6</text><text xml:space="preserve" font-family="Helvetica,Helvetica" font-size="7.1" fill="#878AFF" transform="matrix(1.54, 0.00, -0.00, -1.54, 316.0, 104.4)">3</text><text xml:space="preserve" font-family="Helvetica,Helvetica" font-size="7.1" fill="#62C3EF" transform="matrix(1.54, 0.00, -0.00, -1.54, 316.0, 107.7)">4</text><text xml:space="preserve" font-family="Helvetica,Helvetica" font-size="7.1" fill="#6BDBBF" transform="matrix(1.54, 0.00, -0.00, -1.54, 316.0, 111.4)">5</text><text xml:space="preserve" font-family="Helvetica,Helvetica" font-size="7.1" fill="#878AFF" transform="matrix(1.54, 0.00, -0.00, -1.54, 371.7, 104.4)">3</text><text xml:space="preserve" font-family="Helvetica,Helvetica" font-size="7.1" fill="#62C3EF" transform="matrix(1.54, 0.00, -0.00, -1.54, 371.7, 107.7)">4</text></g></g></g></g><g><clipPath id="clip0x6000092ae9a0"><path d="M 225.0 213.9 L 383.4 213.9 L 383.4 55.7 L 225.0 55.7 Z M 225.0 213.9 "></path></clipPath><g clip-path="url(#clip0x6000092ae9a0)"><g><clipPath id="clip0x6000092aeb20"><path d="M 1.9 1.9 L 649.6 1.9 L 649.6 244.9 L 1.9 244.9 Z M 1.9 1.9 "></path></clipPath><g clip-path="url(#clip0x6000092aeb20)"><path d="M 149.0 307.8 L 250.9 307.8 L 250.9 205.8 L 149.0 205.8 Z M 149.0 307.8 " fill="none" stroke="#7E7E7E" stroke-width="1.06" stroke-linecap="round" stroke-linejoin="round" transform="matrix(1.54, 0.00, 0.00, 1.54, -4.2, -259.7)"></path></g></g></g></g><g><clipPath id="clip0x6000092aed60"><path d="M 387.4 213.9 L 545.0 213.9 L 545.0 55.7 L 387.4 55.7 Z M 387.4 213.9 "></path></clipPath><g clip-path="url(#clip0x6000092aed60)"><g><clipPath id="clip0x6000092aeee0"><path d="M 1.9 1.9 L 649.6 1.9 L 649.6 244.9 L 1.9 244.9 Z M 1.9 1.9 "></path></clipPath><g clip-path="url(#clip0x6000092aeee0)"><path d="M 387.4 213.9 L 544.2 213.9 L 544.2 57.0 L 387.4 57.0 Z M 387.4 213.9 " fill="#FFFFFF"></path><path d="M 293.9 227.4 L 351.8 227.4 " fill="none" stroke="#878AFF" stroke-width="1.06" stroke-linejoin="round" transform="matrix(1.54, 0.00, 0.00, 1.54, -4.2, -259.7)"></path><path d="M 279.4 238.0 L 351.8 238.0 " fill="none" stroke="#62C3EF" stroke-width="1.06" stroke-linejoin="round" transform="matrix(1.54, 0.00, 0.00, 1.54, -4.2, -259.7)"></path><path d="M 269.1 252.7 L 315.6 252.7 " fill="none" stroke="#6BDBBF" stroke-width="1.06" stroke-linejoin="round" transform="matrix(1.54, 0.00, 0.00, 1.54, -4.2, -259.7)"></path><path d="M 259.2 268.4 L 293.9 268.4 " fill="none" stroke="#AEBF48" stroke-width="1.06" stroke-linejoin="round" transform="matrix(1.54, 0.00, 0.00, 1.54, -4.2, -259.7)"></path><path d="M 259.2 281.2 L 279.4 281.2 " fill="none" stroke="#D89533" stroke-width="1.06" stroke-linejoin="round" transform="matrix(1.54, 0.00, 0.00, 1.54, -4.2, -259.7)"></path><path d="M 259.2 289.7 L 269.1 289.7 " fill="none" stroke="#FF5252" stroke-width="1.06" stroke-linejoin="round" transform="matrix(1.54, 0.00, 0.00, 1.54, -4.2, -259.7)"></path><path d="M 293.9 227.4 L 351.8 227.4 " fill="none" stroke="#878AFF" stroke-width="1.06" stroke-linejoin="round" transform="matrix(1.54, 0.00, 0.00, 1.54, -4.2, -259.7)"></path><path d="M 279.4 238.0 L 351.8 238.0 " fill="none" stroke="#62C3EF" stroke-width="1.06" stroke-linejoin="round" transform="matrix(1.54, 0.00, 0.00, 1.54, -4.2, -259.7)"></path><path d="M 269.1 252.7 L 315.6 252.7 " fill="none" stroke="#6BDBBF" stroke-width="1.06" stroke-linejoin="round" transform="matrix(1.54, 0.00, 0.00, 1.54, -4.2, -259.7)"></path><path d="M 259.2 268.4 L 293.9 268.4 " fill="none" stroke="#AEBF48" stroke-width="1.06" stroke-linejoin="round" transform="matrix(1.54, 0.00, 0.00, 1.54, -4.2, -259.7)"></path><path d="M 259.2 281.2 L 279.4 281.2 " fill="none" stroke="#D89533" stroke-width="1.06" stroke-linejoin="round" transform="matrix(1.54, 0.00, 0.00, 1.54, -4.2, -259.7)"></path><path d="M 259.2 289.7 L 269.1 289.7 " fill="none" stroke="#FF5252" stroke-width="1.06" stroke-linejoin="round" transform="matrix(1.54, 0.00, 0.00, 1.54, -4.2, -259.7)"></path><path d="M 397.8 153.2 C 397.8 148.8 391.2 148.8 391.2 153.2 C 391.2 157.6 397.8 157.6 397.8 153.2 " fill="#FFFFFF"></path><path d="M 397.8 173.0 C 397.8 168.6 391.2 168.6 391.2 173.0 C 391.2 177.3 397.8 177.3 397.8 173.0 " fill="#FFFFFF"></path><path d="M 397.8 186.0 C 397.8 181.6 391.2 181.6 391.2 186.0 C 391.2 190.3 397.8 190.3 397.8 186.0 " fill="#FFFFFF"></path><path d="M 413.0 129.1 C 413.0 124.7 406.5 124.7 406.5 129.1 C 406.5 133.4 413.0 133.4 413.0 129.1 " fill="#FFFFFF"></path><path d="M 413.0 153.2 C 413.0 148.8 406.5 148.8 406.5 153.2 C 406.5 157.6 413.0 157.6 413.0 153.2 " fill="#FFFFFF"></path><path d="M 413.0 173.0 C 413.0 168.6 406.5 168.6 406.5 173.0 C 406.5 177.3 413.0 177.3 413.0 173.0 " fill="#FFFFFF"></path><path d="M 413.0 186.0 C 413.0 181.6 406.5 181.6 406.5 186.0 C 406.5 190.3 413.0 190.3 413.0 186.0 " fill="#FFFFFF"></path><path d="M 428.9 106.5 C 428.9 102.2 422.4 102.2 422.4 106.5 C 422.4 110.9 428.9 110.9 428.9 106.5 " fill="#FFFFFF"></path><path d="M 428.9 129.1 C 428.9 124.7 422.4 124.7 422.4 129.1 C 422.4 133.4 428.9 133.4 428.9 129.1 " fill="#FFFFFF"></path><path d="M 428.9 153.2 C 428.9 148.8 422.4 148.8 422.4 153.2 C 422.4 157.6 428.9 157.6 428.9 153.2 " fill="#FFFFFF"></path><path d="M 428.9 173.0 C 428.9 168.6 422.4 168.6 422.4 173.0 C 422.4 177.3 428.9 177.3 428.9 173.0 " fill="#FFFFFF"></path><path d="M 451.2 90.2 C 451.2 85.8 444.7 85.8 444.7 90.2 C 444.7 94.5 451.2 94.5 451.2 90.2 " fill="#FFFFFF"></path><path d="M 451.2 106.5 C 451.2 102.2 444.7 102.2 444.7 106.5 C 444.7 110.9 451.2 110.9 451.2 106.5 " fill="#FFFFFF"></path><path d="M 451.2 129.1 C 451.2 124.7 444.7 124.7 444.7 129.1 C 444.7 133.4 451.2 133.4 451.2 129.1 " fill="#FFFFFF"></path><path d="M 451.2 153.2 C 451.2 148.8 444.7 148.8 444.7 153.2 C 444.7 157.6 451.2 157.6 451.2 153.2 " fill="#FFFFFF"></path><path d="M 484.6 90.2 C 484.6 85.8 478.1 85.8 478.1 90.2 C 478.1 94.5 484.6 94.5 484.6 90.2 " fill="#FFFFFF"></path><path d="M 484.6 106.5 C 484.6 102.2 478.1 102.2 478.1 106.5 C 478.1 110.9 484.6 110.9 484.6 106.5 " fill="#FFFFFF"></path><path d="M 484.6 129.1 C 484.6 124.7 478.1 124.7 478.1 129.1 C 478.1 133.4 484.6 133.4 484.6 129.1 " fill="#FFFFFF"></path><path d="M 540.3 90.2 C 540.3 85.8 533.8 85.8 533.8 90.2 C 533.8 94.5 540.3 94.5 540.3 90.2 " fill="#FFFFFF"></path><path d="M 540.3 106.5 C 540.3 102.2 533.8 102.2 533.8 106.5 C 533.8 110.9 540.3 110.9 540.3 106.5 " fill="#FFFFFF"></path><path d="M 448.0 93.7 L 481.4 93.7 L 537.1 94.6 L 537.1 85.8 L 481.4 86.6 L 448.0 86.6 Z M 448.0 93.7 " fill="#878AFF" fill-opacity="0.20"></path><path d="M 425.7 110.7 L 448.0 110.7 L 481.4 110.7 L 537.1 113.0 L 537.1 100.1 L 481.4 102.4 L 448.0 102.4 L 425.7 102.4 Z M 425.7 110.7 " fill="#62C3EF" fill-opacity="0.20"></path><path d="M 409.8 133.3 L 481.4 133.3 L 481.4 124.9 L 409.8 124.9 Z M 409.8 133.3 " fill="#6BDBBF" fill-opacity="0.20"></path><path d="M 394.5 157.5 L 409.8 157.0 L 448.0 157.0 L 448.0 149.4 L 409.8 149.4 L 394.5 148.9 Z M 394.5 157.5 " fill="#AEBF48" fill-opacity="0.20"></path><path d="M 394.5 176.1 L 425.7 176.1 L 425.7 169.9 L 409.8 169.9 L 394.5 169.9 Z M 394.5 176.1 " fill="#D89533" fill-opacity="0.20"></path><path d="M 394.5 189.1 L 409.8 188.3 L 409.8 183.6 L 394.5 182.9 Z M 394.5 189.1 " fill="#FF5252" fill-opacity="0.20"></path><text xml:space="preserve" font-family="Helvetica,Helvetica" font-size="7.1" fill="#AEBF48" transform="matrix(1.54, 0.00, -0.00, -1.54, 391.5, 149.3)">6</text><text xml:space="preserve" font-family="Helvetica,Helvetica" font-size="7.1" fill="#D89533" transform="matrix(1.54, 0.00, -0.00, -1.54, 391.5, 169.1)">7</text><text xml:space="preserve" font-family="Helvetica,Helvetica" font-size="7.1" fill="#FF5252" transform="matrix(1.54, 0.00, -0.00, -1.54, 391.5, 182.0)">8</text><text xml:space="preserve" font-family="Helvetica,Helvetica" font-size="7.1" fill="#6BDBBF" transform="matrix(1.54, 0.00, -0.00, -1.54, 406.7, 125.2)">5</text><text xml:space="preserve" font-family="Helvetica,Helvetica" font-size="7.1" fill="#AEBF48" transform="matrix(1.54, 0.00, -0.00, -1.54, 406.7, 149.3)">6</text><text xml:space="preserve" font-family="Helvetica,Helvetica" font-size="7.1" fill="#D89533" transform="matrix(1.54, 0.00, -0.00, -1.54, 406.7, 169.1)">7</text><text xml:space="preserve" font-family="Helvetica,Helvetica" font-size="7.1" fill="#FF5252" transform="matrix(1.54, 0.00, -0.00, -1.54, 406.7, 182.0)">8</text><text xml:space="preserve" font-family="Helvetica,Helvetica" font-size="7.1" fill="#62C3EF" transform="matrix(1.54, 0.00, -0.00, -1.54, 422.6, 102.6)">4</text><text xml:space="preserve" font-family="Helvetica,Helvetica" font-size="7.1" fill="#6BDBBF" transform="matrix(1.54, 0.00, -0.00, -1.54, 422.6, 125.2)">5</text><text xml:space="preserve" font-family="Helvetica,Helvetica" font-size="7.1" fill="#AEBF48" transform="matrix(1.54, 0.00, -0.00, -1.54, 422.6, 149.3)">6</text><text xml:space="preserve" font-family="Helvetica,Helvetica" font-size="7.1" fill="#D89533" transform="matrix(1.54, 0.00, -0.00, -1.54, 422.6, 169.1)">7</text><text xml:space="preserve" font-family="Helvetica,Helvetica" font-size="7.1" fill="#878AFF" transform="matrix(1.54, 0.00, -0.00, -1.54, 444.9, 86.3)">3</text><text xml:space="preserve" font-family="Helvetica,Helvetica" font-size="7.1" fill="#62C3EF" transform="matrix(1.54, 0.00, -0.00, -1.54, 444.9, 102.6)">4</text><text xml:space="preserve" font-family="Helvetica,Helvetica" font-size="7.1" fill="#6BDBBF" transform="matrix(1.54, 0.00, -0.00, -1.54, 444.9, 125.2)">5</text><text xml:space="preserve" font-family="Helvetica,Helvetica" font-size="7.1" fill="#AEBF48" transform="matrix(1.54, 0.00, -0.00, -1.54, 444.9, 149.3)">6</text><text xml:space="preserve" font-family="Helvetica,Helvetica" font-size="7.1" fill="#878AFF" transform="matrix(1.54, 0.00, -0.00, -1.54, 478.3, 86.3)">3</text><text xml:space="preserve" font-family="Helvetica,Helvetica" font-size="7.1" fill="#62C3EF" transform="matrix(1.54, 0.00, -0.00, -1.54, 478.3, 102.6)">4</text><text xml:space="preserve" font-family="Helvetica,Helvetica" font-size="7.1" fill="#6BDBBF" transform="matrix(1.54, 0.00, -0.00, -1.54, 478.3, 125.2)">5</text><text xml:space="preserve" font-family="Helvetica,Helvetica" font-size="7.1" fill="#878AFF" transform="matrix(1.54, 0.00, -0.00, -1.54, 534.0, 86.3)">3</text><text xml:space="preserve" font-family="Helvetica,Helvetica" font-size="7.1" fill="#62C3EF" transform="matrix(1.54, 0.00, -0.00, -1.54, 534.0, 102.6)">4</text></g></g></g></g><g><clipPath id="clip0x6000092b0e60"><path d="M 387.4 213.9 L 545.7 213.9 L 545.7 55.7 L 387.4 55.7 Z M 387.4 213.9 "></path></clipPath><g clip-path="url(#clip0x6000092b0e60)"><g><clipPath id="clip0x6000092b0fe0"><path d="M 1.9 1.9 L 649.6 1.9 L 649.6 244.9 L 1.9 244.9 Z M 1.9 1.9 "></path></clipPath><g clip-path="url(#clip0x6000092b0fe0)"><path d="M 254.5 307.8 L 356.5 307.8 L 356.5 205.8 L 254.5 205.8 Z M 254.5 307.8 " fill="none" stroke="#7E7E7E" stroke-width="1.06" stroke-linecap="round" stroke-linejoin="round" transform="matrix(1.54, 0.00, 0.00, 1.54, -4.2, -259.7)"></path></g></g></g></g><g><clipPath id="clip0x6000092b1220"><path d="M 1.9 1.9 L 649.6 1.9 L 649.6 244.9 L 1.9 244.9 Z M 1.9 1.9 "></path></clipPath><g clip-path="url(#clip0x6000092b1220)"><text xml:space="preserve" font-family="Helvetica,Helvetica" font-size="9.6" fill="#000000" transform="matrix(1.54, 0.00, -0.00, -1.54, 31.2, 64.8)">0</text><text xml:space="preserve" font-family="Helvetica,Helvetica" font-size="9.6" fill="#000000" transform="matrix(1.54, 0.00, -0.00, -1.54, 39.4, 64.8)">.</text><text xml:space="preserve" font-family="Helvetica,Helvetica" font-size="9.6" fill="#000000" transform="matrix(1.54, 0.00, -0.00, -1.54, 43.5, 64.8)">0</text><text xml:space="preserve" font-family="Helvetica,Helvetica" font-size="9.6" fill="#000000" transform="matrix(1.54, 0.00, -0.00, -1.54, 31.2, 130.1)">0</text><text xml:space="preserve" font-family="Helvetica,Helvetica" font-size="9.6" fill="#000000" transform="matrix(1.54, 0.00, -0.00, -1.54, 39.4, 130.1)">.</text><text xml:space="preserve" font-family="Helvetica,Helvetica" font-size="9.6" fill="#000000" transform="matrix(1.54, 0.00, -0.00, -1.54, 43.5, 130.1)">5</text><text xml:space="preserve" font-family="Helvetica,Helvetica" font-size="9.6" fill="#000000" transform="matrix(1.54, 0.00, -0.00, -1.54, 31.2, 195.5)">1</text><text xml:space="preserve" font-family="Helvetica,Helvetica" font-size="9.6" fill="#000000" transform="matrix(1.54, 0.00, -0.00, -1.54, 39.4, 195.5)">.</text><text xml:space="preserve" font-family="Helvetica,Helvetica" font-size="9.6" fill="#000000" transform="matrix(1.54, 0.00, -0.00, -1.54, 43.5, 195.5)">0</text><path d="M 39.2 214.3 L 43.4 214.3 " fill="none" stroke="#000000" stroke-width="1.06" stroke-linejoin="round" transform="matrix(1.54, 0.00, 0.00, 1.54, -4.2, -259.7)"></path><path d="M 39.2 256.8 L 43.4 256.8 " fill="none" stroke="#000000" stroke-width="1.06" stroke-linejoin="round" transform="matrix(1.54, 0.00, 0.00, 1.54, -4.2, -259.7)"></path><path d="M 39.2 299.3 L 43.4 299.3 " fill="none" stroke="#000000" stroke-width="1.06" stroke-linejoin="round" transform="matrix(1.54, 0.00, 0.00, 1.54, -4.2, -259.7)"></path><text xml:space="preserve" font-family="Helvetica,Helvetica" font-size="8.0" fill="#000000" transform="matrix(1.54, 0.00, -0.00, -1.54, 549.7, 137.7)">F</text><text xml:space="preserve" font-family="Helvetica,Helvetica" font-size="8.0" fill="#000000" transform="matrix(1.54, 0.00, -0.00, -1.54, 557.2, 137.7)">i</text><text xml:space="preserve" font-family="Helvetica,Helvetica" font-size="8.0" fill="#000000" transform="matrix(1.54, 0.00, -0.00, -1.54, 560.0, 137.7)">r</text><text xml:space="preserve" font-family="Helvetica,Helvetica" font-size="8.0" fill="#000000" transform="matrix(1.54, 0.00, -0.00, -1.54, 564.1, 137.7)">s</text><text xml:space="preserve" font-family="Helvetica,Helvetica" font-size="8.0" fill="#000000" transform="matrix(1.54, 0.00, -0.00, -1.54, 570.2, 137.7)">t</text><text xml:space="preserve" font-family="Helvetica,Helvetica" font-size="8.0" fill="#000000" transform="matrix(1.54, 0.00, -0.00, -1.54, 573.6, 137.7)"> </text><text xml:space="preserve" font-family="Helvetica,Helvetica" font-size="8.0" fill="#000000" transform="matrix(1.54, 0.00, -0.00, -1.54, 577.0, 137.7)">o</text><text xml:space="preserve" font-family="Helvetica,Helvetica" font-size="8.0" fill="#000000" transform="matrix(1.54, 0.00, -0.00, -1.54, 583.9, 137.7)">r</text><text xml:space="preserve" font-family="Helvetica,Helvetica" font-size="8.0" fill="#000000" transform="matrix(1.54, 0.00, -0.00, -1.54, 588.0, 137.7)">d</text><text xml:space="preserve" font-family="Helvetica,Helvetica" font-size="8.0" fill="#000000" transform="matrix(1.54, 0.00, -0.00, -1.54, 594.8, 137.7)">e</text><text xml:space="preserve" font-family="Helvetica,Helvetica" font-size="8.0" fill="#000000" transform="matrix(1.54, 0.00, -0.00, -1.54, 601.7, 137.7)">r</text><text xml:space="preserve" font-family="Helvetica,Helvetica" font-size="8.0" fill="#000000" transform="matrix(1.54, 0.00, -0.00, -1.54, 605.8, 137.7)"> </text><text xml:space="preserve" font-family="Helvetica,Helvetica" font-size="8.0" fill="#000000" transform="matrix(1.54, 0.00, -0.00, -1.54, 609.2, 137.7)">g</text><text xml:space="preserve" font-family="Helvetica,Helvetica" font-size="8.0" fill="#000000" transform="matrix(1.54, 0.00, -0.00, -1.54, 616.0, 137.7)">l</text><text xml:space="preserve" font-family="Helvetica,Helvetica" font-size="8.0" fill="#000000" transform="matrix(1.54, 0.00, -0.00, -1.54, 618.8, 137.7)">o</text><text xml:space="preserve" font-family="Helvetica,Helvetica" font-size="8.0" fill="#000000" transform="matrix(1.54, 0.00, -0.00, -1.54, 625.6, 137.7)">b</text><text xml:space="preserve" font-family="Helvetica,Helvetica" font-size="8.0" fill="#000000" transform="matrix(1.54, 0.00, -0.00, -1.54, 632.5, 137.7)">a</text><text xml:space="preserve" font-family="Helvetica,Helvetica" font-size="8.0" fill="#000000" transform="matrix(1.54, 0.00, -0.00, -1.54, 639.3, 137.7)">l</text><text xml:space="preserve" font-family="Helvetica,Helvetica" font-size="8.0" fill="#000000" transform="matrix(1.54, 0.00, -0.00, -1.54, 555.9, 124.4)">P</text><text xml:space="preserve" font-family="Helvetica,Helvetica" font-size="8.0" fill="#000000" transform="matrix(1.54, 0.00, -0.00, -1.54, 564.1, 124.4)">o</text><text xml:space="preserve" font-family="Helvetica,Helvetica" font-size="8.0" fill="#000000" transform="matrix(1.54, 0.00, -0.00, -1.54, 570.9, 124.4)">s</text><text xml:space="preserve" font-family="Helvetica,Helvetica" font-size="8.0" fill="#000000" transform="matrix(1.54, 0.00, -0.00, -1.54, 577.1, 124.4)">i</text><text xml:space="preserve" font-family="Helvetica,Helvetica" font-size="8.0" fill="#000000" transform="matrix(1.54, 0.00, -0.00, -1.54, 579.8, 124.4)">t</text><text xml:space="preserve" font-family="Helvetica,Helvetica" font-size="8.0" fill="#000000" transform="matrix(1.54, 0.00, -0.00, -1.54, 583.2, 124.4)">i</text><text xml:space="preserve" font-family="Helvetica,Helvetica" font-size="8.0" fill="#000000" transform="matrix(1.54, 0.00, -0.00, -1.54, 586.0, 124.4)">o</text><text xml:space="preserve" font-family="Helvetica,Helvetica" font-size="8.0" fill="#000000" transform="matrix(1.54, 0.00, -0.00, -1.54, 592.8, 124.4)">n</text><text xml:space="preserve" font-family="Helvetica,Helvetica" font-size="8.0" fill="#000000" transform="matrix(1.54, 0.00, -0.00, -1.54, 599.6, 124.4)"> </text><text xml:space="preserve" font-family="Helvetica,Helvetica" font-size="8.0" fill="#000000" transform="matrix(1.54, 0.00, -0.00, -1.54, 603.1, 124.4)">g</text><text xml:space="preserve" font-family="Helvetica,Helvetica" font-size="8.0" fill="#000000" transform="matrix(1.54, 0.00, -0.00, -1.54, 609.9, 124.4)">l</text><text xml:space="preserve" font-family="Helvetica,Helvetica" font-size="8.0" fill="#000000" transform="matrix(1.54, 0.00, -0.00, -1.54, 612.6, 124.4)">o</text><text xml:space="preserve" font-family="Helvetica,Helvetica" font-size="8.0" fill="#000000" transform="matrix(1.54, 0.00, -0.00, -1.54, 619.5, 124.4)">b</text><text xml:space="preserve" font-family="Helvetica,Helvetica" font-size="8.0" fill="#000000" transform="matrix(1.54, 0.00, -0.00, -1.54, 626.3, 124.4)">a</text><text xml:space="preserve" font-family="Helvetica,Helvetica" font-size="8.0" fill="#000000" transform="matrix(1.54, 0.00, -0.00, -1.54, 633.2, 124.4)">l</text><path d="M 58.2 201.6 L 58.2 205.8 " fill="none" stroke="#000000" stroke-width="1.06" stroke-linejoin="round" transform="matrix(1.54, 0.00, 0.00, 1.54, -4.2, -259.7)"></path><path d="M 89.3 201.6 L 89.3 205.8 " fill="none" stroke="#000000" stroke-width="1.06" stroke-linejoin="round" transform="matrix(1.54, 0.00, 0.00, 1.54, -4.2, -259.7)"></path><path d="M 120.4 201.6 L 120.4 205.8 " fill="none" stroke="#000000" stroke-width="1.06" stroke-linejoin="round" transform="matrix(1.54, 0.00, 0.00, 1.54, -4.2, -259.7)"></path><text xml:space="preserve" font-family="Helvetica,Helvetica" font-size="9.6" fill="#000000" transform="matrix(1.54, 0.00, -0.00, -1.54, 81.2, 35.5)">2</text><text xml:space="preserve" font-family="Helvetica,Helvetica" font-size="9.6" fill="#000000" transform="matrix(1.54, 0.00, -0.00, -1.54, 129.0, 35.5)">3</text><text xml:space="preserve" font-family="Helvetica,Helvetica" font-size="9.6" fill="#000000" transform="matrix(1.54, 0.00, -0.00, -1.54, 176.9, 35.5)">4</text><path d="M 163.7 201.6 L 163.7 205.8 " fill="none" stroke="#000000" stroke-width="1.06" stroke-linejoin="round" transform="matrix(1.54, 0.00, 0.00, 1.54, -4.2, -259.7)"></path><path d="M 194.8 201.6 L 194.8 205.8 " fill="none" stroke="#000000" stroke-width="1.06" stroke-linejoin="round" transform="matrix(1.54, 0.00, 0.00, 1.54, -4.2, -259.7)"></path><path d="M 225.9 201.6 L 225.9 205.8 " fill="none" stroke="#000000" stroke-width="1.06" stroke-linejoin="round" transform="matrix(1.54, 0.00, 0.00, 1.54, -4.2, -259.7)"></path><text xml:space="preserve" font-family="Helvetica,Helvetica" font-size="9.6" fill="#000000" transform="matrix(1.54, 0.00, -0.00, -1.54, 243.5, 35.5)">2</text><text xml:space="preserve" font-family="Helvetica,Helvetica" font-size="9.6" fill="#000000" transform="matrix(1.54, 0.00, -0.00, -1.54, 291.4, 35.5)">3</text><text xml:space="preserve" font-family="Helvetica,Helvetica" font-size="9.6" fill="#000000" transform="matrix(1.54, 0.00, -0.00, -1.54, 339.3, 35.5)">4</text><path d="M 269.3 201.6 L 269.3 205.8 " fill="none" stroke="#000000" stroke-width="1.06" stroke-linejoin="round" transform="matrix(1.54, 0.00, 0.00, 1.54, -4.2, -259.7)"></path><path d="M 300.4 201.6 L 300.4 205.8 " fill="none" stroke="#000000" stroke-width="1.06" stroke-linejoin="round" transform="matrix(1.54, 0.00, 0.00, 1.54, -4.2, -259.7)"></path><path d="M 331.5 201.6 L 331.5 205.8 " fill="none" stroke="#000000" stroke-width="1.06" stroke-linejoin="round" transform="matrix(1.54, 0.00, 0.00, 1.54, -4.2, -259.7)"></path><text xml:space="preserve" font-family="Helvetica,Helvetica" font-size="9.6" fill="#000000" transform="matrix(1.54, 0.00, -0.00, -1.54, 405.9, 35.5)">2</text><text xml:space="preserve" font-family="Helvetica,Helvetica" font-size="9.6" fill="#000000" transform="matrix(1.54, 0.00, -0.00, -1.54, 453.8, 35.5)">3</text><text xml:space="preserve" font-family="Helvetica,Helvetica" font-size="9.6" fill="#000000" transform="matrix(1.54, 0.00, -0.00, -1.54, 501.6, 35.5)">4</text><text xml:space="preserve" font-family="Helvetica,Helvetica" font-size="12.0" fill="#000000" transform="matrix(1.54, 0.00, -0.00, -1.54, 270.0, 16.7)">S</text><text xml:space="preserve" font-family="Helvetica,Helvetica" font-size="12.0" fill="#000000" transform="matrix(1.54, 0.00, -0.00, -1.54, 282.3, 16.7)">p</text><text xml:space="preserve" font-family="Helvetica,Helvetica" font-size="12.0" fill="#000000" transform="matrix(1.54, 0.00, -0.00, -1.54, 292.6, 16.7)">a</text><text xml:space="preserve" font-family="Helvetica,Helvetica" font-size="12.0" fill="#000000" transform="matrix(1.54, 0.00, -0.00, -1.54, 302.9, 16.7)">c</text><text xml:space="preserve" font-family="Helvetica,Helvetica" font-size="12.0" fill="#000000" transform="matrix(1.54, 0.00, -0.00, -1.54, 312.1, 16.7)">i</text><text xml:space="preserve" font-family="Helvetica,Helvetica" font-size="12.0" fill="#000000" transform="matrix(1.54, 0.00, -0.00, -1.54, 316.2, 16.7)">n</text><text xml:space="preserve" font-family="Helvetica,Helvetica" font-size="12.0" fill="#000000" transform="matrix(1.54, 0.00, -0.00, -1.54, 326.5, 16.7)">g</text><text xml:space="preserve" font-family="Helvetica,Helvetica" font-size="12.0" fill="#000000" transform="matrix(0.00, 1.54, 1.54, -0.00, 25.6, 63.6)">P</text><text xml:space="preserve" font-family="Helvetica,Helvetica" font-size="12.0" fill="#000000" transform="matrix(0.00, 1.54, 1.54, -0.00, 37.9, 63.6)">(</text><text xml:space="preserve" font-family="Helvetica,Helvetica" font-size="12.0" fill="#000000" transform="matrix(0.00, 1.54, 1.54, -0.00, 44.1, 63.6)">R</text><text xml:space="preserve" font-family="Helvetica,Helvetica" font-size="12.0" fill="#000000" transform="matrix(0.00, 1.54, 1.54, -0.00, 57.4, 63.6)">e</text><text xml:space="preserve" font-family="Helvetica,Helvetica" font-size="12.0" fill="#000000" transform="matrix(0.00, 1.54, 1.54, -0.00, 67.7, 63.6)">s</text><text xml:space="preserve" font-family="Helvetica,Helvetica" font-size="12.0" fill="#000000" transform="matrix(0.00, 1.54, 1.54, -0.00, 76.9, 63.6)">p</text><text xml:space="preserve" font-family="Helvetica,Helvetica" font-size="12.0" fill="#000000" transform="matrix(0.00, 1.54, 1.54, -0.00, 87.2, 63.6)">o</text><text xml:space="preserve" font-family="Helvetica,Helvetica" font-size="12.0" fill="#000000" transform="matrix(0.00, 1.54, 1.54, -0.00, 97.4, 63.6)">n</text><text xml:space="preserve" font-family="Helvetica,Helvetica" font-size="12.0" fill="#000000" transform="matrix(0.00, 1.54, 1.54, -0.00, 107.7, 63.6)">s</text><text xml:space="preserve" font-family="Helvetica,Helvetica" font-size="12.0" fill="#000000" transform="matrix(0.00, 1.54, 1.54, -0.00, 116.9, 63.6)">e</text><text xml:space="preserve" font-family="Helvetica,Helvetica" font-size="12.0" fill="#000000" transform="matrix(0.00, 1.54, 1.54, -0.00, 127.2, 63.6)"> </text><text xml:space="preserve" font-family="Helvetica,Helvetica" font-size="12.0" fill="#000000" transform="matrix(0.00, 1.54, 1.54, -0.00, 132.3, 63.6)">C</text><text xml:space="preserve" font-family="Helvetica,Helvetica" font-size="12.0" fill="#000000" transform="matrix(0.00, 1.54, 1.54, -0.00, 145.7, 63.6)">W</text><text xml:space="preserve" font-family="Helvetica,Helvetica" font-size="12.0" fill="#000000" transform="matrix(0.00, 1.54, 1.54, -0.00, 163.1, 63.6)">)</text><path d="M 663.1 238.3 L 733.6 238.3 L 733.6 32.5 L 663.1 32.5 Z M 663.1 238.3 " fill="#FFFFFF"></path><text xml:space="preserve" font-family="Helvetica,Helvetica" font-size="9.6" fill="#000000" transform="matrix(1.54, 0.00, -0.00, -1.54, 669.6, 221.2)">E</text><text xml:space="preserve" font-family="Helvetica,Helvetica" font-size="9.6" fill="#000000" transform="matrix(1.54, 0.00, -0.00, -1.54, 679.4, 221.2)">l</text><text xml:space="preserve" font-family="Helvetica,Helvetica" font-size="9.6" fill="#000000" transform="matrix(1.54, 0.00, -0.00, -1.54, 682.7, 221.2)">e</text><text xml:space="preserve" font-family="Helvetica,Helvetica" font-size="9.6" fill="#000000" transform="matrix(1.54, 0.00, -0.00, -1.54, 690.9, 221.2)">m</text><text xml:space="preserve" font-family="Helvetica,Helvetica" font-size="9.6" fill="#000000" transform="matrix(1.54, 0.00, -0.00, -1.54, 703.2, 221.2)">e</text><text xml:space="preserve" font-family="Helvetica,Helvetica" font-size="9.6" fill="#000000" transform="matrix(1.54, 0.00, -0.00, -1.54, 711.4, 221.2)">n</text><text xml:space="preserve" font-family="Helvetica,Helvetica" font-size="9.6" fill="#000000" transform="matrix(1.54, 0.00, -0.00, -1.54, 719.6, 221.2)">t</text><text xml:space="preserve" font-family="Helvetica,Helvetica" font-size="9.6" fill="#000000" transform="matrix(1.54, 0.00, -0.00, -1.54, 669.6, 205.2)">n</text><text xml:space="preserve" font-family="Helvetica,Helvetica" font-size="9.6" fill="#000000" transform="matrix(1.54, 0.00, -0.00, -1.54, 677.8, 205.2)">u</text><text xml:space="preserve" font-family="Helvetica,Helvetica" font-size="9.6" fill="#000000" transform="matrix(1.54, 0.00, -0.00, -1.54, 686.0, 205.2)">m</text><text xml:space="preserve" font-family="Helvetica,Helvetica" font-size="9.6" fill="#000000" transform="matrix(1.54, 0.00, -0.00, -1.54, 698.3, 205.2)">b</text><text xml:space="preserve" font-family="Helvetica,Helvetica" font-size="9.6" fill="#000000" transform="matrix(1.54, 0.00, -0.00, -1.54, 706.5, 205.2)">e</text><text xml:space="preserve" font-family="Helvetica,Helvetica" font-size="9.6" fill="#000000" transform="matrix(1.54, 0.00, -0.00, -1.54, 714.7, 205.2)">r</text><path d="M 438.0 297.9 L 455.3 297.9 L 455.3 280.6 L 438.0 280.6 Z M 438.0 297.9 " fill="#FFFFFF" stroke="#CCCCCC" stroke-width="1.06" stroke-linecap="round" stroke-linejoin="round" transform="matrix(1.54, 0.00, 0.00, 1.54, -4.2, -259.7)"></path><path d="M 439.7 289.2 L 453.5 289.2 " fill="none" stroke="#878AFF" stroke-width="1.06" stroke-linejoin="round" transform="matrix(1.54, 0.00, 0.00, 1.54, -4.2, -259.7)"></path><path d="M 439.7 289.2 L 453.5 289.2 " fill="none" stroke="#878AFF" stroke-width="1.06" stroke-linejoin="round" transform="matrix(1.54, 0.00, 0.00, 1.54, -4.2, -259.7)"></path><path d="M 686.2 185.3 C 686.2 180.9 679.6 180.9 679.6 185.3 C 679.6 189.6 686.2 189.6 686.2 185.3 " fill="#FFFFFF"></path><path d="M 669.6 198.6 L 696.2 198.6 L 696.2 172.0 L 669.6 172.0 Z M 669.6 198.6 " fill="#878AFF" fill-opacity="0.20"></path><text xml:space="preserve" font-family="Helvetica,Helvetica" font-size="7.1" fill="#878AFF" transform="matrix(1.54, 0.00, -0.00, -1.54, 679.9, 181.4)">a</text><path d="M 438.0 280.6 L 455.3 280.6 L 455.3 263.3 L 438.0 263.3 Z M 438.0 280.6 " fill="#FFFFFF" stroke="#CCCCCC" stroke-width="1.06" stroke-linecap="round" stroke-linejoin="round" transform="matrix(1.54, 0.00, 0.00, 1.54, -4.2, -259.7)"></path><path d="M 439.7 271.9 L 453.5 271.9 " fill="none" stroke="#62C3EF" stroke-width="1.06" stroke-linejoin="round" transform="matrix(1.54, 0.00, 0.00, 1.54, -4.2, -259.7)"></path><path d="M 439.7 271.9 L 453.5 271.9 " fill="none" stroke="#62C3EF" stroke-width="1.06" stroke-linejoin="round" transform="matrix(1.54, 0.00, 0.00, 1.54, -4.2, -259.7)"></path><path d="M 686.2 158.7 C 686.2 154.3 679.6 154.3 679.6 158.7 C 679.6 163.1 686.2 163.1 686.2 158.7 " fill="#FFFFFF"></path><path d="M 669.6 172.0 L 696.2 172.0 L 696.2 145.4 L 669.6 145.4 Z M 669.6 172.0 " fill="#62C3EF" fill-opacity="0.20"></path><text xml:space="preserve" font-family="Helvetica,Helvetica" font-size="7.1" fill="#62C3EF" transform="matrix(1.54, 0.00, -0.00, -1.54, 679.9, 154.8)">a</text><path d="M 438.0 263.3 L 455.3 263.3 L 455.3 246.0 L 438.0 246.0 Z M 438.0 263.3 " fill="#FFFFFF" stroke="#CCCCCC" stroke-width="1.06" stroke-linecap="round" stroke-linejoin="round" transform="matrix(1.54, 0.00, 0.00, 1.54, -4.2, -259.7)"></path><path d="M 439.7 254.7 L 453.5 254.7 " fill="none" stroke="#6BDBBF" stroke-width="1.06" stroke-linejoin="round" transform="matrix(1.54, 0.00, 0.00, 1.54, -4.2, -259.7)"></path><path d="M 439.7 254.7 L 453.5 254.7 " fill="none" stroke="#6BDBBF" stroke-width="1.06" stroke-linejoin="round" transform="matrix(1.54, 0.00, 0.00, 1.54, -4.2, -259.7)"></path><path d="M 686.2 132.1 C 686.2 127.8 679.6 127.8 679.6 132.1 C 679.6 136.5 686.2 136.5 686.2 132.1 " fill="#FFFFFF"></path><path d="M 669.6 145.4 L 696.2 145.4 L 696.2 118.8 L 669.6 118.8 Z M 669.6 145.4 " fill="#6BDBBF" fill-opacity="0.20"></path><text xml:space="preserve" font-family="Helvetica,Helvetica" font-size="7.1" fill="#6BDBBF" transform="matrix(1.54, 0.00, -0.00, -1.54, 679.9, 128.2)">a</text><path d="M 438.0 246.0 L 455.3 246.0 L 455.3 228.7 L 438.0 228.7 Z M 438.0 246.0 " fill="#FFFFFF" stroke="#CCCCCC" stroke-width="1.06" stroke-linecap="round" stroke-linejoin="round" transform="matrix(1.54, 0.00, 0.00, 1.54, -4.2, -259.7)"></path><path d="M 439.7 237.4 L 453.5 237.4 " fill="none" stroke="#AEBF48" stroke-width="1.06" stroke-linejoin="round" transform="matrix(1.54, 0.00, 0.00, 1.54, -4.2, -259.7)"></path><path d="M 439.7 237.4 L 453.5 237.4 " fill="none" stroke="#AEBF48" stroke-width="1.06" stroke-linejoin="round" transform="matrix(1.54, 0.00, 0.00, 1.54, -4.2, -259.7)"></path><path d="M 686.2 105.5 C 686.2 101.2 679.6 101.2 679.6 105.5 C 679.6 109.9 686.2 109.9 686.2 105.5 " fill="#FFFFFF"></path><path d="M 669.6 118.8 L 696.2 118.8 L 696.2 92.2 L 669.6 92.2 Z M 669.6 118.8 " fill="#AEBF48" fill-opacity="0.20"></path><text xml:space="preserve" font-family="Helvetica,Helvetica" font-size="7.1" fill="#AEBF48" transform="matrix(1.54, 0.00, -0.00, -1.54, 679.9, 101.6)">a</text><path d="M 438.0 228.7 L 455.3 228.7 L 455.3 211.5 L 438.0 211.5 Z M 438.0 228.7 " fill="#FFFFFF" stroke="#CCCCCC" stroke-width="1.06" stroke-linecap="round" stroke-linejoin="round" transform="matrix(1.54, 0.00, 0.00, 1.54, -4.2, -259.7)"></path><path d="M 439.7 220.1 L 453.5 220.1 " fill="none" stroke="#D89533" stroke-width="1.06" stroke-linejoin="round" transform="matrix(1.54, 0.00, 0.00, 1.54, -4.2, -259.7)"></path><path d="M 439.7 220.1 L 453.5 220.1 " fill="none" stroke="#D89533" stroke-width="1.06" stroke-linejoin="round" transform="matrix(1.54, 0.00, 0.00, 1.54, -4.2, -259.7)"></path><path d="M 686.2 78.9 C 686.2 74.6 679.6 74.6 679.6 78.9 C 679.6 83.3 686.2 83.3 686.2 78.9 " fill="#FFFFFF"></path><path d="M 669.6 92.2 L 696.2 92.2 L 696.2 65.7 L 669.6 65.7 Z M 669.6 92.2 " fill="#D89533" fill-opacity="0.20"></path><text xml:space="preserve" font-family="Helvetica,Helvetica" font-size="7.1" fill="#D89533" transform="matrix(1.54, 0.00, -0.00, -1.54, 679.9, 75.0)">a</text><path d="M 438.0 211.5 L 455.3 211.5 L 455.3 194.2 L 438.0 194.2 Z M 438.0 211.5 " fill="#FFFFFF" stroke="#CCCCCC" stroke-width="1.06" stroke-linecap="round" stroke-linejoin="round" transform="matrix(1.54, 0.00, 0.00, 1.54, -4.2, -259.7)"></path><path d="M 439.7 202.8 L 453.5 202.8 " fill="none" stroke="#FF5252" stroke-width="1.06" stroke-linejoin="round" transform="matrix(1.54, 0.00, 0.00, 1.54, -4.2, -259.7)"></path><path d="M 439.7 202.8 L 453.5 202.8 " fill="none" stroke="#FF5252" stroke-width="1.06" stroke-linejoin="round" transform="matrix(1.54, 0.00, 0.00, 1.54, -4.2, -259.7)"></path><path d="M 686.2 52.4 C 686.2 48.0 679.6 48.0 679.6 52.4 C 679.6 56.7 686.2 56.7 686.2 52.4 " fill="#FFFFFF"></path><path d="M 669.6 65.7 L 696.2 65.7 L 696.2 39.1 L 669.6 39.1 Z M 669.6 65.7 " fill="#FF5252" fill-opacity="0.20"></path><text xml:space="preserve" font-family="Helvetica,Helvetica" font-size="7.1" fill="#FF5252" transform="matrix(1.54, 0.00, -0.00, -1.54, 679.9, 48.4)">a</text><text xml:space="preserve" font-family="Helvetica,Helvetica" font-size="9.6" fill="#000000" transform="matrix(1.54, 0.00, -0.00, -1.54, 699.5, 180.0)">3</text><text xml:space="preserve" font-family="Helvetica,Helvetica" font-size="9.6" fill="#000000" transform="matrix(1.54, 0.00, -0.00, -1.54, 699.5, 153.4)">4</text><text xml:space="preserve" font-family="Helvetica,Helvetica" font-size="9.6" fill="#000000" transform="matrix(1.54, 0.00, -0.00, -1.54, 699.5, 126.8)">5</text><text xml:space="preserve" font-family="Helvetica,Helvetica" font-size="9.6" fill="#000000" transform="matrix(1.54, 0.00, -0.00, -1.54, 699.5, 100.2)">6</text><text xml:space="preserve" font-family="Helvetica,Helvetica" font-size="9.6" fill="#000000" transform="matrix(1.54, 0.00, -0.00, -1.54, 699.5, 73.7)">7</text><text xml:space="preserve" font-family="Helvetica,Helvetica" font-size="9.6" fill="#000000" transform="matrix(1.54, 0.00, -0.00, -1.54, 699.5, 47.1)">8</text></g></g></g></svg>