<?xml version="1.0" encoding="UTF-8" standalone="no"?><svg xmlns="http://www.w3.org/2000/svg" xmlns:xlink="http://www.w3.org/1999/xlink" clip-rule="evenodd" stroke-miterlimit="10" viewBox="0 0 230 71"><desc>SVG generated by Keynote</desc><defs></defs><g transform="matrix(1.00, 0.00, -0.00, -1.00, 0.0, 71.0)"><text xml:space="preserve" font-family="GillSans-Light,Gill Sans" font-size="32.0" fill="#FEFFFE" transform="matrix(1.00, 0.00, -0.00, -1.00, 1.7, 47.3)">m</text><text xml:space="preserve" font-family="GillSans-Light,Gill Sans" font-size="32.0" fill="#FEFFFE" transform="matrix(1.00, 0.00, -0.00, -1.00, 26.4, 47.3)">o</text><text xml:space="preserve" font-family="GillSans-Light,Gill Sans" font-size="32.0" fill="#FEFFFE" transform="matrix(1.00, 0.00, -0.00, -1.00, 43.1, 47.3)">v</text><text xml:space="preserve" font-family="GillSans-Light,Gill Sans" font-size="32.0" fill="#FEFFFE" transform="matrix(1.00, 0.00, -0.00, -1.00, 56.8, 47.3)">i</text><text xml:space="preserve" font-family="GillSans-Light,Gill Sans" font-size="32.0" fill="#FEFFFE" transform="matrix(1.00, 0.00, -0.00, -1.00, 62.8, 47.3)">n</text><text xml:space="preserve" font-family="GillSans-Light,Gill Sans" font-size="32.0" fill="#FEFFFE" transform="matrix(1.00, 0.00, -0.00, -1.00, 78.5, 47.3)">g</text><text xml:space="preserve" font-family="GillSans-Light,Gill Sans" font-size="32.0" fill="#FEFFFE" transform="matrix(1.00, 0.00, -0.00, -1.00, 92.1, 47.3)"> </text><text xml:space="preserve" font-family="GillSans-Light,Gill Sans" font-size="32.0" fill="#FEFFFE" transform="matrix(1.00, 0.00, -0.00, -1.00, 101.0, 47.3)">c</text><text xml:space="preserve" font-family="GillSans-Light,Gill Sans" font-size="32.0" fill="#FEFFFE" transform="matrix(1.00, 0.00, -0.00, -1.00, 114.3, 47.3)">a</text><text xml:space="preserve" font-family="GillSans-Light,Gill Sans" font-size="32.0" fill="#FEFFFE" transform="matrix(1.00, 0.00, -0.00, -1.00, 128.0, 47.3)">r</text><text xml:space="preserve" font-family="GillSans-Light,Gill Sans" font-size="32.0" fill="#FEFFFE" transform="matrix(1.00, 0.00, -0.00, -1.00, 139.4, 47.3)">r</text><text xml:space="preserve" font-family="GillSans-Light,Gill Sans" font-size="32.0" fill="#FEFFFE" transform="matrix(1.00, 0.00, -0.00, -1.00, 150.9, 47.3)">i</text><text xml:space="preserve" font-family="GillSans-Light,Gill Sans" font-size="32.0" fill="#FEFFFE" transform="matrix(1.00, 0.00, -0.00, -1.00, 156.9, 47.3)">e</text><text xml:space="preserve" font-family="GillSans-Light,Gill Sans" font-size="32.0" fill="#FEFFFE" transform="matrix(1.00, 0.00, -0.00, -1.00, 172.2, 47.3)">r</text><text xml:space="preserve" font-family="LucidaGrande,Lucida Grande" font-size="32.0" fill="#FEFFFE" transform="matrix(1.00, 0.00, -0.00, -1.00, 182.9, 47.3)"> </text><text xml:space="preserve" font-family="GillSans-Light,Gill Sans" font-size="32.0" fill="#FEFFFE" transform="matrix(1.00, 0.00, -0.00, -1.00, 1.7, 2.9)">ﬁ</text><text xml:space="preserve" font-family="GillSans-Light,Gill Sans" font-size="32.0" fill="#FEFFFE" transform="matrix(1.00, 0.00, -0.00, -1.00, 17.1, 2.9)">r</text><text xml:space="preserve" font-family="GillSans-Light,Gill Sans" font-size="32.0" fill="#FEFFFE" transform="matrix(1.00, 0.00, -0.00, -1.00, 29.0, 2.9)">s</text><text xml:space="preserve" font-family="GillSans-Light,Gill Sans" font-size="32.0" fill="#FEFFFE" transform="matrix(1.00, 0.00, -0.00, -1.00, 40.3, 2.9)">t</text><text xml:space="preserve" font-family="GillSans-Light,Gill Sans" font-size="32.0" fill="#FEFFFE" transform="matrix(1.00, 0.00, -0.00, -1.00, 50.0, 2.9)"> </text><text xml:space="preserve" font-family="GillSans-Light,Gill Sans" font-size="32.0" fill="#FEFFFE" transform="matrix(1.00, 0.00, -0.00, -1.00, 58.9, 2.9)">o</text><text xml:space="preserve" font-family="GillSans-Light,Gill Sans" font-size="32.0" fill="#FEFFFE" transform="matrix(1.00, 0.00, -0.00, -1.00, 76.2, 2.9)">r</text><text xml:space="preserve" font-family="GillSans-Light,Gill Sans" font-size="32.0" fill="#FEFFFE" transform="matrix(1.00, 0.00, -0.00, -1.00, 86.9, 2.9)">d</text><text xml:space="preserve" font-family="GillSans-Light,Gill Sans" font-size="32.0" fill="#FEFFFE" transform="matrix(1.00, 0.00, -0.00, -1.00, 103.2, 2.9)">e</text><text xml:space="preserve" font-family="GillSans-Light,Gill Sans" font-size="32.0" fill="#FEFFFE" transform="matrix(1.00, 0.00, -0.00, -1.00, 118.5, 2.9)">r</text><text xml:space="preserve" font-family="GillSans-Light,Gill Sans" font-size="32.0" fill="#FEFFFE" transform="matrix(1.00, 0.00, -0.00, -1.00, 129.1, 2.9)"> </text><text xml:space="preserve" font-family="GillSans-Light,Gill Sans" font-size="32.0" fill="#FEFFFE" transform="matrix(1.00, 0.00, -0.00, -1.00, 138.0, 2.9)">m</text><text xml:space="preserve" font-family="GillSans-Light,Gill Sans" font-size="32.0" fill="#FEFFFE" transform="matrix(1.00, 0.00, -0.00, -1.00, 162.7, 2.9)">o</text><text xml:space="preserve" font-family="GillSans-Light,Gill Sans" font-size="32.0" fill="#FEFFFE" transform="matrix(1.00, 0.00, -0.00, -1.00, 180.0, 2.9)">t</text><text xml:space="preserve" font-family="GillSans-Light,Gill Sans" font-size="32.0" fill="#FEFFFE" transform="matrix(1.00, 0.00, -0.00, -1.00, 189.7, 2.9)">i</text><text xml:space="preserve" font-family="GillSans-Light,Gill Sans" font-size="32.0" fill="#FEFFFE" transform="matrix(1.00, 0.00, -0.00, -1.00, 195.7, 2.9)">o</text><text xml:space="preserve" font-family="GillSans-Light,Gill Sans" font-size="32.0" fill="#FEFFFE" transform="matrix(1.00, 0.00, -0.00, -1.00, 213.1, 2.9)">n</text></g></svg>