<?xml version="1.0" encoding="UTF-8" standalone="no"?><svg xmlns="http://www.w3.org/2000/svg" xmlns:xlink="http://www.w3.org/1999/xlink" clip-rule="evenodd" stroke-miterlimit="10" viewBox="0 0 770 503"><desc>SVG generated by Keynote</desc><defs></defs><g transform="matrix(1.00, 0.00, -0.00, -1.00, 0.0, 503.0)"><image xlink:href="52B1A704324E93418F3A5773E9DBB57C.png" width="767.00" height="493.00" transform="matrix(1.00, 0.00, -0.00, -1.00, 1.6, 493.3)" opacity="0.57"></image><g><clipPath id="clip0x6180076b9b60"><path d="M 41.6 122.4 L 728.2 122.4 L 728.2 380.0 L 41.6 380.0 Z M 41.6 122.4 "></path></clipPath><g clip-path="url(#clip0x6180076b9b60)"><path d="M 34.6 -101.3 L 748.0 -101.3 L 748.0 612.2 L 34.6 612.2 Z M 34.6 -101.3 " fill="#FFFFFF"></path></g></g><g><clipPath id="clip0x6180076ba0a0"><path d="M 34.6 390.7 L 748.0 390.7 L 748.0 119.6 L 34.6 119.6 Z M 34.6 390.7 "></path></clipPath><g clip-path="url(#clip0x6180076ba0a0)"><g><clipPath id="clip0x6180076ba220"><path d="M 41.6 122.4 L 728.2 122.4 L 728.2 380.0 L 41.6 380.0 Z M 41.6 122.4 "></path></clipPath><g clip-path="url(#clip0x6180076ba220)"><path d="M 34.6 390.7 L 748.0 390.7 L 748.0 120.2 L 34.6 120.2 Z M 34.6 390.7 " fill="#FFFFFF"></path></g></g></g></g><g><clipPath id="clip0x6180076ba460"><path d="M 34.6 390.7 L 748.0 390.7 L 748.0 118.8 L 34.6 118.8 Z M 34.6 390.7 "></path></clipPath><g clip-path="url(#clip0x6180076ba460)"><g><clipPath id="clip0x6080066b0500"><path d="M 41.6 122.4 L 728.2 122.4 L 728.2 380.0 L 41.6 380.0 Z M 41.6 122.4 "></path></clipPath><g clip-path="url(#clip0x6080066b0500)"><path d="M 0.0 347.6 L 504.0 347.6 L 504.0 156.5 L 0.0 156.5 Z M 0.0 347.6 " fill="none" stroke="#FFFFFF" stroke-width="1.06" stroke-linecap="round" stroke-linejoin="round" transform="matrix(1.42, 0.00, 0.00, 1.42, 34.6, -101.3)"></path></g></g></g></g><g><clipPath id="clip0x6080066b07a0"><path d="M 138.9 330.7 L 302.1 330.7 L 302.1 167.7 L 138.9 167.7 Z M 138.9 330.7 "></path></clipPath><g clip-path="url(#clip0x6080066b07a0)"><g><clipPath id="clip0x6080064b7580"><path d="M 41.6 122.4 L 728.2 122.4 L 728.2 380.0 L 41.6 380.0 Z M 41.6 122.4 "></path></clipPath><g clip-path="url(#clip0x6080064b7580)"><path d="M 138.9 330.7 L 300.7 330.7 L 300.7 168.9 L 138.9 168.9 Z M 138.9 330.7 " fill="#FFFFFF"></path><path d="M 296.7 197.9 C 296.7 193.5 290.0 193.5 290.0 197.9 C 290.0 202.3 296.7 202.3 296.7 197.9 " fill="#7E7E7E"></path><path d="M 219.4 209.6 C 219.4 201.3 206.9 201.3 206.9 209.6 C 206.9 218.0 219.4 218.0 219.4 209.6 " fill="#7E7E7E"></path><path d="M 202.2 217.6 C 202.2 210.8 192.0 210.8 192.0 217.6 C 192.0 224.4 202.2 224.4 202.2 217.6 " fill="#7E7E7E"></path><path d="M 190.4 223.7 C 190.4 218.3 182.3 218.3 182.3 223.7 C 182.3 229.1 190.4 229.1 190.4 223.7 " fill="#7E7E7E"></path><path d="M 184.1 210.0 C 184.1 202.9 173.4 202.9 173.4 210.0 C 173.4 217.1 184.1 217.1 184.1 210.0 " fill="#7E7E7E"></path><path d="M 170.3 207.7 C 170.3 200.6 159.7 200.6 159.7 207.7 C 159.7 214.8 170.3 214.8 170.3 207.7 " fill="#7E7E7E"></path><path d="M 166.3 207.6 C 166.3 198.6 153.0 198.6 153.0 207.6 C 153.0 216.5 166.3 216.5 166.3 207.6 " fill="#7E7E7E"></path><path d="M 159.2 199.6 C 159.2 191.2 146.7 191.2 146.7 199.6 C 146.7 208.0 159.2 208.0 159.2 199.6 " fill="#7E7E7E"></path><path d="M 154.8 177.7 C 154.8 172.3 146.7 172.3 146.7 177.7 C 146.7 183.2 154.8 183.2 154.8 177.7 " fill="#7E7E7E"></path><path d="M 157.1 191.7 C 157.1 187.3 153.4 183.6 148.9 183.6 C 144.5 183.6 140.8 187.3 140.8 191.7 C 140.8 196.2 144.5 199.8 148.9 199.8 C 153.4 199.8 157.1 196.2 157.1 191.7 " fill="#7E7E7E"></path><path d="M 153.0 191.5 C 153.0 182.6 139.6 182.6 139.6 191.5 C 139.6 200.5 153.0 200.5 153.0 191.5 " fill="#7E7E7E"></path><path d="M 182.8 209.7 L 182.8 213.0 " fill="none" stroke="#000000" stroke-width="1.06" stroke-linejoin="round" transform="matrix(1.42, 0.00, 0.00, 1.42, 34.6, -101.3)"></path><path d="M 126.2 218.0 L 126.2 221.3 " fill="none" stroke="#000000" stroke-width="1.06" stroke-linejoin="round" transform="matrix(1.42, 0.00, 0.00, 1.42, 34.6, -101.3)"></path><path d="M 114.8 222.4 L 114.8 228.1 " fill="none" stroke="#000000" stroke-width="1.06" stroke-linejoin="round" transform="matrix(1.42, 0.00, 0.00, 1.42, 34.6, -101.3)"></path><path d="M 107.3 226.4 L 107.3 232.8 " fill="none" stroke="#000000" stroke-width="1.06" stroke-linejoin="round" transform="matrix(1.42, 0.00, 0.00, 1.42, 34.6, -101.3)"></path><path d="M 101.9 218.0 L 101.9 221.8 " fill="none" stroke="#000000" stroke-width="1.06" stroke-linejoin="round" transform="matrix(1.42, 0.00, 0.00, 1.42, 34.6, -101.3)"></path><path d="M 92.1 216.3 L 92.1 220.2 " fill="none" stroke="#000000" stroke-width="1.06" stroke-linejoin="round" transform="matrix(1.42, 0.00, 0.00, 1.42, 34.6, -101.3)"></path><path d="M 88.4 216.6 L 88.4 219.8 " fill="none" stroke="#000000" stroke-width="1.06" stroke-linejoin="round" transform="matrix(1.42, 0.00, 0.00, 1.42, 34.6, -101.3)"></path><path d="M 83.6 211.2 L 83.6 213.9 " fill="none" stroke="#000000" stroke-width="1.06" stroke-linejoin="round" transform="matrix(1.42, 0.00, 0.00, 1.42, 34.6, -101.3)"></path><path d="M 82.1 196.0 L 82.1 198.2 " fill="none" stroke="#000000" stroke-width="1.06" stroke-linejoin="round" transform="matrix(1.42, 0.00, 0.00, 1.42, 34.6, -101.3)"></path><path d="M 80.8 206.1 L 80.8 207.9 " fill="none" stroke="#000000" stroke-width="1.06" stroke-linejoin="round" transform="matrix(1.42, 0.00, 0.00, 1.42, 34.6, -101.3)"></path><path d="M 78.9 205.8 L 78.9 207.9 " fill="none" stroke="#000000" stroke-width="1.06" stroke-linejoin="round" transform="matrix(1.42, 0.00, 0.00, 1.42, 34.6, -101.3)"></path><path d="M 80.3 205.0 L 81.3 205.9 L 82.3 206.7 L 83.3 207.6 L 84.2 208.3 L 85.2 209.1 L 86.2 209.7 L 87.2 210.4 L 88.2 211.0 L 89.2 211.5 L 90.1 212.0 L 91.1 212.5 L 92.1 213.0 L 93.1 213.4 L 94.1 213.8 L 95.1 214.1 L 96.0 214.5 L 97.0 214.8 L 98.0 215.1 L 99.0 215.4 L 100.0 215.7 L 101.0 215.9 L 101.9 216.2 L 102.9 216.4 L 103.9 216.7 L 104.9 216.9 L 105.9 217.1 L 106.9 217.3 L 107.9 217.4 L 108.8 217.6 L 109.8 217.8 L 110.8 217.9 L 111.8 218.1 L 112.8 218.2 L 114.7 218.5 L 115.7 218.6 L 116.7 218.8 L 117.7 218.9 L 118.7 219.0 L 119.7 219.1 L 121.6 219.3 L 122.6 219.4 L 124.6 219.6 L 125.6 219.7 L 126.5 219.8 L 128.5 219.9 L 129.5 220.0 L 131.5 220.2 L 133.4 220.3 L 134.4 220.4 L 137.4 220.6 L 140.3 220.7 L 142.3 220.8 L 143.3 220.9 L 145.2 221.0 L 148.2 221.1 L 151.1 221.3 L 152.1 221.3 L 153.1 221.4 L 154.1 221.4 L 155.1 221.4 L 156.1 221.5 L 157.1 221.5 L 160.0 221.6 L 161.0 221.6 L 162.0 221.7 L 163.0 221.7 L 166.9 221.8 L 167.9 221.9 L 168.9 221.9 L 169.8 221.9 L 173.8 222.0 L 174.8 222.1 L 175.7 222.1 L 177.7 222.1 " fill="none" stroke="#000000" stroke-width="1.06" stroke-linejoin="round" transform="matrix(1.42, 0.00, 0.00, 1.42, 34.6, -101.3)"></path><path d="M 148.2 189.6 L 149.6 190.9 L 151.0 192.1 L 152.4 193.3 L 153.8 194.4 L 155.2 195.4 L 156.6 196.4 L 158.0 197.3 L 159.4 198.2 L 160.8 199.0 L 162.2 199.7 L 163.5 200.4 L 164.9 201.1 L 166.3 201.7 L 167.7 202.3 L 169.1 202.9 L 170.5 203.4 L 171.9 203.9 L 173.3 204.4 L 174.7 204.8 L 176.1 205.3 L 177.5 205.7 L 178.9 206.0 L 180.3 206.4 L 181.7 206.7 L 183.1 207.1 L 184.4 207.4 L 185.8 207.7 L 187.2 208.0 L 188.6 208.2 L 190.0 208.5 L 191.4 208.7 L 192.8 209.0 L 194.2 209.2 L 195.6 209.4 L 197.0 209.6 L 198.4 209.8 L 199.8 210.0 L 201.2 210.2 L 203.9 210.6 L 205.3 210.7 L 206.7 210.9 L 208.1 211.0 L 209.5 211.2 L 210.9 211.3 L 212.3 211.5 L 213.7 211.6 L 216.5 211.9 L 219.3 212.1 L 220.7 212.2 L 223.4 212.4 L 224.8 212.6 L 229.0 212.9 L 230.4 212.9 L 234.6 213.2 L 236.0 213.3 L 237.4 213.4 L 238.8 213.5 L 241.6 213.6 L 245.7 213.8 L 247.1 213.9 L 248.5 214.0 L 249.9 214.0 L 251.3 214.1 L 252.7 214.2 L 254.1 214.2 L 255.5 214.3 L 256.9 214.3 L 258.3 214.4 L 259.7 214.5 L 261.1 214.5 L 262.4 214.6 L 263.8 214.6 L 270.8 214.9 L 272.2 214.9 L 273.6 215.0 L 275.0 215.0 L 276.4 215.0 L 277.8 215.1 L 280.6 215.2 L 286.1 215.3 L 286.1 211.0 L 284.7 211.0 L 281.9 211.0 L 280.6 210.9 L 277.8 210.9 L 276.4 210.8 L 275.0 210.8 L 273.6 210.8 L 270.8 210.7 L 269.4 210.6 L 266.6 210.6 L 265.2 210.5 L 263.8 210.5 L 262.4 210.4 L 261.1 210.4 L 256.9 210.3 L 255.5 210.2 L 254.1 210.2 L 249.9 210.0 L 248.5 210.0 L 247.1 209.9 L 245.7 209.9 L 244.3 209.8 L 242.9 209.7 L 237.4 209.5 L 236.0 209.4 L 234.6 209.4 L 229.0 209.1 L 227.6 209.0 L 226.2 208.9 L 224.8 208.8 L 223.4 208.8 L 222.1 208.7 L 220.7 208.6 L 217.9 208.4 L 215.1 208.2 L 213.7 208.1 L 212.3 208.0 L 210.9 207.9 L 209.5 207.8 L 208.1 207.6 L 205.3 207.4 L 203.9 207.3 L 202.6 207.1 L 199.8 206.8 L 198.4 206.7 L 195.6 206.3 L 192.8 206.0 L 191.4 205.8 L 190.0 205.6 L 188.6 205.4 L 187.2 205.1 L 185.8 204.9 L 184.4 204.7 L 183.1 204.4 L 181.7 204.1 L 180.3 203.8 L 178.9 203.5 L 177.5 203.2 L 176.1 202.9 L 174.7 202.5 L 173.3 202.1 L 171.9 201.7 L 170.5 201.3 L 169.1 200.8 L 167.7 200.4 L 166.3 199.8 L 164.9 199.3 L 163.5 198.7 L 162.2 198.0 L 160.8 197.3 L 159.4 196.6 L 158.0 195.8 L 156.6 194.9 L 155.2 193.9 L 153.8 192.9 L 152.4 191.8 L 151.0 190.7 L 149.6 189.5 L 148.2 188.2 Z M 148.2 189.6 " fill="#333333" fill-opacity="0.10"></path></g></g></g></g><g><clipPath id="clip0x6080066b1520"><path d="M 138.9 320.6 L 154.9 320.6 L 154.9 310.7 L 138.9 310.7 Z M 138.9 320.6 "></path></clipPath><g clip-path="url(#clip0x6080066b1520)"><g><clipPath id="clip0x6080066b16a0"><path d="M 41.6 122.4 L 728.2 122.4 L 728.2 380.0 L 41.6 380.0 Z M 41.6 122.4 "></path></clipPath><g clip-path="url(#clip0x6080066b16a0)"><text xml:space="preserve" font-family="Helvetica,Helvetica" font-size="8.5" fill="#000000" transform="matrix(1.42, 0.00, -0.00, -1.42, 138.9, 310.9)"> </text><text xml:space="preserve" font-family="Helvetica,Helvetica" font-size="8.5" fill="#000000" transform="matrix(1.42, 0.00, -0.00, -1.42, 142.3, 310.9)"> </text><text xml:space="preserve" font-family="Helvetica,Helvetica" font-size="8.5" fill="#000000" transform="matrix(1.42, 0.00, -0.00, -1.42, 145.6, 310.9)">R</text></g></g></g></g><g><clipPath id="clip0x6180076ba760"><path d="M 41.6 122.4 L 728.2 122.4 L 728.2 380.0 L 41.6 380.0 Z M 41.6 122.4 "></path></clipPath><g clip-path="url(#clip0x6180076ba760)"><text xml:space="preserve" font-family="Helvetica,Helvetica" font-size="6.0" fill="#000000" transform="matrix(1.42, 0.00, -0.00, -1.42, 154.3, 307.0)">L</text><text xml:space="preserve" font-family="Helvetica,Helvetica" font-size="6.0" fill="#000000" transform="matrix(1.42, 0.00, -0.00, -1.42, 154.3, 316.9)">2</text><text xml:space="preserve" font-family="Helvetica,Helvetica" font-size="8.5" fill="#000000" transform="matrix(1.42, 0.00, -0.00, -1.42, 161.8, 310.9)">=</text><text xml:space="preserve" font-family="Helvetica,Helvetica" font-size="8.5" fill="#000000" transform="matrix(1.42, 0.00, -0.00, -1.42, 171.6, 310.9)">0</text><text xml:space="preserve" font-family="Helvetica,Helvetica" font-size="8.5" fill="#000000" transform="matrix(1.42, 0.00, -0.00, -1.42, 178.3, 310.9)">.</text><text xml:space="preserve" font-family="Helvetica,Helvetica" font-size="8.5" fill="#000000" transform="matrix(1.42, 0.00, -0.00, -1.42, 181.7, 310.9)">3</text><text xml:space="preserve" font-family="Helvetica,Helvetica" font-size="8.5" fill="#000000" transform="matrix(1.42, 0.00, -0.00, -1.42, 188.4, 310.9)">6</text><text xml:space="preserve" font-family="Helvetica,Helvetica" font-size="8.5" fill="#000000" transform="matrix(1.42, 0.00, -0.00, -1.42, 195.0, 310.9)"> </text><text xml:space="preserve" font-family="Helvetica,Helvetica" font-size="8.5" fill="#000000" transform="matrix(1.42, 0.00, -0.00, -1.42, 198.4, 310.9)"> </text></g></g><g><clipPath id="clip0x6180076baca0"><path d="M 138.9 181.9 L 302.1 181.9 L 302.1 180.4 L 138.9 180.4 Z M 138.9 181.9 "></path></clipPath><g clip-path="url(#clip0x6180076baca0)"><g><clipPath id="clip0x6180076bae20"><path d="M 41.6 122.4 L 728.2 122.4 L 728.2 380.0 L 41.6 380.0 Z M 41.6 122.4 "></path></clipPath><g clip-path="url(#clip0x6180076bae20)"><path d="M 73.7 199.7 L 188.0 199.7 " fill="none" stroke="#000000" stroke-width="0.43" stroke-linejoin="round" stroke-dasharray="0.8, 0.8" transform="matrix(1.42, 0.00, 0.00, 1.42, 34.6, -101.3)"></path></g></g></g></g><g><clipPath id="clip0x6180076bb060"><path d="M 138.9 330.7 L 302.1 330.7 L 302.1 167.7 L 138.9 167.7 Z M 138.9 330.7 "></path></clipPath><g clip-path="url(#clip0x6180076bb060)"><g><clipPath id="clip0x6180076bb1e0"><path d="M 41.6 122.4 L 728.2 122.4 L 728.2 380.0 L 41.6 380.0 Z M 41.6 122.4 "></path></clipPath><g clip-path="url(#clip0x6180076bb1e0)"><path d="M 73.7 305.1 L 188.0 305.1 L 188.0 190.8 L 73.7 190.8 Z M 73.7 305.1 " fill="none" stroke="#7E7E7E" stroke-width="1.06" stroke-linecap="round" stroke-linejoin="round" transform="matrix(1.42, 0.00, 0.00, 1.42, 34.6, -101.3)"></path></g></g></g></g><g><clipPath id="clip0x6180076bb420"><path d="M 305.8 330.7 L 467.7 330.7 L 467.7 167.7 L 305.8 167.7 Z M 305.8 330.7 "></path></clipPath><g clip-path="url(#clip0x6180076bb420)"><g><clipPath id="clip0x6180076bb5a0"><path d="M 41.6 122.4 L 728.2 122.4 L 728.2 380.0 L 41.6 380.0 Z M 41.6 122.4 "></path></clipPath><g clip-path="url(#clip0x6180076bb5a0)"><path d="M 305.8 330.7 L 467.6 330.7 L 467.6 168.9 L 305.8 168.9 Z M 305.8 330.7 " fill="#FFFFFF"></path><path d="M 463.0 237.0 C 463.0 233.3 457.5 233.3 457.5 237.0 C 457.5 240.7 463.0 240.7 463.0 237.0 " fill="#7E7E7E"></path><path d="M 386.1 221.6 C 386.1 213.4 373.9 213.4 373.9 221.6 C 373.9 229.7 386.1 229.7 386.1 221.6 " fill="#7E7E7E"></path><path d="M 370.8 227.6 C 370.8 218.5 357.1 218.5 357.1 227.6 C 357.1 236.7 370.8 236.7 370.8 227.6 " fill="#7E7E7E"></path><path d="M 359.9 198.1 C 359.9 189.2 346.6 189.2 346.6 198.1 C 346.6 207.0 359.9 207.0 359.9 198.1 " fill="#7E7E7E"></path><path d="M 350.4 226.7 C 350.4 220.3 340.8 220.3 340.8 226.7 C 340.8 233.1 350.4 233.1 350.4 226.7 " fill="#7E7E7E"></path><path d="M 343.6 214.4 C 343.6 209.5 336.2 209.5 336.2 214.4 C 336.2 219.4 343.6 219.4 343.6 214.4 " fill="#7E7E7E"></path><path d="M 339.4 214.9 C 339.4 209.6 331.5 209.6 331.5 214.9 C 331.5 220.2 339.4 220.2 339.4 214.9 " fill="#7E7E7E"></path><path d="M 334.5 221.4 C 334.5 217.9 329.2 217.9 329.2 221.4 C 329.2 224.9 334.5 224.9 334.5 221.4 " fill="#7E7E7E"></path><path d="M 335.6 188.5 C 335.6 183.5 331.5 179.5 326.5 179.5 C 321.5 179.5 317.5 183.5 317.5 188.5 C 317.5 193.5 321.5 197.6 326.5 197.6 C 331.5 197.6 335.6 193.5 335.6 188.5 " fill="#7E7E7E"></path><path d="M 325.9 195.4 C 325.9 187.3 313.8 187.3 313.8 195.4 C 313.8 203.4 325.9 203.4 325.9 195.4 " fill="#7E7E7E"></path><path d="M 324.3 184.2 C 324.3 175.3 310.9 175.3 310.9 184.2 C 310.9 193.1 324.3 193.1 324.3 184.2 " fill="#7E7E7E"></path><path d="M 324.1 189.2 C 324.1 184.6 320.4 180.9 315.8 180.9 C 311.3 180.9 307.6 184.6 307.6 189.2 C 307.6 193.7 311.3 197.4 315.8 197.4 C 320.4 197.4 324.1 193.7 324.1 189.2 " fill="#7E7E7E"></path></g></g></g></g><g><clipPath id="clip0x6180076bbcc0"><path d="M 305.8 188.9 L 321.9 188.9 L 321.9 171.9 L 305.8 171.9 Z M 305.8 188.9 "></path></clipPath><g clip-path="url(#clip0x6180076bbcc0)"><g><clipPath id="clip0x6180076bbe40"><path d="M 41.6 122.4 L 728.2 122.4 L 728.2 380.0 L 41.6 380.0 Z M 41.6 122.4 "></path></clipPath><g clip-path="url(#clip0x6180076bbe40)"><path d="M 320.9 180.5 C 320.9 176.3 317.4 172.8 313.2 172.8 C 308.9 172.8 305.5 176.3 305.5 180.5 C 305.5 184.8 308.9 188.3 313.2 188.3 C 317.4 188.3 320.9 184.8 320.9 180.5 " fill="#7E7E7E"></path></g></g></g></g><g><clipPath id="clip0x6180076bc080"><path d="M 41.6 122.4 L 728.2 122.4 L 728.2 380.0 L 41.6 380.0 Z M 41.6 122.4 "></path></clipPath><g clip-path="url(#clip0x6180076bc080)"><path d="M 300.7 233.6 L 300.7 244.3 " fill="none" stroke="#000000" stroke-width="1.06" stroke-linejoin="round" transform="matrix(1.42, 0.00, 0.00, 1.42, 34.6, -101.3)"></path><path d="M 244.0 225.6 L 244.0 230.5 " fill="none" stroke="#000000" stroke-width="1.06" stroke-linejoin="round" transform="matrix(1.42, 0.00, 0.00, 1.42, 34.6, -101.3)"></path><path d="M 232.7 229.9 L 232.7 234.7 " fill="none" stroke="#000000" stroke-width="1.06" stroke-linejoin="round" transform="matrix(1.42, 0.00, 0.00, 1.42, 34.6, -101.3)"></path><path d="M 225.1 210.2 L 225.1 212.8 " fill="none" stroke="#000000" stroke-width="1.06" stroke-linejoin="round" transform="matrix(1.42, 0.00, 0.00, 1.42, 34.6, -101.3)"></path><path d="M 219.8 227.9 L 219.8 235.4 " fill="none" stroke="#000000" stroke-width="1.06" stroke-linejoin="round" transform="matrix(1.42, 0.00, 0.00, 1.42, 34.6, -101.3)"></path><path d="M 215.7 218.3 L 215.7 227.7 " fill="none" stroke="#000000" stroke-width="1.06" stroke-linejoin="round" transform="matrix(1.42, 0.00, 0.00, 1.42, 34.6, -101.3)"></path><path d="M 212.6 219.8 L 212.6 226.8 " fill="none" stroke="#000000" stroke-width="1.06" stroke-linejoin="round" transform="matrix(1.42, 0.00, 0.00, 1.42, 34.6, -101.3)"></path><path d="M 210.0 219.4 L 210.0 236.5 " fill="none" stroke="#000000" stroke-width="1.06" stroke-linejoin="round" transform="matrix(1.42, 0.00, 0.00, 1.42, 34.6, -101.3)"></path><path d="M 206.3 204.0 L 206.3 205.4 " fill="none" stroke="#000000" stroke-width="1.06" stroke-linejoin="round" transform="matrix(1.42, 0.00, 0.00, 1.42, 34.6, -101.3)"></path><path d="M 201.5 208.4 L 201.5 210.7 " fill="none" stroke="#000000" stroke-width="1.06" stroke-linejoin="round" transform="matrix(1.42, 0.00, 0.00, 1.42, 34.6, -101.3)"></path><path d="M 200.0 201.1 L 200.0 202.2 " fill="none" stroke="#000000" stroke-width="1.06" stroke-linejoin="round" transform="matrix(1.42, 0.00, 0.00, 1.42, 34.6, -101.3)"></path><path d="M 198.7 204.6 L 198.7 205.8 " fill="none" stroke="#000000" stroke-width="1.06" stroke-linejoin="round" transform="matrix(1.42, 0.00, 0.00, 1.42, 34.6, -101.3)"></path><path d="M 196.8 198.5 L 196.8 199.6 " fill="none" stroke="#000000" stroke-width="1.06" stroke-linejoin="round" transform="matrix(1.42, 0.00, 0.00, 1.42, 34.6, -101.3)"></path><path d="M 198.2 201.4 L 199.2 202.0 L 200.2 202.7 L 201.1 203.5 L 202.1 204.3 L 203.1 205.1 L 204.1 206.0 L 206.1 207.7 L 207.0 208.5 L 208.0 209.4 L 209.0 210.2 L 210.0 211.0 L 211.0 211.8 L 212.0 212.6 L 212.9 213.3 L 213.9 214.0 L 214.9 214.7 L 215.9 215.4 L 216.9 216.0 L 217.9 216.6 L 218.9 217.2 L 219.8 217.8 L 220.8 218.4 L 221.8 218.9 L 222.8 219.4 L 223.8 219.9 L 224.8 220.4 L 225.7 220.8 L 226.7 221.3 L 227.7 221.7 L 228.7 222.1 L 229.7 222.5 L 230.7 222.9 L 231.6 223.3 L 232.6 223.6 L 233.6 224.0 L 234.6 224.3 L 235.6 224.6 L 236.6 224.9 L 237.5 225.2 L 238.5 225.5 L 239.5 225.8 L 240.5 226.1 L 241.5 226.3 L 242.5 226.6 L 243.4 226.8 L 244.4 227.1 L 245.4 227.3 L 246.4 227.5 L 247.4 227.8 L 248.4 228.0 L 249.4 228.2 L 250.3 228.4 L 251.3 228.6 L 252.3 228.8 L 253.3 229.0 L 255.3 229.3 L 256.2 229.5 L 257.2 229.7 L 259.2 230.0 L 260.2 230.1 L 261.2 230.3 L 262.1 230.4 L 263.1 230.6 L 264.1 230.7 L 265.1 230.9 L 267.1 231.1 L 268.1 231.2 L 269.0 231.4 L 270.0 231.5 L 271.0 231.6 L 272.0 231.7 L 274.0 232.0 L 275.9 232.2 L 276.9 232.3 L 277.9 232.4 L 278.9 232.5 L 279.9 232.6 L 280.8 232.7 L 282.8 232.9 L 285.8 233.1 L 286.7 233.2 L 287.7 233.3 L 289.7 233.5 L 290.7 233.6 L 291.7 233.6 L 292.6 233.7 L 293.6 233.8 L 295.6 233.9 " fill="none" stroke="#000000" stroke-width="1.06" stroke-linejoin="round" transform="matrix(1.42, 0.00, 0.00, 1.42, 34.6, -101.3)"></path><path d="M 315.1 184.2 L 316.5 185.1 L 317.9 186.2 L 319.3 187.3 L 320.7 188.5 L 322.1 189.7 L 326.3 193.5 L 327.6 194.7 L 329.0 195.9 L 330.4 197.1 L 331.8 198.3 L 333.2 199.4 L 334.6 200.5 L 336.0 201.6 L 337.4 202.6 L 338.8 203.6 L 340.2 204.6 L 341.6 205.5 L 343.0 206.5 L 344.4 207.3 L 345.8 208.2 L 347.1 209.0 L 348.5 209.8 L 349.9 210.6 L 351.3 211.3 L 352.7 212.0 L 354.1 212.7 L 355.5 213.4 L 356.9 214.0 L 358.3 214.6 L 359.7 215.2 L 361.1 215.8 L 362.5 216.4 L 363.9 216.9 L 365.3 217.4 L 366.6 217.9 L 368.0 218.4 L 369.4 218.9 L 370.8 219.4 L 372.2 219.8 L 373.6 220.2 L 375.0 220.7 L 376.4 221.1 L 377.8 221.5 L 379.2 221.8 L 380.6 222.2 L 382.0 222.6 L 383.4 222.9 L 384.8 223.3 L 386.1 223.6 L 387.5 223.9 L 388.9 224.2 L 390.3 224.5 L 391.7 224.8 L 393.1 225.1 L 394.5 225.4 L 395.9 225.7 L 397.3 225.9 L 398.7 226.2 L 400.1 226.4 L 402.9 226.9 L 404.3 227.2 L 405.6 227.4 L 408.4 227.8 L 409.8 228.1 L 412.6 228.5 L 414.0 228.7 L 415.4 228.9 L 416.8 229.1 L 418.2 229.2 L 419.6 229.4 L 421.0 229.6 L 425.1 230.1 L 427.9 230.4 L 429.3 230.6 L 430.7 230.8 L 433.5 231.0 L 436.3 231.3 L 439.1 231.6 L 440.5 231.7 L 441.9 231.9 L 443.3 232.0 L 444.6 232.1 L 450.2 232.6 L 451.6 232.7 L 453.0 232.9 L 453.0 227.0 L 448.8 226.7 L 446.0 226.5 L 441.9 226.2 L 440.5 226.1 L 439.1 225.9 L 437.7 225.8 L 436.3 225.7 L 434.9 225.6 L 430.7 225.2 L 429.3 225.1 L 427.9 225.0 L 426.5 224.8 L 425.1 224.7 L 423.8 224.6 L 419.6 224.1 L 418.2 224.0 L 416.8 223.8 L 415.4 223.7 L 412.6 223.4 L 409.8 223.0 L 407.0 222.7 L 404.3 222.3 L 402.9 222.1 L 401.5 221.9 L 400.1 221.7 L 398.7 221.5 L 397.3 221.3 L 395.9 221.0 L 394.5 220.8 L 393.1 220.6 L 391.7 220.3 L 390.3 220.1 L 388.9 219.8 L 387.5 219.6 L 386.1 219.3 L 384.8 219.0 L 383.4 218.8 L 382.0 218.5 L 380.6 218.2 L 379.2 217.8 L 377.8 217.5 L 376.4 217.2 L 375.0 216.8 L 373.6 216.5 L 372.2 216.1 L 370.8 215.8 L 369.4 215.4 L 368.0 215.0 L 366.6 214.5 L 365.3 214.1 L 363.9 213.7 L 362.5 213.2 L 361.1 212.7 L 359.7 212.2 L 358.3 211.7 L 356.9 211.1 L 355.5 210.6 L 354.1 210.0 L 352.7 209.4 L 351.3 208.8 L 349.9 208.1 L 348.5 207.4 L 347.1 206.7 L 345.8 206.0 L 344.4 205.2 L 343.0 204.4 L 341.6 203.5 L 340.2 202.7 L 338.8 201.8 L 337.4 200.8 L 336.0 199.8 L 334.6 198.8 L 333.2 197.8 L 331.8 196.7 L 330.4 195.5 L 329.0 194.4 L 327.6 193.2 L 326.3 192.0 L 324.9 190.8 L 323.5 189.6 L 322.1 188.5 L 320.7 187.3 L 319.3 186.2 L 317.9 185.2 L 316.5 184.3 L 315.1 183.5 Z M 315.1 184.2 " fill="#333333" fill-opacity="0.10"></path></g></g><g><clipPath id="clip0x6180076bc860"><path d="M 305.8 320.6 L 321.9 320.6 L 321.9 310.7 L 305.8 310.7 Z M 305.8 320.6 "></path></clipPath><g clip-path="url(#clip0x6180076bc860)"><g><clipPath id="clip0x6180076bc9e0"><path d="M 41.6 122.4 L 728.2 122.4 L 728.2 380.0 L 41.6 380.0 Z M 41.6 122.4 "></path></clipPath><g clip-path="url(#clip0x6180076bc9e0)"><text xml:space="preserve" font-family="Helvetica,Helvetica" font-size="8.5" fill="#000000" transform="matrix(1.42, 0.00, -0.00, -1.42, 305.8, 310.9)"> </text><text xml:space="preserve" font-family="Helvetica,Helvetica" font-size="8.5" fill="#000000" transform="matrix(1.42, 0.00, -0.00, -1.42, 309.1, 310.9)"> </text><text xml:space="preserve" font-family="Helvetica,Helvetica" font-size="8.5" fill="#000000" transform="matrix(1.42, 0.00, -0.00, -1.42, 312.5, 310.9)">R</text></g></g></g></g><g><clipPath id="clip0x6180076bcce0"><path d="M 41.6 122.4 L 728.2 122.4 L 728.2 380.0 L 41.6 380.0 Z M 41.6 122.4 "></path></clipPath><g clip-path="url(#clip0x6180076bcce0)"><text xml:space="preserve" font-family="Helvetica,Helvetica" font-size="6.0" fill="#000000" transform="matrix(1.42, 0.00, -0.00, -1.42, 321.2, 307.0)">L</text><text xml:space="preserve" font-family="Helvetica,Helvetica" font-size="6.0" fill="#000000" transform="matrix(1.42, 0.00, -0.00, -1.42, 321.2, 316.9)">2</text><text xml:space="preserve" font-family="Helvetica,Helvetica" font-size="8.5" fill="#000000" transform="matrix(1.42, 0.00, -0.00, -1.42, 328.6, 310.9)">=</text><text xml:space="preserve" font-family="Helvetica,Helvetica" font-size="8.5" fill="#000000" transform="matrix(1.42, 0.00, -0.00, -1.42, 338.5, 310.9)">0</text><text xml:space="preserve" font-family="Helvetica,Helvetica" font-size="8.5" fill="#000000" transform="matrix(1.42, 0.00, -0.00, -1.42, 345.2, 310.9)">.</text><text xml:space="preserve" font-family="Helvetica,Helvetica" font-size="8.5" fill="#000000" transform="matrix(1.42, 0.00, -0.00, -1.42, 348.5, 310.9)">7</text><text xml:space="preserve" font-family="Helvetica,Helvetica" font-size="8.5" fill="#000000" transform="matrix(1.42, 0.00, -0.00, -1.42, 355.2, 310.9)">1</text><text xml:space="preserve" font-family="Helvetica,Helvetica" font-size="8.5" fill="#000000" transform="matrix(1.42, 0.00, -0.00, -1.42, 361.9, 310.9)"> </text><text xml:space="preserve" font-family="Helvetica,Helvetica" font-size="8.5" fill="#000000" transform="matrix(1.42, 0.00, -0.00, -1.42, 365.3, 310.9)"> </text></g></g><g><clipPath id="clip0x6100088a9300"><path d="M 305.8 181.9 L 467.7 181.9 L 467.7 180.4 L 305.8 180.4 Z M 305.8 181.9 "></path></clipPath><g clip-path="url(#clip0x6100088a9300)"><g><clipPath id="clip0x6100086a6900"><path d="M 41.6 122.4 L 728.2 122.4 L 728.2 380.0 L 41.6 380.0 Z M 41.6 122.4 "></path></clipPath><g clip-path="url(#clip0x6100086a6900)"><path d="M 191.6 199.7 L 305.9 199.7 " fill="none" stroke="#000000" stroke-width="0.43" stroke-linejoin="round" stroke-dasharray="0.8, 0.8" transform="matrix(1.42, 0.00, 0.00, 1.42, 34.6, -101.3)"></path></g></g></g></g><g><clipPath id="clip0x6100088a95a0"><path d="M 305.8 330.7 L 469.0 330.7 L 469.0 167.7 L 305.8 167.7 Z M 305.8 330.7 "></path></clipPath><g clip-path="url(#clip0x6100088a95a0)"><g><clipPath id="clip0x6100088a9720"><path d="M 41.6 122.4 L 728.2 122.4 L 728.2 380.0 L 41.6 380.0 Z M 41.6 122.4 "></path></clipPath><g clip-path="url(#clip0x6100088a9720)"><path d="M 191.6 305.1 L 305.9 305.1 L 305.9 190.8 L 191.6 190.8 Z M 191.6 305.1 " fill="none" stroke="#7E7E7E" stroke-width="1.06" stroke-linecap="round" stroke-linejoin="round" transform="matrix(1.42, 0.00, 0.00, 1.42, 34.6, -101.3)"></path></g></g></g></g><g><clipPath id="clip0x6100088a9960"><path d="M 472.7 330.7 L 634.8 330.7 L 634.8 167.7 L 472.7 167.7 Z M 472.7 330.7 "></path></clipPath><g clip-path="url(#clip0x6100088a9960)"><g><clipPath id="clip0x6100088a9ae0"><path d="M 41.6 122.4 L 728.2 122.4 L 728.2 380.0 L 41.6 380.0 Z M 41.6 122.4 "></path></clipPath><g clip-path="url(#clip0x6100088a9ae0)"><path d="M 472.7 330.7 L 634.5 330.7 L 634.5 168.9 L 472.7 168.9 Z M 472.7 330.7 " fill="#FFFFFF"></path><path d="M 631.2 295.4 C 631.2 290.0 623.1 290.0 623.1 295.4 C 623.1 300.8 631.2 300.8 631.2 295.4 " fill="#7E7E7E"></path><path d="M 550.9 307.3 C 550.9 301.9 542.8 301.9 542.8 307.3 C 542.8 312.7 550.9 312.7 550.9 307.3 " fill="#7E7E7E"></path><path d="M 539.5 266.7 C 539.5 262.0 535.6 258.1 530.8 258.1 C 526.1 258.1 522.2 262.0 522.2 266.7 C 522.2 271.5 526.1 275.4 530.8 275.4 C 535.6 275.4 539.5 271.5 539.5 266.7 " fill="#7E7E7E"></path><path d="M 516.6 284.5 C 516.6 279.1 508.5 279.1 508.5 284.5 C 508.5 289.9 516.6 289.9 516.6 284.5 " fill="#7E7E7E"></path><path d="M 510.6 242.3 C 510.6 237.7 506.9 234.0 502.3 234.0 C 497.7 234.0 494.0 237.7 494.0 242.3 C 494.0 246.9 497.7 250.6 502.3 250.6 C 506.9 250.6 510.6 246.9 510.6 242.3 " fill="#7E7E7E"></path><path d="M 502.7 261.7 C 502.7 256.5 494.8 256.5 494.8 261.7 C 494.8 266.9 502.7 266.9 502.7 261.7 " fill="#7E7E7E"></path><path d="M 497.5 278.3 C 497.5 272.9 489.4 272.9 489.4 278.3 C 489.4 283.7 497.5 283.7 497.5 278.3 " fill="#7E7E7E"></path><path d="M 493.5 232.9 C 493.5 227.7 485.7 227.7 485.7 232.9 C 485.7 238.1 493.5 238.1 493.5 232.9 " fill="#7E7E7E"></path><path d="M 495.1 213.5 C 495.1 208.9 491.3 205.2 486.7 205.2 C 482.1 205.2 478.4 208.9 478.4 213.5 C 478.4 218.2 482.1 221.9 486.7 221.9 C 491.3 221.9 495.1 218.2 495.1 213.5 " fill="#7E7E7E"></path><path d="M 491.4 206.3 C 491.4 201.5 487.5 197.6 482.7 197.6 C 477.9 197.6 474.0 201.5 474.0 206.3 C 474.0 211.1 477.9 215.0 482.7 215.0 C 487.5 215.0 491.4 211.1 491.4 206.3 " fill="#7E7E7E"></path><path d="M 418.6 270.7 L 418.6 289.8 " fill="none" stroke="#000000" stroke-width="1.06" stroke-linejoin="round" transform="matrix(1.42, 0.00, 0.00, 1.42, 34.6, -101.3)"></path><path d="M 361.9 277.3 L 361.9 299.9 " fill="none" stroke="#000000" stroke-width="1.06" stroke-linejoin="round" transform="matrix(1.42, 0.00, 0.00, 1.42, 34.6, -101.3)"></path><path d="M 350.6 255.9 L 350.6 264.0 " fill="none" stroke="#000000" stroke-width="1.06" stroke-linejoin="round" transform="matrix(1.42, 0.00, 0.00, 1.42, 34.6, -101.3)"></path><path d="M 337.6 261.8 L 337.6 283.3 " fill="none" stroke="#000000" stroke-width="1.06" stroke-linejoin="round" transform="matrix(1.42, 0.00, 0.00, 1.42, 34.6, -101.3)"></path><path d="M 330.4 239.7 L 330.4 245.7 " fill="none" stroke="#000000" stroke-width="1.06" stroke-linejoin="round" transform="matrix(1.42, 0.00, 0.00, 1.42, 34.6, -101.3)"></path><path d="M 327.9 245.8 L 327.9 267.0 " fill="none" stroke="#000000" stroke-width="1.06" stroke-linejoin="round" transform="matrix(1.42, 0.00, 0.00, 1.42, 34.6, -101.3)"></path><path d="M 324.1 259.1 L 324.1 277.2 " fill="none" stroke="#000000" stroke-width="1.06" stroke-linejoin="round" transform="matrix(1.42, 0.00, 0.00, 1.42, 34.6, -101.3)"></path><path d="M 321.4 230.5 L 321.4 241.6 " fill="none" stroke="#000000" stroke-width="1.06" stroke-linejoin="round" transform="matrix(1.42, 0.00, 0.00, 1.42, 34.6, -101.3)"></path><path d="M 319.4 221.0 L 319.4 223.7 " fill="none" stroke="#000000" stroke-width="1.06" stroke-linejoin="round" transform="matrix(1.42, 0.00, 0.00, 1.42, 34.6, -101.3)"></path><path d="M 316.6 216.2 L 316.6 218.3 " fill="none" stroke="#000000" stroke-width="1.06" stroke-linejoin="round" transform="matrix(1.42, 0.00, 0.00, 1.42, 34.6, -101.3)"></path><path d="M 316.1 215.3 L 317.1 218.3 L 318.0 221.2 L 319.0 224.1 L 320.0 226.8 L 321.0 229.4 L 322.0 231.8 L 323.0 234.1 L 323.9 236.3 L 324.9 238.3 L 325.9 240.2 L 326.9 242.0 L 327.9 243.6 L 328.9 245.2 L 329.9 246.7 L 330.8 248.1 L 331.8 249.4 L 332.8 250.7 L 333.8 251.8 L 334.8 252.9 L 335.8 254.0 L 336.7 255.0 L 337.7 255.9 L 338.7 256.8 L 339.7 257.7 L 340.7 258.5 L 341.7 259.2 L 342.6 260.0 L 343.6 260.7 L 344.6 261.4 L 345.6 262.0 L 346.6 262.6 L 347.6 263.2 L 348.5 263.8 L 349.5 264.3 L 350.5 264.8 L 351.5 265.3 L 352.5 265.8 L 353.5 266.2 L 354.4 266.7 L 355.4 267.1 L 356.4 267.5 L 357.4 267.9 L 358.4 268.3 L 359.4 268.7 L 360.4 269.0 L 361.3 269.4 L 362.3 269.7 L 363.3 270.0 L 364.3 270.4 L 365.3 270.7 L 366.3 271.0 L 367.2 271.2 L 368.2 271.5 L 369.2 271.8 L 370.2 272.0 L 371.2 272.3 L 372.2 272.5 L 373.1 272.8 L 374.1 273.0 L 375.1 273.2 L 376.1 273.5 L 378.1 273.9 L 379.0 274.1 L 381.0 274.5 L 382.0 274.7 L 383.0 274.8 L 384.0 275.0 L 385.0 275.2 L 386.9 275.5 L 387.9 275.7 L 389.9 276.0 L 390.9 276.2 L 391.8 276.3 L 392.8 276.5 L 394.8 276.7 L 395.8 276.9 L 396.8 277.0 L 398.7 277.3 L 399.7 277.4 L 401.7 277.6 L 403.6 277.9 L 404.6 278.0 L 405.6 278.1 L 406.6 278.2 L 409.6 278.5 L 410.5 278.6 L 411.5 278.7 L 412.5 278.8 L 413.5 278.9 " fill="none" stroke="#000000" stroke-width="1.06" stroke-linejoin="round" transform="matrix(1.42, 0.00, 0.00, 1.42, 34.6, -101.3)"></path><path d="M 482.0 204.9 L 483.4 209.2 L 484.8 213.4 L 486.2 217.5 L 487.6 221.4 L 489.0 225.1 L 490.3 228.6 L 491.7 231.9 L 493.1 235.0 L 494.5 237.9 L 495.9 240.7 L 497.3 243.3 L 498.7 245.8 L 500.1 248.1 L 501.5 250.3 L 502.9 252.4 L 504.3 254.3 L 505.7 256.2 L 507.1 257.9 L 508.5 259.6 L 509.8 261.2 L 511.2 262.7 L 512.6 264.1 L 514.0 265.4 L 515.4 266.7 L 516.8 267.9 L 518.2 269.1 L 519.6 270.2 L 521.0 271.3 L 522.4 272.3 L 523.8 273.3 L 525.2 274.2 L 526.6 275.1 L 528.0 275.9 L 529.3 276.7 L 530.7 277.5 L 532.1 278.3 L 533.5 279.0 L 534.9 279.7 L 536.3 280.4 L 537.7 281.0 L 539.1 281.7 L 540.5 282.3 L 541.9 282.9 L 543.3 283.4 L 544.7 284.0 L 546.1 284.5 L 547.5 285.0 L 548.8 285.5 L 550.2 286.0 L 551.6 286.4 L 553.0 286.9 L 554.4 287.3 L 555.8 287.8 L 557.2 288.2 L 558.6 288.6 L 560.0 288.9 L 561.4 289.3 L 562.8 289.7 L 564.2 290.0 L 565.6 290.4 L 567.0 290.7 L 568.4 291.1 L 569.7 291.4 L 571.1 291.7 L 572.5 292.0 L 573.9 292.3 L 575.3 292.6 L 576.7 292.8 L 579.5 293.4 L 580.9 293.7 L 582.3 293.9 L 583.7 294.2 L 585.1 294.4 L 586.5 294.6 L 589.2 295.1 L 590.6 295.3 L 593.4 295.8 L 594.8 296.0 L 596.2 296.2 L 597.6 296.4 L 600.4 296.8 L 601.8 296.9 L 604.6 297.3 L 606.0 297.5 L 607.4 297.7 L 608.7 297.8 L 611.5 298.2 L 612.9 298.3 L 617.1 298.8 L 618.5 298.9 L 619.9 299.1 L 619.9 288.1 L 618.5 287.9 L 615.7 287.7 L 612.9 287.4 L 608.7 287.0 L 607.4 286.8 L 604.6 286.6 L 601.8 286.2 L 599.0 285.9 L 596.2 285.6 L 594.8 285.4 L 592.0 285.1 L 589.2 284.7 L 586.5 284.3 L 583.7 283.9 L 582.3 283.7 L 579.5 283.2 L 578.1 283.0 L 576.7 282.8 L 575.3 282.5 L 573.9 282.3 L 571.1 281.8 L 569.7 281.5 L 568.4 281.2 L 567.0 281.0 L 565.6 280.7 L 564.2 280.4 L 562.8 280.1 L 561.4 279.8 L 560.0 279.5 L 558.6 279.1 L 557.2 278.8 L 555.8 278.4 L 554.4 278.1 L 553.0 277.7 L 551.6 277.3 L 550.2 276.9 L 548.8 276.5 L 547.5 276.1 L 546.1 275.7 L 544.7 275.2 L 543.3 274.7 L 541.9 274.3 L 540.5 273.8 L 539.1 273.2 L 537.7 272.7 L 536.3 272.1 L 534.9 271.6 L 533.5 271.0 L 532.1 270.3 L 530.7 269.7 L 529.3 269.0 L 528.0 268.3 L 526.6 267.6 L 525.2 266.8 L 523.8 266.0 L 522.4 265.1 L 521.0 264.2 L 519.6 263.3 L 518.2 262.4 L 516.8 261.3 L 515.4 260.3 L 514.0 259.1 L 512.6 258.0 L 511.2 256.7 L 509.8 255.4 L 508.5 254.0 L 507.1 252.5 L 505.7 250.9 L 504.3 249.3 L 502.9 247.5 L 501.5 245.6 L 500.1 243.6 L 498.7 241.5 L 497.3 239.2 L 495.9 236.8 L 494.5 234.2 L 493.1 231.4 L 491.7 228.4 L 490.3 225.2 L 489.0 221.8 L 487.6 218.2 L 486.2 214.4 L 484.8 210.4 L 483.4 206.3 L 482.0 202.1 Z M 482.0 204.9 " fill="#333333" fill-opacity="0.10"></path></g></g></g></g><g><clipPath id="clip0x6100088aa6e0"><path d="M 472.7 320.6 L 489.0 320.6 L 489.0 310.7 L 472.7 310.7 Z M 472.7 320.6 "></path></clipPath><g clip-path="url(#clip0x6100088aa6e0)"><g><clipPath id="clip0x6100088aa860"><path d="M 41.6 122.4 L 728.2 122.4 L 728.2 380.0 L 41.6 380.0 Z M 41.6 122.4 "></path></clipPath><g clip-path="url(#clip0x6100088aa860)"><text xml:space="preserve" font-family="Helvetica,Helvetica" font-size="8.5" fill="#000000" transform="matrix(1.42, 0.00, -0.00, -1.42, 472.7, 310.9)"> </text><text xml:space="preserve" font-family="Helvetica,Helvetica" font-size="8.5" fill="#000000" transform="matrix(1.42, 0.00, -0.00, -1.42, 476.0, 310.9)"> </text><text xml:space="preserve" font-family="Helvetica,Helvetica" font-size="8.5" fill="#000000" transform="matrix(1.42, 0.00, -0.00, -1.42, 479.4, 310.9)">R</text></g></g></g></g><g><clipPath id="clip0x6100088aab00"><path d="M 41.6 122.4 L 728.2 122.4 L 728.2 380.0 L 41.6 380.0 Z M 41.6 122.4 "></path></clipPath><g clip-path="url(#clip0x6100088aab00)"><text xml:space="preserve" font-family="Helvetica,Helvetica" font-size="6.0" fill="#000000" transform="matrix(1.42, 0.00, -0.00, -1.42, 488.1, 307.0)">L</text><text xml:space="preserve" font-family="Helvetica,Helvetica" font-size="6.0" fill="#000000" transform="matrix(1.42, 0.00, -0.00, -1.42, 488.1, 316.9)">2</text><text xml:space="preserve" font-family="Helvetica,Helvetica" font-size="8.5" fill="#000000" transform="matrix(1.42, 0.00, -0.00, -1.42, 495.5, 310.9)">=</text><text xml:space="preserve" font-family="Helvetica,Helvetica" font-size="8.5" fill="#000000" transform="matrix(1.42, 0.00, -0.00, -1.42, 505.4, 310.9)">0</text><text xml:space="preserve" font-family="Helvetica,Helvetica" font-size="8.5" fill="#000000" transform="matrix(1.42, 0.00, -0.00, -1.42, 512.1, 310.9)">.</text><text xml:space="preserve" font-family="Helvetica,Helvetica" font-size="8.5" fill="#000000" transform="matrix(1.42, 0.00, -0.00, -1.42, 515.4, 310.9)">9</text><text xml:space="preserve" font-family="Helvetica,Helvetica" font-size="8.5" fill="#000000" transform="matrix(1.42, 0.00, -0.00, -1.42, 522.1, 310.9)">0</text><text xml:space="preserve" font-family="Helvetica,Helvetica" font-size="8.5" fill="#000000" transform="matrix(1.42, 0.00, -0.00, -1.42, 528.8, 310.9)"> </text><text xml:space="preserve" font-family="Helvetica,Helvetica" font-size="8.5" fill="#000000" transform="matrix(1.42, 0.00, -0.00, -1.42, 532.1, 310.9)"> </text></g></g><g><clipPath id="clip0x6100088ab040"><path d="M 472.7 181.9 L 634.8 181.9 L 634.8 180.4 L 472.7 180.4 Z M 472.7 181.9 "></path></clipPath><g clip-path="url(#clip0x6100088ab040)"><g><clipPath id="clip0x6100088ab1c0"><path d="M 41.6 122.4 L 728.2 122.4 L 728.2 380.0 L 41.6 380.0 Z M 41.6 122.4 "></path></clipPath><g clip-path="url(#clip0x6100088ab1c0)"><path d="M 309.5 199.7 L 423.8 199.7 " fill="none" stroke="#000000" stroke-width="0.43" stroke-linejoin="round" stroke-dasharray="0.8, 0.8" transform="matrix(1.42, 0.00, 0.00, 1.42, 34.6, -101.3)"></path></g></g></g></g><g><clipPath id="clip0x6100088ab400"><path d="M 472.7 330.7 L 635.9 330.7 L 635.9 167.7 L 472.7 167.7 Z M 472.7 330.7 "></path></clipPath><g clip-path="url(#clip0x6100088ab400)"><g><clipPath id="clip0x6100088ab580"><path d="M 41.6 122.4 L 728.2 122.4 L 728.2 380.0 L 41.6 380.0 Z M 41.6 122.4 "></path></clipPath><g clip-path="url(#clip0x6100088ab580)"><path d="M 309.5 305.1 L 423.8 305.1 L 423.8 190.8 L 309.5 190.8 Z M 309.5 305.1 " fill="none" stroke="#7E7E7E" stroke-width="1.06" stroke-linecap="round" stroke-linejoin="round" transform="matrix(1.42, 0.00, 0.00, 1.42, 34.6, -101.3)"></path></g></g></g></g><g><clipPath id="clip0x6100088ab7c0"><path d="M 41.6 122.4 L 728.2 122.4 L 728.2 380.0 L 41.6 380.0 Z M 41.6 122.4 "></path></clipPath><g clip-path="url(#clip0x6100088ab7c0)"><path d="M 73.7 318.1 L 188.0 318.1 L 188.0 305.1 L 73.7 305.1 Z M 73.7 318.1 " fill="#CCCCCC" stroke="#7E7E7E" stroke-width="1.06" stroke-linecap="round" stroke-linejoin="round" transform="matrix(1.42, 0.00, 0.00, 1.42, 34.6, -101.3)"></path><text xml:space="preserve" font-family="Helvetica,Helvetica" font-size="8.0" fill="#000000" transform="matrix(1.42, 0.00, -0.00, -1.42, 188.4, 335.8)">O</text><text xml:space="preserve" font-family="Helvetica,Helvetica" font-size="8.0" fill="#000000" transform="matrix(1.42, 0.00, -0.00, -1.42, 197.2, 335.8)">b</text><text xml:space="preserve" font-family="Helvetica,Helvetica" font-size="8.0" fill="#000000" transform="matrix(1.42, 0.00, -0.00, -1.42, 203.5, 335.8)">s</text><text xml:space="preserve" font-family="Helvetica,Helvetica" font-size="8.0" fill="#000000" transform="matrix(1.42, 0.00, -0.00, -1.42, 209.1, 335.8)">e</text><text xml:space="preserve" font-family="Helvetica,Helvetica" font-size="8.0" fill="#000000" transform="matrix(1.42, 0.00, -0.00, -1.42, 215.4, 335.8)">r</text><text xml:space="preserve" font-family="Helvetica,Helvetica" font-size="8.0" fill="#000000" transform="matrix(1.42, 0.00, -0.00, -1.42, 219.2, 335.8)">v</text><text xml:space="preserve" font-family="Helvetica,Helvetica" font-size="8.0" fill="#000000" transform="matrix(1.42, 0.00, -0.00, -1.42, 224.8, 335.8)">e</text><text xml:space="preserve" font-family="Helvetica,Helvetica" font-size="8.0" fill="#000000" transform="matrix(1.42, 0.00, -0.00, -1.42, 231.1, 335.8)">r</text><text xml:space="preserve" font-family="Helvetica,Helvetica" font-size="8.0" fill="#000000" transform="matrix(1.42, 0.00, -0.00, -1.42, 234.9, 335.8)"> </text><text xml:space="preserve" font-family="Helvetica,Helvetica" font-size="8.0" fill="#000000" transform="matrix(1.42, 0.00, -0.00, -1.42, 238.0, 335.8)">J</text><text xml:space="preserve" font-family="Helvetica,Helvetica" font-size="8.0" fill="#000000" transform="matrix(1.42, 0.00, -0.00, -1.42, 243.7, 335.8)">B</text><path d="M 191.6 318.1 L 305.9 318.1 L 305.9 305.1 L 191.6 305.1 Z M 191.6 318.1 " fill="#CCCCCC" stroke="#7E7E7E" stroke-width="1.06" stroke-linecap="round" stroke-linejoin="round" transform="matrix(1.42, 0.00, 0.00, 1.42, 34.6, -101.3)"></path><text xml:space="preserve" font-family="Helvetica,Helvetica" font-size="8.0" fill="#000000" transform="matrix(1.42, 0.00, -0.00, -1.42, 354.9, 335.8)">O</text><text xml:space="preserve" font-family="Helvetica,Helvetica" font-size="8.0" fill="#000000" transform="matrix(1.42, 0.00, -0.00, -1.42, 363.7, 335.8)">b</text><text xml:space="preserve" font-family="Helvetica,Helvetica" font-size="8.0" fill="#000000" transform="matrix(1.42, 0.00, -0.00, -1.42, 370.0, 335.8)">s</text><text xml:space="preserve" font-family="Helvetica,Helvetica" font-size="8.0" fill="#000000" transform="matrix(1.42, 0.00, -0.00, -1.42, 375.7, 335.8)">e</text><text xml:space="preserve" font-family="Helvetica,Helvetica" font-size="8.0" fill="#000000" transform="matrix(1.42, 0.00, -0.00, -1.42, 382.0, 335.8)">r</text><text xml:space="preserve" font-family="Helvetica,Helvetica" font-size="8.0" fill="#000000" transform="matrix(1.42, 0.00, -0.00, -1.42, 385.7, 335.8)">v</text><text xml:space="preserve" font-family="Helvetica,Helvetica" font-size="8.0" fill="#000000" transform="matrix(1.42, 0.00, -0.00, -1.42, 391.4, 335.8)">e</text><text xml:space="preserve" font-family="Helvetica,Helvetica" font-size="8.0" fill="#000000" transform="matrix(1.42, 0.00, -0.00, -1.42, 397.7, 335.8)">r</text><text xml:space="preserve" font-family="Helvetica,Helvetica" font-size="8.0" fill="#000000" transform="matrix(1.42, 0.00, -0.00, -1.42, 401.5, 335.8)"> </text><text xml:space="preserve" font-family="Helvetica,Helvetica" font-size="8.0" fill="#000000" transform="matrix(1.42, 0.00, -0.00, -1.42, 404.6, 335.8)">N</text><text xml:space="preserve" font-family="Helvetica,Helvetica" font-size="8.0" fill="#000000" transform="matrix(1.42, 0.00, -0.00, -1.42, 412.8, 335.8)">J</text><path d="M 309.5 318.1 L 423.8 318.1 L 423.8 305.1 L 309.5 305.1 Z M 309.5 318.1 " fill="#CCCCCC" stroke="#7E7E7E" stroke-width="1.06" stroke-linecap="round" stroke-linejoin="round" transform="matrix(1.42, 0.00, 0.00, 1.42, 34.6, -101.3)"></path><text xml:space="preserve" font-family="Helvetica,Helvetica" font-size="8.0" fill="#000000" transform="matrix(1.42, 0.00, -0.00, -1.42, 516.5, 335.8)">O</text><text xml:space="preserve" font-family="Helvetica,Helvetica" font-size="8.0" fill="#000000" transform="matrix(1.42, 0.00, -0.00, -1.42, 525.3, 335.8)">b</text><text xml:space="preserve" font-family="Helvetica,Helvetica" font-size="8.0" fill="#000000" transform="matrix(1.42, 0.00, -0.00, -1.42, 531.5, 335.8)">s</text><text xml:space="preserve" font-family="Helvetica,Helvetica" font-size="8.0" fill="#000000" transform="matrix(1.42, 0.00, -0.00, -1.42, 537.2, 335.8)">e</text><text xml:space="preserve" font-family="Helvetica,Helvetica" font-size="8.0" fill="#000000" transform="matrix(1.42, 0.00, -0.00, -1.42, 543.5, 335.8)">r</text><text xml:space="preserve" font-family="Helvetica,Helvetica" font-size="8.0" fill="#000000" transform="matrix(1.42, 0.00, -0.00, -1.42, 547.3, 335.8)">v</text><text xml:space="preserve" font-family="Helvetica,Helvetica" font-size="8.0" fill="#000000" transform="matrix(1.42, 0.00, -0.00, -1.42, 552.9, 335.8)">e</text><text xml:space="preserve" font-family="Helvetica,Helvetica" font-size="8.0" fill="#000000" transform="matrix(1.42, 0.00, -0.00, -1.42, 559.2, 335.8)">r</text><text xml:space="preserve" font-family="Helvetica,Helvetica" font-size="8.0" fill="#000000" transform="matrix(1.42, 0.00, -0.00, -1.42, 563.0, 335.8)"> </text><text xml:space="preserve" font-family="Helvetica,Helvetica" font-size="8.0" fill="#000000" transform="matrix(1.42, 0.00, -0.00, -1.42, 566.1, 335.8)">P</text><text xml:space="preserve" font-family="Helvetica,Helvetica" font-size="8.0" fill="#000000" transform="matrix(1.42, 0.00, -0.00, -1.42, 573.7, 335.8)">B</text><text xml:space="preserve" font-family="Helvetica,Helvetica" font-size="8.0" fill="#000000" transform="matrix(1.42, 0.00, -0.00, -1.42, 581.2, 335.8)">M</text><text xml:space="preserve" font-family="Helvetica,Helvetica" font-size="8.0" fill="#000000" transform="matrix(1.42, 0.00, -0.00, -1.42, 122.6, 177.4)">0</text><text xml:space="preserve" font-family="Helvetica,Helvetica" font-size="8.0" fill="#000000" transform="matrix(1.42, 0.00, -0.00, -1.42, 116.3, 215.3)">1</text><text xml:space="preserve" font-family="Helvetica,Helvetica" font-size="8.0" fill="#000000" transform="matrix(1.42, 0.00, -0.00, -1.42, 122.6, 215.3)">0</text><text xml:space="preserve" font-family="Helvetica,Helvetica" font-size="8.0" fill="#000000" transform="matrix(1.42, 0.00, -0.00, -1.42, 116.3, 253.2)">2</text><text xml:space="preserve" font-family="Helvetica,Helvetica" font-size="8.0" fill="#000000" transform="matrix(1.42, 0.00, -0.00, -1.42, 122.6, 253.2)">0</text><text xml:space="preserve" font-family="Helvetica,Helvetica" font-size="8.0" fill="#000000" transform="matrix(1.42, 0.00, -0.00, -1.42, 116.3, 291.1)">3</text><text xml:space="preserve" font-family="Helvetica,Helvetica" font-size="8.0" fill="#000000" transform="matrix(1.42, 0.00, -0.00, -1.42, 122.6, 291.1)">0</text><path d="M 69.5 199.7 L 73.7 199.7 " fill="none" stroke="#000000" stroke-width="1.06" stroke-linejoin="round" transform="matrix(1.42, 0.00, 0.00, 1.42, 34.6, -101.3)"></path><path d="M 69.5 226.5 L 73.7 226.5 " fill="none" stroke="#000000" stroke-width="1.06" stroke-linejoin="round" transform="matrix(1.42, 0.00, 0.00, 1.42, 34.6, -101.3)"></path><path d="M 69.5 253.3 L 73.7 253.3 " fill="none" stroke="#000000" stroke-width="1.06" stroke-linejoin="round" transform="matrix(1.42, 0.00, 0.00, 1.42, 34.6, -101.3)"></path><path d="M 69.5 280.0 L 73.7 280.0 " fill="none" stroke="#000000" stroke-width="1.06" stroke-linejoin="round" transform="matrix(1.42, 0.00, 0.00, 1.42, 34.6, -101.3)"></path><path d="M 96.5 186.6 L 96.5 190.8 " fill="none" stroke="#000000" stroke-width="1.06" stroke-linejoin="round" transform="matrix(1.42, 0.00, 0.00, 1.42, 34.6, -101.3)"></path><path d="M 123.6 186.6 L 123.6 190.8 " fill="none" stroke="#000000" stroke-width="1.06" stroke-linejoin="round" transform="matrix(1.42, 0.00, 0.00, 1.42, 34.6, -101.3)"></path><path d="M 150.7 186.6 L 150.7 190.8 " fill="none" stroke="#000000" stroke-width="1.06" stroke-linejoin="round" transform="matrix(1.42, 0.00, 0.00, 1.42, 34.6, -101.3)"></path><path d="M 177.7 186.6 L 177.7 190.8 " fill="none" stroke="#000000" stroke-width="1.06" stroke-linejoin="round" transform="matrix(1.42, 0.00, 0.00, 1.42, 34.6, -101.3)"></path><text xml:space="preserve" font-family="Helvetica,Helvetica" font-size="8.0" fill="#000000" transform="matrix(1.42, 0.00, -0.00, -1.42, 168.1, 150.7)">5</text><text xml:space="preserve" font-family="Helvetica,Helvetica" font-size="8.0" fill="#000000" transform="matrix(1.42, 0.00, -0.00, -1.42, 203.2, 150.7)">1</text><text xml:space="preserve" font-family="Helvetica,Helvetica" font-size="8.0" fill="#000000" transform="matrix(1.42, 0.00, -0.00, -1.42, 209.5, 150.7)">0</text><text xml:space="preserve" font-family="Helvetica,Helvetica" font-size="8.0" fill="#000000" transform="matrix(1.42, 0.00, -0.00, -1.42, 241.5, 150.7)">1</text><text xml:space="preserve" font-family="Helvetica,Helvetica" font-size="8.0" fill="#000000" transform="matrix(1.42, 0.00, -0.00, -1.42, 247.8, 150.7)">5</text><text xml:space="preserve" font-family="Helvetica,Helvetica" font-size="8.0" fill="#000000" transform="matrix(1.42, 0.00, -0.00, -1.42, 279.8, 150.7)">2</text><text xml:space="preserve" font-family="Helvetica,Helvetica" font-size="8.0" fill="#000000" transform="matrix(1.42, 0.00, -0.00, -1.42, 286.1, 150.7)">0</text><path d="M 214.4 186.6 L 214.4 190.8 " fill="none" stroke="#000000" stroke-width="1.06" stroke-linejoin="round" transform="matrix(1.42, 0.00, 0.00, 1.42, 34.6, -101.3)"></path><path d="M 241.5 186.6 L 241.5 190.8 " fill="none" stroke="#000000" stroke-width="1.06" stroke-linejoin="round" transform="matrix(1.42, 0.00, 0.00, 1.42, 34.6, -101.3)"></path><path d="M 268.5 186.6 L 268.5 190.8 " fill="none" stroke="#000000" stroke-width="1.06" stroke-linejoin="round" transform="matrix(1.42, 0.00, 0.00, 1.42, 34.6, -101.3)"></path><path d="M 295.6 186.6 L 295.6 190.8 " fill="none" stroke="#000000" stroke-width="1.06" stroke-linejoin="round" transform="matrix(1.42, 0.00, 0.00, 1.42, 34.6, -101.3)"></path><text xml:space="preserve" font-family="Helvetica,Helvetica" font-size="8.0" fill="#000000" transform="matrix(1.42, 0.00, -0.00, -1.42, 334.9, 150.7)">5</text><text xml:space="preserve" font-family="Helvetica,Helvetica" font-size="8.0" fill="#000000" transform="matrix(1.42, 0.00, -0.00, -1.42, 370.1, 150.7)">1</text><text xml:space="preserve" font-family="Helvetica,Helvetica" font-size="8.0" fill="#000000" transform="matrix(1.42, 0.00, -0.00, -1.42, 376.4, 150.7)">0</text><text xml:space="preserve" font-family="Helvetica,Helvetica" font-size="8.0" fill="#000000" transform="matrix(1.42, 0.00, -0.00, -1.42, 408.4, 150.7)">1</text><text xml:space="preserve" font-family="Helvetica,Helvetica" font-size="8.0" fill="#000000" transform="matrix(1.42, 0.00, -0.00, -1.42, 414.7, 150.7)">5</text><text xml:space="preserve" font-family="Helvetica,Helvetica" font-size="8.0" fill="#000000" transform="matrix(1.42, 0.00, -0.00, -1.42, 446.7, 150.7)">2</text><text xml:space="preserve" font-family="Helvetica,Helvetica" font-size="8.0" fill="#000000" transform="matrix(1.42, 0.00, -0.00, -1.42, 453.0, 150.7)">0</text><path d="M 332.3 186.6 L 332.3 190.8 " fill="none" stroke="#000000" stroke-width="1.06" stroke-linejoin="round" transform="matrix(1.42, 0.00, 0.00, 1.42, 34.6, -101.3)"></path><path d="M 359.4 186.6 L 359.4 190.8 " fill="none" stroke="#000000" stroke-width="1.06" stroke-linejoin="round" transform="matrix(1.42, 0.00, 0.00, 1.42, 34.6, -101.3)"></path><path d="M 386.4 186.6 L 386.4 190.8 " fill="none" stroke="#000000" stroke-width="1.06" stroke-linejoin="round" transform="matrix(1.42, 0.00, 0.00, 1.42, 34.6, -101.3)"></path><path d="M 413.5 186.6 L 413.5 190.8 " fill="none" stroke="#000000" stroke-width="1.06" stroke-linejoin="round" transform="matrix(1.42, 0.00, 0.00, 1.42, 34.6, -101.3)"></path><text xml:space="preserve" font-family="Helvetica,Helvetica" font-size="8.0" fill="#000000" transform="matrix(1.42, 0.00, -0.00, -1.42, 501.8, 150.7)">5</text><text xml:space="preserve" font-family="Helvetica,Helvetica" font-size="8.0" fill="#000000" transform="matrix(1.42, 0.00, -0.00, -1.42, 537.0, 150.7)">1</text><text xml:space="preserve" font-family="Helvetica,Helvetica" font-size="8.0" fill="#000000" transform="matrix(1.42, 0.00, -0.00, -1.42, 543.3, 150.7)">0</text><text xml:space="preserve" font-family="Helvetica,Helvetica" font-size="8.0" fill="#000000" transform="matrix(1.42, 0.00, -0.00, -1.42, 575.3, 150.7)">1</text><text xml:space="preserve" font-family="Helvetica,Helvetica" font-size="8.0" fill="#000000" transform="matrix(1.42, 0.00, -0.00, -1.42, 581.6, 150.7)">5</text><text xml:space="preserve" font-family="Helvetica,Helvetica" font-size="8.0" fill="#000000" transform="matrix(1.42, 0.00, -0.00, -1.42, 613.6, 150.7)">2</text><text xml:space="preserve" font-family="Helvetica,Helvetica" font-size="8.0" fill="#000000" transform="matrix(1.42, 0.00, -0.00, -1.42, 619.9, 150.7)">0</text><text xml:space="preserve" font-family="Helvetica,Helvetica" font-size="10.0" fill="#000000" transform="matrix(1.42, 0.00, -0.00, -1.42, 361.1, 135.5)">S</text><text xml:space="preserve" font-family="Helvetica,Helvetica" font-size="10.0" fill="#000000" transform="matrix(1.42, 0.00, -0.00, -1.42, 370.5, 135.5)">p</text><text xml:space="preserve" font-family="Helvetica,Helvetica" font-size="10.0" fill="#000000" transform="matrix(1.42, 0.00, -0.00, -1.42, 378.4, 135.5)">a</text><text xml:space="preserve" font-family="Helvetica,Helvetica" font-size="10.0" fill="#000000" transform="matrix(1.42, 0.00, -0.00, -1.42, 386.3, 135.5)">c</text><text xml:space="preserve" font-family="Helvetica,Helvetica" font-size="10.0" fill="#000000" transform="matrix(1.42, 0.00, -0.00, -1.42, 393.4, 135.5)">i</text><text xml:space="preserve" font-family="Helvetica,Helvetica" font-size="10.0" fill="#000000" transform="matrix(1.42, 0.00, -0.00, -1.42, 396.5, 135.5)">n</text><text xml:space="preserve" font-family="Helvetica,Helvetica" font-size="10.0" fill="#000000" transform="matrix(1.42, 0.00, -0.00, -1.42, 404.4, 135.5)">g</text><text xml:space="preserve" font-family="Helvetica,Helvetica" font-size="10.0" fill="#000000" transform="matrix(1.42, 0.00, -0.00, -1.42, 55.3, 252.3)">P</text><text xml:space="preserve" font-family="Helvetica,Helvetica" font-size="10.0" fill="#000000" transform="matrix(1.42, 0.00, -0.00, -1.42, 64.8, 252.3)">o</text><text xml:space="preserve" font-family="Helvetica,Helvetica" font-size="10.0" fill="#000000" transform="matrix(1.42, 0.00, -0.00, -1.42, 72.6, 252.3)">s</text><text xml:space="preserve" font-family="Helvetica,Helvetica" font-size="10.0" fill="#000000" transform="matrix(1.42, 0.00, -0.00, -1.42, 79.7, 252.3)">i</text><text xml:space="preserve" font-family="Helvetica,Helvetica" font-size="10.0" fill="#000000" transform="matrix(1.42, 0.00, -0.00, -1.42, 82.9, 252.3)">t</text><text xml:space="preserve" font-family="Helvetica,Helvetica" font-size="10.0" fill="#000000" transform="matrix(1.42, 0.00, -0.00, -1.42, 86.8, 252.3)">i</text><text xml:space="preserve" font-family="Helvetica,Helvetica" font-size="10.0" fill="#000000" transform="matrix(1.42, 0.00, -0.00, -1.42, 89.9, 252.3)">o</text><text xml:space="preserve" font-family="Helvetica,Helvetica" font-size="10.0" fill="#000000" transform="matrix(1.42, 0.00, -0.00, -1.42, 97.8, 252.3)">n</text><text xml:space="preserve" font-family="Helvetica,Helvetica" font-size="10.0" fill="#000000" transform="matrix(1.42, 0.00, -0.00, -1.42, 49.8, 237.1)">s</text><text xml:space="preserve" font-family="Helvetica,Helvetica" font-size="10.0" fill="#000000" transform="matrix(1.42, 0.00, -0.00, -1.42, 56.9, 237.1)">e</text><text xml:space="preserve" font-family="Helvetica,Helvetica" font-size="10.0" fill="#000000" transform="matrix(1.42, 0.00, -0.00, -1.42, 64.8, 237.1)">n</text><text xml:space="preserve" font-family="Helvetica,Helvetica" font-size="10.0" fill="#000000" transform="matrix(1.42, 0.00, -0.00, -1.42, 72.7, 237.1)">s</text><text xml:space="preserve" font-family="Helvetica,Helvetica" font-size="10.0" fill="#000000" transform="matrix(1.42, 0.00, -0.00, -1.42, 79.7, 237.1)">i</text><text xml:space="preserve" font-family="Helvetica,Helvetica" font-size="10.0" fill="#000000" transform="matrix(1.42, 0.00, -0.00, -1.42, 82.9, 237.1)">t</text><text xml:space="preserve" font-family="Helvetica,Helvetica" font-size="10.0" fill="#000000" transform="matrix(1.42, 0.00, -0.00, -1.42, 86.8, 237.1)">i</text><text xml:space="preserve" font-family="Helvetica,Helvetica" font-size="10.0" fill="#000000" transform="matrix(1.42, 0.00, -0.00, -1.42, 90.0, 237.1)">v</text><text xml:space="preserve" font-family="Helvetica,Helvetica" font-size="10.0" fill="#000000" transform="matrix(1.42, 0.00, -0.00, -1.42, 97.0, 237.1)">i</text><text xml:space="preserve" font-family="Helvetica,Helvetica" font-size="10.0" fill="#000000" transform="matrix(1.42, 0.00, -0.00, -1.42, 100.2, 237.1)">t</text><text xml:space="preserve" font-family="Helvetica,Helvetica" font-size="10.0" fill="#000000" transform="matrix(1.42, 0.00, -0.00, -1.42, 104.1, 237.1)">y</text><path d="M 648.7 299.6 L 713.4 299.6 L 713.4 199.9 L 648.7 199.9 Z M 648.7 299.6 " fill="#FFFFFF"></path><text xml:space="preserve" font-family="Helvetica,Helvetica" font-size="8.0" fill="#000000" transform="matrix(1.42, 0.00, -0.00, -1.42, 654.7, 285.5)">N</text><path d="M 438.1 268.9 L 455.4 268.9 L 455.4 251.6 L 438.1 251.6 Z M 438.1 268.9 " fill="#FFFFFF" stroke="#CCCCCC" stroke-width="1.06" stroke-linecap="round" stroke-linejoin="round" transform="matrix(1.42, 0.00, 0.00, 1.42, 34.6, -101.3)"></path><path d="M 670.5 267.1 C 670.5 262.3 663.3 262.3 663.3 267.1 C 663.3 271.9 670.5 271.9 670.5 267.1 " fill="#7E7E7E"></path><path d="M 438.1 251.6 L 455.4 251.6 L 455.4 234.3 L 438.1 234.3 Z M 438.1 251.6 " fill="#FFFFFF" stroke="#CCCCCC" stroke-width="1.06" stroke-linecap="round" stroke-linejoin="round" transform="matrix(1.42, 0.00, 0.00, 1.42, 34.6, -101.3)"></path><path d="M 672.6 242.6 C 672.6 235.1 661.3 235.1 661.3 242.6 C 661.3 250.2 672.6 250.2 672.6 242.6 " fill="#7E7E7E"></path><path d="M 438.1 234.3 L 455.4 234.3 L 455.4 217.0 L 438.1 217.0 Z M 438.1 234.3 " fill="#FFFFFF" stroke="#CCCCCC" stroke-width="1.06" stroke-linecap="round" stroke-linejoin="round" transform="matrix(1.42, 0.00, 0.00, 1.42, 34.6, -101.3)"></path><path d="M 674.9 218.2 C 674.9 213.8 671.3 210.2 666.9 210.2 C 662.5 210.2 658.9 213.8 658.9 218.2 C 658.9 222.6 662.5 226.2 666.9 226.2 C 671.3 226.2 674.9 222.6 674.9 218.2 " fill="#7E7E7E"></path><text xml:space="preserve" font-family="Helvetica,Helvetica" font-size="8.0" fill="#000000" transform="matrix(1.42, 0.00, -0.00, -1.42, 682.2, 263.0)">2</text><text xml:space="preserve" font-family="Helvetica,Helvetica" font-size="8.0" fill="#000000" transform="matrix(1.42, 0.00, -0.00, -1.42, 688.5, 263.0)">0</text><text xml:space="preserve" font-family="Helvetica,Helvetica" font-size="8.0" fill="#000000" transform="matrix(1.42, 0.00, -0.00, -1.42, 694.8, 263.0)">0</text><text xml:space="preserve" font-family="Helvetica,Helvetica" font-size="8.0" fill="#000000" transform="matrix(1.42, 0.00, -0.00, -1.42, 682.2, 238.6)">5</text><text xml:space="preserve" font-family="Helvetica,Helvetica" font-size="8.0" fill="#000000" transform="matrix(1.42, 0.00, -0.00, -1.42, 688.5, 238.6)">0</text><text xml:space="preserve" font-family="Helvetica,Helvetica" font-size="8.0" fill="#000000" transform="matrix(1.42, 0.00, -0.00, -1.42, 694.8, 238.6)">0</text><text xml:space="preserve" font-family="Helvetica,Helvetica" font-size="8.0" fill="#000000" transform="matrix(1.42, 0.00, -0.00, -1.42, 682.2, 214.1)">1</text><text xml:space="preserve" font-family="Helvetica,Helvetica" font-size="8.0" fill="#000000" transform="matrix(1.42, 0.00, -0.00, -1.42, 688.5, 214.1)">0</text><text xml:space="preserve" font-family="Helvetica,Helvetica" font-size="8.0" fill="#000000" transform="matrix(1.42, 0.00, -0.00, -1.42, 694.8, 214.1)">0</text><text xml:space="preserve" font-family="Helvetica,Helvetica" font-size="8.0" fill="#000000" transform="matrix(1.42, 0.00, -0.00, -1.42, 701.1, 214.1)">0</text><text xml:space="preserve" font-family="Helvetica,Helvetica" font-size="11.0" fill="#000000" transform="matrix(1.42, 0.00, -0.00, -1.42, 162.1, 354.1)">S</text><text xml:space="preserve" font-family="Helvetica,Helvetica" font-size="11.0" fill="#000000" transform="matrix(1.42, 0.00, -0.00, -1.42, 172.5, 354.1)">e</text><text xml:space="preserve" font-family="Helvetica,Helvetica" font-size="11.0" fill="#000000" transform="matrix(1.42, 0.00, -0.00, -1.42, 181.1, 354.1)">n</text><text xml:space="preserve" font-family="Helvetica,Helvetica" font-size="11.0" fill="#000000" transform="matrix(1.42, 0.00, -0.00, -1.42, 189.8, 354.1)">s</text><text xml:space="preserve" font-family="Helvetica,Helvetica" font-size="11.0" fill="#000000" transform="matrix(1.42, 0.00, -0.00, -1.42, 197.6, 354.1)">i</text><text xml:space="preserve" font-family="Helvetica,Helvetica" font-size="11.0" fill="#000000" transform="matrix(1.42, 0.00, -0.00, -1.42, 201.0, 354.1)">t</text><text xml:space="preserve" font-family="Helvetica,Helvetica" font-size="11.0" fill="#000000" transform="matrix(1.42, 0.00, -0.00, -1.42, 205.3, 354.1)">i</text><text xml:space="preserve" font-family="Helvetica,Helvetica" font-size="11.0" fill="#000000" transform="matrix(1.42, 0.00, -0.00, -1.42, 208.8, 354.1)">v</text><text xml:space="preserve" font-family="Helvetica,Helvetica" font-size="11.0" fill="#000000" transform="matrix(1.42, 0.00, -0.00, -1.42, 216.6, 354.1)">i</text><text xml:space="preserve" font-family="Helvetica,Helvetica" font-size="11.0" fill="#000000" transform="matrix(1.42, 0.00, -0.00, -1.42, 220.0, 354.1)">t</text><text xml:space="preserve" font-family="Helvetica,Helvetica" font-size="11.0" fill="#000000" transform="matrix(1.42, 0.00, -0.00, -1.42, 224.4, 354.1)">y</text><text xml:space="preserve" font-family="Helvetica,Helvetica" font-size="11.0" fill="#000000" transform="matrix(1.42, 0.00, -0.00, -1.42, 232.1, 354.1)"> </text><text xml:space="preserve" font-family="Helvetica,Helvetica" font-size="11.0" fill="#000000" transform="matrix(1.42, 0.00, -0.00, -1.42, 236.4, 354.1)">t</text><text xml:space="preserve" font-family="Helvetica,Helvetica" font-size="11.0" fill="#000000" transform="matrix(1.42, 0.00, -0.00, -1.42, 240.8, 354.1)">o</text><text xml:space="preserve" font-family="Helvetica,Helvetica" font-size="11.0" fill="#000000" transform="matrix(1.42, 0.00, -0.00, -1.42, 249.4, 354.1)"> </text><text xml:space="preserve" font-family="Helvetica,Helvetica" font-size="11.0" fill="#000000" transform="matrix(1.42, 0.00, -0.00, -1.42, 253.7, 354.1)">p</text><text xml:space="preserve" font-family="Helvetica,Helvetica" font-size="11.0" fill="#000000" transform="matrix(1.42, 0.00, -0.00, -1.42, 262.4, 354.1)">o</text><text xml:space="preserve" font-family="Helvetica,Helvetica" font-size="11.0" fill="#000000" transform="matrix(1.42, 0.00, -0.00, -1.42, 271.1, 354.1)">s</text><text xml:space="preserve" font-family="Helvetica,Helvetica" font-size="11.0" fill="#000000" transform="matrix(1.42, 0.00, -0.00, -1.42, 278.8, 354.1)">i</text><text xml:space="preserve" font-family="Helvetica,Helvetica" font-size="11.0" fill="#000000" transform="matrix(1.42, 0.00, -0.00, -1.42, 282.3, 354.1)">t</text><text xml:space="preserve" font-family="Helvetica,Helvetica" font-size="11.0" fill="#000000" transform="matrix(1.42, 0.00, -0.00, -1.42, 286.6, 354.1)">i</text><text xml:space="preserve" font-family="Helvetica,Helvetica" font-size="11.0" fill="#000000" transform="matrix(1.42, 0.00, -0.00, -1.42, 290.1, 354.1)">o</text><text xml:space="preserve" font-family="Helvetica,Helvetica" font-size="11.0" fill="#000000" transform="matrix(1.42, 0.00, -0.00, -1.42, 298.7, 354.1)">n</text><text xml:space="preserve" font-family="Helvetica,Helvetica" font-size="11.0" fill="#000000" transform="matrix(1.42, 0.00, -0.00, -1.42, 307.4, 354.1)">-</text><text xml:space="preserve" font-family="Helvetica,Helvetica" font-size="11.0" fill="#000000" transform="matrix(1.42, 0.00, -0.00, -1.42, 312.6, 354.1)">d</text><text xml:space="preserve" font-family="Helvetica,Helvetica" font-size="11.0" fill="#000000" transform="matrix(1.42, 0.00, -0.00, -1.42, 321.2, 354.1)">e</text><text xml:space="preserve" font-family="Helvetica,Helvetica" font-size="11.0" fill="#000000" transform="matrix(1.42, 0.00, -0.00, -1.42, 329.9, 354.1)">f</text><text xml:space="preserve" font-family="Helvetica,Helvetica" font-size="11.0" fill="#000000" transform="matrix(1.42, 0.00, -0.00, -1.42, 334.2, 354.1)">i</text><text xml:space="preserve" font-family="Helvetica,Helvetica" font-size="11.0" fill="#000000" transform="matrix(1.42, 0.00, -0.00, -1.42, 337.7, 354.1)">n</text><text xml:space="preserve" font-family="Helvetica,Helvetica" font-size="11.0" fill="#000000" transform="matrix(1.42, 0.00, -0.00, -1.42, 346.3, 354.1)">e</text><text xml:space="preserve" font-family="Helvetica,Helvetica" font-size="11.0" fill="#000000" transform="matrix(1.42, 0.00, -0.00, -1.42, 355.0, 354.1)">d</text><text xml:space="preserve" font-family="Helvetica,Helvetica" font-size="11.0" fill="#000000" transform="matrix(1.42, 0.00, -0.00, -1.42, 363.6, 354.1)"> </text><text xml:space="preserve" font-family="Helvetica,Helvetica" font-size="11.0" fill="#000000" transform="matrix(1.42, 0.00, -0.00, -1.42, 368.0, 354.1)">m</text><text xml:space="preserve" font-family="Helvetica,Helvetica" font-size="11.0" fill="#000000" transform="matrix(1.42, 0.00, -0.00, -1.42, 380.9, 354.1)">o</text><text xml:space="preserve" font-family="Helvetica,Helvetica" font-size="11.0" fill="#000000" transform="matrix(1.42, 0.00, -0.00, -1.42, 389.6, 354.1)">t</text><text xml:space="preserve" font-family="Helvetica,Helvetica" font-size="11.0" fill="#000000" transform="matrix(1.42, 0.00, -0.00, -1.42, 393.9, 354.1)">i</text><text xml:space="preserve" font-family="Helvetica,Helvetica" font-size="11.0" fill="#000000" transform="matrix(1.42, 0.00, -0.00, -1.42, 397.4, 354.1)">o</text><text xml:space="preserve" font-family="Helvetica,Helvetica" font-size="11.0" fill="#000000" transform="matrix(1.42, 0.00, -0.00, -1.42, 406.0, 354.1)">n</text><text xml:space="preserve" font-family="Helvetica,Helvetica" font-size="11.0" fill="#000000" transform="matrix(1.42, 0.00, -0.00, -1.42, 414.7, 354.1)"> </text><text xml:space="preserve" font-family="Helvetica,Helvetica" font-size="11.0" fill="#000000" transform="matrix(1.42, 0.00, -0.00, -1.42, 419.0, 354.1)">d</text><text xml:space="preserve" font-family="Helvetica,Helvetica" font-size="11.0" fill="#000000" transform="matrix(1.42, 0.00, -0.00, -1.42, 427.6, 354.1)">e</text><text xml:space="preserve" font-family="Helvetica,Helvetica" font-size="11.0" fill="#000000" transform="matrix(1.42, 0.00, -0.00, -1.42, 436.3, 354.1)">c</text><text xml:space="preserve" font-family="Helvetica,Helvetica" font-size="11.0" fill="#000000" transform="matrix(1.42, 0.00, -0.00, -1.42, 444.1, 354.1)">l</text><text xml:space="preserve" font-family="Helvetica,Helvetica" font-size="11.0" fill="#000000" transform="matrix(1.42, 0.00, -0.00, -1.42, 447.6, 354.1)">i</text><text xml:space="preserve" font-family="Helvetica,Helvetica" font-size="11.0" fill="#000000" transform="matrix(1.42, 0.00, -0.00, -1.42, 451.0, 354.1)">n</text><text xml:space="preserve" font-family="Helvetica,Helvetica" font-size="11.0" fill="#000000" transform="matrix(1.42, 0.00, -0.00, -1.42, 459.7, 354.1)">e</text><text xml:space="preserve" font-family="Helvetica,Helvetica" font-size="11.0" fill="#000000" transform="matrix(1.42, 0.00, -0.00, -1.42, 468.3, 354.1)">s</text><text xml:space="preserve" font-family="Helvetica,Helvetica" font-size="11.0" fill="#000000" transform="matrix(1.42, 0.00, -0.00, -1.42, 476.1, 354.1)"> </text><text xml:space="preserve" font-family="Helvetica,Helvetica" font-size="11.0" fill="#000000" transform="matrix(1.42, 0.00, -0.00, -1.42, 480.4, 354.1)">a</text><text xml:space="preserve" font-family="Helvetica,Helvetica" font-size="11.0" fill="#000000" transform="matrix(1.42, 0.00, -0.00, -1.42, 489.1, 354.1)">t</text><text xml:space="preserve" font-family="Helvetica,Helvetica" font-size="11.0" fill="#000000" transform="matrix(1.42, 0.00, -0.00, -1.42, 493.4, 354.1)"> </text><text xml:space="preserve" font-family="Helvetica,Helvetica" font-size="11.0" fill="#000000" transform="matrix(1.42, 0.00, -0.00, -1.42, 497.7, 354.1)">n</text><text xml:space="preserve" font-family="Helvetica,Helvetica" font-size="11.0" fill="#000000" transform="matrix(1.42, 0.00, -0.00, -1.42, 506.4, 354.1)">a</text><text xml:space="preserve" font-family="Helvetica,Helvetica" font-size="11.0" fill="#000000" transform="matrix(1.42, 0.00, -0.00, -1.42, 515.0, 354.1)">r</text><text xml:space="preserve" font-family="Helvetica,Helvetica" font-size="11.0" fill="#000000" transform="matrix(1.42, 0.00, -0.00, -1.42, 520.2, 354.1)">r</text><text xml:space="preserve" font-family="Helvetica,Helvetica" font-size="11.0" fill="#000000" transform="matrix(1.42, 0.00, -0.00, -1.42, 525.4, 354.1)">o</text><text xml:space="preserve" font-family="Helvetica,Helvetica" font-size="11.0" fill="#000000" transform="matrix(1.42, 0.00, -0.00, -1.42, 534.1, 354.1)">w</text><text xml:space="preserve" font-family="Helvetica,Helvetica" font-size="11.0" fill="#000000" transform="matrix(1.42, 0.00, -0.00, -1.42, 545.3, 354.1)"> </text><text xml:space="preserve" font-family="Helvetica,Helvetica" font-size="11.0" fill="#000000" transform="matrix(1.42, 0.00, -0.00, -1.42, 549.6, 354.1)">s</text><text xml:space="preserve" font-family="Helvetica,Helvetica" font-size="11.0" fill="#000000" transform="matrix(1.42, 0.00, -0.00, -1.42, 557.4, 354.1)">p</text><text xml:space="preserve" font-family="Helvetica,Helvetica" font-size="11.0" fill="#000000" transform="matrix(1.42, 0.00, -0.00, -1.42, 566.1, 354.1)">a</text><text xml:space="preserve" font-family="Helvetica,Helvetica" font-size="11.0" fill="#000000" transform="matrix(1.42, 0.00, -0.00, -1.42, 574.7, 354.1)">c</text><text xml:space="preserve" font-family="Helvetica,Helvetica" font-size="11.0" fill="#000000" transform="matrix(1.42, 0.00, -0.00, -1.42, 582.5, 354.1)">i</text><text xml:space="preserve" font-family="Helvetica,Helvetica" font-size="11.0" fill="#000000" transform="matrix(1.42, 0.00, -0.00, -1.42, 586.0, 354.1)">n</text><text xml:space="preserve" font-family="Helvetica,Helvetica" font-size="11.0" fill="#000000" transform="matrix(1.42, 0.00, -0.00, -1.42, 594.6, 354.1)">g</text><text xml:space="preserve" font-family="Helvetica,Helvetica" font-size="11.0" fill="#000000" transform="matrix(1.42, 0.00, -0.00, -1.42, 603.3, 354.1)">s</text></g></g></g></svg>