<?xml version="1.0" encoding="UTF-8" standalone="no"?><svg xmlns="http://www.w3.org/2000/svg" xmlns:xlink="http://www.w3.org/1999/xlink" clip-rule="evenodd" stroke-miterlimit="10" viewBox="0 0 328 70"><desc>SVG generated by Keynote</desc><defs></defs><g transform="matrix(1.00, 0.00, -0.00, -1.00, 0.0, 70.0)"><text xml:space="preserve" font-family="GillSans-Light,Gill Sans" font-size="25.8" fill="#FEFFFE" transform="matrix(1.00, 0.00, -0.00, -1.00, 1.0, 46.9)">•</text><text xml:space="preserve" font-family="GillSans-Light,Gill Sans" font-size="31.5" fill="#FEFFFE" transform="matrix(1.00, 0.00, -0.00, -1.00, 29.2, 44.7)">P</text><text xml:space="preserve" font-family="GillSans-Light,Gill Sans" font-size="31.5" fill="#FEFFFE" transform="matrix(1.00, 0.00, -0.00, -1.00, 43.7, 44.7)">o</text><text xml:space="preserve" font-family="GillSans-Light,Gill Sans" font-size="31.5" fill="#FEFFFE" transform="matrix(1.00, 0.00, -0.00, -1.00, 60.7, 44.7)">s</text><text xml:space="preserve" font-family="GillSans-Light,Gill Sans" font-size="31.5" fill="#FEFFFE" transform="matrix(1.00, 0.00, -0.00, -1.00, 71.9, 44.7)">i</text><text xml:space="preserve" font-family="GillSans-Light,Gill Sans" font-size="31.5" fill="#FEFFFE" transform="matrix(1.00, 0.00, -0.00, -1.00, 77.8, 44.7)">t</text><text xml:space="preserve" font-family="GillSans-Light,Gill Sans" font-size="31.5" fill="#FEFFFE" transform="matrix(1.00, 0.00, -0.00, -1.00, 87.3, 44.7)">i</text><text xml:space="preserve" font-family="GillSans-Light,Gill Sans" font-size="31.5" fill="#FEFFFE" transform="matrix(1.00, 0.00, -0.00, -1.00, 93.2, 44.7)">o</text><text xml:space="preserve" font-family="GillSans-Light,Gill Sans" font-size="31.5" fill="#FEFFFE" transform="matrix(1.00, 0.00, -0.00, -1.00, 110.3, 44.7)">n</text><text xml:space="preserve" font-family="GillSans-Light,Gill Sans" font-size="31.5" fill="#FEFFFE" transform="matrix(1.00, 0.00, -0.00, -1.00, 125.8, 44.7)">-</text><text xml:space="preserve" font-family="GillSans-Light,Gill Sans" font-size="31.5" fill="#FEFFFE" transform="matrix(1.00, 0.00, -0.00, -1.00, 135.6, 44.7)">d</text><text xml:space="preserve" font-family="GillSans-Light,Gill Sans" font-size="31.5" fill="#FEFFFE" transform="matrix(1.00, 0.00, -0.00, -1.00, 151.7, 44.7)">e</text><text xml:space="preserve" font-family="GillSans-Light,Gill Sans" font-size="31.5" fill="#FEFFFE" transform="matrix(1.00, 0.00, -0.00, -1.00, 166.8, 44.7)">ﬁ</text><text xml:space="preserve" font-family="GillSans-Light,Gill Sans" font-size="31.5" fill="#FEFFFE" transform="matrix(1.00, 0.00, -0.00, -1.00, 181.8, 44.7)">n</text><text xml:space="preserve" font-family="GillSans-Light,Gill Sans" font-size="31.5" fill="#FEFFFE" transform="matrix(1.00, 0.00, -0.00, -1.00, 197.3, 44.7)">e</text><text xml:space="preserve" font-family="GillSans-Light,Gill Sans" font-size="31.5" fill="#FEFFFE" transform="matrix(1.00, 0.00, -0.00, -1.00, 212.4, 44.7)">d</text><text xml:space="preserve" font-family="GillSans-Light,Gill Sans" font-size="31.5" fill="#FEFFFE" transform="matrix(1.00, 0.00, -0.00, -1.00, 228.4, 44.7)"> </text><text xml:space="preserve" font-family="GillSans-Light,Gill Sans" font-size="31.5" fill="#FEFFFE" transform="matrix(1.00, 0.00, -0.00, -1.00, 237.2, 44.7)">m</text><text xml:space="preserve" font-family="GillSans-Light,Gill Sans" font-size="31.5" fill="#FEFFFE" transform="matrix(1.00, 0.00, -0.00, -1.00, 261.5, 44.7)">o</text><text xml:space="preserve" font-family="GillSans-Light,Gill Sans" font-size="31.5" fill="#FEFFFE" transform="matrix(1.00, 0.00, -0.00, -1.00, 278.5, 44.7)">t</text><text xml:space="preserve" font-family="GillSans-Light,Gill Sans" font-size="31.5" fill="#FEFFFE" transform="matrix(1.00, 0.00, -0.00, -1.00, 288.0, 44.7)">i</text><text xml:space="preserve" font-family="GillSans-Light,Gill Sans" font-size="31.5" fill="#FEFFFE" transform="matrix(1.00, 0.00, -0.00, -1.00, 294.0, 44.7)">o</text><text xml:space="preserve" font-family="GillSans-Light,Gill Sans" font-size="31.5" fill="#FEFFFE" transform="matrix(1.00, 0.00, -0.00, -1.00, 311.0, 44.7)">n</text><text xml:space="preserve" font-family="GillSans-Light,Gill Sans" font-size="31.5" fill="#FEFFFE" transform="matrix(1.00, 0.00, -0.00, -1.00, 326.5, 44.7)"> </text><text xml:space="preserve" font-family="GillSans-Light,Gill Sans" font-size="31.5" fill="#FEFFFE" transform="matrix(1.00, 0.00, -0.00, -1.00, 29.2, 8.7)">c</text><text xml:space="preserve" font-family="GillSans-Light,Gill Sans" font-size="31.5" fill="#FEFFFE" transform="matrix(1.00, 0.00, -0.00, -1.00, 42.3, 8.7)">o</text><text xml:space="preserve" font-family="GillSans-Light,Gill Sans" font-size="31.5" fill="#FEFFFE" transform="matrix(1.00, 0.00, -0.00, -1.00, 59.4, 8.7)">n</text><text xml:space="preserve" font-family="GillSans-Light,Gill Sans" font-size="31.5" fill="#FEFFFE" transform="matrix(1.00, 0.00, -0.00, -1.00, 74.8, 8.7)">t</text><text xml:space="preserve" font-family="GillSans-Light,Gill Sans" font-size="31.5" fill="#FEFFFE" transform="matrix(1.00, 0.00, -0.00, -1.00, 84.3, 8.7)">r</text><text xml:space="preserve" font-family="GillSans-Light,Gill Sans" font-size="31.5" fill="#FEFFFE" transform="matrix(1.00, 0.00, -0.00, -1.00, 94.8, 8.7)">o</text><text xml:space="preserve" font-family="GillSans-Light,Gill Sans" font-size="31.5" fill="#FEFFFE" transform="matrix(1.00, 0.00, -0.00, -1.00, 111.9, 8.7)">l</text><text xml:space="preserve" font-family="GillSans-Light,Gill Sans" font-size="31.5" fill="#FEFFFE" transform="matrix(1.00, 0.00, -0.00, -1.00, 117.8, 8.7)">l</text><text xml:space="preserve" font-family="GillSans-Light,Gill Sans" font-size="31.5" fill="#FEFFFE" transform="matrix(1.00, 0.00, -0.00, -1.00, 123.7, 8.7)">e</text><text xml:space="preserve" font-family="GillSans-Light,Gill Sans" font-size="31.5" fill="#FEFFFE" transform="matrix(1.00, 0.00, -0.00, -1.00, 138.8, 8.7)">d</text><text xml:space="preserve" font-family="GillSans-Light,Gill Sans" font-size="31.5" fill="#FEFFFE" transform="matrix(1.00, 0.00, -0.00, -1.00, 154.9, 8.7)"> </text><text xml:space="preserve" font-family="GillSans-Light,Gill Sans" font-size="31.5" fill="#FEFFFE" transform="matrix(1.00, 0.00, -0.00, -1.00, 163.6, 8.7)">b</text><text xml:space="preserve" font-family="GillSans-Light,Gill Sans" font-size="31.5" fill="#FEFFFE" transform="matrix(1.00, 0.00, -0.00, -1.00, 179.2, 8.7)">y</text><text xml:space="preserve" font-family="GillSans-Light,Gill Sans" font-size="31.5" fill="#FEFFFE" transform="matrix(1.00, 0.00, -0.00, -1.00, 192.3, 8.7)"> </text><text xml:space="preserve" font-family="GillSans-Light,Gill Sans" font-size="31.5" fill="#FEFFFE" transform="matrix(1.00, 0.00, -0.00, -1.00, 201.1, 8.7)">s</text><text xml:space="preserve" font-family="GillSans-Light,Gill Sans" font-size="31.5" fill="#FEFFFE" transform="matrix(1.00, 0.00, -0.00, -1.00, 212.2, 8.7)">p</text><text xml:space="preserve" font-family="GillSans-Light,Gill Sans" font-size="31.5" fill="#FEFFFE" transform="matrix(1.00, 0.00, -0.00, -1.00, 228.3, 8.7)">a</text><text xml:space="preserve" font-family="GillSans-Light,Gill Sans" font-size="31.5" fill="#FEFFFE" transform="matrix(1.00, 0.00, -0.00, -1.00, 241.7, 8.7)">c</text><text xml:space="preserve" font-family="GillSans-Light,Gill Sans" font-size="31.5" fill="#FEFFFE" transform="matrix(1.00, 0.00, -0.00, -1.00, 254.9, 8.7)">i</text><text xml:space="preserve" font-family="GillSans-Light,Gill Sans" font-size="31.5" fill="#FEFFFE" transform="matrix(1.00, 0.00, -0.00, -1.00, 260.8, 8.7)">n</text><text xml:space="preserve" font-family="GillSans-Light,Gill Sans" font-size="31.5" fill="#FEFFFE" transform="matrix(1.00, 0.00, -0.00, -1.00, 276.2, 8.7)">g</text></g></svg>