<?xml version="1.0" encoding="UTF-8" standalone="no"?><svg xmlns="http://www.w3.org/2000/svg" xmlns:xlink="http://www.w3.org/1999/xlink" clip-rule="evenodd" stroke-miterlimit="10" viewBox="0 0 336 70"><desc>SVG generated by Keynote</desc><defs></defs><g transform="matrix(1.00, 0.00, -0.00, -1.00, 0.0, 70.0)"><text xml:space="preserve" font-family="GillSans-Light,Gill Sans" font-size="25.8" fill="#FEFFFE" transform="matrix(1.00, 0.00, -0.00, -1.00, 1.0, 46.8)">•</text><text xml:space="preserve" font-family="GillSans-Light,Gill Sans" font-size="31.5" fill="#FEFFFE" transform="matrix(1.00, 0.00, -0.00, -1.00, 29.2, 44.7)">F</text><text xml:space="preserve" font-family="GillSans-Light,Gill Sans" font-size="31.5" fill="#FEFFFE" transform="matrix(1.00, 0.00, -0.00, -1.00, 43.0, 44.7)">i</text><text xml:space="preserve" font-family="GillSans-Light,Gill Sans" font-size="31.5" fill="#FEFFFE" transform="matrix(1.00, 0.00, -0.00, -1.00, 48.9, 44.7)">r</text><text xml:space="preserve" font-family="GillSans-Light,Gill Sans" font-size="31.5" fill="#FEFFFE" transform="matrix(1.00, 0.00, -0.00, -1.00, 60.7, 44.7)">s</text><text xml:space="preserve" font-family="GillSans-Light,Gill Sans" font-size="31.5" fill="#FEFFFE" transform="matrix(1.00, 0.00, -0.00, -1.00, 71.8, 44.7)">t</text><text xml:space="preserve" font-family="GillSans-Light,Gill Sans" font-size="31.5" fill="#FEFFFE" transform="matrix(1.00, 0.00, -0.00, -1.00, 81.3, 44.7)">-</text><text xml:space="preserve" font-family="GillSans-Light,Gill Sans" font-size="31.5" fill="#FEFFFE" transform="matrix(1.00, 0.00, -0.00, -1.00, 91.2, 44.7)">o</text><text xml:space="preserve" font-family="GillSans-Light,Gill Sans" font-size="31.5" fill="#FEFFFE" transform="matrix(1.00, 0.00, -0.00, -1.00, 108.2, 44.7)">r</text><text xml:space="preserve" font-family="GillSans-Light,Gill Sans" font-size="31.5" fill="#FEFFFE" transform="matrix(1.00, 0.00, -0.00, -1.00, 118.7, 44.7)">d</text><text xml:space="preserve" font-family="GillSans-Light,Gill Sans" font-size="31.5" fill="#FEFFFE" transform="matrix(1.00, 0.00, -0.00, -1.00, 134.8, 44.7)">e</text><text xml:space="preserve" font-family="GillSans-Light,Gill Sans" font-size="31.5" fill="#FEFFFE" transform="matrix(1.00, 0.00, -0.00, -1.00, 149.9, 44.7)">r</text><text xml:space="preserve" font-family="GillSans-Light,Gill Sans" font-size="31.5" fill="#FEFFFE" transform="matrix(1.00, 0.00, -0.00, -1.00, 160.4, 44.7)"> </text><text xml:space="preserve" font-family="GillSans-Light,Gill Sans" font-size="31.5" fill="#FEFFFE" transform="matrix(1.00, 0.00, -0.00, -1.00, 169.1, 44.7)">m</text><text xml:space="preserve" font-family="GillSans-Light,Gill Sans" font-size="31.5" fill="#FEFFFE" transform="matrix(1.00, 0.00, -0.00, -1.00, 193.4, 44.7)">o</text><text xml:space="preserve" font-family="GillSans-Light,Gill Sans" font-size="31.5" fill="#FEFFFE" transform="matrix(1.00, 0.00, -0.00, -1.00, 210.5, 44.7)">t</text><text xml:space="preserve" font-family="GillSans-Light,Gill Sans" font-size="31.5" fill="#FEFFFE" transform="matrix(1.00, 0.00, -0.00, -1.00, 220.0, 44.7)">i</text><text xml:space="preserve" font-family="GillSans-Light,Gill Sans" font-size="31.5" fill="#FEFFFE" transform="matrix(1.00, 0.00, -0.00, -1.00, 225.9, 44.7)">o</text><text xml:space="preserve" font-family="GillSans-Light,Gill Sans" font-size="31.5" fill="#FEFFFE" transform="matrix(1.00, 0.00, -0.00, -1.00, 243.0, 44.7)">n</text><text xml:space="preserve" font-family="GillSans-Light,Gill Sans" font-size="31.5" fill="#FEFFFE" transform="matrix(1.00, 0.00, -0.00, -1.00, 258.4, 44.7)"> </text><text xml:space="preserve" font-family="GillSans-Light,Gill Sans" font-size="31.5" fill="#FEFFFE" transform="matrix(1.00, 0.00, -0.00, -1.00, 267.1, 44.7)">p</text><text xml:space="preserve" font-family="GillSans-Light,Gill Sans" font-size="31.5" fill="#FEFFFE" transform="matrix(1.00, 0.00, -0.00, -1.00, 283.2, 44.7)">o</text><text xml:space="preserve" font-family="GillSans-Light,Gill Sans" font-size="31.5" fill="#FEFFFE" transform="matrix(1.00, 0.00, -0.00, -1.00, 300.3, 44.7)">o</text><text xml:space="preserve" font-family="GillSans-Light,Gill Sans" font-size="31.5" fill="#FEFFFE" transform="matrix(1.00, 0.00, -0.00, -1.00, 317.3, 44.7)">l</text><text xml:space="preserve" font-family="GillSans-Light,Gill Sans" font-size="31.5" fill="#FEFFFE" transform="matrix(1.00, 0.00, -0.00, -1.00, 323.3, 44.7)">s</text><text xml:space="preserve" font-family="GillSans-Light,Gill Sans" font-size="31.5" fill="#FEFFFE" transform="matrix(1.00, 0.00, -0.00, -1.00, 334.4, 44.7)"> </text><text xml:space="preserve" font-family="GillSans-Light,Gill Sans" font-size="31.5" fill="#FEFFFE" transform="matrix(1.00, 0.00, -0.00, -1.00, 29.2, 8.7)">l</text><text xml:space="preserve" font-family="GillSans-Light,Gill Sans" font-size="31.5" fill="#FEFFFE" transform="matrix(1.00, 0.00, -0.00, -1.00, 35.1, 8.7)">i</text><text xml:space="preserve" font-family="GillSans-Light,Gill Sans" font-size="31.5" fill="#FEFFFE" transform="matrix(1.00, 0.00, -0.00, -1.00, 41.0, 8.7)">n</text><text xml:space="preserve" font-family="GillSans-Light,Gill Sans" font-size="31.5" fill="#FEFFFE" transform="matrix(1.00, 0.00, -0.00, -1.00, 56.5, 8.7)">e</text><text xml:space="preserve" font-family="GillSans-Light,Gill Sans" font-size="31.5" fill="#FEFFFE" transform="matrix(1.00, 0.00, -0.00, -1.00, 71.6, 8.7)">a</text><text xml:space="preserve" font-family="GillSans-Light,Gill Sans" font-size="31.5" fill="#FEFFFE" transform="matrix(1.00, 0.00, -0.00, -1.00, 85.0, 8.7)">r</text><text xml:space="preserve" font-family="GillSans-Light,Gill Sans" font-size="31.5" fill="#FEFFFE" transform="matrix(1.00, 0.00, -0.00, -1.00, 96.8, 8.7)">l</text><text xml:space="preserve" font-family="GillSans-Light,Gill Sans" font-size="31.5" fill="#FEFFFE" transform="matrix(1.00, 0.00, -0.00, -1.00, 102.4, 8.7)">y</text><text xml:space="preserve" font-family="GillSans-Light,Gill Sans" font-size="31.5" fill="#FEFFFE" transform="matrix(1.00, 0.00, -0.00, -1.00, 112.7, 8.7)">,</text><text xml:space="preserve" font-family="GillSans-Light,Gill Sans" font-size="31.5" fill="#FEFFFE" transform="matrix(1.00, 0.00, -0.00, -1.00, 115.7, 8.7)"> </text><text xml:space="preserve" font-family="GillSans-Light,Gill Sans" font-size="31.5" fill="#FEFFFE" transform="matrix(1.00, 0.00, -0.00, -1.00, 124.5, 8.7)">g</text><text xml:space="preserve" font-family="GillSans-Light,Gill Sans" font-size="31.5" fill="#FEFFFE" transform="matrix(1.00, 0.00, -0.00, -1.00, 137.9, 8.7)">l</text><text xml:space="preserve" font-family="GillSans-Light,Gill Sans" font-size="31.5" fill="#FEFFFE" transform="matrix(1.00, 0.00, -0.00, -1.00, 143.8, 8.7)">o</text><text xml:space="preserve" font-family="GillSans-Light,Gill Sans" font-size="31.5" fill="#FEFFFE" transform="matrix(1.00, 0.00, -0.00, -1.00, 160.9, 8.7)">b</text><text xml:space="preserve" font-family="GillSans-Light,Gill Sans" font-size="31.5" fill="#FEFFFE" transform="matrix(1.00, 0.00, -0.00, -1.00, 176.9, 8.7)">a</text><text xml:space="preserve" font-family="GillSans-Light,Gill Sans" font-size="31.5" fill="#FEFFFE" transform="matrix(1.00, 0.00, -0.00, -1.00, 190.4, 8.7)">l</text><text xml:space="preserve" font-family="GillSans-Light,Gill Sans" font-size="31.5" fill="#FEFFFE" transform="matrix(1.00, 0.00, -0.00, -1.00, 196.3, 8.7)">l</text><text xml:space="preserve" font-family="GillSans-Light,Gill Sans" font-size="31.5" fill="#FEFFFE" transform="matrix(1.00, 0.00, -0.00, -1.00, 201.9, 8.7)">y</text></g></svg>