<?xml version="1.0" encoding="UTF-8" standalone="no"?><svg xmlns="http://www.w3.org/2000/svg" xmlns:xlink="http://www.w3.org/1999/xlink" clip-rule="evenodd" stroke-miterlimit="10" viewBox="0 0 381 70"><desc>SVG generated by Keynote</desc><defs></defs><g transform="matrix(1.00, 0.00, -0.00, -1.00, 0.0, 70.0)"><text xml:space="preserve" font-family="GillSans-Light,Gill Sans" font-size="25.8" fill="#FEFFFE" transform="matrix(1.00, 0.00, -0.00, -1.00, 1.0, 46.9)">•</text><text xml:space="preserve" font-family="GillSans-Light,Gill Sans" font-size="31.5" fill="#FEFFFE" transform="matrix(1.00, 0.00, -0.00, -1.00, 29.2, 44.7)">B</text><text xml:space="preserve" font-family="GillSans-Light,Gill Sans" font-size="31.5" fill="#FEFFFE" transform="matrix(1.00, 0.00, -0.00, -1.00, 45.9, 44.7)">i</text><text xml:space="preserve" font-family="GillSans-Light,Gill Sans" font-size="31.5" fill="#FEFFFE" transform="matrix(1.00, 0.00, -0.00, -1.00, 51.8, 44.7)">a</text><text xml:space="preserve" font-family="GillSans-Light,Gill Sans" font-size="31.5" fill="#FEFFFE" transform="matrix(1.00, 0.00, -0.00, -1.00, 65.3, 44.7)">s</text><text xml:space="preserve" font-family="GillSans-Light,Gill Sans" font-size="31.5" fill="#FEFFFE" transform="matrix(1.00, 0.00, -0.00, -1.00, 76.4, 44.7)"> </text><text xml:space="preserve" font-family="GillSans-Light,Gill Sans" font-size="31.5" fill="#FEFFFE" transform="matrix(1.00, 0.00, -0.00, -1.00, 85.2, 44.7)">t</text><text xml:space="preserve" font-family="GillSans-Light,Gill Sans" font-size="31.5" fill="#FEFFFE" transform="matrix(1.00, 0.00, -0.00, -1.00, 94.7, 44.7)">o</text><text xml:space="preserve" font-family="GillSans-Light,Gill Sans" font-size="31.5" fill="#FEFFFE" transform="matrix(1.00, 0.00, -0.00, -1.00, 111.7, 44.7)"> </text><text xml:space="preserve" font-family="GillSans-Light,Gill Sans" font-size="31.5" fill="#FEFFFE" transform="matrix(1.00, 0.00, -0.00, -1.00, 120.5, 44.7)">r</text><text xml:space="preserve" font-family="GillSans-Light,Gill Sans" font-size="31.5" fill="#FEFFFE" transform="matrix(1.00, 0.00, -0.00, -1.00, 131.0, 44.7)">e</text><text xml:space="preserve" font-family="GillSans-Light,Gill Sans" font-size="31.5" fill="#FEFFFE" transform="matrix(1.00, 0.00, -0.00, -1.00, 146.0, 44.7)">s</text><text xml:space="preserve" font-family="GillSans-Light,Gill Sans" font-size="31.5" fill="#FEFFFE" transform="matrix(1.00, 0.00, -0.00, -1.00, 157.2, 44.7)">p</text><text xml:space="preserve" font-family="GillSans-Light,Gill Sans" font-size="31.5" fill="#FEFFFE" transform="matrix(1.00, 0.00, -0.00, -1.00, 173.2, 44.7)">o</text><text xml:space="preserve" font-family="GillSans-Light,Gill Sans" font-size="31.5" fill="#FEFFFE" transform="matrix(1.00, 0.00, -0.00, -1.00, 190.3, 44.7)">n</text><text xml:space="preserve" font-family="GillSans-Light,Gill Sans" font-size="31.5" fill="#FEFFFE" transform="matrix(1.00, 0.00, -0.00, -1.00, 205.8, 44.7)">d</text><text xml:space="preserve" font-family="GillSans-Light,Gill Sans" font-size="31.5" fill="#FEFFFE" transform="matrix(1.00, 0.00, -0.00, -1.00, 221.8, 44.7)"> </text><text xml:space="preserve" font-family="GillSans-LightItalic,Gill Sans" font-style="italic" font-size="31.5" fill="#FEFFFE" transform="matrix(1.00, 0.00, -0.00, -1.00, 230.6, 44.7)">a</text><text xml:space="preserve" font-family="GillSans-LightItalic,Gill Sans" font-style="italic" font-size="31.5" fill="#FEFFFE" transform="matrix(1.00, 0.00, -0.00, -1.00, 245.7, 44.7)">g</text><text xml:space="preserve" font-family="GillSans-LightItalic,Gill Sans" font-style="italic" font-size="31.5" fill="#FEFFFE" transform="matrix(1.00, 0.00, -0.00, -1.00, 259.1, 44.7)">a</text><text xml:space="preserve" font-family="GillSans-LightItalic,Gill Sans" font-style="italic" font-size="31.5" fill="#FEFFFE" transform="matrix(1.00, 0.00, -0.00, -1.00, 274.2, 44.7)">i</text><text xml:space="preserve" font-family="GillSans-LightItalic,Gill Sans" font-style="italic" font-size="31.5" fill="#FEFFFE" transform="matrix(1.00, 0.00, -0.00, -1.00, 279.8, 44.7)">n</text><text xml:space="preserve" font-family="GillSans-LightItalic,Gill Sans" font-style="italic" font-size="31.5" fill="#FEFFFE" transform="matrix(1.00, 0.00, -0.00, -1.00, 294.2, 44.7)">s</text><text xml:space="preserve" font-family="GillSans-LightItalic,Gill Sans" font-style="italic" font-size="31.5" fill="#FEFFFE" transform="matrix(1.00, 0.00, -0.00, -1.00, 305.4, 44.7)">t</text><text xml:space="preserve" font-family="GillSans-LightItalic,Gill Sans" font-style="italic" font-size="31.5" fill="#FEFFFE" transform="matrix(1.00, 0.00, -0.00, -1.00, 314.2, 44.7)"> </text><text xml:space="preserve" font-family="GillSans-Light,Gill Sans" font-size="31.5" fill="#FEFFFE" transform="matrix(1.00, 0.00, -0.00, -1.00, 323.0, 44.7)">ﬁ</text><text xml:space="preserve" font-family="GillSans-Light,Gill Sans" font-size="31.5" fill="#FEFFFE" transform="matrix(1.00, 0.00, -0.00, -1.00, 338.1, 44.7)">r</text><text xml:space="preserve" font-family="GillSans-Light,Gill Sans" font-size="31.5" fill="#FEFFFE" transform="matrix(1.00, 0.00, -0.00, -1.00, 349.8, 44.7)">s</text><text xml:space="preserve" font-family="GillSans-Light,Gill Sans" font-size="31.5" fill="#FEFFFE" transform="matrix(1.00, 0.00, -0.00, -1.00, 361.0, 44.7)">t</text><text xml:space="preserve" font-family="GillSans-Light,Gill Sans" font-size="31.5" fill="#FEFFFE" transform="matrix(1.00, 0.00, -0.00, -1.00, 370.5, 44.7)">-</text><text xml:space="preserve" font-family="GillSans-Light,Gill Sans" font-size="31.5" fill="#FEFFFE" transform="matrix(1.00, 0.00, -0.00, -1.00, 29.2, 8.7)">o</text><text xml:space="preserve" font-family="GillSans-Light,Gill Sans" font-size="31.5" fill="#FEFFFE" transform="matrix(1.00, 0.00, -0.00, -1.00, 46.3, 8.7)">r</text><text xml:space="preserve" font-family="GillSans-Light,Gill Sans" font-size="31.5" fill="#FEFFFE" transform="matrix(1.00, 0.00, -0.00, -1.00, 56.7, 8.7)">d</text><text xml:space="preserve" font-family="GillSans-Light,Gill Sans" font-size="31.5" fill="#FEFFFE" transform="matrix(1.00, 0.00, -0.00, -1.00, 72.8, 8.7)">e</text><text xml:space="preserve" font-family="GillSans-Light,Gill Sans" font-size="31.5" fill="#FEFFFE" transform="matrix(1.00, 0.00, -0.00, -1.00, 87.9, 8.7)">r</text><text xml:space="preserve" font-family="GillSans-Light,Gill Sans" font-size="31.5" fill="#FEFFFE" transform="matrix(1.00, 0.00, -0.00, -1.00, 98.4, 8.7)"> </text><text xml:space="preserve" font-family="GillSans-Light,Gill Sans" font-size="31.5" fill="#FEFFFE" transform="matrix(1.00, 0.00, -0.00, -1.00, 107.1, 8.7)">m</text><text xml:space="preserve" font-family="GillSans-Light,Gill Sans" font-size="31.5" fill="#FEFFFE" transform="matrix(1.00, 0.00, -0.00, -1.00, 131.4, 8.7)">o</text><text xml:space="preserve" font-family="GillSans-Light,Gill Sans" font-size="31.5" fill="#FEFFFE" transform="matrix(1.00, 0.00, -0.00, -1.00, 148.5, 8.7)">t</text><text xml:space="preserve" font-family="GillSans-Light,Gill Sans" font-size="31.5" fill="#FEFFFE" transform="matrix(1.00, 0.00, -0.00, -1.00, 158.0, 8.7)">i</text><text xml:space="preserve" font-family="GillSans-Light,Gill Sans" font-size="31.5" fill="#FEFFFE" transform="matrix(1.00, 0.00, -0.00, -1.00, 163.9, 8.7)">o</text><text xml:space="preserve" font-family="GillSans-Light,Gill Sans" font-size="31.5" fill="#FEFFFE" transform="matrix(1.00, 0.00, -0.00, -1.00, 181.0, 8.7)">n</text><text xml:space="preserve" font-family="GillSans-Light,Gill Sans" font-size="31.5" fill="#FEFFFE" transform="matrix(1.00, 0.00, -0.00, -1.00, 196.4, 8.7)"> </text><text xml:space="preserve" font-family="GillSans-Light,Gill Sans" font-size="31.5" fill="#FEFFFE" transform="matrix(1.00, 0.00, -0.00, -1.00, 205.2, 8.7)">(</text><text xml:space="preserve" font-family="GillSans-Light,Gill Sans" font-size="31.5" fill="#FEFFFE" transform="matrix(1.00, 0.00, -0.00, -1.00, 215.7, 8.7)">r</text><text xml:space="preserve" font-family="GillSans-Light,Gill Sans" font-size="31.5" fill="#FEFFFE" transform="matrix(1.00, 0.00, -0.00, -1.00, 226.1, 8.7)">e</text><text xml:space="preserve" font-family="GillSans-Light,Gill Sans" font-size="31.5" fill="#FEFFFE" transform="matrix(1.00, 0.00, -0.00, -1.00, 241.2, 8.7)">p</text><text xml:space="preserve" font-family="GillSans-Light,Gill Sans" font-size="31.5" fill="#FEFFFE" transform="matrix(1.00, 0.00, -0.00, -1.00, 257.3, 8.7)">u</text><text xml:space="preserve" font-family="GillSans-Light,Gill Sans" font-size="31.5" fill="#FEFFFE" transform="matrix(1.00, 0.00, -0.00, -1.00, 272.7, 8.7)">l</text><text xml:space="preserve" font-family="GillSans-Light,Gill Sans" font-size="31.5" fill="#FEFFFE" transform="matrix(1.00, 0.00, -0.00, -1.00, 278.7, 8.7)">s</text><text xml:space="preserve" font-family="GillSans-Light,Gill Sans" font-size="31.5" fill="#FEFFFE" transform="matrix(1.00, 0.00, -0.00, -1.00, 289.8, 8.7)">i</text><text xml:space="preserve" font-family="GillSans-Light,Gill Sans" font-size="31.5" fill="#FEFFFE" transform="matrix(1.00, 0.00, -0.00, -1.00, 295.7, 8.7)">o</text><text xml:space="preserve" font-family="GillSans-Light,Gill Sans" font-size="31.5" fill="#FEFFFE" transform="matrix(1.00, 0.00, -0.00, -1.00, 312.8, 8.7)">n</text><text xml:space="preserve" font-family="GillSans-Light,Gill Sans" font-size="31.5" fill="#FEFFFE" transform="matrix(1.00, 0.00, -0.00, -1.00, 328.3, 8.7)">)</text></g></svg>