<?xml version="1.0" encoding="UTF-8" standalone="no"?><svg xmlns="http://www.w3.org/2000/svg" xmlns:xlink="http://www.w3.org/1999/xlink" clip-rule="evenodd" stroke-miterlimit="10" viewBox="0 0 856 159"><desc>SVG generated by Keynote</desc><defs></defs><g transform="matrix(1.00, 0.00, -0.00, -1.00, 0.0, 159.0)"><text xml:space="preserve" font-family="GillSans-Light,Gill Sans" font-size="30.5" fill="#FEFFFE" transform="matrix(1.00, 0.00, -0.00, -1.00, 1.0, 99.1)">•</text><text xml:space="preserve" font-family="GillSans-Light,Gill Sans" font-size="37.2" fill="#FEFFFE" transform="matrix(1.00, 0.00, -0.00, -1.00, 34.2, 96.7)">C</text><text xml:space="preserve" font-family="GillSans-Light,Gill Sans" font-size="37.2" fill="#FEFFFE" transform="matrix(1.00, 0.00, -0.00, -1.00, 59.3, 96.7)">r</text><text xml:space="preserve" font-family="GillSans-Light,Gill Sans" font-size="37.2" fill="#FEFFFE" transform="matrix(1.00, 0.00, -0.00, -1.00, 71.7, 96.7)">o</text><text xml:space="preserve" font-family="GillSans-Light,Gill Sans" font-size="37.2" fill="#FEFFFE" transform="matrix(1.00, 0.00, -0.00, -1.00, 91.3, 96.7)">w</text><text xml:space="preserve" font-family="GillSans-Light,Gill Sans" font-size="37.2" fill="#FEFFFE" transform="matrix(1.00, 0.00, -0.00, -1.00, 117.7, 96.7)">d</text><text xml:space="preserve" font-family="GillSans-Light,Gill Sans" font-size="37.2" fill="#FEFFFE" transform="matrix(1.00, 0.00, -0.00, -1.00, 136.6, 96.7)">i</text><text xml:space="preserve" font-family="GillSans-Light,Gill Sans" font-size="37.2" fill="#FEFFFE" transform="matrix(1.00, 0.00, -0.00, -1.00, 143.6, 96.7)">n</text><text xml:space="preserve" font-family="GillSans-Light,Gill Sans" font-size="37.2" fill="#FEFFFE" transform="matrix(1.00, 0.00, -0.00, -1.00, 161.8, 96.7)">g</text><text xml:space="preserve" font-family="GillSans-Light,Gill Sans" font-size="37.2" fill="#FEFFFE" transform="matrix(1.00, 0.00, -0.00, -1.00, 177.7, 96.7)"> </text><text xml:space="preserve" font-family="GillSans-Light,Gill Sans" font-size="37.2" fill="#FEFFFE" transform="matrix(1.00, 0.00, -0.00, -1.00, 188.1, 96.7)">r</text><text xml:space="preserve" font-family="GillSans-Light,Gill Sans" font-size="37.2" fill="#FEFFFE" transform="matrix(1.00, 0.00, -0.00, -1.00, 200.4, 96.7)">e</text><text xml:space="preserve" font-family="GillSans-Light,Gill Sans" font-size="37.2" fill="#FEFFFE" transform="matrix(1.00, 0.00, -0.00, -1.00, 218.3, 96.7)">d</text><text xml:space="preserve" font-family="GillSans-Light,Gill Sans" font-size="37.2" fill="#FEFFFE" transform="matrix(1.00, 0.00, -0.00, -1.00, 237.2, 96.7)">u</text><text xml:space="preserve" font-family="GillSans-Light,Gill Sans" font-size="37.2" fill="#FEFFFE" transform="matrix(1.00, 0.00, -0.00, -1.00, 255.5, 96.7)">c</text><text xml:space="preserve" font-family="GillSans-Light,Gill Sans" font-size="37.2" fill="#FEFFFE" transform="matrix(1.00, 0.00, -0.00, -1.00, 271.0, 96.7)">e</text><text xml:space="preserve" font-family="GillSans-Light,Gill Sans" font-size="37.2" fill="#FEFFFE" transform="matrix(1.00, 0.00, -0.00, -1.00, 288.8, 96.7)">s</text><text xml:space="preserve" font-family="GillSans-LightItalic,Gill Sans" font-style="italic" font-size="37.2" fill="#FEFFFE" transform="matrix(1.00, 0.00, -0.00, -1.00, 302.0, 96.7)"> </text><text xml:space="preserve" font-family="GillSans-Light,Gill Sans" font-size="37.2" fill="#FEFFFE" transform="matrix(1.00, 0.00, -0.00, -1.00, 312.3, 96.7)">s</text><text xml:space="preserve" font-family="GillSans-Light,Gill Sans" font-size="37.2" fill="#FEFFFE" transform="matrix(1.00, 0.00, -0.00, -1.00, 325.5, 96.7)">e</text><text xml:space="preserve" font-family="GillSans-Light,Gill Sans" font-size="37.2" fill="#FEFFFE" transform="matrix(1.00, 0.00, -0.00, -1.00, 343.3, 96.7)">n</text><text xml:space="preserve" font-family="GillSans-Light,Gill Sans" font-size="37.2" fill="#FEFFFE" transform="matrix(1.00, 0.00, -0.00, -1.00, 361.5, 96.7)">s</text><text xml:space="preserve" font-family="GillSans-Light,Gill Sans" font-size="37.2" fill="#FEFFFE" transform="matrix(1.00, 0.00, -0.00, -1.00, 374.7, 96.7)">i</text><text xml:space="preserve" font-family="GillSans-Light,Gill Sans" font-size="37.2" fill="#FEFFFE" transform="matrix(1.00, 0.00, -0.00, -1.00, 381.7, 96.7)">t</text><text xml:space="preserve" font-family="GillSans-Light,Gill Sans" font-size="37.2" fill="#FEFFFE" transform="matrix(1.00, 0.00, -0.00, -1.00, 392.9, 96.7)">i</text><text xml:space="preserve" font-family="GillSans-Light,Gill Sans" font-size="37.2" fill="#FEFFFE" transform="matrix(1.00, 0.00, -0.00, -1.00, 399.9, 96.7)">v</text><text xml:space="preserve" font-family="GillSans-Light,Gill Sans" font-size="37.2" fill="#FEFFFE" transform="matrix(1.00, 0.00, -0.00, -1.00, 415.8, 96.7)">i</text><text xml:space="preserve" font-family="GillSans-Light,Gill Sans" font-size="37.2" fill="#FEFFFE" transform="matrix(1.00, 0.00, -0.00, -1.00, 422.8, 96.7)">t</text><text xml:space="preserve" font-family="GillSans-Light,Gill Sans" font-size="37.2" fill="#FEFFFE" transform="matrix(1.00, 0.00, -0.00, -1.00, 434.0, 96.7)">y</text><text xml:space="preserve" font-family="GillSans-Light,Gill Sans" font-size="37.2" fill="#FEFFFE" transform="matrix(1.00, 0.00, -0.00, -1.00, 449.5, 96.7)"> </text><text xml:space="preserve" font-family="GillSans-Light,Gill Sans" font-size="37.2" fill="#FEFFFE" transform="matrix(1.00, 0.00, -0.00, -1.00, 459.8, 96.7)">t</text><text xml:space="preserve" font-family="GillSans-Light,Gill Sans" font-size="37.2" fill="#FEFFFE" transform="matrix(1.00, 0.00, -0.00, -1.00, 471.0, 96.7)">o</text><text xml:space="preserve" font-family="GillSans-Light,Gill Sans" font-size="37.2" fill="#FEFFFE" transform="matrix(1.00, 0.00, -0.00, -1.00, 491.2, 96.7)"> </text><text xml:space="preserve" font-family="GillSans-Light,Gill Sans" font-size="37.2" fill="#FEFFFE" transform="matrix(1.00, 0.00, -0.00, -1.00, 501.5, 96.7)">p</text><text xml:space="preserve" font-family="GillSans-Light,Gill Sans" font-size="37.2" fill="#FEFFFE" transform="matrix(1.00, 0.00, -0.00, -1.00, 520.5, 96.7)">o</text><text xml:space="preserve" font-family="GillSans-Light,Gill Sans" font-size="37.2" fill="#FEFFFE" transform="matrix(1.00, 0.00, -0.00, -1.00, 540.7, 96.7)">s</text><text xml:space="preserve" font-family="GillSans-Light,Gill Sans" font-size="37.2" fill="#FEFFFE" transform="matrix(1.00, 0.00, -0.00, -1.00, 553.8, 96.7)">i</text><text xml:space="preserve" font-family="GillSans-Light,Gill Sans" font-size="37.2" fill="#FEFFFE" transform="matrix(1.00, 0.00, -0.00, -1.00, 560.8, 96.7)">t</text><text xml:space="preserve" font-family="GillSans-Light,Gill Sans" font-size="37.2" fill="#FEFFFE" transform="matrix(1.00, 0.00, -0.00, -1.00, 572.0, 96.7)">i</text><text xml:space="preserve" font-family="GillSans-Light,Gill Sans" font-size="37.2" fill="#FEFFFE" transform="matrix(1.00, 0.00, -0.00, -1.00, 579.0, 96.7)">o</text><text xml:space="preserve" font-family="GillSans-Light,Gill Sans" font-size="37.2" fill="#FEFFFE" transform="matrix(1.00, 0.00, -0.00, -1.00, 599.2, 96.7)">n</text><text xml:space="preserve" font-family="GillSans-Light,Gill Sans" font-size="37.2" fill="#FEFFFE" transform="matrix(1.00, 0.00, -0.00, -1.00, 617.4, 96.7)">-</text><text xml:space="preserve" font-family="GillSans-Light,Gill Sans" font-size="37.2" fill="#FEFFFE" transform="matrix(1.00, 0.00, -0.00, -1.00, 629.1, 96.7)">d</text><text xml:space="preserve" font-family="GillSans-Light,Gill Sans" font-size="37.2" fill="#FEFFFE" transform="matrix(1.00, 0.00, -0.00, -1.00, 648.0, 96.7)">e</text><text xml:space="preserve" font-family="GillSans-Light,Gill Sans" font-size="37.2" fill="#FEFFFE" transform="matrix(1.00, 0.00, -0.00, -1.00, 665.9, 96.7)">ﬁ</text><text xml:space="preserve" font-family="GillSans-Light,Gill Sans" font-size="37.2" fill="#FEFFFE" transform="matrix(1.00, 0.00, -0.00, -1.00, 683.7, 96.7)">n</text><text xml:space="preserve" font-family="GillSans-Light,Gill Sans" font-size="37.2" fill="#FEFFFE" transform="matrix(1.00, 0.00, -0.00, -1.00, 701.9, 96.7)">e</text><text xml:space="preserve" font-family="GillSans-Light,Gill Sans" font-size="37.2" fill="#FEFFFE" transform="matrix(1.00, 0.00, -0.00, -1.00, 719.7, 96.7)">d</text><text xml:space="preserve" font-family="GillSans-Light,Gill Sans" font-size="37.2" fill="#FEFFFE" transform="matrix(1.00, 0.00, -0.00, -1.00, 738.7, 96.7)"> </text><text xml:space="preserve" font-family="GillSans-Light,Gill Sans" font-size="37.2" fill="#FEFFFE" transform="matrix(1.00, 0.00, -0.00, -1.00, 749.0, 96.7)">m</text><text xml:space="preserve" font-family="GillSans-Light,Gill Sans" font-size="37.2" fill="#FEFFFE" transform="matrix(1.00, 0.00, -0.00, -1.00, 777.7, 96.7)">o</text><text xml:space="preserve" font-family="GillSans-Light,Gill Sans" font-size="37.2" fill="#FEFFFE" transform="matrix(1.00, 0.00, -0.00, -1.00, 797.9, 96.7)">t</text><text xml:space="preserve" font-family="GillSans-Light,Gill Sans" font-size="37.2" fill="#FEFFFE" transform="matrix(1.00, 0.00, -0.00, -1.00, 809.1, 96.7)">i</text><text xml:space="preserve" font-family="GillSans-Light,Gill Sans" font-size="37.2" fill="#FEFFFE" transform="matrix(1.00, 0.00, -0.00, -1.00, 816.1, 96.7)">o</text><text xml:space="preserve" font-family="GillSans-Light,Gill Sans" font-size="37.2" fill="#FEFFFE" transform="matrix(1.00, 0.00, -0.00, -1.00, 836.2, 96.7)">n</text><text xml:space="preserve" font-family="GillSans-Light,Gill Sans" font-size="37.2" fill="#FEFFFE" transform="matrix(1.00, 0.00, -0.00, -1.00, 854.5, 96.7)">	</text><text xml:space="preserve" font-family="GillSans-Light,Gill Sans" font-size="37.2" fill="#FEFFFE" transform="matrix(1.00, 0.00, -0.00, -1.00, 882.5, 96.7)">
</text><text xml:space="preserve" font-family="GillSans-Light,Gill Sans" font-size="37.2" fill="#FEFFFE" transform="matrix(1.00, 0.00, -0.00, -1.00, 882.5, 96.7)"></text><g><clipPath id="clip0x61000b8bce60"><path d="M 187.1 92.0 L 302.0 92.0 L 302.0 95.9 L 187.1 95.9 Z M 187.1 92.0 "></path></clipPath><g clip-path="url(#clip0x61000b8bce60)"><path d="M 191.1 122.9 L 305.0 122.9 " fill="none" stroke="#FEFFFE" stroke-width="1.85" transform="matrix(1.00, 0.00, 0.00, -1.00, -3.0, 216.8)"></path></g></g><text xml:space="preserve" font-family="GillSans-Light,Gill Sans" font-size="30.5" fill="#FEFFFE" transform="matrix(1.00, 0.00, -0.00, -1.00, 42.0, 20.2)">•</text><text xml:space="preserve" font-family="GillSans-Light,Gill Sans" font-size="37.2" fill="#FEFFFE" transform="matrix(1.00, 0.00, -0.00, -1.00, 75.2, 17.8)">d</text><text xml:space="preserve" font-family="GillSans-Light,Gill Sans" font-size="37.2" fill="#FEFFFE" transform="matrix(1.00, 0.00, -0.00, -1.00, 94.1, 17.8)">e</text><text xml:space="preserve" font-family="GillSans-Light,Gill Sans" font-size="37.2" fill="#FEFFFE" transform="matrix(1.00, 0.00, -0.00, -1.00, 111.9, 17.8)">p</text><text xml:space="preserve" font-family="GillSans-Light,Gill Sans" font-size="37.2" fill="#FEFFFE" transform="matrix(1.00, 0.00, -0.00, -1.00, 130.9, 17.8)">e</text><text xml:space="preserve" font-family="GillSans-Light,Gill Sans" font-size="37.2" fill="#FEFFFE" transform="matrix(1.00, 0.00, -0.00, -1.00, 148.7, 17.8)">n</text><text xml:space="preserve" font-family="GillSans-Light,Gill Sans" font-size="37.2" fill="#FEFFFE" transform="matrix(1.00, 0.00, -0.00, -1.00, 167.0, 17.8)">d</text><text xml:space="preserve" font-family="GillSans-Light,Gill Sans" font-size="37.2" fill="#FEFFFE" transform="matrix(1.00, 0.00, -0.00, -1.00, 185.9, 17.8)">s</text><text xml:space="preserve" font-family="GillSans-Light,Gill Sans" font-size="37.2" fill="#FEFFFE" transform="matrix(1.00, 0.00, -0.00, -1.00, 199.1, 17.8)"> </text><text xml:space="preserve" font-family="GillSans-Light,Gill Sans" font-size="37.2" fill="#FEFFFE" transform="matrix(1.00, 0.00, -0.00, -1.00, 209.4, 17.8)">o</text><text xml:space="preserve" font-family="GillSans-Light,Gill Sans" font-size="37.2" fill="#FEFFFE" transform="matrix(1.00, 0.00, -0.00, -1.00, 229.6, 17.8)">n</text><text xml:space="preserve" font-family="GillSans-Light,Gill Sans" font-size="37.2" fill="#FEFFFE" transform="matrix(1.00, 0.00, -0.00, -1.00, 247.8, 17.8)"> </text><text xml:space="preserve" font-family="GillSans-Light,Gill Sans" font-size="37.2" fill="#FEFFFE" transform="matrix(1.00, 0.00, -0.00, -1.00, 258.2, 17.8)">p</text><text xml:space="preserve" font-family="GillSans-Light,Gill Sans" font-size="37.2" fill="#FEFFFE" transform="matrix(1.00, 0.00, -0.00, -1.00, 277.1, 17.8)">r</text><text xml:space="preserve" font-family="GillSans-Light,Gill Sans" font-size="37.2" fill="#FEFFFE" transform="matrix(1.00, 0.00, -0.00, -1.00, 289.5, 17.8)">o</text><text xml:space="preserve" font-family="GillSans-Light,Gill Sans" font-size="37.2" fill="#FEFFFE" transform="matrix(1.00, 0.00, -0.00, -1.00, 308.9, 17.8)">x</text><text xml:space="preserve" font-family="GillSans-Light,Gill Sans" font-size="37.2" fill="#FEFFFE" transform="matrix(1.00, 0.00, -0.00, -1.00, 326.7, 17.8)">i</text><text xml:space="preserve" font-family="GillSans-Light,Gill Sans" font-size="37.2" fill="#FEFFFE" transform="matrix(1.00, 0.00, -0.00, -1.00, 333.7, 17.8)">m</text><text xml:space="preserve" font-family="GillSans-Light,Gill Sans" font-size="37.2" fill="#FEFFFE" transform="matrix(1.00, 0.00, -0.00, -1.00, 362.4, 17.8)">i</text><text xml:space="preserve" font-family="GillSans-Light,Gill Sans" font-size="37.2" fill="#FEFFFE" transform="matrix(1.00, 0.00, -0.00, -1.00, 369.4, 17.8)">t</text><text xml:space="preserve" font-family="GillSans-Light,Gill Sans" font-size="37.2" fill="#FEFFFE" transform="matrix(1.00, 0.00, -0.00, -1.00, 380.6, 17.8)">y</text><text xml:space="preserve" font-family="GillSans-LightItalic,Gill Sans" font-style="italic" font-size="37.2" fill="#FEFFFE" transform="matrix(1.00, 0.00, -0.00, -1.00, 396.2, 17.8)"> </text><text xml:space="preserve" font-family="GillSans-Light,Gill Sans" font-size="37.2" fill="#FEFFFE" transform="matrix(1.00, 0.00, -0.00, -1.00, 406.5, 17.8)">b</text><text xml:space="preserve" font-family="GillSans-Light,Gill Sans" font-size="37.2" fill="#FEFFFE" transform="matrix(1.00, 0.00, -0.00, -1.00, 425.4, 17.8)">e</text><text xml:space="preserve" font-family="GillSans-Light,Gill Sans" font-size="37.2" fill="#FEFFFE" transform="matrix(1.00, 0.00, -0.00, -1.00, 443.3, 17.8)">t</text><text xml:space="preserve" font-family="GillSans-Light,Gill Sans" font-size="37.2" fill="#FEFFFE" transform="matrix(1.00, 0.00, -0.00, -1.00, 454.5, 17.8)">w</text><text xml:space="preserve" font-family="GillSans-Light,Gill Sans" font-size="37.2" fill="#FEFFFE" transform="matrix(1.00, 0.00, -0.00, -1.00, 480.3, 17.8)">e</text><text xml:space="preserve" font-family="GillSans-Light,Gill Sans" font-size="37.2" fill="#FEFFFE" transform="matrix(1.00, 0.00, -0.00, -1.00, 498.1, 17.8)">e</text><text xml:space="preserve" font-family="GillSans-Light,Gill Sans" font-size="37.2" fill="#FEFFFE" transform="matrix(1.00, 0.00, -0.00, -1.00, 515.9, 17.8)">n</text><text xml:space="preserve" font-family="GillSans-Light,Gill Sans" font-size="37.2" fill="#FEFFFE" transform="matrix(1.00, 0.00, -0.00, -1.00, 534.1, 17.8)"> </text><text xml:space="preserve" font-family="GillSans-Light,Gill Sans" font-size="37.2" fill="#FEFFFE" transform="matrix(1.00, 0.00, -0.00, -1.00, 544.5, 17.8)">e</text><text xml:space="preserve" font-family="GillSans-Light,Gill Sans" font-size="37.2" fill="#FEFFFE" transform="matrix(1.00, 0.00, -0.00, -1.00, 562.3, 17.8)">l</text><text xml:space="preserve" font-family="GillSans-Light,Gill Sans" font-size="37.2" fill="#FEFFFE" transform="matrix(1.00, 0.00, -0.00, -1.00, 569.3, 17.8)">e</text><text xml:space="preserve" font-family="GillSans-Light,Gill Sans" font-size="37.2" fill="#FEFFFE" transform="matrix(1.00, 0.00, -0.00, -1.00, 587.1, 17.8)">m</text><text xml:space="preserve" font-family="GillSans-Light,Gill Sans" font-size="37.2" fill="#FEFFFE" transform="matrix(1.00, 0.00, -0.00, -1.00, 615.8, 17.8)">e</text><text xml:space="preserve" font-family="GillSans-Light,Gill Sans" font-size="37.2" fill="#FEFFFE" transform="matrix(1.00, 0.00, -0.00, -1.00, 633.6, 17.8)">n</text><text xml:space="preserve" font-family="GillSans-Light,Gill Sans" font-size="37.2" fill="#FEFFFE" transform="matrix(1.00, 0.00, -0.00, -1.00, 651.8, 17.8)">t</text><text xml:space="preserve" font-family="GillSans-Light,Gill Sans" font-size="37.2" fill="#FEFFFE" transform="matrix(1.00, 0.00, -0.00, -1.00, 663.1, 17.8)">s</text><g><clipPath id="clip0x61000b8bdf40"><path d="M 257.2 13.1 L 396.2 13.1 L 396.2 16.9 L 257.2 16.9 Z M 257.2 13.1 "></path></clipPath><g clip-path="url(#clip0x61000b8bdf40)"><path d="M 261.2 201.8 L 399.2 201.8 " fill="none" stroke="#FEFFFE" stroke-width="1.85" transform="matrix(1.00, 0.00, 0.00, -1.00, -3.0, 216.8)"></path></g></g></g></svg>