<?xml version="1.0" encoding="UTF-8" standalone="no"?><svg xmlns="http://www.w3.org/2000/svg" xmlns:xlink="http://www.w3.org/1999/xlink" clip-rule="evenodd" stroke-miterlimit="10" viewBox="0 0 554 838"><desc>SVG generated by Keynote</desc><defs></defs><g transform="matrix(1.00, 0.00, -0.00, -1.00, 0.0, 838.0)"><g><clipPath id="clip0x618003cbcc80"><path d="M 0.4 1.0 L 553.7 1.0 L 553.7 837.1 L 0.4 837.1 Z M 0.4 1.0 "></path></clipPath><g clip-path="url(#clip0x618003cbcc80)"><image xlink:href="18CE1FD08175246E63A2717E1FD45F2C.png" width="552.00" height="835.00" transform="matrix(1.00, 0.00, -0.00, -1.00, 1.4, 836.1)" opacity="0.40"></image><path d="M 41.0 656.0 L 513.0 656.0 L 513.0 184.0 L 41.0 184.0 Z M 41.4 655.7 " fill="#FEFFFE"></path></g></g><g><clipPath id="clip0x608003ea44a0"><path d="M 62.0 630.0 L 492.0 630.0 L 492.0 211.0 L 62.0 211.0 Z M 61.8 629.6 "></path></clipPath><g clip-path="url(#clip0x608003ea44a0)"><g><clipPath id="clip0x608003ea4680"><path d="M 61.8 210.5 L 492.2 210.5 L 492.2 629.6 L 61.8 629.6 Z M 61.8 210.5 "></path></clipPath><g clip-path="url(#clip0x608003ea4680)"><path d="M 97.7 488.3 L 238.2 488.3 L 238.2 628.7 L 97.7 628.7 Z M 97.7 488.3 " fill="#FFFEFE"></path></g></g></g></g><g><clipPath id="clip0x608003ea4860"><path d="M 62.0 630.0 L 492.0 630.0 L 492.0 211.0 L 62.0 211.0 Z M 61.8 629.6 "></path></clipPath><g clip-path="url(#clip0x608003ea4860)"><g><clipPath id="clip0x608003ea49e0"><path d="M 61.8 210.5 L 491.8 210.5 L 491.8 629.6 L 61.8 629.6 Z M 61.8 210.5 "></path></clipPath><g clip-path="url(#clip0x608003ea49e0)"><path d="M 22.5 174.2 L 110.6 174.2 L 110.6 262.3 L 22.5 262.3 Z M 22.5 174.2 " fill="none" stroke="#1A1918" stroke-width="1.07" transform="matrix(1.59, 0.00, 0.00, 1.59, 61.8, 210.5)"></path></g></g></g></g><g><clipPath id="clip0x608003ea4bc0"><path d="M 62.0 630.0 L 492.0 630.0 L 492.0 211.0 L 62.0 211.0 Z M 61.8 629.6 "></path></clipPath><g clip-path="url(#clip0x608003ea4bc0)"><g><clipPath id="clip0x608003ea4d40"><path d="M 61.8 210.5 L 492.2 210.5 L 492.2 629.6 L 61.8 629.6 Z M 61.8 210.5 "></path></clipPath><g clip-path="url(#clip0x608003ea4d40)"><image xlink:href="84467A4925D1ED29C09FCA3820B71EBD.png" width="512.00" height="512.00" transform="matrix(0.26, 0.00, -0.00, -0.26, 102.2, 624.2)"></image><path d="M 75.4 121.1 L 163.5 121.1 L 163.5 209.2 L 75.4 209.2 Z M 75.4 121.1 " fill="#FFFEFE" stroke="#1A1918" stroke-width="1.07" transform="matrix(1.59, 0.00, 0.00, 1.59, 61.8, 210.5)"></path></g></g></g></g><g><clipPath id="clip0x608003ea5820"><path d="M 62.0 630.0 L 492.0 630.0 L 492.0 211.0 L 62.0 211.0 Z M 61.8 629.6 "></path></clipPath><g clip-path="url(#clip0x608003ea5820)"><g><clipPath id="clip0x608003ea56a0"><path d="M 186.6 408.2 L 317.8 408.2 L 317.8 539.5 L 186.6 539.5 Z M 186.6 408.2 "></path></clipPath><g clip-path="url(#clip0x608003ea56a0)"><image xlink:href="D1E838D3501F64ADF3D243DC6C779AFE.png" width="640.00" height="256.00" transform="matrix(1.07, 0.00, -0.00, -1.03, 80.1, 605.3)"></image></g></g></g></g><g><clipPath id="clip0x610004abbba0"><path d="M 62.0 630.0 L 492.0 630.0 L 492.0 211.0 L 62.0 211.0 Z M 61.8 629.6 "></path></clipPath><g clip-path="url(#clip0x610004abbba0)"><g><clipPath id="clip0x610004abbde0"><path d="M 61.8 210.5 L 492.2 210.5 L 492.2 629.6 L 61.8 629.6 Z M 61.8 210.5 "></path></clipPath><g clip-path="url(#clip0x610004abbde0)"><path d="M 128.3 68.0 L 216.3 68.0 L 216.3 156.1 L 128.3 156.1 Z M 128.3 68.0 " fill="#FFFEFE" stroke="#1A1918" stroke-width="1.07" transform="matrix(1.59, 0.00, 0.00, 1.59, 61.8, 210.5)"></path><image xlink:href="../../D3C0C3F9-37AB-4A09-8F6E-E7EC683CD66C/assets/84467A4925D1ED29C09FCA3820B71EBD.png" width="512.00" height="512.00" transform="matrix(0.26, 0.00, -0.00, -0.26, 270.8, 454.9)"></image><path d="M 350.5 234.3 L 491.0 234.3 L 491.0 374.8 L 350.5 374.8 Z M 350.5 234.3 " fill="#FFFEFE"></path></g></g></g></g><g><clipPath id="clip0x610004abc0e0"><path d="M 62.0 630.0 L 492.0 630.0 L 492.0 211.0 L 62.0 211.0 Z M 61.8 629.6 "></path></clipPath><g clip-path="url(#clip0x610004abc0e0)"><g><clipPath id="clip0x610004abc260"><path d="M 61.8 210.5 L 491.8 210.5 L 491.8 629.6 L 61.8 629.6 Z M 61.8 210.5 "></path></clipPath><g clip-path="url(#clip0x610004abc260)"><path d="M 181.1 14.9 L 269.2 14.9 L 269.2 103.0 L 181.1 103.0 Z M 181.1 14.9 " fill="none" stroke="#1A1918" stroke-width="1.07" transform="matrix(1.59, 0.00, 0.00, 1.59, 61.8, 210.5)"></path></g></g></g></g><g><clipPath id="clip0x610004abc440"><path d="M 62.0 630.0 L 492.0 630.0 L 492.0 211.0 L 62.0 211.0 Z M 61.8 629.6 "></path></clipPath><g clip-path="url(#clip0x610004abc440)"><g><clipPath id="clip0x610004abc5c0"><path d="M 61.8 210.5 L 492.2 210.5 L 492.2 629.6 L 61.8 629.6 Z M 61.8 210.5 "></path></clipPath><g clip-path="url(#clip0x610004abc5c0)"><image xlink:href="810F41B8AF91EC0BC40EB7FD43616070.png" width="512.00" height="512.00" transform="matrix(0.26, 0.00, -0.00, -0.26, 355.0, 370.3)"></image><path d="M 0.0 0.0 L -12.1 -12.1 L 40.9 -65.0 L 52.9 -53.1 " fill="#FFFEFE" stroke="#1A1918" stroke-width="1.07" transform="matrix(1.59, 0.00, 0.00, 1.59, 92.9, 483.5)"></path><path d="M 0.0 0.0 L 12.1 12.1 L -40.9 65.0 L -52.9 53.1 " fill="#FFFEFE" stroke="#1A1918" stroke-width="1.07" transform="matrix(1.59, 0.00, 0.00, 1.59, 411.8, 463.7)"></path><path d="M 263.5 315.4 L 244.3 296.2 L 328.7 211.7 L 347.8 230.7 " fill="#FFFEFE"></path></g></g></g></g><g><clipPath id="clip0x608003ea5940"><path d="M 62.0 630.0 L 492.0 630.0 L 492.0 211.0 L 62.0 211.0 Z M 61.8 629.6 "></path></clipPath><g clip-path="url(#clip0x608003ea5940)"><g><clipPath id="clip0x608003ea5ac0"><path d="M 61.8 210.5 L 491.8 210.5 L 491.8 629.6 L 61.8 629.6 Z M 61.8 210.5 "></path></clipPath><g clip-path="url(#clip0x608003ea5ac0)"><path d="M 0.0 0.0 L -12.1 -12.1 L 40.9 -65.0 L 52.9 -53.1 " fill="none" stroke="#1A1918" stroke-width="1.07" transform="matrix(1.59, 0.00, 0.00, 1.59, 263.5, 315.4)"></path><text xml:space="preserve" font-family="MyriadPro-Regular,Myriad Pro" font-size="12.0" fill="#1A1918" transform="matrix(1.59, 0.00, -0.00, -1.59, 388.3, 539.0)">4</text><text xml:space="preserve" font-family="MyriadPro-Regular,Myriad Pro" font-size="12.0" fill="#1A1918" transform="matrix(1.59, 0.00, -0.00, -1.59, 398.1, 539.0)">0</text><text xml:space="preserve" font-family="MyriadPro-Regular,Myriad Pro" font-size="12.0" fill="#1A1918" transform="matrix(1.59, 0.00, -0.00, -1.59, 407.9, 539.0)">0</text><text xml:space="preserve" font-family="MyriadPro-Regular,Myriad Pro" font-size="12.0" fill="#1A1918" transform="matrix(1.59, 0.00, -0.00, -1.59, 417.7, 539.0)"> </text><text xml:space="preserve" font-family="MyriadPro-Regular,Myriad Pro" font-size="12.0" fill="#1A1918" transform="matrix(1.59, 0.00, -0.00, -1.59, 421.8, 539.0)">m</text><text xml:space="preserve" font-family="MyriadPro-Regular,Myriad Pro" font-size="12.0" fill="#1A1918" transform="matrix(1.59, 0.00, -0.00, -1.59, 437.7, 539.0)">s</text><path d="M 135.2 475.2 C 135.2 475.9 135.2 476.5 135.2 477.1 L 136.3 477.1 L 136.4 475.9 L 136.4 475.9 C 136.7 476.6 137.5 477.2 138.7 477.2 C 139.6 477.2 141.1 476.7 141.1 474.3 L 141.1 470.1 L 139.9 470.1 L 139.9 474.1 C 139.9 475.3 139.5 476.2 138.3 476.2 C 137.4 476.2 136.8 475.6 136.6 474.9 C 136.5 474.7 136.5 474.5 136.5 474.3 L 136.5 470.1 L 135.2 470.1 Z M 128.1 473.6 C 128.1 472.1 129.0 470.9 130.2 470.9 C 131.4 470.9 132.3 472.1 132.3 473.6 C 132.3 474.8 131.8 476.3 130.3 476.3 C 128.8 476.3 128.1 474.9 128.1 473.6 M 133.6 473.7 C 133.6 471.1 131.9 470.0 130.2 470.0 C 128.3 470.0 126.8 471.4 126.8 473.6 C 126.8 475.9 128.4 477.2 130.3 477.2 C 132.3 477.2 133.6 475.8 133.6 473.7 M 124.0 477.1 L 125.3 477.1 L 125.3 470.1 L 124.0 470.1 Z M 125.4 479.0 C 125.4 478.6 125.1 478.3 124.6 478.3 C 124.1 478.3 123.8 478.6 123.8 479.0 C 123.8 479.5 124.2 479.8 124.6 479.8 C 125.1 479.8 125.4 479.5 125.4 479.0 M 120.8 478.8 L 120.8 477.1 L 122.6 477.1 L 122.6 476.1 L 120.8 476.1 L 120.8 472.4 C 120.8 471.5 121.0 471.0 121.7 471.0 C 122.1 471.0 122.3 471.1 122.4 471.1 L 122.5 470.2 C 122.3 470.1 121.9 470.0 121.4 470.0 C 120.8 470.0 120.3 470.2 120.0 470.5 C 119.7 470.9 119.5 471.5 119.5 472.3 L 119.5 476.1 L 118.4 476.1 L 118.4 477.1 L 119.5 477.1 L 119.5 478.4 Z M 116.0 473.7 C 114.7 473.7 113.1 473.5 113.1 472.1 C 113.1 471.3 113.6 470.9 114.3 470.9 C 115.2 470.9 115.8 471.5 116.0 472.1 C 116.0 472.2 116.0 472.4 116.0 472.5 Z M 117.3 471.8 C 117.3 471.2 117.3 470.6 117.4 470.1 L 116.2 470.1 L 116.1 471.0 L 116.1 471.0 C 115.7 470.5 114.9 470.0 114.0 470.0 C 112.6 470.0 111.8 471.0 111.8 472.0 C 111.8 473.7 113.3 474.6 116.0 474.6 L 116.0 474.7 C 116.0 475.3 115.9 476.3 114.4 476.3 C 113.8 476.3 113.1 476.1 112.6 475.8 L 112.3 476.6 C 112.9 477.0 113.7 477.2 114.6 477.2 C 116.7 477.2 117.3 475.8 117.3 474.4 Z M 106.3 477.1 L 107.3 475.6 C 107.6 475.2 107.8 474.8 108.0 474.5 L 108.1 474.5 C 108.3 474.9 108.5 475.2 108.8 475.6 L 109.7 477.1 L 111.1 477.1 L 108.7 473.7 L 111.2 470.1 L 109.7 470.1 L 108.7 471.7 C 108.4 472.1 108.2 472.5 108.0 472.9 L 107.9 472.9 C 107.7 472.5 107.5 472.1 107.2 471.7 L 106.2 470.1 L 104.8 470.1 L 107.3 473.7 L 104.9 477.1 Z M 98.4 470.1 L 98.4 476.1 L 97.4 476.1 L 97.4 477.1 L 98.4 477.1 L 98.4 477.5 C 98.4 479.3 99.4 480.5 101.4 480.5 C 102.0 480.5 102.8 480.3 103.2 480.0 L 102.8 479.1 C 102.5 479.3 101.9 479.5 101.3 479.5 C 100.0 479.5 99.6 478.5 99.6 477.4 L 99.6 477.1 L 103.6 477.1 L 103.6 470.1 L 102.4 470.1 L 102.4 476.1 L 99.6 476.1 L 99.6 470.1 Z M 98.4 470.1 " fill="#1A1918"></path><text xml:space="preserve" font-family="MyriadPro-Regular,Myriad Pro" font-size="9.0" fill="#1A1918" transform="matrix(1.59, 0.00, -0.00, -1.59, 181.3, 385.3)">m</text><text xml:space="preserve" font-family="MyriadPro-Regular,Myriad Pro" font-size="9.0" fill="#1A1918" transform="matrix(1.59, 0.00, -0.00, -1.59, 193.3, 385.3)">o</text><text xml:space="preserve" font-family="MyriadPro-Regular,Myriad Pro" font-size="9.0" fill="#1A1918" transform="matrix(1.59, 0.00, -0.00, -1.59, 201.2, 385.3)">t</text><text xml:space="preserve" font-family="MyriadPro-Regular,Myriad Pro" font-size="9.0" fill="#1A1918" transform="matrix(1.59, 0.00, -0.00, -1.59, 205.9, 385.3)">i</text><text xml:space="preserve" font-family="MyriadPro-Regular,Myriad Pro" font-size="9.0" fill="#1A1918" transform="matrix(1.59, 0.00, -0.00, -1.59, 209.3, 385.3)">o</text><text xml:space="preserve" font-family="MyriadPro-Regular,Myriad Pro" font-size="9.0" fill="#1A1918" transform="matrix(1.59, 0.00, -0.00, -1.59, 217.2, 385.3)">n</text><text xml:space="preserve" font-family="MyriadPro-Regular,Myriad Pro" font-size="9.0" fill="#1A1918" transform="matrix(1.59, 0.00, -0.00, -1.59, 225.1, 385.3)"> </text><text xml:space="preserve" font-family="MyriadPro-Regular,Myriad Pro" font-size="9.0" fill="#1A1918" transform="matrix(1.59, 0.00, -0.00, -1.59, 228.2, 385.3)">o</text><text xml:space="preserve" font-family="MyriadPro-Regular,Myriad Pro" font-size="9.0" fill="#1A1918" transform="matrix(1.59, 0.00, -0.00, -1.59, 236.1, 385.3)">n</text><text xml:space="preserve" font-family="MyriadPro-Regular,Myriad Pro" font-size="9.0" fill="#1A1918" transform="matrix(1.59, 0.00, -0.00, -1.59, 244.0, 385.3)">s</text><text xml:space="preserve" font-family="MyriadPro-Regular,Myriad Pro" font-size="9.0" fill="#1A1918" transform="matrix(1.59, 0.00, -0.00, -1.59, 249.7, 385.3)">e</text><text xml:space="preserve" font-family="MyriadPro-Regular,Myriad Pro" font-size="9.0" fill="#1A1918" transform="matrix(1.59, 0.00, -0.00, -1.59, 256.9, 385.3)">t</text><path d="M 343.3 311.6 L 343.3 309.9 L 345.1 309.9 L 345.1 308.9 L 343.3 308.9 L 343.3 305.2 C 343.3 304.3 343.6 303.8 344.3 303.8 C 344.6 303.8 344.8 303.9 345.0 303.9 L 345.1 303.0 C 344.8 302.9 344.4 302.8 343.9 302.8 C 343.4 302.8 342.9 303.0 342.6 303.3 C 342.2 303.7 342.1 304.3 342.1 305.2 L 342.1 308.9 L 341.0 308.9 L 341.0 309.9 L 342.1 309.9 L 342.1 311.2 Z M 339.0 307.1 C 339.0 307.9 338.7 309.2 337.3 309.2 C 336.0 309.2 335.4 308.0 335.3 307.1 Z M 335.3 306.2 C 335.3 304.5 336.4 303.8 337.7 303.8 C 338.6 303.8 339.2 303.9 339.6 304.2 L 339.8 303.2 C 339.4 303.0 338.6 302.8 337.5 302.8 C 335.4 302.8 334.1 304.2 334.1 306.3 C 334.1 308.4 335.3 310.1 337.4 310.1 C 339.6 310.1 340.2 308.1 340.2 306.8 C 340.2 306.5 340.2 306.3 340.2 306.2 Z M 328.8 304.3 C 329.1 304.0 329.8 303.7 330.4 303.7 C 331.3 303.7 331.8 304.2 331.8 304.8 C 331.8 305.4 331.4 305.7 330.5 306.1 C 329.2 306.5 328.6 307.2 328.6 308.0 C 328.6 309.1 329.5 310.1 331.0 310.1 C 331.7 310.1 332.4 309.9 332.7 309.6 L 332.4 308.7 C 332.2 308.9 331.7 309.1 331.0 309.1 C 330.3 309.1 329.9 308.7 329.9 308.2 C 329.9 307.6 330.3 307.3 331.2 307.0 C 332.4 306.5 333.0 305.9 333.0 304.9 C 333.0 303.7 332.0 302.8 330.4 302.8 C 329.6 302.8 328.9 303.0 328.4 303.3 Z M 325.0 303.0 L 325.0 308.9 L 322.1 308.9 L 322.1 303.0 L 320.8 303.0 L 320.8 308.9 L 319.8 308.9 L 319.8 309.9 L 320.8 309.9 L 320.8 310.1 C 320.8 311.1 321.1 311.9 321.6 312.5 C 322.0 312.9 322.6 313.1 323.4 313.1 C 323.8 313.1 324.1 313.0 324.3 312.9 L 324.1 311.9 C 323.9 312.0 323.6 312.1 323.3 312.1 C 322.3 312.1 322.1 311.3 322.1 310.2 L 322.1 309.9 L 325.0 309.9 L 325.0 310.2 C 325.0 311.2 325.2 312.1 325.8 312.7 C 326.3 313.1 326.9 313.3 327.5 313.3 C 327.9 313.3 328.3 313.2 328.6 313.1 L 328.4 312.1 C 328.2 312.2 328.0 312.3 327.6 312.3 C 326.5 312.3 326.2 311.3 326.2 310.3 L 326.2 309.9 L 327.9 309.9 L 327.9 308.9 L 326.3 308.9 L 326.3 303.0 Z M 313.6 306.4 C 313.6 304.9 314.5 303.7 315.7 303.7 C 316.9 303.7 317.8 304.9 317.8 306.4 C 317.8 307.6 317.2 309.1 315.7 309.1 C 314.2 309.1 313.6 307.7 313.6 306.4 M 319.1 306.5 C 319.1 303.9 317.3 302.8 315.6 302.8 C 313.8 302.8 312.3 304.2 312.3 306.4 C 312.3 308.7 313.8 310.1 315.8 310.1 C 317.8 310.1 319.1 308.6 319.1 306.5 M 301.8 308.0 C 301.8 308.7 301.8 309.3 301.8 309.9 L 302.9 309.9 L 302.9 308.8 L 303.0 308.8 C 303.3 309.4 304.1 310.1 305.3 310.1 C 306.2 310.1 307.7 309.5 307.7 307.1 L 307.7 303.0 L 306.5 303.0 L 306.5 307.0 C 306.5 308.1 306.0 309.0 304.9 309.0 C 304.0 309.0 303.4 308.4 303.2 307.7 C 303.1 307.6 303.1 307.4 303.1 307.1 L 303.1 303.0 L 301.8 303.0 Z M 294.7 306.4 C 294.7 304.9 295.6 303.7 296.8 303.7 C 298.0 303.7 298.9 304.9 298.9 306.4 C 298.9 307.6 298.3 309.1 296.8 309.1 C 295.4 309.1 294.7 307.7 294.7 306.4 M 300.2 306.5 C 300.2 303.9 298.4 302.8 296.8 302.8 C 294.9 302.8 293.4 304.2 293.4 306.4 C 293.4 308.7 295.0 310.1 296.9 310.1 C 298.9 310.1 300.2 308.6 300.2 306.5 M 290.6 309.9 L 291.8 309.9 L 291.8 303.0 L 290.6 303.0 Z M 292.0 311.9 C 292.0 311.4 291.7 311.1 291.2 311.1 C 290.7 311.1 290.4 311.4 290.4 311.9 C 290.4 312.3 290.7 312.6 291.2 312.6 C 291.7 312.6 292.0 312.3 292.0 311.9 M 287.3 311.6 L 287.3 309.9 L 289.2 309.9 L 289.2 308.9 L 287.3 308.9 L 287.3 305.2 C 287.3 304.3 287.6 303.8 288.3 303.8 C 288.6 303.8 288.8 303.9 289.0 303.9 L 289.1 303.0 C 288.8 302.9 288.5 302.8 288.0 302.8 C 287.4 302.8 286.9 303.0 286.6 303.3 C 286.2 303.7 286.1 304.3 286.1 305.2 L 286.1 308.9 L 285.0 308.9 L 285.0 309.9 L 286.1 309.9 L 286.1 311.2 Z M 278.7 306.4 C 278.7 304.9 279.6 303.7 280.8 303.7 C 282.0 303.7 282.9 304.9 282.9 306.4 C 282.9 307.6 282.4 309.1 280.9 309.1 C 279.4 309.1 278.7 307.7 278.7 306.4 M 284.2 306.5 C 284.2 303.9 282.5 302.8 280.8 302.8 C 278.9 302.8 277.4 304.2 277.4 306.4 C 277.4 308.7 279.0 310.1 280.9 310.1 C 282.9 310.1 284.2 308.6 284.2 306.5 M 266.0 308.0 C 266.0 308.7 266.0 309.3 265.9 309.9 L 267.0 309.9 L 267.1 308.8 L 267.1 308.8 C 267.5 309.4 268.2 310.1 269.3 310.1 C 270.3 310.1 271.0 309.5 271.3 308.7 L 271.3 308.7 C 271.5 309.1 271.8 309.4 272.1 309.6 C 272.5 309.9 273.0 310.1 273.6 310.1 C 274.5 310.1 275.9 309.5 275.9 307.1 L 275.9 303.0 L 274.7 303.0 L 274.7 306.9 C 274.7 308.2 274.2 309.0 273.2 309.0 C 272.4 309.0 271.9 308.5 271.7 307.9 C 271.6 307.7 271.6 307.5 271.6 307.3 L 271.6 303.0 L 270.3 303.0 L 270.3 307.1 C 270.3 308.2 269.8 309.0 268.9 309.0 C 268.1 309.0 267.5 308.4 267.3 307.8 C 267.2 307.6 267.2 307.4 267.2 307.2 L 267.2 303.0 L 266.0 303.0 Z M 266.0 308.0 " fill="#1A1918"></path><text xml:space="preserve" font-family="MyriadPro-Regular,Myriad Pro" font-size="9.0" fill="#1A1918" transform="matrix(1.59, 0.00, -0.00, -1.59, 350.5, 218.3)">o</text><text xml:space="preserve" font-family="MyriadPro-Regular,Myriad Pro" font-size="9.0" fill="#1A1918" transform="matrix(1.59, 0.00, -0.00, -1.59, 358.3, 218.3)">b</text><text xml:space="preserve" font-family="MyriadPro-Regular,Myriad Pro" font-size="9.0" fill="#1A1918" transform="matrix(1.59, 0.00, -0.00, -1.59, 366.5, 218.3)">s</text><text xml:space="preserve" font-family="MyriadPro-Regular,Myriad Pro" font-size="9.0" fill="#1A1918" transform="matrix(1.59, 0.00, -0.00, -1.59, 372.2, 218.3)">e</text><text xml:space="preserve" font-family="MyriadPro-Regular,Myriad Pro" font-size="9.0" fill="#1A1918" transform="matrix(1.59, 0.00, -0.00, -1.59, 379.4, 218.3)">r</text><text xml:space="preserve" font-family="MyriadPro-Regular,Myriad Pro" font-size="9.0" fill="#1A1918" transform="matrix(1.59, 0.00, -0.00, -1.59, 384.1, 218.3)">v</text><text xml:space="preserve" font-family="MyriadPro-Regular,Myriad Pro" font-size="9.0" fill="#1A1918" transform="matrix(1.59, 0.00, -0.00, -1.59, 391.0, 218.3)">e</text><text xml:space="preserve" font-family="MyriadPro-Regular,Myriad Pro" font-size="9.0" fill="#1A1918" transform="matrix(1.59, 0.00, -0.00, -1.59, 398.2, 218.3)">r</text><text xml:space="preserve" font-family="MyriadPro-Regular,Myriad Pro" font-size="9.0" fill="#1A1918" transform="matrix(1.59, 0.00, -0.00, -1.59, 402.8, 218.3)"> </text><text xml:space="preserve" font-family="MyriadPro-Regular,Myriad Pro" font-size="9.0" fill="#1A1918" transform="matrix(1.59, 0.00, -0.00, -1.59, 405.9, 218.3)">r</text><text xml:space="preserve" font-family="MyriadPro-Regular,Myriad Pro" font-size="9.0" fill="#1A1918" transform="matrix(1.59, 0.00, -0.00, -1.59, 410.5, 218.3)">e</text><text xml:space="preserve" font-family="MyriadPro-Regular,Myriad Pro" font-size="9.0" fill="#1A1918" transform="matrix(1.59, 0.00, -0.00, -1.59, 417.6, 218.3)">s</text><text xml:space="preserve" font-family="MyriadPro-Regular,Myriad Pro" font-size="9.0" fill="#1A1918" transform="matrix(1.59, 0.00, -0.00, -1.59, 423.3, 218.3)">p</text><text xml:space="preserve" font-family="MyriadPro-Regular,Myriad Pro" font-size="9.0" fill="#1A1918" transform="matrix(1.59, 0.00, -0.00, -1.59, 431.5, 218.3)">o</text><text xml:space="preserve" font-family="MyriadPro-Regular,Myriad Pro" font-size="9.0" fill="#1A1918" transform="matrix(1.59, 0.00, -0.00, -1.59, 439.4, 218.3)">n</text><text xml:space="preserve" font-family="MyriadPro-Regular,Myriad Pro" font-size="9.0" fill="#1A1918" transform="matrix(1.59, 0.00, -0.00, -1.59, 447.3, 218.3)">s</text><text xml:space="preserve" font-family="MyriadPro-Regular,Myriad Pro" font-size="9.0" fill="#1A1918" transform="matrix(1.59, 0.00, -0.00, -1.59, 453.0, 218.3)">e</text><text xml:space="preserve" font-family="MyriadPro-Regular,Myriad Pro" font-size="12.0" fill="#1A1918" transform="matrix(1.59, 0.00, -0.00, -1.59, 217.1, 233.9)">0</text><text xml:space="preserve" font-family="MyriadPro-Regular,Myriad Pro" font-size="12.0" fill="#1A1918" transform="matrix(1.59, 0.00, -0.00, -1.59, 226.9, 233.9)">-</text><text xml:space="preserve" font-family="MyriadPro-Regular,Myriad Pro" font-size="12.0" fill="#1A1918" transform="matrix(1.59, 0.00, -0.00, -1.59, 232.8, 233.9)">5</text><text xml:space="preserve" font-family="MyriadPro-Regular,Myriad Pro" font-size="12.0" fill="#1A1918" transform="matrix(1.59, 0.00, -0.00, -1.59, 242.6, 233.9)">5</text><text xml:space="preserve" font-family="MyriadPro-Regular,Myriad Pro" font-size="12.0" fill="#1A1918" transform="matrix(1.59, 0.00, -0.00, -1.59, 252.4, 233.9)">0</text><text xml:space="preserve" font-family="MyriadPro-Regular,Myriad Pro" font-size="12.0" fill="#1A1918" transform="matrix(1.59, 0.00, -0.00, -1.59, 262.2, 233.9)"> </text><text xml:space="preserve" font-family="MyriadPro-Regular,Myriad Pro" font-size="12.0" fill="#1A1918" transform="matrix(1.59, 0.00, -0.00, -1.59, 266.3, 233.9)">m</text><text xml:space="preserve" font-family="MyriadPro-Regular,Myriad Pro" font-size="12.0" fill="#1A1918" transform="matrix(1.59, 0.00, -0.00, -1.59, 282.2, 233.9)">s</text><text xml:space="preserve" font-family="MyriadPro-Regular,Myriad Pro" font-size="12.0" fill="#1A1918" transform="matrix(1.59, 0.00, -0.00, -1.59, 61.8, 401.7)">4</text><text xml:space="preserve" font-family="MyriadPro-Regular,Myriad Pro" font-size="12.0" fill="#1A1918" transform="matrix(1.59, 0.00, -0.00, -1.59, 71.6, 401.7)">5</text><text xml:space="preserve" font-family="MyriadPro-Regular,Myriad Pro" font-size="12.0" fill="#1A1918" transform="matrix(1.59, 0.00, -0.00, -1.59, 81.4, 401.7)">0</text><text xml:space="preserve" font-family="MyriadPro-Regular,Myriad Pro" font-size="12.0" fill="#1A1918" transform="matrix(1.59, 0.00, -0.00, -1.59, 91.2, 401.7)"> </text><text xml:space="preserve" font-family="MyriadPro-Regular,Myriad Pro" font-size="12.0" fill="#1A1918" transform="matrix(1.59, 0.00, -0.00, -1.59, 95.3, 401.7)">m</text><text xml:space="preserve" font-family="MyriadPro-Regular,Myriad Pro" font-size="12.0" fill="#1A1918" transform="matrix(1.59, 0.00, -0.00, -1.59, 111.2, 401.7)">s</text><path d="M 175.8 558.5 C 175.8 554.1 172.3 550.6 167.9 550.6 C 163.6 550.6 160.0 554.1 160.0 558.5 C 160.0 562.9 163.6 566.4 167.9 566.4 C 172.3 566.4 175.8 562.9 175.8 558.5 " fill="#787A76"></path><path d="M 260.1 473.8 C 260.1 469.5 256.6 465.9 252.2 465.9 C 247.8 465.9 244.3 469.5 244.3 473.8 C 244.3 478.2 247.8 481.7 252.2 481.7 C 256.6 481.7 260.1 478.2 260.1 473.8 " fill="#787A76"></path><path d="M 344.4 389.2 C 344.4 384.8 340.8 381.3 336.5 381.3 C 332.1 381.3 328.6 384.8 328.6 389.2 C 328.6 393.5 332.1 397.1 336.5 397.1 C 340.8 397.1 344.4 393.5 344.4 389.2 " fill="#787A76"></path><path d="M 171.3 558.5 C 171.3 556.6 169.8 555.2 167.9 555.2 C 166.1 555.2 164.6 556.6 164.6 558.5 C 164.6 560.3 166.1 561.8 167.9 561.8 C 169.8 561.8 171.3 560.3 171.3 558.5 " fill="#1A1918"></path><path d="M 255.5 473.8 C 255.5 472.0 254.0 470.5 252.2 470.5 C 250.4 470.5 248.9 472.0 248.9 473.8 C 248.9 475.7 250.4 477.2 252.2 477.2 C 254.0 477.2 255.5 475.7 255.5 473.8 " fill="#1A1918"></path><path d="M 339.8 389.2 C 339.8 387.3 338.3 385.8 336.5 385.8 C 334.6 385.8 333.1 387.3 333.1 389.2 C 333.1 391.0 334.6 392.5 336.5 392.5 C 338.3 392.5 339.8 391.0 339.8 389.2 " fill="#1A1918"></path></g></g></g></g></g></svg>