<?xml version="1.0" encoding="UTF-8" standalone="no"?><svg xmlns="http://www.w3.org/2000/svg" xmlns:xlink="http://www.w3.org/1999/xlink" clip-rule="evenodd" stroke-miterlimit="10" viewBox="0 0 506 726"><desc>SVG generated by Keynote</desc><defs></defs><g transform="matrix(1.00, 0.00, -0.00, -1.00, 0.0, 726.0)"><g><clipPath id="clip0x608003ea2700"><path d="M 18.8 0.5 L 505.0 0.5 L 505.0 725.5 L 18.8 725.5 Z M 18.8 0.5 "></path></clipPath><g clip-path="url(#clip0x608003ea2700)"><image xlink:href="B18CABE4C56F0A9A7C2D95913C4C8766.png" width="487.00" height="725.00" transform="matrix(1.00, 0.00, -0.00, -1.00, 18.8, 725.5)" opacity="0.40"></image></g></g><g><clipPath id="clip0x610004abcce0"><path d="M 59.0 566.0 L 465.0 566.0 L 465.0 162.0 L 59.0 162.0 Z M 58.8 565.6 "></path></clipPath><g clip-path="url(#clip0x610004abcce0)"><g><clipPath id="clip0x610004abce60"><path d="M 61.9 565.6 L 462.0 564.1 L 462.0 164.0 L 58.8 164.0 C 60.4 297.6 57.8 433.0 61.9 565.6 Z M 584.0 565.6 L 985.5 564.1 L 984.0 162.5 L 582.5 164.0 Z M 584.0 565.6 "></path></clipPath><g clip-path="url(#clip0x610004abce60)"><g><clipPath id="clip0x610004abd040"><path d="M 18.8 0.5 L 505.0 0.5 L 505.0 725.5 L 18.8 725.5 Z M 18.8 0.5 "></path></clipPath><g clip-path="url(#clip0x610004abd040)"><image xlink:href="../../C7F748C9-4FCD-45C0-840B-C6E8C4606880/assets/BD9BB4C699F005BA590C962D146846F9.png" width="2400.00" height="1800.00" transform="matrix(0.49, 0.00, -0.00, -0.49, -92.1, 793.6)"></image></g></g></g></g></g></g><g><clipPath id="clip0x608003ea6660"><path d="M -0.7 288.4 L -0.7 439.7 L 58.0 439.7 L 58.0 288.4 Z M -0.7 288.4 "></path></clipPath><g clip-path="url(#clip0x608003ea6660)"><text xml:space="preserve" font-family="LucidaGrande-Bold,Lucida Grande" font-weight="bold" font-size="32.0" fill="#FEFFFF" transform="matrix(0.00, 1.00, 1.00, -0.00, 40.3, 308.3)">â†</text><text xml:space="preserve" font-family="GillSans-SemiBold,Gill Sans" font-weight="bold" font-size="32.0" fill="#FEFFFF" transform="matrix(0.00, 1.00, 1.00, -0.00, 40.3, 340.3)"> </text><text xml:space="preserve" font-family="GillSans-SemiBold,Gill Sans" font-weight="bold" font-size="32.0" fill="#FEFFFF" transform="matrix(0.00, 1.00, 1.00, -0.00, 40.3, 346.9)">T</text><text xml:space="preserve" font-family="GillSans-SemiBold,Gill Sans" font-weight="bold" font-size="32.0" fill="#FEFFFF" transform="matrix(0.00, 1.00, 1.00, -0.00, 40.3, 368.2)">i</text><text xml:space="preserve" font-family="GillSans-SemiBold,Gill Sans" font-weight="bold" font-size="32.0" fill="#FEFFFF" transform="matrix(0.00, 1.00, 1.00, -0.00, 40.3, 376.2)">m</text><text xml:space="preserve" font-family="GillSans-SemiBold,Gill Sans" font-weight="bold" font-size="32.0" fill="#FEFFFF" transform="matrix(0.00, 1.00, 1.00, -0.00, 40.3, 403.3)">e</text></g></g></g></svg>