<?xml version="1.0" encoding="UTF-8" standalone="no"?><svg xmlns="http://www.w3.org/2000/svg" xmlns:xlink="http://www.w3.org/1999/xlink" clip-rule="evenodd" stroke-miterlimit="10" viewBox="0 0 501 726"><desc>SVG generated by Keynote</desc><defs></defs><g transform="matrix(1.00, 0.00, -0.00, -1.00, 0.0, 726.0)"><g><clipPath id="clip0x600003ea57c0"><path d="M 19.6 0.5 L 500.2 0.5 L 500.2 725.5 L 19.6 725.5 Z M 19.6 0.5 "></path></clipPath><g clip-path="url(#clip0x600003ea57c0)"><image xlink:href="4D5821184437734CE6D410EB00D7D6B6.png" width="481.00" height="725.00" transform="matrix(1.00, 0.00, -0.00, -1.00, 19.6, 725.5)" opacity="0.40"></image></g></g><g><clipPath id="clip0x610004abae20"><path d="M 60.0 566.0 L 460.0 566.0 L 460.0 162.0 L 60.0 162.0 Z M 59.6 565.6 "></path></clipPath><g clip-path="url(#clip0x610004abae20)"><g><clipPath id="clip0x610004abb240"><path d="M -462.8 565.6 L -63.0 564.1 L -63.0 164.0 L -465.8 164.0 C -464.3 297.6 -466.8 433.0 -462.8 565.6 Z M 59.4 565.6 L 460.9 564.1 L 459.4 162.5 L 57.9 164.0 Z M 59.4 565.6 "></path></clipPath><g clip-path="url(#clip0x610004abb240)"><g><clipPath id="clip0x610004abb3c0"><path d="M 19.6 0.5 L 500.2 0.5 L 500.2 725.5 L 19.6 725.5 Z M 19.6 0.5 "></path></clipPath><g clip-path="url(#clip0x610004abb3c0)"><image xlink:href="../../C7F748C9-4FCD-45C0-840B-C6E8C4606880/assets/BD9BB4C699F005BA590C962D146846F9.png" width="2400.00" height="1800.00" transform="matrix(0.49, 0.00, -0.00, -0.49, -616.7, 793.6)"></image></g></g></g></g></g></g><g><clipPath id="clip0x610004abb480"><path d="M 0.1 288.4 L 0.1 439.7 L 58.8 439.7 L 58.8 288.4 Z M 0.1 288.4 "></path></clipPath><g clip-path="url(#clip0x610004abb480)"><text xml:space="preserve" font-family="LucidaGrande-Bold,Lucida Grande" font-weight="bold" font-size="32.0" fill="#FEFFFF" transform="matrix(0.00, 1.00, 1.00, -0.00, 41.1, 308.3)">â†</text><text xml:space="preserve" font-family="GillSans-SemiBold,Gill Sans" font-weight="bold" font-size="32.0" fill="#FEFFFF" transform="matrix(0.00, 1.00, 1.00, -0.00, 41.1, 340.3)"> </text><text xml:space="preserve" font-family="GillSans-SemiBold,Gill Sans" font-weight="bold" font-size="32.0" fill="#FEFFFF" transform="matrix(0.00, 1.00, 1.00, -0.00, 41.1, 346.9)">T</text><text xml:space="preserve" font-family="GillSans-SemiBold,Gill Sans" font-weight="bold" font-size="32.0" fill="#FEFFFF" transform="matrix(0.00, 1.00, 1.00, -0.00, 41.1, 368.2)">i</text><text xml:space="preserve" font-family="GillSans-SemiBold,Gill Sans" font-weight="bold" font-size="32.0" fill="#FEFFFF" transform="matrix(0.00, 1.00, 1.00, -0.00, 41.1, 376.2)">m</text><text xml:space="preserve" font-family="GillSans-SemiBold,Gill Sans" font-weight="bold" font-size="32.0" fill="#FEFFFF" transform="matrix(0.00, 1.00, 1.00, -0.00, 41.1, 403.3)">e</text></g></g></g></svg>