<?xml version="1.0" encoding="UTF-8" standalone="no"?><svg xmlns="http://www.w3.org/2000/svg" xmlns:xlink="http://www.w3.org/1999/xlink" clip-rule="evenodd" stroke-miterlimit="10" viewBox="0 0 418 39"><desc>SVG generated by Keynote</desc><defs></defs><g transform="matrix(1.00, 0.00, -0.00, -1.00, 0.0, 39.0)"><text xml:space="preserve" font-family="GillSans-Light,Gill Sans" font-size="33.2" fill="#FEFFFE" transform="matrix(1.00, 0.00, -0.00, -1.00, 1.0, 8.0)">•</text><text xml:space="preserve" font-family="GillSans-Light,Gill Sans" font-size="40.5" fill="#FEFFFE" transform="matrix(1.00, 0.00, -0.00, -1.00, 37.2, 5.8)">P</text><text xml:space="preserve" font-family="GillSans-Light,Gill Sans" font-size="40.5" fill="#FEFFFE" transform="matrix(1.00, 0.00, -0.00, -1.00, 55.9, 5.8)">o</text><text xml:space="preserve" font-family="GillSans-Light,Gill Sans" font-size="40.5" fill="#FEFFFE" transform="matrix(1.00, 0.00, -0.00, -1.00, 77.8, 5.8)">s</text><text xml:space="preserve" font-family="GillSans-Light,Gill Sans" font-size="40.5" fill="#FEFFFE" transform="matrix(1.00, 0.00, -0.00, -1.00, 92.1, 5.8)">i</text><text xml:space="preserve" font-family="GillSans-Light,Gill Sans" font-size="40.5" fill="#FEFFFE" transform="matrix(1.00, 0.00, -0.00, -1.00, 99.8, 5.8)">t</text><text xml:space="preserve" font-family="GillSans-Light,Gill Sans" font-size="40.5" fill="#FEFFFE" transform="matrix(1.00, 0.00, -0.00, -1.00, 112.0, 5.8)">i</text><text xml:space="preserve" font-family="GillSans-Light,Gill Sans" font-size="40.5" fill="#FEFFFE" transform="matrix(1.00, 0.00, -0.00, -1.00, 119.6, 5.8)">o</text><text xml:space="preserve" font-family="GillSans-Light,Gill Sans" font-size="40.5" fill="#FEFFFE" transform="matrix(1.00, 0.00, -0.00, -1.00, 141.5, 5.8)">n</text><text xml:space="preserve" font-family="GillSans-Light,Gill Sans" font-size="40.5" fill="#FEFFFE" transform="matrix(1.00, 0.00, -0.00, -1.00, 161.4, 5.8)">-</text><text xml:space="preserve" font-family="GillSans-Light,Gill Sans" font-size="40.5" fill="#FEFFFE" transform="matrix(1.00, 0.00, -0.00, -1.00, 174.1, 5.8)">d</text><text xml:space="preserve" font-family="GillSans-Light,Gill Sans" font-size="40.5" fill="#FEFFFE" transform="matrix(1.00, 0.00, -0.00, -1.00, 194.7, 5.8)">e</text><text xml:space="preserve" font-family="GillSans-Light,Gill Sans" font-size="40.5" fill="#FEFFFE" transform="matrix(1.00, 0.00, -0.00, -1.00, 214.1, 5.8)">ﬁ</text><text xml:space="preserve" font-family="GillSans-Light,Gill Sans" font-size="40.5" fill="#FEFFFE" transform="matrix(1.00, 0.00, -0.00, -1.00, 233.5, 5.8)">n</text><text xml:space="preserve" font-family="GillSans-Light,Gill Sans" font-size="40.5" fill="#FEFFFE" transform="matrix(1.00, 0.00, -0.00, -1.00, 253.4, 5.8)">e</text><text xml:space="preserve" font-family="GillSans-Light,Gill Sans" font-size="40.5" fill="#FEFFFE" transform="matrix(1.00, 0.00, -0.00, -1.00, 272.8, 5.8)">d</text><text xml:space="preserve" font-family="GillSans-Light,Gill Sans" font-size="40.5" fill="#FEFFFE" transform="matrix(1.00, 0.00, -0.00, -1.00, 293.4, 5.8)"> </text><text xml:space="preserve" font-family="GillSans-Light,Gill Sans" font-size="40.5" fill="#FEFFFE" transform="matrix(1.00, 0.00, -0.00, -1.00, 304.7, 5.8)">m</text><text xml:space="preserve" font-family="GillSans-Light,Gill Sans" font-size="40.5" fill="#FEFFFE" transform="matrix(1.00, 0.00, -0.00, -1.00, 335.9, 5.8)">o</text><text xml:space="preserve" font-family="GillSans-Light,Gill Sans" font-size="40.5" fill="#FEFFFE" transform="matrix(1.00, 0.00, -0.00, -1.00, 357.8, 5.8)">t</text><text xml:space="preserve" font-family="GillSans-Light,Gill Sans" font-size="40.5" fill="#FEFFFE" transform="matrix(1.00, 0.00, -0.00, -1.00, 370.0, 5.8)">i</text><text xml:space="preserve" font-family="GillSans-Light,Gill Sans" font-size="40.5" fill="#FEFFFE" transform="matrix(1.00, 0.00, -0.00, -1.00, 377.7, 5.8)">o</text><text xml:space="preserve" font-family="GillSans-Light,Gill Sans" font-size="40.5" fill="#FEFFFE" transform="matrix(1.00, 0.00, -0.00, -1.00, 399.6, 5.8)">n</text></g></svg>