<?xml version="1.0" encoding="UTF-8" standalone="no"?><svg xmlns="http://www.w3.org/2000/svg" xmlns:xlink="http://www.w3.org/1999/xlink" clip-rule="evenodd" stroke-miterlimit="10" viewBox="0 0 1027 258"><desc>SVG generated by Keynote</desc><defs></defs><g transform="matrix(1.00, 0.00, -0.00, -1.00, 0.0, 258.0)"><path d="M 1.0 257.0 L 1025.0 257.0 L 1025.0 1.0 L 1.0 1.0 Z M 1.0 257.0 " fill="#000000"></path><g><clipPath id="clip0x6100008aa200"><path d="M -4.2 1.2 L 1030.2 1.2 L 1030.2 262.2 L -4.2 262.2 Z M -4.2 1.2 "></path></clipPath><g clip-path="url(#clip0x6100008aa200)"><text xml:space="preserve" font-family="GillSans,Gill Sans" font-size="20.0" fill="#FEFFFF" transform="matrix(1.00, 0.00, -0.00, -1.00, 181.7, 211.6)">P</text><text xml:space="preserve" font-family="GillSans,Gill Sans" font-size="20.0" fill="#FEFFFF" transform="matrix(1.00, 0.00, -0.00, -1.00, 191.9, 211.6)">r</text><text xml:space="preserve" font-family="GillSans,Gill Sans" font-size="20.0" fill="#FEFFFF" transform="matrix(1.00, 0.00, -0.00, -1.00, 199.4, 211.6)">e</text><text xml:space="preserve" font-family="GillSans,Gill Sans" font-size="20.0" fill="#FEFFFF" transform="matrix(1.00, 0.00, -0.00, -1.00, 209.0, 211.6)">s</text><text xml:space="preserve" font-family="GillSans,Gill Sans" font-size="20.0" fill="#FEFFFF" transform="matrix(1.00, 0.00, -0.00, -1.00, 216.7, 211.6)">e</text><text xml:space="preserve" font-family="GillSans,Gill Sans" font-size="20.0" fill="#FEFFFF" transform="matrix(1.00, 0.00, -0.00, -1.00, 226.2, 211.6)">n</text><text xml:space="preserve" font-family="GillSans,Gill Sans" font-size="20.0" fill="#FEFFFF" transform="matrix(1.00, 0.00, -0.00, -1.00, 236.2, 211.6)">t</text><text xml:space="preserve" font-family="GillSans,Gill Sans" font-size="20.0" fill="#FEFFFF" transform="matrix(1.00, 0.00, -0.00, -1.00, 242.9, 211.6)">e</text><text xml:space="preserve" font-family="GillSans,Gill Sans" font-size="20.0" fill="#FEFFFF" transform="matrix(1.00, 0.00, -0.00, -1.00, 252.5, 211.6)">r</text><text xml:space="preserve" font-family="GillSans,Gill Sans" font-size="20.0" fill="#FEFFFF" transform="matrix(1.00, 0.00, -0.00, -1.00, 260.4, 211.6)"> </text><text xml:space="preserve" font-family="GillSans,Gill Sans" font-size="20.0" fill="#FEFFFF" transform="matrix(1.00, 0.00, -0.00, -1.00, 265.9, 211.6)">n</text><text xml:space="preserve" font-family="GillSans,Gill Sans" font-size="20.0" fill="#FEFFFF" transform="matrix(1.00, 0.00, -0.00, -1.00, 275.9, 211.6)">o</text><text xml:space="preserve" font-family="GillSans,Gill Sans" font-size="20.0" fill="#FEFFFF" transform="matrix(1.00, 0.00, -0.00, -1.00, 287.0, 211.6)">t</text><text xml:space="preserve" font-family="GillSans,Gill Sans" font-size="20.0" fill="#FEFFFF" transform="matrix(1.00, 0.00, -0.00, -1.00, 293.6, 211.6)">e</text><text xml:space="preserve" font-family="GillSans,Gill Sans" font-size="20.0" fill="#FEFFFF" transform="matrix(1.00, 0.00, -0.00, -1.00, 303.2, 211.6)">s</text><text xml:space="preserve" font-family="GillSans,Gill Sans" font-size="20.0" fill="#FEFFFF" transform="matrix(1.00, 0.00, -0.00, -1.00, 310.9, 211.6)">	</text><text xml:space="preserve" font-family="GillSans,Gill Sans" font-size="20.0" fill="#FEFFFF" transform="matrix(1.00, 0.00, -0.00, -1.00, 338.9, 211.6)">
</text><text xml:space="preserve" font-family="GillSans,Gill Sans" font-size="20.0" fill="#FEFFFF" transform="matrix(1.00, 0.00, -0.00, -1.00, 338.9, 211.6)"></text><text xml:space="preserve" font-family="GillSans,Gill Sans" font-size="32.0" fill="#FEFFFF" transform="matrix(1.00, 0.00, -0.00, -1.00, 5.0, 178.4)">T</text><text xml:space="preserve" font-family="GillSans,Gill Sans" font-size="32.0" fill="#FEFFFF" transform="matrix(1.00, 0.00, -0.00, -1.00, 24.3, 178.4)">h</text><text xml:space="preserve" font-family="GillSans,Gill Sans" font-size="32.0" fill="#FEFFFF" transform="matrix(1.00, 0.00, -0.00, -1.00, 40.3, 178.4)">e</text><text xml:space="preserve" font-family="GillSans,Gill Sans" font-size="32.0" fill="#FEFFFF" transform="matrix(1.00, 0.00, -0.00, -1.00, 55.7, 178.4)">s</text><text xml:space="preserve" font-family="GillSans,Gill Sans" font-size="32.0" fill="#FEFFFF" transform="matrix(1.00, 0.00, -0.00, -1.00, 68.0, 178.4)">e</text><text xml:space="preserve" font-family="GillSans,Gill Sans" font-size="32.0" fill="#FEFFFF" transform="matrix(1.00, 0.00, -0.00, -1.00, 83.3, 178.4)"> </text><text xml:space="preserve" font-family="GillSans,Gill Sans" font-size="32.0" fill="#FEFFFF" transform="matrix(1.00, 0.00, -0.00, -1.00, 92.2, 178.4)">a</text><text xml:space="preserve" font-family="GillSans,Gill Sans" font-size="32.0" fill="#FEFFFF" transform="matrix(1.00, 0.00, -0.00, -1.00, 105.8, 178.4)">r</text><text xml:space="preserve" font-family="GillSans,Gill Sans" font-size="32.0" fill="#FEFFFF" transform="matrix(1.00, 0.00, -0.00, -1.00, 117.9, 178.4)">e</text><text xml:space="preserve" font-family="GillSans,Gill Sans" font-size="32.0" fill="#FEFFFF" transform="matrix(1.00, 0.00, -0.00, -1.00, 133.2, 178.4)"> </text><text xml:space="preserve" font-family="GillSans,Gill Sans" font-size="32.0" fill="#FEFFFF" transform="matrix(1.00, 0.00, -0.00, -1.00, 142.1, 178.4)">t</text><text xml:space="preserve" font-family="GillSans,Gill Sans" font-size="32.0" fill="#FEFFFF" transform="matrix(1.00, 0.00, -0.00, -1.00, 152.7, 178.4)">h</text><text xml:space="preserve" font-family="GillSans,Gill Sans" font-size="32.0" fill="#FEFFFF" transform="matrix(1.00, 0.00, -0.00, -1.00, 168.7, 178.4)">e</text><text xml:space="preserve" font-family="GillSans,Gill Sans" font-size="32.0" fill="#FEFFFF" transform="matrix(1.00, 0.00, -0.00, -1.00, 184.1, 178.4)"> </text><text xml:space="preserve" font-family="GillSans,Gill Sans" font-size="32.0" fill="#FEFFFF" transform="matrix(1.00, 0.00, -0.00, -1.00, 192.9, 178.4)">s</text><text xml:space="preserve" font-family="GillSans,Gill Sans" font-size="32.0" fill="#FEFFFF" transform="matrix(1.00, 0.00, -0.00, -1.00, 205.2, 178.4)">l</text><text xml:space="preserve" font-family="GillSans,Gill Sans" font-size="32.0" fill="#FEFFFF" transform="matrix(1.00, 0.00, -0.00, -1.00, 212.3, 178.4)">i</text><text xml:space="preserve" font-family="GillSans,Gill Sans" font-size="32.0" fill="#FEFFFF" transform="matrix(1.00, 0.00, -0.00, -1.00, 219.3, 178.4)">d</text><text xml:space="preserve" font-family="GillSans,Gill Sans" font-size="32.0" fill="#FEFFFF" transform="matrix(1.00, 0.00, -0.00, -1.00, 235.6, 178.4)">e</text><text xml:space="preserve" font-family="GillSans,Gill Sans" font-size="32.0" fill="#FEFFFF" transform="matrix(1.00, 0.00, -0.00, -1.00, 250.9, 178.4)">s</text><text xml:space="preserve" font-family="GillSans,Gill Sans" font-size="32.0" fill="#FEFFFF" transform="matrix(1.00, 0.00, -0.00, -1.00, 263.2, 178.4)"> </text><text xml:space="preserve" font-family="GillSans,Gill Sans" font-size="32.0" fill="#FEFFFF" transform="matrix(1.00, 0.00, -0.00, -1.00, 272.1, 178.4)">f</text><text xml:space="preserve" font-family="GillSans,Gill Sans" font-size="32.0" fill="#FEFFFF" transform="matrix(1.00, 0.00, -0.00, -1.00, 280.1, 178.4)">r</text><text xml:space="preserve" font-family="GillSans,Gill Sans" font-size="32.0" fill="#FEFFFF" transform="matrix(1.00, 0.00, -0.00, -1.00, 292.0, 178.4)">o</text><text xml:space="preserve" font-family="GillSans,Gill Sans" font-size="32.0" fill="#FEFFFF" transform="matrix(1.00, 0.00, -0.00, -1.00, 309.6, 178.4)">m</text><text xml:space="preserve" font-family="GillSans,Gill Sans" font-size="32.0" fill="#FEFFFF" transform="matrix(1.00, 0.00, -0.00, -1.00, 334.3, 178.4)"> </text><text xml:space="preserve" font-family="GillSans,Gill Sans" font-size="32.0" fill="#FEFFFF" transform="matrix(1.00, 0.00, -0.00, -1.00, 343.2, 178.4)">m</text><text xml:space="preserve" font-family="GillSans,Gill Sans" font-size="32.0" fill="#FEFFFF" transform="matrix(1.00, 0.00, -0.00, -1.00, 366.7, 178.4)">y</text><text xml:space="preserve" font-family="GillSans,Gill Sans" font-size="32.0" fill="#FEFFFF" transform="matrix(1.00, 0.00, -0.00, -1.00, 380.8, 178.4)"> </text><text xml:space="preserve" font-family="GillSans,Gill Sans" font-size="32.0" fill="#FEFFFF" transform="matrix(1.00, 0.00, -0.00, -1.00, 389.6, 178.4)">t</text><text xml:space="preserve" font-family="GillSans,Gill Sans" font-size="32.0" fill="#FEFFFF" transform="matrix(1.00, 0.00, -0.00, -1.00, 400.3, 178.4)">h</text><text xml:space="preserve" font-family="GillSans,Gill Sans" font-size="32.0" fill="#FEFFFF" transform="matrix(1.00, 0.00, -0.00, -1.00, 416.3, 178.4)">e</text><text xml:space="preserve" font-family="GillSans,Gill Sans" font-size="32.0" fill="#FEFFFF" transform="matrix(1.00, 0.00, -0.00, -1.00, 431.6, 178.4)">s</text><text xml:space="preserve" font-family="GillSans,Gill Sans" font-size="32.0" fill="#FEFFFF" transform="matrix(1.00, 0.00, -0.00, -1.00, 443.9, 178.4)">i</text><text xml:space="preserve" font-family="GillSans,Gill Sans" font-size="32.0" fill="#FEFFFF" transform="matrix(1.00, 0.00, -0.00, -1.00, 451.0, 178.4)">s</text><text xml:space="preserve" font-family="GillSans,Gill Sans" font-size="32.0" fill="#FEFFFF" transform="matrix(1.00, 0.00, -0.00, -1.00, 463.3, 178.4)"> </text><text xml:space="preserve" font-family="GillSans,Gill Sans" font-size="32.0" fill="#FEFFFF" transform="matrix(1.00, 0.00, -0.00, -1.00, 5.0, 142.4)">d</text><text xml:space="preserve" font-family="GillSans,Gill Sans" font-size="32.0" fill="#FEFFFF" transform="matrix(1.00, 0.00, -0.00, -1.00, 21.3, 142.4)">e</text><text xml:space="preserve" font-family="GillSans,Gill Sans" font-size="32.0" fill="#FEFFFF" transform="matrix(1.00, 0.00, -0.00, -1.00, 36.6, 142.4)">f</text><text xml:space="preserve" font-family="GillSans,Gill Sans" font-size="32.0" fill="#FEFFFF" transform="matrix(1.00, 0.00, -0.00, -1.00, 44.3, 142.4)">e</text><text xml:space="preserve" font-family="GillSans,Gill Sans" font-size="32.0" fill="#FEFFFF" transform="matrix(1.00, 0.00, -0.00, -1.00, 59.6, 142.4)">n</text><text xml:space="preserve" font-family="GillSans,Gill Sans" font-size="32.0" fill="#FEFFFF" transform="matrix(1.00, 0.00, -0.00, -1.00, 75.6, 142.4)">s</text><text xml:space="preserve" font-family="GillSans,Gill Sans" font-size="32.0" fill="#FEFFFF" transform="matrix(1.00, 0.00, -0.00, -1.00, 88.0, 142.4)">e</text><text xml:space="preserve" font-family="GillSans,Gill Sans" font-size="32.0" fill="#FEFFFF" transform="matrix(1.00, 0.00, -0.00, -1.00, 103.9, 142.4)">,</text><text xml:space="preserve" font-family="GillSans,Gill Sans" font-size="32.0" fill="#FEFFFF" transform="matrix(1.00, 0.00, -0.00, -1.00, 107.7, 142.4)"> </text><text xml:space="preserve" font-family="GillSans,Gill Sans" font-size="32.0" fill="#FEFFFF" transform="matrix(1.00, 0.00, -0.00, -1.00, 116.6, 142.4)">o</text><text xml:space="preserve" font-family="GillSans,Gill Sans" font-size="32.0" fill="#FEFFFF" transform="matrix(1.00, 0.00, -0.00, -1.00, 134.3, 142.4)">n</text><text xml:space="preserve" font-family="GillSans,Gill Sans" font-size="32.0" fill="#FEFFFF" transform="matrix(1.00, 0.00, -0.00, -1.00, 150.3, 142.4)"> </text><text xml:space="preserve" font-family="GillSans,Gill Sans" font-size="32.0" fill="#FEFFFF" transform="matrix(1.00, 0.00, -0.00, -1.00, 159.2, 142.4)">t</text><text xml:space="preserve" font-family="GillSans,Gill Sans" font-size="32.0" fill="#FEFFFF" transform="matrix(1.00, 0.00, -0.00, -1.00, 169.8, 142.4)">h</text><text xml:space="preserve" font-family="GillSans,Gill Sans" font-size="32.0" fill="#FEFFFF" transform="matrix(1.00, 0.00, -0.00, -1.00, 185.8, 142.4)">e</text><text xml:space="preserve" font-family="GillSans,Gill Sans" font-size="32.0" fill="#FEFFFF" transform="matrix(1.00, 0.00, -0.00, -1.00, 201.1, 142.4)"> </text><text xml:space="preserve" font-family="GillSans,Gill Sans" font-size="32.0" fill="#FEFFFF" transform="matrix(1.00, 0.00, -0.00, -1.00, 210.0, 142.4)">m</text><text xml:space="preserve" font-family="GillSans,Gill Sans" font-size="32.0" fill="#FEFFFF" transform="matrix(1.00, 0.00, -0.00, -1.00, 234.7, 142.4)">e</text><text xml:space="preserve" font-family="GillSans,Gill Sans" font-size="32.0" fill="#FEFFFF" transform="matrix(1.00, 0.00, -0.00, -1.00, 250.0, 142.4)">c</text><text xml:space="preserve" font-family="GillSans,Gill Sans" font-size="32.0" fill="#FEFFFF" transform="matrix(1.00, 0.00, -0.00, -1.00, 264.0, 142.4)">h</text><text xml:space="preserve" font-family="GillSans,Gill Sans" font-size="32.0" fill="#FEFFFF" transform="matrix(1.00, 0.00, -0.00, -1.00, 280.0, 142.4)">a</text><text xml:space="preserve" font-family="GillSans,Gill Sans" font-size="32.0" fill="#FEFFFF" transform="matrix(1.00, 0.00, -0.00, -1.00, 293.7, 142.4)">n</text><text xml:space="preserve" font-family="GillSans,Gill Sans" font-size="32.0" fill="#FEFFFF" transform="matrix(1.00, 0.00, -0.00, -1.00, 309.7, 142.4)">i</text><text xml:space="preserve" font-family="GillSans,Gill Sans" font-size="32.0" fill="#FEFFFF" transform="matrix(1.00, 0.00, -0.00, -1.00, 316.7, 142.4)">s</text><text xml:space="preserve" font-family="GillSans,Gill Sans" font-size="32.0" fill="#FEFFFF" transform="matrix(1.00, 0.00, -0.00, -1.00, 329.0, 142.4)">m</text><text xml:space="preserve" font-family="GillSans,Gill Sans" font-size="32.0" fill="#FEFFFF" transform="matrix(1.00, 0.00, -0.00, -1.00, 353.7, 142.4)">s</text><text xml:space="preserve" font-family="GillSans,Gill Sans" font-size="32.0" fill="#FEFFFF" transform="matrix(1.00, 0.00, -0.00, -1.00, 366.0, 142.4)"> </text><text xml:space="preserve" font-family="GillSans,Gill Sans" font-size="32.0" fill="#FEFFFF" transform="matrix(1.00, 0.00, -0.00, -1.00, 374.9, 142.4)">o</text><text xml:space="preserve" font-family="GillSans,Gill Sans" font-size="32.0" fill="#FEFFFF" transform="matrix(1.00, 0.00, -0.00, -1.00, 392.5, 142.4)">f</text><text xml:space="preserve" font-family="GillSans,Gill Sans" font-size="32.0" fill="#FEFFFF" transform="matrix(1.00, 0.00, -0.00, -1.00, 400.5, 142.4)"> </text><text xml:space="preserve" font-family="GillSans,Gill Sans" font-size="32.0" fill="#FEFFFF" transform="matrix(1.00, 0.00, -0.00, -1.00, 409.4, 142.4)">v</text><text xml:space="preserve" font-family="GillSans,Gill Sans" font-size="32.0" fill="#FEFFFF" transform="matrix(1.00, 0.00, -0.00, -1.00, 423.4, 142.4)">i</text><text xml:space="preserve" font-family="GillSans,Gill Sans" font-size="32.0" fill="#FEFFFF" transform="matrix(1.00, 0.00, -0.00, -1.00, 430.5, 142.4)">s</text><text xml:space="preserve" font-family="GillSans,Gill Sans" font-size="32.0" fill="#FEFFFF" transform="matrix(1.00, 0.00, -0.00, -1.00, 442.8, 142.4)">u</text><text xml:space="preserve" font-family="GillSans,Gill Sans" font-size="32.0" fill="#FEFFFF" transform="matrix(1.00, 0.00, -0.00, -1.00, 458.8, 142.4)">a</text><text xml:space="preserve" font-family="GillSans,Gill Sans" font-size="32.0" fill="#FEFFFF" transform="matrix(1.00, 0.00, -0.00, -1.00, 472.4, 142.4)">l</text><text xml:space="preserve" font-family="GillSans,Gill Sans" font-size="32.0" fill="#FEFFFF" transform="matrix(1.00, 0.00, -0.00, -1.00, 479.4, 142.4)"> </text><text xml:space="preserve" font-family="GillSans,Gill Sans" font-size="32.0" fill="#FEFFFF" transform="matrix(1.00, 0.00, -0.00, -1.00, 5.0, 106.4)">m</text><text xml:space="preserve" font-family="GillSans,Gill Sans" font-size="32.0" fill="#FEFFFF" transform="matrix(1.00, 0.00, -0.00, -1.00, 29.7, 106.4)">o</text><text xml:space="preserve" font-family="GillSans,Gill Sans" font-size="32.0" fill="#FEFFFF" transform="matrix(1.00, 0.00, -0.00, -1.00, 47.3, 106.4)">t</text><text xml:space="preserve" font-family="GillSans,Gill Sans" font-size="32.0" fill="#FEFFFF" transform="matrix(1.00, 0.00, -0.00, -1.00, 58.0, 106.4)">i</text><text xml:space="preserve" font-family="GillSans,Gill Sans" font-size="32.0" fill="#FEFFFF" transform="matrix(1.00, 0.00, -0.00, -1.00, 65.0, 106.4)">o</text><text xml:space="preserve" font-family="GillSans,Gill Sans" font-size="32.0" fill="#FEFFFF" transform="matrix(1.00, 0.00, -0.00, -1.00, 82.6, 106.4)">n</text><text xml:space="preserve" font-family="GillSans,Gill Sans" font-size="32.0" fill="#FEFFFF" transform="matrix(1.00, 0.00, -0.00, -1.00, 98.6, 106.4)"> </text><text xml:space="preserve" font-family="GillSans,Gill Sans" font-size="32.0" fill="#FEFFFF" transform="matrix(1.00, 0.00, -0.00, -1.00, 107.5, 106.4)">d</text><text xml:space="preserve" font-family="GillSans,Gill Sans" font-size="32.0" fill="#FEFFFF" transform="matrix(1.00, 0.00, -0.00, -1.00, 123.8, 106.4)">e</text><text xml:space="preserve" font-family="GillSans,Gill Sans" font-size="32.0" fill="#FEFFFF" transform="matrix(1.00, 0.00, -0.00, -1.00, 139.2, 106.4)">t</text><text xml:space="preserve" font-family="GillSans,Gill Sans" font-size="32.0" fill="#FEFFFF" transform="matrix(1.00, 0.00, -0.00, -1.00, 149.8, 106.4)">e</text><text xml:space="preserve" font-family="GillSans,Gill Sans" font-size="32.0" fill="#FEFFFF" transform="matrix(1.00, 0.00, -0.00, -1.00, 165.2, 106.4)">c</text><text xml:space="preserve" font-family="GillSans,Gill Sans" font-size="32.0" fill="#FEFFFF" transform="matrix(1.00, 0.00, -0.00, -1.00, 179.2, 106.4)">t</text><text xml:space="preserve" font-family="GillSans,Gill Sans" font-size="32.0" fill="#FEFFFF" transform="matrix(1.00, 0.00, -0.00, -1.00, 189.8, 106.4)">i</text><text xml:space="preserve" font-family="GillSans,Gill Sans" font-size="32.0" fill="#FEFFFF" transform="matrix(1.00, 0.00, -0.00, -1.00, 196.8, 106.4)">o</text><text xml:space="preserve" font-family="GillSans,Gill Sans" font-size="32.0" fill="#FEFFFF" transform="matrix(1.00, 0.00, -0.00, -1.00, 214.5, 106.4)">n</text><text xml:space="preserve" font-family="GillSans,Gill Sans" font-size="32.0" fill="#FEFFFF" transform="matrix(1.00, 0.00, -0.00, -1.00, 230.5, 106.4)">.</text><text xml:space="preserve" font-family="GillSans,Gill Sans" font-size="32.0" fill="#FEFFFF" transform="matrix(1.00, 0.00, -0.00, -1.00, 237.5, 106.4)">	</text><text xml:space="preserve" font-family="GillSans,Gill Sans" font-size="32.0" fill="#FEFFFF" transform="matrix(1.00, 0.00, -0.00, -1.00, 265.5, 106.4)">
</text><text xml:space="preserve" font-family="GillSans,Gill Sans" font-size="32.0" fill="#FEFFFF" transform="matrix(1.00, 0.00, -0.00, -1.00, 265.5, 106.4)"></text><text xml:space="preserve" font-family="GillSans,Gill Sans" font-size="32.0" fill="#FEFFFF" transform="matrix(1.00, 0.00, -0.00, -1.00, 538.4, 224.4)">I</text><text xml:space="preserve" font-family="GillSans,Gill Sans" font-size="32.0" fill="#FEFFFF" transform="matrix(1.00, 0.00, -0.00, -1.00, 546.4, 224.4)">’</text><text xml:space="preserve" font-family="GillSans,Gill Sans" font-size="32.0" fill="#FEFFFF" transform="matrix(1.00, 0.00, -0.00, -1.00, 553.4, 224.4)">l</text><text xml:space="preserve" font-family="GillSans,Gill Sans" font-size="32.0" fill="#FEFFFF" transform="matrix(1.00, 0.00, -0.00, -1.00, 560.4, 224.4)">l</text><text xml:space="preserve" font-family="GillSans,Gill Sans" font-size="32.0" fill="#FEFFFF" transform="matrix(1.00, 0.00, -0.00, -1.00, 567.5, 224.4)"> </text><text xml:space="preserve" font-family="GillSans,Gill Sans" font-size="32.0" fill="#FEFFFF" transform="matrix(1.00, 0.00, -0.00, -1.00, 576.4, 224.4)">h</text><text xml:space="preserve" font-family="GillSans,Gill Sans" font-size="32.0" fill="#FEFFFF" transform="matrix(1.00, 0.00, -0.00, -1.00, 592.4, 224.4)">a</text><text xml:space="preserve" font-family="GillSans,Gill Sans" font-size="32.0" fill="#FEFFFF" transform="matrix(1.00, 0.00, -0.00, -1.00, 604.9, 224.4)">v</text><text xml:space="preserve" font-family="GillSans,Gill Sans" font-size="32.0" fill="#FEFFFF" transform="matrix(1.00, 0.00, -0.00, -1.00, 618.2, 224.4)">e</text><text xml:space="preserve" font-family="GillSans,Gill Sans" font-size="32.0" fill="#FEFFFF" transform="matrix(1.00, 0.00, -0.00, -1.00, 633.6, 224.4)"> </text><text xml:space="preserve" font-family="GillSans,Gill Sans" font-size="32.0" fill="#FEFFFF" transform="matrix(1.00, 0.00, -0.00, -1.00, 642.5, 224.4)">m</text><text xml:space="preserve" font-family="GillSans,Gill Sans" font-size="32.0" fill="#FEFFFF" transform="matrix(1.00, 0.00, -0.00, -1.00, 667.1, 224.4)">o</text><text xml:space="preserve" font-family="GillSans,Gill Sans" font-size="32.0" fill="#FEFFFF" transform="matrix(1.00, 0.00, -0.00, -1.00, 684.8, 224.4)">r</text><text xml:space="preserve" font-family="GillSans,Gill Sans" font-size="32.0" fill="#FEFFFF" transform="matrix(1.00, 0.00, -0.00, -1.00, 696.8, 224.4)">e</text><text xml:space="preserve" font-family="GillSans,Gill Sans" font-size="32.0" fill="#FEFFFF" transform="matrix(1.00, 0.00, -0.00, -1.00, 712.1, 224.4)"> </text><text xml:space="preserve" font-family="GillSans,Gill Sans" font-size="32.0" fill="#FEFFFF" transform="matrix(1.00, 0.00, -0.00, -1.00, 721.0, 224.4)">t</text><text xml:space="preserve" font-family="GillSans,Gill Sans" font-size="32.0" fill="#FEFFFF" transform="matrix(1.00, 0.00, -0.00, -1.00, 731.7, 224.4)">o</text><text xml:space="preserve" font-family="GillSans,Gill Sans" font-size="32.0" fill="#FEFFFF" transform="matrix(1.00, 0.00, -0.00, -1.00, 749.3, 224.4)"> </text><text xml:space="preserve" font-family="GillSans,Gill Sans" font-size="32.0" fill="#FEFFFF" transform="matrix(1.00, 0.00, -0.00, -1.00, 758.2, 224.4)">s</text><text xml:space="preserve" font-family="GillSans,Gill Sans" font-size="32.0" fill="#FEFFFF" transform="matrix(1.00, 0.00, -0.00, -1.00, 770.5, 224.4)">a</text><text xml:space="preserve" font-family="GillSans,Gill Sans" font-size="32.0" fill="#FEFFFF" transform="matrix(1.00, 0.00, -0.00, -1.00, 782.9, 224.4)">y</text><text xml:space="preserve" font-family="GillSans,Gill Sans" font-size="32.0" fill="#FEFFFF" transform="matrix(1.00, 0.00, -0.00, -1.00, 796.9, 224.4)"> </text><text xml:space="preserve" font-family="GillSans,Gill Sans" font-size="32.0" fill="#FEFFFF" transform="matrix(1.00, 0.00, -0.00, -1.00, 805.8, 224.4)">a</text><text xml:space="preserve" font-family="GillSans,Gill Sans" font-size="32.0" fill="#FEFFFF" transform="matrix(1.00, 0.00, -0.00, -1.00, 819.4, 224.4)">b</text><text xml:space="preserve" font-family="GillSans,Gill Sans" font-size="32.0" fill="#FEFFFF" transform="matrix(1.00, 0.00, -0.00, -1.00, 835.4, 224.4)">o</text><text xml:space="preserve" font-family="GillSans,Gill Sans" font-size="32.0" fill="#FEFFFF" transform="matrix(1.00, 0.00, -0.00, -1.00, 853.1, 224.4)">u</text><text xml:space="preserve" font-family="GillSans,Gill Sans" font-size="32.0" fill="#FEFFFF" transform="matrix(1.00, 0.00, -0.00, -1.00, 869.1, 224.4)">t</text><text xml:space="preserve" font-family="GillSans,Gill Sans" font-size="32.0" fill="#FEFFFF" transform="matrix(1.00, 0.00, -0.00, -1.00, 879.7, 224.4)"> </text><text xml:space="preserve" font-family="GillSans,Gill Sans" font-size="32.0" fill="#FEFFFF" transform="matrix(1.00, 0.00, -0.00, -1.00, 888.6, 224.4)">t</text><text xml:space="preserve" font-family="GillSans,Gill Sans" font-size="32.0" fill="#FEFFFF" transform="matrix(1.00, 0.00, -0.00, -1.00, 899.3, 224.4)">h</text><text xml:space="preserve" font-family="GillSans,Gill Sans" font-size="32.0" fill="#FEFFFF" transform="matrix(1.00, 0.00, -0.00, -1.00, 915.3, 224.4)">i</text><text xml:space="preserve" font-family="GillSans,Gill Sans" font-size="32.0" fill="#FEFFFF" transform="matrix(1.00, 0.00, -0.00, -1.00, 922.3, 224.4)">s</text><text xml:space="preserve" font-family="GillSans,Gill Sans" font-size="32.0" fill="#FEFFFF" transform="matrix(1.00, 0.00, -0.00, -1.00, 934.6, 224.4)"> </text><text xml:space="preserve" font-family="GillSans,Gill Sans" font-size="32.0" fill="#FEFFFF" transform="matrix(1.00, 0.00, -0.00, -1.00, 943.5, 224.4)">v</text><text xml:space="preserve" font-family="GillSans,Gill Sans" font-size="32.0" fill="#FEFFFF" transform="matrix(1.00, 0.00, -0.00, -1.00, 957.5, 224.4)">i</text><text xml:space="preserve" font-family="GillSans,Gill Sans" font-size="32.0" fill="#FEFFFF" transform="matrix(1.00, 0.00, -0.00, -1.00, 964.5, 224.4)">d</text><text xml:space="preserve" font-family="GillSans,Gill Sans" font-size="32.0" fill="#FEFFFF" transform="matrix(1.00, 0.00, -0.00, -1.00, 980.8, 224.4)">e</text><text xml:space="preserve" font-family="GillSans,Gill Sans" font-size="32.0" fill="#FEFFFF" transform="matrix(1.00, 0.00, -0.00, -1.00, 996.2, 224.4)">o</text><text xml:space="preserve" font-family="GillSans,Gill Sans" font-size="32.0" fill="#FEFFFF" transform="matrix(1.00, 0.00, -0.00, -1.00, 1013.8, 224.4)"> </text><text xml:space="preserve" font-family="GillSans,Gill Sans" font-size="32.0" fill="#FEFFFF" transform="matrix(1.00, 0.00, -0.00, -1.00, 538.4, 188.4)">i</text><text xml:space="preserve" font-family="GillSans,Gill Sans" font-size="32.0" fill="#FEFFFF" transform="matrix(1.00, 0.00, -0.00, -1.00, 545.4, 188.4)">n</text><text xml:space="preserve" font-family="GillSans,Gill Sans" font-size="32.0" fill="#FEFFFF" transform="matrix(1.00, 0.00, -0.00, -1.00, 561.4, 188.4)"> </text><text xml:space="preserve" font-family="GillSans,Gill Sans" font-size="32.0" fill="#FEFFFF" transform="matrix(1.00, 0.00, -0.00, -1.00, 570.3, 188.4)">a</text><text xml:space="preserve" font-family="GillSans,Gill Sans" font-size="32.0" fill="#FEFFFF" transform="matrix(1.00, 0.00, -0.00, -1.00, 584.0, 188.4)"> </text><text xml:space="preserve" font-family="GillSans,Gill Sans" font-size="32.0" fill="#FEFFFF" transform="matrix(1.00, 0.00, -0.00, -1.00, 592.8, 188.4)">m</text><text xml:space="preserve" font-family="GillSans,Gill Sans" font-size="32.0" fill="#FEFFFF" transform="matrix(1.00, 0.00, -0.00, -1.00, 617.5, 188.4)">i</text><text xml:space="preserve" font-family="GillSans,Gill Sans" font-size="32.0" fill="#FEFFFF" transform="matrix(1.00, 0.00, -0.00, -1.00, 624.5, 188.4)">n</text><text xml:space="preserve" font-family="GillSans,Gill Sans" font-size="32.0" fill="#FEFFFF" transform="matrix(1.00, 0.00, -0.00, -1.00, 640.2, 188.4)">u</text><text xml:space="preserve" font-family="GillSans,Gill Sans" font-size="32.0" fill="#FEFFFF" transform="matrix(1.00, 0.00, -0.00, -1.00, 656.2, 188.4)">t</text><text xml:space="preserve" font-family="GillSans,Gill Sans" font-size="32.0" fill="#FEFFFF" transform="matrix(1.00, 0.00, -0.00, -1.00, 666.9, 188.4)">e</text><text xml:space="preserve" font-family="GillSans,Gill Sans" font-size="32.0" fill="#FEFFFF" transform="matrix(1.00, 0.00, -0.00, -1.00, 682.8, 188.4)">.</text><text xml:space="preserve" font-family="GillSans,Gill Sans" font-size="32.0" fill="#FEFFFF" transform="matrix(1.00, 0.00, -0.00, -1.00, 686.7, 188.4)"> </text><text xml:space="preserve" font-family="GillSans,Gill Sans" font-size="32.0" fill="#FEFFFF" transform="matrix(1.00, 0.00, -0.00, -1.00, 695.5, 188.4)">F</text><text xml:space="preserve" font-family="GillSans,Gill Sans" font-size="32.0" fill="#FEFFFF" transform="matrix(1.00, 0.00, -0.00, -1.00, 710.6, 188.4)">i</text><text xml:space="preserve" font-family="GillSans,Gill Sans" font-size="32.0" fill="#FEFFFF" transform="matrix(1.00, 0.00, -0.00, -1.00, 717.6, 188.4)">r</text><text xml:space="preserve" font-family="GillSans,Gill Sans" font-size="32.0" fill="#FEFFFF" transform="matrix(1.00, 0.00, -0.00, -1.00, 730.3, 188.4)">s</text><text xml:space="preserve" font-family="GillSans,Gill Sans" font-size="32.0" fill="#FEFFFF" transform="matrix(1.00, 0.00, -0.00, -1.00, 742.6, 188.4)">t</text><text xml:space="preserve" font-family="GillSans,Gill Sans" font-size="32.0" fill="#FEFFFF" transform="matrix(1.00, 0.00, -0.00, -1.00, 753.2, 188.4)"> </text><text xml:space="preserve" font-family="GillSans,Gill Sans" font-size="32.0" fill="#FEFFFF" transform="matrix(1.00, 0.00, -0.00, -1.00, 762.1, 188.4)">I</text><text xml:space="preserve" font-family="GillSans,Gill Sans" font-size="32.0" fill="#FEFFFF" transform="matrix(1.00, 0.00, -0.00, -1.00, 770.1, 188.4)">’</text><text xml:space="preserve" font-family="GillSans,Gill Sans" font-size="32.0" fill="#FEFFFF" transform="matrix(1.00, 0.00, -0.00, -1.00, 777.1, 188.4)">l</text><text xml:space="preserve" font-family="GillSans,Gill Sans" font-size="32.0" fill="#FEFFFF" transform="matrix(1.00, 0.00, -0.00, -1.00, 784.2, 188.4)">l</text><text xml:space="preserve" font-family="GillSans,Gill Sans" font-size="32.0" fill="#FEFFFF" transform="matrix(1.00, 0.00, -0.00, -1.00, 791.2, 188.4)"> </text><text xml:space="preserve" font-family="GillSans,Gill Sans" font-size="32.0" fill="#FEFFFF" transform="matrix(1.00, 0.00, -0.00, -1.00, 800.1, 188.4)">i</text><text xml:space="preserve" font-family="GillSans,Gill Sans" font-size="32.0" fill="#FEFFFF" transform="matrix(1.00, 0.00, -0.00, -1.00, 807.1, 188.4)">n</text><text xml:space="preserve" font-family="GillSans,Gill Sans" font-size="32.0" fill="#FEFFFF" transform="matrix(1.00, 0.00, -0.00, -1.00, 823.1, 188.4)">t</text><text xml:space="preserve" font-family="GillSans,Gill Sans" font-size="32.0" fill="#FEFFFF" transform="matrix(1.00, 0.00, -0.00, -1.00, 833.7, 188.4)">r</text><text xml:space="preserve" font-family="GillSans,Gill Sans" font-size="32.0" fill="#FEFFFF" transform="matrix(1.00, 0.00, -0.00, -1.00, 845.6, 188.4)">o</text><text xml:space="preserve" font-family="GillSans,Gill Sans" font-size="32.0" fill="#FEFFFF" transform="matrix(1.00, 0.00, -0.00, -1.00, 863.3, 188.4)">d</text><text xml:space="preserve" font-family="GillSans,Gill Sans" font-size="32.0" fill="#FEFFFF" transform="matrix(1.00, 0.00, -0.00, -1.00, 879.6, 188.4)">u</text><text xml:space="preserve" font-family="GillSans,Gill Sans" font-size="32.0" fill="#FEFFFF" transform="matrix(1.00, 0.00, -0.00, -1.00, 895.6, 188.4)">c</text><text xml:space="preserve" font-family="GillSans,Gill Sans" font-size="32.0" fill="#FEFFFF" transform="matrix(1.00, 0.00, -0.00, -1.00, 909.6, 188.4)">e</text><text xml:space="preserve" font-family="GillSans,Gill Sans" font-size="32.0" fill="#FEFFFF" transform="matrix(1.00, 0.00, -0.00, -1.00, 924.9, 188.4)"> </text><text xml:space="preserve" font-family="GillSans,Gill Sans" font-size="32.0" fill="#FEFFFF" transform="matrix(1.00, 0.00, -0.00, -1.00, 933.8, 188.4)">t</text><text xml:space="preserve" font-family="GillSans,Gill Sans" font-size="32.0" fill="#FEFFFF" transform="matrix(1.00, 0.00, -0.00, -1.00, 944.5, 188.4)">h</text><text xml:space="preserve" font-family="GillSans,Gill Sans" font-size="32.0" fill="#FEFFFF" transform="matrix(1.00, 0.00, -0.00, -1.00, 960.5, 188.4)">e</text><text xml:space="preserve" font-family="GillSans,Gill Sans" font-size="32.0" fill="#FEFFFF" transform="matrix(1.00, 0.00, -0.00, -1.00, 975.8, 188.4)"> </text><text xml:space="preserve" font-family="GillSans,Gill Sans" font-size="32.0" fill="#FEFFFF" transform="matrix(1.00, 0.00, -0.00, -1.00, 538.4, 152.4)">p</text><text xml:space="preserve" font-family="GillSans,Gill Sans" font-size="32.0" fill="#FEFFFF" transform="matrix(1.00, 0.00, -0.00, -1.00, 554.4, 152.4)">r</text><text xml:space="preserve" font-family="GillSans,Gill Sans" font-size="32.0" fill="#FEFFFF" transform="matrix(1.00, 0.00, -0.00, -1.00, 566.3, 152.4)">o</text><text xml:space="preserve" font-family="GillSans,Gill Sans" font-size="32.0" fill="#FEFFFF" transform="matrix(1.00, 0.00, -0.00, -1.00, 583.9, 152.4)">b</text><text xml:space="preserve" font-family="GillSans,Gill Sans" font-size="32.0" fill="#FEFFFF" transform="matrix(1.00, 0.00, -0.00, -1.00, 599.9, 152.4)">l</text><text xml:space="preserve" font-family="GillSans,Gill Sans" font-size="32.0" fill="#FEFFFF" transform="matrix(1.00, 0.00, -0.00, -1.00, 606.9, 152.4)">e</text><text xml:space="preserve" font-family="GillSans,Gill Sans" font-size="32.0" fill="#FEFFFF" transform="matrix(1.00, 0.00, -0.00, -1.00, 622.3, 152.4)">m</text><text xml:space="preserve" font-family="GillSans,Gill Sans" font-size="32.0" fill="#FEFFFF" transform="matrix(1.00, 0.00, -0.00, -1.00, 646.9, 152.4)">,</text><text xml:space="preserve" font-family="GillSans,Gill Sans" font-size="32.0" fill="#FEFFFF" transform="matrix(1.00, 0.00, -0.00, -1.00, 650.8, 152.4)"> </text><text xml:space="preserve" font-family="GillSans,Gill Sans" font-size="32.0" fill="#FEFFFF" transform="matrix(1.00, 0.00, -0.00, -1.00, 659.7, 152.4)">t</text><text xml:space="preserve" font-family="GillSans,Gill Sans" font-size="32.0" fill="#FEFFFF" transform="matrix(1.00, 0.00, -0.00, -1.00, 670.3, 152.4)">o</text><text xml:space="preserve" font-family="GillSans,Gill Sans" font-size="32.0" fill="#FEFFFF" transform="matrix(1.00, 0.00, -0.00, -1.00, 688.0, 152.4)">d</text><text xml:space="preserve" font-family="GillSans,Gill Sans" font-size="32.0" fill="#FEFFFF" transform="matrix(1.00, 0.00, -0.00, -1.00, 704.3, 152.4)">a</text><text xml:space="preserve" font-family="GillSans,Gill Sans" font-size="32.0" fill="#FEFFFF" transform="matrix(1.00, 0.00, -0.00, -1.00, 716.6, 152.4)">y</text><text xml:space="preserve" font-family="GillSans,Gill Sans" font-size="32.0" fill="#FEFFFF" transform="matrix(1.00, 0.00, -0.00, -1.00, 730.6, 152.4)"> </text><text xml:space="preserve" font-family="GillSans,Gill Sans" font-size="32.0" fill="#FEFFFF" transform="matrix(1.00, 0.00, -0.00, -1.00, 739.5, 152.4)">I</text><text xml:space="preserve" font-family="GillSans,Gill Sans" font-size="32.0" fill="#FEFFFF" transform="matrix(1.00, 0.00, -0.00, -1.00, 747.5, 152.4)">’</text><text xml:space="preserve" font-family="GillSans,Gill Sans" font-size="32.0" fill="#FEFFFF" transform="matrix(1.00, 0.00, -0.00, -1.00, 754.6, 152.4)">l</text><text xml:space="preserve" font-family="GillSans,Gill Sans" font-size="32.0" fill="#FEFFFF" transform="matrix(1.00, 0.00, -0.00, -1.00, 761.6, 152.4)">l</text><text xml:space="preserve" font-family="GillSans,Gill Sans" font-size="32.0" fill="#FEFFFF" transform="matrix(1.00, 0.00, -0.00, -1.00, 768.6, 152.4)"> </text><text xml:space="preserve" font-family="GillSans,Gill Sans" font-size="32.0" fill="#FEFFFF" transform="matrix(1.00, 0.00, -0.00, -1.00, 777.5, 152.4)">b</text><text xml:space="preserve" font-family="GillSans,Gill Sans" font-size="32.0" fill="#FEFFFF" transform="matrix(1.00, 0.00, -0.00, -1.00, 793.5, 152.4)">e</text><text xml:space="preserve" font-family="GillSans,Gill Sans" font-size="32.0" fill="#FEFFFF" transform="matrix(1.00, 0.00, -0.00, -1.00, 808.8, 152.4)"> </text><text xml:space="preserve" font-family="GillSans,Gill Sans" font-size="32.0" fill="#FEFFFF" transform="matrix(1.00, 0.00, -0.00, -1.00, 817.7, 152.4)">t</text><text xml:space="preserve" font-family="GillSans,Gill Sans" font-size="32.0" fill="#FEFFFF" transform="matrix(1.00, 0.00, -0.00, -1.00, 828.3, 152.4)">a</text><text xml:space="preserve" font-family="GillSans,Gill Sans" font-size="32.0" fill="#FEFFFF" transform="matrix(1.00, 0.00, -0.00, -1.00, 842.0, 152.4)">l</text><text xml:space="preserve" font-family="GillSans,Gill Sans" font-size="32.0" fill="#FEFFFF" transform="matrix(1.00, 0.00, -0.00, -1.00, 849.0, 152.4)">k</text><text xml:space="preserve" font-family="GillSans,Gill Sans" font-size="32.0" fill="#FEFFFF" transform="matrix(1.00, 0.00, -0.00, -1.00, 864.3, 152.4)">i</text><text xml:space="preserve" font-family="GillSans,Gill Sans" font-size="32.0" fill="#FEFFFF" transform="matrix(1.00, 0.00, -0.00, -1.00, 871.4, 152.4)">n</text><text xml:space="preserve" font-family="GillSans,Gill Sans" font-size="32.0" fill="#FEFFFF" transform="matrix(1.00, 0.00, -0.00, -1.00, 887.4, 152.4)">g</text><text xml:space="preserve" font-family="GillSans,Gill Sans" font-size="32.0" fill="#FEFFFF" transform="matrix(1.00, 0.00, -0.00, -1.00, 901.0, 152.4)"> </text><text xml:space="preserve" font-family="GillSans,Gill Sans" font-size="32.0" fill="#FEFFFF" transform="matrix(1.00, 0.00, -0.00, -1.00, 909.9, 152.4)">a</text><text xml:space="preserve" font-family="GillSans,Gill Sans" font-size="32.0" fill="#FEFFFF" transform="matrix(1.00, 0.00, -0.00, -1.00, 923.6, 152.4)">b</text><text xml:space="preserve" font-family="GillSans,Gill Sans" font-size="32.0" fill="#FEFFFF" transform="matrix(1.00, 0.00, -0.00, -1.00, 939.6, 152.4)">o</text><text xml:space="preserve" font-family="GillSans,Gill Sans" font-size="32.0" fill="#FEFFFF" transform="matrix(1.00, 0.00, -0.00, -1.00, 957.2, 152.4)">u</text><text xml:space="preserve" font-family="GillSans,Gill Sans" font-size="32.0" fill="#FEFFFF" transform="matrix(1.00, 0.00, -0.00, -1.00, 973.2, 152.4)">t</text><text xml:space="preserve" font-family="GillSans,Gill Sans" font-size="32.0" fill="#FEFFFF" transform="matrix(1.00, 0.00, -0.00, -1.00, 983.9, 152.4)"> </text><text xml:space="preserve" font-family="GillSans,Gill Sans" font-size="32.0" fill="#FEFFFF" transform="matrix(1.00, 0.00, -0.00, -1.00, 538.4, 116.4)">v</text><text xml:space="preserve" font-family="GillSans,Gill Sans" font-size="32.0" fill="#FEFFFF" transform="matrix(1.00, 0.00, -0.00, -1.00, 552.4, 116.4)">i</text><text xml:space="preserve" font-family="GillSans,Gill Sans" font-size="32.0" fill="#FEFFFF" transform="matrix(1.00, 0.00, -0.00, -1.00, 559.4, 116.4)">s</text><text xml:space="preserve" font-family="GillSans,Gill Sans" font-size="32.0" fill="#FEFFFF" transform="matrix(1.00, 0.00, -0.00, -1.00, 571.7, 116.4)">u</text><text xml:space="preserve" font-family="GillSans,Gill Sans" font-size="32.0" fill="#FEFFFF" transform="matrix(1.00, 0.00, -0.00, -1.00, 587.7, 116.4)">a</text><text xml:space="preserve" font-family="GillSans,Gill Sans" font-size="32.0" fill="#FEFFFF" transform="matrix(1.00, 0.00, -0.00, -1.00, 601.4, 116.4)">l</text><text xml:space="preserve" font-family="GillSans,Gill Sans" font-size="32.0" fill="#FEFFFF" transform="matrix(1.00, 0.00, -0.00, -1.00, 608.4, 116.4)"> </text><text xml:space="preserve" font-family="GillSans,Gill Sans" font-size="32.0" fill="#FEFFFF" transform="matrix(1.00, 0.00, -0.00, -1.00, 617.3, 116.4)">m</text><text xml:space="preserve" font-family="GillSans,Gill Sans" font-size="32.0" fill="#FEFFFF" transform="matrix(1.00, 0.00, -0.00, -1.00, 642.0, 116.4)">o</text><text xml:space="preserve" font-family="GillSans,Gill Sans" font-size="32.0" fill="#FEFFFF" transform="matrix(1.00, 0.00, -0.00, -1.00, 659.6, 116.4)">t</text><text xml:space="preserve" font-family="GillSans,Gill Sans" font-size="32.0" fill="#FEFFFF" transform="matrix(1.00, 0.00, -0.00, -1.00, 670.3, 116.4)">i</text><text xml:space="preserve" font-family="GillSans,Gill Sans" font-size="32.0" fill="#FEFFFF" transform="matrix(1.00, 0.00, -0.00, -1.00, 677.3, 116.4)">o</text><text xml:space="preserve" font-family="GillSans,Gill Sans" font-size="32.0" fill="#FEFFFF" transform="matrix(1.00, 0.00, -0.00, -1.00, 694.9, 116.4)">n</text><text xml:space="preserve" font-family="GillSans,Gill Sans" font-size="32.0" fill="#FEFFFF" transform="matrix(1.00, 0.00, -0.00, -1.00, 710.9, 116.4)">.</text></g></g></g></svg>