<?xml version="1.0" encoding="UTF-8" standalone="no"?><svg xmlns="http://www.w3.org/2000/svg" xmlns:xlink="http://www.w3.org/1999/xlink" clip-rule="evenodd" stroke-miterlimit="10" viewBox="0 0 409 72"><desc>SVG generated by Keynote</desc><defs></defs><g transform="matrix(1.00, 0.00, -0.00, -1.00, 0.0, 72.0)"><image xlink:href="../../3DAA390D-ECCA-408A-8275-827B77D0570C/assets/73F20592C87FF5B4DC410B835A4DCD82.png" width="406.00" height="69.00" transform="matrix(1.00, 0.00, -0.00, -1.00, 2.0, 70.0)"></image><text xml:space="preserve" font-family="GillSans-Light,Gill Sans" font-size="85.4" fill="#FEFFFE" transform="matrix(1.00, 0.00, -0.00, -1.00, 1.8, 7.7)">C</text><text xml:space="preserve" font-family="GillSans-Light,Gill Sans" font-size="85.4" fill="#FEFFFE" transform="matrix(1.00, 0.00, -0.00, -1.00, 59.6, 7.7)">o</text><text xml:space="preserve" font-family="GillSans-Light,Gill Sans" font-size="85.4" fill="#FEFFFE" transform="matrix(1.00, 0.00, -0.00, -1.00, 105.9, 7.7)">n</text><text xml:space="preserve" font-family="GillSans-Light,Gill Sans" font-size="85.4" fill="#FEFFFE" transform="matrix(1.00, 0.00, -0.00, -1.00, 147.8, 7.7)">c</text><text xml:space="preserve" font-family="GillSans-Light,Gill Sans" font-size="85.4" fill="#FEFFFE" transform="matrix(1.00, 0.00, -0.00, -1.00, 183.5, 7.7)">l</text><text xml:space="preserve" font-family="GillSans-Light,Gill Sans" font-size="85.4" fill="#FEFFFE" transform="matrix(1.00, 0.00, -0.00, -1.00, 199.5, 7.7)">u</text><text xml:space="preserve" font-family="GillSans-Light,Gill Sans" font-size="85.4" fill="#FEFFFE" transform="matrix(1.00, 0.00, -0.00, -1.00, 241.4, 7.7)">s</text><text xml:space="preserve" font-family="GillSans-Light,Gill Sans" font-size="85.4" fill="#FEFFFE" transform="matrix(1.00, 0.00, -0.00, -1.00, 271.7, 7.7)">i</text><text xml:space="preserve" font-family="GillSans-Light,Gill Sans" font-size="85.4" fill="#FEFFFE" transform="matrix(1.00, 0.00, -0.00, -1.00, 287.7, 7.7)">o</text><text xml:space="preserve" font-family="GillSans-Light,Gill Sans" font-size="85.4" fill="#FEFFFE" transform="matrix(1.00, 0.00, -0.00, -1.00, 334.1, 7.7)">n</text><text xml:space="preserve" font-family="GillSans-Light,Gill Sans" font-size="85.4" fill="#FEFFFE" transform="matrix(1.00, 0.00, -0.00, -1.00, 376.0, 7.7)">s</text></g></svg>