<?xml version="1.0" encoding="UTF-8" standalone="no"?><svg xmlns="http://www.w3.org/2000/svg" xmlns:xlink="http://www.w3.org/1999/xlink" clip-rule="evenodd" stroke-miterlimit="10" viewBox="0 0 438 197"><desc>SVG generated by Keynote</desc><defs></defs><g transform="matrix(1.00, 0.00, -0.00, -1.00, 0.0, 197.0)"><text xml:space="preserve" font-family="GillSans-Light,Gill Sans" font-size="31.5" fill="#FEFFFE" transform="matrix(1.00, 0.00, -0.00, -1.00, 1.0, 167.9)">•</text><text xml:space="preserve" font-family="GillSans-Light,Gill Sans" font-size="38.4" fill="#FEFFFE" transform="matrix(1.00, 0.00, -0.00, -1.00, 35.2, 166.0)">T</text><text xml:space="preserve" font-family="GillSans-Light,Gill Sans" font-size="38.4" fill="#FEFFFE" transform="matrix(1.00, 0.00, -0.00, -1.00, 57.2, 166.0)">h</text><text xml:space="preserve" font-family="GillSans-Light,Gill Sans" font-size="38.4" fill="#FEFFFE" transform="matrix(1.00, 0.00, -0.00, -1.00, 76.1, 166.0)">e</text><text xml:space="preserve" font-family="GillSans-Light,Gill Sans" font-size="38.4" fill="#FEFFFE" transform="matrix(1.00, 0.00, -0.00, -1.00, 94.5, 166.0)">y</text><text xml:space="preserve" font-family="GillSans-Light,Gill Sans" font-size="38.4" fill="#FEFFFE" transform="matrix(1.00, 0.00, -0.00, -1.00, 110.5, 166.0)"> </text><text xml:space="preserve" font-family="GillSans-Light,Gill Sans" font-size="38.4" fill="#FEFFFE" transform="matrix(1.00, 0.00, -0.00, -1.00, 121.1, 166.0)">m</text><text xml:space="preserve" font-family="GillSans-Light,Gill Sans" font-size="38.4" fill="#FEFFFE" transform="matrix(1.00, 0.00, -0.00, -1.00, 150.8, 166.0)">a</text><text xml:space="preserve" font-family="GillSans-Light,Gill Sans" font-size="38.4" fill="#FEFFFE" transform="matrix(1.00, 0.00, -0.00, -1.00, 166.5, 166.0)">y</text><text xml:space="preserve" font-family="GillSans-Light,Gill Sans" font-size="38.4" fill="#FEFFFE" transform="matrix(1.00, 0.00, -0.00, -1.00, 182.6, 166.0)"> </text><text xml:space="preserve" font-family="GillSans-Light,Gill Sans" font-size="38.4" fill="#FEFFFE" transform="matrix(1.00, 0.00, -0.00, -1.00, 193.2, 166.0)">p</text><text xml:space="preserve" font-family="GillSans-Light,Gill Sans" font-size="38.4" fill="#FEFFFE" transform="matrix(1.00, 0.00, -0.00, -1.00, 212.8, 166.0)">l</text><text xml:space="preserve" font-family="GillSans-Light,Gill Sans" font-size="38.4" fill="#FEFFFE" transform="matrix(1.00, 0.00, -0.00, -1.00, 220.0, 166.0)">a</text><text xml:space="preserve" font-family="GillSans-Light,Gill Sans" font-size="38.4" fill="#FEFFFE" transform="matrix(1.00, 0.00, -0.00, -1.00, 235.8, 166.0)">y</text><text xml:space="preserve" font-family="GillSans-Light,Gill Sans" font-size="38.4" fill="#FEFFFE" transform="matrix(1.00, 0.00, -0.00, -1.00, 251.8, 166.0)"> </text><text xml:space="preserve" font-family="GillSans-Light,Gill Sans" font-size="38.4" fill="#FEFFFE" transform="matrix(1.00, 0.00, -0.00, -1.00, 35.2, 114.4)">c</text><text xml:space="preserve" font-family="GillSans-Light,Gill Sans" font-size="38.4" fill="#FEFFFE" transform="matrix(1.00, 0.00, -0.00, -1.00, 51.2, 114.4)">o</text><text xml:space="preserve" font-family="GillSans-Light,Gill Sans" font-size="38.4" fill="#FEFFFE" transform="matrix(1.00, 0.00, -0.00, -1.00, 72.1, 114.4)">m</text><text xml:space="preserve" font-family="GillSans-Light,Gill Sans" font-size="38.4" fill="#FEFFFE" transform="matrix(1.00, 0.00, -0.00, -1.00, 101.7, 114.4)">p</text><text xml:space="preserve" font-family="GillSans-Light,Gill Sans" font-size="38.4" fill="#FEFFFE" transform="matrix(1.00, 0.00, -0.00, -1.00, 121.2, 114.4)">l</text><text xml:space="preserve" font-family="GillSans-Light,Gill Sans" font-size="38.4" fill="#FEFFFE" transform="matrix(1.00, 0.00, -0.00, -1.00, 128.4, 114.4)">e</text><text xml:space="preserve" font-family="GillSans-Light,Gill Sans" font-size="38.4" fill="#FEFFFE" transform="matrix(1.00, 0.00, -0.00, -1.00, 146.8, 114.4)">m</text><text xml:space="preserve" font-family="GillSans-Light,Gill Sans" font-size="38.4" fill="#FEFFFE" transform="matrix(1.00, 0.00, -0.00, -1.00, 176.4, 114.4)">e</text><text xml:space="preserve" font-family="GillSans-Light,Gill Sans" font-size="38.4" fill="#FEFFFE" transform="matrix(1.00, 0.00, -0.00, -1.00, 194.8, 114.4)">n</text><text xml:space="preserve" font-family="GillSans-Light,Gill Sans" font-size="38.4" fill="#FEFFFE" transform="matrix(1.00, 0.00, -0.00, -1.00, 213.7, 114.4)">t</text><text xml:space="preserve" font-family="GillSans-Light,Gill Sans" font-size="38.4" fill="#FEFFFE" transform="matrix(1.00, 0.00, -0.00, -1.00, 225.2, 114.4)">a</text><text xml:space="preserve" font-family="GillSans-Light,Gill Sans" font-size="38.4" fill="#FEFFFE" transform="matrix(1.00, 0.00, -0.00, -1.00, 241.6, 114.4)">r</text><text xml:space="preserve" font-family="GillSans-Light,Gill Sans" font-size="38.4" fill="#FEFFFE" transform="matrix(1.00, 0.00, -0.00, -1.00, 257.1, 114.4)">y</text><text xml:space="preserve" font-family="GillSans-Light,Gill Sans" font-size="38.4" fill="#FEFFFE" transform="matrix(1.00, 0.00, -0.00, -1.00, 273.1, 114.4)"> </text><text xml:space="preserve" font-family="GillSans-Light,Gill Sans" font-size="38.4" fill="#FEFFFE" transform="matrix(1.00, 0.00, -0.00, -1.00, 283.8, 114.4)">r</text><text xml:space="preserve" font-family="GillSans-Light,Gill Sans" font-size="38.4" fill="#FEFFFE" transform="matrix(1.00, 0.00, -0.00, -1.00, 296.6, 114.4)">o</text><text xml:space="preserve" font-family="GillSans-Light,Gill Sans" font-size="38.4" fill="#FEFFFE" transform="matrix(1.00, 0.00, -0.00, -1.00, 317.4, 114.4)">l</text><text xml:space="preserve" font-family="GillSans-Light,Gill Sans" font-size="38.4" fill="#FEFFFE" transform="matrix(1.00, 0.00, -0.00, -1.00, 324.6, 114.4)">e</text><text xml:space="preserve" font-family="GillSans-Light,Gill Sans" font-size="38.4" fill="#FEFFFE" transform="matrix(1.00, 0.00, -0.00, -1.00, 343.0, 114.4)">s</text><text xml:space="preserve" font-family="GillSans-Light,Gill Sans" font-size="38.4" fill="#FEFFFE" transform="matrix(1.00, 0.00, -0.00, -1.00, 356.6, 114.4)"> </text><text xml:space="preserve" font-family="GillSans-Light,Gill Sans" font-size="38.4" fill="#FEFFFE" transform="matrix(1.00, 0.00, -0.00, -1.00, 367.2, 114.4)">i</text><text xml:space="preserve" font-family="GillSans-Light,Gill Sans" font-size="38.4" fill="#FEFFFE" transform="matrix(1.00, 0.00, -0.00, -1.00, 374.5, 114.4)">n</text><text xml:space="preserve" font-family="GillSans-Light,Gill Sans" font-size="38.4" fill="#FEFFFE" transform="matrix(1.00, 0.00, -0.00, -1.00, 393.3, 114.4)"> </text><text xml:space="preserve" font-family="GillSans-Light,Gill Sans" font-size="38.4" fill="#FEFFFE" transform="matrix(1.00, 0.00, -0.00, -1.00, 35.2, 62.8)">m</text><text xml:space="preserve" font-family="GillSans-Light,Gill Sans" font-size="38.4" fill="#FEFFFE" transform="matrix(1.00, 0.00, -0.00, -1.00, 64.8, 62.8)">o</text><text xml:space="preserve" font-family="GillSans-Light,Gill Sans" font-size="38.4" fill="#FEFFFE" transform="matrix(1.00, 0.00, -0.00, -1.00, 85.6, 62.8)">t</text><text xml:space="preserve" font-family="GillSans-Light,Gill Sans" font-size="38.4" fill="#FEFFFE" transform="matrix(1.00, 0.00, -0.00, -1.00, 97.2, 62.8)">i</text><text xml:space="preserve" font-family="GillSans-Light,Gill Sans" font-size="38.4" fill="#FEFFFE" transform="matrix(1.00, 0.00, -0.00, -1.00, 104.4, 62.8)">o</text><text xml:space="preserve" font-family="GillSans-Light,Gill Sans" font-size="38.4" fill="#FEFFFE" transform="matrix(1.00, 0.00, -0.00, -1.00, 125.3, 62.8)">n</text><text xml:space="preserve" font-family="GillSans-Light,Gill Sans" font-size="38.4" fill="#FEFFFE" transform="matrix(1.00, 0.00, -0.00, -1.00, 144.1, 62.8)"> </text><text xml:space="preserve" font-family="GillSans-Light,Gill Sans" font-size="38.4" fill="#FEFFFE" transform="matrix(1.00, 0.00, -0.00, -1.00, 154.7, 62.8)">p</text><text xml:space="preserve" font-family="GillSans-Light,Gill Sans" font-size="38.4" fill="#FEFFFE" transform="matrix(1.00, 0.00, -0.00, -1.00, 174.3, 62.8)">e</text><text xml:space="preserve" font-family="GillSans-Light,Gill Sans" font-size="38.4" fill="#FEFFFE" transform="matrix(1.00, 0.00, -0.00, -1.00, 192.7, 62.8)">r</text><text xml:space="preserve" font-family="GillSans-Light,Gill Sans" font-size="38.4" fill="#FEFFFE" transform="matrix(1.00, 0.00, -0.00, -1.00, 205.5, 62.8)">c</text><text xml:space="preserve" font-family="GillSans-Light,Gill Sans" font-size="38.4" fill="#FEFFFE" transform="matrix(1.00, 0.00, -0.00, -1.00, 221.5, 62.8)">e</text><text xml:space="preserve" font-family="GillSans-Light,Gill Sans" font-size="38.4" fill="#FEFFFE" transform="matrix(1.00, 0.00, -0.00, -1.00, 239.9, 62.8)">p</text><text xml:space="preserve" font-family="GillSans-Light,Gill Sans" font-size="38.4" fill="#FEFFFE" transform="matrix(1.00, 0.00, -0.00, -1.00, 259.5, 62.8)">t</text><text xml:space="preserve" font-family="GillSans-Light,Gill Sans" font-size="38.4" fill="#FEFFFE" transform="matrix(1.00, 0.00, -0.00, -1.00, 271.1, 62.8)">i</text><text xml:space="preserve" font-family="GillSans-Light,Gill Sans" font-size="38.4" fill="#FEFFFE" transform="matrix(1.00, 0.00, -0.00, -1.00, 278.3, 62.8)">o</text><text xml:space="preserve" font-family="GillSans-Light,Gill Sans" font-size="38.4" fill="#FEFFFE" transform="matrix(1.00, 0.00, -0.00, -1.00, 299.1, 62.8)">n</text><text xml:space="preserve" font-family="GillSans-Light,Gill Sans" font-size="38.4" fill="#FEFFFE" transform="matrix(1.00, 0.00, -0.00, -1.00, 317.9, 62.8)"> </text><text xml:space="preserve" font-family="GillSans-Light,Gill Sans" font-size="38.4" fill="#FEFFFE" transform="matrix(1.00, 0.00, -0.00, -1.00, 328.6, 62.8)">(</text><text xml:space="preserve" font-family="GillSans-Light,Gill Sans" font-size="38.4" fill="#FEFFFE" transform="matrix(1.00, 0.00, -0.00, -1.00, 341.4, 62.8)">ﬁ</text><text xml:space="preserve" font-family="GillSans-Light,Gill Sans" font-size="38.4" fill="#FEFFFE" transform="matrix(1.00, 0.00, -0.00, -1.00, 359.8, 62.8)">g</text><text xml:space="preserve" font-family="GillSans-Light,Gill Sans" font-size="38.4" fill="#FEFFFE" transform="matrix(1.00, 0.00, -0.00, -1.00, 376.1, 62.8)">u</text><text xml:space="preserve" font-family="GillSans-Light,Gill Sans" font-size="38.4" fill="#FEFFFE" transform="matrix(1.00, 0.00, -0.00, -1.00, 395.0, 62.8)">r</text><text xml:space="preserve" font-family="GillSans-Light,Gill Sans" font-size="38.4" fill="#FEFFFE" transform="matrix(1.00, 0.00, -0.00, -1.00, 407.8, 62.8)">e</text><text xml:space="preserve" font-family="GillSans-Light,Gill Sans" font-size="38.4" fill="#FEFFFE" transform="matrix(1.00, 0.00, -0.00, -1.00, 426.2, 62.8)">/</text><text xml:space="preserve" font-family="GillSans-Light,Gill Sans" font-size="38.4" fill="#FEFFFE" transform="matrix(1.00, 0.00, -0.00, -1.00, 35.2, 11.2)">g</text><text xml:space="preserve" font-family="GillSans-Light,Gill Sans" font-size="38.4" fill="#FEFFFE" transform="matrix(1.00, 0.00, -0.00, -1.00, 51.6, 11.2)">r</text><text xml:space="preserve" font-family="GillSans-Light,Gill Sans" font-size="38.4" fill="#FEFFFE" transform="matrix(1.00, 0.00, -0.00, -1.00, 64.4, 11.2)">o</text><text xml:space="preserve" font-family="GillSans-Light,Gill Sans" font-size="38.4" fill="#FEFFFE" transform="matrix(1.00, 0.00, -0.00, -1.00, 85.2, 11.2)">u</text><text xml:space="preserve" font-family="GillSans-Light,Gill Sans" font-size="38.4" fill="#FEFFFE" transform="matrix(1.00, 0.00, -0.00, -1.00, 104.0, 11.2)">n</text><text xml:space="preserve" font-family="GillSans-Light,Gill Sans" font-size="38.4" fill="#FEFFFE" transform="matrix(1.00, 0.00, -0.00, -1.00, 122.9, 11.2)">d</text><text xml:space="preserve" font-family="GillSans-Light,Gill Sans" font-size="38.4" fill="#FEFFFE" transform="matrix(1.00, 0.00, -0.00, -1.00, 142.4, 11.2)">)</text></g></svg>