<?xml version="1.0" encoding="UTF-8" standalone="no"?><svg xmlns="http://www.w3.org/2000/svg" xmlns:xlink="http://www.w3.org/1999/xlink" clip-rule="evenodd" stroke-miterlimit="10" viewBox="0 0 446 248"><desc>SVG generated by Keynote</desc><defs></defs><g transform="matrix(1.00, 0.00, -0.00, -1.00, 0.0, 248.0)"><text xml:space="preserve" font-family="GillSans-Light,Gill Sans" font-size="31.5" fill="#FEFFFE" transform="matrix(1.00, 0.00, -0.00, -1.00, 1.0, 219.0)">•</text><text xml:space="preserve" font-family="GillSans-Light,Gill Sans" font-size="38.4" fill="#FEFFFE" transform="matrix(1.00, 0.00, -0.00, -1.00, 35.2, 217.2)">B</text><text xml:space="preserve" font-family="GillSans-Light,Gill Sans" font-size="38.4" fill="#FEFFFE" transform="matrix(1.00, 0.00, -0.00, -1.00, 55.6, 217.2)">i</text><text xml:space="preserve" font-family="GillSans-Light,Gill Sans" font-size="38.4" fill="#FEFFFE" transform="matrix(1.00, 0.00, -0.00, -1.00, 62.8, 217.2)">a</text><text xml:space="preserve" font-family="GillSans-Light,Gill Sans" font-size="38.4" fill="#FEFFFE" transform="matrix(1.00, 0.00, -0.00, -1.00, 79.2, 217.2)">s</text><text xml:space="preserve" font-family="GillSans-Light,Gill Sans" font-size="38.4" fill="#FEFFFE" transform="matrix(1.00, 0.00, -0.00, -1.00, 92.8, 217.2)"> </text><text xml:space="preserve" font-family="GillSans-Light,Gill Sans" font-size="38.4" fill="#FEFFFE" transform="matrix(1.00, 0.00, -0.00, -1.00, 103.5, 217.2)">a</text><text xml:space="preserve" font-family="GillSans-Light,Gill Sans" font-size="38.4" fill="#FEFFFE" transform="matrix(1.00, 0.00, -0.00, -1.00, 119.8, 217.2)">g</text><text xml:space="preserve" font-family="GillSans-Light,Gill Sans" font-size="38.4" fill="#FEFFFE" transform="matrix(1.00, 0.00, -0.00, -1.00, 136.2, 217.2)">a</text><text xml:space="preserve" font-family="GillSans-Light,Gill Sans" font-size="38.4" fill="#FEFFFE" transform="matrix(1.00, 0.00, -0.00, -1.00, 152.6, 217.2)">i</text><text xml:space="preserve" font-family="GillSans-Light,Gill Sans" font-size="38.4" fill="#FEFFFE" transform="matrix(1.00, 0.00, -0.00, -1.00, 159.8, 217.2)">n</text><text xml:space="preserve" font-family="GillSans-Light,Gill Sans" font-size="38.4" fill="#FEFFFE" transform="matrix(1.00, 0.00, -0.00, -1.00, 178.6, 217.2)">s</text><text xml:space="preserve" font-family="GillSans-Light,Gill Sans" font-size="38.4" fill="#FEFFFE" transform="matrix(1.00, 0.00, -0.00, -1.00, 192.2, 217.2)">t</text><text xml:space="preserve" font-family="GillSans-Light,Gill Sans" font-size="38.4" fill="#FEFFFE" transform="matrix(1.00, 0.00, -0.00, -1.00, 203.8, 217.2)"> </text><text xml:space="preserve" font-family="GillSans-Light,Gill Sans" font-size="38.4" fill="#FEFFFE" transform="matrix(1.00, 0.00, -0.00, -1.00, 214.5, 217.2)">ﬁ</text><text xml:space="preserve" font-family="GillSans-Light,Gill Sans" font-size="38.4" fill="#FEFFFE" transform="matrix(1.00, 0.00, -0.00, -1.00, 232.9, 217.2)">r</text><text xml:space="preserve" font-family="GillSans-Light,Gill Sans" font-size="38.4" fill="#FEFFFE" transform="matrix(1.00, 0.00, -0.00, -1.00, 247.2, 217.2)">s</text><text xml:space="preserve" font-family="GillSans-Light,Gill Sans" font-size="38.4" fill="#FEFFFE" transform="matrix(1.00, 0.00, -0.00, -1.00, 260.8, 217.2)">t</text><text xml:space="preserve" font-family="GillSans-Light,Gill Sans" font-size="38.4" fill="#FEFFFE" transform="matrix(1.00, 0.00, -0.00, -1.00, 272.4, 217.2)">-</text><text xml:space="preserve" font-family="GillSans-Light,Gill Sans" font-size="38.4" fill="#FEFFFE" transform="matrix(1.00, 0.00, -0.00, -1.00, 284.4, 217.2)">o</text><text xml:space="preserve" font-family="GillSans-Light,Gill Sans" font-size="38.4" fill="#FEFFFE" transform="matrix(1.00, 0.00, -0.00, -1.00, 305.2, 217.2)">r</text><text xml:space="preserve" font-family="GillSans-Light,Gill Sans" font-size="38.4" fill="#FEFFFE" transform="matrix(1.00, 0.00, -0.00, -1.00, 318.0, 217.2)">d</text><text xml:space="preserve" font-family="GillSans-Light,Gill Sans" font-size="38.4" fill="#FEFFFE" transform="matrix(1.00, 0.00, -0.00, -1.00, 337.6, 217.2)">e</text><text xml:space="preserve" font-family="GillSans-Light,Gill Sans" font-size="38.4" fill="#FEFFFE" transform="matrix(1.00, 0.00, -0.00, -1.00, 355.9, 217.2)">r</text><text xml:space="preserve" font-family="GillSans-Light,Gill Sans" font-size="38.4" fill="#FEFFFE" transform="matrix(1.00, 0.00, -0.00, -1.00, 368.7, 217.2)"> </text><text xml:space="preserve" font-family="GillSans-Light,Gill Sans" font-size="38.4" fill="#FEFFFE" transform="matrix(1.00, 0.00, -0.00, -1.00, 35.2, 165.6)">m</text><text xml:space="preserve" font-family="GillSans-Light,Gill Sans" font-size="38.4" fill="#FEFFFE" transform="matrix(1.00, 0.00, -0.00, -1.00, 64.8, 165.6)">o</text><text xml:space="preserve" font-family="GillSans-Light,Gill Sans" font-size="38.4" fill="#FEFFFE" transform="matrix(1.00, 0.00, -0.00, -1.00, 85.6, 165.6)">t</text><text xml:space="preserve" font-family="GillSans-Light,Gill Sans" font-size="38.4" fill="#FEFFFE" transform="matrix(1.00, 0.00, -0.00, -1.00, 97.2, 165.6)">i</text><text xml:space="preserve" font-family="GillSans-Light,Gill Sans" font-size="38.4" fill="#FEFFFE" transform="matrix(1.00, 0.00, -0.00, -1.00, 104.4, 165.6)">o</text><text xml:space="preserve" font-family="GillSans-Light,Gill Sans" font-size="38.4" fill="#FEFFFE" transform="matrix(1.00, 0.00, -0.00, -1.00, 125.3, 165.6)">n</text><text xml:space="preserve" font-family="GillSans-Light,Gill Sans" font-size="38.4" fill="#FEFFFE" transform="matrix(1.00, 0.00, -0.00, -1.00, 144.1, 165.6)"> </text><text xml:space="preserve" font-family="GillSans-Light,Gill Sans" font-size="38.4" fill="#FEFFFE" transform="matrix(1.00, 0.00, -0.00, -1.00, 154.7, 165.6)">m</text><text xml:space="preserve" font-family="GillSans-Light,Gill Sans" font-size="38.4" fill="#FEFFFE" transform="matrix(1.00, 0.00, -0.00, -1.00, 184.4, 165.6)">a</text><text xml:space="preserve" font-family="GillSans-Light,Gill Sans" font-size="38.4" fill="#FEFFFE" transform="matrix(1.00, 0.00, -0.00, -1.00, 200.2, 165.6)">y</text><text xml:space="preserve" font-family="GillSans-Light,Gill Sans" font-size="38.4" fill="#FEFFFE" transform="matrix(1.00, 0.00, -0.00, -1.00, 216.2, 165.6)"> </text><text xml:space="preserve" font-family="GillSans-Light,Gill Sans" font-size="38.4" fill="#FEFFFE" transform="matrix(1.00, 0.00, -0.00, -1.00, 226.8, 165.6)">c</text><text xml:space="preserve" font-family="GillSans-Light,Gill Sans" font-size="38.4" fill="#FEFFFE" transform="matrix(1.00, 0.00, -0.00, -1.00, 242.8, 165.6)">o</text><text xml:space="preserve" font-family="GillSans-Light,Gill Sans" font-size="38.4" fill="#FEFFFE" transform="matrix(1.00, 0.00, -0.00, -1.00, 263.7, 165.6)">r</text><text xml:space="preserve" font-family="GillSans-Light,Gill Sans" font-size="38.4" fill="#FEFFFE" transform="matrix(1.00, 0.00, -0.00, -1.00, 277.4, 165.6)">r</text><text xml:space="preserve" font-family="GillSans-Light,Gill Sans" font-size="38.4" fill="#FEFFFE" transform="matrix(1.00, 0.00, -0.00, -1.00, 290.2, 165.6)">e</text><text xml:space="preserve" font-family="GillSans-Light,Gill Sans" font-size="38.4" fill="#FEFFFE" transform="matrix(1.00, 0.00, -0.00, -1.00, 308.6, 165.6)">s</text><text xml:space="preserve" font-family="GillSans-Light,Gill Sans" font-size="38.4" fill="#FEFFFE" transform="matrix(1.00, 0.00, -0.00, -1.00, 322.2, 165.6)">p</text><text xml:space="preserve" font-family="GillSans-Light,Gill Sans" font-size="38.4" fill="#FEFFFE" transform="matrix(1.00, 0.00, -0.00, -1.00, 341.7, 165.6)">o</text><text xml:space="preserve" font-family="GillSans-Light,Gill Sans" font-size="38.4" fill="#FEFFFE" transform="matrix(1.00, 0.00, -0.00, -1.00, 362.5, 165.6)">n</text><text xml:space="preserve" font-family="GillSans-Light,Gill Sans" font-size="38.4" fill="#FEFFFE" transform="matrix(1.00, 0.00, -0.00, -1.00, 381.4, 165.6)">d</text><text xml:space="preserve" font-family="GillSans-Light,Gill Sans" font-size="38.4" fill="#FEFFFE" transform="matrix(1.00, 0.00, -0.00, -1.00, 400.9, 165.6)"> </text><text xml:space="preserve" font-family="GillSans-Light,Gill Sans" font-size="38.4" fill="#FEFFFE" transform="matrix(1.00, 0.00, -0.00, -1.00, 411.6, 165.6)">t</text><text xml:space="preserve" font-family="GillSans-Light,Gill Sans" font-size="38.4" fill="#FEFFFE" transform="matrix(1.00, 0.00, -0.00, -1.00, 423.2, 165.6)">o</text><text xml:space="preserve" font-family="GillSans-Light,Gill Sans" font-size="38.4" fill="#FEFFFE" transform="matrix(1.00, 0.00, -0.00, -1.00, 444.0, 165.6)"> </text><text xml:space="preserve" font-family="GillSans-Light,Gill Sans" font-size="38.4" fill="#FEFFFE" transform="matrix(1.00, 0.00, -0.00, -1.00, 35.2, 114.0)">“</text><text xml:space="preserve" font-family="GillSans-Light,Gill Sans" font-size="38.4" fill="#FEFFFE" transform="matrix(1.00, 0.00, -0.00, -1.00, 50.4, 114.0)">s</text><text xml:space="preserve" font-family="GillSans-Light,Gill Sans" font-size="38.4" fill="#FEFFFE" transform="matrix(1.00, 0.00, -0.00, -1.00, 64.0, 114.0)">u</text><text xml:space="preserve" font-family="GillSans-Light,Gill Sans" font-size="38.4" fill="#FEFFFE" transform="matrix(1.00, 0.00, -0.00, -1.00, 82.9, 114.0)">b</text><text xml:space="preserve" font-family="GillSans-Light,Gill Sans" font-size="38.4" fill="#FEFFFE" transform="matrix(1.00, 0.00, -0.00, -1.00, 102.4, 114.0)">t</text><text xml:space="preserve" font-family="GillSans-Light,Gill Sans" font-size="38.4" fill="#FEFFFE" transform="matrix(1.00, 0.00, -0.00, -1.00, 114.0, 114.0)">r</text><text xml:space="preserve" font-family="GillSans-Light,Gill Sans" font-size="38.4" fill="#FEFFFE" transform="matrix(1.00, 0.00, -0.00, -1.00, 127.7, 114.0)">a</text><text xml:space="preserve" font-family="GillSans-Light,Gill Sans" font-size="38.4" fill="#FEFFFE" transform="matrix(1.00, 0.00, -0.00, -1.00, 144.1, 114.0)">c</text><text xml:space="preserve" font-family="GillSans-Light,Gill Sans" font-size="38.4" fill="#FEFFFE" transform="matrix(1.00, 0.00, -0.00, -1.00, 160.1, 114.0)">t</text><text xml:space="preserve" font-family="GillSans-Light,Gill Sans" font-size="38.4" fill="#FEFFFE" transform="matrix(1.00, 0.00, -0.00, -1.00, 171.7, 114.0)">i</text><text xml:space="preserve" font-family="GillSans-Light,Gill Sans" font-size="38.4" fill="#FEFFFE" transform="matrix(1.00, 0.00, -0.00, -1.00, 178.9, 114.0)">n</text><text xml:space="preserve" font-family="GillSans-Light,Gill Sans" font-size="38.4" fill="#FEFFFE" transform="matrix(1.00, 0.00, -0.00, -1.00, 197.8, 114.0)">g</text><text xml:space="preserve" font-family="GillSans-Light,Gill Sans" font-size="38.4" fill="#FEFFFE" transform="matrix(1.00, 0.00, -0.00, -1.00, 214.2, 114.0)"> </text><text xml:space="preserve" font-family="GillSans-Light,Gill Sans" font-size="38.4" fill="#FEFFFE" transform="matrix(1.00, 0.00, -0.00, -1.00, 224.8, 114.0)">o</text><text xml:space="preserve" font-family="GillSans-Light,Gill Sans" font-size="38.4" fill="#FEFFFE" transform="matrix(1.00, 0.00, -0.00, -1.00, 245.6, 114.0)">u</text><text xml:space="preserve" font-family="GillSans-Light,Gill Sans" font-size="38.4" fill="#FEFFFE" transform="matrix(1.00, 0.00, -0.00, -1.00, 264.5, 114.0)">t</text><text xml:space="preserve" font-family="GillSans-Light,Gill Sans" font-size="38.4" fill="#FEFFFE" transform="matrix(1.00, 0.00, -0.00, -1.00, 276.0, 114.0)">”</text><text xml:space="preserve" font-family="GillSans-Light,Gill Sans" font-size="38.4" fill="#FEFFFE" transform="matrix(1.00, 0.00, -0.00, -1.00, 288.2, 114.0)"> </text><text xml:space="preserve" font-family="GillSans-Light,Gill Sans" font-size="38.4" fill="#FEFFFE" transform="matrix(1.00, 0.00, -0.00, -1.00, 298.8, 114.0)">i</text><text xml:space="preserve" font-family="GillSans-Light,Gill Sans" font-size="38.4" fill="#FEFFFE" transform="matrix(1.00, 0.00, -0.00, -1.00, 306.0, 114.0)">r</text><text xml:space="preserve" font-family="GillSans-Light,Gill Sans" font-size="38.4" fill="#FEFFFE" transform="matrix(1.00, 0.00, -0.00, -1.00, 319.8, 114.0)">r</text><text xml:space="preserve" font-family="GillSans-Light,Gill Sans" font-size="38.4" fill="#FEFFFE" transform="matrix(1.00, 0.00, -0.00, -1.00, 332.6, 114.0)">e</text><text xml:space="preserve" font-family="GillSans-Light,Gill Sans" font-size="38.4" fill="#FEFFFE" transform="matrix(1.00, 0.00, -0.00, -1.00, 351.0, 114.0)">l</text><text xml:space="preserve" font-family="GillSans-Light,Gill Sans" font-size="38.4" fill="#FEFFFE" transform="matrix(1.00, 0.00, -0.00, -1.00, 358.2, 114.0)">e</text><text xml:space="preserve" font-family="GillSans-Light,Gill Sans" font-size="38.4" fill="#FEFFFE" transform="matrix(1.00, 0.00, -0.00, -1.00, 376.6, 114.0)">v</text><text xml:space="preserve" font-family="GillSans-Light,Gill Sans" font-size="38.4" fill="#FEFFFE" transform="matrix(1.00, 0.00, -0.00, -1.00, 393.0, 114.0)">a</text><text xml:space="preserve" font-family="GillSans-Light,Gill Sans" font-size="38.4" fill="#FEFFFE" transform="matrix(1.00, 0.00, -0.00, -1.00, 409.3, 114.0)">n</text><text xml:space="preserve" font-family="GillSans-Light,Gill Sans" font-size="38.4" fill="#FEFFFE" transform="matrix(1.00, 0.00, -0.00, -1.00, 428.2, 114.0)">t</text><text xml:space="preserve" font-family="GillSans-Light,Gill Sans" font-size="38.4" fill="#FEFFFE" transform="matrix(1.00, 0.00, -0.00, -1.00, 439.8, 114.0)"> </text><text xml:space="preserve" font-family="GillSans-Light,Gill Sans" font-size="38.4" fill="#FEFFFE" transform="matrix(1.00, 0.00, -0.00, -1.00, 35.2, 62.4)">b</text><text xml:space="preserve" font-family="GillSans-Light,Gill Sans" font-size="38.4" fill="#FEFFFE" transform="matrix(1.00, 0.00, -0.00, -1.00, 54.8, 62.4)">a</text><text xml:space="preserve" font-family="GillSans-Light,Gill Sans" font-size="38.4" fill="#FEFFFE" transform="matrix(1.00, 0.00, -0.00, -1.00, 71.2, 62.4)">c</text><text xml:space="preserve" font-family="GillSans-Light,Gill Sans" font-size="38.4" fill="#FEFFFE" transform="matrix(1.00, 0.00, -0.00, -1.00, 87.2, 62.4)">k</text><text xml:space="preserve" font-family="GillSans-Light,Gill Sans" font-size="38.4" fill="#FEFFFE" transform="matrix(1.00, 0.00, -0.00, -1.00, 103.6, 62.4)">g</text><text xml:space="preserve" font-family="GillSans-Light,Gill Sans" font-size="38.4" fill="#FEFFFE" transform="matrix(1.00, 0.00, -0.00, -1.00, 119.9, 62.4)">r</text><text xml:space="preserve" font-family="GillSans-Light,Gill Sans" font-size="38.4" fill="#FEFFFE" transform="matrix(1.00, 0.00, -0.00, -1.00, 132.7, 62.4)">o</text><text xml:space="preserve" font-family="GillSans-Light,Gill Sans" font-size="38.4" fill="#FEFFFE" transform="matrix(1.00, 0.00, -0.00, -1.00, 153.5, 62.4)">u</text><text xml:space="preserve" font-family="GillSans-Light,Gill Sans" font-size="38.4" fill="#FEFFFE" transform="matrix(1.00, 0.00, -0.00, -1.00, 172.4, 62.4)">n</text><text xml:space="preserve" font-family="GillSans-Light,Gill Sans" font-size="38.4" fill="#FEFFFE" transform="matrix(1.00, 0.00, -0.00, -1.00, 191.2, 62.4)">d</text><text xml:space="preserve" font-family="GillSans-Light,Gill Sans" font-size="38.4" fill="#FEFFFE" transform="matrix(1.00, 0.00, -0.00, -1.00, 210.8, 62.4)"> </text><text xml:space="preserve" font-family="GillSans-Light,Gill Sans" font-size="38.4" fill="#FEFFFE" transform="matrix(1.00, 0.00, -0.00, -1.00, 221.4, 62.4)">m</text><text xml:space="preserve" font-family="GillSans-Light,Gill Sans" font-size="38.4" fill="#FEFFFE" transform="matrix(1.00, 0.00, -0.00, -1.00, 251.0, 62.4)">o</text><text xml:space="preserve" font-family="GillSans-Light,Gill Sans" font-size="38.4" fill="#FEFFFE" transform="matrix(1.00, 0.00, -0.00, -1.00, 271.9, 62.4)">t</text><text xml:space="preserve" font-family="GillSans-Light,Gill Sans" font-size="38.4" fill="#FEFFFE" transform="matrix(1.00, 0.00, -0.00, -1.00, 283.4, 62.4)">i</text><text xml:space="preserve" font-family="GillSans-Light,Gill Sans" font-size="38.4" fill="#FEFFFE" transform="matrix(1.00, 0.00, -0.00, -1.00, 290.7, 62.4)">o</text><text xml:space="preserve" font-family="GillSans-Light,Gill Sans" font-size="38.4" fill="#FEFFFE" transform="matrix(1.00, 0.00, -0.00, -1.00, 311.5, 62.4)">n</text><text xml:space="preserve" font-family="GillSans-Light,Gill Sans" font-size="38.4" fill="#FEFFFE" transform="matrix(1.00, 0.00, -0.00, -1.00, 330.3, 62.4)"> </text><text xml:space="preserve" font-family="GillSans-Light,Gill Sans" font-size="38.4" fill="#FEFFFE" transform="matrix(1.00, 0.00, -0.00, -1.00, 341.0, 62.4)">t</text><text xml:space="preserve" font-family="GillSans-Light,Gill Sans" font-size="38.4" fill="#FEFFFE" transform="matrix(1.00, 0.00, -0.00, -1.00, 352.5, 62.4)">o</text><text xml:space="preserve" font-family="GillSans-Light,Gill Sans" font-size="38.4" fill="#FEFFFE" transform="matrix(1.00, 0.00, -0.00, -1.00, 373.4, 62.4)"> </text><text xml:space="preserve" font-family="GillSans-Light,Gill Sans" font-size="38.4" fill="#FEFFFE" transform="matrix(1.00, 0.00, -0.00, -1.00, 35.2, 10.8)">h</text><text xml:space="preserve" font-family="GillSans-Light,Gill Sans" font-size="38.4" fill="#FEFFFE" transform="matrix(1.00, 0.00, -0.00, -1.00, 54.1, 10.8)">i</text><text xml:space="preserve" font-family="GillSans-Light,Gill Sans" font-size="38.4" fill="#FEFFFE" transform="matrix(1.00, 0.00, -0.00, -1.00, 61.3, 10.8)">g</text><text xml:space="preserve" font-family="GillSans-Light,Gill Sans" font-size="38.4" fill="#FEFFFE" transform="matrix(1.00, 0.00, -0.00, -1.00, 77.7, 10.8)">h</text><text xml:space="preserve" font-family="GillSans-Light,Gill Sans" font-size="38.4" fill="#FEFFFE" transform="matrix(1.00, 0.00, -0.00, -1.00, 96.5, 10.8)">l</text><text xml:space="preserve" font-family="GillSans-Light,Gill Sans" font-size="38.4" fill="#FEFFFE" transform="matrix(1.00, 0.00, -0.00, -1.00, 103.7, 10.8)">i</text><text xml:space="preserve" font-family="GillSans-Light,Gill Sans" font-size="38.4" fill="#FEFFFE" transform="matrix(1.00, 0.00, -0.00, -1.00, 110.9, 10.8)">g</text><text xml:space="preserve" font-family="GillSans-Light,Gill Sans" font-size="38.4" fill="#FEFFFE" transform="matrix(1.00, 0.00, -0.00, -1.00, 127.3, 10.8)">h</text><text xml:space="preserve" font-family="GillSans-Light,Gill Sans" font-size="38.4" fill="#FEFFFE" transform="matrix(1.00, 0.00, -0.00, -1.00, 146.1, 10.8)">t</text><text xml:space="preserve" font-family="GillSans-Light,Gill Sans" font-size="38.4" fill="#FEFFFE" transform="matrix(1.00, 0.00, -0.00, -1.00, 157.7, 10.8)"> </text><text xml:space="preserve" font-family="GillSans-Light,Gill Sans" font-size="38.4" fill="#FEFFFE" transform="matrix(1.00, 0.00, -0.00, -1.00, 168.4, 10.8)">o</text><text xml:space="preserve" font-family="GillSans-Light,Gill Sans" font-size="38.4" fill="#FEFFFE" transform="matrix(1.00, 0.00, -0.00, -1.00, 189.2, 10.8)">b</text><text xml:space="preserve" font-family="GillSans-Light,Gill Sans" font-size="38.4" fill="#FEFFFE" transform="matrix(1.00, 0.00, -0.00, -1.00, 208.8, 10.8)">j</text><text xml:space="preserve" font-family="GillSans-Light,Gill Sans" font-size="38.4" fill="#FEFFFE" transform="matrix(1.00, 0.00, -0.00, -1.00, 216.0, 10.8)">e</text><text xml:space="preserve" font-family="GillSans-Light,Gill Sans" font-size="38.4" fill="#FEFFFE" transform="matrix(1.00, 0.00, -0.00, -1.00, 234.4, 10.8)">c</text><text xml:space="preserve" font-family="GillSans-Light,Gill Sans" font-size="38.4" fill="#FEFFFE" transform="matrix(1.00, 0.00, -0.00, -1.00, 250.4, 10.8)">t</text><text xml:space="preserve" font-family="GillSans-Light,Gill Sans" font-size="38.4" fill="#FEFFFE" transform="matrix(1.00, 0.00, -0.00, -1.00, 262.0, 10.8)"> </text><text xml:space="preserve" font-family="GillSans-Light,Gill Sans" font-size="38.4" fill="#FEFFFE" transform="matrix(1.00, 0.00, -0.00, -1.00, 272.6, 10.8)">m</text><text xml:space="preserve" font-family="GillSans-Light,Gill Sans" font-size="38.4" fill="#FEFFFE" transform="matrix(1.00, 0.00, -0.00, -1.00, 302.2, 10.8)">o</text><text xml:space="preserve" font-family="GillSans-Light,Gill Sans" font-size="38.4" fill="#FEFFFE" transform="matrix(1.00, 0.00, -0.00, -1.00, 323.0, 10.8)">t</text><text xml:space="preserve" font-family="GillSans-Light,Gill Sans" font-size="38.4" fill="#FEFFFE" transform="matrix(1.00, 0.00, -0.00, -1.00, 334.6, 10.8)">i</text><text xml:space="preserve" font-family="GillSans-Light,Gill Sans" font-size="38.4" fill="#FEFFFE" transform="matrix(1.00, 0.00, -0.00, -1.00, 341.8, 10.8)">o</text><text xml:space="preserve" font-family="GillSans-Light,Gill Sans" font-size="38.4" fill="#FEFFFE" transform="matrix(1.00, 0.00, -0.00, -1.00, 362.7, 10.8)">n</text></g></svg>