<?xml version="1.0" encoding="UTF-8" standalone="no"?><svg xmlns="http://www.w3.org/2000/svg" xmlns:xlink="http://www.w3.org/1999/xlink" clip-rule="evenodd" stroke-miterlimit="10" viewBox="0 0 239 27"><desc>SVG generated by Keynote</desc><defs></defs><g transform="matrix(1.00, 0.00, -0.00, -1.00, 0.0, 27.0)"><text xml:space="preserve" font-family="GillSans-Light,Gill Sans" font-size="28.0" fill="#FEFFFE" transform="matrix(1.00, 0.00, -0.00, -1.00, 1.6, 5.0)">A</text><text xml:space="preserve" font-family="GillSans-Light,Gill Sans" font-size="28.0" fill="#FEFFFE" transform="matrix(1.00, 0.00, -0.00, -1.00, 20.3, 5.0)">n</text><text xml:space="preserve" font-family="GillSans-Light,Gill Sans" font-size="28.0" fill="#FEFFFE" transform="matrix(1.00, 0.00, -0.00, -1.00, 34.0, 5.0)">s</text><text xml:space="preserve" font-family="GillSans-Light,Gill Sans" font-size="28.0" fill="#FEFFFE" transform="matrix(1.00, 0.00, -0.00, -1.00, 43.9, 5.0)">t</text><text xml:space="preserve" font-family="GillSans-Light,Gill Sans" font-size="28.0" fill="#FEFFFE" transform="matrix(1.00, 0.00, -0.00, -1.00, 52.4, 5.0)">i</text><text xml:space="preserve" font-family="GillSans-Light,Gill Sans" font-size="28.0" fill="#FEFFFE" transform="matrix(1.00, 0.00, -0.00, -1.00, 57.7, 5.0)">s</text><text xml:space="preserve" font-family="GillSans-Light,Gill Sans" font-size="28.0" fill="#FEFFFE" transform="matrix(1.00, 0.00, -0.00, -1.00, 67.6, 5.0)"> </text><text xml:space="preserve" font-family="GillSans-Light,Gill Sans" font-size="28.0" fill="#FEFFFE" transform="matrix(1.00, 0.00, -0.00, -1.00, 75.3, 5.0)">&amp;</text><text xml:space="preserve" font-family="GillSans-Light,Gill Sans" font-size="28.0" fill="#FEFFFE" transform="matrix(1.00, 0.00, -0.00, -1.00, 92.6, 5.0)"> </text><text xml:space="preserve" font-family="GillSans-Light,Gill Sans" font-size="28.0" fill="#FEFFFE" transform="matrix(1.00, 0.00, -0.00, -1.00, 100.3, 5.0)">C</text><text xml:space="preserve" font-family="GillSans-Light,Gill Sans" font-size="28.0" fill="#FEFFFE" transform="matrix(1.00, 0.00, -0.00, -1.00, 119.3, 5.0)">h</text><text xml:space="preserve" font-family="GillSans-Light,Gill Sans" font-size="28.0" fill="#FEFFFE" transform="matrix(1.00, 0.00, -0.00, -1.00, 133.0, 5.0)">a</text><text xml:space="preserve" font-family="GillSans-Light,Gill Sans" font-size="28.0" fill="#FEFFFE" transform="matrix(1.00, 0.00, -0.00, -1.00, 145.0, 5.0)">c</text><text xml:space="preserve" font-family="GillSans-Light,Gill Sans" font-size="28.0" fill="#FEFFFE" transform="matrix(1.00, 0.00, -0.00, -1.00, 156.6, 5.0)">o</text><text xml:space="preserve" font-family="GillSans-Light,Gill Sans" font-size="28.0" fill="#FEFFFE" transform="matrix(1.00, 0.00, -0.00, -1.00, 171.3, 5.0)">,</text><text xml:space="preserve" font-family="GillSans-Light,Gill Sans" font-size="28.0" fill="#FEFFFE" transform="matrix(1.00, 0.00, -0.00, -1.00, 174.0, 5.0)"> </text><text xml:space="preserve" font-family="GillSans-Light,Gill Sans" font-size="28.0" fill="#FEFFFE" transform="matrix(1.00, 0.00, -0.00, -1.00, 181.7, 5.0)">2</text><text xml:space="preserve" font-family="GillSans-Light,Gill Sans" font-size="28.0" fill="#FEFFFE" transform="matrix(1.00, 0.00, -0.00, -1.00, 195.7, 5.0)">0</text><text xml:space="preserve" font-family="GillSans-Light,Gill Sans" font-size="28.0" fill="#FEFFFE" transform="matrix(1.00, 0.00, -0.00, -1.00, 209.7, 5.0)">0</text><text xml:space="preserve" font-family="GillSans-Light,Gill Sans" font-size="28.0" fill="#FEFFFE" transform="matrix(1.00, 0.00, -0.00, -1.00, 223.7, 5.0)">6</text></g></svg>