<?xml version="1.0" encoding="UTF-8" standalone="no"?><svg xmlns="http://www.w3.org/2000/svg" xmlns:xlink="http://www.w3.org/1999/xlink" clip-rule="evenodd" stroke-miterlimit="10" viewBox="0 0 445 564"><desc>SVG generated by Keynote</desc><defs></defs><g transform="matrix(1.00, 0.00, -0.00, -1.00, 0.0, 564.0)"><text xml:space="preserve" font-family="GillSans-Light,Gill Sans" font-size="32.8" fill="#FEFFFE" transform="matrix(1.00, 0.00, -0.00, -1.00, 0.0, 534.9)">•</text><text xml:space="preserve" font-family="GillSans-Light,Gill Sans" font-size="40.0" fill="#FEFFFE" transform="matrix(1.00, 0.00, -0.00, -1.00, 35.8, 532.1)">W</text><text xml:space="preserve" font-family="GillSans-Light,Gill Sans" font-size="40.0" fill="#FEFFFE" transform="matrix(1.00, 0.00, -0.00, -1.00, 77.0, 532.1)">h</text><text xml:space="preserve" font-family="GillSans-Light,Gill Sans" font-size="40.0" fill="#FEFFFE" transform="matrix(1.00, 0.00, -0.00, -1.00, 96.6, 532.1)">e</text><text xml:space="preserve" font-family="GillSans-Light,Gill Sans" font-size="40.0" fill="#FEFFFE" transform="matrix(1.00, 0.00, -0.00, -1.00, 115.8, 532.1)">n</text><text xml:space="preserve" font-family="GillSans-Light,Gill Sans" font-size="40.0" fill="#FEFFFE" transform="matrix(1.00, 0.00, -0.00, -1.00, 135.4, 532.1)"> </text><text xml:space="preserve" font-family="GillSans-Light,Gill Sans" font-size="40.0" fill="#FEFFFE" transform="matrix(1.00, 0.00, -0.00, -1.00, 146.5, 532.1)">o</text><text xml:space="preserve" font-family="GillSans-Light,Gill Sans" font-size="40.0" fill="#FEFFFE" transform="matrix(1.00, 0.00, -0.00, -1.00, 168.2, 532.1)">b</text><text xml:space="preserve" font-family="GillSans-Light,Gill Sans" font-size="40.0" fill="#FEFFFE" transform="matrix(1.00, 0.00, -0.00, -1.00, 188.6, 532.1)">j</text><text xml:space="preserve" font-family="GillSans-Light,Gill Sans" font-size="40.0" fill="#FEFFFE" transform="matrix(1.00, 0.00, -0.00, -1.00, 196.1, 532.1)">e</text><text xml:space="preserve" font-family="GillSans-Light,Gill Sans" font-size="40.0" fill="#FEFFFE" transform="matrix(1.00, 0.00, -0.00, -1.00, 215.3, 532.1)">c</text><text xml:space="preserve" font-family="GillSans-Light,Gill Sans" font-size="40.0" fill="#FEFFFE" transform="matrix(1.00, 0.00, -0.00, -1.00, 231.9, 532.1)">t</text><text xml:space="preserve" font-family="GillSans-Light,Gill Sans" font-size="40.0" fill="#FEFFFE" transform="matrix(1.00, 0.00, -0.00, -1.00, 244.0, 532.1)">s</text><text xml:space="preserve" font-family="GillSans-Light,Gill Sans" font-size="40.0" fill="#FEFFFE" transform="matrix(1.00, 0.00, -0.00, -1.00, 258.2, 532.1)"> </text><text xml:space="preserve" font-family="GillSans-Light,Gill Sans" font-size="40.0" fill="#FEFFFE" transform="matrix(1.00, 0.00, -0.00, -1.00, 269.3, 532.1)">w</text><text xml:space="preserve" font-family="GillSans-Light,Gill Sans" font-size="40.0" fill="#FEFFFE" transform="matrix(1.00, 0.00, -0.00, -1.00, 297.0, 532.1)">e</text><text xml:space="preserve" font-family="GillSans-Light,Gill Sans" font-size="40.0" fill="#FEFFFE" transform="matrix(1.00, 0.00, -0.00, -1.00, 316.1, 532.1)">r</text><text xml:space="preserve" font-family="GillSans-Light,Gill Sans" font-size="40.0" fill="#FEFFFE" transform="matrix(1.00, 0.00, -0.00, -1.00, 329.5, 532.1)">e</text><text xml:space="preserve" font-family="GillSans-Light,Gill Sans" font-size="40.0" fill="#FEFFFE" transform="matrix(1.00, 0.00, -0.00, -1.00, 348.6, 532.1)"> </text><text xml:space="preserve" font-family="GillSans-Light,Gill Sans" font-size="40.0" fill="#FEFFFE" transform="matrix(1.00, 0.00, -0.00, -1.00, 359.7, 532.1)">w</text><text xml:space="preserve" font-family="GillSans-Light,Gill Sans" font-size="40.0" fill="#FEFFFE" transform="matrix(1.00, 0.00, -0.00, -1.00, 387.4, 532.1)">e</text><text xml:space="preserve" font-family="GillSans-Light,Gill Sans" font-size="40.0" fill="#FEFFFE" transform="matrix(1.00, 0.00, -0.00, -1.00, 406.6, 532.1)">l</text><text xml:space="preserve" font-family="GillSans-Light,Gill Sans" font-size="40.0" fill="#FEFFFE" transform="matrix(1.00, 0.00, -0.00, -1.00, 414.1, 532.1)">l</text><text xml:space="preserve" font-family="GillSans-Light,Gill Sans" font-size="40.0" fill="#FEFFFE" transform="matrix(1.00, 0.00, -0.00, -1.00, 421.6, 532.1)"> </text><text xml:space="preserve" font-family="GillSans-Light,Gill Sans" font-size="40.0" fill="#FEFFFE" transform="matrix(1.00, 0.00, -0.00, -1.00, 35.8, 486.1)">s</text><text xml:space="preserve" font-family="GillSans-Light,Gill Sans" font-size="40.0" fill="#FEFFFE" transform="matrix(1.00, 0.00, -0.00, -1.00, 49.9, 486.1)">e</text><text xml:space="preserve" font-family="GillSans-Light,Gill Sans" font-size="40.0" fill="#FEFFFE" transform="matrix(1.00, 0.00, -0.00, -1.00, 69.1, 486.1)">p</text><text xml:space="preserve" font-family="GillSans-Light,Gill Sans" font-size="40.0" fill="#FEFFFE" transform="matrix(1.00, 0.00, -0.00, -1.00, 89.5, 486.1)">a</text><text xml:space="preserve" font-family="GillSans-Light,Gill Sans" font-size="40.0" fill="#FEFFFE" transform="matrix(1.00, 0.00, -0.00, -1.00, 106.6, 486.1)">r</text><text xml:space="preserve" font-family="GillSans-Light,Gill Sans" font-size="40.0" fill="#FEFFFE" transform="matrix(1.00, 0.00, -0.00, -1.00, 120.9, 486.1)">a</text><text xml:space="preserve" font-family="GillSans-Light,Gill Sans" font-size="40.0" fill="#FEFFFE" transform="matrix(1.00, 0.00, -0.00, -1.00, 137.9, 486.1)">t</text><text xml:space="preserve" font-family="GillSans-Light,Gill Sans" font-size="40.0" fill="#FEFFFE" transform="matrix(1.00, 0.00, -0.00, -1.00, 150.0, 486.1)">e</text><text xml:space="preserve" font-family="GillSans-Light,Gill Sans" font-size="40.0" fill="#FEFFFE" transform="matrix(1.00, 0.00, -0.00, -1.00, 169.2, 486.1)">d</text><text xml:space="preserve" font-family="GillSans-Light,Gill Sans" font-size="40.0" fill="#FEFFFE" transform="matrix(1.00, 0.00, -0.00, -1.00, 189.5, 486.1)">,</text><text xml:space="preserve" font-family="GillSans-Light,Gill Sans" font-size="40.0" fill="#FEFFFE" transform="matrix(1.00, 0.00, -0.00, -1.00, 193.4, 486.1)"> </text><text xml:space="preserve" font-family="GillSans-Light,Gill Sans" font-size="40.0" fill="#FEFFFE" transform="matrix(1.00, 0.00, -0.00, -1.00, 204.5, 486.1)">a</text><text xml:space="preserve" font-family="GillSans-Light,Gill Sans" font-size="40.0" fill="#FEFFFE" transform="matrix(1.00, 0.00, -0.00, -1.00, 221.6, 486.1)">d</text><text xml:space="preserve" font-family="GillSans-Light,Gill Sans" font-size="40.0" fill="#FEFFFE" transform="matrix(1.00, 0.00, -0.00, -1.00, 241.9, 486.1)">d</text><text xml:space="preserve" font-family="GillSans-Light,Gill Sans" font-size="40.0" fill="#FEFFFE" transform="matrix(1.00, 0.00, -0.00, -1.00, 262.3, 486.1)">i</text><text xml:space="preserve" font-family="GillSans-Light,Gill Sans" font-size="40.0" fill="#FEFFFE" transform="matrix(1.00, 0.00, -0.00, -1.00, 269.8, 486.1)">n</text><text xml:space="preserve" font-family="GillSans-Light,Gill Sans" font-size="40.0" fill="#FEFFFE" transform="matrix(1.00, 0.00, -0.00, -1.00, 289.5, 486.1)">g</text><text xml:space="preserve" font-family="GillSans-Light,Gill Sans" font-size="40.0" fill="#FEFFFE" transform="matrix(1.00, 0.00, -0.00, -1.00, 306.5, 486.1)"> </text><text xml:space="preserve" font-family="GillSans-Light,Gill Sans" font-size="40.0" fill="#FEFFFE" transform="matrix(1.00, 0.00, -0.00, -1.00, 317.6, 486.1)">ﬁ</text><text xml:space="preserve" font-family="GillSans-Light,Gill Sans" font-size="40.0" fill="#FEFFFE" transform="matrix(1.00, 0.00, -0.00, -1.00, 336.8, 486.1)">r</text><text xml:space="preserve" font-family="GillSans-Light,Gill Sans" font-size="40.0" fill="#FEFFFE" transform="matrix(1.00, 0.00, -0.00, -1.00, 351.7, 486.1)">s</text><text xml:space="preserve" font-family="GillSans-Light,Gill Sans" font-size="40.0" fill="#FEFFFE" transform="matrix(1.00, 0.00, -0.00, -1.00, 365.9, 486.1)">t</text><text xml:space="preserve" font-family="GillSans-Light,Gill Sans" font-size="40.0" fill="#FEFFFE" transform="matrix(1.00, 0.00, -0.00, -1.00, 377.9, 486.1)">-</text><text xml:space="preserve" font-family="GillSans-Light,Gill Sans" font-size="40.0" fill="#FEFFFE" transform="matrix(1.00, 0.00, -0.00, -1.00, 35.8, 440.1)">o</text><text xml:space="preserve" font-family="GillSans-Light,Gill Sans" font-size="40.0" fill="#FEFFFE" transform="matrix(1.00, 0.00, -0.00, -1.00, 57.5, 440.1)">r</text><text xml:space="preserve" font-family="GillSans-Light,Gill Sans" font-size="40.0" fill="#FEFFFE" transform="matrix(1.00, 0.00, -0.00, -1.00, 70.8, 440.1)">d</text><text xml:space="preserve" font-family="GillSans-Light,Gill Sans" font-size="40.0" fill="#FEFFFE" transform="matrix(1.00, 0.00, -0.00, -1.00, 91.2, 440.1)">e</text><text xml:space="preserve" font-family="GillSans-Light,Gill Sans" font-size="40.0" fill="#FEFFFE" transform="matrix(1.00, 0.00, -0.00, -1.00, 110.3, 440.1)">r</text><text xml:space="preserve" font-family="GillSans-Light,Gill Sans" font-size="40.0" fill="#FEFFFE" transform="matrix(1.00, 0.00, -0.00, -1.00, 123.7, 440.1)"> </text><text xml:space="preserve" font-family="GillSans-Light,Gill Sans" font-size="40.0" fill="#FEFFFE" transform="matrix(1.00, 0.00, -0.00, -1.00, 134.8, 440.1)">m</text><text xml:space="preserve" font-family="GillSans-Light,Gill Sans" font-size="40.0" fill="#FEFFFE" transform="matrix(1.00, 0.00, -0.00, -1.00, 165.6, 440.1)">o</text><text xml:space="preserve" font-family="GillSans-Light,Gill Sans" font-size="40.0" fill="#FEFFFE" transform="matrix(1.00, 0.00, -0.00, -1.00, 187.3, 440.1)">t</text><text xml:space="preserve" font-family="GillSans-Light,Gill Sans" font-size="40.0" fill="#FEFFFE" transform="matrix(1.00, 0.00, -0.00, -1.00, 199.3, 440.1)">i</text><text xml:space="preserve" font-family="GillSans-Light,Gill Sans" font-size="40.0" fill="#FEFFFE" transform="matrix(1.00, 0.00, -0.00, -1.00, 206.9, 440.1)">o</text><text xml:space="preserve" font-family="GillSans-Light,Gill Sans" font-size="40.0" fill="#FEFFFE" transform="matrix(1.00, 0.00, -0.00, -1.00, 228.5, 440.1)">n</text><text xml:space="preserve" font-family="GillSans-Light,Gill Sans" font-size="40.0" fill="#FEFFFE" transform="matrix(1.00, 0.00, -0.00, -1.00, 248.2, 440.1)"> </text><text xml:space="preserve" font-family="GillSans-Light,Gill Sans" font-size="40.0" fill="#FEFFFE" transform="matrix(1.00, 0.00, -0.00, -1.00, 259.3, 440.1)">a</text><text xml:space="preserve" font-family="GillSans-Light,Gill Sans" font-size="40.0" fill="#FEFFFE" transform="matrix(1.00, 0.00, -0.00, -1.00, 276.3, 440.1)">c</text><text xml:space="preserve" font-family="GillSans-Light,Gill Sans" font-size="40.0" fill="#FEFFFE" transform="matrix(1.00, 0.00, -0.00, -1.00, 293.0, 440.1)">t</text><text xml:space="preserve" font-family="GillSans-Light,Gill Sans" font-size="40.0" fill="#FEFFFE" transform="matrix(1.00, 0.00, -0.00, -1.00, 305.1, 440.1)">u</text><text xml:space="preserve" font-family="GillSans-Light,Gill Sans" font-size="40.0" fill="#FEFFFE" transform="matrix(1.00, 0.00, -0.00, -1.00, 324.7, 440.1)">a</text><text xml:space="preserve" font-family="GillSans-Light,Gill Sans" font-size="40.0" fill="#FEFFFE" transform="matrix(1.00, 0.00, -0.00, -1.00, 341.7, 440.1)">l</text><text xml:space="preserve" font-family="GillSans-Light,Gill Sans" font-size="40.0" fill="#FEFFFE" transform="matrix(1.00, 0.00, -0.00, -1.00, 349.3, 440.1)">l</text><text xml:space="preserve" font-family="GillSans-Light,Gill Sans" font-size="40.0" fill="#FEFFFE" transform="matrix(1.00, 0.00, -0.00, -1.00, 356.4, 440.1)">y</text><text xml:space="preserve" font-family="GillSans-Light,Gill Sans" font-size="40.0" fill="#FEFFFE" transform="matrix(1.00, 0.00, -0.00, -1.00, 373.1, 440.1)"> </text><text xml:space="preserve" font-family="GillSans-Light,Gill Sans" font-size="40.0" fill="#FEFFFE" transform="matrix(1.00, 0.00, -0.00, -1.00, 35.8, 394.1)">c</text><text xml:space="preserve" font-family="GillSans-Light,Gill Sans" font-size="40.0" fill="#FEFFFE" transform="matrix(1.00, 0.00, -0.00, -1.00, 52.5, 394.1)">a</text><text xml:space="preserve" font-family="GillSans-Light,Gill Sans" font-size="40.0" fill="#FEFFFE" transform="matrix(1.00, 0.00, -0.00, -1.00, 69.5, 394.1)">u</text><text xml:space="preserve" font-family="GillSans-Light,Gill Sans" font-size="40.0" fill="#FEFFFE" transform="matrix(1.00, 0.00, -0.00, -1.00, 89.1, 394.1)">s</text><text xml:space="preserve" font-family="GillSans-Light,Gill Sans" font-size="40.0" fill="#FEFFFE" transform="matrix(1.00, 0.00, -0.00, -1.00, 103.3, 394.1)">e</text><text xml:space="preserve" font-family="GillSans-Light,Gill Sans" font-size="40.0" fill="#FEFFFE" transform="matrix(1.00, 0.00, -0.00, -1.00, 122.5, 394.1)">d</text><text xml:space="preserve" font-family="GillSans-Light,Gill Sans" font-size="40.0" fill="#FEFFFE" transform="matrix(1.00, 0.00, -0.00, -1.00, 142.9, 394.1)"> </text><text xml:space="preserve" font-family="GillSans-Light,Gill Sans" font-size="40.0" fill="#FEFFFE" transform="matrix(1.00, 0.00, -0.00, -1.00, 154.0, 394.1)">r</text><text xml:space="preserve" font-family="GillSans-Light,Gill Sans" font-size="40.0" fill="#FEFFFE" transform="matrix(1.00, 0.00, -0.00, -1.00, 167.3, 394.1)">e</text><text xml:space="preserve" font-family="GillSans-Light,Gill Sans" font-size="40.0" fill="#FEFFFE" transform="matrix(1.00, 0.00, -0.00, -1.00, 186.4, 394.1)">s</text><text xml:space="preserve" font-family="GillSans-Light,Gill Sans" font-size="40.0" fill="#FEFFFE" transform="matrix(1.00, 0.00, -0.00, -1.00, 200.6, 394.1)">p</text><text xml:space="preserve" font-family="GillSans-Light,Gill Sans" font-size="40.0" fill="#FEFFFE" transform="matrix(1.00, 0.00, -0.00, -1.00, 221.0, 394.1)">o</text><text xml:space="preserve" font-family="GillSans-Light,Gill Sans" font-size="40.0" fill="#FEFFFE" transform="matrix(1.00, 0.00, -0.00, -1.00, 242.7, 394.1)">n</text><text xml:space="preserve" font-family="GillSans-Light,Gill Sans" font-size="40.0" fill="#FEFFFE" transform="matrix(1.00, 0.00, -0.00, -1.00, 262.3, 394.1)">s</text><text xml:space="preserve" font-family="GillSans-Light,Gill Sans" font-size="40.0" fill="#FEFFFE" transform="matrix(1.00, 0.00, -0.00, -1.00, 276.4, 394.1)">e</text><text xml:space="preserve" font-family="GillSans-Light,Gill Sans" font-size="40.0" fill="#FEFFFE" transform="matrix(1.00, 0.00, -0.00, -1.00, 295.6, 394.1)">s</text><text xml:space="preserve" font-family="GillSans-Light,Gill Sans" font-size="40.0" fill="#FEFFFE" transform="matrix(1.00, 0.00, -0.00, -1.00, 309.8, 394.1)"> </text><text xml:space="preserve" font-family="GillSans-Light,Gill Sans" font-size="40.0" fill="#FEFFFE" transform="matrix(1.00, 0.00, -0.00, -1.00, 320.9, 394.1)">i</text><text xml:space="preserve" font-family="GillSans-Light,Gill Sans" font-size="40.0" fill="#FEFFFE" transform="matrix(1.00, 0.00, -0.00, -1.00, 328.4, 394.1)">n</text><text xml:space="preserve" font-family="GillSans-Light,Gill Sans" font-size="40.0" fill="#FEFFFE" transform="matrix(1.00, 0.00, -0.00, -1.00, 348.0, 394.1)"> </text><text xml:space="preserve" font-family="GillSans-Light,Gill Sans" font-size="40.0" fill="#FEFFFE" transform="matrix(1.00, 0.00, -0.00, -1.00, 359.1, 394.1)">t</text><text xml:space="preserve" font-family="GillSans-Light,Gill Sans" font-size="40.0" fill="#FEFFFE" transform="matrix(1.00, 0.00, -0.00, -1.00, 371.2, 394.1)">h</text><text xml:space="preserve" font-family="GillSans-Light,Gill Sans" font-size="40.0" fill="#FEFFFE" transform="matrix(1.00, 0.00, -0.00, -1.00, 390.8, 394.1)">e</text><text xml:space="preserve" font-family="GillSans-Light,Gill Sans" font-size="40.0" fill="#FEFFFE" transform="matrix(1.00, 0.00, -0.00, -1.00, 409.9, 394.1)"> </text><text xml:space="preserve" font-family="GillSans-Light,Gill Sans" font-size="40.0" fill="#FEFFFE" transform="matrix(1.00, 0.00, -0.00, -1.00, 35.8, 348.1)">o</text><text xml:space="preserve" font-family="GillSans-Light,Gill Sans" font-size="40.0" fill="#FEFFFE" transform="matrix(1.00, 0.00, -0.00, -1.00, 57.5, 348.1)">p</text><text xml:space="preserve" font-family="GillSans-Light,Gill Sans" font-size="40.0" fill="#FEFFFE" transform="matrix(1.00, 0.00, -0.00, -1.00, 77.9, 348.1)">p</text><text xml:space="preserve" font-family="GillSans-Light,Gill Sans" font-size="40.0" fill="#FEFFFE" transform="matrix(1.00, 0.00, -0.00, -1.00, 98.2, 348.1)">o</text><text xml:space="preserve" font-family="GillSans-Light,Gill Sans" font-size="40.0" fill="#FEFFFE" transform="matrix(1.00, 0.00, -0.00, -1.00, 119.9, 348.1)">s</text><text xml:space="preserve" font-family="GillSans-Light,Gill Sans" font-size="40.0" fill="#FEFFFE" transform="matrix(1.00, 0.00, -0.00, -1.00, 134.1, 348.1)">i</text><text xml:space="preserve" font-family="GillSans-Light,Gill Sans" font-size="40.0" fill="#FEFFFE" transform="matrix(1.00, 0.00, -0.00, -1.00, 141.6, 348.1)">t</text><text xml:space="preserve" font-family="GillSans-Light,Gill Sans" font-size="40.0" fill="#FEFFFE" transform="matrix(1.00, 0.00, -0.00, -1.00, 153.7, 348.1)">e</text><text xml:space="preserve" font-family="GillSans-Light,Gill Sans" font-size="40.0" fill="#FEFFFE" transform="matrix(1.00, 0.00, -0.00, -1.00, 172.8, 348.1)"> </text><text xml:space="preserve" font-family="GillSans-Light,Gill Sans" font-size="40.0" fill="#FEFFFE" transform="matrix(1.00, 0.00, -0.00, -1.00, 183.9, 348.1)">d</text><text xml:space="preserve" font-family="GillSans-Light,Gill Sans" font-size="40.0" fill="#FEFFFE" transform="matrix(1.00, 0.00, -0.00, -1.00, 204.3, 348.1)">i</text><text xml:space="preserve" font-family="GillSans-Light,Gill Sans" font-size="40.0" fill="#FEFFFE" transform="matrix(1.00, 0.00, -0.00, -1.00, 211.8, 348.1)">r</text><text xml:space="preserve" font-family="GillSans-Light,Gill Sans" font-size="40.0" fill="#FEFFFE" transform="matrix(1.00, 0.00, -0.00, -1.00, 225.1, 348.1)">e</text><text xml:space="preserve" font-family="GillSans-Light,Gill Sans" font-size="40.0" fill="#FEFFFE" transform="matrix(1.00, 0.00, -0.00, -1.00, 244.3, 348.1)">c</text><text xml:space="preserve" font-family="GillSans-Light,Gill Sans" font-size="40.0" fill="#FEFFFE" transform="matrix(1.00, 0.00, -0.00, -1.00, 261.0, 348.1)">t</text><text xml:space="preserve" font-family="GillSans-Light,Gill Sans" font-size="40.0" fill="#FEFFFE" transform="matrix(1.00, 0.00, -0.00, -1.00, 273.0, 348.1)">i</text><text xml:space="preserve" font-family="GillSans-Light,Gill Sans" font-size="40.0" fill="#FEFFFE" transform="matrix(1.00, 0.00, -0.00, -1.00, 280.6, 348.1)">o</text><text xml:space="preserve" font-family="GillSans-Light,Gill Sans" font-size="40.0" fill="#FEFFFE" transform="matrix(1.00, 0.00, -0.00, -1.00, 302.2, 348.1)">n</text><text xml:space="preserve" font-family="GillSans-Light,Gill Sans" font-size="40.0" fill="#FEFFFE" transform="matrix(1.00, 0.00, -0.00, -1.00, 321.9, 348.1)">.</text><text xml:space="preserve" font-family="GillSans-Light,Gill Sans" font-size="40.0" fill="#FEFFFE" transform="matrix(1.00, 0.00, -0.00, -1.00, 328.9, 348.1)">	</text><text xml:space="preserve" font-family="GillSans-Light,Gill Sans" font-size="40.0" fill="#FEFFFE" transform="matrix(1.00, 0.00, -0.00, -1.00, 356.9, 348.1)">
</text><text xml:space="preserve" font-family="GillSans-Light,Gill Sans" font-size="40.0" fill="#FEFFFE" transform="matrix(1.00, 0.00, -0.00, -1.00, 356.9, 348.1)"></text><text xml:space="preserve" font-family="GillSans-Light,Gill Sans" font-size="32.8" fill="#FEFFFE" transform="matrix(1.00, 0.00, -0.00, -1.00, 0.0, 274.5)">•</text><text xml:space="preserve" font-family="GillSans-Light,Gill Sans" font-size="40.0" fill="#FEFFFE" transform="matrix(1.00, 0.00, -0.00, -1.00, 35.8, 271.7)">“</text><text xml:space="preserve" font-family="GillSans-Light,Gill Sans" font-size="40.0" fill="#FEFFFE" transform="matrix(1.00, 0.00, -0.00, -1.00, 51.6, 271.7)">I</text><text xml:space="preserve" font-family="GillSans-Light,Gill Sans" font-size="40.0" fill="#FEFFFE" transform="matrix(1.00, 0.00, -0.00, -1.00, 59.9, 271.7)">n</text><text xml:space="preserve" font-family="GillSans-Light,Gill Sans" font-size="40.0" fill="#FEFFFE" transform="matrix(1.00, 0.00, -0.00, -1.00, 79.6, 271.7)">d</text><text xml:space="preserve" font-family="GillSans-Light,Gill Sans" font-size="40.0" fill="#FEFFFE" transform="matrix(1.00, 0.00, -0.00, -1.00, 99.9, 271.7)">u</text><text xml:space="preserve" font-family="GillSans-Light,Gill Sans" font-size="40.0" fill="#FEFFFE" transform="matrix(1.00, 0.00, -0.00, -1.00, 119.6, 271.7)">c</text><text xml:space="preserve" font-family="GillSans-Light,Gill Sans" font-size="40.0" fill="#FEFFFE" transform="matrix(1.00, 0.00, -0.00, -1.00, 136.2, 271.7)">e</text><text xml:space="preserve" font-family="GillSans-Light,Gill Sans" font-size="40.0" fill="#FEFFFE" transform="matrix(1.00, 0.00, -0.00, -1.00, 155.4, 271.7)">d</text><text xml:space="preserve" font-family="GillSans-Light,Gill Sans" font-size="40.0" fill="#FEFFFE" transform="matrix(1.00, 0.00, -0.00, -1.00, 175.8, 271.7)"> </text><text xml:space="preserve" font-family="GillSans-Light,Gill Sans" font-size="40.0" fill="#FEFFFE" transform="matrix(1.00, 0.00, -0.00, -1.00, 186.9, 271.7)">m</text><text xml:space="preserve" font-family="GillSans-Light,Gill Sans" font-size="40.0" fill="#FEFFFE" transform="matrix(1.00, 0.00, -0.00, -1.00, 217.7, 271.7)">o</text><text xml:space="preserve" font-family="GillSans-Light,Gill Sans" font-size="40.0" fill="#FEFFFE" transform="matrix(1.00, 0.00, -0.00, -1.00, 239.4, 271.7)">t</text><text xml:space="preserve" font-family="GillSans-Light,Gill Sans" font-size="40.0" fill="#FEFFFE" transform="matrix(1.00, 0.00, -0.00, -1.00, 251.5, 271.7)">i</text><text xml:space="preserve" font-family="GillSans-Light,Gill Sans" font-size="40.0" fill="#FEFFFE" transform="matrix(1.00, 0.00, -0.00, -1.00, 259.0, 271.7)">o</text><text xml:space="preserve" font-family="GillSans-Light,Gill Sans" font-size="40.0" fill="#FEFFFE" transform="matrix(1.00, 0.00, -0.00, -1.00, 280.7, 271.7)">n</text><text xml:space="preserve" font-family="GillSans-Light,Gill Sans" font-size="40.0" fill="#FEFFFE" transform="matrix(1.00, 0.00, -0.00, -1.00, 300.3, 271.7)">”</text><text xml:space="preserve" font-family="GillSans-Light,Gill Sans" font-size="40.0" fill="#FEFFFE" transform="matrix(1.00, 0.00, -0.00, -1.00, 312.9, 271.7)"> </text><text xml:space="preserve" font-family="LucidaGrande,Lucida Grande" font-size="40.0" fill="#FEFFFE" transform="matrix(1.00, 0.00, -0.00, -1.00, 324.1, 271.7)"> </text><text xml:space="preserve" font-family="GillSans-Light,Gill Sans" font-size="40.0" fill="#FEFFFE" transform="matrix(1.00, 0.00, -0.00, -1.00, 35.8, 225.7)">(</text><text xml:space="preserve" font-family="GillSans-Light,Gill Sans" font-size="40.0" fill="#FEFFFE" transform="matrix(1.00, 0.00, -0.00, -1.00, 49.1, 225.7)">D</text><text xml:space="preserve" font-family="GillSans-Light,Gill Sans" font-size="40.0" fill="#FEFFFE" transform="matrix(1.00, 0.00, -0.00, -1.00, 78.7, 225.7)">u</text><text xml:space="preserve" font-family="GillSans-Light,Gill Sans" font-size="40.0" fill="#FEFFFE" transform="matrix(1.00, 0.00, -0.00, -1.00, 98.3, 225.7)">n</text><text xml:space="preserve" font-family="GillSans-Light,Gill Sans" font-size="40.0" fill="#FEFFFE" transform="matrix(1.00, 0.00, -0.00, -1.00, 118.0, 225.7)">c</text><text xml:space="preserve" font-family="GillSans-Light,Gill Sans" font-size="40.0" fill="#FEFFFE" transform="matrix(1.00, 0.00, -0.00, -1.00, 134.6, 225.7)">k</text><text xml:space="preserve" font-family="GillSans-Light,Gill Sans" font-size="40.0" fill="#FEFFFE" transform="matrix(1.00, 0.00, -0.00, -1.00, 151.3, 225.7)">e</text><text xml:space="preserve" font-family="GillSans-Light,Gill Sans" font-size="40.0" fill="#FEFFFE" transform="matrix(1.00, 0.00, -0.00, -1.00, 170.5, 225.7)">r</text><text xml:space="preserve" font-family="GillSans-Light,Gill Sans" font-size="40.0" fill="#FEFFFE" transform="matrix(1.00, 0.00, -0.00, -1.00, 183.8, 225.7)"> </text><text xml:space="preserve" font-family="GillSans-Light,Gill Sans" font-size="40.0" fill="#FEFFFE" transform="matrix(1.00, 0.00, -0.00, -1.00, 194.9, 225.7)">i</text><text xml:space="preserve" font-family="GillSans-Light,Gill Sans" font-size="40.0" fill="#FEFFFE" transform="matrix(1.00, 0.00, -0.00, -1.00, 202.4, 225.7)">l</text><text xml:space="preserve" font-family="GillSans-Light,Gill Sans" font-size="40.0" fill="#FEFFFE" transform="matrix(1.00, 0.00, -0.00, -1.00, 209.9, 225.7)">l</text><text xml:space="preserve" font-family="GillSans-Light,Gill Sans" font-size="40.0" fill="#FEFFFE" transform="matrix(1.00, 0.00, -0.00, -1.00, 217.5, 225.7)">u</text><text xml:space="preserve" font-family="GillSans-Light,Gill Sans" font-size="40.0" fill="#FEFFFE" transform="matrix(1.00, 0.00, -0.00, -1.00, 237.1, 225.7)">s</text><text xml:space="preserve" font-family="GillSans-Light,Gill Sans" font-size="40.0" fill="#FEFFFE" transform="matrix(1.00, 0.00, -0.00, -1.00, 251.2, 225.7)">i</text><text xml:space="preserve" font-family="GillSans-Light,Gill Sans" font-size="40.0" fill="#FEFFFE" transform="matrix(1.00, 0.00, -0.00, -1.00, 258.8, 225.7)">o</text><text xml:space="preserve" font-family="GillSans-Light,Gill Sans" font-size="40.0" fill="#FEFFFE" transform="matrix(1.00, 0.00, -0.00, -1.00, 280.4, 225.7)">n</text><text xml:space="preserve" font-family="GillSans-Light,Gill Sans" font-size="40.0" fill="#FEFFFE" transform="matrix(1.00, 0.00, -0.00, -1.00, 300.1, 225.7)">)</text><text xml:space="preserve" font-family="GillSans-Light,Gill Sans" font-size="40.0" fill="#FEFFFE" transform="matrix(1.00, 0.00, -0.00, -1.00, 313.4, 225.7)">	</text><text xml:space="preserve" font-family="GillSans-Light,Gill Sans" font-size="40.0" fill="#FEFFFE" transform="matrix(1.00, 0.00, -0.00, -1.00, 341.4, 225.7)">
</text><text xml:space="preserve" font-family="GillSans-Light,Gill Sans" font-size="40.0" fill="#FEFFFE" transform="matrix(1.00, 0.00, -0.00, -1.00, 341.4, 225.7)"></text><text xml:space="preserve" font-family="GillSans-Light,Gill Sans" font-size="32.8" fill="#FEFFFE" transform="matrix(1.00, 0.00, -0.00, -1.00, 0.0, 152.1)">•</text><text xml:space="preserve" font-family="GillSans-Light,Gill Sans" font-size="40.0" fill="#FEFFFE" transform="matrix(1.00, 0.00, -0.00, -1.00, 35.8, 149.3)">F</text><text xml:space="preserve" font-family="GillSans-Light,Gill Sans" font-size="40.0" fill="#FEFFFE" transform="matrix(1.00, 0.00, -0.00, -1.00, 53.3, 149.3)">i</text><text xml:space="preserve" font-family="GillSans-Light,Gill Sans" font-size="40.0" fill="#FEFFFE" transform="matrix(1.00, 0.00, -0.00, -1.00, 60.8, 149.3)">r</text><text xml:space="preserve" font-family="GillSans-Light,Gill Sans" font-size="40.0" fill="#FEFFFE" transform="matrix(1.00, 0.00, -0.00, -1.00, 75.7, 149.3)">s</text><text xml:space="preserve" font-family="GillSans-Light,Gill Sans" font-size="40.0" fill="#FEFFFE" transform="matrix(1.00, 0.00, -0.00, -1.00, 89.9, 149.3)">t</text><text xml:space="preserve" font-family="GillSans-Light,Gill Sans" font-size="40.0" fill="#FEFFFE" transform="matrix(1.00, 0.00, -0.00, -1.00, 102.0, 149.3)">-</text><text xml:space="preserve" font-family="GillSans-Light,Gill Sans" font-size="40.0" fill="#FEFFFE" transform="matrix(1.00, 0.00, -0.00, -1.00, 114.5, 149.3)">o</text><text xml:space="preserve" font-family="GillSans-Light,Gill Sans" font-size="40.0" fill="#FEFFFE" transform="matrix(1.00, 0.00, -0.00, -1.00, 136.2, 149.3)">r</text><text xml:space="preserve" font-family="GillSans-Light,Gill Sans" font-size="40.0" fill="#FEFFFE" transform="matrix(1.00, 0.00, -0.00, -1.00, 149.5, 149.3)">d</text><text xml:space="preserve" font-family="GillSans-Light,Gill Sans" font-size="40.0" fill="#FEFFFE" transform="matrix(1.00, 0.00, -0.00, -1.00, 169.9, 149.3)">e</text><text xml:space="preserve" font-family="GillSans-Light,Gill Sans" font-size="40.0" fill="#FEFFFE" transform="matrix(1.00, 0.00, -0.00, -1.00, 189.0, 149.3)">r</text><text xml:space="preserve" font-family="GillSans-Light,Gill Sans" font-size="40.0" fill="#FEFFFE" transform="matrix(1.00, 0.00, -0.00, -1.00, 202.4, 149.3)"> </text><text xml:space="preserve" font-family="GillSans-Light,Gill Sans" font-size="40.0" fill="#FEFFFE" transform="matrix(1.00, 0.00, -0.00, -1.00, 213.5, 149.3)">m</text><text xml:space="preserve" font-family="GillSans-Light,Gill Sans" font-size="40.0" fill="#FEFFFE" transform="matrix(1.00, 0.00, -0.00, -1.00, 244.3, 149.3)">o</text><text xml:space="preserve" font-family="GillSans-Light,Gill Sans" font-size="40.0" fill="#FEFFFE" transform="matrix(1.00, 0.00, -0.00, -1.00, 266.0, 149.3)">t</text><text xml:space="preserve" font-family="GillSans-Light,Gill Sans" font-size="40.0" fill="#FEFFFE" transform="matrix(1.00, 0.00, -0.00, -1.00, 278.0, 149.3)">i</text><text xml:space="preserve" font-family="GillSans-Light,Gill Sans" font-size="40.0" fill="#FEFFFE" transform="matrix(1.00, 0.00, -0.00, -1.00, 285.6, 149.3)">o</text><text xml:space="preserve" font-family="GillSans-Light,Gill Sans" font-size="40.0" fill="#FEFFFE" transform="matrix(1.00, 0.00, -0.00, -1.00, 307.2, 149.3)">n</text><text xml:space="preserve" font-family="GillSans-Light,Gill Sans" font-size="40.0" fill="#FEFFFE" transform="matrix(1.00, 0.00, -0.00, -1.00, 326.9, 149.3)"> </text><text xml:space="preserve" font-family="GillSans-Light,Gill Sans" font-size="40.0" fill="#FEFFFE" transform="matrix(1.00, 0.00, -0.00, -1.00, 35.8, 103.3)">a</text><text xml:space="preserve" font-family="GillSans-Light,Gill Sans" font-size="40.0" fill="#FEFFFE" transform="matrix(1.00, 0.00, -0.00, -1.00, 52.9, 103.3)">t</text><text xml:space="preserve" font-family="GillSans-Light,Gill Sans" font-size="40.0" fill="#FEFFFE" transform="matrix(1.00, 0.00, -0.00, -1.00, 64.9, 103.3)">t</text><text xml:space="preserve" font-family="GillSans-Light,Gill Sans" font-size="40.0" fill="#FEFFFE" transform="matrix(1.00, 0.00, -0.00, -1.00, 77.0, 103.3)">r</text><text xml:space="preserve" font-family="GillSans-Light,Gill Sans" font-size="40.0" fill="#FEFFFE" transform="matrix(1.00, 0.00, -0.00, -1.00, 91.3, 103.3)">i</text><text xml:space="preserve" font-family="GillSans-Light,Gill Sans" font-size="40.0" fill="#FEFFFE" transform="matrix(1.00, 0.00, -0.00, -1.00, 98.8, 103.3)">b</text><text xml:space="preserve" font-family="GillSans-Light,Gill Sans" font-size="40.0" fill="#FEFFFE" transform="matrix(1.00, 0.00, -0.00, -1.00, 118.8, 103.3)">u</text><text xml:space="preserve" font-family="GillSans-Light,Gill Sans" font-size="40.0" fill="#FEFFFE" transform="matrix(1.00, 0.00, -0.00, -1.00, 138.4, 103.3)">t</text><text xml:space="preserve" font-family="GillSans-Light,Gill Sans" font-size="40.0" fill="#FEFFFE" transform="matrix(1.00, 0.00, -0.00, -1.00, 150.5, 103.3)">e</text><text xml:space="preserve" font-family="GillSans-Light,Gill Sans" font-size="40.0" fill="#FEFFFE" transform="matrix(1.00, 0.00, -0.00, -1.00, 169.6, 103.3)">d</text><text xml:space="preserve" font-family="GillSans-Light,Gill Sans" font-size="40.0" fill="#FEFFFE" transform="matrix(1.00, 0.00, -0.00, -1.00, 190.0, 103.3)"> </text><text xml:space="preserve" font-family="GillSans-Light,Gill Sans" font-size="40.0" fill="#FEFFFE" transform="matrix(1.00, 0.00, -0.00, -1.00, 201.1, 103.3)">t</text><text xml:space="preserve" font-family="GillSans-Light,Gill Sans" font-size="40.0" fill="#FEFFFE" transform="matrix(1.00, 0.00, -0.00, -1.00, 213.2, 103.3)">o</text><text xml:space="preserve" font-family="GillSans-Light,Gill Sans" font-size="40.0" fill="#FEFFFE" transform="matrix(1.00, 0.00, -0.00, -1.00, 234.9, 103.3)"> </text><text xml:space="preserve" font-family="GillSans-Light,Gill Sans" font-size="40.0" fill="#FEFFFE" transform="matrix(1.00, 0.00, -0.00, -1.00, 246.0, 103.3)">b</text><text xml:space="preserve" font-family="GillSans-Light,Gill Sans" font-size="40.0" fill="#FEFFFE" transform="matrix(1.00, 0.00, -0.00, -1.00, 266.4, 103.3)">a</text><text xml:space="preserve" font-family="GillSans-Light,Gill Sans" font-size="40.0" fill="#FEFFFE" transform="matrix(1.00, 0.00, -0.00, -1.00, 283.4, 103.3)">c</text><text xml:space="preserve" font-family="GillSans-Light,Gill Sans" font-size="40.0" fill="#FEFFFE" transform="matrix(1.00, 0.00, -0.00, -1.00, 300.1, 103.3)">k</text><text xml:space="preserve" font-family="GillSans-Light,Gill Sans" font-size="40.0" fill="#FEFFFE" transform="matrix(1.00, 0.00, -0.00, -1.00, 317.2, 103.3)">g</text><text xml:space="preserve" font-family="GillSans-Light,Gill Sans" font-size="40.0" fill="#FEFFFE" transform="matrix(1.00, 0.00, -0.00, -1.00, 334.2, 103.3)">r</text><text xml:space="preserve" font-family="GillSans-Light,Gill Sans" font-size="40.0" fill="#FEFFFE" transform="matrix(1.00, 0.00, -0.00, -1.00, 347.5, 103.3)">o</text><text xml:space="preserve" font-family="GillSans-Light,Gill Sans" font-size="40.0" fill="#FEFFFE" transform="matrix(1.00, 0.00, -0.00, -1.00, 369.2, 103.3)">u</text><text xml:space="preserve" font-family="GillSans-Light,Gill Sans" font-size="40.0" fill="#FEFFFE" transform="matrix(1.00, 0.00, -0.00, -1.00, 388.8, 103.3)">n</text><text xml:space="preserve" font-family="GillSans-Light,Gill Sans" font-size="40.0" fill="#FEFFFE" transform="matrix(1.00, 0.00, -0.00, -1.00, 408.5, 103.3)">d</text><text xml:space="preserve" font-family="GillSans-Light,Gill Sans" font-size="40.0" fill="#FEFFFE" transform="matrix(1.00, 0.00, -0.00, -1.00, 428.8, 103.3)">;</text><text xml:space="preserve" font-family="GillSans-Light,Gill Sans" font-size="40.0" fill="#FEFFFE" transform="matrix(1.00, 0.00, -0.00, -1.00, 432.7, 103.3)"> </text><text xml:space="preserve" font-family="LucidaGrande,Lucida Grande" font-size="40.0" fill="#FEFFFE" transform="matrix(1.00, 0.00, -0.00, -1.00, 443.9, 103.3)"> </text><text xml:space="preserve" font-family="GillSans-Light,Gill Sans" font-size="40.0" fill="#FEFFFE" transform="matrix(1.00, 0.00, -0.00, -1.00, 35.8, 57.3)">p</text><text xml:space="preserve" font-family="GillSans-Light,Gill Sans" font-size="40.0" fill="#FEFFFE" transform="matrix(1.00, 0.00, -0.00, -1.00, 56.2, 57.3)">o</text><text xml:space="preserve" font-family="GillSans-Light,Gill Sans" font-size="40.0" fill="#FEFFFE" transform="matrix(1.00, 0.00, -0.00, -1.00, 77.9, 57.3)">s</text><text xml:space="preserve" font-family="GillSans-Light,Gill Sans" font-size="40.0" fill="#FEFFFE" transform="matrix(1.00, 0.00, -0.00, -1.00, 92.0, 57.3)">i</text><text xml:space="preserve" font-family="GillSans-Light,Gill Sans" font-size="40.0" fill="#FEFFFE" transform="matrix(1.00, 0.00, -0.00, -1.00, 99.5, 57.3)">t</text><text xml:space="preserve" font-family="GillSans-Light,Gill Sans" font-size="40.0" fill="#FEFFFE" transform="matrix(1.00, 0.00, -0.00, -1.00, 111.6, 57.3)">i</text><text xml:space="preserve" font-family="GillSans-Light,Gill Sans" font-size="40.0" fill="#FEFFFE" transform="matrix(1.00, 0.00, -0.00, -1.00, 119.1, 57.3)">o</text><text xml:space="preserve" font-family="GillSans-Light,Gill Sans" font-size="40.0" fill="#FEFFFE" transform="matrix(1.00, 0.00, -0.00, -1.00, 140.8, 57.3)">n</text><text xml:space="preserve" font-family="GillSans-Light,Gill Sans" font-size="40.0" fill="#FEFFFE" transform="matrix(1.00, 0.00, -0.00, -1.00, 160.4, 57.3)">-</text><text xml:space="preserve" font-family="GillSans-Light,Gill Sans" font-size="40.0" fill="#FEFFFE" transform="matrix(1.00, 0.00, -0.00, -1.00, 172.9, 57.3)">d</text><text xml:space="preserve" font-family="GillSans-Light,Gill Sans" font-size="40.0" fill="#FEFFFE" transform="matrix(1.00, 0.00, -0.00, -1.00, 193.3, 57.3)">e</text><text xml:space="preserve" font-family="GillSans-Light,Gill Sans" font-size="40.0" fill="#FEFFFE" transform="matrix(1.00, 0.00, -0.00, -1.00, 212.5, 57.3)">ﬁ</text><text xml:space="preserve" font-family="GillSans-Light,Gill Sans" font-size="40.0" fill="#FEFFFE" transform="matrix(1.00, 0.00, -0.00, -1.00, 231.6, 57.3)">n</text><text xml:space="preserve" font-family="GillSans-Light,Gill Sans" font-size="40.0" fill="#FEFFFE" transform="matrix(1.00, 0.00, -0.00, -1.00, 251.3, 57.3)">e</text><text xml:space="preserve" font-family="GillSans-Light,Gill Sans" font-size="40.0" fill="#FEFFFE" transform="matrix(1.00, 0.00, -0.00, -1.00, 270.4, 57.3)">d</text><text xml:space="preserve" font-family="GillSans-Light,Gill Sans" font-size="40.0" fill="#FEFFFE" transform="matrix(1.00, 0.00, -0.00, -1.00, 290.8, 57.3)"> </text><text xml:space="preserve" font-family="GillSans-Light,Gill Sans" font-size="40.0" fill="#FEFFFE" transform="matrix(1.00, 0.00, -0.00, -1.00, 301.9, 57.3)">m</text><text xml:space="preserve" font-family="GillSans-Light,Gill Sans" font-size="40.0" fill="#FEFFFE" transform="matrix(1.00, 0.00, -0.00, -1.00, 332.7, 57.3)">o</text><text xml:space="preserve" font-family="GillSans-Light,Gill Sans" font-size="40.0" fill="#FEFFFE" transform="matrix(1.00, 0.00, -0.00, -1.00, 354.4, 57.3)">t</text><text xml:space="preserve" font-family="GillSans-Light,Gill Sans" font-size="40.0" fill="#FEFFFE" transform="matrix(1.00, 0.00, -0.00, -1.00, 366.5, 57.3)">i</text><text xml:space="preserve" font-family="GillSans-Light,Gill Sans" font-size="40.0" fill="#FEFFFE" transform="matrix(1.00, 0.00, -0.00, -1.00, 374.0, 57.3)">o</text><text xml:space="preserve" font-family="GillSans-Light,Gill Sans" font-size="40.0" fill="#FEFFFE" transform="matrix(1.00, 0.00, -0.00, -1.00, 395.7, 57.3)">n</text><text xml:space="preserve" font-family="GillSans-Light,Gill Sans" font-size="40.0" fill="#FEFFFE" transform="matrix(1.00, 0.00, -0.00, -1.00, 415.3, 57.3)"> </text><text xml:space="preserve" font-family="GillSans-Light,Gill Sans" font-size="40.0" fill="#FEFFFE" transform="matrix(1.00, 0.00, -0.00, -1.00, 35.8, 11.3)">a</text><text xml:space="preserve" font-family="GillSans-Light,Gill Sans" font-size="40.0" fill="#FEFFFE" transform="matrix(1.00, 0.00, -0.00, -1.00, 52.9, 11.3)">t</text><text xml:space="preserve" font-family="GillSans-Light,Gill Sans" font-size="40.0" fill="#FEFFFE" transform="matrix(1.00, 0.00, -0.00, -1.00, 64.9, 11.3)">t</text><text xml:space="preserve" font-family="GillSans-Light,Gill Sans" font-size="40.0" fill="#FEFFFE" transform="matrix(1.00, 0.00, -0.00, -1.00, 77.0, 11.3)">r</text><text xml:space="preserve" font-family="GillSans-Light,Gill Sans" font-size="40.0" fill="#FEFFFE" transform="matrix(1.00, 0.00, -0.00, -1.00, 91.3, 11.3)">i</text><text xml:space="preserve" font-family="GillSans-Light,Gill Sans" font-size="40.0" fill="#FEFFFE" transform="matrix(1.00, 0.00, -0.00, -1.00, 98.8, 11.3)">b</text><text xml:space="preserve" font-family="GillSans-Light,Gill Sans" font-size="40.0" fill="#FEFFFE" transform="matrix(1.00, 0.00, -0.00, -1.00, 118.8, 11.3)">u</text><text xml:space="preserve" font-family="GillSans-Light,Gill Sans" font-size="40.0" fill="#FEFFFE" transform="matrix(1.00, 0.00, -0.00, -1.00, 138.4, 11.3)">t</text><text xml:space="preserve" font-family="GillSans-Light,Gill Sans" font-size="40.0" fill="#FEFFFE" transform="matrix(1.00, 0.00, -0.00, -1.00, 150.5, 11.3)">e</text><text xml:space="preserve" font-family="GillSans-Light,Gill Sans" font-size="40.0" fill="#FEFFFE" transform="matrix(1.00, 0.00, -0.00, -1.00, 169.6, 11.3)">d</text><text xml:space="preserve" font-family="GillSans-Light,Gill Sans" font-size="40.0" fill="#FEFFFE" transform="matrix(1.00, 0.00, -0.00, -1.00, 190.0, 11.3)"> </text><text xml:space="preserve" font-family="GillSans-Light,Gill Sans" font-size="40.0" fill="#FEFFFE" transform="matrix(1.00, 0.00, -0.00, -1.00, 201.1, 11.3)">t</text><text xml:space="preserve" font-family="GillSans-Light,Gill Sans" font-size="40.0" fill="#FEFFFE" transform="matrix(1.00, 0.00, -0.00, -1.00, 213.2, 11.3)">o</text><text xml:space="preserve" font-family="GillSans-Light,Gill Sans" font-size="40.0" fill="#FEFFFE" transform="matrix(1.00, 0.00, -0.00, -1.00, 234.9, 11.3)"> </text><text xml:space="preserve" font-family="GillSans-Light,Gill Sans" font-size="40.0" fill="#FEFFFE" transform="matrix(1.00, 0.00, -0.00, -1.00, 246.0, 11.3)">o</text><text xml:space="preserve" font-family="GillSans-Light,Gill Sans" font-size="40.0" fill="#FEFFFE" transform="matrix(1.00, 0.00, -0.00, -1.00, 267.7, 11.3)">b</text><text xml:space="preserve" font-family="GillSans-Light,Gill Sans" font-size="40.0" fill="#FEFFFE" transform="matrix(1.00, 0.00, -0.00, -1.00, 288.0, 11.3)">j</text><text xml:space="preserve" font-family="GillSans-Light,Gill Sans" font-size="40.0" fill="#FEFFFE" transform="matrix(1.00, 0.00, -0.00, -1.00, 295.6, 11.3)">e</text><text xml:space="preserve" font-family="GillSans-Light,Gill Sans" font-size="40.0" fill="#FEFFFE" transform="matrix(1.00, 0.00, -0.00, -1.00, 314.7, 11.3)">c</text><text xml:space="preserve" font-family="GillSans-Light,Gill Sans" font-size="40.0" fill="#FEFFFE" transform="matrix(1.00, 0.00, -0.00, -1.00, 331.4, 11.3)">t</text><text xml:space="preserve" font-family="GillSans-Light,Gill Sans" font-size="40.0" fill="#FEFFFE" transform="matrix(1.00, 0.00, -0.00, -1.00, 343.5, 11.3)">s</text></g></svg>