<?xml version="1.0" encoding="UTF-8" standalone="no"?><svg xmlns="http://www.w3.org/2000/svg" xmlns:xlink="http://www.w3.org/1999/xlink" clip-rule="evenodd" stroke-miterlimit="10" viewBox="0 0 521 83"><desc>SVG generated by Keynote</desc><defs></defs><g transform="matrix(1.00, 0.00, -0.00, -1.00, 0.0, 83.0)"><image xlink:href="../../3ED7E2B6-0CC7-44F0-BE65-45BB50ACADCB/assets/9FA6E0A443D30562273880BC840C08BE.png" width="519.00" height="80.00" transform="matrix(1.00, 0.00, -0.00, -1.00, 1.0, 81.0)"></image><text xml:space="preserve" font-family="GillSans-Light,Gill Sans" font-size="77.8" fill="#FEFFFE" transform="matrix(1.00, 0.00, -0.00, -1.00, -0.3, 24.8)">M</text><text xml:space="preserve" font-family="GillSans-Light,Gill Sans" font-size="77.8" fill="#FEFFFE" transform="matrix(1.00, 0.00, -0.00, -1.00, 60.4, 24.8)">o</text><text xml:space="preserve" font-family="GillSans-Light,Gill Sans" font-size="77.8" fill="#FEFFFE" transform="matrix(1.00, 0.00, -0.00, -1.00, 102.6, 24.8)">t</text><text xml:space="preserve" font-family="GillSans-Light,Gill Sans" font-size="77.8" fill="#FEFFFE" transform="matrix(1.00, 0.00, -0.00, -1.00, 126.0, 24.8)">i</text><text xml:space="preserve" font-family="GillSans-Light,Gill Sans" font-size="77.8" fill="#FEFFFE" transform="matrix(1.00, 0.00, -0.00, -1.00, 140.7, 24.8)">o</text><text xml:space="preserve" font-family="GillSans-Light,Gill Sans" font-size="77.8" fill="#FEFFFE" transform="matrix(1.00, 0.00, -0.00, -1.00, 182.8, 24.8)">n</text><text xml:space="preserve" font-family="GillSans-Light,Gill Sans" font-size="77.8" fill="#FEFFFE" transform="matrix(1.00, 0.00, -0.00, -1.00, 220.9, 24.8)"> </text><text xml:space="preserve" font-family="GillSans-Light,Gill Sans" font-size="77.8" fill="#FEFFFE" transform="matrix(1.00, 0.00, -0.00, -1.00, 242.5, 24.8)">r</text><text xml:space="preserve" font-family="GillSans-Light,Gill Sans" font-size="77.8" fill="#FEFFFE" transform="matrix(1.00, 0.00, -0.00, -1.00, 268.4, 24.8)">e</text><text xml:space="preserve" font-family="GillSans-Light,Gill Sans" font-size="77.8" fill="#FEFFFE" transform="matrix(1.00, 0.00, -0.00, -1.00, 305.7, 24.8)">p</text><text xml:space="preserve" font-family="GillSans-Light,Gill Sans" font-size="77.8" fill="#FEFFFE" transform="matrix(1.00, 0.00, -0.00, -1.00, 345.3, 24.8)">u</text><text xml:space="preserve" font-family="GillSans-Light,Gill Sans" font-size="77.8" fill="#FEFFFE" transform="matrix(1.00, 0.00, -0.00, -1.00, 383.4, 24.8)">l</text><text xml:space="preserve" font-family="GillSans-Light,Gill Sans" font-size="77.8" fill="#FEFFFE" transform="matrix(1.00, 0.00, -0.00, -1.00, 398.0, 24.8)">s</text><text xml:space="preserve" font-family="GillSans-Light,Gill Sans" font-size="77.8" fill="#FEFFFE" transform="matrix(1.00, 0.00, -0.00, -1.00, 425.6, 24.8)">i</text><text xml:space="preserve" font-family="GillSans-Light,Gill Sans" font-size="77.8" fill="#FEFFFE" transform="matrix(1.00, 0.00, -0.00, -1.00, 440.2, 24.8)">o</text><text xml:space="preserve" font-family="GillSans-Light,Gill Sans" font-size="77.8" fill="#FEFFFE" transform="matrix(1.00, 0.00, -0.00, -1.00, 482.3, 24.8)">n</text></g></svg>